<svg id="Layer_1" data-name="Layer 1" xmlns="http://www.w3.org/2000/svg" viewBox="0 0 1024 83.52"><defs><style>.cls-1{fill:#ffffff;}</style></defs><path class="cls-1" d="M405.85,43.71H85.42a2,2,0,0,1,0-3.9H405.85a2,2,0,0,1,0,3.9Z"/><path class="cls-1" d="M475.26,41.76a12.15,12.15,0,1,1-12.14-12.14A12.14,12.14,0,0,1,475.26,41.76Z"/><path class="cls-1" d="M429.72,41.76a7.29,7.29,0,1,1-7.29-7.29A7.29,7.29,0,0,1,429.72,41.76Z"/><path class="cls-1" d="M533,41.76A21.86,21.86,0,1,1,511.09,19.9,21.86,21.86,0,0,1,533,41.76Z"/><path class="cls-1" d="M936.76,43.71H616.32a2,2,0,0,1,0-3.9H936.76a2,2,0,1,1,0,3.9Z"/><path class="cls-1" d="M546.92,41.76a12.15,12.15,0,1,1,12.14,12.15A12.13,12.13,0,0,1,546.92,41.76Z"/><path class="cls-1" d="M592.46,41.76a7.29,7.29,0,1,1,7.29,7.29A7.29,7.29,0,0,1,592.46,41.76Z"/><path class="cls-1" d="M79.35,41.76a7.29,7.29,0,1,1,7.29,7.29A7.29,7.29,0,0,1,79.35,41.76Z"/><path class="cls-1" d="M930.08,41.76a7.29,7.29,0,1,1,7.28,7.29A7.29,7.29,0,0,1,930.08,41.76Z"/></svg>