<svg id="Layer_1" data-name="Layer 1" xmlns="http://www.w3.org/2000/svg" viewBox="0 0 665.61 83.52"><defs><style>.cls-1{fill:#ffffff;}</style></defs><path class="cls-1" d="M608.79,49.33a1.44,1.44,0,0,1-1.43-1.26A13.37,13.37,0,0,1,619,33.13a7.79,7.79,0,0,1,8.71,6.77,4.82,4.82,0,0,1-4.19,5.39,1.44,1.44,0,0,1-.36-2.86,1.93,1.93,0,0,0,1.3-.74,2,2,0,0,0,.39-1.43A4.92,4.92,0,0,0,619.33,36a10.5,10.5,0,0,0-9.11,11.72A1.44,1.44,0,0,1,609,49.32Z"/><path class="cls-1" d="M364.11,73.47a39.46,39.46,0,0,1-29.74-13.69A39,39,0,0,1,295.53,72.3a27.93,27.93,0,0,1-20.39-33.79A19.94,19.94,0,0,1,299.3,23.93a14.39,14.39,0,0,1,10.52,17.43A10.51,10.51,0,0,1,297.1,49a1.44,1.44,0,1,1,.7-2.8A7.63,7.63,0,0,0,307,40.66a11.5,11.5,0,0,0-8.41-13.93A17.06,17.06,0,0,0,277.94,39.2a25.06,25.06,0,0,0,18.28,30.3,36.15,36.15,0,0,0,36.32-12,39.16,39.16,0,0,1-6.49-13.88c-.18-.55-4.88-15.9,6.57-33.87l1.07-1.68L335,9.58c.54.66,13.21,16.27,8.13,34.07a41.88,41.88,0,0,1-6.86,13.85,36.52,36.52,0,0,0,36.7,12A25,25,0,0,0,391.2,39.2a17.06,17.06,0,0,0-20.67-12.47,11.49,11.49,0,0,0-8.4,13.93,7.62,7.62,0,0,0,9.22,5.57A1.44,1.44,0,0,1,372,49a10.52,10.52,0,0,1-12.72-7.67,14.39,14.39,0,0,1,10.52-17.43A19.94,19.94,0,0,1,394,38.51,27.93,27.93,0,0,1,373.61,72.3,39.53,39.53,0,0,1,364.11,73.47ZM334,13.1c-9.31,16.06-5.17,29.58-5.13,29.72a36.9,36.9,0,0,0,5.57,12.29,39.14,39.14,0,0,0,5.92-12.25C344.05,29.72,336.93,17.46,334,13.1Z"/><path class="cls-1" d="M608.79,49.33H393.26a1.45,1.45,0,0,1,0-2.89H608.79a1.45,1.45,0,0,1,0,2.89Z"/><path class="cls-1" d="M275.91,49.33H59.07l.2-1.62A10.24,10.24,0,0,0,57,40a10.91,10.91,0,0,0-7.16-4,4.92,4.92,0,0,0-5.48,4.27,1.87,1.87,0,0,0,.39,1.43,1.93,1.93,0,0,0,1.29.74,1.44,1.44,0,1,1-.36,2.86A4.82,4.82,0,0,1,41.5,39.9a7.79,7.79,0,0,1,8.71-6.77,13.74,13.74,0,0,1,9,5,13.17,13.17,0,0,1,3,8.27H275.91a1.45,1.45,0,0,1,0,2.89Z"/></svg>