<svg id="Layer_1" data-name="Layer 1" xmlns="http://www.w3.org/2000/svg" viewBox="0 0 1024 83.52"><defs><style>.cls-1{fill:#ffffff;}</style></defs><path class="cls-1" d="M898,43.41H130a1.65,1.65,0,0,1,0-3.3H898a1.65,1.65,0,0,1,0,3.3Z"/><path class="cls-1" d="M907.35,41.76s14.86,10.08,12.14,21c0,0,7-6.31,1.8-12.86-4.6-5.77,3.61,6.42,13-8.09-9.4-14.51-16.76-1.73-13-8.08,4.69-8-1.8-12.87-1.8-12.87C920.37,33.61,907.35,41.76,907.35,41.76Z"/><path class="cls-1" d="M919.59,48.15s11.14,21.11,28.88,4.8c14.41-13.24,18.95-11.7,18.95-11.7s-6.72.18-18.71-11.26c-17.42-16.63-28.63,5.93-28.63,5.93Z"/><path class="cls-1" d="M913.57,41.76a9.51,9.51,0,1,1-9.51-9.51A9.51,9.51,0,0,1,913.57,41.76Z"/><path class="cls-1" d="M116.65,41.76s-14.86-10.08-12.14-20.95c0,0-7,6.31-1.8,12.87,4.6,5.77-3.61-6.43-13,8.08,9.4,14.51,16.76,1.73,13,8.09-4.69,7.95,1.8,12.86,1.8,12.86C103.63,49.91,116.65,41.76,116.65,41.76Z"/><path class="cls-1" d="M104.41,35.37s-11.14-21.1-28.88-4.8c-14.41,13.25-19,11.7-19,11.7s6.72-.18,18.71,11.26c17.42,16.64,28.63-5.93,28.63-5.93Z"/><path class="cls-1" d="M110.43,41.09a9.51,9.51,0,1,1,9.51,9.51A9.51,9.51,0,0,1,110.43,41.09Z"/></svg>