<svg id="Layer_1" data-name="Layer 1" xmlns="http://www.w3.org/2000/svg" viewBox="0 0 863.01 83.52"><defs><style>.cls-1{fill:#ffffff;}</style></defs><path class="cls-1" d="M475.12,72.4A12,12,0,0,1,463.23,62a9.31,9.31,0,0,1,8-10.44,7.28,7.28,0,0,1,8.17,6.28,1.58,1.58,0,1,1-3.14.41,4.13,4.13,0,0,0-4.62-3.54,6.13,6.13,0,0,0-5.27,6.87,8.83,8.83,0,0,0,9.92,7.61,12.5,12.5,0,0,0,10.77-14c-1.16-8.87-6.5-14.4-15-15.58-14.44-2-35.68,9.35-44.27,29.4a1.59,1.59,0,0,1-2.92-1.25c9.46-22.08,32.09-33.43,47.63-31.29,9.92,1.37,16.39,8,17.74,18.31a15.67,15.67,0,0,1-13.5,17.6A12.41,12.41,0,0,1,475.12,72.4Z"/><path class="cls-1" d="M377.5,72.4a12.14,12.14,0,0,1-1.59-.11,15.71,15.71,0,0,1-13.51-17.6c1.35-10.27,7.82-16.94,17.75-18.31,15.53-2.14,38.16,9.21,47.62,31.29a1.59,1.59,0,0,1-2.92,1.25c-8.59-20.05-29.83-31.39-44.27-29.4-8.53,1.18-13.87,6.71-15,15.58a12.52,12.52,0,0,0,10.77,14,8.83,8.83,0,0,0,9.92-7.61A6.13,6.13,0,0,0,381,54.66a4.13,4.13,0,0,0-4.62,3.54,1.58,1.58,0,1,1-3.14-.41,7.3,7.3,0,0,1,8.18-6.28,9.32,9.32,0,0,1,8,10.44A12,12,0,0,1,377.5,72.4Z"/><path class="cls-1" d="M384,47.4a28.39,28.39,0,0,1-3.85-.26c-9.93-1.36-16.4-8-17.75-18.3a15.68,15.68,0,0,1,13.51-17.61,12,12,0,0,1,13.48,10.34,9.31,9.31,0,0,1-8,10.44,7.3,7.3,0,0,1-8.18-6.28,1.58,1.58,0,1,1,3.14-.41,4.14,4.14,0,0,0,1.58,2.73,4,4,0,0,0,3,.81A6.13,6.13,0,0,0,386.24,22a8.83,8.83,0,0,0-9.92-7.61,12.5,12.5,0,0,0-10.77,14c1.16,8.87,6.5,14.4,15,15.58,14.44,2,35.68-9.35,44.27-29.4a1.59,1.59,0,0,1,2.92,1.26C419.07,36.17,399.22,47.4,384,47.4Z"/><path class="cls-1" d="M468.62,47.4c-15.22,0-35.06-11.23-43.77-31.54a1.59,1.59,0,0,1,2.92-1.26C436.36,34.65,457.6,46,472,44c8.53-1.18,13.87-6.71,15-15.58a12.53,12.53,0,0,0-10.78-14A8.83,8.83,0,0,0,466.38,22a6.13,6.13,0,0,0,5.27,6.87,4.11,4.11,0,0,0,4.62-3.54,1.59,1.59,0,0,1,3.15.41A7.3,7.3,0,0,1,471.24,32a9.31,9.31,0,0,1-8-10.44,12,12,0,0,1,13.49-10.34,15.69,15.69,0,0,1,13.5,17.61c-1.35,10.26-7.82,16.94-17.74,18.3A28.65,28.65,0,0,1,468.62,47.4Z"/><path class="cls-1" d="M822.5,43.81h-339a1.59,1.59,0,1,1,0-3.17h339a1.59,1.59,0,1,1,0,3.17Z"/><path class="cls-1" d="M367.93,43.81H30.3a1.59,1.59,0,1,1,0-3.17H367.93a1.59,1.59,0,1,1,0,3.17Z"/><path class="cls-1" d="M830.46,42.22a8,8,0,1,1-8-8A8,8,0,0,1,830.46,42.22Z"/><path class="cls-1" d="M38.6,42.22a8,8,0,1,1-8-8A8,8,0,0,1,38.6,42.22Z"/></svg>