<svg viewBox="0 0 572.3 83.52" xmlns="http://www.w3.org/2000/svg"><g fill="#ffffff"><path d="m531.06 73.09a13.28 13.28 0 0 1 -13.25-12.81 8.71 8.71 0 0 1 8.4-9 5.84 5.84 0 0 1 6 5.65 4.08 4.08 0 0 1 -4 4.23 3 3 0 0 1 -3.1-2.89 1.19 1.19 0 0 1 2.38-.08.63.63 0 0 0 .64.6 1.74 1.74 0 0 0 1.76-1.79 3.48 3.48 0 0 0 -1.11-2.42 3.44 3.44 0 0 0 -2.49-.94 6.33 6.33 0 0 0 -6.1 6.53 10.9 10.9 0 0 0 11.24 10.5 18.23 18.23 0 0 0 17.57-18.78c-.34-9.87-4-17.31-10.73-22.13-15.55-11-47.35-9.21-94.5 5.46-51.77 16.11-87.77 26.96-116.42 30.94-30.91 4.29-50.71-.15-64.19-14.42-8.33-8.81-11.11-18.57-7.62-26.78a17.22 17.22 0 0 1 15.31-10.58c6.82-.07 12.76 4.34 16.22 12.07a1.19 1.19 0 0 1 -2.17 1c-3-6.83-8.18-10.71-14-10.66a14.8 14.8 0 0 0 -13.14 9.13c-3.1 7.3-.5 16.13 7.15 24.22 26.75 28.3 76.71 14.38 178.16-17.14 47.9-14.9 80.4-16.63 96.59-5.13 7.42 5.27 11.36 13.34 11.72 24a20.61 20.61 0 0 1 -19.87 21.27z"/><path d="m41.24 73.09h-.45a20.61 20.61 0 0 1 -19.87-21.28c.36-10.65 4.3-18.72 11.72-24 16.19-11.5 48.69-9.77 96.59 5.13 101.45 31.58 151.41 45.5 178.19 17.17 7.65-8.09 10.25-16.92 7.15-24.22a14.8 14.8 0 0 0 -13.14-9.13c-5.85-.06-11 3.83-14 10.66a1.19 1.19 0 1 1 -2.17-1c3.46-7.73 9.39-12.12 16.22-12.07a17.22 17.22 0 0 1 15.28 10.65c3.49 8.21.71 18-7.62 26.78-13.48 14.22-33.28 18.67-64.14 14.38-28.61-4-64.67-14.83-116.43-30.94-47.15-14.67-79-16.51-94.5-5.46-6.83 4.82-10.44 12.24-10.78 22.13a18.23 18.23 0 0 0 17.58 18.81 10.88 10.88 0 0 0 11.24-10.5 6.33 6.33 0 0 0 -6.11-6.53 3.44 3.44 0 0 0 -2.49.94 3.48 3.48 0 0 0 -1.1 2.39 1.74 1.74 0 0 0 1.66 1.78.64.64 0 0 0 .64-.6 1.19 1.19 0 0 1 2.38.08 3 3 0 0 1 -3.09 2.92 4.08 4.08 0 0 1 -4-4.18 5.84 5.84 0 0 1 6.05-5.65 8.71 8.71 0 0 1 8.4 9 13.28 13.28 0 0 1 -13.21 12.74z"/></g></svg>