<svg id="Layer_1" data-name="Layer 1" xmlns="http://www.w3.org/2000/svg" viewBox="0 0 1024 83.52"><defs><style>.cls-1{fill:#ffffff;}</style></defs><path class="cls-1" d="M936.36,44.24H102.19a2.48,2.48,0,0,1,0-5H936.36a2.48,2.48,0,1,1,0,5Z"/><path class="cls-1" d="M933.16,41.76s19.73,13.38,16.12,27.81c0,0,9.31-8.38,2.38-17.08-6.09-7.65,4.8,8.53,17.28-10.73C956.46,22.5,946.69,39.46,951.66,31,957.89,20.47,949.28,14,949.28,14,950.44,30.94,933.16,41.76,933.16,41.76Z"/><path class="cls-1" d="M106,41.76S86.26,28.38,89.87,14c0,0-9.31,8.38-2.38,17.08,6.09,7.66-4.81-8.53-17.28,10.73C82.68,61,92.46,44.06,87.49,52.49c-6.23,10.57,2.38,17.08,2.38,17.08C88.71,52.58,106,41.76,106,41.76Z"/></svg>