<svg id="Layer_1" data-name="Layer 1" xmlns="http://www.w3.org/2000/svg" viewBox="0 0 711.5 83.52"><defs><style>.cls-1{fill:#ffffff;}</style></defs><path class="cls-1" d="M349,74.83h-.14a1.46,1.46,0,0,1-1-.43,1.44,1.44,0,0,1-.41-1c0-.06,0-.31.06-.74-.32-2.1-1.79-8.12-8.63-14.09-7.92-6.92-24.79-15.17-60.18-15.17a1.43,1.43,0,0,1,0-2.86c35.39,0,52.26-8.35,60.18-15.35,6.84-6.05,8.31-12.15,8.63-14.28,0-.43-.06-.69-.06-.75a1.44,1.44,0,0,1,.41-1,1.46,1.46,0,0,1,1-.43H349a1.46,1.46,0,0,1,1,.43,1.48,1.48,0,0,1,.41,1c0,.06,0,.32-.06.75.32,2.13,1.79,8.23,8.63,14.28,7.92,7,24.79,15.35,60.18,15.35a1.43,1.43,0,0,1,0,2.86c-35.39,0-52.26,8.25-60.18,15.17-6.83,6-8.31,12-8.63,14.09,0,.43.06.68.06.74a1.48,1.48,0,0,1-.41,1A1.46,1.46,0,0,1,349,74.83ZM302.55,41.94c17.12,2.25,30,7.15,38.47,14.67a29.86,29.86,0,0,1,8,10.76,29.86,29.86,0,0,1,7.95-10.76c8.46-7.52,21.35-12.42,38.47-14.67-17.12-2.27-30-7.24-38.48-14.84A30.23,30.23,0,0,1,349,16.22,30.23,30.23,0,0,1,341,27.1C332.57,34.7,319.68,39.67,302.55,41.94Z"/><path class="cls-1" d="M284.91,42.23a6.19,6.19,0,1,1-6.19-6.18A6.19,6.19,0,0,1,284.91,42.23Z"/><rect class="cls-1" x="31.08" y="40.81" width="247.64" height="2.85"/><path class="cls-1" d="M37.58,42.23a8.07,8.07,0,1,1-8.06-8.06A8.06,8.06,0,0,1,37.58,42.23Z"/><path class="cls-1" d="M218.44,42.23a8.07,8.07,0,1,1-8.07-8.06A8.07,8.07,0,0,1,218.44,42.23Z"/><path class="cls-1" d="M413,42.23a6.19,6.19,0,1,1,6.19,6.19A6.19,6.19,0,0,1,413,42.23Z"/><rect class="cls-1" x="419.22" y="40.81" width="247.64" height="2.85"/><path class="cls-1" d="M660.36,42.23a8.07,8.07,0,1,1,8.06,8.07A8.06,8.06,0,0,1,660.36,42.23Z"/><path class="cls-1" d="M479.5,42.23a8.07,8.07,0,1,1,8.07,8.07A8.07,8.07,0,0,1,479.5,42.23Z"/></svg>