<svg id="Layer_1" data-name="Layer 1" xmlns="http://www.w3.org/2000/svg" viewBox="0 0 1024 83.52"><defs><style>.cls-1{fill:#ffffff;}</style></defs><path class="cls-1" d="M85.25,47.92a3.85,3.85,0,0,1-.48,0,6.06,6.06,0,0,1-5.38-6.68,8.93,8.93,0,0,1,9.67-7.75H929.71c4.59-.43,8.29,2.79,8.82,7.7a6.06,6.06,0,0,1-5.39,6.68,4.47,4.47,0,0,1-4.9-4,1.8,1.8,0,0,1,3.58-.38.85.85,0,0,0,.94.75,2.44,2.44,0,0,0,1.65-.9,2.4,2.4,0,0,0,.53-1.8c-.31-2.93-2.35-4.78-5-4.5H88.78A5.35,5.35,0,0,0,83,41.61a2.45,2.45,0,0,0,2.19,2.7.84.84,0,0,0,.93-.75,1.81,1.81,0,0,1,3.59.38A4.47,4.47,0,0,1,85.25,47.92Z"/><path class="cls-1" d="M916.91,50.09H101a1.8,1.8,0,0,1,0-3.6h815.9a1.8,1.8,0,1,1,0,3.6Z"/></svg>