<?xml version="1.0" standalone="no"?>
<!DOCTYPE svg PUBLIC "-//W3C//DTD SVG 20010904//EN"
 "http://www.w3.org/TR/2001/REC-SVG-20010904/DTD/svg10.dtd">
<svg version="1.0" xmlns="http://www.w3.org/2000/svg"
 width="64.000000pt" height="64.000000pt" viewBox="0 0 64.000000 64.000000"
 preserveAspectRatio="xMidYMid meet">

<g transform="translate(0.000000,64.000000) scale(0.100000,-0.100000)"
fill="#d9d9d9" stroke="none">
<path d="M172 582 c-46 -25 -110 -89 -132 -132 -10 -20 -23 -62 -29 -95 -12
-62 -15 -273 -5 -299 5 -13 26 -16 125 -16 142 0 139 -3 139 130 0 120 -6 130
-75 130 -53 0 -55 1 -55 28 0 46 41 114 88 145 46 31 51 50 27 97 -18 34 -36
37 -83 12z"/>
<path d="M513 565 c-54 -36 -88 -75 -118 -134 -23 -46 -44 -328 -27 -366 11
-25 13 -25 131 -25 99 0 120 3 125 16 8 20 8 208 0 228 -5 12 -21 16 -66 16
l-59 0 7 38 c12 66 35 104 86 135 26 17 48 37 48 46 0 27 -39 81 -57 81 -10 0
-42 -16 -70 -35z"/>
</g>
</svg>
