<svg width="251" height="151" viewBox="0 0 251 151" fill="none" xmlns="http://www.w3.org/2000/svg">
<path d="M63.1104 63.4161V71.4925H39.4758V63.4161H63.1104ZM44.8858 102.183V60.6146C44.8858 57.8047 45.426 55.4743 46.5064 53.6234C47.6033 51.7726 49.0992 50.3845 50.9939 49.459C52.8887 48.5336 55.041 48.0709 57.4511 48.0709C59.0799 48.0709 60.5674 48.1971 61.9137 48.4495C63.2766 48.7019 64.2905 48.9291 64.9553 49.131L63.0605 57.2073C62.645 57.0728 62.1298 56.9465 61.5148 56.8288C60.9165 56.711 60.3015 56.6521 59.6699 56.6521C58.1076 56.6521 57.0189 57.0223 56.4039 57.7626C55.789 58.4861 55.4815 59.5041 55.4815 60.8165V102.183H44.8858ZM79.1473 102.915C76.7041 102.915 74.5266 102.486 72.6152 101.628C70.7039 100.752 69.1915 99.4654 68.0779 97.7659C66.9809 96.0498 66.4324 93.9129 66.4324 91.3555C66.4324 89.2017 66.823 87.3929 67.6043 85.9291C68.3853 84.4651 69.449 83.2873 70.7954 82.3957C72.1416 81.5037 73.6707 80.8309 75.3825 80.3766C77.1113 79.9223 78.9229 79.6025 80.8176 79.4174C83.0449 79.182 84.8398 78.9632 86.2026 78.7612C87.5655 78.5424 88.5545 78.2228 89.1694 77.802C89.7843 77.3815 90.092 76.759 90.092 75.9346V75.783C90.092 74.1846 89.5933 72.9479 88.5961 72.073C87.6155 71.198 86.2193 70.7605 84.4077 70.7605C82.4964 70.7605 80.9755 71.1896 79.8452 72.0477C78.7152 72.889 77.9672 73.949 77.6016 75.2278L67.7787 74.4202C68.2774 72.0646 69.2579 70.0286 70.7206 68.3124C72.1832 66.5793 74.0697 65.2501 76.38 64.3247C78.7067 63.3824 81.3994 62.9113 84.4575 62.9113C86.585 62.9113 88.6209 63.1637 90.5656 63.6685C92.5267 64.1732 94.2637 64.9556 95.7761 66.0157C97.3054 67.0757 98.5103 68.4386 99.3911 70.1043C100.272 71.7533 100.712 73.7303 100.712 76.0356V102.183H90.6405V96.8071H90.3413C89.7264 98.0185 88.9035 99.0867 87.873 100.012C86.8427 100.921 85.6044 101.636 84.1582 102.158C82.7123 102.662 81.0419 102.915 79.1473 102.915ZM82.1889 95.4946C83.751 95.4946 85.1305 95.1833 86.3273 94.5606C87.524 93.9212 88.463 93.0633 89.1445 91.9863C89.8258 90.9095 90.1666 89.6895 90.1666 88.3266V84.2127C89.8343 84.4316 89.3771 84.6336 88.7956 84.8186C88.2304 84.9868 87.5904 85.1468 86.8757 85.2981C86.1611 85.4325 85.4465 85.559 84.7318 85.6765C84.0172 85.7775 83.369 85.8702 82.7871 85.9543C81.5407 86.1394 80.4519 86.4338 79.5211 86.8377C78.5903 87.2413 77.8675 87.7883 77.3521 88.4783C76.8369 89.1511 76.5792 89.9924 76.5792 91.0019C76.5792 92.466 77.1028 93.5848 78.1501 94.3589C79.2137 95.1158 80.5599 95.4946 82.1889 95.4946ZM140.814 74.4707L131.091 75.0764C130.925 74.2351 130.567 73.4779 130.019 72.8049C129.47 72.115 128.747 71.5682 127.85 71.1644C126.969 70.7437 125.914 70.5334 124.683 70.5334C123.038 70.5334 121.65 70.8868 120.52 71.5934C119.39 72.2833 118.825 73.2087 118.825 74.3697C118.825 75.2951 119.19 76.0776 119.922 76.717C120.653 77.3563 121.908 77.8695 123.686 78.2566L130.617 79.6697C134.34 80.4438 137.116 81.6888 138.944 83.4052C140.772 85.1213 141.686 87.3761 141.686 90.1692C141.686 92.7097 140.947 94.9393 139.468 96.8574C138.005 98.7755 135.994 100.273 133.434 101.35C130.891 102.41 127.958 102.94 124.634 102.94C119.564 102.94 115.526 101.872 112.517 99.7346C109.526 97.5809 107.772 94.6533 107.257 90.9516L117.703 90.3963C118.019 91.9611 118.783 93.1557 119.997 93.9802C121.21 94.7877 122.764 95.1916 124.659 95.1916C126.52 95.1916 128.016 94.8298 129.146 94.1063C130.293 93.366 130.875 92.4154 130.891 91.2545C130.875 90.2785 130.468 89.4792 129.67 88.8567C128.872 88.2174 127.642 87.7293 125.98 87.3929L119.348 86.0553C115.609 85.2981 112.825 83.9856 110.997 82.1179C109.185 80.2502 108.279 77.8695 108.279 74.9754C108.279 72.4852 108.944 70.3399 110.274 68.5395C111.62 66.7392 113.506 65.351 115.933 64.3751C118.376 63.3993 121.235 62.9113 124.509 62.9113C129.346 62.9113 133.152 63.9461 135.928 66.0157C138.72 68.0853 140.349 70.9036 140.814 74.4707ZM168.743 63.4161V71.4925H145.682V63.4161H168.743ZM150.917 54.1282H161.538V90.2702C161.538 91.2628 161.687 92.0369 161.987 92.5922C162.286 93.1305 162.701 93.509 163.233 93.7278C163.782 93.9464 164.413 94.056 165.128 94.056C165.627 94.056 166.125 94.0139 166.624 93.9298C167.122 93.8288 167.505 93.753 167.77 93.7027L169.441 101.703C168.909 101.872 168.161 102.065 167.197 102.284C166.233 102.519 165.061 102.662 163.682 102.713C161.122 102.814 158.879 102.469 156.951 101.678C155.039 100.887 153.552 99.6588 152.488 97.9931C151.424 96.3273 150.901 94.2242 150.917 91.6833V54.1282ZM186.282 79.7707V102.183H175.661V63.4161H185.783V70.2558H186.232C187.08 68.0011 188.501 66.2176 190.495 64.9052C192.49 63.5759 194.908 62.9113 197.75 62.9113C200.409 62.9113 202.728 63.5002 204.706 64.678C206.684 65.8558 208.221 67.5384 209.318 69.7258C210.415 71.8963 210.964 74.4875 210.964 77.4994V102.183H200.343V79.4174C200.36 77.0451 199.761 75.1941 198.548 73.8649C197.335 72.5188 195.664 71.8458 193.537 71.8458C192.107 71.8458 190.844 72.1571 189.747 72.7796C188.667 73.4022 187.819 74.3108 187.204 75.5054C186.606 76.6832 186.299 78.105 186.282 79.7707Z" fill="#EF8435"/>
</svg>
