<svg width="315" height="169" viewBox="0 0 315 169" fill="none" xmlns="http://www.w3.org/2000/svg">
<rect width="314" height="168" transform="translate(0.00756836 0.0378418)" fill="white"/>
<path d="M79.3848 68.4504V78.5829H49.7334V68.4504H79.3848ZM56.5207 117.086V64.9357C56.5207 61.4104 57.1984 58.4868 58.5537 56.1648C59.93 53.8428 61.8066 52.1013 64.1837 50.9402C66.5609 49.7792 69.2612 49.1987 72.2847 49.1987C74.3282 49.1987 76.1944 49.3571 77.8834 49.6737C79.5933 49.9903 80.8653 50.2753 81.6993 50.5286L79.3222 60.6611C78.8009 60.4922 78.1545 60.3339 77.383 60.1861C76.6323 60.0384 75.8608 59.9645 75.0684 59.9645C73.1084 59.9645 71.7426 60.4289 70.971 61.3577C70.1995 62.2654 69.8137 63.5425 69.8137 65.189V117.086H56.5207ZM99.5043 118.005C96.4392 118.005 93.7073 117.466 91.3093 116.39C88.9114 115.292 87.014 113.677 85.6169 111.545C84.2406 109.392 83.5525 106.711 83.5525 103.503C83.5525 100.8 84.0425 98.5312 85.0227 96.6948C86.0026 94.858 87.337 93.3804 89.0263 92.2618C90.7152 91.1427 92.6334 90.2986 94.7811 89.7287C96.95 89.1588 99.2228 88.7576 101.6 88.5254C104.394 88.23 106.646 87.9554 108.356 87.7021C110.066 87.4275 111.306 87.0266 112.078 86.4987C112.849 85.9711 113.235 85.1902 113.235 84.1559V83.9656C113.235 81.9603 112.61 80.4088 111.359 79.3112C110.128 78.2135 108.377 77.6646 106.104 77.6646C103.706 77.6646 101.798 78.2029 100.38 79.2795C98.9622 80.3349 98.0238 81.6648 97.5651 83.2691L85.2415 82.2559C85.8672 79.3006 87.0974 76.7464 88.9323 74.5932C90.7673 72.419 93.134 70.7513 96.0325 69.5903C98.9516 68.4082 102.33 67.8171 106.166 67.8171C108.835 67.8171 111.39 68.1338 113.829 68.7671C116.29 69.4003 118.469 70.3819 120.366 71.7118C122.285 73.0417 123.797 74.7515 124.902 76.8413C126.007 78.9101 126.559 81.3904 126.559 84.2826V117.086H113.923V110.342H113.548C112.777 111.862 111.744 113.202 110.451 114.363C109.159 115.503 107.605 116.4 105.791 117.055C103.977 117.688 101.881 118.005 99.5043 118.005ZM103.32 108.695C105.28 108.695 107.011 108.305 108.512 107.524C110.013 106.721 111.192 105.645 112.047 104.294C112.901 102.943 113.329 101.412 113.329 99.7026V94.5414C112.912 94.816 112.338 95.0694 111.609 95.3016C110.9 95.5126 110.097 95.7132 109.2 95.9031C108.304 96.0717 107.407 96.2304 106.511 96.3779C105.614 96.5046 104.801 96.6209 104.071 96.7264C102.507 96.9586 101.141 97.3279 99.9733 97.8346C98.8055 98.341 97.8987 99.0272 97.252 99.8929C96.6058 100.737 96.2825 101.792 96.2825 103.059C96.2825 104.896 96.9394 106.299 98.2532 107.271C99.5876 108.22 101.276 108.695 103.32 108.695ZM176.87 82.3192L164.672 83.0792C164.463 82.0237 164.015 81.0738 163.327 80.2294C162.638 79.3639 161.731 78.6779 160.605 78.1713C159.5 77.6435 158.176 77.3796 156.633 77.3796C154.569 77.3796 152.828 77.8229 151.41 78.7095C149.992 79.575 149.283 80.736 149.283 82.1926C149.283 83.3536 149.742 84.3353 150.659 85.1374C151.577 85.9396 153.151 86.5834 155.382 87.069L164.077 88.8419C168.748 89.8131 172.23 91.3749 174.524 93.5283C176.818 95.6813 177.964 98.5101 177.964 102.014C177.964 105.202 177.037 107.999 175.181 110.405C173.346 112.811 170.823 114.69 167.612 116.042C164.421 117.371 160.741 118.036 156.571 118.036C150.211 118.036 145.144 116.696 141.37 114.015C137.616 111.313 135.416 107.64 134.77 102.996L147.875 102.299C148.271 104.262 149.231 105.761 150.753 106.795C152.275 107.809 154.225 108.315 156.602 108.315C158.937 108.315 160.814 107.861 162.232 106.954C163.671 106.025 164.4 104.832 164.421 103.376C164.4 102.151 163.89 101.149 162.889 100.368C161.888 99.5656 160.345 98.9533 158.259 98.5312L149.94 96.8531C145.248 95.9031 141.755 94.2565 139.462 91.9133C137.189 89.5701 136.052 86.5834 136.052 82.9525C136.052 79.8283 136.887 77.1369 138.555 74.8782C140.243 72.6195 142.61 70.878 145.655 69.6536C148.72 68.4293 152.306 67.8171 156.414 67.8171C162.482 67.8171 167.257 69.1154 170.739 71.7118C174.242 74.3083 176.286 77.844 176.87 82.3192ZM211.909 68.4504V78.5829H182.977V68.4504H211.909ZM189.545 56.7981H202.87V102.141C202.87 103.386 203.057 104.357 203.433 105.054C203.808 105.729 204.329 106.204 204.996 106.479C205.685 106.753 206.477 106.891 207.373 106.891C207.999 106.891 208.625 106.838 209.25 106.732C209.876 106.606 210.355 106.51 210.689 106.447L212.785 116.485C212.118 116.696 211.179 116.938 209.97 117.213C208.76 117.508 207.29 117.688 205.559 117.751C202.348 117.878 199.533 117.445 197.115 116.453C194.717 115.461 192.85 113.92 191.516 111.83C190.181 109.74 189.524 107.102 189.545 103.914V56.7981ZM233.913 88.9686V117.086H220.588V68.4504H233.287V77.0313H233.85C234.914 74.2027 236.697 71.9651 239.199 70.3186C241.701 68.651 244.735 67.8171 248.3 67.8171C251.637 67.8171 254.546 68.556 257.027 70.0336C259.508 71.5112 261.437 73.6222 262.814 76.3664C264.19 79.0895 264.878 82.3403 264.878 86.119V117.086H251.554V88.5254C251.574 85.5491 250.824 83.2269 249.302 81.5593C247.779 79.8705 245.684 79.0262 243.015 79.0262C241.221 79.0262 239.637 79.4167 238.26 80.1977C236.905 80.9788 235.841 82.1187 235.07 83.6175C234.32 85.0951 233.934 86.8788 233.913 88.9686Z" fill="#EF8435"/>
</svg>
