<svg width="251" height="151" viewBox="0 0 251 151" fill="none" xmlns="http://www.w3.org/2000/svg">
<path d="M63.3299 63.4161V71.4925H39.6953V63.4161H63.3299ZM45.1053 102.183V60.6146C45.1053 57.8047 45.6455 55.4743 46.7258 53.6234C47.8228 51.7726 49.3187 50.3845 51.2134 49.459C53.1082 48.5336 55.2605 48.0709 57.6705 48.0709C59.2994 48.0709 60.7869 48.1971 62.1332 48.4495C63.4961 48.7019 64.5099 48.9291 65.1748 49.131L63.28 57.2073C62.8645 57.0728 62.3492 56.9465 61.7343 56.8288C61.1359 56.711 60.521 56.6521 59.8894 56.6521C58.3271 56.6521 57.2384 57.0223 56.6234 57.7626C56.0085 58.4861 55.701 59.5041 55.701 60.8165V102.183H45.1053ZM79.3668 102.915C76.9236 102.915 74.7461 102.486 72.8347 101.628C70.9234 100.752 69.411 99.4654 68.2974 97.7659C67.2004 96.0498 66.6519 93.9129 66.6519 91.3555C66.6519 89.2017 67.0425 87.3929 67.8238 85.9291C68.6048 84.4651 69.6684 83.2873 71.0149 82.3957C72.3611 81.5037 73.8901 80.8309 75.602 80.3766C77.3308 79.9223 79.1424 79.6025 81.0371 79.4174C83.2643 79.182 85.0593 78.9632 86.4221 78.7612C87.785 78.5424 88.774 78.2228 89.3889 77.802C90.0038 77.3815 90.3115 76.759 90.3115 75.9346V75.783C90.3115 74.1846 89.8128 72.9479 88.8156 72.073C87.835 71.198 86.4388 70.7605 84.6272 70.7605C82.7159 70.7605 81.195 71.1896 80.0647 72.0477C78.9347 72.889 78.1867 73.949 77.8211 75.2278L67.9981 74.4202C68.4969 72.0646 69.4774 70.0286 70.94 68.3124C72.4027 66.5793 74.2891 65.2501 76.5995 64.3247C78.9262 63.3824 81.6189 62.9113 84.6769 62.9113C86.8045 62.9113 88.8404 63.1637 90.7851 63.6685C92.7462 64.1732 94.4832 64.9556 95.9955 66.0157C97.5249 67.0757 98.7297 68.4386 99.6105 70.1043C100.492 71.7533 100.932 73.7303 100.932 76.0356V102.183H90.86V96.8071H90.5607C89.9459 98.0185 89.123 99.0867 88.0924 100.012C87.0622 100.921 85.8239 101.636 84.3777 102.158C82.9317 102.662 81.2614 102.915 79.3668 102.915ZM82.4084 95.4946C83.9705 95.4946 85.35 95.1833 86.5467 94.5606C87.7435 93.9212 88.6825 93.0633 89.364 91.9863C90.0453 90.9095 90.3861 89.6895 90.3861 88.3266V84.2127C90.0538 84.4316 89.5966 84.6336 89.015 84.8186C88.4499 84.9868 87.8099 85.1468 87.0952 85.2981C86.3806 85.4325 85.666 85.559 84.9513 85.6765C84.2367 85.7775 83.5885 85.8702 83.0066 85.9543C81.7602 86.1394 80.6714 86.4338 79.7406 86.8377C78.8098 87.2413 78.087 87.7883 77.5715 88.4783C77.0564 89.1511 76.7987 89.9924 76.7987 91.0019C76.7987 92.466 77.3223 93.5848 78.3695 94.3589C79.4332 95.1158 80.7794 95.4946 82.4084 95.4946ZM141.033 74.4707L131.31 75.0764C131.144 74.2351 130.787 73.4779 130.238 72.8049C129.69 72.115 128.967 71.5682 128.069 71.1644C127.188 70.7437 126.133 70.5334 124.903 70.5334C123.258 70.5334 121.87 70.8868 120.739 71.5934C119.609 72.2833 119.044 73.2087 119.044 74.3697C119.044 75.2951 119.41 76.0776 120.141 76.717C120.873 77.3563 122.128 77.8695 123.906 78.2566L130.837 79.6697C134.56 80.4438 137.335 81.6888 139.163 83.4052C140.992 85.1213 141.906 87.3761 141.906 90.1692C141.906 92.7097 141.166 94.9393 139.687 96.8574C138.224 98.7755 136.213 100.273 133.654 101.35C131.111 102.41 128.177 102.94 124.853 102.94C119.784 102.94 115.745 101.872 112.737 99.7346C109.745 97.5809 107.992 94.6533 107.476 90.9516L117.922 90.3963C118.238 91.9611 119.003 93.1557 120.216 93.9802C121.429 94.7877 122.983 95.1916 124.878 95.1916C126.74 95.1916 128.235 94.8298 129.366 94.1063C130.513 93.366 131.094 92.4154 131.111 91.2545C131.094 90.2785 130.687 89.4792 129.889 88.8567C129.092 88.2174 127.862 87.7293 126.199 87.3929L119.568 86.0553C115.828 85.2981 113.044 83.9856 111.216 82.1179C109.404 80.2502 108.499 77.8695 108.499 74.9754C108.499 72.4852 109.163 70.3399 110.493 68.5395C111.839 66.7392 113.726 65.351 116.152 64.3751C118.596 63.3993 121.454 62.9113 124.729 62.9113C129.565 62.9113 133.371 63.9461 136.147 66.0157C138.939 68.0853 140.568 70.9036 141.033 74.4707ZM168.962 63.4161V71.4925H145.901V63.4161H168.962ZM151.137 54.1282H161.757V90.2702C161.757 91.2628 161.907 92.0369 162.206 92.5922C162.505 93.1305 162.921 93.509 163.453 93.7278C164.001 93.9464 164.633 94.056 165.347 94.056C165.846 94.056 166.344 94.0139 166.843 93.9298C167.342 93.8288 167.724 93.753 167.99 93.7027L169.66 101.703C169.129 101.872 168.381 102.065 167.417 102.284C166.453 102.519 165.281 102.662 163.901 102.713C161.342 102.814 159.098 102.469 157.17 101.678C155.259 100.887 153.771 99.6588 152.707 97.9931C151.644 96.3273 151.12 94.2242 151.137 91.6833V54.1282ZM186.501 79.7707V102.183H175.881V63.4161H186.003V70.2558H186.451C187.299 68.0011 188.72 66.2176 190.715 64.9052C192.709 63.5759 195.127 62.9113 197.969 62.9113C200.629 62.9113 202.947 63.5002 204.925 64.678C206.903 65.8558 208.441 67.5384 209.538 69.7258C210.635 71.8963 211.183 74.4875 211.183 77.4994V102.183H200.562V79.4174C200.579 77.0451 199.981 75.1941 198.767 73.8649C197.554 72.5188 195.884 71.8458 193.756 71.8458C192.327 71.8458 191.064 72.1571 189.967 72.7796C188.886 73.4022 188.039 74.3108 187.424 75.5054C186.825 76.6832 186.518 78.105 186.501 79.7707Z" fill="white"/>
</svg>
