<?xml version="1.0" standalone="no"?>
<!DOCTYPE svg PUBLIC "-//W3C//DTD SVG 20010904//EN"
 "http://www.w3.org/TR/2001/REC-SVG-20010904/DTD/svg10.dtd">
<svg version="1.0" xmlns="http://www.w3.org/2000/svg"
 width="512.000000pt" height="512.000000pt" viewBox="0 0 512.000000 512.000000"
 preserveAspectRatio="xMidYMid meet">

<g transform="translate(0.000000,512.000000) scale(0.100000,-0.100000)"
fill="#d9d9d9" stroke="none">
<path d="M1083 4236 c-347 -66 -646 -291 -802 -603 -87 -175 -127 -359 -118
-548 15 -294 127 -545 334 -746 140 -137 285 -222 463 -273 102 -29 101 -25
31 -170 -94 -193 -222 -387 -379 -575 -101 -121 -124 -180 -102 -271 25 -105
119 -180 226 -180 95 0 372 106 572 220 625 355 989 929 1078 1697 22 187 15
475 -14 583 -96 360 -325 642 -637 786 -137 63 -240 85 -420 90 -108 2 -183
-1 -232 -10z m384 -326 c146 -35 279 -114 388 -232 84 -91 143 -191 186 -316
l34 -97 0 -210 c0 -257 -20 -404 -86 -633 -138 -478 -457 -865 -891 -1083 -55
-27 -96 -44 -91 -37 4 7 43 65 86 129 84 127 198 340 246 461 55 135 39 254
-46 348 -53 59 -110 90 -205 114 -244 60 -465 256 -554 492 -104 277 -53 573
139 805 99 119 265 222 420 260 102 25 268 25 374 -1z"/>
<path d="M3615 4230 c-459 -97 -812 -464 -885 -922 -20 -123 -8 -351 24 -467
53 -190 153 -360 292 -498 134 -134 291 -226 471 -278 48 -14 88 -27 89 -28 6
-5 -84 -194 -131 -277 -72 -127 -179 -281 -284 -409 -107 -131 -130 -175 -131
-249 0 -64 16 -106 61 -157 44 -49 100 -75 168 -75 117 0 479 152 691 290 260
170 483 396 642 652 162 260 275 605 319 968 18 144 18 437 0 525 -95 480
-449 844 -904 930 -111 21 -308 19 -422 -5z m411 -320 c308 -78 542 -340 600
-673 37 -209 -7 -587 -102 -876 -111 -339 -316 -633 -589 -843 -111 -87 -375
-243 -375 -223 0 3 24 40 53 83 112 161 260 439 301 565 42 127 -9 272 -122
351 -22 15 -86 41 -143 57 -248 72 -428 219 -534 436 -99 204 -102 466 -6 677
101 223 319 400 555 451 96 21 269 19 362 -5z"/>
</g>
</svg>
