<?xml version="1.0" standalone="no"?>
<!DOCTYPE svg PUBLIC "-//W3C//DTD SVG 20010904//EN"
 "http://www.w3.org/TR/2001/REC-SVG-20010904/DTD/svg10.dtd">
<svg version="1.0" xmlns="http://www.w3.org/2000/svg"
 width="64.000000pt" height="64.000000pt" viewBox="0 0 64.000000 64.000000"
 preserveAspectRatio="xMidYMid meet">

<g transform="translate(0.000000,64.000000) scale(0.100000,-0.100000)"
fill="#707070" stroke="none">
<path d="M7 593 c-11 -11 -8 -258 4 -315 21 -100 77 -176 159 -218 53 -27 67
-25 85 10 24 47 19 66 -27 97 -47 31 -88 99 -88 145 0 27 2 28 55 28 69 0 75
10 75 130 0 133 3 130 -139 130 -65 0 -121 -3 -124 -7z"/>
<path d="M368 575 c-9 -20 -9 -63 -1 -178 9 -131 14 -159 36 -203 37 -72 133
-154 182 -154 17 0 55 56 55 82 0 10 -9 22 -21 28 -49 27 -99 82 -105 118 -3
21 -8 45 -10 54 -4 15 4 17 58 20 l63 3 0 125 0 125 -123 3 -122 3 -12 -26z"/>
</g>
</svg>
