<?xml version="1.0" standalone="no"?>
<!DOCTYPE svg PUBLIC "-//W3C//DTD SVG 20010904//EN"
 "http://www.w3.org/TR/2001/REC-SVG-20010904/DTD/svg10.dtd">
<svg version="1.0" xmlns="http://www.w3.org/2000/svg"
 width="64.000000pt" height="64.000000pt" viewBox="0 0 64.000000 64.000000"
 preserveAspectRatio="xMidYMid meet">

<g transform="translate(0.000000,64.000000) scale(0.100000,-0.100000)"
fill="#707070" stroke="none">
<path d="M14 587 c-2 -7 -3 -65 -2 -128 l3 -114 63 -3 c54 -3 62 -5 58 -20 -2
-9 -7 -33 -10 -54 -6 -36 -56 -91 -105 -118 -12 -6 -21 -18 -21 -28 0 -26 38
-82 55 -82 49 0 145 82 182 154 22 44 27 72 36 203 15 212 21 203 -133 203
-90 0 -122 -3 -126 -13z"/>
<path d="M381 581 c-14 -25 -14 -196 -1 -222 9 -15 22 -19 65 -19 53 0 55 -1
55 -28 0 -46 -41 -114 -87 -145 -27 -18 -43 -36 -43 -48 0 -30 28 -79 46 -79
26 0 92 39 129 75 74 75 98 164 93 355 l-3 125 -122 3 c-113 2 -123 1 -132
-17z"/>
</g>
</svg>
