<svg width="35" height="34" viewBox="0 0 35 34" fill="none" xmlns="http://www.w3.org/2000/svg">
<g clip-path="url(#clip0_2313_322349)">
<path d="M17.7995 31.1654C9.97523 31.1654 3.63281 24.8229 3.63281 16.9987C3.63281 9.17445 9.97523 2.83203 17.7995 2.83203C25.6237 2.83203 31.9661 9.17445 31.9661 16.9987C31.9661 24.8229 25.6237 31.1654 17.7995 31.1654ZM17.7995 28.332C20.8053 28.332 23.6879 27.138 25.8134 25.0126C27.9388 22.8872 29.1328 20.0045 29.1328 16.9987C29.1328 13.9929 27.9388 11.1102 25.8134 8.98482C23.6879 6.85941 20.8053 5.66536 17.7995 5.66536C14.7937 5.66536 11.911 6.85941 9.7856 8.98482C7.66019 11.1102 6.46615 13.9929 6.46615 16.9987C6.46615 20.0045 7.66019 22.8872 9.7856 25.0126C11.911 27.138 14.7937 28.332 17.7995 28.332ZM19.2161 16.9987H24.8828V19.832H16.3828V9.91537H19.2161V16.9987Z" fill="black"/>
</g>
<defs>
<clipPath id="clip0_2313_322349">
<rect width="34" height="34" fill="black" transform="translate(0.796875)"/>
</clipPath>
</defs>
</svg>
