<svg xmlns="http://www.w3.org/2000/svg" width="666.667" height="666.667" version="1.0" viewBox="0 0 500 500"><g fill="#fff"><path d="M175.5 12.1c-3.8.5-11 2.1-16 3.5C123.6 25.8 98.7 49.5 89.8 82c-1.9 7.2-2.3 10.8-2.2 24 0 16.2-.2 15.1 7.5 44.2l.9 3.6 5.1-1.3c2.8-.8 5.3-1.6 5.5-1.8.3-.3-1.2-6.9-3.2-14.8-9.6-37.2-3.3-65.8 19-86.7 8.5-7.9 13.8-11.5 24.9-16.7 14.9-7.1 23.6-9 40.7-8.9 11.6 0 16.1.5 22.5 2.2 8.3 2.3 23.9 9.5 28.9 13.5l2.8 2.3-4.1 31.5c-3.3 24.3-4.7 32.4-6.4 35.8-2.9 5.9-16.4 19.4-25.2 25.2-21.7 14.4-43.4 20.6-76 21.8-21.2.8-25 1.8-29.8 8.3-5.2 7-5.7 12.5-2.7 26.3 2.4 10.8 5 14.8 12.9 20.6 5.4 3.9 6 4.8 6.1 7.9.1 6.2 2.8 17 6.2 24.4 3.6 7.8 8.9 14.8 16.7 22.1l5.1 4.8V286c0 11.4-.3 16-1.2 16.8-.7.5-8 4-16.1 7.6-21 9.4-28 13.1-37.8 19.7-24.9 17-46.3 44.7-57.7 74.7-3.1 8-15.6 51.2-15 51.6 1.1.9 24.1 8.8 32.8 11.4 30.6 9 58.3 14.1 96 17.8 21.2 2.1 70.9 2.4 91 .5 22-2 59.5-7.3 60.8-8.6.2-.2-.2-2.9-.8-6-.9-4.5-1.5-5.5-2.8-5.1-3 1-24.4 4.4-37.2 6-21.4 2.7-57 4.7-57 3.2 0-.2 8-13.8 17.8-30.2 9.8-16.5 27.4-46.2 39.2-66.1s21.7-36.2 22-36.3c.6 0 6.4 34 5.9 34.4-.2.2-4.9 2.7-10.5 5.6l-10.1 5.3.8 3.6c.4 2 1.7 7.6 2.8 12.4 1.2 4.8 2.1 9.4 2.1 10.1 0 .8-9.1 10.7-20.1 22.1l-20.2 20.6 3.9 4c2.1 2.1 4.1 3.9 4.4 3.9s10.6-10.4 22.9-23l22.3-23.1-2.6-11.4c-1.4-6.3-2.6-11.9-2.6-12.5 0-.5 4.5-3.2 10-6s10-5.6 10-6.3c.1-3.3-9.4-56.4-10.3-57.4-1.6-2.1-14.2-8.6-30.4-15.8l-15.3-6.7v-16.4c0-13.9-.2-16.4-1.5-16.4-.8 0-1.5-.1-1.5-.3 0-.1 3.5-3.8 7.8-8.2 11.5-11.8 16.9-23.5 18.8-40.2.6-6 .8-6.3 7-11.8 3.6-3.1 7.1-7 7.9-8.6 1.8-3.3 5.5-20.6 5.5-25.3 0-1.7 2.1-13.2 4.6-25.6 4-20.1 4.6-24.4 5.1-40 .4-15.4.2-18.8-1.7-28-4.9-24.1-16.9-39.4-34.9-45.1-3.3-1-8.3-3.6-11.3-5.9-7-5.4-23.4-13.3-32.8-15.9-7.7-2.1-22.8-4.2-29-4-1.9.1-6.6.5-10.5 1m89.2 40.4c14.2 9.4 21.6 33.5 19.3 62.7-.7 8.6-6.5 42.6-7.4 43.6-.2.1-2.9-.5-6-1.5l-5.6-1.7V151c0-6.6-3.5-20.1-7.1-27.2-1.7-3.3-5.3-8.4-7.9-11.2l-4.9-5.1 4-28.5c2.1-15.6 3.9-29.1 3.9-29.9 0-2.2 5.8-.5 11.7 3.4m-20.2 71.7c8.4 12.8 9.8 22.7 9.3 68.4-.4 32.9-.5 35.2-2.6 40.8-2.4 6.5-5.1 11.2-9.6 17-3.2 3.9-22.4 19.6-28.6 23.3-12.5 7.5-33.4 6.8-45.5-1.4-9.2-6.2-23.8-18.8-27.4-23.6-10-13.3-11.1-18.7-11.1-53.3v-27.1l9.8-.7c14.9-1 27.6-3.4 40.3-7.6 21.8-7.2 35.7-15.6 50.4-30.6 5.5-5.6 10.3-10.2 10.7-10.3.4 0 2.3 2.3 4.3 5.1M117 184.7v16.8l-3.1-3.1c-2.5-2.6-3.4-4.8-4.9-11.8-2.1-10.2-1.7-12.8 2.2-16.1 5.6-4.7 5.8-4.2 5.8 14.2m154.2-13.9c2.7 2.2 3 6.4 1.4 15.1-1.7 8.7-2.6 11-5 13.1-1.4 1.1-1.6-.4-1.6-14.8 0-14.9.1-16.1 1.8-15.5.9.3 2.5 1.3 3.4 2.1M230 291.5V307l-5.1 2.5c-17.5 8.9-45.5 9.3-63.6 1l-5.3-2.4v-29.3l3.3 2.2c17.5 11.7 38.5 13.2 57.2 4 3.3-1.6 7.6-4.3 9.5-5.9 1.9-1.7 3.6-3 3.8-3.1.1 0 .2 7 .2 15.5m-69.9 31.1c2.4.9 7.2 2.4 10.6 3.3l6.2 1.6-17.5 14c-9.6 7.7-18.2 14.5-19.1 15.2-1.4 1.1-1.2 1.7 1.8 5.5 1.8 2.4 3.4 4.5 3.5 4.7.2.2 5.2-3.5 11.1-8.3 5.9-4.7 11.1-8.6 11.4-8.6s1.8 3.1 3.3 7c1.6 4.1 3.4 7 4.2 7s1.4.3 1.4.6c0 1.7-15.3 47.4-15.9 47.4-.3-.1-3.3-4.4-6.5-9.8-3.3-5.3-14.5-23.4-24.9-40-10.5-17-18.5-30.8-18.1-31.2.5-.5 8.2-4.2 17.2-8.3l16.3-7.4 5.3 2.8c2.9 1.6 7.3 3.6 9.7 4.5m96.4-.7c11.6 5.4 15 7.3 14.9 8.8 0 2.3-48.7 84.3-49.5 83.5-.4-.4-3.6-11.1-7.3-23.7-3.7-12.7-6.9-23.7-7.2-24.6-.3-1 .2-1.8 1.3-2.1s2.7-3 4.3-7.2c1.4-3.8 2.7-6.9 3.1-7.1.3-.2 3.9 2.3 8 5.6l7.4 5.9 3.2-3.8c1.8-2 3.2-4.2 3.3-4.8 0-.6-6.6-6.5-14.7-13-12-9.7-14.3-11.9-12.7-12.5 1-.4 5.1-1.7 8.9-2.9 3.9-1.1 9.7-3.6 13-5.4 3.3-1.9 6.7-3.4 7.5-3.4.8-.1 8.3 3 16.5 6.7M200.4 336c6.3 5 6.4 5.4 2.3 13.9-1.9 3.8-2.9 4.6-6.6 5.7s-5 1-8.9-.4c-4.2-1.6-4.8-2.2-6.9-7.6l-2.2-5.8 3.1-2.7c8.1-6.7 11.3-8.9 12.3-8.3.6.4 3.7 2.7 6.9 5.2M90 362.4c-2.2 10.4-4 19.4-4 20.1s4.5 3.6 10 6.5c5.5 2.8 10 5.5 10 6.1s-1.1 6-2.5 12.1c-2 9-2.3 11.4-1.3 12.7 1.1 1.3 30.3 32.5 39.9 42.6l2.9 3 4.2-4.2 4.2-4.2-15-15.6c-8.2-8.6-17.1-18.1-19.8-21.1l-4.9-5.6 2.8-12.1c1.5-6.7 3-12.7 3.2-13.4.3-.7-3.6-3.2-9.5-6.2-5.5-2.8-10.3-5.4-10.5-5.8-.4-.7 4.4-27.1 5.6-30.7.2-.5 18.4 28.2 40.6 63.8s40.1 65 39.7 65.3c-1 1.1-40.3-1.5-57.6-3.7-8.5-1.1-20.4-2.9-26.4-4-6.1-1.1-11.1-2-11.3-2s-.3-5.6-.3-12.5V441H78v11c0 6-.3 11-.7 11-3.1 0-44-12.5-45.5-13.9-.8-.7 6.3-25.7 10.8-38.1 6.4-17.9 18.7-38.1 31.1-51.1 9.1-9.5 19.6-18.6 20-17.2.2.5-1.5 9.4-3.7 19.7m114.8 36.4 8.9 30.4-9.9 16.7c-5.4 9.1-10.2 16.7-10.6 16.9-.6.2-21.9-33.1-23.1-36.1-.2-.6 3.8-13.9 8.9-29.6l9.3-28.6h7.5z"/><path d="M186.4 111.9c-15.3 10.3-38.8 17.1-59.6 17.1H121v12.3l10.8-.7c19.5-1.3 35.4-5.3 49.7-12.4 6.8-3.3 19.5-11.7 19.5-12.9 0-.9-6.1-8.3-6.8-8.3-.4.1-3.9 2.2-7.8 4.9M367 179.5V191h12v-23h-12zM320 182.1c-2.5 1.6-4.4 3.4-4.2 4 .5 1.9 9.3 16.9 9.9 16.9 1.3 0 9.3-5.1 9.3-5.9 0-.9-9.9-18.2-10.3-18-.1 0-2.2 1.3-4.7 3M412.2 188.2c-2.9 5-4.9 9.4-4.5 9.8 1.6 1.4 9.3 5.3 9.6 4.9 1.4-1.7 9.7-16.8 9.7-17.5 0-.5-2.1-2.1-4.8-3.6l-4.7-2.6zM448.5 219.6c-4.4 2.5-8.3 4.9-8.8 5.3-.7.7 3.9 10.1 4.9 10.1.2 0 4.5-2.3 9.4-5.1l9-5.1-2.7-4.9c-1.4-2.7-2.9-4.9-3.2-4.9s-4.2 2.1-8.6 4.6M356.3 228.4c-10.5 3.4-19.5 11.7-24.7 22.5l-3.1 6.6-.3 30c-.3 20.6 0 31.7.8 35.5 2.7 12.3 11.6 23.5 23 28.9 5.2 2.5 6.4 2.6 21 2.6 15.5 0 15.6 0 22.1-3.2 8.2-4.1 15-11.1 19.2-20.1l3.2-6.7v-67l-3.2-6.7c-4.2-9-11-16-19.2-20.1-6.3-3.1-7-3.2-20.6-3.4-9.7-.2-15.3.2-18.2 1.1m32.9 12.3c10.7 4.9 17.1 15.9 16.6 28.7l-.3 7.1-8.6 2.2c-17.6 4.4-34.2 4.6-50.1.7l-6.8-1.6v-7.7c0-9.7 2-15.7 7.1-21.5 7.6-8.6 13.2-10.6 27.9-10.2 7.1.1 10.7.7 14.2 2.3m16.6 65.5c-.4 19.4-1.1 22.1-8.5 29.4-5.5 5.5-11.3 7.7-21.9 8.2-12.5.6-18.5-1.2-25.8-7.9-8.2-7.5-9.6-12-9.6-31 0-13 .2-15 1.5-14.5.8.3 5.4 1.3 10.2 2.2 11.2 2.1 32.1 1.4 43.8-1.5 4.4-1 8.6-2 9.3-2 1.1-.1 1.3 3.2 1 17.1M453 271.5v5.5h20v-11h-20z"/><path d="M301.4 337.1c2.6 23 19.7 43.1 43 50.5l7.1 2.2v35.7l-17.7.3-17.8.2v27h12v-15h5.3c6.9-.1 63.6-.1 71 0h5.7v15h12v-27h-31v-36.8l4.1-.7c7.7-1.3 21.4-9.1 28.7-16.3 10.1-10 17.2-25 17.2-36.4V331h-10.6l-1.2 7c-3 17.3-15 31.1-33 37.8-5.5 2-9.1 2.6-20.3 3-17.3.6-25.6-.8-35.9-5.9-14.5-7.3-25-21.2-26.8-35.4l-.7-6-5.9-.3-5.9-.3zm77.6 71.4V426h-16v-35h16z"/></g></svg>