<?xml version="1.0" standalone="no"?>
<!DOCTYPE svg PUBLIC "-//W3C//DTD SVG 20010904//EN"
 "http://www.w3.org/TR/2001/REC-SVG-20010904/DTD/svg10.dtd">
<svg version="1.0" xmlns="http://www.w3.org/2000/svg"
 width="500.000000pt" height="500.000000pt" viewBox="0 0 500.000000 500.000000"
 preserveAspectRatio="xMidYMid meet">
<metadata>
Created by potrace 1.16, written by Peter Selinger 2001-2019
</metadata>
<g transform="translate(0.000000,500.000000) scale(0.100000,-0.100000)"
fill="#ffffff" stroke="none">
<path d="M1755 4879 c-38 -5 -110 -21 -160 -35 -359 -102 -608 -339 -697 -664
-19 -72 -23 -108 -22 -240 0 -162 -2 -151 75 -442 l9 -36 51 13 c28 8 53 16
55 18 3 3 -12 69 -32 148 -96 372 -33 658 190 867 85 79 138 115 249 167 149
71 236 90 407 89 116 0 161 -5 225 -22 83 -23 239 -95 289 -135 l28 -23 -41
-315 c-33 -243 -47 -324 -64 -358 -29 -59 -164 -194 -252 -252 -217 -144 -434
-206 -760 -218 -212 -8 -250 -18 -298 -83 -52 -70 -57 -125 -27 -263 24 -108
50 -148 129 -206 54 -39 60 -48 61 -79 1 -62 28 -170 62 -244 36 -78 89 -148
167 -221 l51 -48 0 -157 c0 -114 -3 -160 -12 -168 -7 -5 -80 -40 -161 -76
-210 -94 -280 -131 -378 -197 -249 -170 -463 -447 -577 -747 -31 -80 -156
-512 -150 -516 11 -9 241 -88 328 -114 306 -90 583 -141 960 -178 212 -21 709
-24 910 -5 220 20 595 73 608 86 2 2 -2 29 -8 60 -9 45 -15 55 -28 51 -30 -10
-244 -44 -372 -60 -214 -27 -570 -47 -570 -32 0 2 80 138 178 302 98 165 274
462 392 661 118 199 217 362 220 363 6 0 64 -340 59 -344 -2 -2 -49 -27 -105
-56 l-101 -53 8 -36 c4 -20 17 -76 28 -124 12 -48 21 -94 21 -101 0 -8 -91
-107 -201 -221 l-202 -206 39 -40 c21 -21 41 -39 44 -39 3 0 106 104 229 230
l223 231 -26 114 c-14 63 -26 119 -26 125 0 5 45 32 100 60 55 28 100 56 100
63 1 33 -94 564 -103 574 -16 21 -142 86 -304 158 l-153 67 0 164 c0 139 -2
164 -15 164 -8 0 -15 1 -15 3 0 1 35 38 78 82 115 118 169 235 188 402 6 60 8
63 70 118 36 31 71 70 79 86 18 33 55 206 55 253 0 17 21 132 46 256 40 201
46 244 51 400 4 154 2 188 -17 280 -49 241 -169 394 -349 451 -33 10 -83 36
-113 59 -70 54 -234 133 -328 159 -77 21 -228 42 -290 40 -19 -1 -66 -5 -105
-10z m892 -404 c142 -94 216 -335 193 -627 -7 -86 -65 -426 -74 -436 -2 -1
-29 5 -60 15 l-56 17 0 46 c0 66 -35 201 -71 272 -17 33 -53 84 -79 112 l-49
51 40 285 c21 156 39 291 39 299 0 22 58 5 117 -34z m-202 -717 c84 -128 98
-227 93 -684 -4 -329 -5 -352 -26 -408 -24 -65 -51 -112 -96 -170 -32 -39
-224 -196 -286 -233 -125 -75 -334 -68 -455 14 -92 62 -238 188 -274 236 -100
133 -111 187 -111 533 l0 271 98 7 c149 10 276 34 403 76 218 72 357 156 504
306 55 56 103 102 107 103 4 0 23 -23 43 -51z m-1275 -605 l0 -168 -31 31
c-25 26 -34 48 -49 118 -21 102 -17 128 22 161 56 47 58 42 58 -142z m1542
139 c27 -22 30 -64 14 -151 -17 -87 -26 -110 -50 -131 -14 -11 -16 4 -16 148
0 149 1 161 18 155 9 -3 25 -13 34 -21z m-412 -1207 l0 -155 -51 -25 c-175
-89 -455 -93 -636 -10 l-53 24 0 146 0 147 33 -22 c175 -117 385 -132 572 -40
33 16 76 43 95 59 19 17 36 30 38 31 1 0 2 -70 2 -155z m-699 -311 c24 -9 72
-24 106 -33 l62 -16 -175 -140 c-96 -77 -182 -145 -191 -152 -14 -11 -12 -17
18 -55 18 -24 34 -45 35 -47 2 -2 52 35 111 83 59 47 111 86 114 86 3 0 18
-31 33 -70 16 -41 34 -70 42 -70 8 0 14 -3 14 -6 0 -17 -153 -474 -159 -474
-3 1 -33 44 -65 98 -33 53 -145 234 -249 400 -105 170 -185 308 -181 312 5 5
82 42 172 83 l163 74 53 -28 c29 -16 73 -36 97 -45z m964 7 c116 -54 150 -73
149 -88 0 -23 -487 -843 -495 -835 -4 4 -36 111 -73 237 -37 127 -69 237 -72
246 -3 10 2 18 13 21 11 3 27 30 43 72 14 38 27 69 31 71 3 2 39 -23 80 -56
l74 -59 32 38 c18 20 32 42 33 48 0 6 -66 65 -147 130 -120 97 -143 119 -127
125 10 4 51 17 89 29 39 11 97 36 130 54 33 19 67 34 75 34 8 1 83 -30 165
-67z m-561 -141 c63 -50 64 -54 23 -139 -19 -38 -29 -46 -66 -57 -37 -11 -50
-10 -89 4 -42 16 -48 22 -69 76 l-22 58 31 27 c81 67 113 89 123 83 6 -4 37
-27 69 -52z m-1104 -264 c-22 -104 -40 -194 -40 -201 0 -7 45 -36 100 -65 55
-28 100 -55 100 -61 0 -6 -11 -60 -25 -121 -20 -90 -23 -114 -13 -127 11 -13
303 -325 399 -426 l29 -30 42 42 42 42 -150 156 c-82 86 -171 181 -198 211
l-49 56 28 121 c15 67 30 127 32 134 3 7 -36 32 -95 62 -55 28 -103 54 -105
58 -4 7 44 271 56 307 2 5 184 -282 406 -638 222 -356 401 -650 397 -653 -10
-11 -403 15 -576 37 -85 11 -204 29 -264 40 -61 11 -111 20 -113 20 -2 0 -3
56 -3 125 l0 125 -60 0 -60 0 0 -110 c0 -60 -3 -110 -7 -110 -31 0 -440 125
-455 139 -8 7 63 257 108 381 64 179 187 381 311 511 91 95 196 186 200 172 2
-5 -15 -94 -37 -197z m1148 -364 l89 -304 -99 -167 c-54 -91 -102 -167 -106
-169 -6 -2 -219 331 -231 361 -2 6 38 139 89 296 l93 286 37 0 38 0 90 -303z"/>
<path d="M1864 3881 c-153 -103 -388 -171 -596 -171 l-58 0 0 -61 0 -62 108 7
c195 13 354 53 497 124 68 33 195 117 195 129 0 9 -61 83 -68 83 -4 -1 -39
-22 -78 -49z"/>
<path d="M3670 3205 l0 -115 60 0 60 0 0 115 0 115 -60 0 -60 0 0 -115z"/>
<path d="M3200 3179 c-25 -16 -44 -34 -42 -40 5 -19 93 -169 99 -169 13 0 93
51 93 59 0 9 -99 182 -103 180 -1 0 -22 -13 -47 -30z"/>
<path d="M4122 3118 c-29 -50 -49 -94 -45 -98 16 -14 93 -53 96 -49 14 17 97
168 97 175 0 5 -21 21 -48 36 l-47 26 -53 -90z"/>
<path d="M4485 2804 c-44 -25 -83 -49 -88 -53 -7 -7 39 -101 49 -101 2 0 45
23 94 51 l90 51 -27 49 c-14 27 -29 49 -32 49 -3 0 -42 -21 -86 -46z"/>
<path d="M3563 2716 c-105 -34 -195 -117 -247 -225 l-31 -66 -3 -300 c-3 -206
0 -317 8 -355 27 -123 116 -235 230 -289 52 -25 64 -26 210 -26 155 0 156 0
221 32 82 41 150 111 192 201 l32 67 0 335 0 335 -32 67 c-42 90 -110 160
-192 201 -63 31 -70 32 -206 34 -97 2 -153 -2 -182 -11z m329 -123 c107 -49
171 -159 166 -287 l-3 -71 -86 -22 c-176 -44 -342 -46 -501 -7 l-68 16 0 77
c0 97 20 157 71 215 76 86 132 106 279 102 71 -1 107 -7 142 -23z m166 -655
c-4 -194 -11 -221 -85 -294 -55 -55 -113 -77 -219 -82 -125 -6 -185 12 -258
79 -82 75 -96 120 -96 310 0 130 2 150 15 145 8 -3 54 -13 102 -22 112 -21
321 -14 438 15 44 10 86 20 93 20 11 1 13 -32 10 -171z"/>
<path d="M4530 2285 l0 -55 100 0 100 0 0 55 0 55 -100 0 -100 0 0 -55z"/>
<path d="M3014 1629 c26 -230 197 -431 430 -505 l71 -22 0 -179 0 -178 -177
-3 -178 -2 0 -135 0 -135 60 0 60 0 0 75 0 75 53 0 c69 1 636 1 710 0 l57 0 0
-75 0 -75 60 0 60 0 0 135 0 135 -155 0 -155 0 0 184 0 184 41 7 c77 13 214
91 287 163 101 100 172 250 172 364 l0 48 -53 0 -53 0 -12 -70 c-30 -173 -150
-311 -330 -378 -55 -20 -91 -26 -203 -30 -173 -6 -256 8 -359 59 -145 73 -250
212 -268 354 l-7 60 -59 3 -59 3 7 -62z m776 -714 l0 -175 -80 0 -80 0 0 175
0 175 80 0 80 0 0 -175z"/>
</g>
</svg>
