<svg width="35" height="34" viewBox="0 0 35 34" fill="none" xmlns="http://www.w3.org/2000/svg">
<g clip-path="url(#clip0_2313_322354)">
<path d="M24.8776 13.0346L32.2627 7.8638C32.3689 7.78936 32.4935 7.74551 32.6229 7.73701C32.7523 7.72852 32.8815 7.75571 32.9965 7.81563C33.1116 7.87554 33.2079 7.96589 33.2751 8.0768C33.3423 8.18772 33.3778 8.31495 33.3776 8.44464V25.558C33.3778 25.6877 33.3423 25.8149 33.2751 25.9258C33.2079 26.0367 33.1116 26.1271 32.9965 26.187C32.8815 26.2469 32.7523 26.2741 32.6229 26.2656C32.4935 26.2571 32.3689 26.2132 32.2627 26.1388L24.8776 20.968V26.918C24.8776 27.2937 24.7284 27.654 24.4627 27.9197C24.197 28.1854 23.8367 28.3346 23.4609 28.3346H3.6276C3.25188 28.3346 2.89155 28.1854 2.62587 27.9197C2.36019 27.654 2.21094 27.2937 2.21094 26.918V7.08464C2.21094 6.70891 2.36019 6.34858 2.62587 6.0829C2.89155 5.81722 3.25188 5.66797 3.6276 5.66797H23.4609C23.8367 5.66797 24.197 5.81722 24.4627 6.0829C24.7284 6.34858 24.8776 6.70891 24.8776 7.08464V13.0346ZM24.8776 17.5099L30.5443 21.4766V12.5246L24.8776 16.4913V17.5085V17.5099ZM5.04427 8.5013V25.5013H22.0443V8.5013H5.04427ZM7.8776 11.3346H10.7109V14.168H7.8776V11.3346Z" fill="white"/>
</g>
<defs>
<clipPath id="clip0_2313_322354">
<rect width="34" height="34" fill="white" transform="translate(0.796875)"/>
</clipPath>
</defs>
</svg>
