<svg xmlns="http://www.w3.org/2000/svg" width="35" height="34" fill="none"><g clip-path="url(#a)"><path fill="#fff" d="m24.878 13.035 7.385-5.171a.708.708 0 0 1 1.115.58v17.114a.708.708 0 0 1-1.115.58l-7.385-5.17v5.95a1.417 1.417 0 0 1-1.417 1.417H3.628a1.417 1.417 0 0 1-1.417-1.417V7.085a1.417 1.417 0 0 1 1.417-1.417H23.46a1.417 1.417 0 0 1 1.417 1.417zm0 4.475 5.666 3.967v-8.952l-5.666 3.966v1.018M5.044 8.5v17h17v-17zm2.834 2.834h2.833v2.833H7.878z"/></g><defs><clipPath id="a"><path fill="#fff" d="M.797 0h34v34h-34z"/></clipPath></defs></svg>