<svg width="34" height="34" viewBox="0 0 34 34" fill="none" xmlns="http://www.w3.org/2000/svg">
<g clip-path="url(#clip0_2313_322361)">
<path d="M18.4167 19.8346H15.5833C13.2594 19.8337 10.9795 20.4681 8.98999 21.6691C7.00049 22.8701 5.3771 24.592 4.29534 26.6488C4.26493 26.2671 4.24981 25.8843 4.25 25.5013C4.25 17.6771 10.5924 11.3346 18.4167 11.3346V3.54297L33.2917 15.5846L18.4167 27.6263V19.8346ZM15.5833 17.0013H21.25V21.6876L28.7881 15.5846L21.25 9.48164V14.168H18.4167C16.7879 14.1661 15.1779 14.5162 13.6969 15.1942C12.2159 15.8723 10.8989 16.8622 9.83592 18.0964C11.6653 17.3714 13.6155 16.9998 15.5833 17.0013Z" fill="#EF8435"/>
</g>
<defs>
<clipPath id="clip0_2313_322361">
<rect width="34" height="34" fill="white"/>
</clipPath>
</defs>
</svg>
