<svg id="Layer_1" data-name="Layer 1" fill="#2dd4bf" xmlns="http://www.w3.org/2000/svg" viewBox="0 0 122.88 107.09"><title>chat-bubble</title><path d="M63.08,0h.07C79.93.55,95,6.51,105.75,15.74c11,9.39,17.52,22.16,17.11,36.09v0a42.67,42.67,0,0,1-7.58,22.87A55,55,0,0,1,95.78,92a73.3,73.3,0,0,1-28.52,8.68,62.16,62.16,0,0,1-27-3.63L6.72,107.09,16.28,83a49.07,49.07,0,0,1-10.91-13A40.16,40.16,0,0,1,.24,45.55a44.84,44.84,0,0,1,9.7-23A55.62,55.62,0,0,1,26.19,8.83,67,67,0,0,1,43.75,2,74.32,74.32,0,0,1,63.07,0Zm24.18,42a7.78,7.78,0,1,1-7.77,7.78,7.78,7.78,0,0,1,7.77-7.78Zm-51.39,0a7.78,7.78,0,1,1-7.78,7.78,7.79,7.79,0,0,1,7.78-7.78Zm25.69,0a7.78,7.78,0,1,1-7.77,7.78,7.78,7.78,0,0,1,7.77-7.78Zm1.4-36h-.07A68.43,68.43,0,0,0,45.14,7.85a60.9,60.9,0,0,0-16,6.22A49.65,49.65,0,0,0,14.66,26.32,38.87,38.87,0,0,0,6.24,46.19,34.21,34.21,0,0,0,10.61,67,44.17,44.17,0,0,0,21.76,79.67l1.76,1.39L16.91,97.71l23.56-7.09,1,.38a56,56,0,0,0,25.32,3.6,67,67,0,0,0,26.16-8A49,49,0,0,0,110.3,71.36a36.86,36.86,0,0,0,6.54-19.67v0c.35-12-5.41-23.1-15-31.33C92.05,11.94,78.32,6.52,63,6.06Z"/></svg>