<?xml version="1.0" standalone="no"?>
<!DOCTYPE svg PUBLIC "-//W3C//DTD SVG 20010904//EN"
 "http://www.w3.org/TR/2001/REC-SVG-20010904/DTD/svg10.dtd">
<svg version="1.0" xmlns="http://www.w3.org/2000/svg"
 width="500.000000pt" height="500.000000pt" viewBox="0 0 500.000000 500.000000"
 preserveAspectRatio="xMidYMid meet">
<metadata>
Created by potrace 1.16, written by Peter Selinger 2001-2019
</metadata>
<g transform="translate(0.000000,500.000000) scale(0.100000,-0.100000)"
fill="#000000" stroke="none">
<path d="M2270 4984 c-739 -104 -1320 -638 -1486 -1364 -87 -380 -39 -776 152
-1253 190 -475 430 -871 1114 -1832 113 -159 237 -336 275 -392 73 -108 116
-143 175 -143 61 0 102 34 185 158 43 65 156 225 250 357 563 787 818 1185
1000 1560 372 767 419 1347 155 1910 -247 527 -715 883 -1305 991 -119 22
-388 26 -515 8z m382 -285 c630 -67 1146 -533 1283 -1159 23 -102 31 -373 15
-496 -34 -269 -140 -575 -324 -929 -170 -328 -403 -691 -812 -1266 -132 -184
-255 -358 -274 -387 -19 -28 -37 -51 -40 -51 -3 0 -23 25 -44 57 -22 31 -139
196 -260 367 -445 625 -661 966 -841 1320 -222 438 -315 757 -315 1084 0 225
36 404 122 599 78 178 242 397 389 518 321 265 707 385 1101 343z"/>
<path d="M2380 4113 c-364 -60 -637 -306 -733 -658 -30 -112 -30 -315 2 -430
72 -266 266 -490 516 -594 120 -50 195 -64 340 -64 242 1 423 75 599 242 122
117 204 254 247 416 30 108 32 318 5 419 -91 342 -345 588 -680 657 -84 17
-229 23 -296 12z m281 -307 c96 -30 173 -78 250 -155 118 -117 171 -242 173
-401 1 -167 -54 -301 -174 -420 -116 -116 -247 -170 -410 -170 -163 0 -294 54
-410 170 -120 119 -175 253 -174 420 2 159 55 284 173 401 91 92 198 149 321
173 44 8 203 -3 251 -18z"/>
</g>
</svg>
