<svg xmlns="http://www.w3.org/2000/svg" width="666.667" height="666.667" version="1.0" viewBox="0 0 500 500"><path d="M227 1.6C153.1 12 95 65.4 78.4 138c-8.7 38-3.9 77.6 15.2 125.3 19 47.5 43 87.1 111.4 183.2 11.3 15.9 23.7 33.6 27.5 39.2 7.3 10.8 11.6 14.3 17.5 14.3 6.1 0 10.2-3.4 18.5-15.8 4.3-6.5 15.6-22.5 25-35.7 56.3-78.7 81.8-118.5 100-156 37.2-76.7 41.9-134.7 15.5-191-24.7-52.7-71.5-88.3-130.5-99.1C266.6.2 239.7-.2 227 1.6m38.2 28.5c63 6.7 114.6 53.3 128.3 115.9 2.3 10.2 3.1 37.3 1.5 49.6-3.4 26.9-14 57.5-32.4 92.9-17 32.8-40.3 69.1-81.2 126.6-13.2 18.4-25.5 35.8-27.4 38.7-1.9 2.8-3.7 5.1-4 5.1s-2.3-2.5-4.4-5.7c-2.2-3.1-13.9-19.6-26-36.7-44.5-62.5-66.1-96.6-84.1-132-22.2-43.8-31.5-75.7-31.5-108.4 0-22.5 3.6-40.4 12.2-59.9 7.8-17.8 24.2-39.7 38.9-51.8 32.1-26.5 70.7-38.5 110.1-34.3"/><path d="M238 88.7c-36.4 6-63.7 30.6-73.3 65.8-3 11.2-3 31.5.2 43 7.2 26.6 26.6 49 51.6 59.4 12 5 19.5 6.4 34 6.4 24.2-.1 42.3-7.5 59.9-24.2 12.2-11.7 20.4-25.4 24.7-41.6 3-10.8 3.2-31.8.5-41.9-9.1-34.2-34.5-58.8-68-65.7-8.4-1.7-22.9-2.3-29.6-1.2m28.1 30.7c9.6 3 17.3 7.8 25 15.5 11.8 11.7 17.1 24.2 17.3 40.1.1 16.7-5.4 30.1-17.4 42-11.6 11.6-24.7 17-41 17s-29.4-5.4-41-17c-12-11.9-17.5-25.3-17.4-42 .2-15.9 5.5-28.4 17.3-40.1 9.1-9.2 19.8-14.9 32.1-17.3 4.4-.8 20.3.3 25.1 1.8"/></svg>