<svg xmlns="http://www.w3.org/2000/svg" width="20" height="20" fill="none"><g clip-path="url(#a)"><path fill="#EBE8E5" d="m14.17 7.665 4.343-3.041a.417.417 0 0 1 .656.341v10.067a.417.417 0 0 1-.656.342l-4.344-3.042v3.5a.833.833 0 0 1-.833.833H1.669a.833.833 0 0 1-.833-.833V4.165a.833.833 0 0 1 .833-.833h11.667a.833.833 0 0 1 .833.833zm0 2.633 3.333 2.333V7.365L14.169 9.7zm-11.667-5.3v10h10v-10zm1.666 1.667h1.667v1.667H4.169z"/></g><defs><clipPath id="a"><path fill="#fff" d="M0 0h20v20H0z"/></clipPath></defs></svg>