<svg width="20" height="20" viewBox="0 0 20 20" fill="none" xmlns="http://www.w3.org/2000/svg">
<g clip-path="url(#clip0_2217_100113)">
<path d="M14.1693 7.66536L18.5134 4.6237C18.5759 4.57991 18.6492 4.55411 18.7253 4.54912C18.8014 4.54412 18.8775 4.56011 18.9451 4.59536C19.0128 4.63061 19.0695 4.68375 19.109 4.74899C19.1485 4.81424 19.1694 4.88908 19.1693 4.96536V15.032C19.1694 15.1083 19.1485 15.1832 19.109 15.2484C19.0695 15.3136 19.0128 15.3668 18.9451 15.402C18.8775 15.4373 18.8014 15.4533 18.7253 15.4483C18.6492 15.4433 18.5759 15.4175 18.5134 15.3737L14.1693 12.332V15.832C14.1693 16.053 14.0815 16.265 13.9252 16.4213C13.7689 16.5776 13.557 16.6654 13.3359 16.6654H1.66927C1.44826 16.6654 1.2363 16.5776 1.08002 16.4213C0.923735 16.265 0.835938 16.053 0.835938 15.832V4.16536C0.835937 3.94435 0.923735 3.73239 1.08002 3.57611C1.2363 3.41983 1.44826 3.33203 1.66927 3.33203H13.3359C13.557 3.33203 13.7689 3.41983 13.9252 3.57611C14.0815 3.73239 14.1693 3.94435 14.1693 4.16536V7.66536ZM14.1693 10.2979L17.5026 12.6312V7.36536L14.1693 9.6987V10.297V10.2979ZM2.5026 4.9987V14.9987H12.5026V4.9987H2.5026ZM4.16927 6.66536H5.83594V8.33203H4.16927V6.66536Z" fill="#EBE8E5"/>
</g>
<defs>
<clipPath id="clip0_2217_100113">
<rect width="20" height="20" fill="white"/>
</clipPath>
</defs>
</svg>
