<svg width="36" height="36" viewBox="0 0 36 36" fill="none" xmlns="http://www.w3.org/2000/svg">
<rect width="36" height="36" rx="4" fill="#4F5461"/>
<path d="M11.7378 12.6447V12.645V12.6447ZM18.5222 9L16.5419 9.00069V9.00097H16.5409C15.8601 9.00097 15.3085 9.55304 15.3085 10.2338V10.3508L9.61312 10.3509C9.27459 10.3509 9 10.6254 9 10.964V12.0441C9 12.3827 9.27458 12.6572 9.61312 12.6572H10.3455V12.6576L24.7184 12.6577L24.7185 12.6575V12.6577H24.727L25.451 12.6575C25.6136 12.6575 25.7694 12.5928 25.8844 12.478C25.9994 12.363 26.0641 12.207 26.0641 12.0444V10.9636C26.0641 10.801 25.9994 10.6452 25.8844 10.5302C25.7694 10.4152 25.6136 10.3505 25.451 10.3505L19.7556 10.3507V10.2336C19.7556 9.9064 19.6256 9.59265 19.3942 9.36126C19.163 9.12999 18.8492 9.00005 18.5221 9.00005L18.5222 9ZM17.8277 15.0695C18.0543 15.0698 18.2378 15.2534 18.2378 15.48L18.2381 24.3534C18.2381 24.4624 18.1948 24.5668 18.1178 24.6438C18.0407 24.7209 17.9364 24.7641 17.8275 24.7645L17.2368 24.7641V24.7645C17.1279 24.7641 17.0235 24.7209 16.9464 24.6438C16.8695 24.5668 16.8261 24.4624 16.8261 24.3534L16.8264 15.48C16.8264 15.2539 17.0094 15.0704 17.2354 15.0704L17.2359 15.0708L17.2394 15.0699L17.24 15.0698L17.8266 15.0695L17.8277 15.0695ZM14.1434 15.0539L14.1352 15.062V15.0623H14.1358C14.3558 15.0623 14.5377 15.2368 14.5453 15.4584L14.8521 24.3265C14.8559 24.4355 14.8163 24.5413 14.742 24.6209L14.7418 24.6211C14.6675 24.7006 14.5647 24.7474 14.4559 24.7511L13.8655 24.7715C13.8619 24.7716 13.855 24.7718 13.8514 24.7718C13.7476 24.7718 13.6474 24.7325 13.5713 24.6613C13.4915 24.5871 13.4448 24.4842 13.441 24.3754L13.1349 15.5073C13.127 15.2806 13.3044 15.0905 13.531 15.0827L14.1208 15.0623V15.0626C14.1229 15.0623 14.1247 15.0622 14.1265 15.0622C14.129 15.0622 14.1316 15.0623 14.1336 15.0626L14.1341 15.0621L14.1434 15.0539ZM20.9335 15.062C20.9369 15.0622 20.9403 15.0622 20.9432 15.0623V15.0626L21.5331 15.0827C21.7596 15.0905 21.937 15.2806 21.9292 15.5073L21.623 24.3754C21.6193 24.4842 21.5725 24.5871 21.4929 24.6613C21.4168 24.7324 21.3165 24.7717 21.2127 24.7717C21.2091 24.7717 21.2022 24.7716 21.1986 24.7715L20.6082 24.7511V24.7514C20.4994 24.7474 20.3964 24.7005 20.3222 24.6209C20.2479 24.5413 20.2082 24.4353 20.2121 24.3265L20.5188 15.4584C20.5264 15.2372 20.7077 15.063 20.9272 15.063L20.9277 15.0633L20.931 15.0624L20.9323 15.0622V15.062L20.9335 15.062ZM10.3956 13.5574L10.9828 24.1098L10.9842 24.1291C11.0349 24.7361 11.0794 25.8325 11.8191 26.4319V26.4321C12.5075 26.9897 13.6719 26.9809 14.4151 26.9978L14.4307 26.9979L16.2838 26.9988L16.2827 26.999C16.2946 26.9993 16.3065 26.9996 16.3185 26.9996L16.3188 27L17.5227 26.9992L18.7443 26.9997L18.7446 27C18.7562 26.9997 18.7678 26.9994 18.7793 26.9989H18.7804L18.7795 26.9992L20.6323 26.9982L20.648 26.9979C21.3912 26.981 22.5555 26.99 23.2439 26.4326V26.4322C23.9837 25.8329 24.0284 24.7365 24.079 24.1295L24.0804 24.1102L24.6682 13.5578L10.3956 13.5574Z" fill="#0DCEAB"/>
</svg>
