<svg width="25" height="18" viewBox="0 0 25 18" fill="none" xmlns="http://www.w3.org/2000/svg">
<path d="M0.514337 0H24.1713C24.4552 0 24.6856 0.283943 24.6856 0.514337V14.3998C24.6856 14.6838 24.4554 14.9142 24.1713 14.9142H0.514337C0.230394 14.9142 0 14.6302 0 14.3998V0.514337C0 0.230394 0.230222 0 0.514337 0Z" fill="#13E3F0"/>
<path d="M18.2574 17.9999C18.2135 17.9999 18.1698 17.9944 18.1273 17.9832L12.343 16.4743L6.55865 17.9832C6.28383 18.0548 6.00301 17.8902 5.93138 17.6154C5.85957 17.3406 6.02419 17.0598 6.299 16.988L12.2134 15.4451C12.2984 15.4229 12.388 15.4229 12.473 15.4451L18.3874 16.988C18.6376 17.0534 18.8003 17.2943 18.7676 17.5509C18.7347 17.8074 18.5165 17.9998 18.2579 18L18.2574 17.9999Z" fill="#13E3F0"/>
</svg>
