<svg width="19" height="18" viewBox="0 0 19 18" fill="none" xmlns="http://www.w3.org/2000/svg">
<path d="M18.0155 2.6554L15.6875 0.32741C15.521 0.161044 15.3065 0.0514328 15.0742 0.0141405C14.8419 -0.0231518 14.6038 0.0137638 14.3938 0.119608C14.3567 0.107052 14.3159 0.116595 14.2883 0.144217L3.06652 11.366L1.81596 12.6176C1.80089 12.6328 1.79085 12.6523 1.78746 12.6734L1.77377 12.6598L0.342896 18L5.68314 16.5691L5.66945 16.5554C5.69054 16.552 5.71013 16.542 5.72532 16.5269L18.1987 4.05352C18.2264 4.02589 18.2359 3.98496 18.2234 3.94805C18.3289 3.73812 18.3657 3.50017 18.3284 3.26816C18.2912 3.03612 18.1817 2.82166 18.0155 2.65532L18.0155 2.6554Z" fill="#656565"/>
</svg>
