<svg width="12" height="12" viewBox="0 0 12 12" fill="none" xmlns="http://www.w3.org/2000/svg">
<path fill-rule="evenodd" clip-rule="evenodd" d="M3 1.3125C3 0.587626 3.58763 0 4.3125 0H8.50185C8.84993 0 9.18375 0.138281 9.4299 0.384422L11.6156 2.57009C11.8617 2.81623 12 3.15006 12 3.49816V9.9375C12 10.6624 11.4124 11.25 10.6875 11.25H3.9375C3.62684 11.25 3.375 10.9981 3.375 10.6875C3.375 10.3769 3.62684 10.125 3.9375 10.125H10.6875C10.7911 10.125 10.875 10.0411 10.875 9.9375V4.5H8.8125C8.08762 4.5 7.5 3.91237 7.5 3.1875V1.125H4.3125C4.20895 1.125 4.125 1.20895 4.125 1.3125V3.1875C4.125 3.49816 3.87316 3.75 3.5625 3.75C3.25184 3.75 3 3.49816 3 3.1875V1.3125ZM8.625 1.17112V3.1875C8.625 3.29105 8.70893 3.375 8.8125 3.375H10.8289C10.8261 3.37177 10.8231 3.36863 10.8201 3.36558L8.63445 1.17991C8.63138 1.17687 8.62823 1.17394 8.625 1.17112ZM4.28975 5.03975C4.07009 5.25942 4.07009 5.61558 4.28975 5.83525L5.392 6.9375L4.28975 8.03977C4.07009 8.25945 4.07009 8.61555 4.28975 8.83523C4.50942 9.0549 4.86558 9.0549 5.08525 8.83523L6.58525 7.33525C6.80491 7.11558 6.80491 6.75942 6.58525 6.53975L5.08525 5.03975C4.86558 4.82009 4.50942 4.82009 4.28975 5.03975ZM2.46025 5.83525C2.67991 5.61558 2.67991 5.25942 2.46025 5.03975C2.24058 4.82009 1.88442 4.82009 1.66475 5.03975L0.164752 6.53975C-0.0549175 6.75942 -0.0549175 7.11558 0.164752 7.33525L1.66475 8.83523C1.88442 9.0549 2.24058 9.0549 2.46025 8.83523C2.67991 8.61555 2.67991 8.25945 2.46025 8.03977L1.358 6.9375L2.46025 5.83525Z" fill="#EAEAEA"/>
</svg>
