<svg width="36" height="36" viewBox="0 0 36 36" fill="none" xmlns="http://www.w3.org/2000/svg">
<rect width="36" height="36" rx="4" fill="#4F5461"/>
<path d="M25.3077 11.7692H18.5923C18.1769 11.7692 17.7615 11.6308 17.4154 11.4231C17.3462 11.3538 16.8615 11.0077 16.3077 10.5923C15.6846 10.1077 15.0615 9.62308 14.9923 9.62308C14.5077 9.20769 13.8154 9 13.1231 9H10.0769C8.9 9 8 9.9 8 11.0769V24.9231C8 26.1 8.9 27 10.0769 27H25.3077C26.4846 27 27.3846 26.1 27.3846 24.9231V13.8462C27.3846 12.6692 26.4846 11.7692 25.3077 11.7692ZM21.1538 20.0769H18.3846V22.8462C18.3846 23.2615 18.1077 23.5385 17.6923 23.5385C17.2769 23.5385 17 23.2615 17 22.8462V20.0769H14.2308C13.8154 20.0769 13.5385 19.8 13.5385 19.3846C13.5385 18.9692 13.8154 18.6923 14.2308 18.6923H17V15.9231C17 15.5077 17.2769 15.2308 17.6923 15.2308C18.1077 15.2308 18.3846 15.5077 18.3846 15.9231V18.6923H21.1538C21.5692 18.6923 21.8462 18.9692 21.8462 19.3846C21.8462 19.8 21.5692 20.0769 21.1538 20.0769Z" fill="#0DCEAB"/>
</svg>
