<svg width="13" height="18" viewBox="0 0 13 18" fill="none" xmlns="http://www.w3.org/2000/svg">
<path d="M10.0929 18H2.59271C1.99608 18 1.42377 17.7629 1.00177 17.3409C0.579766 16.9191 0.342712 16.3468 0.342712 15.75V2.25C0.342712 1.65324 0.579766 1.08093 1.00177 0.659057C1.42377 0.237054 1.99608 0 2.59271 0H10.0929C10.6896 0 11.2619 0.237054 11.6839 0.659057C12.1059 1.08093 12.3429 1.65324 12.3429 2.25V15.75C12.3429 16.3468 12.1059 16.9191 11.6839 17.3409C11.2619 17.7629 10.6896 18 10.0929 18ZM2.59271 1.50011C2.39383 1.50011 2.20311 1.57908 2.06248 1.71971C1.92173 1.86033 1.84276 2.05116 1.84276 2.25006V15.7501C1.84276 15.9489 1.92173 16.1398 2.06248 16.2804C2.20311 16.421 2.39384 16.5 2.59271 16.5H10.0929C10.2918 16.5 10.4825 16.421 10.6232 16.2804C10.7639 16.1398 10.8429 15.949 10.8429 15.7501V2.25006C10.8429 2.05118 10.7639 1.86033 10.6232 1.71971C10.4825 1.57908 10.2918 1.50011 10.0929 1.50011H2.59271Z" fill="#656565"/>
<path d="M8.59279 3.7501H4.09279C3.89391 3.7501 3.70306 3.671 3.56243 3.53037C3.42181 3.38975 3.34283 3.19901 3.34283 3.00002V0.750015C3.34283 0.551131 3.42181 0.360411 3.56243 0.219786C3.70306 0.079036 3.89389 6.10352e-05 4.09279 6.10352e-05H8.59279C8.79168 6.10352e-05 8.98252 0.079036 9.12315 0.219786C9.26377 0.360411 9.34275 0.551147 9.34275 0.750015V3.00002C9.34275 3.19902 9.26377 3.38975 9.12315 3.53037C8.98252 3.671 8.79169 3.7501 8.59279 3.7501ZM4.84268 2.25005H7.84264L7.84277 1.5001H4.84268L4.84268 2.25005Z" fill="#656565"/>
</svg>
