<svg width="16" height="16" viewBox="0 0 16 16" fill="none" xmlns="http://www.w3.org/2000/svg">
<path d="M8.88165 3.72246V6.9388C8.88165 7.03675 8.96331 7.10212 9.04496 7.10212H10.4817C10.5797 7.10212 10.645 7.18377 10.645 7.26543V8.7022C10.645 8.80014 10.5634 8.86551 10.4817 8.86551L7.28172 8.86528C7.18378 8.86528 7.11841 8.78363 7.11841 8.70197L7.11852 3.72236C7.11852 3.62442 7.20018 3.55905 7.28183 3.55905H8.7186C8.81643 3.55905 8.88169 3.62442 8.88169 3.72236L8.88165 3.72246ZM13.649 2.35094C12.2122 0.897875 10.2041 0 8.00002 0C5.68164 0 3.52653 0.995922 2.04081 2.67756C1.97555 2.74282 1.86121 2.75922 1.79595 2.69385L0.29382 1.17553C0.179592 1.07748 0 1.14285 0 1.28976V6.0408C0 6.13874 0.0816563 6.20411 0.163313 6.20411H4.91435C5.06126 6.20411 5.14292 6.02451 5.02869 5.91029L3.28157 4.17958C3.21632 4.11433 3.21632 4.01627 3.26529 3.95102C4.42453 2.59591 6.13874 1.77958 7.98367 1.77958C9.698 1.77958 11.249 2.48157 12.3755 3.60813C13.5184 4.73469 14.2203 6.28569 14.2203 7.99998C14.2203 11.4286 11.4286 14.2204 7.99991 14.2204C6.36725 14.2204 4.84888 13.5837 3.72234 12.5061C3.65709 12.4408 3.55903 12.4408 3.49378 12.5061L2.48156 13.5183C2.4163 13.5836 2.4163 13.6979 2.48156 13.7632C3.91821 15.1674 5.89382 16 7.99995 16C12.4081 16 16 12.4081 16 7.99997C16 5.79582 15.1021 3.78771 13.649 2.35097L13.649 2.35094Z" fill="#81AACE"/>
</svg>
