<svg width="24" height="25" viewBox="0 0 24 25" fill="none" xmlns="http://www.w3.org/2000/svg">
<path d="M12 24.125C18.4203 24.125 23.625 18.9203 23.625 12.5C23.625 6.07969 18.4203 0.875 12 0.875C5.57969 0.875 0.375 6.07969 0.375 12.5C0.375 18.9203 5.57969 24.125 12 24.125Z" fill="#EA4C89"/>
<path fill-rule="evenodd" clip-rule="evenodd" d="M12 0.5C5.37527 0.5 0 5.87527 0 12.5C0 19.1248 5.37527 24.5 12 24.5C18.6117 24.5 24 19.1248 24 12.5C24 5.87527 18.6117 0.5 12 0.5ZM19.9262 6.03145C21.3579 7.77549 22.217 10.0011 22.243 12.4089C21.9046 12.3439 18.5206 11.654 15.1106 12.0835C15.0325 11.9143 14.9675 11.7321 14.8894 11.5499C14.6811 11.0554 14.4469 10.5477 14.2126 10.0662C17.9869 8.5304 19.705 6.31779 19.9262 6.03145ZM12 2.27007C14.603 2.27007 16.9848 3.24621 18.7939 4.84707C18.6117 5.10738 17.0629 7.17679 13.4186 8.54338C11.7397 5.45878 9.87855 2.93384 9.5922 2.54338C10.3601 2.36117 11.1671 2.27007 12 2.27007ZM7.63995 3.23319C7.91325 3.59761 9.73538 6.13558 11.4404 9.15508C6.65076 10.4306 2.42083 10.4046 1.96529 10.4046C2.62907 7.22885 4.77657 4.58676 7.63995 3.23319ZM1.74404 12.5131C1.74404 12.4089 1.74404 12.3048 1.74404 12.2007C2.18655 12.2136 7.15835 12.2787 12.2733 10.743C12.5727 11.3156 12.846 11.9013 13.1063 12.4869C12.9761 12.526 12.8329 12.5651 12.7028 12.6041C7.41865 14.3091 4.60738 18.9685 4.3731 19.359C2.7462 17.5499 1.74404 15.1421 1.74404 12.5131ZM12 22.756C9.6312 22.756 7.44469 21.949 5.71367 20.5954C5.89588 20.218 7.97827 16.2094 13.757 14.192C13.783 14.179 13.7961 14.179 13.8221 14.166C15.2668 17.9013 15.8525 21.0379 16.0087 21.936C14.7722 22.4696 13.4186 22.756 12 22.756ZM17.7136 20.9989C17.6096 20.3742 17.0629 17.3807 15.7223 13.6974C18.9371 13.1898 21.7484 14.0228 22.0998 14.1399C21.6573 16.9902 20.0173 19.4501 17.7136 20.9989Z" fill="#C32361"/>
</svg>
