<svg width="24" height="25" viewBox="0 0 24 25" fill="none" xmlns="http://www.w3.org/2000/svg">
<g clip-path="url(#clip0_1705_35079)">
<path d="M23.7663 12.7763C23.7663 11.9605 23.7001 11.1404 23.559 10.3379H12.2402V14.9589H18.722C18.453 16.4492 17.5888 17.7676 16.3233 18.6054V21.6037H20.1903C22.4611 19.5137 23.7663 16.4272 23.7663 12.7763Z" fill="#4285F4"/>
<path d="M12.2401 24.5013C15.4766 24.5013 18.2059 23.4387 20.1945 21.6044L16.3276 18.606C15.2517 19.338 13.8627 19.7525 12.2445 19.7525C9.11388 19.7525 6.45946 17.6404 5.50705 14.8008H1.5166V17.8917C3.55371 21.9439 7.7029 24.5013 12.2401 24.5013Z" fill="#34A853"/>
<path d="M5.50277 14.8007C5.00011 13.3103 5.00011 11.6965 5.50277 10.2062V7.11523H1.51674C-0.185266 10.506 -0.185266 14.5009 1.51674 17.8916L5.50277 14.8007Z" fill="#FBBC04"/>
<path d="M12.2401 5.24966C13.9509 5.2232 15.6044 5.86697 16.8434 7.04867L20.2695 3.62262C18.1001 1.5855 15.2208 0.465534 12.2401 0.500809C7.7029 0.500809 3.55371 3.05822 1.5166 7.11481L5.50264 10.2058C6.45064 7.36173 9.10947 5.24966 12.2401 5.24966Z" fill="#EA4335"/>
</g>
<defs>
<clipPath id="clip0_1705_35079">
<rect width="24" height="24" fill="white" transform="translate(0 0.5)"/>
</clipPath>
</defs>
</svg>
