<svg width="36" height="36" viewBox="0 0 36 36" fill="none" xmlns="http://www.w3.org/2000/svg">
<circle cx="18" cy="18" r="18" fill="#585656"/>
<path d="M20.2461 10.9336C20.4805 10.9336 20.6641 11.0195 20.7969 11.1914C20.9297 11.3555 20.9961 11.5508 20.9961 11.7773C20.9961 11.9023 20.9727 12.0312 20.9258 12.1641C20.8867 12.2891 20.8242 12.4023 20.7383 12.5039C20.6602 12.6055 20.5625 12.6914 20.4453 12.7617C20.3359 12.8242 20.207 12.8555 20.0586 12.8555C19.832 12.8555 19.6484 12.7695 19.5078 12.5977C19.3672 12.418 19.2969 12.2188 19.2969 12C19.2969 11.8359 19.3242 11.6914 19.3789 11.5664C19.4414 11.4336 19.5156 11.3203 19.6016 11.2266C19.6953 11.1328 19.7969 11.0625 19.9062 11.0156C20.0234 10.9609 20.1367 10.9336 20.2461 10.9336ZM17.4688 17.2852C17.4922 17.2305 17.5039 17.1875 17.5039 17.1562C17.5039 17.1094 17.4883 17.0781 17.457 17.0625C17.4336 17.0391 17.4023 17.0273 17.3633 17.0273C17.2852 17.0273 17.2148 17.0703 17.1523 17.1562L14.832 20.0273L14.5391 19.793L17.1758 16.5352C17.3789 16.2852 17.5898 16.0664 17.8086 15.8789C18.0352 15.6836 18.2695 15.5859 18.5117 15.5859C18.7383 15.5859 18.9023 15.6484 19.0039 15.7734C19.1055 15.8906 19.1562 16.0234 19.1562 16.1719C19.1562 16.3203 19.1289 16.4883 19.0742 16.6758C19.0195 16.8633 18.9492 17.0586 18.8633 17.2617L16.8945 22.0078C16.8633 22.0859 16.8359 22.1641 16.8125 22.2422C16.7891 22.3125 16.7773 22.375 16.7773 22.4297C16.7773 22.5234 16.7969 22.5859 16.8359 22.6172C16.8828 22.6484 16.9414 22.6641 17.0117 22.6641C17.1211 22.6641 17.2539 22.6094 17.4102 22.5C17.5664 22.3906 17.7305 22.2305 17.9023 22.0195L20.0469 19.3711L20.3398 19.6055L17.75 22.8047C17.5625 23.0391 17.3867 23.2344 17.2227 23.3906C17.0586 23.5469 16.9023 23.6719 16.7539 23.7656C16.6133 23.8516 16.4688 23.9141 16.3203 23.9531C16.1797 23.9922 16.0352 24.0117 15.8867 24.0117C15.6523 24.0117 15.457 23.9453 15.3008 23.8125C15.1445 23.6719 15.0664 23.4961 15.0664 23.2852C15.0664 23.0898 15.1133 22.8594 15.207 22.5938C15.3008 22.3281 15.4297 22.0039 15.5938 21.6211L17.4688 17.2852Z" fill="white"/>
</svg>
