<svg width="48" height="48" viewBox="0 0 48 48" fill="none" xmlns="http://www.w3.org/2000/svg">
<rect width="48" height="48" rx="24" fill="#F9F9F9"/>
<path d="M18.667 20V17.3333C18.667 14.3878 21.0548 12 24.0003 12C26.9458 12 29.3337 14.3878 29.3337 17.3333V20M18.9337 36H29.067C30.5605 36 31.3072 36 31.8776 35.7094C32.3794 35.4537 32.7873 35.0457 33.043 34.544C33.3337 33.9735 33.3337 33.2268 33.3337 31.7333V24.2667C33.3337 22.7732 33.3337 22.0265 33.043 21.456C32.7873 20.9543 32.3794 20.5463 31.8776 20.2906C31.3072 20 30.5605 20 29.067 20H18.9337C17.4402 20 16.6934 20 16.123 20.2906C15.6213 20.5463 15.2133 20.9543 14.9576 21.456C14.667 22.0265 14.667 22.7732 14.667 24.2667V31.7333C14.667 33.2268 14.667 33.9735 14.9576 34.544C15.2133 35.0457 15.6213 35.4537 16.123 35.7094C16.6934 36 17.4402 36 18.9337 36Z" stroke="#49556D" stroke-width="2" stroke-linecap="round"/>
</svg>
