<svg width="93" height="32" viewBox="0 0 93 32" fill="none" xmlns="http://www.w3.org/2000/svg">
<g clip-path="url(#clip0_742_3366)">
<path d="M69.7581 1.71182C69.6584 1.53974 69.2754 1.1997 68.609 0.69178C67.8848 0.133442 67.4441 -0.0868753 67.2867 0.0306707C66.9246 0.303521 66.5363 0.614128 66.1218 0.962539C65.6705 1.34457 65.3163 1.66363 65.0592 1.91968C64.5817 2.36884 64.1514 2.77599 63.7684 3.14124C63.0495 3.83381 62.4566 4.42782 61.9896 4.92317C61.9581 4.89796 61.5462 4.64188 60.7539 4.15497C59.9825 3.6806 59.5916 3.43508 59.581 3.4183C59.4026 3.53997 59.0301 3.88212 58.4634 4.44459C57.8967 5.01137 57.6133 5.322 57.6133 5.37653L60.1635 7.56781C60.1688 7.57194 60.8745 8.19748 62.2807 9.44418C62.3384 9.47783 62.3883 9.4946 62.4303 9.4946C62.6716 9.17134 63.0416 8.71174 63.5401 8.11562C64.2694 7.25509 65.0251 6.41338 65.8069 5.59064C66.3421 5.02817 67.2184 4.18443 68.4358 3.05937C69.3488 2.21141 69.7896 1.76224 69.7581 1.71182Z" fill="#2DD4BF"/>
<path d="M50.3797 18.2979C51.4909 17.5623 52.5523 17.3376 53.7152 17.5431C55.4364 17.837 56.6777 19.0413 56.7561 20.7814C56.8479 22.8481 56.8077 24.9206 56.8192 26.9911C56.8192 27.527 56.5457 27.794 56.0102 27.7921C55.5282 27.7921 55.0539 27.7921 54.5624 27.7921C53.8357 27.7786 53.6291 27.575 53.6253 26.8317C53.6157 25.0608 53.6253 23.2899 53.6138 21.519C53.6023 20.4568 53.0114 19.919 51.9575 19.9401C50.942 19.9613 50.4161 20.4664 50.395 21.5497C50.3644 23.2284 50.3835 24.9071 50.3797 26.5878C50.3797 27.6538 50.2401 27.794 49.2035 27.7959C47.0997 27.7959 47.1628 27.9764 47.1686 25.7887C47.1781 22.3161 47.1686 18.8415 47.1686 15.3669C47.1686 14.8157 47.0959 14.1031 47.7251 13.9456C48.4235 13.7874 49.149 13.7946 49.8442 13.9667C50.0986 14.0282 50.3223 14.7062 50.351 15.1191C50.4275 16.1294 50.3797 17.1321 50.3797 18.2979Z" fill="white"/>
<path d="M28.8716 20.3532V25.4623C29.4779 25.4623 30.044 25.4757 30.6101 25.4623C31.1361 25.445 31.3426 25.6908 31.3751 26.2037C31.4535 27.7403 31.4172 27.7979 29.8834 27.7979C28.1621 27.7979 26.4408 27.7825 24.7195 27.7979C24.1037 27.7979 23.8092 27.5751 23.8608 26.9489C23.8608 26.8798 23.8608 26.8106 23.8608 26.7415C23.8608 25.4892 23.8608 25.4892 25.1116 25.4565C25.2665 25.4565 25.4214 25.4316 25.6184 25.4143V20.3532C25.0121 20.3532 24.4231 20.334 23.8359 20.3532C23.2966 20.3743 23.113 20.1265 23.0939 19.6118C23.0346 18.008 23.0327 17.9984 24.6392 17.9984H25.6911C25.6911 17.4414 25.6681 16.9631 25.6911 16.4887C25.7657 15.1787 26.5001 14.3644 27.7107 13.9917C29.1258 13.5548 30.639 13.5548 32.0541 13.9917C33.2226 14.3413 33.8346 15.3036 33.7753 16.5136C33.7543 16.8978 33.609 17.0553 33.2322 17.0418C32.8191 17.0303 32.4041 17.0188 31.9929 17.0418C31.4191 17.0783 31.0137 17.0418 30.9658 16.2563C30.9295 15.6455 30.2792 15.6685 29.8049 15.6897C29.3306 15.7108 28.8487 15.803 28.8123 16.4195C28.7836 16.8997 28.8123 17.3799 28.8123 17.9964H31.6199C33.1806 17.9964 33.1672 17.9964 33.1251 19.581C33.1098 20.1342 32.909 20.3666 32.341 20.3493C31.2068 20.3244 30.0823 20.3532 28.8716 20.3532Z" fill="white"/>
<path d="M40.0618 20.3535C40.0618 21.9362 40.037 23.4267 40.0752 24.9152C40.0905 25.5164 40.5457 25.7738 41.3413 25.7719C41.9514 25.7719 42.4448 25.6009 42.5347 24.9056C42.5595 24.5862 42.5671 24.2656 42.5577 23.9453C42.5365 23.7625 42.5501 23.5774 42.5978 23.3998C42.9976 22.5451 43.7855 22.9292 44.4224 22.8774C44.8948 22.8409 45.306 23.0425 45.3232 23.6015C45.3631 24.2416 45.3516 24.8839 45.2888 25.5222C45.2395 26.0197 45.0442 26.4913 44.7275 26.8771C44.4108 27.2629 43.987 27.5454 43.5101 27.6888C42.1768 28.1479 40.7377 28.1994 39.3752 27.8367C37.6061 27.3949 36.8507 26.4 36.8182 24.5714C36.7971 23.4459 36.8182 22.3184 36.8182 21.1929V20.3535C36.21 20.3535 35.6707 20.3401 35.1256 20.3535C34.6666 20.367 34.4409 20.1615 34.4371 19.7063C34.4237 17.9008 34.3262 17.9776 36.0149 18.0007H36.8182C36.8182 17.4417 36.8182 16.925 36.8182 16.4084C36.8354 15.3558 37.1376 15.0504 38.1684 15.0293H38.8569C39.6831 15.0639 40.0044 15.3789 40.0389 16.2201C40.0656 16.7695 40.0695 17.3207 40.0867 17.872C40.0867 17.8873 40.1135 17.9046 40.1938 17.9968H43.4814C44.277 17.9968 44.3975 18.1236 44.4109 18.9168C44.4109 19.1089 44.3975 19.2856 44.4109 19.4681C44.4606 20.1154 44.1891 20.3766 43.5235 20.3535C42.4028 20.3151 41.2801 20.3535 40.0618 20.3535Z" fill="white"/>
<path d="M3.24939 16.4823V19.807H5.44497C6.08758 19.807 6.7321 19.7782 7.37089 19.8243C8.18945 19.8839 8.6542 20.4197 8.62168 21.1688C8.58917 21.9179 8.11486 22.3923 7.26379 22.4C5.95753 22.4135 4.65127 22.4 3.26469 22.4C3.24365 22.6785 3.20922 22.9186 3.20731 23.1683V26.8177C3.19584 27.5591 2.97972 27.7588 2.25105 27.778C1.90871 27.778 1.56254 27.778 1.21828 27.778C0.200816 27.778 0.00191253 27.586 0 26.5814C0 24.3969 0 22.2124 0 20.0279C0 18.4645 0 16.901 0 15.3375C0 14.2658 0.33278 13.9296 1.39423 13.9258H8.3501C9.1438 13.9258 9.30637 14.0987 9.32167 14.9034V15.5258C9.29681 16.2672 9.10938 16.4611 8.3654 16.4631C6.69194 16.488 5.01848 16.4823 3.24939 16.4823Z" fill="white"/>
<path d="M87.9345 25.3651C88.625 23.4443 89.7744 21.683 89.6176 19.5299C89.5943 19.162 89.5988 18.7928 89.6309 18.4255C89.6864 17.7167 90.2047 17.6399 90.7364 17.7244C91.3847 17.8301 92.4577 17.2615 92.5571 18.3467C92.6642 19.6029 92.6642 20.9973 92.2224 22.144C91.0424 25.2037 89.6137 28.1693 88.2558 31.158C87.8944 31.9531 87.0471 32.2009 86.2725 31.834C85.5305 31.4845 85.2685 30.7296 85.651 29.9133C85.9685 29.2315 86.3357 28.5688 86.7067 27.8562C85.8862 27.7237 85.5477 27.1705 85.2704 26.5348C84.8573 25.5879 84.4576 24.6313 83.9794 23.7171C83.1929 22.1738 82.8461 20.4423 82.9773 18.7136C83.0212 17.9261 83.1934 17.7283 83.9584 17.7129H85.0619C85.9034 17.7129 86.1884 17.9338 86.0966 18.7808C85.8403 21.1548 86.8769 23.1678 87.772 25.2287C87.7873 25.2633 87.8351 25.2844 87.9345 25.3651Z" fill="#2DD4BF"/>
<path d="M72.4198 25.4265C72.4198 24.082 72.4198 22.8086 72.4102 21.5256C72.3786 21.3713 72.3005 21.2304 72.1865 21.1222C72.0067 20.9148 71.804 20.7381 71.6127 20.5345C70.4652 19.382 70.4882 18.898 71.7179 17.8724C72.2171 17.4575 72.7315 17.4229 73.202 17.8724C73.548 18.2376 73.8731 18.6224 74.1755 19.0248C75.6634 17.2961 77.4172 17.2078 79.2437 17.7494C80.8674 18.2334 81.7931 20.2156 81.2691 21.8367C81.2527 21.905 81.2249 21.9699 81.1868 22.0288C80.5729 22.7817 79.739 22.4129 79.0046 22.3995C78.3964 22.3995 78.4003 21.8233 78.385 21.3546C78.3467 20.0831 77.4 19.4339 76.3194 19.9755C76.0383 20.1196 75.7055 20.4999 75.694 20.7842C75.6328 22.3207 75.6654 23.8573 75.6654 25.4784C76.2391 25.4784 76.7593 25.4919 77.2776 25.4784C77.7959 25.465 78.0713 25.6705 78.0943 26.2467C78.1593 27.7833 78.1344 27.8236 76.5853 27.8236C74.9125 27.8236 73.2377 27.8236 71.5611 27.8236C70.7387 27.8236 70.6756 27.7487 70.666 26.9055V26.8364C70.666 25.5226 70.666 25.5226 71.9684 25.4919C72.0736 25.4573 72.1865 25.4438 72.4198 25.4265Z" fill="#2DD4BF"/>
<path d="M62.2945 16.4823C61.3382 16.4823 60.4412 16.4631 59.5538 16.4823C58.9055 16.5034 58.6473 16.2153 58.6243 15.5853C58.5689 14.0122 58.6243 13.9316 60.1639 13.9316H68.1507C69.0706 13.9316 69.1796 14.0487 69.1892 14.963V15.5834C69.2178 16.2268 68.9214 16.4996 68.275 16.4803C67.3876 16.4535 66.5001 16.4803 65.5247 16.4803V17.3773V26.5488C65.5247 27.6224 65.3507 27.7896 64.2893 27.7934C62.2945 27.7934 62.2945 27.7934 62.2945 25.7843V16.4823Z" fill="#2DD4BF"/>
<path d="M14.5717 25.4611V20.0581C13.8946 20.0581 13.2329 20.0389 12.5845 20.0581C12.0261 20.0773 11.8195 19.8468 11.8023 19.2898C11.7755 17.709 11.7583 17.709 13.3629 17.709H16.5282C17.5896 17.709 17.779 17.8857 17.779 18.9364V24.591V25.4572C18.5306 25.4572 19.2325 25.4764 19.9306 25.4572C20.5177 25.4361 20.7912 25.6839 20.753 26.2716C20.7501 26.3177 20.7501 26.3638 20.753 26.4099C20.7683 27.7947 20.7683 27.7947 19.4142 27.7967H12.596C11.743 27.7967 11.6876 27.7352 11.678 26.9054C11.6646 25.4649 11.6646 25.4649 13.0856 25.4649L14.5717 25.4611Z" fill="white"/>
<path d="M15.8777 16.7051H15.8088C14.0302 16.7953 14.0053 16.3209 14.2004 14.4982C14.2233 14.2754 14.6537 13.9623 14.9252 13.922C15.5853 13.8605 16.2494 13.8547 16.9104 13.9047C17.3905 13.9239 17.6525 14.2369 17.708 14.6998C17.7367 14.9735 17.7444 15.249 17.7309 15.5238C17.708 16.3843 17.4211 16.6763 16.5643 16.6993C16.3367 16.7051 16.1072 16.7051 15.8777 16.7051Z" fill="white"/>
<path d="M6.8715 0.0839844L4.46627 2.49084L2.06104 0.0839844L0 2.14642L2.40523 4.55328L0 6.96013L2.06104 9.02257L4.46627 6.61571L6.8715 9.02257L8.93254 6.96013L6.52731 4.55328L8.93254 2.14642L6.8715 0.0839844Z" fill="white"/>
<path d="M50.8197 0L48.4145 2.40685L46.0093 0L43.9482 2.06244L46.3535 4.46929L43.9482 6.87614L46.0093 8.93858L48.4145 6.53172L50.8197 8.93858L52.8808 6.87614L50.4755 4.46929L52.8808 2.06244L50.8197 0Z" fill="white"/>
<path d="M21.9731 0L19.5679 2.40685L17.1627 0L15.1016 2.06244L17.5068 4.46929L15.1016 6.87614L17.1627 8.93858L19.5679 6.53173L21.9731 8.93858L24.0342 6.87614L21.6289 4.46929L24.0342 2.06244L21.9731 0Z" fill="white"/>
<path d="M37.1557 0L34.7505 2.40685L32.3452 0L30.2842 2.06244L32.6894 4.46929L30.2842 6.87614L32.3452 8.93858L34.7505 6.53173L37.1557 8.93858L39.2167 6.87614L36.8115 4.46929L39.2167 2.06244L37.1557 0Z" fill="white"/>
</g>
<defs>
<clipPath id="clip0_742_3366">
<rect width="93" height="32" fill="white"/>
</clipPath>
</defs>
</svg>
