<svg width="24" height="25" viewBox="0 0 24 25" fill="none" xmlns="http://www.w3.org/2000/svg">
<path d="M9.11911 0.850322L9.38845 1.94131C8.32691 2.20367 7.31091 2.62432 6.3746 3.18912L5.79842 2.22428C6.82904 1.60015 7.94881 1.13684 9.11911 0.850322ZM14.8809 0.850322L14.6115 1.94131C15.6731 2.20367 16.6891 2.62432 17.6254 3.18912L18.2084 2.22428C17.1751 1.6007 16.0531 1.13745 14.8809 0.850322ZM1.72427 6.29503C1.10072 7.32716 0.637457 8.44795 0.350307 9.61913L1.44129 9.88846C1.70365 8.82693 2.1243 7.81093 2.68911 6.87461L1.72427 6.29503ZM1.12423 12.5C1.12414 11.9545 1.16517 11.4097 1.24696 10.8704L0.135519 10.6999C-0.0451731 11.892 -0.0451731 13.1046 0.135519 14.2967L1.24696 14.1297C1.1653 13.5903 1.12427 13.0455 1.12423 12.5ZM18.2016 22.7723L17.6254 21.8109C16.6906 22.3762 15.6756 22.7969 14.615 23.0587L14.8843 24.1497C16.0532 23.8604 17.1716 23.3961 18.2016 22.7723ZM22.8758 12.5C22.8757 13.0455 22.8347 13.5903 22.753 14.1297L23.8645 14.2967C24.0452 13.1046 24.0452 11.892 23.8645 10.6999L22.753 10.8704C22.8348 11.4097 22.8759 11.9545 22.8758 12.5ZM23.6497 15.3775L22.5587 15.1082C22.297 16.171 21.8763 17.1882 21.3109 18.1254L22.2757 18.705C22.8999 17.672 23.3632 16.5499 23.6497 15.3775ZM13.6297 23.2531C12.5494 23.4167 11.4506 23.4167 10.3703 23.2531L10.2033 24.3645C11.3943 24.5452 12.6057 24.5452 13.7967 24.3645L13.6297 23.2531ZM20.7552 18.9505C20.1072 19.8292 19.3302 20.6051 18.4505 21.2518L19.1187 22.1587C20.0876 21.4454 20.9449 20.5916 21.6621 19.6255L20.7552 18.9505ZM18.4505 3.74485C19.3302 4.39279 20.1072 5.16977 20.7552 6.04955L21.6621 5.37451C20.9474 4.40756 20.0925 3.55263 19.1255 2.83796L18.4505 3.74485ZM3.24483 6.04955C3.89278 5.16977 4.66976 4.39279 5.54954 3.74485L4.87449 2.83796C3.90754 3.55263 3.05262 4.40756 2.33795 5.37451L3.24483 6.04955ZM22.2757 6.29503L21.3109 6.87461C21.8762 7.80945 22.2969 8.8244 22.5587 9.88506L23.6497 9.61572C23.3625 8.44563 22.8992 7.32595 22.2757 6.29503ZM10.3703 1.74698C11.4506 1.58331 12.5494 1.58331 13.6297 1.74698L13.7967 0.635534C12.6057 0.454822 11.3943 0.454822 10.2033 0.635534L10.3703 1.74698ZM3.82101 22.4587L1.49925 22.9974L2.04134 20.6756L0.946941 20.4199L0.404856 22.7417C0.370939 22.8856 0.365734 23.0348 0.389539 23.1808C0.413344 23.3267 0.465692 23.4666 0.543588 23.5923C0.621485 23.718 0.723402 23.8271 0.843508 23.9134C0.963615 23.9997 1.09956 24.0615 1.24355 24.0952C1.41196 24.1327 1.58655 24.1327 1.75495 24.0952L4.07671 23.5599L3.82101 22.4587ZM1.17878 19.4176L2.27658 19.6698L2.65161 18.0606C2.10394 17.142 1.69604 16.1469 1.44129 15.1082L0.350307 15.3775C0.595705 16.3718 0.966907 17.3307 1.45493 18.2311L1.17878 19.4176ZM6.42915 21.8518L4.81994 22.2268L5.07564 23.3246L6.25868 23.0485C7.15838 23.538 8.11751 23.9093 9.11229 24.1531L9.38163 23.0621C8.34612 22.8041 7.35459 22.3939 6.43938 21.845L6.42915 21.8518ZM12 2.74932C6.61325 2.75273 2.25272 7.12009 2.25272 12.5034C2.25568 14.337 2.77433 16.1328 3.74941 17.6856L2.81185 21.6882L6.81099 20.7506C11.3693 23.6178 17.3902 22.2507 20.2574 17.6958C23.1247 13.141 21.7609 7.12009 17.2061 4.24943C15.6467 3.26884 13.842 2.74882 12 2.74932Z" fill="#094367"/>
</svg>
