<svg xmlns="http://www.w3.org/2000/svg" viewBox="0 0 20.458 20.544"><path fill="#A9A9A9
" d="M11.37,20.544v-9.792c-0.043-1.408,0.16-2.73,0.607-3.968c0.448-1.237,1.077-2.325,1.889-3.265 c0.81-0.938,1.781-1.717,2.912-2.336c1.13-0.617,2.356-1.013,3.68-1.184v4.224c-1.622,0.556-2.731,1.376-3.328,2.464 c-0.598,1.089-0.896,2.423-0.896,4h4.224v9.856H11.37z M0.006,20.544v-9.792c-0.043-1.408,0.16-2.73,0.608-3.968 C1.062,5.547,1.691,4.459,2.502,3.52c0.81-0.938,1.781-1.717,2.912-2.336C6.544,0.566,7.771,0.171,9.094,0v4.224 C7.472,4.779,6.363,5.6,5.766,6.688c-0.598,1.089-0.896,2.423-0.896,4h4.224v9.856H0.006z"/></svg>