<svg width="36" height="36" viewBox="0 0 36 36" fill="none" xmlns="http://www.w3.org/2000/svg">
<path d="M17.0967 6V18.1731H29.3351V6H17.0967ZM27.8973 16.7308H18.5483V7.4562H27.8973V16.7308Z" fill="#2DD4BF"/>
<path d="M7 28.2H15.6543L15.6546 19.6025H7.0003L7 28.2ZM8.45098 21.0448H14.2032V26.762H8.45129L8.45098 21.0448Z" fill="#2DD4BF"/>
<path d="M7 18.1732H15.6543L15.6546 9.57568H7.0003L7 18.1732ZM8.45098 11.0138L14.2032 11.0135V16.7306H8.45129L8.45098 11.0138Z" fill="#2DD4BF"/>
<path d="M17.0967 28.2H25.7732V19.6025H17.0967V28.2ZM18.5477 21.0448H24.2998V26.762H18.548L18.5477 21.0448Z" fill="#2DD4BF"/>
<path d="M27.9516 9.26173C27.8781 9.13489 27.5958 8.88426 27.1046 8.50989C26.5708 8.09836 26.246 7.93597 26.1299 8.02261C25.863 8.22372 25.5769 8.45265 25.2713 8.70946C24.9387 8.99104 24.6777 9.22621 24.4881 9.41494C24.1362 9.746 23.819 10.0461 23.5367 10.3153C23.0068 10.8258 22.5698 11.2636 22.2256 11.6287C22.2024 11.6101 21.8988 11.4214 21.3148 11.0625C20.7462 10.7129 20.4581 10.5319 20.4503 10.5195C20.3188 10.6092 20.0442 10.8614 19.6266 11.276C19.2089 11.6937 19 11.9227 19 11.9629L20.8796 13.578C20.8835 13.581 21.4037 14.0421 22.4402 14.961C22.4827 14.9858 22.5195 14.9982 22.5505 14.9982C22.7283 14.7599 23.001 14.4211 23.3684 13.9818C23.906 13.3475 24.463 12.7271 25.0392 12.1207C25.4337 11.7061 26.0796 11.0842 26.9769 10.255C27.6499 9.62995 27.9748 9.2989 27.9515 9.26173L27.9516 9.26173Z" fill="#FDEC6C"/>
</svg>
