<svg width="282" height="90" viewBox="0 0 282 90" fill="none" xmlns="http://www.w3.org/2000/svg">
<path d="M39.1791 25.2213V38.3034H0.423261V25.2213H39.1791ZM9.2946 88.0156V20.6834C9.2946 16.1319 10.1804 12.3572 11.9519 9.35917C13.7507 6.36118 16.2036 4.11269 19.3106 2.61369C22.4176 1.11469 25.9471 0.365193 29.899 0.365193C32.5699 0.365193 35.0092 0.569604 37.2168 0.978424C39.4517 1.38724 41.1142 1.75518 42.2044 2.08223L39.0974 15.1644C38.416 14.9463 37.5711 14.7419 36.5627 14.5512C35.5815 14.3604 34.5731 14.265 33.5375 14.265C30.9755 14.265 29.1904 14.8646 28.182 16.0638C27.1735 17.2357 26.6693 18.8846 26.6693 21.0105V88.0156H9.2946ZM65.4763 89.2012C61.4699 89.2012 57.8996 88.5062 54.7653 87.1162C51.631 85.699 49.1509 83.614 47.3248 80.8613C45.526 78.0814 44.6266 74.62 44.6266 70.4774C44.6266 66.9888 45.2671 64.0589 46.5481 61.6878C47.829 59.3167 49.5733 57.4088 51.7809 55.9643C53.9885 54.5199 56.496 53.4297 59.3032 52.6938C62.1376 51.9579 65.1084 51.4401 68.2154 51.1403C71.8675 50.7587 74.811 50.4044 77.0458 50.0774C79.2807 49.7231 80.9024 49.2052 81.9108 48.5239C82.9192 47.8425 83.4234 46.8341 83.4234 45.4986V45.2533C83.4234 42.6642 82.6058 40.661 80.9705 39.2437C79.3625 37.8265 77.0731 37.1179 74.1024 37.1179C70.9681 37.1179 68.4743 37.8129 66.621 39.2028C64.7677 40.5656 63.5412 42.2826 62.9416 44.3539L46.8342 43.0457C47.6519 39.2301 49.2599 35.9323 51.6583 33.1523C54.0567 30.3451 57.1501 28.192 60.9384 26.693C64.7541 25.1668 69.1693 24.4037 74.1841 24.4037C77.6727 24.4037 81.0114 24.8125 84.2001 25.6301C87.4162 26.4477 90.2643 27.7151 92.7444 29.4321C95.2518 31.1491 97.2278 33.3568 98.6723 36.0549C100.117 38.7259 100.839 41.9283 100.839 45.6622V88.0156H84.3228V79.3078H83.8322C82.8238 81.2701 81.4747 83.0008 79.7849 84.4998C78.0951 85.9715 76.0647 87.1299 73.6935 87.9747C71.3224 88.7924 68.5833 89.2012 65.4763 89.2012ZM70.4639 77.182C73.0258 77.182 75.2879 76.6778 77.2502 75.6693C79.2126 74.6337 80.7525 73.2437 81.8699 71.4994C82.9873 69.7551 83.546 67.7792 83.546 65.5716V58.9078C83.0009 59.2621 82.2514 59.5892 81.2975 59.889C80.3709 60.1615 79.3216 60.4205 78.1496 60.6657C76.9777 60.8838 75.8058 61.0882 74.6338 61.279C73.4619 61.4425 72.399 61.5924 71.445 61.7287C69.401 62.0285 67.6158 62.5054 66.0895 63.1595C64.5633 63.8136 63.3777 64.6994 62.5328 65.8168C61.6879 66.907 61.2655 68.2697 61.2655 69.905C61.2655 72.2762 62.124 74.0886 63.841 75.3423C65.5853 76.5687 67.7929 77.182 70.4639 77.182ZM166.597 43.1275L150.653 44.1086C150.381 42.7459 149.795 41.5195 148.895 40.4293C147.996 39.3119 146.811 38.4261 145.339 37.772C143.894 37.0906 142.164 36.7499 140.147 36.7499C137.449 36.7499 135.173 37.3223 133.32 38.467C131.466 39.5844 130.54 41.0834 130.54 42.964C130.54 44.463 131.139 45.7303 132.338 46.766C133.538 47.8016 135.595 48.6329 138.512 49.2597L149.877 51.5491C155.982 52.8028 160.533 54.8197 163.531 57.5996C166.529 60.3796 168.028 64.0317 168.028 68.5559C168.028 72.6713 166.815 76.2826 164.39 79.3896C161.991 82.4966 158.693 84.9222 154.496 86.6665C150.326 88.3836 145.516 89.2421 140.065 89.2421C131.752 89.2421 125.13 87.5114 120.197 84.0501C115.291 80.5615 112.415 75.8192 111.57 69.8233L128.7 68.9239C129.218 71.4585 130.471 73.3936 132.461 74.7291C134.451 76.0373 136.999 76.6914 140.106 76.6914C143.158 76.6914 145.611 76.1054 147.465 74.9335C149.345 73.7343 150.299 72.1944 150.326 70.3138C150.299 68.7331 149.631 67.4385 148.323 66.4301C147.015 65.3944 144.998 64.604 142.273 64.0589L131.398 61.8922C125.266 60.6657 120.701 58.5399 117.703 55.5147C114.732 52.4894 113.247 48.6329 113.247 43.9451C113.247 39.9115 114.337 36.4365 116.517 33.5203C118.725 30.6041 121.818 28.3556 125.797 26.7748C129.804 25.194 134.491 24.4037 139.861 24.4037C147.792 24.4037 154.033 26.0798 158.584 29.4321C163.163 32.7844 165.834 37.3495 166.597 43.1275ZM212.395 25.2213V38.3034H174.579V25.2213H212.395ZM183.165 10.1768H200.58V68.7194C200.58 70.3275 200.825 71.5812 201.316 72.4806C201.807 73.3527 202.488 73.9659 203.36 74.3202C204.26 74.6746 205.295 74.8517 206.467 74.8517C207.285 74.8517 208.102 74.7836 208.92 74.6473C209.738 74.4838 210.365 74.3611 210.801 74.2794L213.54 87.2389C212.668 87.5114 211.441 87.8248 209.86 88.1792C208.28 88.5607 206.358 88.7924 204.096 88.8741C199.899 89.0377 196.219 88.479 193.058 87.198C189.924 85.917 187.484 83.9275 185.74 81.2293C183.996 78.5311 183.137 75.1243 183.165 71.0088V10.1768ZM241.155 51.7127V88.0156H223.74V25.2213H240.338V36.3002H241.074C242.464 32.6481 244.794 29.7592 248.064 27.6333C251.335 25.4802 255.3 24.4037 259.961 24.4037C264.322 24.4037 268.124 25.3576 271.367 27.2654C274.61 29.1732 277.131 31.8986 278.93 35.4417C280.729 38.9575 281.628 43.1547 281.628 48.0333V88.0156H264.213V51.1403C264.24 47.2974 263.259 44.2994 261.269 42.1463C259.28 39.966 256.54 38.8758 253.052 38.8758C250.708 38.8758 248.637 39.38 246.838 40.3884C245.066 41.3968 243.676 42.8686 242.668 44.8036C241.687 46.7115 241.183 49.0145 241.155 51.7127Z" fill="#EF8435"/>
</svg>
