<svg width="36" height="36" viewBox="0 0 36 36" fill="none" xmlns="http://www.w3.org/2000/svg">
<path d="M22.5388 16.2383C22.4654 16.1115 22.183 15.8608 21.6919 15.4865C21.1581 15.0749 20.8332 14.9125 20.7172 14.9992C20.4503 15.2003 20.1641 15.4292 19.8586 15.686C19.526 15.9676 19.2649 16.2028 19.0754 16.3915C18.7234 16.7226 18.4063 17.0227 18.124 17.2919C17.5941 17.8023 17.1571 18.2402 16.8129 18.6053C16.7897 18.5867 16.4861 18.3979 15.9021 18.0391C15.3335 17.6894 15.0454 17.5084 15.0376 17.4961C14.9061 17.5858 14.6315 17.8379 14.2138 18.2525C13.7962 18.6703 13.5873 18.8992 13.5873 18.9394L15.4669 20.5545C15.4708 20.5576 15.991 21.0187 17.0275 21.9376C17.07 21.9624 17.1068 21.9747 17.1377 21.9747C17.3156 21.7365 17.5883 21.3977 17.9557 20.9583C18.4933 20.3241 19.0503 19.7037 19.6265 19.0972C20.021 18.6827 20.6669 18.0608 21.5642 17.2315C22.2372 16.6065 22.562 16.2755 22.5388 16.2383L22.5388 16.2383Z" fill="#74C449"/>
<path d="M10.0995 9.84138L8.58039 11.3615L6.80757 9.58752L5.03476 11.3615L3.51562 9.84138L5.28844 8.06737L3.51562 6.29335L5.03476 4.77319L6.80757 6.54721L8.58039 4.77319L10.0995 6.29335L8.3267 8.06737L10.0995 9.84138Z" fill="#CCFBF1" fill-opacity="0.4"/>
<path d="M8.5804 4.77319L6.80758 6.54721L5.03476 4.77319L3.51562 6.29335L5.28845 8.06736L3.51562 9.84138L5.03476 11.3615L6.80758 9.58752L8.5804 11.3615L10.0995 9.84138L8.32671 8.06736L10.0995 6.29335L8.5804 4.77319Z" fill="white"/>
<path d="M10.0995 20.0448L8.58039 21.5649L6.80758 19.7909L5.03476 21.5649L3.51562 20.0448L5.28844 18.2707L3.51562 16.4967L5.03476 14.9766L6.80758 16.7506L8.58039 14.9766L10.0995 16.4967L8.32671 18.2707L10.0995 20.0448Z" fill="#CCFBF1" fill-opacity="0.4"/>
<path d="M8.58039 14.9766L6.80757 16.7506L5.03476 14.9766L3.51562 16.4967L5.28844 18.2707L3.51562 20.0447L5.03476 21.5649L6.80757 19.7909L8.58039 21.5649L10.0995 20.0447L8.32671 18.2707L10.0995 16.4967L8.58039 14.9766Z" fill="white"/>
<path d="M21.2301 9.77914L19.711 11.2993L17.9382 9.52528L16.1654 11.2993L14.6462 9.77914L16.4191 8.00512L14.6462 6.2311L16.1654 4.71094L17.9382 6.48496L19.711 4.71094L21.2301 6.2311L19.4573 8.00512L21.2301 9.77914Z" fill="#CCFBF1" fill-opacity="0.4"/>
<path d="M19.711 4.71094L17.9382 6.48495L16.1654 4.71094L14.6462 6.23109L16.4191 8.00511L14.6462 9.77913L16.1654 11.2993L17.9382 9.52527L19.711 11.2993L21.2301 9.77913L19.4573 8.00511L21.2301 6.23109L19.711 4.71094Z" fill="white"/>
<path d="M32.4211 9.77914L30.9019 11.2993L29.1291 9.52528L27.3563 11.2993L25.8372 9.77914L27.61 8.00512L25.8372 6.2311L27.3563 4.71094L29.1291 6.48496L30.9019 4.71094L32.4211 6.2311L30.6482 8.00512L32.4211 9.77914Z" fill="#CCFBF1" fill-opacity="0.4"/>
<path d="M30.9019 4.71094L29.1291 6.48495L27.3563 4.71094L25.8372 6.23109L27.61 8.00511L25.8372 9.77913L27.3563 11.2993L29.1291 9.52527L30.9019 11.2993L32.421 9.77913L30.6482 8.00511L32.421 6.23109L30.9019 4.71094Z" fill="white"/>
<path d="M4.07812 31.5703V24.9609H8.72693V26.4067H5.87308V27.5427H8.44284V28.9885H5.87308V31.5703H4.07812Z" fill="#74C449"/>
<path d="M14.3995 26.4067V24.9609H20.146V26.4067H18.1573V31.5703H16.3882V26.4067H14.3995Z" fill="#74C449"/>
<path d="M28.9102 31.5703H26.3663V24.9609H28.8844C29.5645 24.9609 30.1521 25.0933 30.6471 25.3579C31.1442 25.6204 31.5273 25.999 31.7964 26.4939C32.0675 26.9866 32.2031 27.5771 32.2031 28.2656C32.2031 28.9541 32.0686 29.5458 31.7996 30.0406C31.5306 30.5333 31.1496 30.912 30.6567 31.1766C30.1639 31.4391 29.5817 31.5703 28.9102 31.5703ZM28.1612 30.0471H28.8457C29.1728 30.0471 29.4515 29.9943 29.6818 29.8889C29.9142 29.7835 30.0907 29.6017 30.2112 29.3435C30.3339 29.0853 30.3953 28.726 30.3953 28.2656C30.3953 27.8052 30.3328 27.4459 30.208 27.1877C30.0853 26.9295 29.9045 26.7477 29.6656 26.6423C29.4289 26.5369 29.1384 26.4842 28.794 26.4842H28.1612V30.0471Z" fill="#74C449"/>
</svg>
