<svg width="1051" height="601" viewBox="0 0 1051 601" fill="none" xmlns="http://www.w3.org/2000/svg">
<g clip-path="url(#clip0_1354_3454)">
<rect x="1050.15" y="722.109" width="1050" height="722" rx="35" transform="rotate(-180 1050.15 722.109)" fill="white"/>
<path d="M816.786 601.807L1050.15 601.807L1050.15 361.11L816.786 361.11L816.786 601.807Z" fill="#1A1C3D"/>
<path d="M1050.15 480.437C1050.15 546.411 997.911 599.854 933.511 599.854C869.111 599.853 816.786 546.411 816.786 480.437C816.786 414.462 869.023 361.11 933.511 361.11C997.998 361.11 1050.15 414.552 1050.15 480.437Z" fill="#FFFEFC"/>
<path d="M991.832 480.482C991.832 512.359 965.757 538.259 933.47 538.259C901.182 538.259 875.107 512.446 875.107 480.482C875.107 448.519 901.182 422.706 933.47 422.706C965.757 422.706 991.832 448.606 991.832 480.482Z" fill="#FFBA1A"/>
<path d="M700.148 601.807L816.785 601.807L816.785 481.503L700.148 481.503L700.148 601.807Z" fill="#3A5485"/>
<path d="M816.785 541.61C816.785 574.822 790.71 601.807 758.423 601.807C726.135 601.807 700.148 574.822 700.148 541.61C700.148 508.398 726.223 481.413 758.51 481.413C790.798 481.413 816.785 508.398 816.785 541.61Z" fill="#1A1C3D"/>
<path d="M583.511 601.807L700.148 601.807L700.148 481.503L583.511 481.503L583.511 601.807Z" fill="#1A1C3D"/>
<path d="M700.148 481.413C700.148 547.837 647.911 601.716 583.511 601.716L583.511 481.413L700.148 481.413Z" fill="#FFFEFC"/>
<path d="M466.874 601.807L583.512 601.807L583.512 481.503L466.874 481.503L466.874 601.807Z" fill="#3A5485"/>
<path d="M583.512 541.61C583.512 574.822 557.437 601.807 525.149 601.807C492.862 601.807 466.787 574.912 466.787 541.61C466.787 508.308 492.862 481.413 525.149 481.413C557.437 481.413 583.512 508.398 583.512 541.61Z" fill="#1A1C3D"/>
<path d="M350.148 601.807L466.785 601.807L466.785 481.503L350.148 481.503L350.148 601.807Z" fill="#FFFEFC"/>
<path d="M350.148 601.807C350.148 535.383 402.385 481.503 466.785 481.503L466.785 601.807L350.148 601.807Z" fill="#FFBA1A"/>
<path d="M700.148 481.412L816.785 481.412L816.785 361.109L700.148 361.109L700.148 481.412Z" fill="#3FB8D2"/>
<path d="M583.511 481.412L700.148 481.412L700.148 361.109L583.511 361.109L583.511 481.412Z" fill="#3A5485"/>
<path d="M583.511 361.109C647.911 361.109 700.148 414.988 700.148 481.412L583.511 481.412L583.511 361.109Z" fill="#3FB8D2"/>
<path d="M466.874 481.412L583.512 481.412L583.512 361.109L466.874 361.109L466.874 481.412Z" fill="#FFBA1A"/>
<path d="M583.512 481.412C519.112 481.412 466.874 427.533 466.874 361.109L583.512 361.109L583.512 481.412Z" fill="#3FB8D2"/>
<path d="M233.423 481.412L466.785 481.412L466.785 240.715L233.423 240.715L233.423 481.412Z" fill="#3FB8D2"/>
<path d="M466.785 361.109C337.898 361.109 233.423 307.21 233.423 240.716L466.785 240.716L466.785 361.109Z" fill="#1A1C3D"/>
<path d="M933.511 361.109L1050.15 361.109L1050.15 240.806L933.511 240.806L933.511 361.109Z" fill="#3A5485"/>
<path d="M1050.15 300.913C1050.15 334.215 1024.07 361.109 991.786 361.109C959.498 361.109 933.423 334.215 933.423 300.913C933.423 267.61 959.498 240.716 991.786 240.716C1024.07 240.716 1050.15 267.701 1050.15 300.913Z" fill="#FFFEFC"/>
<path d="M1021.01 300.913C1021.01 317.519 1007.97 330.966 991.874 330.966C975.774 330.966 962.737 317.519 962.737 300.913C962.737 284.307 975.687 270.859 991.787 270.859C1007.89 270.859 1021.01 284.307 1021.01 300.913Z" fill="#3A5485"/>
<path d="M816.874 361.109L933.512 361.109L933.512 240.806L816.874 240.806L816.874 361.109Z" fill="#FFBA1A"/>
<path d="M816.788 361.109C816.788 294.685 869.026 240.806 933.426 240.806L933.426 361.109L816.788 361.109Z" fill="#1A1C3D"/>
<path d="M700.148 361.109L816.785 361.109L816.785 240.806L700.148 240.806L700.148 361.109Z" fill="#3A5485"/>
<path d="M816.785 300.913C816.785 334.125 790.71 361.109 758.423 361.109C726.135 361.109 700.06 334.215 700.06 300.913C700.06 267.61 726.135 240.716 758.423 240.716C790.71 240.716 816.785 267.701 816.785 300.913Z" fill="#FFBA1A"/>
<path d="M583.511 361.109L700.148 361.109L700.148 240.806L583.511 240.806L583.511 361.109Z" fill="#FFFEFC"/>
<path d="M671.012 300.913C671.012 317.519 657.974 330.966 641.874 330.966C625.774 330.966 612.737 317.519 612.737 300.913C612.737 284.307 625.687 270.859 641.787 270.859C657.887 270.859 671.012 284.307 671.012 300.913Z" fill="#3A5485"/>
<path d="M466.874 361.109L583.512 361.109L583.512 240.806L466.874 240.806L466.874 361.109Z" fill="#1A1C3D"/>
<path d="M466.788 240.806C531.188 240.806 583.426 294.685 583.426 361.109L466.788 361.109L466.788 240.806Z" fill="#FFFEFC"/>
<path d="M787.648 421.306C787.648 437.912 774.611 451.359 758.511 451.359C742.411 451.359 729.373 437.912 729.373 421.306C729.373 404.7 742.411 391.253 758.511 391.253C774.611 391.253 787.648 404.7 787.648 421.306Z" fill="#3A5485"/>
<path d="M933.511 240.807L1050.15 240.807L1050.15 120.503L933.511 120.503L933.511 240.807Z" fill="#3A5485"/>
<path d="M1050.15 180.61C1050.15 213.822 1024.07 240.807 991.786 240.807C959.498 240.807 933.423 213.912 933.423 180.61C933.423 147.308 959.498 120.413 991.786 120.413C1024.07 120.413 1050.15 147.398 1050.15 180.61Z" fill="#FFBA1A"/>
<path d="M1021.01 180.609C1021.01 197.215 1007.97 210.662 991.874 210.662C975.774 210.662 962.649 197.215 962.649 180.609C962.649 164.003 975.687 150.556 991.787 150.556C1007.89 150.556 1021.01 164.003 1021.01 180.609Z" fill="#3A5485"/>
<path d="M583.511 240.807L700.148 240.807L700.148 120.503L583.511 120.503L583.511 240.807Z" fill="#1A1C3D"/>
<path d="M583.511 120.413C647.911 120.413 700.148 174.292 700.148 240.807L583.511 240.807L583.511 120.413Z" fill="#FFFEFC"/>
<path d="M466.874 240.807L583.512 240.807L583.512 120.503L466.874 120.503L466.874 240.807Z" fill="#FFFEFC"/>
<path d="M466.788 120.413C531.188 120.413 583.426 174.292 583.426 240.716L466.788 240.716L466.788 120.413Z" fill="#FFBA1A"/>
<path d="M350.148 240.807L466.785 240.807L466.785 120.503L350.148 120.503L350.148 240.807Z" fill="#FFFEFC"/>
<path d="M466.785 240.807C402.385 240.807 350.148 186.927 350.148 120.503L466.785 120.503L466.785 240.807Z" fill="#FFBA1A"/>
<path d="M933.511 120.412L1050.15 120.412L1050.15 0.108887L933.511 0.108877L933.511 120.412Z" fill="#1A1C3D"/>
<path d="M933.511 120.412C933.511 53.9881 985.748 0.108881 1050.15 0.108887L1050.15 120.412L933.511 120.412Z" fill="#3FB8D2"/>
<path d="M700.149 240.807L933.512 240.807L933.512 0.109909L700.149 0.109889L700.149 240.807Z" fill="#3FB8D2"/>
<path d="M875.148 120.413C875.148 153.625 849.073 180.609 816.786 180.609C784.498 180.609 758.423 153.715 758.423 120.413C758.423 87.1104 784.498 60.2159 816.786 60.2159C849.073 60.2159 875.148 87.2006 875.148 120.413Z" fill="#FFFEFC"/>
<path d="M583.511 120.412L700.148 120.412L700.148 0.108887L583.511 0.108877L583.511 120.412Z" fill="#1A1C3D"/>
<path d="M700.148 120.412C635.748 120.412 583.511 66.5329 583.511 0.108877L700.148 0.108887L700.148 120.412Z" fill="#FFFEFC"/>
<path d="M466.874 120.412L583.512 120.412L583.512 0.108887L466.874 0.108877L466.874 120.412Z" fill="#3A5485"/>
<path d="M466.788 120.412C466.788 53.9881 519.026 0.108881 583.426 0.108887L583.426 120.412L466.788 120.412Z" fill="#1A1C3D"/>
<path d="M350.148 120.412L466.785 120.412L466.785 0.108887L350.148 0.108877L350.148 120.412Z" fill="#3A5485"/>
<path d="M466.785 0.108887C466.785 66.5329 414.548 120.412 350.148 120.412L350.148 0.108877L466.785 0.108887Z" fill="#3FB8D2"/>
<path d="M0.147598 120.412L116.785 120.412L116.785 0.108887L0.147609 0.108877L0.147598 120.412Z" fill="#1A1C3D"/>
<path d="M0.146062 60.3062C0.146065 27.0942 26.221 0.10942 58.5085 0.109423C90.796 0.109426 116.871 27.0039 116.871 60.3062C116.871 93.5182 90.796 120.503 58.5085 120.503C26.221 120.503 0.146059 93.5182 0.146062 60.3062Z" fill="#FFBA1A"/>
<path d="M29.2836 60.3061C29.2836 43.7001 42.3211 30.2529 58.4211 30.2529C74.5211 30.2529 87.5586 43.7001 87.5586 60.3061C87.5586 76.9121 74.521 90.3594 58.421 90.3594C42.4085 90.3594 29.2836 76.9121 29.2836 60.3061Z" fill="#1A1C3D"/>
<path d="M116.874 120.412L233.512 120.412L233.512 0.108887L116.874 0.108877L116.874 120.412Z" fill="#FFBA1A"/>
<path d="M233.512 0.108887C233.512 66.5329 181.274 120.412 116.874 120.412L116.874 0.108877L233.512 0.108887Z" fill="#1A1C3D"/>
<path d="M233.511 120.412L350.148 120.412L350.148 0.108887L233.511 0.108877L233.511 120.412Z" fill="#1A1C3D"/>
<path d="M233.511 120.412C233.511 53.9881 285.748 0.108881 350.148 0.108887L350.148 120.412L233.511 120.412Z" fill="#3FB8D2"/>
<path d="M0.147598 240.807L116.785 240.807L116.785 120.503L0.147609 120.503L0.147598 240.807Z" fill="#1A1C3D"/>
<path d="M0.147598 240.807C0.147604 174.383 52.3852 120.503 116.785 120.503L116.785 240.807L0.147598 240.807Z" fill="#3FB8D2"/>
<path d="M116.874 240.807L233.512 240.807L233.512 120.503L116.874 120.503L116.874 240.807Z" fill="#3A5485"/>
<path d="M116.787 180.61C116.787 147.398 142.862 120.413 175.149 120.413C207.437 120.413 233.512 147.308 233.512 180.61C233.512 213.912 207.437 240.807 175.149 240.807C142.862 240.807 116.787 213.822 116.787 180.61Z" fill="#1A1C3D"/>
<path d="M233.511 240.807L350.148 240.807L350.148 120.503L233.511 120.503L233.511 240.807Z" fill="#FFFEFC"/>
<path d="M350.148 120.413C350.148 186.837 297.911 240.716 233.511 240.716L233.511 120.413L350.148 120.413Z" fill="#FFBA1A"/>
<path d="M0.147598 361.109L116.785 361.109L116.785 240.806L0.147609 240.806L0.147598 361.109Z" fill="#3A5485"/>
<path d="M0.147598 361.109C0.147604 294.685 52.3852 240.806 116.785 240.806L116.785 361.109L0.147598 361.109Z" fill="#1A1C3D"/>
<path d="M116.874 361.109L233.512 361.109L233.512 240.806L116.874 240.806L116.874 361.109Z" fill="#FFBA1A"/>
<path d="M116.788 240.806C181.188 240.806 233.426 294.685 233.426 361.109L116.788 361.109L116.788 240.806Z" fill="#3FB8D2"/>
<path d="M0.147598 481.412L116.785 481.412L116.785 361.109L0.147609 361.109L0.147598 481.412Z" fill="#FFFEFC"/>
<path d="M29.2836 421.306C29.2836 404.7 42.3211 391.253 58.4211 391.253C74.5211 391.253 87.5586 404.7 87.5586 421.306C87.5586 437.912 74.521 451.359 58.421 451.359C42.4085 451.359 29.2836 437.912 29.2836 421.306Z" fill="#3FB8D2"/>
<path d="M116.874 481.412L233.512 481.412L233.512 361.109L116.874 361.109L116.874 481.412Z" fill="#1A1C3D"/>
<path d="M233.512 481.412C169.112 481.412 116.874 427.533 116.874 361.109L233.512 361.109L233.512 481.412Z" fill="#FFFEFC"/>
<path d="M233.511 601.807L350.148 601.807L350.148 481.503L233.511 481.503L233.511 601.807Z" fill="#FFFEFC"/>
<path d="M233.511 481.413C297.911 481.413 350.148 535.292 350.148 601.807L233.511 601.807L233.511 481.413Z" fill="#FFBA1A"/>
<path d="M0.14917 722.109L233.512 722.109L233.512 481.413L0.149191 481.413L0.14917 722.109Z" fill="#3FB8D2"/>
<path d="M0.149191 481.413C129.037 481.413 233.512 589.171 233.512 722.109L0.14917 722.109L0.149191 481.413Z" fill="#FFFEFC"/>
</g>
<defs>
<clipPath id="clip0_1354_3454">
<rect x="1050.15" y="722.109" width="1050" height="722" rx="35" transform="rotate(-180 1050.15 722.109)" fill="white"/>
</clipPath>
</defs>
</svg>
