<svg width="27" height="21" viewBox="0 0 27 21" fill="none" xmlns="http://www.w3.org/2000/svg">
<path d="M25.8689 7.78392C25.7843 7.73681 25.6885 7.71336 25.5917 7.71603C25.4949 7.71869 25.4005 7.74739 25.3186 7.79909L15.7311 14.4681C14.9557 14.9495 14.0611 15.2046 13.1484 15.2046C12.2357 15.2046 11.3412 14.9495 10.5658 14.4681L0.978272 7.79909C0.896259 7.74756 0.801929 7.71897 0.70511 7.71629C0.608291 7.7136 0.512523 7.73693 0.427782 7.78383C0.343042 7.83074 0.272429 7.89951 0.223298 7.98298C0.174167 8.06645 0.148316 8.16157 0.148438 8.25842V17.4429C0.148438 18.3049 0.490847 19.1315 1.10034 19.741C1.70983 20.3505 2.53648 20.6929 3.39844 20.6929H22.8984C23.7604 20.6929 24.587 20.3505 25.1965 19.741C25.806 19.1315 26.1484 18.3049 26.1484 17.4429V8.25842C26.1488 8.16152 26.123 8.06632 26.0738 7.98282C26.0246 7.89933 25.9538 7.83062 25.8689 7.78392Z" fill="#FFBA1A"/>
<path d="M26.1484 3.35937C26.1484 2.49742 25.806 1.67077 25.1965 1.06128C24.587 0.451784 23.7604 0.109375 22.8984 0.109375H3.39844C2.53648 0.109375 1.70983 0.451784 1.10034 1.06128C0.490847 1.67077 0.148438 2.49742 0.148438 3.35937C0.148397 3.3867 0.155343 3.41359 0.168615 3.43748C0.181887 3.46137 0.201045 3.48147 0.224271 3.49587L12.2818 11.7119C12.54 11.8724 12.8379 11.9574 13.1419 11.9574C13.446 11.9574 13.7439 11.8724 14.0021 11.7119L26.0661 3.49587C26.0904 3.48211 26.1107 3.46232 26.1252 3.43841C26.1396 3.41451 26.1476 3.38728 26.1484 3.35937Z" fill="#FFBA1A"/>
</svg>
