<svg width="17" height="24" viewBox="0 0 17 24" fill="none" xmlns="http://www.w3.org/2000/svg">
<path d="M8.14844 0.734375C3.66293 0.734375 0.0234375 4.01027 0.0234375 8.04688C0.0234375 14.5469 8.14844 23.4844 8.14844 23.4844C8.14844 23.4844 16.2734 14.5469 16.2734 8.04688C16.2734 4.01027 12.6339 0.734375 8.14844 0.734375ZM8.14844 12.1094C7.50565 12.1094 6.87729 11.9188 6.34283 11.5617C5.80837 11.2045 5.39181 10.697 5.14583 10.1031C4.89984 9.50924 4.83548 8.85577 4.96089 8.22533C5.08629 7.59489 5.39582 7.0158 5.85034 6.56128C6.30486 6.10676 6.88396 5.79722 7.51439 5.67182C8.14483 5.54642 8.7983 5.61078 9.39216 5.85677C9.98602 6.10275 10.4936 6.51931 10.8507 7.05377C11.2078 7.58823 11.3984 8.21659 11.3984 8.85938C11.3975 9.72104 11.0548 10.5471 10.4455 11.1564C9.83621 11.7657 9.0101 12.1084 8.14844 12.1094Z" fill="#FFBA1A"/>
</svg>
