<svg width="27" height="27" viewBox="0 0 27 27" fill="none" xmlns="http://www.w3.org/2000/svg">
<g clip-path="url(#clip0_1353_3312)">
<path d="M25.7102 18.7516L22.9382 15.9785C22.643 15.6828 22.2925 15.4482 21.9065 15.2881C21.5206 15.128 21.1069 15.0457 20.6891 15.0457C20.2713 15.0457 19.8576 15.128 19.4717 15.2881C19.0857 15.4482 18.7352 15.6828 18.44 15.9785L17.8747 16.5437C15.0889 14.2095 12.5157 11.6329 10.1852 8.84396L10.7504 8.27872C11.3456 7.68176 11.6799 6.87317 11.6799 6.03018C11.6799 5.18719 11.3456 4.37859 10.7504 3.78164L7.9728 1.01194C7.36641 0.432639 6.56006 0.109375 5.72143 0.109375C4.8828 0.109375 4.07645 0.432639 3.47006 1.01194L1.95521 2.53358C1.22727 3.26676 0.77376 4.22808 0.670833 5.25611C0.567906 6.28415 0.821829 7.31629 1.38996 8.17924C5.90637 14.9846 11.7384 20.8178 18.5429 25.3355C19.4088 25.8985 20.4408 26.1492 21.4684 26.0465C22.4961 25.9437 23.458 25.4935 24.1953 24.7703L25.7158 23.2486C26.0114 22.9537 26.246 22.6033 26.406 22.2175C26.5661 21.8318 26.6484 21.4183 26.6484 21.0007C26.6484 20.583 26.5661 20.1695 26.406 19.7838C26.246 19.398 26.0114 19.0477 25.7158 18.7527L25.7102 18.7516Z" fill="#FFBA1A"/>
</g>
<defs>
<clipPath id="clip0_1353_3312">
<rect width="26" height="26" fill="white" transform="translate(0.648438 0.109375)"/>
</clipPath>
</defs>
</svg>
