<svg width="1318" height="816" viewBox="0 0 1318 816" fill="none" xmlns="http://www.w3.org/2000/svg">
    <g clip-path="url(#clip0_2_144)">
        <rect width="1318" height="816" fill="white"/>
        <g opacity="0.2">
            <path d="M219.653 330.251V386.685H52.4673V330.251H219.653ZM90.7366 601.134V310.676C90.7366 291.042 94.5576 274.758 102.2 261.825C109.959 248.892 120.541 239.193 133.944 232.726C147.347 226.26 162.572 223.027 179.62 223.027C191.142 223.027 201.665 223.909 211.188 225.672C220.829 227.436 228 229.023 232.703 230.434L219.3 286.868C216.361 285.927 212.716 285.045 208.366 284.222C204.133 283.399 199.783 282.988 195.316 282.988C184.264 282.988 176.563 285.574 172.213 290.748C167.863 295.803 165.688 302.916 165.688 312.087V601.134H90.7366Z" fill="#EF8435" fill-opacity="0.62"/>
            <path d="M333.094 606.249C315.811 606.249 300.409 603.251 286.889 597.254C273.368 591.141 262.669 582.147 254.792 570.272C247.032 558.28 243.152 543.348 243.152 525.478C243.152 510.428 245.915 497.79 251.441 487.561C256.967 477.332 264.491 469.102 274.015 462.871C283.538 456.64 294.354 451.937 306.464 448.763C318.691 445.588 331.507 443.354 344.91 442.061C360.664 440.415 373.362 438.887 383.003 437.476C392.643 435.947 399.639 433.714 403.989 430.774C408.339 427.835 410.514 423.485 410.514 417.724V416.666C410.514 405.497 406.987 396.855 399.933 390.741C392.996 384.628 383.12 381.571 370.305 381.571C356.784 381.571 346.027 384.569 338.032 390.565C330.037 396.444 324.746 403.851 322.16 412.786L252.676 407.143C256.203 390.683 263.139 376.457 273.486 364.464C283.832 352.355 297.176 343.067 313.518 336.6C329.978 330.016 349.025 326.724 370.658 326.724C385.707 326.724 400.109 328.488 413.865 332.015C427.738 335.542 440.024 341.009 450.723 348.416C461.54 355.823 470.064 365.346 476.295 376.986C482.526 388.508 485.642 402.322 485.642 418.429V601.134H414.394V563.57H412.278C407.928 572.036 402.108 579.501 394.818 585.968C387.529 592.316 378.77 597.313 368.541 600.958C358.313 604.485 346.497 606.249 333.094 606.249ZM354.609 554.4C365.661 554.4 375.419 552.225 383.884 547.875C392.349 543.407 398.992 537.411 403.813 529.886C408.633 522.362 411.043 513.838 411.043 504.315V475.569C408.692 477.097 405.459 478.508 401.344 479.801C397.346 480.977 392.82 482.094 387.764 483.152C382.709 484.093 377.653 484.974 372.598 485.797C367.542 486.503 362.957 487.149 358.842 487.737C350.024 489.031 342.323 491.088 335.739 493.91C329.155 496.731 324.041 500.553 320.396 505.373C316.752 510.076 314.929 515.954 314.929 523.009C314.929 533.237 318.633 541.056 326.04 546.464C333.564 551.755 343.087 554.4 354.609 554.4Z" fill="#EF8435" fill-opacity="0.62"/>
            <path d="M769.311 407.495L700.532 411.728C699.356 405.849 696.828 400.559 692.948 395.856C689.069 391.035 683.954 387.214 677.605 384.393C671.374 381.453 663.908 379.984 655.208 379.984C643.569 379.984 633.752 382.453 625.757 387.391C617.762 392.211 613.765 398.678 613.765 406.79C613.765 413.256 616.351 418.723 621.524 423.191C626.697 427.659 635.574 431.245 648.154 433.949L697.181 443.825C723.517 449.233 743.151 457.933 756.084 469.925C769.017 481.918 775.483 497.672 775.483 517.189C775.483 534.942 770.251 550.52 759.787 563.923C749.441 577.326 735.215 587.79 717.109 595.315C699.121 602.721 678.37 606.425 654.855 606.425C618.996 606.425 590.427 598.959 569.146 584.028C547.984 568.979 535.58 548.521 531.935 522.656L605.828 518.776C608.062 529.71 613.471 538.058 622.053 543.819C630.636 549.462 641.629 552.284 655.032 552.284C668.2 552.284 678.781 549.756 686.776 544.7C694.888 539.527 699.003 532.885 699.121 524.772C699.003 517.953 696.123 512.368 690.479 508.018C684.836 503.551 676.136 500.141 664.379 497.79L617.468 488.443C591.015 483.152 571.321 473.982 558.389 460.931C545.574 447.881 539.166 431.245 539.166 411.022C539.166 393.622 543.869 378.632 553.274 366.052C562.798 353.472 576.142 343.772 593.307 336.953C610.59 330.134 630.812 326.724 653.974 326.724C688.187 326.724 715.11 333.955 734.745 348.416C754.497 362.877 766.019 382.57 769.311 407.495Z" fill="#EF8435" fill-opacity="0.62"/>
            <path d="M966.873 330.251V386.685H803.744V330.251H966.873ZM840.779 265.352H915.907V517.894C915.907 524.831 916.965 530.239 919.081 534.119C921.197 537.881 924.137 540.527 927.899 542.055C931.779 543.583 936.246 544.348 941.302 544.348C944.829 544.348 948.356 544.054 951.883 543.466C955.41 542.76 958.114 542.231 959.996 541.879L971.811 597.784C968.049 598.959 962.759 600.311 955.939 601.84C949.12 603.486 940.832 604.485 931.073 604.838C912.967 605.543 897.095 603.133 883.457 597.607C869.936 592.081 859.414 583.499 851.889 571.859C844.365 560.22 840.661 545.523 840.779 527.77V265.352Z" fill="#EF8435" fill-opacity="0.62"/>
            <path d="M1090.94 444.53V601.134H1015.81V330.251H1087.41V378.044H1090.59C1096.58 362.289 1106.64 349.827 1120.74 340.656C1134.85 331.368 1151.96 326.724 1172.06 326.724C1190.87 326.724 1207.28 330.839 1221.27 339.069C1235.26 347.299 1246.13 359.056 1253.89 374.34C1261.65 389.507 1265.53 407.613 1265.53 428.658V601.134H1190.4V442.061C1190.52 425.484 1186.29 412.551 1177.71 403.263C1169.12 393.857 1157.31 389.154 1142.26 389.154C1132.15 389.154 1123.21 391.329 1115.45 395.679C1107.81 400.03 1101.82 406.378 1097.47 414.726C1093.23 422.956 1091.06 432.891 1090.94 444.53Z" fill="#EF8435" fill-opacity="0.62"/>
        </g>
        <path d="M48.9773 38.8182V44.2727H32.8182V38.8182H48.9773ZM36.517 65V36.9261C36.517 35.0284 36.8864 33.4545 37.625 32.2045C38.375 30.9545 39.3977 30.017 40.6932 29.392C41.9886 28.767 43.4602 28.4545 45.108 28.4545C46.2216 28.4545 47.2386 28.5398 48.1591 28.7102C49.0909 28.8807 49.7841 29.0341 50.2386 29.1705L48.9432 34.625C48.6591 34.5341 48.3068 34.4489 47.8864 34.3693C47.4773 34.2898 47.0568 34.25 46.625 34.25C45.5568 34.25 44.8125 34.5 44.392 35C43.9716 35.4886 43.7614 36.1761 43.7614 37.0625V65H36.517ZM59.9418 65.4943C58.2713 65.4943 56.7827 65.2045 55.4759 64.625C54.169 64.0341 53.1349 63.1648 52.3736 62.017C51.6236 60.858 51.2486 59.4148 51.2486 57.6875C51.2486 56.233 51.5156 55.0114 52.0497 54.0227C52.5838 53.0341 53.3111 52.2386 54.2315 51.6364C55.152 51.0341 56.1974 50.5795 57.3679 50.2727C58.5497 49.9659 59.7884 49.75 61.0838 49.625C62.6065 49.4659 63.8338 49.3182 64.7656 49.1818C65.6974 49.0341 66.3736 48.8182 66.794 48.5341C67.2145 48.25 67.4247 47.8295 67.4247 47.2727V47.1705C67.4247 46.0909 67.0838 45.2557 66.402 44.6648C65.7315 44.0739 64.777 43.7784 63.5384 43.7784C62.2315 43.7784 61.1918 44.0682 60.419 44.6477C59.6463 45.2159 59.1349 45.9318 58.8849 46.7955L52.169 46.25C52.5099 44.6591 53.1804 43.2841 54.1804 42.125C55.1804 40.9545 56.4702 40.0568 58.0497 39.4318C59.6406 38.7955 61.4815 38.4773 63.5724 38.4773C65.027 38.4773 66.419 38.6477 67.7486 38.9886C69.0895 39.3295 70.277 39.858 71.3111 40.5739C72.3565 41.2898 73.1804 42.2102 73.7827 43.3352C74.3849 44.4489 74.6861 45.7841 74.6861 47.3409V65H67.7997V61.3693H67.5952C67.1747 62.1875 66.6122 62.9091 65.9077 63.5341C65.2031 64.1477 64.3565 64.6307 63.3679 64.983C62.3793 65.3239 61.2372 65.4943 59.9418 65.4943ZM62.0213 60.483C63.0895 60.483 64.0327 60.2727 64.8509 59.8523C65.669 59.4205 66.3111 58.8409 66.777 58.1136C67.2429 57.3864 67.4759 56.5625 67.4759 55.642V52.8636C67.2486 53.0114 66.9361 53.1477 66.5384 53.2727C66.152 53.3864 65.7145 53.4943 65.2259 53.5966C64.7372 53.6875 64.2486 53.7727 63.7599 53.8523C63.2713 53.9205 62.8281 53.983 62.4304 54.0398C61.5781 54.1648 60.8338 54.3636 60.1974 54.6364C59.5611 54.9091 59.0668 55.2784 58.7145 55.7443C58.3622 56.1989 58.1861 56.767 58.1861 57.4489C58.1861 58.4375 58.544 59.1932 59.2599 59.7159C59.9872 60.2273 60.9077 60.483 62.0213 60.483ZM102.104 46.2841L95.456 46.6932C95.3423 46.125 95.098 45.6136 94.723 45.1591C94.348 44.6932 93.8537 44.3239 93.2401 44.0511C92.6378 43.767 91.9162 43.625 91.0753 43.625C89.9503 43.625 89.0014 43.8636 88.2287 44.3409C87.456 44.8068 87.0696 45.4318 87.0696 46.2159C87.0696 46.8409 87.3196 47.3693 87.8196 47.8011C88.3196 48.233 89.1776 48.5795 90.3935 48.8409L95.1321 49.7955C97.6776 50.3182 99.5753 51.1591 100.825 52.3182C102.075 53.4773 102.7 55 102.7 56.8864C102.7 58.6023 102.195 60.108 101.183 61.4034C100.183 62.6989 98.8082 63.7102 97.0582 64.4375C95.3196 65.1534 93.3139 65.5114 91.0412 65.5114C87.5753 65.5114 84.8139 64.7898 82.7571 63.3466C80.7116 61.892 79.5128 59.9148 79.1605 57.4148L86.3026 57.0398C86.5185 58.0966 87.0412 58.9034 87.8707 59.4602C88.7003 60.0057 89.7628 60.2784 91.0582 60.2784C92.331 60.2784 93.3537 60.0341 94.1264 59.5455C94.9105 59.0455 95.3082 58.4034 95.3196 57.6193C95.3082 56.9602 95.0298 56.4205 94.4844 56C93.9389 55.5682 93.098 55.2386 91.9616 55.0114L87.4276 54.108C84.8707 53.5966 82.9673 52.7102 81.7173 51.4489C80.4787 50.1875 79.8594 48.5795 79.8594 46.625C79.8594 44.9432 80.3139 43.4943 81.223 42.2784C82.1435 41.0625 83.4332 40.125 85.0923 39.4659C86.7628 38.8068 88.7173 38.4773 90.956 38.4773C94.2628 38.4773 96.8651 39.1761 98.7628 40.5739C100.672 41.9716 101.786 43.875 102.104 46.2841ZM121.199 38.8182V44.2727H105.432V38.8182H121.199ZM109.011 32.5455H116.273V56.9545C116.273 57.625 116.375 58.1477 116.58 58.5227C116.784 58.8864 117.068 59.142 117.432 59.2898C117.807 59.4375 118.239 59.5114 118.727 59.5114C119.068 59.5114 119.409 59.483 119.75 59.4261C120.091 59.358 120.352 59.3068 120.534 59.2727L121.676 64.6761C121.313 64.7898 120.801 64.9205 120.142 65.0682C119.483 65.2273 118.682 65.3239 117.739 65.358C115.989 65.4261 114.455 65.1932 113.136 64.6591C111.83 64.125 110.813 63.2955 110.085 62.1705C109.358 61.0455 109 59.625 109.011 57.9091V32.5455ZM133.19 49.8636V65H125.929V38.8182H132.849V43.4375H133.156C133.736 41.9148 134.707 40.7102 136.071 39.8239C137.435 38.9261 139.088 38.4773 141.031 38.4773C142.849 38.4773 144.435 38.875 145.787 39.6705C147.139 40.4659 148.19 41.6023 148.94 43.0795C149.69 44.5455 150.065 46.2955 150.065 48.3295V65H142.804V49.625C142.815 48.0227 142.406 46.7727 141.577 45.875C140.747 44.9659 139.605 44.5114 138.151 44.5114C137.173 44.5114 136.31 44.7216 135.56 45.142C134.821 45.5625 134.241 46.1761 133.821 46.983C133.412 47.7784 133.202 48.7386 133.19 49.8636Z" fill="#EF8435"/>
        <path d="M1152.35 300.938L1157.03 314.258L1170.35 318.938H1152.35V300.938Z" fill="#4AA35C"/>
        <path d="M1152.35 300.938L1147.67 314.258L1134.35 318.938H1152.35V300.938Z" fill="#4AA35C"/>
        <path d="M1152.35 336.938L1147.67 323.617L1134.35 318.938H1152.35V336.938Z" fill="#4AA35C"/>
        <path d="M1152.35 336.938L1157.03 323.618L1170.35 318.938H1152.35V336.938Z" fill="#4AA35C"/>
        <circle cx="1255.76" cy="101.727" r="0.427984" fill="#FDFAF1" stroke="#FDFAF1" stroke-width="0.665754"/>
        <path d="M1262.65 101.727C1262.65 101.963 1262.46 102.155 1262.22 102.155C1261.99 102.155 1261.79 101.963 1261.79 101.727C1261.79 101.49 1261.99 101.299 1262.22 101.299C1262.46 101.299 1262.65 101.49 1262.65 101.727Z" fill="#FDFAF1" stroke="#FDFAF1" stroke-width="0.665754"/>
        <path d="M1269.12 101.727C1269.12 101.963 1268.93 102.155 1268.69 102.155C1268.45 102.155 1268.26 101.963 1268.26 101.727C1268.26 101.49 1268.45 101.299 1268.69 101.299C1268.93 101.299 1269.12 101.49 1269.12 101.727Z" fill="#FDFAF1" stroke="#FDFAF1" stroke-width="0.665754"/>
        <path d="M1275.59 101.727C1275.59 101.963 1275.39 102.155 1275.16 102.155C1274.92 102.155 1274.73 101.963 1274.73 101.727C1274.73 101.49 1274.92 101.299 1275.16 101.299C1275.39 101.299 1275.59 101.49 1275.59 101.727Z" fill="#FDFAF1" stroke="#FDFAF1" stroke-width="0.665754"/>
        <path d="M1192.21 139.821L1192.21 96.8324C1192.21 92.6302 1195.61 89.2238 1199.81 89.2238L1200.58 89.2238C1204.78 89.2238 1208.18 92.6302 1208.18 96.8324L1208.18 116.909C1208.18 120.512 1211.11 123.433 1214.71 123.433V123.433C1218.34 123.433 1221.27 120.466 1221.23 116.833L1221 96.3969C1220.96 93.238 1223.51 90.6577 1226.67 90.6577V90.6577C1229.8 90.6577 1232.34 93.1977 1232.34 96.331L1232.34 118.619C1232.34 122.296 1235.32 125.277 1239 125.277V125.277C1242.68 125.277 1245.66 122.296 1245.66 118.619L1245.66 98.2663C1245.66 94.0642 1249.06 90.6577 1253.27 90.6577L1290.36 90.6577" stroke="#FDFAF1" stroke-width="0.570646" stroke-linecap="round" stroke-linejoin="round"/>
        <path d="M1290.21 90.744V90.744C1292.83 90.744 1294.96 88.615 1294.96 85.9886L1294.96 29.4947C1294.96 23.1915 1300.07 18.0818 1306.37 18.0818L1347.27 18.0818" stroke="#FDFAF1" stroke-width="0.570646" stroke-linecap="round" stroke-linejoin="round"/>
        <g clip-path="url(#clip1_2_144)">
            <circle cx="1177.37" cy="44.3315" r="6.84775" fill="#EF8435"/>
        </g>
        <g clip-path="url(#clip2_2_144)">
            <circle cx="1013.02" cy="44.3315" r="6.84775" fill="#EF8435"/>
        </g>
        <g clip-path="url(#clip3_2_144)">
            <circle cx="1149.98" cy="44.3315" r="6.65753" stroke="black" stroke-width="0.380431"/>
        </g>
        <g clip-path="url(#clip4_2_144)">
            <circle cx="985.632" cy="44.3315" r="6.65753" stroke="black" stroke-width="0.380431"/>
        </g>
        <g clip-path="url(#clip5_2_144)">
            <path d="M1198.37 50.3233L1205.12 38.6251L1211.87 50.3233H1198.37Z" stroke="black" stroke-width="0.380431"/>
        </g>
        <path d="M1034.02 50.3233L1040.77 38.6251L1047.53 50.3233H1034.02Z" stroke="black" stroke-width="0.380431"/>
        <g clip-path="url(#clip6_2_144)">
            <path d="M1232.51 38.2446L1239.59 50.5135H1225.43L1232.51 38.2446Z" fill="#4AA35C"/>
        </g>
        <g clip-path="url(#clip7_2_144)">
            <path d="M1068.16 38.2446L1075.25 50.5135H1061.08L1068.16 38.2446Z" fill="#4AA35C"/>
        </g>
        <g clip-path="url(#clip8_2_144)">
            <path d="M1122.59 36.7229C1120.57 36.7229 1118.64 37.5245 1117.21 38.9514C1115.78 40.3783 1114.98 42.3136 1114.98 44.3315C1114.98 46.3494 1115.78 48.2847 1117.21 49.7116C1118.64 51.1385 1120.57 51.9401 1122.59 51.9401L1122.59 44.3315L1122.59 36.7229Z" fill="#EBBE52"/>
        </g>
        <g clip-path="url(#clip9_2_144)">
            <path d="M958.241 36.7229C956.223 36.7229 954.288 37.5245 952.861 38.9514C951.434 40.3783 950.633 42.3136 950.633 44.3315C950.633 46.3494 951.434 48.2847 952.861 49.7116C954.288 51.1385 956.223 51.9401 958.241 51.9401L958.241 44.3315L958.241 36.7229Z" fill="#EBBE52"/>
        </g>
        <g clip-path="url(#clip10_2_144)">
            <mask id="path-20-inside-1_2_144" fill="black">
                <path d="M1259.54 36.7229C1257.52 36.7229 1255.59 37.5245 1254.16 38.9514C1252.74 40.3783 1251.93 42.3136 1251.93 44.3315C1251.93 46.3494 1252.74 48.2847 1254.16 49.7116C1255.59 51.1385 1257.52 51.9401 1259.54 51.9401L1259.54 44.3315L1259.54 36.7229Z"/>
            </mask>
            <path d="M1259.54 36.7229C1257.52 36.7229 1255.59 37.5245 1254.16 38.9514C1252.74 40.3783 1251.93 42.3136 1251.93 44.3315C1251.93 46.3494 1252.74 48.2847 1254.16 49.7116C1255.59 51.1385 1257.52 51.9401 1259.54 51.9401L1259.54 44.3315L1259.54 36.7229Z" stroke="black" stroke-width="0.760861" mask="url(#path-20-inside-1_2_144)"/>
        </g>
        <g clip-path="url(#clip11_2_144)">
            <mask id="path-21-inside-2_2_144" fill="black">
                <path d="M1095.19 36.7229C1093.18 36.7229 1091.24 37.5245 1089.81 38.9514C1088.39 40.3783 1087.59 42.3136 1087.59 44.3315C1087.59 46.3494 1088.39 48.2847 1089.81 49.7116C1091.24 51.1385 1093.18 51.9401 1095.19 51.9401L1095.19 44.3315L1095.19 36.7229Z"/>
            </mask>
            <path d="M1095.19 36.7229C1093.18 36.7229 1091.24 37.5245 1089.81 38.9514C1088.39 40.3783 1087.59 42.3136 1087.59 44.3315C1087.59 46.3494 1088.39 48.2847 1089.81 49.7116C1091.24 51.1385 1093.18 51.9401 1095.19 51.9401L1095.19 44.3315L1095.19 36.7229Z" stroke="black" stroke-width="0.760861" mask="url(#path-21-inside-2_2_144)"/>
        </g>
        <path d="M877.004 101.244L880.293 110.604L889.654 113.893H877.004V101.244Z" fill="#EF8435"/>
        <path d="M877.004 101.244L873.716 110.604L864.355 113.893H877.004V101.244Z" fill="#EF8435"/>
        <path d="M877.004 126.543L873.716 117.182L864.355 113.893H877.004V126.543Z" fill="#EF8435"/>
        <path d="M877.004 126.543L880.293 117.182L889.654 113.893H877.004V126.543Z" fill="#EF8435"/>
        <path d="M418.006 324.149L421.043 332.794L429.688 335.832H418.006V324.149Z" fill="#EF8435"/>
        <path d="M418.006 324.149L414.968 332.794L406.323 335.832H418.006V324.149Z" fill="#EF8435"/>
        <path d="M418.006 347.515L414.968 338.869L406.323 335.832H418.006V347.515Z" fill="#EF8435"/>
        <path d="M418.006 347.515L421.043 338.869L429.688 335.832H418.006V347.515Z" fill="#EF8435"/>
        <path d="M128 126.542L128.376 140.152C128.708 152.17 138.372 161.835 150.39 162.167L164 162.542L150.39 162.918C138.372 163.25 128.708 172.915 128.376 184.933L128 198.542L127.624 184.933C127.292 172.915 117.628 163.25 105.61 162.918L92 162.542L105.61 162.167C117.628 161.835 127.292 152.17 127.624 140.152L128 126.542Z" fill="#5C2860"/>
    </g>
    <defs>
        <clipPath id="clip0_2_144">
            <rect width="1318" height="816" fill="black"/>
        </clipPath>
        <clipPath id="clip1_2_144">
            <rect width="15.2172" height="15.2172" fill="black" transform="translate(1169.76 36.7229)"/>
        </clipPath>
        <clipPath id="clip2_2_144">
            <rect width="15.2172" height="15.2172" fill="black" transform="translate(1005.41 36.7229)"/>
        </clipPath>
        <clipPath id="clip3_2_144">
            <rect width="15.2172" height="15.2172" fill="black" transform="translate(1142.37 36.7229)"/>
        </clipPath>
        <clipPath id="clip4_2_144">
            <rect width="15.2172" height="15.2172" fill="black" transform="translate(978.023 36.7229)"/>
        </clipPath>
        <clipPath id="clip5_2_144">
            <rect width="15.2172" height="15.2172" fill="black" transform="translate(1197.15 36.7229)"/>
        </clipPath>
        <clipPath id="clip6_2_144">
            <rect width="15.2172" height="15.2172" fill="black" transform="translate(1224.54 36.7229)"/>
        </clipPath>
        <clipPath id="clip7_2_144">
            <rect width="15.2172" height="15.2172" fill="black" transform="translate(1060.2 36.7229)"/>
        </clipPath>
        <clipPath id="clip8_2_144">
            <rect width="15.2172" height="15.2172" fill="black" transform="translate(1114.98 36.7229)"/>
        </clipPath>
        <clipPath id="clip9_2_144">
            <rect width="15.2172" height="15.2172" fill="black" transform="translate(950.633 36.7229)"/>
        </clipPath>
        <clipPath id="clip10_2_144">
            <rect width="15.2172" height="15.2172" fill="black" transform="translate(1251.93 36.7229)"/>
        </clipPath>
        <clipPath id="clip11_2_144">
            <rect width="15.2172" height="15.2172" fill="black" transform="translate(1087.59 36.7229)"/>
        </clipPath>
    </defs>
</svg>
