<svg width="1318" height="816" viewBox="0 0 1318 816" fill="none" xmlns="http://www.w3.org/2000/svg">
    <g clip-path="url(#clip0_3_1722)">
        <rect width="1318" height="816" fill="black"/>
        <g clip-path="url(#clip1_3_1722)">
            <g clip-path="url(#clip2_3_1722)">
                <g opacity="0.1">
                    <path d="M1082.47 179.981C1080.09 181.883 1077.12 182.546 1075.56 180.846C1071.9 176.869 1068.92 172.402 1065.91 167.993C1065.62 167.59 1066.84 165.976 1067.76 165.458C1070.21 164.046 1072.66 164.651 1074.04 166.697C1077.05 171.077 1079.73 175.601 1082.47 179.981Z" fill="white"/>
                    <path d="M1199.75 170.703C1203.22 169.262 1201.41 166.928 1201.04 164.853C1202.07 164.767 1203.06 164.507 1203.95 164.046C1206.26 165.343 1208.54 166.64 1210.86 167.908L1210.99 168.023C1208.21 172.057 1212.54 176.063 1210.99 180.097V180.04C1204.05 179.78 1197.8 178.887 1199.72 170.645L1199.75 170.703Z" fill="white"/>
                    <path d="M972.493 407.084C972.791 404.289 973.749 401.263 977.285 401.205C980.391 401.148 982.804 403.424 983.002 406.508C983.135 408.899 981.78 410.542 978.905 410.888C975.501 411.32 972.824 410.628 972.526 407.084H972.493Z" fill="white"/>
                    <path d="M807.154 338.876C804.345 338.674 802.131 337.838 801.866 335.245C801.503 331.96 803.849 330.115 807.253 330.087C809.666 330.087 812.111 331.355 812.541 333.862C813.168 337.435 810.161 338.271 807.121 338.876H807.154Z" fill="white"/>
                    <path d="M657.72 533.102C658.117 530.623 660.066 529.442 662.611 529.212C666.279 528.895 668.394 530.912 668.89 533.707C669.353 536.329 666.907 537.366 664.296 537.366C661.025 537.366 658.447 536.214 657.72 533.102Z" fill="white"/>
                    <path d="M1095.03 674.389C1096.85 672.083 1099.66 671.565 1102.6 671.219L1102.4 670.988C1107.82 676.896 1107.19 681.449 1098.47 684.215C1097.35 680.93 1096.19 677.645 1095.07 674.36L1095.03 674.389Z" fill="white"/>
                    <path d="M896.417 258.994C902.333 258.475 903.093 262.193 905.175 264.556C906.464 265.996 906.563 267.552 904.943 268.647C902.366 270.405 900.482 269.08 899.028 267.149C897.409 264.959 895.426 262.884 896.384 258.994H896.417Z" fill="white"/>
                    <path d="M875.833 161.424C874.379 162.115 873.09 163.21 872.429 162.98C868.628 161.625 864.068 161.28 861.788 157.678C861.127 156.64 862.25 154.94 862.977 155.343C867.042 157.534 874.544 154.825 875.833 161.424Z" fill="white"/>
                    <path d="M872.467 496.878C875.078 497.137 877.094 498.146 877.523 500.537C877.92 502.785 877.226 504.745 874.252 505.148C870.65 505.638 868.204 504.082 868.039 501.056C867.907 498.895 869.658 497.223 872.5 496.878H872.467Z" fill="white"/>
                    <path d="M1227.65 36.0425C1223.06 38.6649 1218.6 39.6158 1215 35.1492C1214.34 34.3424 1215.26 31.403 1216.32 30.9708C1222.23 28.5502 1225.6 31.2014 1227.69 36.0425H1227.65Z" fill="white"/>
                    <path d="M1032.11 580.907C1029.6 580.129 1025.4 581.022 1026.3 576.815C1026.76 574.596 1028.54 573.127 1031.52 573.386C1034.29 573.645 1035.98 575.144 1036.61 577.334C1037.53 580.59 1034.23 580.158 1032.11 580.907Z" fill="white"/>
                    <path d="M705.118 3.01808C709.514 3.33506 714.008 -1.41959 718.238 3.10461C718.767 3.68095 718.701 5.35225 718.106 5.92858C713.248 11.0291 710.042 3.3063 705.614 4.60304C705.746 3.9979 705.614 3.47914 705.118 3.01808Z" fill="white"/>
                    <path d="M1254.65 75.0312C1261.26 75.0889 1265.26 75.3482 1268.89 79.0656C1263.84 80.7369 1259.74 80.7946 1254.65 75.0312Z" fill="white"/>
                    <path d="M817.842 20.5956C813.678 19.9329 811.398 19.1548 811.728 16.5325C811.926 14.9188 813.711 13.9679 815.529 14.0831C817.809 14.256 820.717 14.4577 819.891 17.4835C819.527 18.8667 818.238 20.0482 817.842 20.5669V20.5956Z" fill="white"/>
                    <path d="M708.736 453.971C705.002 453.596 703.878 451.954 704.671 449.562C705.233 447.89 707.117 447.256 709 447.545C711.909 447.977 713.098 450.109 712.735 452.184C712.603 453.02 709.794 453.538 708.736 453.971Z" fill="white"/>
                    <path d="M669.582 443.25C666.74 442.76 665.319 440.887 665.682 438.755C665.814 437.948 668.59 436.91 670.111 436.968C672.986 437.055 674.34 439.072 673.878 441.348C673.514 443.019 671.531 443.452 669.582 443.25Z" fill="white"/>
                    <path d="M1174.58 5.98543C1174.35 4.05472 1175.7 3.13255 1177.52 2.61385C1180.07 1.92225 1180.6 3.68005 1181.12 5.12088C1181.88 7.13804 1180.27 7.97374 1178.41 8.29072C1176.33 8.66534 1175.11 7.62795 1174.55 5.95659L1174.58 5.98543Z" fill="white"/>
                    <path d="M1136.51 156.582C1134.89 155.919 1133.14 155.228 1133.37 153.383C1133.6 151.683 1135.06 150.905 1137.01 151.395C1138.69 151.827 1140.48 152.49 1139.95 154.45C1139.55 155.862 1139.06 157.533 1136.55 156.582H1136.51Z" fill="white"/>
                    <path d="M587.805 593.53C587.211 595.201 586.12 596.469 583.939 595.921C581.923 595.431 581.097 593.991 582.121 592.348C582.65 591.541 583.906 590.734 584.963 590.59C587.409 590.244 587.872 591.772 587.805 593.501V593.53Z" fill="white"/>
                    <path d="M1052.34 166.668C1052.57 166.754 1050.52 166.437 1051.28 164.305C1051.84 162.748 1052.9 161.481 1055.08 161.942C1057 162.345 1058.12 163.584 1057.82 165.256C1057.53 166.84 1056.47 168.051 1052.37 166.668H1052.34Z" fill="white"/>
                    <path d="M1018.22 245.595C1016.27 245.249 1015.11 244.126 1014.84 242.483C1014.55 240.639 1015.7 239.111 1017.75 239.601C1019.14 239.918 1020.56 241.474 1021.12 242.771C1021.98 244.702 1020.2 245.393 1018.22 245.595Z" fill="white"/>
                    <path d="M1012.28 560.792C1012.32 561.858 1012.51 562.896 1012.91 563.904C1010.76 565.749 1008.48 567.305 1005.74 564.826C1005.08 564.25 1004.75 562.838 1005.11 562.089C1006.67 558.602 1009.71 560.417 1012.32 560.792H1012.28Z" fill="white"/>
                    <path d="M1007.21 772.335C1006.64 773.891 1005.59 775.044 1003.51 774.698C1001.65 774.381 1000.37 773.315 1000.8 771.557C1001.16 770.03 1002.02 768.647 1004.3 769.252C1005.98 769.713 1007.64 770.347 1007.21 772.335Z" fill="white"/>
                    <path d="M647.587 644.995C644.844 644.448 643.72 642.604 644.381 640.529C644.877 639.002 647.19 638.454 648.71 639.347C649.966 640.096 651.189 641.71 651.222 642.949C651.222 644.333 649.867 645.658 647.62 644.995H647.587Z" fill="white"/>
                    <path d="M670.084 152.52C671.67 152.318 672.992 153.356 673.256 154.998C673.389 155.748 672.628 157.044 671.868 157.39C670.15 158.168 668.002 157.822 667.308 156.295C666.68 154.912 667.539 153.298 670.051 152.52H670.084Z" fill="white"/>
                    <path d="M935.612 46.7335C935.909 46.8487 933.827 46.5894 934.62 44.4569C935.182 42.9585 936.239 41.7194 938.354 42.1516C940.205 42.5262 941.461 43.6501 940.998 45.3502C940.602 46.8487 939.643 48.1454 935.578 46.7046L935.612 46.7335Z" fill="white"/>
                    <path d="M798.001 716.892C798.596 716.114 799.125 714.76 799.885 714.645C802.231 714.299 803.091 715.97 803.223 717.555C803.289 718.189 802.099 719.313 801.273 719.515C798.927 720.062 798.1 718.708 798.034 716.892H798.001Z" fill="white"/>
                    <path d="M783.021 700.065C780.708 700.613 779.849 699.258 779.618 697.76C779.485 696.895 779.948 695.397 780.609 695.138C782.36 694.475 783.781 695.455 784.641 696.78C785.665 698.394 784.806 699.46 783.021 700.065Z" fill="white"/>
                    <path d="M947.802 134.076C945.489 134.537 943.737 135.402 942.415 135.027C940.532 134.537 940.598 132.808 941.226 131.281C941.787 129.955 942.779 129.609 944.002 130.503C945.224 131.396 946.216 132.549 947.802 134.047V134.076Z" fill="white"/>
                    <path d="M644.564 539.469C643.97 540.19 643.044 541.285 642.119 542.38C641.425 541.602 640.434 540.91 640.136 540.046C639.641 538.547 639.706 536.617 641.656 536.184C643.54 535.752 644.267 537.395 644.531 539.469H644.564Z" fill="white"/>
                    <path d="M1088.76 555.204C1089.82 554.8 1090.81 554.08 1091.7 554.166C1092.66 554.282 1094.34 555.492 1094.24 555.665C1093.45 557.106 1091.9 557.826 1090.15 557.279C1089.49 557.077 1089.22 555.924 1088.76 555.204Z" fill="white"/>
                    <path d="M848.058 513.044C848.586 511.69 849.578 511.229 850.933 511.863C851.924 512.324 852.784 512.958 853.709 513.534C852.222 514.139 850.734 514.745 849.247 515.35C848.818 514.572 848.421 513.794 848.025 513.073L848.058 513.044Z" fill="white"/>
                    <path d="M821.097 430.282C821.857 430.887 822.716 431.579 823.575 432.27C822.121 432.991 820.733 433.913 819.18 434.259C818.684 434.374 816.933 432.76 817.098 432.27C817.627 430.829 818.817 429.619 821.097 430.282Z" fill="white"/>
                    <path d="M1118.61 814.062C1115.63 821.208 1112.63 817.52 1109.62 814.062C1112.59 810.604 1115.6 812.131 1118.61 814.062Z" fill="white"/>
                    <path d="M1271.6 801.123C1267.9 796.944 1266.28 793.659 1275.2 794.927C1275.23 797.52 1275.4 800.172 1271.6 801.123Z" fill="white"/>
                    <path d="M1196.96 668.107C1192.83 667.992 1189.79 667.272 1189.89 663.871C1189.99 660.99 1192.03 658.685 1195.64 659.088C1198.88 659.463 1200.89 661.595 1200.96 664.65C1201.02 667.502 1198.48 667.762 1196.96 668.107Z" fill="white"/>
                    <path d="M1319.76 560.363C1316.39 561.112 1312.86 566.184 1309.68 560.536C1308.49 558.403 1307.93 555.032 1311.7 554.023C1317.78 552.409 1317.88 557.337 1319.73 560.247V560.363H1319.76Z" fill="white"/>
                    <path d="M1124.07 335.157C1121.46 335.128 1119.12 334.264 1118.42 332.045C1117.93 330.46 1119.51 329.135 1121.43 328.818C1124.24 328.328 1126.22 329.48 1126.81 331.843C1127.24 333.543 1126.09 334.725 1124.07 335.157Z" fill="white"/>
                    <path d="M1120.26 388.269C1121.31 390.632 1119.27 391.208 1117.61 391.698C1114.94 392.533 1112.23 391.698 1111.37 389.594C1110.48 387.491 1111.73 385.329 1114.87 385.012C1117.71 384.724 1119.46 386.05 1120.26 388.24V388.269Z" fill="white"/>
                    <path d="M1280.96 691.621C1281.85 692.082 1282.42 692.312 1282.91 692.629C1285.98 694.618 1291.93 694.733 1289.72 700.151C1289.45 700.756 1287.47 701.419 1286.61 701.188C1281.19 699.718 1279.28 696.549 1280.96 691.621Z" fill="white"/>
                    <path d="M1278.45 311.529C1278.58 309.598 1279.24 307.697 1282.31 307.552C1285.06 307.437 1286.84 308.676 1287.63 310.866C1288.72 313.892 1285.95 314.238 1283.73 314.613C1281.16 315.074 1279.01 314.44 1278.45 311.529Z" fill="white"/>
                    <path d="M1224.82 313.862C1224.82 312.018 1225.81 310.865 1227.99 311.211C1228.92 311.355 1229.98 312.306 1230.34 313.084C1231.07 314.669 1230.41 316.196 1228.42 316.542C1226.21 316.945 1225.35 315.418 1224.85 313.833L1224.82 313.862Z" fill="white"/>
                    <path d="M1199.07 384.955C1197.06 384.494 1195.94 383.342 1196.5 381.584C1197.03 379.884 1198.68 379.048 1200.56 379.826C1201.49 380.201 1202.31 381.411 1202.48 382.333C1202.81 384.379 1201.06 384.869 1199.07 384.984V384.955Z" fill="white"/>
                    <path d="M1193.09 366.252C1191.11 366.252 1189.62 365.388 1189.45 363.774C1189.26 361.296 1190.94 359.942 1193.78 360.547C1195.47 360.893 1196.86 362.045 1196.59 363.89C1196.36 365.676 1194.97 366.281 1193.09 366.281V366.252Z" fill="white"/>
                    <path d="M1188.36 513.275C1187.83 514.86 1186.64 515.696 1184.73 515.263C1183.08 514.86 1181.32 514.284 1181.95 512.324C1182.41 510.97 1182.94 509.327 1185.32 510.192C1186.91 510.768 1188.5 511.431 1188.33 513.275H1188.36Z" fill="white"/>
                    <path d="M1266.71 434.404C1265.03 433.885 1263.54 433.222 1263.74 431.32C1264 428.583 1266.08 427.862 1268.46 428.842C1269.69 429.361 1270.91 431.32 1270.78 432.502C1270.61 433.856 1268.76 434.778 1266.74 434.404H1266.71Z" fill="white"/>
                    <path d="M1121.21 296.199C1121.87 294.557 1123.03 293.433 1125.21 294.038C1126.9 294.499 1129.05 294.903 1128.19 297.179C1127.56 298.764 1126.43 300.09 1124.19 299.571C1122.27 299.139 1120.95 298.159 1121.25 296.199H1121.21Z" fill="white"/>
                    <path d="M1113.28 789.857C1115.33 789.569 1116.59 790.52 1116.98 792.105C1117.48 794.064 1115.89 794.727 1114.01 794.583C1112.98 794.496 1111.37 793.949 1111.13 793.315C1110.57 791.845 1111.5 790.549 1113.25 789.886L1113.28 789.857Z" fill="white"/>
                    <path d="M1301.05 433.856C1300.59 435.095 1299.57 436.306 1297.32 435.556C1295.43 434.922 1294.31 433.51 1294.81 431.839C1295 431.205 1296.82 430.6 1297.88 430.571C1299.8 430.571 1301.55 431.205 1301.05 433.827V433.856Z" fill="white"/>
                    <path d="M1102.59 671.219C1103.78 668.798 1104.87 666.176 1108.94 667.674C1109.37 667.847 1109.9 668.625 1109.76 668.971C1108.54 672.919 1105.14 671.132 1102.36 670.988L1102.56 671.219H1102.59Z" fill="white"/>
                    <path d="M-2.04897 398.323C1.52011 397.978 5.28749 396.825 8.19563 399.764C9.91408 401.522 10.0462 403.626 8.79045 405.614C7.17115 408.236 4.26299 409.216 1.12352 409.072C-1.91681 408.928 -2.37942 406.479 -2.44552 404.404C-2.51161 402.329 -2.04901 400.225 -1.78464 398.122L-2.04897 398.323Z" fill="white"/>
                    <path d="M-5.68454 261.733C-3.93304 261.3 -1.91719 261.156 -0.43007 260.321C2.44502 258.678 5.02271 257.583 7.336 260.753C7.93085 261.588 8.59176 263.145 8.1291 263.692C6.57589 265.565 4.13041 265.911 1.51969 265.652C-2.21462 265.277 -5.9158 264.787 -9.02222 262.741C-8.82393 260.119 -7.70037 259.773 -5.65146 261.733H-5.68454Z" fill="white"/>
                    <path d="M65.7484 757.697C68.8878 760.06 70.5402 762.423 65.8145 764.815C64.3935 763.201 62.708 764.123 60.9896 764.296C58.1806 764.613 56.4952 763.172 56.4622 760.867C56.4622 758.908 58.7755 758.821 60.4609 758.475C62.2124 758.13 63.9969 757.928 65.7484 757.668V757.697Z" fill="white"/>
                    <path d="M36.7713 135.431C37.267 133.788 36.2756 134.97 34.1937 134.595C32.31 134.249 31.1533 133.097 31.5829 131.368C31.9464 129.927 32.4091 128.198 34.8876 128.947C36.573 129.466 38.1263 130.244 36.7713 135.46V135.431Z" fill="white"/>
                    <path d="M61.3606 135.114C61.658 132.175 62.1207 129.351 65.7889 127.997C67.2099 127.363 68.3665 127.68 69.2588 128.775H69.1596C70.1841 134.221 67.9039 136.642 61.3606 135.114Z" fill="white"/>
                    <path d="M80.2379 79.4957C74.0251 80.7348 71.5465 78.6312 72.8023 73.2425L73.1328 73.0408C80.3701 71.3694 84.7323 71.9745 80.1718 79.6686L80.2379 79.4957Z" fill="white"/>
                    <path d="M12.9127 391.984C12.9127 392.935 12.8136 393.857 12.6484 394.779C11.0952 394.433 8.21997 394.03 8.21997 393.771C8.4513 390.918 11.0621 392.128 12.9127 391.984Z" fill="white"/>
                    <path d="M62.4849 141.307C62.3528 140.299 62.1544 139.319 61.9231 138.339C64.1703 138.051 67.7064 137.561 67.8716 139.463C68.103 141.74 64.666 141.336 62.4519 141.307H62.4849Z" fill="white"/>
                    <path d="M553.893 784.986C553.232 787.55 552.935 790.576 548.639 790.144C546.524 789.942 545.829 788.213 546.424 786.571C547.845 782.508 551.183 784.726 553.926 785.015L553.893 784.986Z" fill="white"/>
                    <path d="M531.811 450.395C540.403 451.624 542.738 457.176 538.817 467.051C536.702 460.365 530.654 456.792 531.811 450.395Z" fill="white"/>
                    <path d="M317.806 661.246C315.228 665.194 311.659 665.799 307.627 663.119C305.479 661.678 305.71 659.315 307.197 657.644C310.734 653.667 314.237 655.194 317.475 658.191C318.698 659.142 318.83 660.151 317.773 661.275L317.806 661.246Z" fill="white"/>
                    <path d="M418.697 102.466C419.028 105.693 419.424 109.123 414.103 109.353C411.724 109.468 409.147 108.892 408.42 106.385C407.461 102.869 409.51 99.5843 412.418 98.3163C415.822 96.8179 416.615 101.169 418.862 102.639L418.697 102.466Z" fill="white"/>
                    <path d="M401.837 799.651C399.028 798.758 396.252 797.605 397.309 794.32C398.069 792.015 400.35 791.381 402.894 792.072C405.373 792.706 406.893 794.291 406.827 796.51C406.761 799.19 404.448 799.622 401.804 799.651H401.837Z" fill="white"/>
                    <path d="M175.142 659.173C176.827 663.236 184.296 665.974 179.141 671.132C178.843 671.42 177.786 671.506 177.422 671.276C172.399 668.048 174.845 663.322 175.175 659.202L175.142 659.173Z" fill="white"/>
                    <path d="M57.1219 321.009C58.8073 321.297 55.9322 321.268 55.3374 318.703C54.7756 316.311 56.2627 314.525 59.1048 314.323C62.8391 314.064 64.7557 315.937 64.6236 319.078C64.5575 320.72 63.6322 322.132 57.0888 321.009H57.1219Z" fill="white"/>
                    <path d="M61.2353 562.29C58.6245 562.347 56.2782 561.685 55.5512 559.322C54.8241 557.016 56.0469 555.172 58.7898 554.538C61.7971 553.847 63.2181 555.72 64.1103 557.708C65.1678 560.042 64.3417 561.771 61.2353 562.29Z" fill="white"/>
                    <path d="M24.5589 579.726C25.352 575.115 19.5358 567.911 31.0031 567.508C33.3164 573.329 31.2014 577.421 24.5589 579.726Z" fill="white"/>
                    <path d="M554.681 211.765C555.342 209.402 557.424 207.818 559.836 208.019C562.745 208.25 566.479 209.229 567.008 211.938C567.404 213.984 564.331 215.252 561.753 215.483C558.349 215.829 555.904 214.561 554.681 211.736V211.765Z" fill="white"/>
                    <path d="M368.189 92.6664C368.85 90.851 370.535 90.5628 372.254 91.0239C374.501 91.6002 377.012 92.2918 377.343 94.7124C377.574 96.3838 376.649 97.8823 374.336 97.45C371.328 96.9025 368.552 95.8363 368.189 92.6664Z" fill="white"/>
                    <path d="M381.331 498.838C380.372 496.59 375.812 495.409 378.522 492.153C379.117 491.432 380.769 490.741 381.694 490.913C387.279 492.037 384.602 495.841 384.801 498.694L384.735 498.723C383.611 498.723 382.487 498.78 381.397 498.867H381.331V498.838Z" fill="white"/>
                    <path d="M495.227 50.3355C493.179 50.4508 492.088 49.3845 491.625 47.8861C491.031 46.0706 492.418 45.1773 494.17 44.8315C496.45 44.3705 497.045 45.9554 497.64 47.3098C498.433 49.2117 496.946 49.8456 495.261 50.3067L495.227 50.3355Z" fill="white"/>
                    <path d="M437.396 576.901C434.752 577.42 433.86 576.152 433.563 574.625C433.232 572.982 434.256 571.743 436.173 571.541C438.222 571.311 439.214 572.665 439.775 574.106C440.668 576.325 438.42 576.354 437.396 576.872V576.901Z" fill="white"/>
                    <path d="M426.381 635.457C425.786 632.46 426.116 629.808 430.082 628.685C434.973 633.468 434.213 635.918 426.381 635.457Z" fill="white"/>
                    <path d="M362.782 645.715C362.253 647.242 361.625 648.567 359.312 648.193C357.395 647.876 356.304 646.982 355.875 645.34C355.379 643.409 356.8 642.285 358.452 642.112C361.261 641.796 362.583 643.409 362.749 645.715H362.782Z" fill="white"/>
                    <path d="M351.278 526.731C351.509 526.126 352.17 524.483 354.351 525.549C355.673 526.212 357.094 527.595 357.259 528.806C357.457 530.419 355.739 531.313 353.789 530.823C352.038 530.391 350.749 529.411 351.278 526.731Z" fill="white"/>
                    <path d="M602.836 322.997C600.49 323.342 599.928 321.844 599.433 320.432C598.838 318.703 599.895 317.579 601.779 317.377C603.861 317.147 604.753 318.559 605.348 320C606.207 322.017 604.456 322.478 602.836 322.997Z" fill="white"/>
                    <path d="M295.893 259.055C293.91 259.199 292.489 258.449 292.092 256.807C291.629 254.876 293.381 254.184 295.099 253.723C297.545 253.032 298.107 254.703 298.635 256.086C299.429 258.161 297.578 258.593 295.893 259.055Z" fill="white"/>
                    <path d="M1.75037 784.699C-1.75261 785.246 -4.66073 784.67 -6.28003 781.586C-4.79291 778.474 -1.78568 778.388 1.41988 778.676H1.45296C1.5521 780.722 1.65123 782.71 1.75037 784.699Z" fill="white"/>
                    <path d="M284.054 30.5672C281.344 30.9995 280.617 29.5586 280.089 28.089C279.428 26.2447 280.65 25.2362 282.534 25.0633C284.616 24.8615 285.574 26.2735 286.268 27.7143C287.326 29.9332 285.112 30.0485 284.054 30.5672Z" fill="white"/>
                    <path d="M260.826 807.579C260.628 805.216 259.141 802.219 263.041 801.383C265.42 800.894 267.733 802.594 267.601 804.87C267.37 808.674 263.668 807.493 261.058 807.723L260.826 807.579Z" fill="white"/>
                    <path d="M253.302 216.319C250.889 216.722 250.063 215.31 249.667 213.754C249.237 212.025 250.162 210.699 252.211 210.527C254.359 210.354 255.351 211.823 256.045 213.322C257.102 215.627 254.855 215.771 253.302 216.319Z" fill="white"/>
                    <path d="M77.6034 671.245C76.4467 670.64 74.0013 670.064 73.7039 669.027C73.109 666.894 74.2986 664.906 77.4381 664.762C79.7183 664.646 80.4123 666.001 80.7428 667.586C81.1394 669.459 79.8836 670.41 77.6034 671.217V671.245Z" fill="white"/>
                    <path d="M204.181 794.58C207.155 791.064 210.129 791.353 213.137 794.551C210.195 800.804 207.188 797.98 204.181 794.58Z" fill="white"/>
                    <path d="M175.209 312.075C175.672 310.923 177.027 310.029 179.01 310.807C180.794 311.528 181.654 313.113 180.993 314.698C180.728 315.361 179.01 316.023 178.051 315.937C176.102 315.706 174.747 314.582 175.209 312.075Z" fill="white"/>
                    <path d="M141.046 621.769C141.343 623.498 140.418 624.593 138.534 624.823C136.452 625.054 135.593 623.642 134.998 622.23C134.073 620.068 136.122 619.78 137.642 619.406C139.889 618.858 140.484 620.357 141.046 621.769Z" fill="white"/>
                    <path d="M135.061 594.941C132.946 595.056 132.054 593.817 131.36 592.434C130.302 590.301 132.384 589.956 133.872 589.495C136.185 588.774 136.846 590.33 137.308 591.742C137.804 593.356 136.945 594.48 135.094 594.97L135.061 594.941Z" fill="white"/>
                    <path d="M392.681 816.74C391.723 814.924 388.914 813.57 390.533 811.207C390.963 810.602 392.846 810.199 393.772 810.458C398.299 811.755 395.986 814.608 395.457 817.028C394.697 818.037 394.036 818.325 393.441 817.893C392.912 817.518 392.648 817.143 392.648 816.74H392.681Z" fill="white"/>
                    <path d="M418.877 102.606C420.1 100.474 421.058 98.0243 424.694 98.4853C425.024 98.5141 425.553 99.3499 425.487 99.7245C424.727 103.355 420.992 101.569 418.712 102.433L418.877 102.606Z" fill="white"/>
                    <path d="M47.1184 320.837C47.9446 320.433 48.7377 320.059 49.5639 319.655C49.8282 320.549 50.2578 321.442 50.2909 322.335C50.2909 322.595 49.3325 322.912 48.8368 323.229C48.275 322.422 47.6802 321.644 47.1184 320.837Z" fill="white"/>
                    <path d="M183.566 117.016C183.005 116.094 182.079 115.23 182.145 114.423C182.178 113.674 183.533 112.29 183.864 112.377C185.648 112.867 186.474 114.221 185.813 115.748C185.582 116.325 184.359 116.584 183.566 117.016Z" fill="white"/>
                    <path d="M205.809 145.516C204.19 144.565 202.868 143.816 201.579 143.067C202.406 142.462 203.133 141.597 204.091 141.309C206.008 140.733 207.33 141.885 207.957 143.211C208.156 143.614 206.735 144.594 205.809 145.545V145.516Z" fill="white"/>
                    <path d="M455.515 362.622C454.722 362.017 453.896 361.441 453.103 360.836C453.962 360.288 454.755 359.424 455.681 359.28C457.465 359.02 458.952 359.769 458.357 361.527C458.159 362.075 456.507 362.277 455.515 362.622Z" fill="white"/>
                    <path d="M702.666 255.828C699.559 255.367 697.213 254.848 697.114 252.111C697.015 249.344 699.295 248.249 701.773 248.537C704.219 248.797 706.268 250.468 706.796 252.716C707.623 256.289 703.591 254.618 702.699 255.828H702.666Z" fill="white"/>
                    <path d="M685.885 222.226C685.885 221.275 685.687 220.381 685.29 219.517C687.042 217.961 689.19 216.52 691.602 217.586C692.528 217.99 693.155 220.699 692.495 221.592C690.908 223.782 688.198 222.514 685.885 222.226Z" fill="white"/>
                    <path d="M208.185 31.2886C208.318 33.421 208.417 35.5246 208.549 37.657C205.938 37.4265 202.27 38.2621 202.138 34.833C202.006 31.6055 205.343 31.4327 208.218 31.2886H208.185Z" fill="white"/>
                </g>
                <g opacity="0.7">
                    <mask id="mask0_3_1722" style="mask-type:luminance" maskUnits="userSpaceOnUse" x="-346" y="-468" width="3450" height="3008">
                        <path d="M3103.14 -468H-345.811V2539.44H3103.14V-468Z" fill="white"/>
                    </mask>
                    <g mask="url(#mask0_3_1722)">
                        <path d="M1378.13 -179.212H-64.0144V992.137H1378.13V-179.212Z" stroke="white" stroke-opacity="0.3" stroke-width="0.908269" stroke-miterlimit="10"/>
                        <path d="M-64.0144 788.422H1378.13" stroke="white" stroke-opacity="0.3" stroke-width="0.908269" stroke-miterlimit="10"/>
                        <path d="M-64.0144 737.483H1378.13" stroke="white" stroke-opacity="0.3" stroke-width="0.908269" stroke-miterlimit="10"/>
                        <path d="M-64.0144 686.559H1378.13" stroke="white" stroke-opacity="0.3" stroke-width="0.908269" stroke-miterlimit="10"/>
                        <path d="M-64.0144 635.631H1378.13" stroke="white" stroke-opacity="0.3" stroke-width="0.908269" stroke-miterlimit="10"/>
                        <path d="M-64.0144 584.708H1378.13" stroke="white" stroke-opacity="0.3" stroke-width="0.908269" stroke-miterlimit="10"/>
                        <path d="M-64.0144 533.782H1378.13" stroke="white" stroke-opacity="0.3" stroke-width="0.908269" stroke-miterlimit="10"/>
                        <path d="M-64.0144 482.843H1378.13" stroke="white" stroke-opacity="0.3" stroke-width="0.908269" stroke-miterlimit="10"/>
                        <path d="M-64.0144 431.918H1378.13" stroke="white" stroke-opacity="0.3" stroke-width="0.908269" stroke-miterlimit="10"/>
                        <path d="M-64.0144 380.994H1378.13" stroke="white" stroke-opacity="0.3" stroke-width="0.908269" stroke-miterlimit="10"/>
                        <path d="M-64.0144 330.068H1378.13" stroke="white" stroke-opacity="0.3" stroke-width="0.908269" stroke-miterlimit="10"/>
                        <path d="M-64.0144 279.14H1378.13" stroke="white" stroke-opacity="0.3" stroke-width="0.908269" stroke-miterlimit="10"/>
                        <path d="M-64.0144 228.202H1378.13" stroke="white" stroke-opacity="0.3" stroke-width="0.908269" stroke-miterlimit="10"/>
                        <path d="M-64.0144 177.279H1378.13" stroke="white" stroke-opacity="0.3" stroke-width="0.908269" stroke-miterlimit="10"/>
                        <path d="M-64.0144 126.353H1378.13" stroke="white" stroke-opacity="0.3" stroke-width="0.908269" stroke-miterlimit="10"/>
                        <path d="M-64.0144 75.4268H1378.13" stroke="white" stroke-opacity="0.3" stroke-width="0.908269" stroke-miterlimit="10"/>
                        <path d="M-64.0144 24.5039H1378.13" stroke="white" stroke-opacity="0.3" stroke-width="0.908269" stroke-miterlimit="10"/>
                        <path d="M1309.46 -179.212V992.122" stroke="white" stroke-opacity="0.3" stroke-width="0.908269" stroke-miterlimit="10"/>
                        <path d="M1240.79 -179.212V992.122" stroke="white" stroke-opacity="0.3" stroke-width="0.908269" stroke-miterlimit="10"/>
                        <path d="M1172.1 -179.212V992.122" stroke="white" stroke-opacity="0.3" stroke-width="0.908269" stroke-miterlimit="10"/>
                        <path d="M1103.45 -179.212V992.122" stroke="white" stroke-opacity="0.3" stroke-width="0.908269" stroke-miterlimit="10"/>
                        <path d="M1034.77 -179.212V992.122" stroke="white" stroke-opacity="0.3" stroke-width="0.908269" stroke-miterlimit="10"/>
                        <path d="M966.111 -179.212V992.122" stroke="white" stroke-opacity="0.3" stroke-width="0.908269" stroke-miterlimit="10"/>
                        <path d="M897.415 -179.212V992.122" stroke="white" stroke-opacity="0.3" stroke-width="0.908269" stroke-miterlimit="10"/>
                        <path d="M828.751 -179.212V992.122" stroke="white" stroke-opacity="0.3" stroke-width="0.908269" stroke-miterlimit="10"/>
                        <path d="M760.072 -179.212V992.122" stroke="white" stroke-opacity="0.3" stroke-width="0.908269" stroke-miterlimit="10"/>
                        <path d="M691.384 -179.212V992.122" stroke="white" stroke-opacity="0.3" stroke-width="0.908269" stroke-miterlimit="10"/>
                        <path d="M622.72 -179.212V992.122" stroke="white" stroke-opacity="0.3" stroke-width="0.908269" stroke-miterlimit="10"/>
                        <path d="M554.048 -179.212V992.122" stroke="white" stroke-opacity="0.3" stroke-width="0.908269" stroke-miterlimit="10"/>
                        <path d="M485.384 -179.212V992.122" stroke="white" stroke-opacity="0.3" stroke-width="0.908269" stroke-miterlimit="10"/>
                        <path d="M416.704 -179.212V992.122" stroke="white" stroke-opacity="0.3" stroke-width="0.908269" stroke-miterlimit="10"/>
                        <path d="M348.017 -179.212V992.122" stroke="white" stroke-opacity="0.3" stroke-width="0.908269" stroke-miterlimit="10"/>
                        <path d="M279.353 -179.212V992.122" stroke="white" stroke-opacity="0.3" stroke-width="0.908269" stroke-miterlimit="10"/>
                        <path d="M210.673 -179.212V992.122" stroke="white" stroke-opacity="0.3" stroke-width="0.908269" stroke-miterlimit="10"/>
                        <path d="M142.009 -179.212V992.122" stroke="white" stroke-opacity="0.3" stroke-width="0.908269" stroke-miterlimit="10"/>
                        <path d="M73.3293 -179.212V992.122" stroke="white" stroke-opacity="0.3" stroke-width="0.908269" stroke-miterlimit="10"/>
                        <path d="M4.6731 -179.212V992.122" stroke="white" stroke-opacity="0.3" stroke-width="0.908269" stroke-miterlimit="10"/>
                    </g>
                </g>
            </g>
            <rect x="-0.570801" width="1318.63" height="815.063" fill="url(#paint0_radial_3_1722)"/>
            <path d="M127.205 138.227C128.614 141.265 129.428 144.543 129.601 147.873C129.774 151.203 129.302 154.52 128.213 157.636C127.124 160.751 125.438 163.604 123.252 166.03C121.066 168.456 118.423 170.409 115.473 171.777C112.523 173.145 109.325 173.902 106.061 174.003C102.797 174.105 99.5303 173.549 96.4483 172.368C93.3663 171.188 90.5291 169.405 88.0987 167.122C85.6682 164.839 83.6921 162.1 82.2831 159.062L104.744 148.645L127.205 138.227Z" fill="#EF8435"/>
            <mask id="mask1_3_1722" style="mask-type:luminance" maskUnits="userSpaceOnUse" x="82" y="137" width="46" height="35">
                <path d="M124.838 137.689C126.165 140.55 126.931 143.636 127.094 146.772C127.257 149.908 126.813 153.033 125.787 155.966C124.761 158.9 123.173 161.587 121.115 163.872C119.056 166.157 116.567 167.996 113.789 169.284C111.011 170.573 108 171.285 104.925 171.38C101.851 171.476 98.7751 170.953 95.8727 169.841C92.9703 168.729 90.2983 167.05 88.0094 164.9C85.7206 162.75 83.8596 160.171 82.5327 157.31L103.685 147.499L124.838 137.689Z" stroke="white" stroke-width="0.793221"/>
            </mask>
            <g mask="url(#mask1_3_1722)">
                <path d="M124.838 137.688C126.165 140.549 126.931 143.636 127.094 146.772C127.257 149.908 126.813 153.032 125.787 155.966C124.761 158.9 123.173 161.586 121.115 163.871C119.056 166.156 116.567 167.996 113.789 169.284C111.011 170.572 107.999 171.285 104.925 171.38C101.851 171.476 98.7751 170.952 95.8726 169.841C92.9702 168.729 90.2983 167.05 88.0094 164.9C85.7205 162.75 83.8595 160.171 82.5326 157.31L103.685 147.499L124.838 137.688Z" stroke="white" stroke-width="0.793221"/>
            </g>
            <path d="M111.724 163.693C104.859 166.877 96.6359 163.727 93.3567 156.657C90.0776 149.587 92.9844 141.274 99.8492 138.09C106.714 134.906 114.937 138.056 118.217 145.127C121.496 152.197 118.589 160.509 111.724 163.693Z" fill="#5C2860"/>
            <path d="M1184.52 66.842L1177.86 55.3052L1137.66 78.5144L1144.32 90.0512L1184.52 66.842Z" fill="#EBBE52"/>
            <path d="M1183.81 64.2597L1177.31 53.0113L1137.41 76.0489L1143.91 87.2973L1183.81 64.2597Z" stroke="white" stroke-width="0.333022"/>
            <path d="M1194.82 84.6731C1193.47 82.3336 1191.64 80.2918 1189.46 78.6677C1187.27 77.0474 1184.77 75.873 1182.08 75.2156C1179.39 74.562 1176.58 74.4331 1173.8 74.8423C1171.02 75.2516 1168.33 76.1893 1165.88 77.6023C1163.44 79.0153 1161.28 80.8764 1159.54 83.0781C1157.79 85.2798 1156.5 87.7813 1155.72 90.4334C1154.95 93.0892 1154.71 95.8489 1155.02 98.5507C1155.33 101.256 1156.19 103.855 1157.54 106.194L1176.18 95.4337L1194.82 84.6731Z" fill="#EF8435"/>
            <mask id="mask2_3_1722" style="mask-type:luminance" maskUnits="userSpaceOnUse" x="1157" y="75" width="42" height="34">
                <path d="M1197.69 86.2727C1196.34 83.9293 1194.52 81.8915 1192.33 80.2673C1190.15 78.6471 1187.64 77.4727 1184.95 76.8152C1182.27 76.1617 1179.45 76.0327 1176.67 76.4421C1173.89 76.8513 1171.2 77.7888 1168.76 79.202C1166.31 80.615 1164.15 82.4761 1162.41 84.6778C1160.66 86.8795 1159.37 89.381 1158.59 92.0329C1157.82 94.6889 1157.58 97.4484 1157.89 100.15C1158.21 102.856 1159.06 105.45 1160.41 107.794L1179.05 97.0333L1197.69 86.2727Z" stroke="white" stroke-width="0.666046"/>
            </mask>
            <g mask="url(#mask2_3_1722)">
                <path d="M1197.69 86.2728C1196.34 83.9294 1194.52 81.8915 1192.33 80.2674C1190.15 78.6472 1187.64 77.4727 1184.95 76.8153C1182.27 76.1617 1179.45 76.0327 1176.67 76.4421C1173.89 76.8514 1171.2 77.7889 1168.76 79.2021C1166.31 80.6151 1164.15 82.4762 1162.41 84.6779C1160.66 86.8796 1159.37 89.381 1158.59 92.0329C1157.82 94.689 1157.58 97.4484 1157.89 100.15C1158.21 102.856 1159.06 105.45 1160.41 107.794L1179.05 97.0334L1197.69 86.2728Z" stroke="white" stroke-width="0.666046"/>
            </g>
            <path d="M176.093 500.318L209.933 531.795L163.334 544.738L176.093 500.318Z" fill="#5C2860"/>
            <path d="M171.497 544.683L185.62 495.466L223.103 530.349L171.497 544.683Z" stroke="white" stroke-width="0.447058"/>
            <path d="M1222.37 743.047C1236.05 746.256 1249.8 737.525 1253.08 723.545C1256.36 709.565 1247.93 695.63 1234.25 692.42C1220.57 689.211 1206.82 697.942 1203.54 711.922C1200.26 725.902 1208.69 739.837 1222.37 743.047Z" fill="#EF8435"/>
            <path d="M1257.17 723.086C1253.91 736.963 1240.26 745.631 1226.68 742.444C1213.1 739.258 1204.73 725.423 1207.98 711.546C1211.24 697.669 1224.89 689.001 1238.47 692.187C1252.05 695.374 1260.42 709.209 1257.17 723.086Z" stroke="white" stroke-width="0.368162"/>
            <path d="M1214.27 719.404L1225.35 752.43L1189.66 744.056L1214.27 719.404Z" fill="#5C2860"/>
            <path d="M1183.16 745.644L1207.32 721.444L1218.2 753.865L1183.16 745.644Z" stroke="white" stroke-width="0.368162"/>
            <path d="M50.6344 305.638C57.0257 305.638 62.2068 300.302 62.2068 293.72C62.2068 287.137 57.0257 281.801 50.6344 281.801C44.2432 281.801 39.062 287.137 39.062 293.72C39.062 300.302 44.2432 305.638 50.6344 305.638Z" fill="#4AA35C"/>
            <path d="M56.1486 302.9C62.2889 302.9 67.2665 297.774 67.2665 291.45C67.2665 285.126 62.2889 280 56.1486 280C50.0084 280 45.0308 285.126 45.0308 291.45C45.0308 297.774 50.0084 302.9 56.1486 302.9Z" stroke="white" stroke-width="0.909219"/>
            <path d="M62.5681 717.624L75.0037 764.096L27.1046 750.131L62.5681 717.624Z" fill="#4AA35C"/>
            <path d="M37.0073 748.369L71.7591 716.514L83.9456 762.055L37.0073 748.369Z" stroke="white" stroke-width="0.555187"/>
            <path d="M1161.68 151.286L1166.36 164.606L1179.68 169.286H1161.68V151.286Z" fill="#4AA35C"/>
            <path d="M1161.68 151.286L1157 164.606L1143.68 169.286H1161.68V151.286Z" fill="#4AA35C"/>
            <path d="M1161.68 187.286L1157 173.966L1143.68 169.286H1161.68V187.286Z" fill="#4AA35C"/>
            <path d="M1161.68 187.286L1166.36 173.966L1179.68 169.286H1161.68V187.286Z" fill="#4AA35C"/>
        </g>
        <path d="M49.0393 38.8182V44.2727H32.8802V38.8182H49.0393ZM36.5791 65V36.9261C36.5791 35.0284 36.9484 33.4545 37.687 32.2045C38.437 30.9545 39.4597 30.017 40.7552 29.392C42.0506 28.767 43.5222 28.4545 45.17 28.4545C46.2836 28.4545 47.3006 28.5398 48.2211 28.7102C49.1529 28.8807 49.8461 29.0341 50.3006 29.1705L49.0052 34.625C48.7211 34.5341 48.3688 34.4489 47.9484 34.3693C47.5393 34.2898 47.1188 34.25 46.687 34.25C45.6188 34.25 44.8745 34.5 44.4541 35C44.0336 35.4886 43.8234 36.1761 43.8234 37.0625V65H36.5791ZM60.0038 65.4943C58.3333 65.4943 56.8447 65.2045 55.5379 64.625C54.231 64.0341 53.197 63.1648 52.4356 62.017C51.6856 60.858 51.3106 59.4148 51.3106 57.6875C51.3106 56.233 51.5776 55.0114 52.1117 54.0227C52.6458 53.0341 53.3731 52.2386 54.2935 51.6364C55.214 51.0341 56.2595 50.5795 57.4299 50.2727C58.6117 49.9659 59.8504 49.75 61.1458 49.625C62.6685 49.4659 63.8958 49.3182 64.8276 49.1818C65.7595 49.0341 66.4356 48.8182 66.856 48.5341C67.2765 48.25 67.4867 47.8295 67.4867 47.2727V47.1705C67.4867 46.0909 67.1458 45.2557 66.464 44.6648C65.7935 44.0739 64.839 43.7784 63.6004 43.7784C62.2935 43.7784 61.2538 44.0682 60.481 44.6477C59.7083 45.2159 59.197 45.9318 58.947 46.7955L52.231 46.25C52.572 44.6591 53.2424 43.2841 54.2424 42.125C55.2424 40.9545 56.5322 40.0568 58.1117 39.4318C59.7026 38.7955 61.5435 38.4773 63.6345 38.4773C65.089 38.4773 66.481 38.6477 67.8106 38.9886C69.1515 39.3295 70.339 39.858 71.3731 40.5739C72.4185 41.2898 73.2424 42.2102 73.8447 43.3352C74.447 44.4489 74.7481 45.7841 74.7481 47.3409V65H67.8617V61.3693H67.6572C67.2367 62.1875 66.6742 62.9091 65.9697 63.5341C65.2651 64.1477 64.4185 64.6307 63.4299 64.983C62.4413 65.3239 61.2992 65.4943 60.0038 65.4943ZM62.0833 60.483C63.1515 60.483 64.0947 60.2727 64.9129 59.8523C65.731 59.4205 66.3731 58.8409 66.839 58.1136C67.3049 57.3864 67.5379 56.5625 67.5379 55.642V52.8636C67.3106 53.0114 66.9981 53.1477 66.6004 53.2727C66.214 53.3864 65.7765 53.4943 65.2879 53.5966C64.7992 53.6875 64.3106 53.7727 63.822 53.8523C63.3333 53.9205 62.8901 53.983 62.4924 54.0398C61.6401 54.1648 60.8958 54.3636 60.2595 54.6364C59.6231 54.9091 59.1288 55.2784 58.7765 55.7443C58.4242 56.1989 58.2481 56.767 58.2481 57.4489C58.2481 58.4375 58.606 59.1932 59.322 59.7159C60.0492 60.2273 60.9697 60.483 62.0833 60.483ZM102.166 46.2841L95.518 46.6932C95.4043 46.125 95.16 45.6136 94.785 45.1591C94.41 44.6932 93.9157 44.3239 93.3021 44.0511C92.6998 43.767 91.9782 43.625 91.1373 43.625C90.0123 43.625 89.0634 43.8636 88.2907 44.3409C87.518 44.8068 87.1316 45.4318 87.1316 46.2159C87.1316 46.8409 87.3816 47.3693 87.8816 47.8011C88.3816 48.233 89.2396 48.5795 90.4555 48.8409L95.1941 49.7955C97.7396 50.3182 99.6373 51.1591 100.887 52.3182C102.137 53.4773 102.762 55 102.762 56.8864C102.762 58.6023 102.257 60.108 101.245 61.4034C100.245 62.6989 98.8703 63.7102 97.1203 64.4375C95.3816 65.1534 93.3759 65.5114 91.1032 65.5114C87.6373 65.5114 84.8759 64.7898 82.8191 63.3466C80.7737 61.892 79.5748 59.9148 79.2225 57.4148L86.3646 57.0398C86.5805 58.0966 87.1032 58.9034 87.9328 59.4602C88.7623 60.0057 89.8248 60.2784 91.1203 60.2784C92.393 60.2784 93.4157 60.0341 94.1884 59.5455C94.9725 59.0455 95.3703 58.4034 95.3816 57.6193C95.3703 56.9602 95.0918 56.4205 94.5464 56C94.0009 55.5682 93.16 55.2386 92.0237 55.0114L87.4896 54.108C84.9328 53.5966 83.0293 52.7102 81.7793 51.4489C80.5407 50.1875 79.9214 48.5795 79.9214 46.625C79.9214 44.9432 80.3759 43.4943 81.285 42.2784C82.2055 41.0625 83.4953 40.125 85.1543 39.4659C86.8248 38.8068 88.7793 38.4773 91.018 38.4773C94.3248 38.4773 96.9271 39.1761 98.8248 40.5739C100.734 41.9716 101.848 43.875 102.166 46.2841ZM121.261 38.8182V44.2727H105.494V38.8182H121.261ZM109.073 32.5455H116.335V56.9545C116.335 57.625 116.437 58.1477 116.642 58.5227C116.846 58.8864 117.13 59.142 117.494 59.2898C117.869 59.4375 118.301 59.5114 118.789 59.5114C119.13 59.5114 119.471 59.483 119.812 59.4261C120.153 59.358 120.414 59.3068 120.596 59.2727L121.738 64.6761C121.375 64.7898 120.863 64.9205 120.204 65.0682C119.545 65.2273 118.744 65.3239 117.801 65.358C116.051 65.4261 114.517 65.1932 113.198 64.6591C111.892 64.125 110.875 63.2955 110.147 62.1705C109.42 61.0455 109.062 59.625 109.073 57.9091V32.5455ZM133.252 49.8636V65H125.991V38.8182H132.911V43.4375H133.218C133.798 41.9148 134.769 40.7102 136.133 39.8239C137.497 38.9261 139.15 38.4773 141.093 38.4773C142.911 38.4773 144.497 38.875 145.849 39.6705C147.201 40.4659 148.252 41.6023 149.002 43.0795C149.752 44.5455 150.127 46.2955 150.127 48.3295V65H142.866V49.625C142.877 48.0227 142.468 46.7727 141.639 45.875C140.809 44.9659 139.667 44.5114 138.213 44.5114C137.235 44.5114 136.372 44.7216 135.622 45.142C134.883 45.5625 134.303 46.1761 133.883 46.983C133.474 47.7784 133.264 48.7386 133.252 49.8636Z" fill="#EF8435"/>
    </g>
    <defs>
        <radialGradient id="paint0_radial_3_1722" cx="0" cy="0" r="1" gradientUnits="userSpaceOnUse" gradientTransform="translate(658.287 593.288) rotate(90) scale(937.528 1516.76)">
            <stop stop-opacity="0.18"/>
            <stop offset="0.0001" stop-opacity="0"/>
            <stop offset="1"/>
        </radialGradient>
        <clipPath id="clip0_3_1722">
            <rect width="1318" height="816" fill="white"/>
        </clipPath>
        <clipPath id="clip1_3_1722">
            <rect width="1322" height="813" fill="white" transform="translate(-3.93799)"/>
        </clipPath>
        <clipPath id="clip2_3_1722">
            <rect width="2005.76" height="1749" fill="white" transform="translate(-345.819 -468)"/>
        </clipPath>
    </defs>
</svg>
