<svg width="733" height="224" viewBox="0 0 733 224" fill="none" xmlns="http://www.w3.org/2000/svg">
<path d="M159.346 224C156.841 223.998 154.369 223.431 152.114 222.34C149.858 221.249 147.877 219.662 146.318 217.698C141.494 212.479 104.211 175.788 81.365 153.418C79.7839 151.891 78.5199 150.066 77.6458 148.047C76.7718 146.029 76.3049 143.857 76.2721 141.657C76.2394 139.457 76.6413 137.272 77.4548 135.228C78.2684 133.184 79.4775 131.322 81.0124 129.748C82.5473 128.175 84.3778 126.921 86.3984 126.059C88.419 125.197 90.5898 124.745 92.7858 124.727C94.9818 124.709 97.1596 125.127 99.1937 125.956C101.228 126.786 103.078 128.01 104.638 129.559C104.801 129.719 121.255 145.832 137.586 161.928L142.703 166.973V88.6212C142.703 58.151 118.164 33.3614 88 33.3614C57.8361 33.3614 33.2973 58.151 33.2973 88.6212V207.318C33.2973 211.742 31.5432 215.985 28.421 219.113C25.2988 222.241 21.0641 223.998 16.6486 223.998C12.2331 223.998 7.9985 222.241 4.87627 219.113C1.75405 215.985 0 211.742 0 207.318V88.6212C0 39.755 39.4765 0 88 0C136.523 0 176 39.755 176 88.6212V207.318C175.998 211.742 174.243 215.985 171.12 219.114C167.997 222.242 163.762 223.999 159.346 224Z" fill="url(#paint0_linear_1_9)"/>
<path d="M88.001 104.655C98.5095 104.655 107.028 96.1202 107.028 85.5914C107.028 75.0627 98.5095 66.5275 88.001 66.5275C77.4925 66.5275 68.9737 75.0627 68.9737 85.5914C68.9737 96.1202 77.4925 104.655 88.001 104.655Z" fill="url(#paint1_linear_1_9)"/>
<path d="M214.176 148.5H204.096C201.92 148.5 200.48 148.148 199.776 147.444C199.136 146.74 198.816 145.3 198.816 143.124V84.66C198.816 82.42 199.168 80.948 199.872 80.244C200.576 79.476 201.984 79.092 204.096 79.092H214.176V148.5ZM238.08 105.876V111.636C238.08 113.94 237.856 115.412 237.408 116.052C236.96 116.628 235.68 116.916 233.568 116.916H218.016V105.876H238.08ZM241.92 79.092V87.348C241.92 89.524 241.568 90.964 240.864 91.668C240.16 92.308 238.688 92.628 236.448 92.628H218.016V79.092H241.92ZM246.525 79.092H276.573C277.597 79.092 278.429 79.444 279.069 80.148C279.709 80.852 280.029 81.78 280.029 82.932V148.5H269.949C267.773 148.5 266.333 148.148 265.629 147.444C264.989 146.74 264.669 145.268 264.669 143.028V91.092H249.309C247.453 91.092 246.525 89.556 246.525 86.484V79.092ZM283.869 79.092H299.229C301.085 79.092 302.013 80.628 302.013 83.7V91.092H283.869V79.092ZM355.229 113.652L355.325 129.876C355.325 137.492 354.365 142.516 352.445 144.948C350.525 147.316 347.037 148.5 341.981 148.5H327.869V139.38H334.973C336.573 139.38 337.629 139.188 338.141 138.804C338.653 138.42 338.909 137.684 338.909 136.596V91.092C338.909 89.94 338.653 89.172 338.141 88.788C337.629 88.404 336.573 88.212 334.973 88.212H327.869V79.092H342.941C347.613 79.092 350.845 80.18 352.637 82.356C354.493 84.468 355.421 88.628 355.421 94.836L355.229 113.652ZM324.989 148.596H314.909C312.797 148.596 311.389 148.244 310.685 147.54C309.981 146.772 309.629 145.3 309.629 143.124V84.564C309.629 82.388 309.981 80.948 310.685 80.244C311.389 79.476 312.797 79.092 314.909 79.092H324.989V148.596ZM413.048 100.5H423.992C425.016 100.5 425.848 100.852 426.488 101.556C427.128 102.26 427.448 103.188 427.448 104.34V138.42C427.448 139.444 427.672 140.18 428.12 140.628C428.632 141.076 429.72 141.3 431.384 141.3H436.568V148.5H423.512C416.536 148.5 413.048 145.076 413.048 138.228V100.5ZM387.032 100.5H397.976C399 100.5 399.832 100.852 400.472 101.556C401.112 102.26 401.432 103.188 401.432 104.34V138.42C401.432 139.444 401.656 140.18 402.104 140.628C402.616 141.076 403.704 141.3 405.368 141.3H410.552V148.5H397.496C390.52 148.5 387.032 145.076 387.032 138.228V100.5ZM439.448 100.5H450.392C451.416 100.5 452.248 100.852 452.888 101.556C453.528 102.26 453.848 103.188 453.848 104.34V141.108C453.848 143.284 453.112 145.076 451.64 146.484C450.232 147.828 448.12 148.5 445.304 148.5H439.448V100.5ZM464.756 100.596H470.612C473.428 100.596 475.54 101.3 476.948 102.708C478.42 104.052 479.156 105.812 479.156 107.988V148.5H468.212C467.188 148.5 466.356 148.148 465.716 147.444C465.076 146.74 464.756 145.812 464.756 144.66V100.596ZM465.428 80.148C466.132 79.444 468.18 79.092 471.572 79.092C474.964 79.092 477.012 79.444 477.716 80.148C478.42 80.788 478.772 82.708 478.772 85.908C478.772 89.108 478.388 91.06 477.62 91.764C476.916 92.468 474.9 92.82 471.572 92.82C468.244 92.82 466.196 92.468 465.428 91.764C464.724 91.06 464.372 89.108 464.372 85.908C464.372 82.708 464.724 80.788 465.428 80.148ZM514.546 147.732C514.546 148.116 514.354 148.372 513.97 148.5H506.674C502.002 148.5 498.61 147.572 496.498 145.716C494.386 143.86 493.33 140.596 493.33 135.924V107.892H488.434C486.834 107.892 486.034 106.932 486.034 105.012V100.5H493.33V79.092H499.186C502.002 79.092 504.114 79.796 505.522 81.204C506.994 82.612 507.73 84.404 507.73 86.58V137.652C507.73 140.02 509.074 141.204 511.762 141.204H513.778C514.29 141.204 514.546 141.428 514.546 141.876V147.732ZM517.522 100.5V105.012C517.522 106.932 516.722 107.892 515.122 107.892H510.13V100.5H517.522ZM540.618 100.5H554.058C561.034 100.5 564.522 103.924 564.522 110.772V148.5H553.578C552.554 148.5 551.722 148.148 551.082 147.444C550.442 146.74 550.122 145.812 550.122 144.66V110.58C550.122 109.556 549.866 108.82 549.354 108.372C548.906 107.924 547.85 107.7 546.186 107.7H540.618V100.5ZM523.818 79.092H529.674C532.49 79.092 534.602 79.796 536.01 81.204C537.482 82.548 538.218 84.308 538.218 86.484V148.5H527.274C526.25 148.5 525.418 148.148 524.778 147.444C524.138 146.74 523.818 145.812 523.818 144.66V79.092ZM622.328 88.212H613.4C612.376 88.212 611.864 88.468 611.864 88.98V148.5H601.784C599.608 148.5 598.168 148.148 597.464 147.444C596.824 146.74 596.504 145.268 596.504 143.028V84.564C596.504 82.324 596.824 80.852 597.464 80.148C598.168 79.444 599.608 79.092 601.784 79.092H622.328V88.212ZM626.168 79.092H636.248C638.424 79.092 639.832 79.444 640.472 80.148C641.176 80.852 641.528 82.324 641.528 84.564V142.932C641.528 145.172 641.176 146.676 640.472 147.444C639.768 148.148 638.36 148.5 636.248 148.5H626.168V116.34H615.704V107.22H626.168V79.092ZM653.943 100.596H659.799C662.615 100.596 664.727 101.3 666.135 102.708C667.607 104.052 668.343 105.812 668.343 107.988V159.156C668.343 162.932 667.479 165.652 665.751 167.316C664.087 168.98 661.463 169.812 657.879 169.812H648.279C647.895 169.812 647.703 169.588 647.703 169.14V163.284C647.703 162.836 647.959 162.612 648.471 162.612H650.871C652.407 162.612 653.303 162.324 653.559 161.748C653.815 160.916 653.943 159.988 653.943 158.964V100.596ZM654.903 80.148C655.607 79.444 657.655 79.092 661.047 79.092C664.439 79.092 666.487 79.444 667.191 80.148C667.895 80.788 668.247 82.708 668.247 85.908C668.247 89.108 667.863 91.06 667.095 91.764C666.391 92.468 664.375 92.82 661.047 92.82C657.719 92.82 655.671 92.468 654.903 91.764C654.199 91.06 653.847 89.108 653.847 85.908C653.847 82.708 654.199 80.788 654.903 80.148ZM679.349 100.596H685.205C688.021 100.596 690.133 101.3 691.541 102.708C693.013 104.052 693.749 105.812 693.749 107.988V148.5H682.805C681.781 148.5 680.949 148.148 680.309 147.444C679.669 146.74 679.349 145.812 679.349 144.66V100.596ZM680.021 80.148C680.725 79.444 682.773 79.092 686.165 79.092C689.557 79.092 691.605 79.444 692.309 80.148C693.013 80.788 693.365 82.708 693.365 85.908C693.365 89.108 692.981 91.06 692.213 91.764C691.509 92.468 689.493 92.82 686.165 92.82C682.837 92.82 680.789 92.468 680.021 91.764C679.317 91.06 678.965 89.108 678.965 85.908C678.965 82.708 679.317 80.788 680.021 80.148ZM729.14 147.732C729.14 148.116 728.948 148.372 728.564 148.5H721.268C716.596 148.5 713.204 147.572 711.092 145.716C708.98 143.86 707.924 140.596 707.924 135.924V107.892H703.028C701.428 107.892 700.628 106.932 700.628 105.012V100.5H707.924V79.092H713.78C716.596 79.092 718.708 79.796 720.116 81.204C721.588 82.612 722.324 84.404 722.324 86.58V137.652C722.324 140.02 723.668 141.204 726.356 141.204H728.372C728.884 141.204 729.14 141.428 729.14 141.876V147.732ZM732.116 100.5V105.012C732.116 106.932 731.316 107.892 729.716 107.892H724.724V100.5H732.116Z" fill="#54BEB2"/>
<defs>
<linearGradient id="paint0_linear_1_9" x1="88" y1="226.688" x2="88" y2="0.671991" gradientUnits="userSpaceOnUse">
<stop stop-color="#00C0F4"/>
<stop offset="1" stop-color="#12ECA0"/>
</linearGradient>
<linearGradient id="paint1_linear_1_9" x1="88.001" y1="226.627" x2="88.001" y2="0.64242" gradientUnits="userSpaceOnUse">
<stop stop-color="#00C0F4"/>
<stop offset="1" stop-color="#12ECA0"/>
</linearGradient>
</defs>
</svg>
