<svg width="24" height="24" viewBox="0 0 24 24" fill="none" xmlns="http://www.w3.org/2000/svg">
<path fill-rule="evenodd" clip-rule="evenodd" d="M3.75 5.5C3.33579 5.5 3 5.83579 3 6.25C3 6.66421 3.33579 7 3.75 7H19.75C20.1642 7 20.5 6.66421 20.5 6.25C20.5 5.83579 20.1642 5.5 19.75 5.5H3.75ZM3.75 11.5C3.33579 11.5 3 11.8358 3 12.25C3 12.6642 3.33579 13 3.75 13H16.25C16.6642 13 17 12.6642 17 12.25C17 11.8358 16.6642 11.5 16.25 11.5H3.75ZM3.75 17.5C3.33579 17.5 3 17.8358 3 18.25C3 18.6642 3.33579 19 3.75 19H12.25C12.6642 19 13 18.6642 13 18.25C13 17.8358 12.6642 17.5 12.25 17.5H3.75Z" fill="white"/>
</svg>
