<svg width="26" height="19" viewBox="0 0 26 19" fill="none" xmlns="http://www.w3.org/2000/svg">
<path d="M2 8.25L0.75 8.25L0.75 10.75L2 10.75L2 8.25ZM24.8839 10.3839C25.372 9.89573 25.372 9.10427 24.8839 8.61611L16.9289 0.661164C16.4408 0.173009 15.6493 0.173009 15.1612 0.661164C14.673 1.14932 14.673 1.94078 15.1612 2.42893L22.2322 9.5L15.1612 16.5711C14.673 17.0592 14.673 17.8507 15.1612 18.3388C15.6493 18.827 16.4408 18.827 16.9289 18.3388L24.8839 10.3839ZM2 10.75L24 10.75L24 8.25L2 8.25L2 10.75Z" fill="white"/>
</svg>
