<svg xmlns="http://www.w3.org/2000/svg" width="48" height="48" fill="none"><rect width="48" height="48" fill="#F9F9F9" rx="24"/><path stroke="#49556D" stroke-linecap="round" stroke-width="2" d="M18.667 20v-2.667a5.333 5.333 0 0 1 10.667 0V20m-10.4 16h10.133c1.494 0 2.24 0 2.81-.29.502-.256.91-.664 1.166-1.166.29-.57.29-1.317.29-2.81v-7.467c0-1.494 0-2.24-.29-2.811a2.67 2.67 0 0 0-1.165-1.165C31.308 20 30.56 20 29.067 20H18.934c-1.494 0-2.24 0-2.811.29-.502.256-.91.664-1.165 1.166-.291.57-.291 1.317-.291 2.81v7.467c0 1.494 0 2.24.29 2.811.256.502.664.91 1.166 1.165.57.291 1.317.291 2.81.291Z"/></svg>