<svg version="1.1" xmlns="http://www.w3.org/2000/svg" viewBox="0 0 718.0625 551.33984375" width="718.0625" height="551.33984375">
  <!-- svg-source:excalidraw -->
  
  <defs>
    <style class="style-fonts">
      @font-face {
        font-family: "Virgil";
        src: url("https://excalidraw.com/Virgil.woff2");
      }
      @font-face {
        font-family: "Cascadia";
        src: url("https://excalidraw.com/Cascadia.woff2");
      }
    </style>
    
  </defs>
  <g stroke-linecap="round" transform="translate(191.3046875 109.17578125) rotate(0 0.13671875 0.13671875)"><path d="M0.07 0 M0.07 0 C0.09 -0.01, 0.13 -0.01, 0.21 0 M0.07 0 C0.11 0, 0.14 0, 0.21 0 M0.21 0 C1.99 -1.35, -1.62 -0.16, 0.27 0.07 M0.21 0 C1.07 0.44, 0.62 -2.23, 0.27 0.07 M0.27 0.07 C0.28 0.1, 0.28 0.14, 0.27 0.21 M0.27 0.07 C0.27 0.1, 0.28 0.14, 0.27 0.21 M0.27 0.21 C1.14 -0.04, 0.2 2.23, 0.21 0.27 M0.27 0.21 C1.49 2.07, -0.84 2.06, 0.21 0.27 M0.21 0.27 C0.15 0.28, 0.13 0.27, 0.07 0.27 M0.21 0.27 C0.17 0.28, 0.13 0.27, 0.07 0.27 M0.07 0.27 C0.97 1.06, 0.18 -1.29, 0 0.21 M0.07 0.27 C-0.53 2.19, 0.6 1.52, 0 0.21 M0 0.21 C0.01 0.18, 0 0.15, 0 0.07 M0 0.21 C0 0.15, 0.01 0.09, 0 0.07 M0 0.07 C-1.16 1.58, -0.12 0.98, 0.07 0 M0 0.07 C-0.54 1.29, -1.48 0.85, 0.07 0" stroke="#1e1e1e" stroke-width="1" fill="none"></path></g><g stroke-linecap="round" transform="translate(10 10) rotate(0 349.03125 265.669921875)"><path d="M32 0 M32 0 C160.67 2.51, 287.97 2.31, 666.06 0 M32 0 C177.42 1.92, 322.81 2.23, 666.06 0 M666.06 0 C688.7 0.87, 697.78 10.62, 698.06 32 M666.06 0 C689.65 1.22, 699.88 9.58, 698.06 32 M698.06 32 C699.39 208.22, 699.19 385.84, 698.06 499.34 M698.06 32 C697.38 170.16, 697.69 308.57, 698.06 499.34 M698.06 499.34 C696.78 521.62, 688.18 531.52, 666.06 531.34 M698.06 499.34 C696.29 520.12, 689.32 531.94, 666.06 531.34 M666.06 531.34 C440.97 531.83, 215.68 531.35, 32 531.34 M666.06 531.34 C471.29 530.6, 276.32 531.12, 32 531.34 M32 531.34 C8.71 530.18, 1.55 520.53, 0 499.34 M32 531.34 C11.8 530.8, 1.27 519.17, 0 499.34 M0 499.34 C1.52 342.66, 0.61 183.73, 0 32 M0 499.34 C0.02 327.11, 0.01 154.6, 0 32 M0 32 C-0.74 10.41, 10.77 -1.6, 32 0 M0 32 C-1.68 9.46, 9.07 0.03, 32 0" stroke="#1e1e1e" stroke-width="1" fill="none"></path></g><g stroke-linecap="round" transform="translate(113.58203125 82.76953125) rotate(0 43.5234375 73.048828125)"><path d="M21.76 0 M21.76 0 C33.43 0.04, 45.27 -0.55, 65.29 0 M21.76 0 C39.57 0.18, 56.31 0.02, 65.29 0 M65.29 0 C80.9 -1.31, 87.79 6.61, 87.05 21.76 M65.29 0 C78.33 2.14, 89.17 7.07, 87.05 21.76 M87.05 21.76 C87.71 45.51, 87.43 69.75, 87.05 124.34 M87.05 21.76 C86.72 42.36, 85.94 64.04, 87.05 124.34 M87.05 124.34 C85.66 138.87, 81.52 145.28, 65.29 146.1 M87.05 124.34 C85.47 138.75, 78.97 147, 65.29 146.1 M65.29 146.1 C50.89 147.59, 36.63 147.98, 21.76 146.1 M65.29 146.1 C47.87 146.64, 32.1 145.87, 21.76 146.1 M21.76 146.1 C8.76 144.3, -1.13 137.12, 0 124.34 M21.76 146.1 C6 144.06, -0.82 138.92, 0 124.34 M0 124.34 C-1.53 94.79, 0.96 62.53, 0 21.76 M0 124.34 C0.14 91, 1.4 58.74, 0 21.76 M0 21.76 C-1.96 6.01, 6.05 1.1, 21.76 0 M0 21.76 C-0.62 5.38, 6.96 0.65, 21.76 0" stroke="#1e1e1e" stroke-width="1" fill="none"></path></g><g transform="translate(129.75390625 135.61328125) rotate(0 26.78998565673828 12.5)"><text x="0" y="0" font-family="Virgil, Segoe UI Emoji" font-size="20px" fill="#1e1e1e" text-anchor="start" style="white-space: pre;" direction="ltr" dominant-baseline="text-before-edge">Data</text></g><g transform="translate(251.4921875 65.26171875) rotate(0 72.12992095947266 12.5)"><text x="0" y="0" font-family="Virgil, Segoe UI Emoji" font-size="20px" fill="#1e1e1e" text-anchor="start" style="white-space: pre;" direction="ltr" dominant-baseline="text-before-edge">http processor</text></g><g stroke-linecap="round" transform="translate(456.19140625 129.61328125) rotate(0 72.056640625 33.31640625)"><path d="M16.66 0 M16.66 0 C47.39 2.1, 78.97 1.43, 127.46 0 M16.66 0 C40.95 -0.22, 67.22 -0.37, 127.46 0 M127.46 0 C137.91 -0.43, 145.22 3.76, 144.11 16.66 M127.46 0 C139.05 1.74, 142.88 4.85, 144.11 16.66 M144.11 16.66 C143.19 27.59, 143.4 41.13, 144.11 49.97 M144.11 16.66 C142.93 27.77, 144.56 39.07, 144.11 49.97 M144.11 49.97 C143.14 61.58, 140.36 66.19, 127.46 66.63 M144.11 49.97 C146.37 59.08, 138.23 67.02, 127.46 66.63 M127.46 66.63 C90.87 65.59, 56.42 68.64, 16.66 66.63 M127.46 66.63 C100.23 65.72, 70.74 65.65, 16.66 66.63 M16.66 66.63 C7.37 67.82, -0.36 59.86, 0 49.97 M16.66 66.63 C7.62 68.18, -0.45 59.8, 0 49.97 M0 49.97 C-1.22 39.17, -1.24 25.59, 0 16.66 M0 49.97 C1.07 41.24, -0.33 34.36, 0 16.66 M0 16.66 C1.87 4.39, 5.47 1.1, 16.66 0 M0 16.66 C0.59 4.21, 6.36 -1.43, 16.66 0" stroke="#1e1e1e" stroke-width="1" fill="none"></path></g><g transform="translate(496.78515625 149.984375) rotate(0 30.319969177246094 12.5)"><text x="0" y="0" font-family="Virgil, Segoe UI Emoji" font-size="20px" fill="#1e1e1e" text-anchor="start" style="white-space: pre;" direction="ltr" dominant-baseline="text-before-edge">record</text></g><g stroke-linecap="round" transform="translate(298.734375 335.8671875) rotate(0 108.935546875 85.734375)"><path d="M-1.47 -0.08 C71.15 -2.2, 141.54 0.25, 216.31 0.42 M-0.25 -0.73 C77.84 0.87, 155.98 0.05, 217.14 -0.66 M216.8 1.83 C214.93 34.17, 217.61 69.87, 218.13 173.29 M218.28 -0.85 C218.02 42.91, 217.32 86.75, 217.5 172.01 M217.44 169.79 C158.58 168.86, 96.06 171.9, 1.64 171.47 M217.1 170.89 C155.48 169.65, 93.19 170.25, -0.01 171.18 M-1.72 173.01 C1.58 113.9, 0.33 56.78, 1.36 0.36 M0.01 171.2 C1.02 116.71, 1.92 61.86, 0.72 -0.66" stroke="#1e1e1e" stroke-width="1" fill="none"></path></g><g stroke-linecap="round"><g transform="translate(300.59765625 378.67578125) rotate(0 107.47436388374882 -0.21058641127706323)"><path d="M-1.11 -0.24 C43.7 -1.09, 86.37 -0.02, 216.06 -0.27 M0.1 0.16 C61.42 -1.09, 124.4 -0.78, 215.1 0.24" stroke="#1e1e1e" stroke-width="1" fill="none"></path></g></g><mask></mask><g stroke-linecap="round"><g transform="translate(404.328125 338.265625) rotate(0 0.28278419727826076 85.07381530897692)"><path d="M0.31 0.81 C-2.19 57.95, -0.34 113.85, 1.47 170 M0.08 0.14 C0.28 37.56, 0.1 73.99, -0.52 169.24" stroke="#1e1e1e" stroke-width="1" fill="none"></path></g></g><mask></mask><g transform="translate(233.08984375 470.234375) rotate(0 27.879981994628906 10)"><text x="0" y="0" font-family="Virgil, Segoe UI Emoji" font-size="16px" fill="#1e1e1e" text-anchor="start" style="white-space: pre;" direction="ltr" dominant-baseline="text-before-edge">Output</text></g><g transform="translate(372.796875 300.37109375) rotate(0 25.499977111816406 12.5)"><text x="0" y="0" font-family="Virgil, Segoe UI Emoji" font-size="20px" fill="#1e1e1e" text-anchor="start" style="white-space: pre;" direction="ltr" dominant-baseline="text-before-edge">table</text></g><g transform="translate(455.42578125 96.0859375) rotate(0 69.8399429321289 12.5)"><text x="0" y="0" font-family="Virgil, Segoe UI Emoji" font-size="20px" fill="#1e1e1e" text-anchor="start" style="white-space: pre;" direction="ltr" dominant-baseline="text-before-edge">data modelling</text></g><g transform="translate(83.8984375 238.359375) rotate(0 50.887977600097656 10)"><text x="0" y="0" font-family="Virgil, Segoe UI Emoji" font-size="16px" fill="#1e1e1e" text-anchor="start" style="white-space: pre;" direction="ltr" dominant-baseline="text-before-edge">over internet</text></g><g mask="url(#mask-rJAml9GWQGtPUZdvHiONn)" stroke-linecap="round"><g transform="translate(448.203125 141.87890625) rotate(0 -121.71112598568129 -0.09103802234261593)"><path d="M1.6 -1.58 C-71.42 1.61, -144.1 1.48, -245.03 0.61 M-0.1 0.47 C-56.72 -0.7, -113.56 -0.76, -243.91 1.4" stroke="#1e1e1e" stroke-width="1" fill="none"></path></g><g transform="translate(448.203125 141.87890625) rotate(0 -121.71112598568129 -0.09103802234261593)"><path d="M-213.92 -11.17 C-223.2 -4.3, -232.08 -1.52, -244.6 1.44 M-215.99 -8.67 C-222.22 -7.35, -228.79 -5.12, -243.24 2.4" stroke="#1e1e1e" stroke-width="1" fill="none"></path></g><g transform="translate(448.203125 141.87890625) rotate(0 -121.71112598568129 -0.09103802234261593)"><path d="M-213.64 9.35 C-223.07 10.16, -232.04 6.88, -244.6 1.44 M-215.71 11.85 C-222.14 8.4, -228.77 5.86, -243.24 2.4" stroke="#1e1e1e" stroke-width="1" fill="none"></path></g></g><mask id="mask-rJAml9GWQGtPUZdvHiONn"><rect x="0" y="0" fill="#fff" width="792.6640625" height="242.45703125"></rect><rect x="296.00467681884766" y="132.16796875" fill="#000" width="59.93595886230469" height="20" opacity="1"></rect></mask><g transform="translate(296.00467681884766 132.16796875) rotate(0 30.48732219547105 9.619899477657384)"><text x="29.967979431152344" y="0" font-family="Virgil, Segoe UI Emoji" font-size="16px" fill="#1e1e1e" text-anchor="middle" style="white-space: pre;" direction="ltr" dominant-baseline="text-before-edge">request</text></g><g mask="url(#mask-Mnip-NzMOLqXjHcLFqPqB)" stroke-linecap="round"><g transform="translate(212.05859375 172.07421875) rotate(0 119.01676469432039 -0.8050916925348588)"><path d="M-0.4 -0.7 C83.16 -1.04, 168.23 -0.71, 237.24 -0.75 M0.62 -0.12 C79.78 -0.41, 157.98 -0.77, 238.43 -1.49" stroke="#1e1e1e" stroke-width="1" fill="none"></path></g><g transform="translate(212.05859375 172.07421875) rotate(0 119.01676469432039 -0.8050916925348588)"><path d="M209.84 8.16 C218.67 3.47, 229.25 0.57, 237.83 -1.17 M211.06 8.84 C220.56 5.5, 228.89 1.99, 239.25 -2.05" stroke="#1e1e1e" stroke-width="1" fill="none"></path></g><g transform="translate(212.05859375 172.07421875) rotate(0 119.01676469432039 -0.8050916925348588)"><path d="M209.69 -12.36 C218.48 -9.75, 229.12 -5.35, 237.83 -1.17 M210.9 -11.68 C220.41 -8.19, 228.79 -4.88, 239.25 -2.05" stroke="#1e1e1e" stroke-width="1" fill="none"></path></g></g><mask id="mask-Mnip-NzMOLqXjHcLFqPqB"><rect x="0" y="0" fill="#fff" width="549.80859375" height="273.0859375"></rect><rect x="297.9416198730469" y="161.568359375" fill="#000" width="65.98394775390625" height="20" opacity="1"></rect></mask><g transform="translate(297.9416198730469 161.568359375) rotate(0 33.13373857127351 9.700767682465141)"><text x="32.991973876953125" y="0" font-family="Virgil, Segoe UI Emoji" font-size="16px" fill="#1e1e1e" text-anchor="middle" style="white-space: pre;" direction="ltr" dominant-baseline="text-before-edge">response</text></g><g stroke-linecap="round"><g transform="translate(497.54098788641295 203.1015625) rotate(0 -41.68336327964721 47.664778374601156)"><path d="M0.78 1.28 C-21.38 23.33, -41.71 47.78, -83.42 95.21 M-0.64 0.12 C-32.39 35.32, -63.21 71.49, -84.14 94.51" stroke="#1e1e1e" stroke-width="1" fill="none"></path></g><g transform="translate(497.54098788641295 203.1015625) rotate(0 -41.68336327964721 47.664778374601156)"><path d="M-72.29 67.92 C-76.18 73.67, -77.88 81.37, -82.53 95.37 M-73.71 66.76 C-77.89 76.73, -81.21 88.19, -83.26 94.68" stroke="#1e1e1e" stroke-width="1" fill="none"></path></g><g transform="translate(497.54098788641295 203.1015625) rotate(0 -41.68336327964721 47.664778374601156)"><path d="M-56.96 81.56 C-64.79 83.78, -70.35 88.05, -82.53 95.37 M-58.38 80.4 C-68.24 85.41, -77.26 91.79, -83.26 94.68" stroke="#1e1e1e" stroke-width="1" fill="none"></path></g></g><mask></mask></svg>