<svg xmlns="http://www.w3.org/2000/svg" width="718.063" height="551.34" filter="invert(93%) hue-rotate(180deg)"><defs><style>@font-face{font-family:&quot;Virgil&quot;;src:url(https://excalidraw.com/Virgil.woff2)}@font-face{font-family:&quot;Cascadia&quot;;src:url(https://excalidraw.com/Cascadia.woff2)}</style></defs><path fill="none" stroke="#1e1e1e" stroke-linecap="round" d="M191.375 109.176c.02-.01.06-.01.14 0m-.14 0h.14m0 0c1.78-1.35-1.83-.16.06.07m-.06-.07c.86.44.41-2.23.06.07m0 0c.01.03.01.07 0 .14m0-.14c0 .03.01.07 0 .14m0 0c.87-.25-.07 2.02-.06.06m.06-.06c1.22 1.86-1.11 1.85-.06.06m0 0c-.06.01-.08 0-.14 0m.14 0c-.04.01-.08 0-.14 0m0 0c.9.79.11-1.56-.07-.06m.07.06c-.6 1.92.53 1.25-.07-.06m0 0c.01-.03 0-.06 0-.14m0 .14c0-.06.01-.12 0-.14m0 0c-1.16 1.51-.12.91.07-.07m-.07.07c-.54 1.22-1.48.78.07-.07M42 10c128.67 2.51 255.97 2.31 634.06 0M42 10c145.42 1.92 290.81 2.23 634.06 0m0 0c22.64.87 31.72 10.62 32 32m-32-32c23.59 1.22 33.82 9.58 32 32m0 0c1.33 176.22 1.13 353.84 0 467.34m0-467.34c-.68 138.16-.37 276.57 0 467.34m0 0c-1.28 22.28-9.88 32.18-32 32m32-32c-1.77 20.78-8.74 32.6-32 32m0 0c-225.09.49-450.38.01-634.06 0m634.06 0c-194.77-.74-389.74-.22-634.06 0m0 0c-23.29-1.16-30.45-10.81-32-32m32 32c-20.2-.54-30.73-12.17-32-32m0 0c1.52-156.68.61-315.61 0-467.34m0 467.34c.02-172.23.01-344.74 0-467.34m0 0C9.26 20.41 20.77 8.4 42 10M10 42c-1.68-22.54 9.07-31.97 32-32M135.342 82.77c11.67.04 23.51-.55 43.53 0m-43.53 0c17.81.18 34.55.02 43.53 0m0 0c15.61-1.31 22.5 6.61 21.76 21.76m-21.76-21.76c13.04 2.14 23.88 7.07 21.76 21.76m0 0c.66 23.75.38 47.99 0 102.58m0-102.58c-.33 20.6-1.11 42.28 0 102.58m0 0c-1.39 14.53-5.53 20.94-21.76 21.76m21.76-21.76c-1.58 14.41-8.08 22.66-21.76 21.76m0 0c-14.4 1.49-28.66 1.88-43.53 0m43.53 0c-17.42.54-33.19-.23-43.53 0m0 0c-13-1.8-22.89-8.98-21.76-21.76m21.76 21.76c-15.76-2.04-22.58-7.18-21.76-21.76m0 0c-1.53-29.55.96-61.81 0-102.58m0 102.58c.14-33.34 1.4-65.6 0-102.58m0 0c-1.96-15.75 6.05-20.66 21.76-21.76m-21.76 21.76c-.62-16.38 6.96-21.11 21.76-21.76"/><text fill="#1e1e1e" dominant-baseline="text-before-edge" font-family="Virgil, Segoe UI Emoji" font-size="20" style="white-space:pre" transform="translate(129.754 135.613)">Data</text><text fill="#1e1e1e" dominant-baseline="text-before-edge" font-family="Virgil, Segoe UI Emoji" font-size="20" style="white-space:pre" transform="translate(251.492 65.262)">http processor</text><path fill="none" stroke="#1e1e1e" stroke-linecap="round" d="M472.851 129.613c30.73 2.1 62.31 1.43 110.8 0m-110.8 0c24.29-.22 50.56-.37 110.8 0m0 0c10.45-.43 17.76 3.76 16.65 16.66m-16.65-16.66c11.59 1.74 15.42 4.85 16.65 16.66m0 0c-.92 10.93-.71 24.47 0 33.31m0-33.31c-1.18 11.11.45 22.41 0 33.31m0 0c-.97 11.61-3.75 16.22-16.65 16.66m16.65-16.66c2.26 9.11-5.88 17.05-16.65 16.66m0 0c-36.59-1.04-71.04 2.01-110.8 0m110.8 0c-27.23-.91-56.72-.98-110.8 0m0 0c-9.29 1.19-17.02-6.77-16.66-16.66m16.66 16.66c-9.04 1.55-17.11-6.83-16.66-16.66m0 0c-1.22-10.8-1.24-24.38 0-33.31m0 33.31c1.07-8.73-.33-15.61 0-33.31m0 0c1.87-12.27 5.47-15.56 16.66-16.66m-16.66 16.66c.59-12.45 6.36-18.09 16.66-16.66"/><text fill="#1e1e1e" dominant-baseline="text-before-edge" font-family="Virgil, Segoe UI Emoji" font-size="20" style="white-space:pre" transform="translate(496.785 149.984)">record</text><path fill="none" stroke="#1e1e1e" stroke-linecap="round" d="M297.264 335.787c72.62-2.12 143.01.33 217.78.5m-216.56-1.15c78.09 1.6 156.23.78 217.39.07m-.34 2.49c-1.87 32.34.81 68.04 1.33 171.46m.15-174.14c-.26 43.76-.96 87.6-.78 172.86m-.06-2.22c-58.86-.93-121.38 2.11-215.8 1.68m215.46-.58c-61.62-1.24-123.91-.64-217.11.29m-1.71 1.83c3.3-59.11 2.05-116.23 3.08-172.65m-1.35 170.84c1.01-54.49 1.91-109.34.71-171.86"/><path fill="none" stroke="#1e1e1e" stroke-linecap="round" d="M299.488 378.436c44.81-.85 87.48.22 217.17-.03m-215.96.43c61.32-1.25 124.3-.94 215 .08"/><path fill="none" stroke="#1e1e1e" stroke-linecap="round" d="M404.638 339.076c-2.5 57.14-.65 113.04 1.16 169.19m-1.39-169.86c.2 37.42.02 73.85-.6 169.1"/><text fill="#1e1e1e" dominant-baseline="text-before-edge" font-family="Virgil, Segoe UI Emoji" font-size="16" style="white-space:pre" transform="translate(233.09 470.234)">Output</text><text fill="#1e1e1e" dominant-baseline="text-before-edge" font-family="Virgil, Segoe UI Emoji" font-size="20" style="white-space:pre" transform="translate(372.797 300.371)">table</text><text fill="#1e1e1e" dominant-baseline="text-before-edge" font-family="Virgil, Segoe UI Emoji" font-size="20" style="white-space:pre" transform="translate(455.426 96.086)">data modelling</text><text fill="#1e1e1e" dominant-baseline="text-before-edge" font-family="Virgil, Segoe UI Emoji" font-size="16" style="white-space:pre" transform="translate(83.898 238.36)">over internet</text><g stroke-linecap="round" mask="url(#mask-rJAml9GWQGtPUZdvHiONn)"><path fill="none" stroke="#1e1e1e" d="M449.803 140.299c-73.02 3.19-145.7 3.06-246.63 2.19m244.93-.14c-56.62-1.17-113.46-1.23-243.81.93"/><path fill="none" stroke="#1e1e1e" d="M234.283 130.709c-9.28 6.87-18.16 9.65-30.68 12.61m28.61-10.11c-6.23 1.32-12.8 3.55-27.25 11.07"/><path fill="none" stroke="#1e1e1e" d="M234.563 151.229c-9.43.81-18.4-2.47-30.96-7.91m28.89 10.41c-6.43-3.45-13.06-5.99-27.53-9.45"/></g><mask id="mask-rJAml9GWQGtPUZdvHiONn"><path fill="#fff" d="M0 0h792.664v242.457H0z"/><path d="M296.005 132.168h59.936v20h-59.936z"/></mask><text x="29.968" fill="#1e1e1e" dominant-baseline="text-before-edge" font-family="Virgil, Segoe UI Emoji" font-size="16" style="white-space:pre" text-anchor="middle" transform="translate(296.005 132.168)">request</text><g stroke-linecap="round" mask="url(#mask-Mnip-NzMOLqXjHcLFqPqB)"><path fill="none" stroke="#1e1e1e" d="M211.659 171.374c83.56-.34 168.63-.01 237.64-.05m-236.62.63c79.16-.29 157.36-.65 237.81-1.37"/><path fill="none" stroke="#1e1e1e" d="M421.899 180.234c8.83-4.69 19.41-7.59 27.99-9.33m-26.77 10.01c9.5-3.34 17.83-6.85 28.19-10.89"/><path fill="none" stroke="#1e1e1e" d="M421.749 159.714c8.79 2.61 19.43 7.01 28.14 11.19m-26.93-10.51c9.51 3.49 17.89 6.8 28.35 9.63"/></g><mask id="mask-Mnip-NzMOLqXjHcLFqPqB"><path fill="#fff" d="M0 0h549.809v273.086H0z"/><path d="M297.942 161.568h65.984v20h-65.984z"/></mask><text x="32.992" fill="#1e1e1e" dominant-baseline="text-before-edge" font-family="Virgil, Segoe UI Emoji" font-size="16" style="white-space:pre" text-anchor="middle" transform="translate(297.942 161.568)">response</text><g stroke-linecap="round"><path fill="none" stroke="#1e1e1e" d="M498.321 204.382c-22.16 22.05-42.49 46.5-84.2 93.93m82.78-95.09c-31.75 35.2-62.57 71.37-83.5 94.39"/><path fill="none" stroke="#1e1e1e" d="M425.251 271.022c-3.89 5.75-5.59 13.45-10.24 27.45m8.82-28.61c-4.18 9.97-7.5 21.43-9.55 27.92"/><path fill="none" stroke="#1e1e1e" d="M440.581 284.662c-7.83 2.22-13.39 6.49-25.57 13.81m24.15-14.97c-9.86 5.01-18.88 11.39-24.88 14.28"/></g></svg>