<svg version="1.1" xmlns="http://www.w3.org/2000/svg" viewBox="0 0 3543.554027748202 1280.1707927372588" width="3543.554027748202" height="1280.1707927372588">
  <!-- svg-source:excalidraw -->
  
  <defs>
    <style class="style-fonts">
      @font-face {
        font-family: "Virgil";
        src: url("https://excalidraw.com/Virgil.woff2");
      }
      @font-face {
        font-family: "Cascadia";
        src: url("https://excalidraw.com/Cascadia.woff2");
      }
    </style>
    
  </defs>
  <g stroke-opacity="0.9" fill-opacity="0.9" stroke-linecap="round" transform="translate(1088.804269345695 10) rotate(0 712.4999999999999 151.25)"><path d="M32 0 M32 0 C556 0, 1080.01 0, 1393 0 M32 0 C427.38 0, 822.76 0, 1393 0 M1393 0 C1414.33 0, 1425 10.67, 1425 32 M1393 0 C1414.33 0, 1425 10.67, 1425 32 M1425 32 C1425 79.85, 1425 127.69, 1425 270.5 M1425 32 C1425 91.82, 1425 151.64, 1425 270.5 M1425 270.5 C1425 291.83, 1414.33 302.5, 1393 302.5 M1425 270.5 C1425 291.83, 1414.33 302.5, 1393 302.5 M1393 302.5 C857.8 302.5, 322.59 302.5, 32 302.5 M1393 302.5 C1085.59 302.5, 778.18 302.5, 32 302.5 M32 302.5 C10.67 302.5, 0 291.83, 0 270.5 M32 302.5 C10.67 302.5, 0 291.83, 0 270.5 M0 270.5 C0 196.58, 0 122.66, 0 32 M0 270.5 C0 221.04, 0 171.59, 0 32 M0 32 C0 10.67, 10.67 0, 32 0 M0 32 C0 10.67, 10.67 0, 32 0" stroke="#1e1e1e" stroke-width="1" fill="none"></path></g><g stroke-opacity="0.9" fill-opacity="0.9" transform="translate(1597.869555424223 90.7981205218847) rotate(0 200.35977172851562 70.45187947811533)"><text x="200.35977172851562" y="0" font-family="Virgil, Segoe UI Emoji" font-size="112.72300716498454px" fill="#1e1e1e" text-anchor="middle" style="white-space: pre;" direction="ltr" dominant-baseline="text-before-edge">country</text></g><g stroke-linecap="round"><g stroke-opacity="0.9" fill-opacity="0.9" transform="translate(1102.804269345695 309.77778795030383) rotate(0 -222.15468633742563 224.6353282625711)"><path d="M0 0 C-74.05 74.88, -370.26 374.39, -444.31 449.27 M0 0 C-74.05 74.88, -370.26 374.39, -444.31 449.27" stroke="#1e1e1e" stroke-width="1" fill="none"></path></g></g><mask></mask><g stroke-opacity="0.9" fill-opacity="0.9" stroke-linecap="round" transform="translate(118.3047932307868 778.2295277913412) rotate(0 275.74998219807935 105.66665649414062)"><path d="M32 0 M32 0 C129.93 0, 227.86 0, 519.5 0 M32 0 C201.83 0, 371.67 0, 519.5 0 M519.5 0 C540.83 0, 551.5 10.67, 551.5 32 M519.5 0 C540.83 0, 551.5 10.67, 551.5 32 M551.5 32 C551.5 87.5, 551.5 143, 551.5 179.33 M551.5 32 C551.5 72.37, 551.5 112.75, 551.5 179.33 M551.5 179.33 C551.5 200.67, 540.83 211.33, 519.5 211.33 M551.5 179.33 C551.5 200.67, 540.83 211.33, 519.5 211.33 M519.5 211.33 C381.85 211.33, 244.21 211.33, 32 211.33 M519.5 211.33 C414.77 211.33, 310.03 211.33, 32 211.33 M32 211.33 C10.67 211.33, 0 200.67, 0 179.33 M32 211.33 C10.67 211.33, 0 200.67, 0 179.33 M0 179.33 C0 133.94, 0 88.54, 0 32 M0 179.33 C0 142.2, 0 105.07, 0 32 M0 32 C0 10.67, 10.67 0, 32 0 M0 32 C0 10.67, 10.67 0, 32 0" stroke="#1e1e1e" stroke-width="1" fill="none"></path></g><g stroke-linecap="round"><g stroke-opacity="0.9" fill-opacity="0.9" transform="translate(164.97129205077363 991.999776204427) rotate(0 -0.08333841959654364 93.91682942708337)"><path d="M0 0 C-0.03 31.31, -0.14 156.53, -0.17 187.83 M0 0 C-0.03 31.31, -0.14 156.53, -0.17 187.83" stroke="#1e1e1e" stroke-width="1" fill="none"></path></g></g><mask></mask><g stroke-opacity="0.9" fill-opacity="0.9" transform="translate(10 1165.2052103645394) rotate(0 132.4496307373047 49.528365768299466)"><text x="132.4496307373047" y="0" font-family="Virgil, Segoe UI Emoji" font-size="79.24538522927912px" fill="#1e1e1e" text-anchor="middle" style="white-space: pre;" direction="ltr" dominant-baseline="text-before-edge">common</text></g><g stroke-opacity="0.9" fill-opacity="0.9" transform="translate(473.22865934151764 1165.205290976917) rotate(0 134.54949951171875 49.528285155921765)"><text x="134.54949951171875" y="0" font-family="Virgil, Segoe UI Emoji" font-size="79.24525624947485px" fill="#1e1e1e" text-anchor="middle" style="white-space: pre;" direction="ltr" dominant-baseline="text-before-edge">official</text></g><g stroke-linecap="round"><g stroke-opacity="0.9" fill-opacity="0.9" transform="translate(586.4713836035082 989.3335571289062) rotate(0 1.0832850138343701 88.58345031738259)"><path d="M0 0 C0.36 29.53, 1.81 147.64, 2.17 177.17 M0 0 C0.36 29.53, 1.81 147.64, 2.17 177.17" stroke="#1e1e1e" stroke-width="1" fill="none"></path></g></g><mask></mask><g stroke-linecap="round"><g stroke-opacity="0.9" fill-opacity="0.9" transform="translate(1499.8598384646184 311.44458346896704) rotate(0 -126.8609449598519 251.52784559461816)"><path d="M0 0 C-42.29 83.84, -211.43 419.21, -253.72 503.06 M0 0 C-42.29 83.84, -211.43 419.21, -253.72 503.06" stroke="#1e1e1e" stroke-width="1" fill="none"></path></g></g><mask></mask><g stroke-opacity="0.9" fill-opacity="0.9" transform="translate(1075.3061004003825 823.8362137431257) rotate(0 136.998046875 50.72662703649681)"><text x="136.998046875" y="0" font-family="Virgil, Segoe UI Emoji" font-size="81.1626032583949px" fill="#1e1e1e" text-anchor="middle" style="white-space: pre;" direction="ltr" dominant-baseline="text-before-edge">capital</text></g><g stroke-opacity="0.9" fill-opacity="0.9" transform="translate(2375.942493629549 823.8362137431257) rotate(0 196.5289306640625 50.72662703649681)"><text x="196.5289306640625" y="0" font-family="Virgil, Segoe UI Emoji" font-size="81.1626032583949px" fill="#1e1e1e" text-anchor="middle" style="white-space: pre;" direction="ltr" dominant-baseline="text-before-edge">population</text></g><g stroke-linecap="round"><g stroke-opacity="0.9" fill-opacity="0.9" transform="translate(2180.4709360123616 315.20858764648443) rotate(0 171.16668701171875 258.16652933756507)"><path d="M0 0 C57.06 86.06, 285.28 430.28, 342.33 516.33 M0 0 C57.06 86.06, 285.28 430.28, 342.33 516.33" stroke="#1e1e1e" stroke-width="1" fill="none"></path></g></g><mask></mask><g stroke-opacity="0.9" fill-opacity="0.9" stroke-linecap="round" transform="translate(3014.054185422355 759.5628407796224) rotate(0 259.74992116292333 106.99991861979163)"><path d="M32 0 M32 0 C142.78 0, 253.56 0, 487.5 0 M32 0 C175.39 0, 318.79 0, 487.5 0 M487.5 0 C508.83 0, 519.5 10.67, 519.5 32 M487.5 0 C508.83 0, 519.5 10.67, 519.5 32 M519.5 32 C519.5 76.54, 519.5 121.09, 519.5 182 M519.5 32 C519.5 72.58, 519.5 113.15, 519.5 182 M519.5 182 C519.5 203.33, 508.83 214, 487.5 214 M519.5 182 C519.5 203.33, 508.83 214, 487.5 214 M487.5 214 C319.16 214, 150.82 214, 32 214 M487.5 214 C392.32 214, 297.15 214, 32 214 M32 214 C10.67 214, 0 203.33, 0 182 M32 214 C10.67 214, 0 203.33, 0 182 M0 182 C0 139.26, 0 96.52, 0 32 M0 182 C0 145.96, 0 109.92, 0 32 M0 32 C0 10.67, 10.67 0, 32 0 M0 32 C0 10.67, 10.67 0, 32 0" stroke="#1e1e1e" stroke-width="1" fill="none"></path></g><g stroke-opacity="0.9" fill-opacity="0.9" transform="translate(3173.977324358716 823.8362137431257) rotate(0 99.8267822265625 50.72662703649681)"><text x="99.8267822265625" y="0" font-family="Virgil, Segoe UI Emoji" font-size="81.1626032583949px" fill="#1e1e1e" text-anchor="middle" style="white-space: pre;" direction="ltr" dominant-baseline="text-before-edge">flags</text></g><g stroke-linecap="round"><g stroke-opacity="0.9" fill-opacity="0.9" transform="translate(2502.693158234584 302.5416904025608) rotate(0 262.3180310688325 233.8093351939369)"><path d="M0 0 C87.44 77.94, 437.2 389.68, 524.64 467.62 M0 0 C87.44 77.94, 437.2 389.68, 524.64 467.62" stroke="#1e1e1e" stroke-width="1" fill="none"></path></g></g><mask></mask><g stroke-linecap="round"><g stroke-opacity="0.9" fill-opacity="0.9" transform="translate(3297.8041472753816 982.5426534016929) rotate(0 -0.00020345052098491578 92.33332316080714)"><path d="M0 0 C0 30.78, 0 153.89, 0 184.67 M0 0 C0 30.78, 0 153.89, 0 184.67" stroke="#1e1e1e" stroke-width="1" fill="none"></path></g></g><mask></mask><g stroke-opacity="0.9" fill-opacity="0.9" transform="translate(3228.314927609855 1159.2963595284186) rotate(0 69.48860931396484 55.43721660442003)"><text x="69.48860931396484" y="0" font-family="Virgil, Segoe UI Emoji" font-size="88.69954656707208px" fill="#1e1e1e" text-anchor="middle" style="white-space: pre;" direction="ltr" dominant-baseline="text-before-edge">svg</text></g><g stroke-linecap="round"><g transform="translate(1878.7907716752038 312.83430648692274) rotate(0 51.555548773871465 261.3333299424914)"><path d="M0 0 C17.19 87.11, 85.93 435.56, 103.11 522.67 M0 0 C17.19 87.11, 85.93 435.56, 103.11 522.67" stroke="#1e1e1e" stroke-width="1" fill="none"></path></g></g><mask></mask><g stroke-opacity="0.9" fill-opacity="0.9" transform="translate(300.1526605607021 823.8362137431257) rotate(0 93.90211486816406 50.72662703649681)"><text x="93.90211486816406" y="0" font-family="Virgil, Segoe UI Emoji" font-size="81.1626032583949px" fill="#1e1e1e" text-anchor="middle" style="white-space: pre;" direction="ltr" dominant-baseline="text-before-edge">name</text></g><g stroke-opacity="0.9" fill-opacity="0.9" transform="translate(1866.3166395612152 819.1256241752023) rotate(0 120.52970123291016 55.43721660442006)"><text x="120.52970123291016" y="0" font-family="Virgil, Segoe UI Emoji" font-size="88.69954656707208px" fill="#1e1e1e" text-anchor="middle" style="white-space: pre;" direction="ltr" dominant-baseline="text-before-edge">region</text></g><g stroke-linecap="round"><g transform="translate(1181.9891979369836 932.5805518559994) rotate(0 62.992639722434234 49.407588254550944)"><path d="M0 0 C1.78 15.11, -10.67 74.84, 10.67 90.67 C32 106.5, 108.44 94.26, 128 94.98 M0 0 C1.78 15.11, -10.67 74.84, 10.67 90.67 C32 106.5, 108.44 94.26, 128 94.98" stroke="#1e1e1e" stroke-width="1" fill="none"></path></g><g transform="translate(1181.9891979369836 932.5805518559994) rotate(0 62.992639722434234 49.407588254550944)"><path d="M100.45 106.86 C109.77 102.84, 119.08 98.82, 128 94.98 M100.45 106.86 C106.43 104.28, 112.41 101.7, 128 94.98" stroke="#1e1e1e" stroke-width="1" fill="none"></path></g><g transform="translate(1181.9891979369836 932.5805518559994) rotate(0 62.992639722434234 49.407588254550944)"><path d="M99.26 86.37 C108.98 89.28, 118.69 92.19, 128 94.98 M99.26 86.37 C105.5 88.24, 111.74 90.11, 128 94.98" stroke="#1e1e1e" stroke-width="1" fill="none"></path></g></g><mask></mask><g stroke-opacity="0.9" fill-opacity="0.9" transform="translate(1328.2125560912805 975.7188926766398) rotate(0 149.77660115559888 122.42799379510768)"><text x="149.77660115559888" y="0" font-family="Virgil, Segoe UI Emoji" font-size="65.29493002405746px" fill="#1e1e1e" text-anchor="middle" style="white-space: pre;" direction="ltr" dominant-baseline="text-before-edge">capital 1</text><text x="149.77660115559888" y="81.61866253007183" font-family="Virgil, Segoe UI Emoji" font-size="65.29493002405746px" fill="#1e1e1e" text-anchor="middle" style="white-space: pre;" direction="ltr" dominant-baseline="text-before-edge">capital 2</text><text x="149.77660115559888" y="163.23732506014366" font-family="Virgil, Segoe UI Emoji" font-size="65.29493002405746px" fill="#1e1e1e" text-anchor="middle" style="white-space: pre;" direction="ltr" dominant-baseline="text-before-edge">capital 3</text></g></svg>