<svg xmlns="http://www.w3.org/2000/svg" width="3543.554" height="1280.171" filter="invert(93%) hue-rotate(180deg)"><defs><style>@font-face{font-family:&quot;Virgil&quot;;src:url(https://excalidraw.com/Virgil.woff2)}@font-face{font-family:&quot;Cascadia&quot;;src:url(https://excalidraw.com/Cascadia.woff2)}</style></defs><path fill="none" fill-opacity=".9" stroke="#1e1e1e" stroke-linecap="round" stroke-opacity=".9" d="M1120.804 10h1361m-1361 0h1361m0 0c21.33 0 32 10.67 32 32m-32-32c21.33 0 32 10.67 32 32m0 0v238.5m0-238.5v238.5m0 0c0 21.33-10.67 32-32 32m32-32c0 21.33-10.67 32-32 32m0 0h-1361m1361 0h-1361m0 0c-21.33 0-32-10.67-32-32m32 32c-21.33 0-32-10.67-32-32m0 0V42m0 238.5V42m0 0c0-21.33 10.67-32 32-32m-32 32c0-21.33 10.67-32 32-32"/><text x="200.36" fill="#1e1e1e" fill-opacity=".9" stroke-opacity=".9" dominant-baseline="text-before-edge" font-family="Virgil, Segoe UI Emoji" font-size="112.723" style="white-space:pre" text-anchor="middle" transform="translate(1597.87 90.798)">country</text><path fill="none" fill-opacity=".9" stroke="#1e1e1e" stroke-linecap="round" stroke-opacity=".9" d="M1102.804 309.778c-74.05 74.88-370.26 374.39-444.31 449.27m444.31-449.27c-74.05 74.88-370.26 374.39-444.31 449.27M150.305 778.23h487.5m-487.5 0h487.5m0 0c21.33 0 32 10.67 32 32m-32-32c21.33 0 32 10.67 32 32m0 0v147.33m0-147.33v147.33m0 0c0 21.34-10.67 32-32 32m32-32c0 21.34-10.67 32-32 32m0 0h-487.5m487.5 0h-487.5m0 0c-21.33 0-32-10.66-32-32m32 32c-21.33 0-32-10.66-32-32m0 0V810.23m0 147.33V810.23m0 0c0-21.33 10.67-32 32-32m-32 32c0-21.33 10.67-32 32-32M164.971 992c-.03 31.31-.14 156.53-.17 187.83m.17-187.83c-.03 31.31-.14 156.53-.17 187.83"/><text x="132.45" fill="#1e1e1e" fill-opacity=".9" stroke-opacity=".9" dominant-baseline="text-before-edge" font-family="Virgil, Segoe UI Emoji" font-size="79.245" style="white-space:pre" text-anchor="middle" transform="translate(10 1165.205)">common</text><text x="134.549" fill="#1e1e1e" fill-opacity=".9" stroke-opacity=".9" dominant-baseline="text-before-edge" font-family="Virgil, Segoe UI Emoji" font-size="79.245" style="white-space:pre" text-anchor="middle" transform="translate(473.229 1165.205)">official</text><path fill="none" fill-opacity=".9" stroke="#1e1e1e" stroke-linecap="round" stroke-opacity=".9" d="M586.471 989.334c.36 29.53 1.81 147.64 2.17 177.17m-2.17-177.17c.36 29.53 1.81 147.64 2.17 177.17M1499.86 311.445c-42.29 83.84-211.43 419.21-253.72 503.06m253.72-503.06c-42.29 83.84-211.43 419.21-253.72 503.06"/><text x="136.998" fill="#1e1e1e" fill-opacity=".9" stroke-opacity=".9" dominant-baseline="text-before-edge" font-family="Virgil, Segoe UI Emoji" font-size="81.163" style="white-space:pre" text-anchor="middle" transform="translate(1075.306 823.836)">capital</text><text x="196.529" fill="#1e1e1e" fill-opacity=".9" stroke-opacity=".9" dominant-baseline="text-before-edge" font-family="Virgil, Segoe UI Emoji" font-size="81.163" style="white-space:pre" text-anchor="middle" transform="translate(2375.942 823.836)">population</text><path fill="none" fill-opacity=".9" stroke="#1e1e1e" stroke-linecap="round" stroke-opacity=".9" d="M2180.47 315.209c57.06 86.06 285.28 430.28 342.33 516.33m-342.33-516.33c57.06 86.06 285.28 430.28 342.33 516.33M3046.054 759.563h455.5m-455.5 0h455.5m0 0c21.33 0 32 10.67 32 32m-32-32c21.33 0 32 10.67 32 32m0 0v150m0-150v150m0 0c0 21.33-10.67 32-32 32m32-32c0 21.33-10.67 32-32 32m0 0h-455.5m455.5 0h-455.5m0 0c-21.33 0-32-10.67-32-32m32 32c-21.33 0-32-10.67-32-32m0 0v-150m0 150v-150m0 0c0-21.33 10.67-32 32-32m-32 32c0-21.33 10.67-32 32-32"/><text x="99.827" fill="#1e1e1e" fill-opacity=".9" stroke-opacity=".9" dominant-baseline="text-before-edge" font-family="Virgil, Segoe UI Emoji" font-size="81.163" style="white-space:pre" text-anchor="middle" transform="translate(3173.977 823.836)">flags</text><path fill="none" fill-opacity=".9" stroke="#1e1e1e" stroke-linecap="round" stroke-opacity=".9" d="M2502.693 302.542c87.44 77.94 437.2 389.68 524.64 467.62m-524.64-467.62c87.44 77.94 437.2 389.68 524.64 467.62M3297.804 982.543v184.67m0-184.67v184.67"/><text x="69.489" fill="#1e1e1e" fill-opacity=".9" stroke-opacity=".9" dominant-baseline="text-before-edge" font-family="Virgil, Segoe UI Emoji" font-size="88.7" style="white-space:pre" text-anchor="middle" transform="translate(3228.315 1159.296)">svg</text><path fill="none" stroke="#1e1e1e" stroke-linecap="round" d="M1878.79 312.834c17.19 87.11 85.93 435.56 103.11 522.67m-103.11-522.67c17.19 87.11 85.93 435.56 103.11 522.67"/><text x="93.902" fill="#1e1e1e" fill-opacity=".9" stroke-opacity=".9" dominant-baseline="text-before-edge" font-family="Virgil, Segoe UI Emoji" font-size="81.163" style="white-space:pre" text-anchor="middle" transform="translate(300.153 823.836)">name</text><text x="120.53" fill="#1e1e1e" fill-opacity=".9" stroke-opacity=".9" dominant-baseline="text-before-edge" font-family="Virgil, Segoe UI Emoji" font-size="88.7" style="white-space:pre" text-anchor="middle" transform="translate(1866.317 819.126)">region</text><g stroke-linecap="round"><path fill="none" stroke="#1e1e1e" d="M1181.99 932.58c1.78 15.11-10.67 74.84 10.67 90.67 21.33 15.83 97.77 3.59 117.33 4.31m-128-94.98c1.78 15.11-10.67 74.84 10.67 90.67 21.33 15.83 97.77 3.59 117.33 4.31M1282.44 1039.44c9.32-4.02 18.63-8.04 27.55-11.88m-27.55 11.88c5.98-2.58 11.96-5.16 27.55-11.88"/><path fill="none" stroke="#1e1e1e" d="M1281.25 1018.95c9.72 2.91 19.43 5.82 28.74 8.61m-28.74-8.61c6.24 1.87 12.48 3.74 28.74 8.61"/></g><g fill-opacity=".9" stroke-opacity=".9"><text x="149.777" fill="#1e1e1e" dominant-baseline="text-before-edge" font-family="Virgil, Segoe UI Emoji" font-size="65.295" style="white-space:pre" text-anchor="middle" transform="translate(1328.213 975.719)">capital 1</text><text x="149.777" y="81.619" fill="#1e1e1e" dominant-baseline="text-before-edge" font-family="Virgil, Segoe UI Emoji" font-size="65.295" style="white-space:pre" text-anchor="middle" transform="translate(1328.213 975.719)">capital 2</text><text x="149.777" y="163.237" fill="#1e1e1e" dominant-baseline="text-before-edge" font-family="Virgil, Segoe UI Emoji" font-size="65.295" style="white-space:pre" text-anchor="middle" transform="translate(1328.213 975.719)">capital 3</text></g></svg>