<svg version="1.2" xmlns="http://www.w3.org/2000/svg" viewBox="0 0 1440 515" width="1440" height="515">
	<title>background-svg</title>
	<defs>
		<clipPath clipPathUnits="userSpaceOnUse" id="cp1">
			<path d="m104.88 51.38c0 6.75-1.33 13.43-3.91 19.66-2.59 6.23-6.37 11.9-11.14 16.67-4.77 4.77-10.44 8.55-16.67 11.14-6.23 2.58-12.92 3.91-19.66 3.91-6.75 0-13.43-1.33-19.66-3.91-6.24-2.59-11.9-6.37-16.67-11.14-4.77-4.77-8.56-10.44-11.14-16.67-2.58-6.23-3.91-12.91-3.91-19.66h51.38z"/>
		</clipPath>
		<clipPath clipPathUnits="userSpaceOnUse" id="cp2">
			<path d="m1457.99 73.96c-6.04 0-12.01 1.2-17.59 3.55-5.57 2.34-10.64 5.78-14.91 10.11-4.26 4.33-7.65 9.47-9.96 15.13-2.31 5.66-3.5 11.72-3.5 17.85 0 6.12 1.19 12.19 3.5 17.85 2.31 5.66 5.7 10.8 9.96 15.13 4.27 4.33 9.34 7.77 14.91 10.11 5.58 2.35 11.55 3.55 17.59 3.55v-46.64z"/>
		</clipPath>
	</defs>
	<style>
		.s0 { fill: #ef8435 } 
		.s1 { fill: none;stroke: #ffffff;stroke-width: 1.7 } 
		.s2 { fill: #5c2860 } 
		.s3 { fill: #ebbe52 } 
		.s4 { fill: none;stroke: #ffffff;stroke-width: .7 } 
		.s5 { fill: none;stroke: #ffffff;stroke-width: 1.5 } 
		.s6 { fill: #4aa35c } 
		.s7 { fill: none;stroke: #ffffff;stroke-width: .6 } 
		.s8 { fill: none;stroke: #ffffff;stroke-width: .9 } 
		.s9 { fill: none;stroke: #ffffff } 
	</style>
	<path id="Layer" class="s0" d="m109.1 54.6c0 7.1-1.4 14.2-4.1 20.8-2.8 6.7-6.8 12.7-11.9 17.7-5 5.1-11 9.1-17.7 11.9-6.6 2.7-13.7 4.1-20.8 4.1-7.2 0-14.3-1.4-20.9-4.1-6.6-2.8-12.7-6.8-17.7-11.9-5.1-5-9.1-11-11.8-17.7-2.8-6.6-4.2-13.7-4.2-20.8h54.6z"/>
	<g id="Clip-Path" clip-path="url(#cp1)">
		<path id="Layer" fill-rule="evenodd" class="s1" d="m104.9 51.4c0 6.7-1.4 13.4-3.9 19.6-2.6 6.3-6.4 11.9-11.2 16.7-4.7 4.8-10.4 8.6-16.6 11.1-6.3 2.6-13 4-19.7 4-6.7 0-13.4-1.4-19.7-4-6.2-2.5-11.9-6.3-16.6-11.1-4.8-4.8-8.6-10.4-11.2-16.7-2.6-6.2-3.9-12.9-3.9-19.6h51.4z"/>
	</g>
	<path id="Layer" class="s2" d="m54.6 90c16.7 0 30.1-13.5 30.1-30.1 0-16.7-13.4-30.2-30.1-30.2-16.7 0-30.2 13.5-30.2 30.2 0 16.6 13.5 30.1 30.2 30.1z"/>
	<path id="Layer" class="s3" d="m1376 77.6h29.7v100.6h-29.7z"/>
	<path id="Layer" class="s4" d="m1371 76.2h28.9v99.8h-28.9z"/>
	<path id="Layer" class="s0" d="m1451.7 77.6c-6 0-12 1.2-17.6 3.6-5.6 2.3-10.6 5.7-14.9 10.1-4.3 4.3-7.7 9.4-10 15.1-2.3 5.7-3.5 11.7-3.5 17.9 0 6.1 1.2 12.1 3.5 17.8 2.3 5.7 5.7 10.8 10 15.1 4.3 4.4 9.3 7.8 14.9 10.2 5.6 2.3 11.6 3.5 17.6 3.5v-46.6z"/>
	<g id="Clip-Path" clip-path="url(#cp2)">
		<path id="Layer" fill-rule="evenodd" class="s5" d="m1458 74c-6 0-12 1.2-17.6 3.5-5.6 2.4-10.6 5.8-14.9 10.1-4.3 4.3-7.7 9.5-10 15.2-2.3 5.6-3.5 11.7-3.5 17.8 0 6.1 1.2 12.2 3.5 17.8 2.3 5.7 5.7 10.9 10 15.2 4.3 4.3 9.3 7.7 14.9 10.1 5.6 2.3 11.6 3.5 17.6 3.5v-46.6z"/>
	</g>
	<path id="Layer" class="s6" d="m878.7 260.5l27.4 43.9h-54.9z"/>
	<path id="Layer" fill-rule="evenodd" class="s7" d="m861.2 299.6l26.9-43 26.8 43z"/>
	<path id="Layer" class="s2" d="m135.5 372l49.8 78.8h-99.6z"/>
	<path id="Layer" fill-rule="evenodd" class="s8" d="m101.9 455l55.2-87.3 55.1 87.3z"/>
	<path id="Layer" class="s0" d="m1356 462.7c-27.2 0-49.2-21.8-49.2-48.8 0-27 22-48.8 49.2-48.8 27.2 0 49.2 21.8 49.2 48.8 0 27-22 48.8-49.2 48.8z"/>
	<path id="Layer" fill-rule="evenodd" class="s4" d="m1412.7 411.3c0 26.7-21.9 48.4-48.9 48.4-26.9 0-48.8-21.7-48.8-48.4 0-26.8 21.9-48.5 48.8-48.5 27 0 48.9 21.7 48.9 48.5z"/>
	<path id="Layer" class="s2" d="m1330.3 422.9l35.5 55.6h-70.9z"/>
	<path id="Layer" fill-rule="evenodd" class="s4" d="m1283.4 484.2l34.7-54.6 34.8 54.6z"/>
	<path id="Layer" class="s3" d="m1302.6 280.1c-7.4 0-13.3-6-13.3-13.4 0-7.4 5.9-13.3 13.3-13.3 7.3 0 13.2 5.9 13.2 13.3 0 7.4-5.9 13.4-13.2 13.4z"/>
	<path id="Layer" fill-rule="evenodd" class="s9" d="m1322.8 266.7c0 7.1-5.7 12.9-12.7 12.9-7 0-12.7-5.8-12.7-12.9 0-7.1 5.7-12.8 12.7-12.8 7 0 12.7 5.7 12.7 12.8z"/>
	<path id="Layer" class="s6" d="m56.2 223.5c-7.1 0-12.8-5.7-12.8-12.7 0-7.1 5.7-12.8 12.8-12.8 7 0 12.7 5.7 12.7 12.8 0 7-5.7 12.7-12.7 12.7z"/>
	<path id="Layer" class="s9" d="m62.2 220.6c-6.7 0-12.2-5.5-12.2-12.2 0-6.8 5.5-12.3 12.2-12.3 6.8 0 12.3 5.5 12.3 12.3 0 6.7-5.5 12.2-12.3 12.2z"/>
</svg>