<?xml version="1.0" encoding="utf-8"?><!-- Uploaded to: SVG Repo, www.svgrepo.com, Generator: SVG Repo Mixer Tools -->
<svg fill="#000000" width="800px" height="800px" viewBox="0 0 14 14" role="img" focusable="false" aria-hidden="true" xmlns="http://www.w3.org/2000/svg"><path d="m 9.19048,10.6411 c 0,-1.4673 -0.006,-1.5116 -0.2115,-1.603 C 8.85548,8.9831 8.74342,8.8252 8.70964,8.6584 8.67784,8.5012 8.59156,8.2767 8.51795,8.1595 8.40141,7.9738 8.40442,7.9061 8.54125,7.6356 8.62765,7.4648 8.72336,7.2106 8.75387,7.0707 8.79547,6.88 8.88642,6.7995 9.11757,6.7487 9.28709,6.7117 9.52688,6.6148 9.65044,6.5338 c 0.2035,-0.1333 0.25294,-0.1325 0.5252,0.01 0.16531,0.086 0.41879,0.184 0.56329,0.2178 0.18257,0.043 0.27944,0.1381 0.31748,0.3128 0.0301,0.1383 0.12496,0.3902 0.21077,0.5599 0.14536,0.2875 0.14482,0.3275 -0.008,0.5861 -0.0902,0.1527 -0.16398,0.3589 -0.16398,0.4582 0,0.2276 -0.17742,0.4091 -0.4,0.4091 -0.15792,0 -0.17143,0.1198 -0.17143,1.5206 l 0,1.5206 -0.33198,-0.1959 -0.33197,-0.1959 -0.33469,0.2069 -0.33469,0.2068 0,-1.509 z m 1.09097,-1.9943 c 0.18457,-0.071 0.43284,-0.5227 0.43284,-0.7879 0,-0.1044 -0.10159,-0.308 -0.22576,-0.4524 -0.31634,-0.3677 -0.85119,-0.3677 -1.16754,0 -0.57126,0.6642 0.12359,1.5615 0.96046,1.2403 z M 1.88095,10.25 1,10.223 1,6.0361 1,1.8492 l 6,0 6,0 0,4.1793 0,4.1794 -0.22223,0.043 c -0.12222,0.023 -0.59365,0.023 -1.04762,-10e-4 -0.61571,-0.032 -0.82539,-0.076 -0.82539,-0.1741 0,-0.1014 0.19349,-0.1309 0.85714,-0.1309 l 0.85715,0 0,-3.8572 0,-3.8571 -5.61905,0 -5.61905,0 0,3.8571 0,3.8572 3.72127,0 c 3.38214,0 3.71846,0.014 3.69048,0.1545 -0.0276,0.1384 -0.34538,0.1559 -3.0308,0.1667 -1.65,0.01 -3.39642,0 -3.88095,-0.015 z m -0.30952,-4.1631 0,-3.6666 5.42857,0 5.42857,0 0,3.6666 0,3.6667 -0.70866,0 c -0.38977,0 -0.73516,-0.043 -0.76753,-0.095 -0.0371,-0.06 0.18949,-0.095 0.61343,-0.095 l 0.67229,0 0,-3.4762 0,-3.4761 -5.2381,0 -5.2381,0 0,3.4761 0,3.4762 3.52944,0 c 2.3287,0 3.5094,0.032 3.47056,0.095 -0.0375,0.061 -1.35019,0.095 -3.62466,0.095 l -3.56581,0 0,-3.6667 z m 1.01758,2.3668 c -0.0359,-0.036 -0.0652,-0.1445 -0.0652,-0.2415 0,-0.1674 0.1148,-0.175 2.2619,-0.1508 2.18991,0.025 2.26191,0.032 2.26191,0.216 0,0.1843 -0.072,0.1913 -2.1967,0.216 -1.20819,0.014 -2.22604,0 -2.26191,-0.04 z M 2.55651,7.5109 c -0.0319,-0.083 -0.0172,-0.1918 0.0327,-0.2417 0.0537,-0.054 0.98202,-0.08 2.27455,-0.065 2.11184,0.025 2.18388,0.032 2.18388,0.2161 0,0.1843 -0.072,0.1913 -2.2166,0.216 -1.9509,0.023 -2.22354,0.01 -2.27455,-0.1254 z M 2.69052,5.4603 C 2.4992,5.3488 2.46972,4.9887 2.63812,4.8203 c 0.16445,-0.1645 8.55935,-0.1645 8.7238,0 0.17497,0.1749 0.13599,0.534 -0.0699,0.6442 -0.25004,0.1339 -8.37135,0.1298 -8.6015,0 z m 0,-1.4286 C 2.4992,3.9203 2.46972,3.5601 2.63812,3.3917 2.72252,3.3077 3.59398,3.2774 5.9681,3.2774 c 3.08179,0 3.2198,0.01 3.31428,0.1842 0.13395,0.2503 0.12443,0.3478 -0.0511,0.5233 -0.13007,0.1301 -0.557,0.1493 -3.2619,0.1468 -1.93615,0 -3.17523,-0.04 -3.27891,-0.1 z"/></svg>