<svg class="fill-current inline-block overflow-visible w-6 h-6" name="alarm" viewBox="0 0 24 24" xmlns="http://www.w3.org/2000/svg" width="24" height="24" fill="currentColor" style="font-size: inherit;"><path fill-rule="evenodd" d="M12 2.25A6.75 6.75 0 0 0 5.25 9v3.737l-1.145 1.144a2.929 2.929 0 0 0-.855 2.066 2.803 2.803 0 0 0 2.803 2.803h2.716a3.237 3.237 0 0 0 4.47 2.754 3.24 3.24 0 0 0 1.992-2.754h2.716a2.803 2.803 0 0 0 2.803-2.804c0-.774-.308-1.517-.855-2.065l-1.145-1.144V9A6.75 6.75 0 0 0 12 2.25zm1.723 16.5a1.742 1.742 0 0 1-1.057 1.368 1.738 1.738 0 0 1-1.896-.377 1.738 1.738 0 0 1-.494-.991h3.447zm4.224-1.5a1.303 1.303 0 0 0 1.303-1.302c0-.378-.15-.74-.417-1.007l-1.363-1.363a.75.75 0 0 1-.22-.53V9a5.25 5.25 0 1 0-10.5 0v4.048a.75.75 0 0 1-.22.53l-1.363 1.363a1.427 1.427 0 0 0-.417 1.006 1.303 1.303 0 0 0 1.303 1.303h11.894z" clip-rule="evenodd"></path></svg>
