<svg fill="none" height="37" viewBox="0 0 226 37" width="226" xmlns="http://www.w3.org/2000/svg" xmlns:xlink="http://www.w3.org/1999/xlink"><clipPath id="a"><path d="m.5 0h225v36.3971h-225z"/></clipPath><g clip-path="url(#a)" fill="#ef8435"><path d="m2.07512 6.4818c27.45578-3.16748 55.09748-4.63534 82.73918-4.34563 7.7522.07726 15.4947.31868 23.2467.66633l.49-2.008644c-23.5801 6.634324-47.15 13.268644-70.7296 19.902944-6.6559 1.8735-13.3217 3.7373-19.9776 5.6107-.5481.1545-1.6738.5794-1.6346 1.3037.0391.7243 1.1256.6953 1.6346.6663 22.6889-1.3809 45.4072-2.3176 68.1353-2.8005 22.5619-.4828 45.1429-.5311 67.7049-.1352 12.832.2221 25.654.6277 38.487 1.072.792.0289 2.055-.2801 2.486-1.014.43-.734-.382-1.0623-1.018-1.0913-22.787-1.0043-45.603-1.3809-68.409-1.3906-22.817 0-45.6328.4443-68.4294 1.352-12.8127.5118-25.6253 1.1588-38.4282 1.9411v1.97c23.5698-6.6344 47.1494-13.259 70.7291-19.88369l19.9775-5.61069c.529-.14486 1.537-.52148 1.654-1.17815.118-.656672-.685-.811183-1.165-.830497-27.788-1.265061-55.6549-.7242717-83.3553 1.496827-7.8893.6277-15.7785 1.40992-23.63839 2.31767-.62644.0676-1.967413.44422-2.075083 1.21678-.107669.77255 1.047333.83049 1.575893.77255z"/><path d="m172.692 17.9238c16.738 1.4872 33.368 4.1525 49.734 7.9187l-.735-.7822c-.46 1.2168-1.575 1.661-2.77 1.9604-1.771.4442-3.631.6566-5.432.956-4.18.705-8.349 1.4099-12.529 2.1149-8.359 1.4099-16.718 2.8101-25.067 4.2587-.636.1062-1.997.4345-2.095 1.2361-.098.8015 1.057.8691 1.596.7822 9.318-1.5258 18.626-3.1096 27.945-4.6836 4.659-.7822 9.328-1.5451 13.977-2.3563 3.113-.5505 6.93-1.4775 8.163-4.7319.167-.4539-.401-.705-.734-.7823-16.659-3.8145-33.563-6.4798-50.595-7.9863-.773-.0676-2.055.2994-2.476 1.0044-.45.7725.392 1.0333 1.018 1.0815z"/></g></svg>