<svg width="38" height="40" viewBox="0 0 38 40" fill="none" xmlns="http://www.w3.org/2000/svg">
<path fill-rule="evenodd" clip-rule="evenodd" d="M16.8633 35.8684C18.7184 32.9533 21.3006 33.4322 21.3006 33.4322L32.5062 35.9113L36.0834 8.6623L25.5062 6.33759C21.0662 5.36174 20.291 9.75582 20.291 9.75582C20.291 9.75582 20.6812 5.27712 16.2412 4.30127L5.66406 1.97656L2.08678 29.226L13.2963 31.6729C13.2963 31.6729 15.5363 31.7149 16.8633 35.8684Z" fill="white"/>
<path fill-rule="evenodd" clip-rule="evenodd" d="M17.2871 32.6391C17.7208 29.3349 21.4083 30.377 21.4083 30.377L31.8149 32.6788L35.137 7.37316L25.314 5.2142C21.1905 4.3079 20.4711 8.38742 20.4711 8.38742C20.4711 8.38742 20.8333 4.2294 16.71 3.32317L6.88635 1.16406L3.56425 26.4697L13.9746 28.7431C13.9746 28.7431 17.7208 29.3349 17.2871 32.6391Z" fill="white"/>
<path fill-rule="evenodd" clip-rule="evenodd" d="M31.8145 32.673L31.582 34.444L21.2636 32.2124C18.4282 31.9769 17.0184 34.6789 17.0184 34.6789C16.753 31.5302 13.9004 30.9818 13.9004 30.9818L2.58201 28.4942L5.93439 2.95791L6.74808 2.21044L3.56415 26.4635L14.305 28.8114C17.6052 29.5314 17.196 32.1679 17.2906 32.6078L20.471 8.38172C21.1483 5.6608 22.8588 5.30629 22.8588 5.30629C21.2321 6.59361 20.3429 30.1217 20.3429 30.1217C20.3382 30.1207 20.3356 30.1227 20.3305 30.1251C20.645 30.1727 20.8482 30.2632 20.8482 30.2632L31.8145 32.673Z" fill="#EF8435"/>
<path fill-rule="evenodd" clip-rule="evenodd" d="M35.1367 7.36998L31.8144 32.6746L21.442 30.3949C17.921 29.6793 17.2868 32.6355 17.2868 32.6355C17.3377 29.5211 14.9033 28.9786 14.9033 28.9786L3.56408 26.4652L3.94793 23.5413L6.88641 1.16052L15.6511 3.08688C21.54 3.80554 20.3511 9.29658 20.3511 9.29658C20.3511 9.29658 20.6689 4.14913 25.3138 5.21059L35.1367 7.36998Z" stroke="#3B505D" stroke-width="0.252067" stroke-miterlimit="10"/>
<path d="M32.2629 33.7615L21.0812 31.3256C18.4792 30.676 17.1561 33.6366 17.1561 33.6366C17.1561 33.6366 16.587 30.0956 14.5259 29.8747L4.6343 27.7006L2.7428 27.2734" stroke="#3B505D" stroke-width="0.252067" stroke-miterlimit="10"/>
<path d="M6.74845 2.21153L5.93431 2.95978L4.72377 12.1808L3.83974 18.9148L2.61558 28.2397L14.305 31.1026C16.5678 31.805 17.0186 34.6808 17.0186 34.6808C17.0186 34.6808 18.5349 31.6247 21.7863 32.3274L29.4514 33.9852L32.1561 34.5382L35.6539 9.02902L34.9991 8.42063" stroke="#3B505D" stroke-width="0.252067" stroke-miterlimit="10"/>
<path d="M35.1155 8.44951L36.0833 8.66223L32.506 35.9117L22.0847 33.6935C18.3535 32.5453 16.8632 35.8687 16.8632 35.8687C15.6378 32.2087 13.8726 31.8163 13.8726 31.8163L2.08702 29.226L5.66431 1.97656L6.74836 2.2157" stroke="#3B505D" stroke-width="0.252067" stroke-miterlimit="10"/>
<path d="M7.83789 3.29297L16.9508 5.29586" stroke="#3B505D" stroke-width="0.252067" stroke-miterlimit="10"/>
<path d="M7.58069 5.25781L16.6936 7.26071" stroke="#3B505D" stroke-width="0.252067" stroke-miterlimit="10"/>
<path d="M7.32349 7.21484L16.4364 9.21774" stroke="#3B505D" stroke-width="0.252067" stroke-miterlimit="10"/>
<path d="M7.06616 9.17188L16.1791 11.1748" stroke="#3B505D" stroke-width="0.252067" stroke-miterlimit="10"/>
<path d="M6.80896 11.1328L15.9219 13.1357" stroke="#3B505D" stroke-width="0.252067" stroke-miterlimit="10"/>
<path d="M6.55164 13.0938L15.6646 15.0966" stroke="#3B505D" stroke-width="0.252067" stroke-miterlimit="10"/>
<path d="M6.29419 15.0508L15.4071 17.0537" stroke="#3B505D" stroke-width="0.252067" stroke-miterlimit="10"/>
<path d="M6.03723 17.0117L15.1502 19.0146" stroke="#3B505D" stroke-width="0.252067" stroke-miterlimit="10"/>
<path d="M5.77991 18.9727L14.8928 20.9756" stroke="#3B505D" stroke-width="0.252067" stroke-miterlimit="10"/>
<path d="M5.52271 20.9297L14.6356 22.9326" stroke="#3B505D" stroke-width="0.252067" stroke-miterlimit="10"/>
<path d="M5.26538 22.8906L14.3783 24.8935" stroke="#3B505D" stroke-width="0.252067" stroke-miterlimit="10"/>
<path d="M5.00818 24.8516L14.1211 26.8545" stroke="#3B505D" stroke-width="0.252067" stroke-miterlimit="10"/>
</svg>
