<svg xmlns="http://www.w3.org/2000/svg" width="38" height="40" fill="none"><path fill="#fff" fill-rule="evenodd" d="M16.863 35.868c1.855-2.915 4.438-2.436 4.438-2.436l11.205 2.48 3.577-27.25-10.577-2.324c-4.44-.976-5.215 3.418-5.215 3.418s.39-4.479-4.05-5.455L5.664 1.977 2.087 29.226l11.21 2.447s2.24.042 3.566 4.195" clip-rule="evenodd"/><path fill="#fff" fill-rule="evenodd" d="M17.287 32.64c.434-3.305 4.121-2.263 4.121-2.263l10.407 2.302 3.322-25.306-9.823-2.159c-4.123-.906-4.843 3.173-4.843 3.173s.362-4.158-3.761-5.064L6.886 1.164 3.564 26.47l10.41 2.273s3.747.592 3.313 3.896" clip-rule="evenodd"/><path fill="#EF8435" fill-rule="evenodd" d="m31.815 32.673-.233 1.771-10.318-2.232c-2.836-.235-4.246 2.467-4.246 2.467-.265-3.149-3.118-3.697-3.118-3.697L2.582 28.494 5.934 2.958l.814-.748-3.184 24.254 10.741 2.347c3.3.72 2.891 3.357 2.986 3.797l3.18-24.226c.677-2.721 2.388-3.076 2.388-3.076-1.627 1.288-2.516 24.816-2.516 24.816q-.006-.002-.012.003c.314.048.517.138.517.138z" clip-rule="evenodd"/><path stroke="#3B505D" stroke-miterlimit="10" stroke-width=".252" d="m35.137 7.37-3.323 25.305-10.372-2.28c-3.521-.716-4.155 2.24-4.155 2.24.05-3.114-2.384-3.656-2.384-3.656L3.564 26.465l.384-2.924 2.938-22.38 8.765 1.926c5.889.719 4.7 6.21 4.7 6.21s.318-5.148 4.963-4.086z" clip-rule="evenodd"/><path stroke="#3B505D" stroke-miterlimit="10" stroke-width=".252" d="M32.263 33.762 21.08 31.325c-2.602-.65-3.925 2.31-3.925 2.31s-.569-3.54-2.63-3.761L4.634 27.7l-1.891-.428"/><path stroke="#3B505D" stroke-miterlimit="10" stroke-width=".252" d="m6.748 2.212-.814.748-1.21 9.22-.884 6.735-1.224 9.325 11.689 2.863c2.263.702 2.714 3.578 2.714 3.578s1.516-3.056 4.767-2.354l7.665 1.658 2.705.553L35.654 9.03l-.655-.608"/><path stroke="#3B505D" stroke-miterlimit="10" stroke-width=".252" d="m35.116 8.45.967.212-3.577 27.25-10.421-2.218c-3.732-1.149-5.222 2.175-5.222 2.175-1.225-3.66-2.99-4.053-2.99-4.053l-11.786-2.59 3.577-27.25 1.084.24M7.838 3.293l9.113 2.003M7.58 5.258l9.114 2.003M7.323 7.215l9.113 2.003M7.066 9.172l9.113 2.003M6.809 11.133l9.113 2.003M6.552 13.094l9.113 2.003M6.294 15.05l9.113 2.004M6.037 17.012l9.113 2.003M5.78 18.973l9.113 2.003M5.523 20.93l9.113 2.003M5.265 22.89l9.113 2.003M5.008 24.852l9.113 2.003"/></svg>