<svg xmlns="http://www.w3.org/2000/svg" width="462" height="105" fill="none"><mask id="a" fill="#fff"><path d="M235 31.5a31.5 31.5 0 0 0-63 0h63"/></mask><path fill="#EF8435" stroke="#222" stroke-width="2.471" d="M235 31.5a31.5 31.5 0 0 0-63 0h63Z" mask="url(#a)"/><path fill="#EBBE52" stroke="#222" stroke-width="1.2" d="m296.308 56.502-16.108 27.9-16.108-27.9zM243.692 94.3 259.8 66.4l16.108 27.9z"/><path fill="#4AA35C" stroke="#222" stroke-width="1.511" d="m321.032 13.585 13.084-7.554 30.217 52.337-13.084 7.554z"/><path stroke="#222" stroke-linecap="round" stroke-linejoin="round" d="M1 59.28h103.266a43.8 43.8 0 0 0 25.081-7.89l5.567-3.886c14.7-10.265 34.715-8.145 46.938 4.973v0c14.794 15.878 40.169 15.15 54.028-1.55l3.22-3.88c15.763-18.993 44.717-19.551 61.2-1.18l21.946 24.46c12.735 14.193 35.006 14.083 47.6-.236v0a31.84 31.84 0 0 1 23.905-10.81H480"/></svg>