<svg xmlns="http://www.w3.org/2000/svg" width="475" height="113" fill="none"><circle cx="125" cy="20" r="19.598" fill="#EF8435" stroke="#fff" stroke-width=".804"/><path fill="#EBBE52" stroke="#fff" d="M291.45 72.25 268.5 112l-22.95-39.75z"/><path fill="#4AA35C" stroke="#fff" stroke-width=".727" d="M331.364 28.364h12.364v47.273h-12.364z"/><path stroke="#fff" stroke-linecap="round" stroke-linejoin="round" d="M-5 72.28H98.266a43.8 43.8 0 0 0 25.081-7.89l5.567-3.886c14.7-10.265 34.715-8.145 46.938 4.973v0c14.794 15.877 40.169 15.15 54.028-1.55l3.22-3.88c15.763-18.993 44.717-19.551 61.2-1.18l21.946 24.46c12.735 14.193 35.006 14.083 47.6-.236v0a31.84 31.84 0 0 1 23.905-10.81H474"/></svg>