<svg width="475" height="113" viewBox="0 0 475 113" fill="none" xmlns="http://www.w3.org/2000/svg">
<circle cx="125" cy="20" r="19.598" fill="#EF8435" stroke="#222222" stroke-width="0.803922"/>
<path d="M291.45 72.25L268.5 112L245.55 72.25L291.45 72.25Z" fill="#EBBE52" stroke="#222222"/>
<rect x="331.364" y="28.3636" width="12.3636" height="47.2727" fill="#4AA35C" stroke="#222222" stroke-width="0.727273"/>
<path d="M-5 72.2807H98.2659C107.237 72.2807 115.992 69.5266 123.347 64.3907L128.914 60.5037C143.614 50.2388 163.629 52.3595 175.852 65.4774V65.4774C190.646 81.3545 216.021 80.6263 229.88 63.927L233.1 60.0467C248.863 41.054 277.817 40.4958 294.3 58.8667L316.246 83.3261C328.981 97.5198 351.252 97.4097 363.846 83.0909V83.0909C369.89 76.2191 378.599 72.2807 387.751 72.2807H474" stroke="#222222" stroke-linecap="round" stroke-linejoin="round"/>
</svg>
