<svg xmlns="http://www.w3.org/2000/svg" width="77" height="68" fill="none"><path fill="#fff" fill-rule="evenodd" d="m22.881 32.764 3.463 16.724s15.898 5.692 28.275-9.803l-3.53-16.7L61.326 9.351 8.815 27.557z" clip-rule="evenodd"/><path fill="#fff" fill-rule="evenodd" d="m22.881 32.764 3.463 16.724s15.898 5.692 28.275-9.803l-3.53-16.7L61.326 9.351 8.815 27.557z" clip-rule="evenodd"/><path fill="#B8E8B3" fill-rule="evenodd" d="M51.09 22.988 43.334 33.89s5.512 8.91 1.676 13.922c0 0 6.373-3.43 9.61-8.124z" clip-rule="evenodd"/><path fill="#EF8435" fill-rule="evenodd" d="M51.09 22.988 43.334 33.89s5.512 8.91 1.676 13.922c0 0 6.373-3.43 9.61-8.124z" clip-rule="evenodd"/><path stroke="#3B505D" stroke-miterlimit="10" stroke-width=".549" d="m51.089 22.983 3.53 16.701-3.441 3.714c-11.69 10.794-24.834 6.089-24.834 6.089l-3.463-16.724-7.525-2.786-6.54-2.42 13.871-4.81L61.325 9.352l-7.562 10.337-13.541 18.514-17.341-5.44"/><path stroke="#3B505D" stroke-miterlimit="10" stroke-width=".549" d="m51.089 22.983 3.53 16.701-3.441 3.714c-11.69 10.794-24.834 6.089-24.834 6.089l-3.463-16.724-7.525-2.786-6.54-2.42 13.871-4.81L61.325 9.352l-7.562 10.337-13.541 18.514-17.341-5.44"/><path fill="#FFFB87" fill-rule="evenodd" d="m37.552 25.313-6.325 10.255s2.047 3.69.922 7.404c0 0-3.225-1.671-2.545-7.949z" clip-rule="evenodd"/><path fill="#EF8435" fill-rule="evenodd" d="m37.552 25.313-6.325 10.255s2.047 3.69.922 7.404c0 0-3.225-1.671-2.545-7.949z" clip-rule="evenodd"/><path stroke="#3B505D" stroke-miterlimit="10" stroke-width=".549" d="M32.15 42.972s1.05-4.09-.923-7.404l6.325-10.255"/><path stroke="#3B505D" stroke-miterlimit="10" stroke-width=".549" d="M32.15 42.972s1.05-4.09-.923-7.404l6.325-10.255"/></svg>