<svg width="77" height="68" viewBox="0 0 77 68" fill="none" xmlns="http://www.w3.org/2000/svg">
<path fill-rule="evenodd" clip-rule="evenodd" d="M22.8811 32.7637L26.3444 49.4878C26.3444 49.4878 42.242 55.1801 54.6186 39.6852L51.0888 22.9841L61.3256 9.35156L8.81496 27.557L22.8811 32.7637Z" fill="white"/>
<path fill-rule="evenodd" clip-rule="evenodd" d="M22.8811 32.7637L26.3444 49.4878C26.3444 49.4878 42.242 55.1801 54.6186 39.6852L51.0888 22.9841L61.3256 9.35156L8.81496 27.557L22.8811 32.7637Z" fill="white"/>
<path fill-rule="evenodd" clip-rule="evenodd" d="M51.0899 22.9879L43.3342 33.8896C43.3342 33.8896 48.8456 42.8009 45.0101 47.8122C45.0101 47.8122 51.3826 44.382 54.6196 39.6882L51.0899 22.9879Z" fill="#B8E8B3"/>
<path fill-rule="evenodd" clip-rule="evenodd" d="M51.0899 22.9879L43.3342 33.8896C43.3342 33.8896 48.8456 42.8009 45.0101 47.8122C45.0101 47.8122 51.3826 44.382 54.6196 39.6882L51.0899 22.9879Z" fill="#EF8435"/>
<path d="M51.0888 22.9831L54.6186 39.6842L51.178 43.3981C39.4887 54.1921 26.3444 49.4869 26.3444 49.4869L22.8811 32.7627L15.3564 29.9768L8.81508 27.5568L22.6873 22.7473L61.3251 9.35156L53.7635 19.689L40.2219 38.2027L22.8807 32.7637" stroke="#3B505D" stroke-width="0.549291" stroke-miterlimit="10"/>
<path d="M51.0888 22.9831L54.6186 39.6842L51.178 43.3981C39.4887 54.1921 26.3444 49.4869 26.3444 49.4869L22.8811 32.7627L15.3564 29.9768L8.81508 27.5568L22.6873 22.7473L61.3251 9.35156L53.7635 19.689L40.2219 38.2027L22.8807 32.7637" stroke="#3B505D" stroke-width="0.549291" stroke-miterlimit="10"/>
<path fill-rule="evenodd" clip-rule="evenodd" d="M37.5524 25.3125L31.2266 35.5683C31.2266 35.5683 33.2736 39.2576 32.1492 42.9716C32.1492 42.9716 28.9244 41.3009 29.6043 35.0233L37.5524 25.3125Z" fill="#FFFB87"/>
<path fill-rule="evenodd" clip-rule="evenodd" d="M37.5524 25.3125L31.2266 35.5683C31.2266 35.5683 33.2736 39.2576 32.1492 42.9716C32.1492 42.9716 28.9244 41.3009 29.6043 35.0233L37.5524 25.3125Z" fill="#EF8435"/>
<path d="M32.1492 42.9716C32.1492 42.9716 33.2001 38.8816 31.2266 35.5683L37.5524 25.3125" stroke="#3B505D" stroke-width="0.549291" stroke-miterlimit="10"/>
<path d="M32.1492 42.9716C32.1492 42.9716 33.2001 38.8816 31.2266 35.5683L37.5524 25.3125" stroke="#3B505D" stroke-width="0.549291" stroke-miterlimit="10"/>
</svg>
