<svg width="47" height="17" viewBox="0 0 47 17" fill="none" xmlns="http://www.w3.org/2000/svg">
<path d="M35.4004 1.25408C35.3498 1.16675 35.1554 0.994191 34.8172 0.736436C34.4497 0.453094 34.2261 0.341289 34.1462 0.400941C33.9624 0.539404 33.7654 0.697029 33.555 0.873838C33.326 1.06771 33.1463 1.22962 33.0158 1.35956C32.7735 1.5875 32.5551 1.79412 32.3608 1.97947C31.9959 2.33093 31.695 2.63237 31.458 2.88375C31.4421 2.87096 31.2331 2.74101 30.831 2.49391C30.4395 2.25318 30.2411 2.12858 30.2358 2.12007C30.1453 2.18181 29.9562 2.35545 29.6686 2.64089C29.381 2.92851 29.2372 3.08614 29.2372 3.11382L30.5314 4.22583C30.534 4.22793 30.8922 4.54537 31.6058 5.17804C31.6351 5.19512 31.6604 5.20363 31.6817 5.20363C31.8042 5.03958 31.9919 4.80635 32.2449 4.50384C32.615 4.06714 32.9985 3.63999 33.3952 3.22248C33.6669 2.93704 34.1115 2.50886 34.7293 1.93792C35.1927 1.5076 35.4164 1.27967 35.4004 1.25408L35.4004 1.25408Z" fill="#2DD4BF"/>
<path d="M25.5664 9.67061C26.1303 9.29729 26.669 9.18325 27.2591 9.28755C28.1326 9.43668 28.7625 10.0478 28.8022 10.9309C28.8488 11.9797 28.8285 13.0314 28.8343 14.0822C28.8343 14.3541 28.6955 14.4896 28.4237 14.4886C28.1791 14.4886 27.9384 14.4886 27.689 14.4886C27.3202 14.4818 27.2154 14.3785 27.2134 14.0013C27.2086 13.1026 27.2134 12.2039 27.2076 11.3052C27.2018 10.7662 26.9019 10.4933 26.3671 10.504C25.8518 10.5147 25.5849 10.7711 25.5742 11.3208C25.5586 12.1727 25.5684 13.0246 25.5664 13.8775C25.5664 14.4184 25.4956 14.4896 24.9695 14.4906C23.9019 14.4906 23.9339 14.5822 23.9368 13.472C23.9417 11.7097 23.9368 9.94645 23.9368 8.1832C23.9368 7.90345 23.9 7.54184 24.2193 7.46191C24.5737 7.38162 24.9419 7.3853 25.2947 7.47263C25.4237 7.50382 25.5373 7.8479 25.5519 8.05746C25.5907 8.57016 25.5664 9.07896 25.5664 9.67061Z" fill="white"/>
<path d="M14.6515 10.7143V13.3071C14.9592 13.3071 15.2464 13.3139 15.5337 13.3071C15.8006 13.2983 15.9054 13.4231 15.9219 13.6833C15.9617 14.4631 15.9433 14.4923 15.1649 14.4923C14.2914 14.4923 13.4179 14.4845 12.5444 14.4923C12.2319 14.4923 12.0824 14.3793 12.1086 14.0615C12.1086 14.0264 12.1086 13.9913 12.1086 13.9562C12.1086 13.3207 12.1086 13.3207 12.7434 13.3042C12.822 13.3042 12.9006 13.2915 13.0006 13.2827V10.7143C12.6929 10.7143 12.394 10.7046 12.096 10.7143C11.8223 10.7251 11.7291 10.5993 11.7194 10.3381C11.6893 9.52421 11.6884 9.51934 12.5036 9.51934H13.0374C13.0374 9.23667 13.0258 8.99397 13.0374 8.75322C13.0753 8.08846 13.448 7.67518 14.0624 7.48609C14.7805 7.26436 15.5484 7.26436 16.2665 7.48609C16.8595 7.66349 17.1701 8.15182 17.14 8.76589C17.1293 8.96083 17.0556 9.04076 16.8644 9.03393C16.6547 9.02808 16.4441 9.02224 16.2354 9.03393C15.9443 9.05245 15.7385 9.03393 15.7142 8.63528C15.6958 8.32532 15.3658 8.33701 15.1251 8.34774C14.8844 8.35846 14.6398 8.40524 14.6214 8.71813C14.6068 8.9618 14.6214 9.20548 14.6214 9.51837H16.0462C16.8381 9.51837 16.8314 9.51837 16.81 10.3225C16.8022 10.6032 16.7003 10.7212 16.4121 10.7124C15.8365 10.6997 15.2658 10.7143 14.6515 10.7143Z" fill="white"/>
<path d="M20.3302 10.7143C20.3302 11.5175 20.3176 12.2739 20.337 13.0293C20.3448 13.3344 20.5758 13.465 20.9795 13.464C21.2891 13.464 21.5395 13.3772 21.5851 13.0244C21.5977 12.8623 21.6016 12.6996 21.5968 12.537C21.586 12.4443 21.593 12.3504 21.6172 12.2602C21.82 11.8265 22.2199 12.0214 22.5431 11.9951C22.7828 11.9766 22.9915 12.0789 23.0002 12.3626C23.0205 12.6874 23.0146 13.0134 22.9827 13.3373C22.9578 13.5898 22.8586 13.8291 22.6979 14.0249C22.5372 14.2206 22.3222 14.364 22.0801 14.4368C21.4035 14.6698 20.6732 14.6959 19.9818 14.5118C19.084 14.2876 18.7007 13.7827 18.6842 12.8548C18.6735 12.2836 18.6842 11.7115 18.6842 11.1403V10.7143C18.3755 10.7143 18.1018 10.7075 17.8252 10.7143C17.5923 10.7211 17.4778 10.6169 17.4758 10.3858C17.469 9.46962 17.4195 9.50861 18.2765 9.5203H18.6842C18.6842 9.23666 18.6842 8.97446 18.6842 8.71226C18.6929 8.17812 18.8462 8.02314 19.3694 8.01242C19.4858 8.01242 19.6023 8.01242 19.7188 8.01242C20.138 8.02997 20.3011 8.18982 20.3186 8.61674C20.3322 8.89551 20.3341 9.17525 20.3428 9.455C20.3428 9.46279 20.3564 9.47157 20.3972 9.51835C20.93 9.51835 21.4978 9.51835 22.0656 9.51835C22.4693 9.51835 22.5305 9.58268 22.5373 9.98524C22.5373 10.0827 22.5305 10.1724 22.5373 10.265C22.5625 10.5935 22.4247 10.726 22.0869 10.7143C21.5182 10.6948 20.9485 10.7143 20.3302 10.7143Z" fill="white"/>
<path d="M1.64898 8.74943V10.4367H2.76317C3.08928 10.4367 3.41636 10.422 3.74052 10.4454C4.15592 10.4756 4.39177 10.7476 4.37527 11.1277C4.35877 11.5079 4.11807 11.7486 3.68617 11.7525C3.02328 11.7593 2.36039 11.7525 1.65674 11.7525C1.64606 11.8939 1.62859 12.0157 1.62762 12.1424C1.62762 12.7604 1.62762 13.3793 1.62762 13.9944C1.6218 14.3706 1.51213 14.472 1.14235 14.4817C0.968616 14.4817 0.792945 14.4817 0.618245 14.4817C0.101909 14.4817 0.000970556 14.3842 0 13.8745C0 12.7659 0 11.6573 0 10.5488C0 9.75534 0 8.96192 0 8.1685C0 7.62461 0.168877 7.45404 0.707536 7.45209C1.88385 7.45209 3.06049 7.45209 4.23745 7.45209C4.64023 7.45209 4.72273 7.53981 4.73049 7.94822C4.73049 8.05349 4.73049 8.15875 4.73049 8.26402C4.71788 8.64026 4.62276 8.73871 4.24521 8.73968C3.39598 8.75236 2.54674 8.74943 1.64898 8.74943Z" fill="white"/>
<path d="M44.6242 13.2574C44.9746 12.2827 45.5579 11.3889 45.4783 10.2963C45.4665 10.1095 45.4688 9.92218 45.4851 9.7358C45.5133 9.37613 45.7763 9.33715 46.0461 9.38003C46.3751 9.43364 46.9196 9.14513 46.9701 9.69584C47.0244 10.3333 47.0244 11.0409 46.8002 11.6228C46.2014 13.1756 45.4764 14.6805 44.7873 16.1972C44.6038 16.6007 44.1739 16.7265 43.7808 16.5403C43.4042 16.3629 43.2713 15.9798 43.4654 15.5656C43.6265 15.2195 43.8128 14.8833 44.0011 14.5216C43.5848 14.4544 43.413 14.1737 43.2722 13.851C43.0626 13.3705 42.8598 12.8851 42.6171 12.4211C42.218 11.638 42.042 10.7593 42.1085 9.88201C42.1309 9.48238 42.2182 9.38198 42.6064 9.37419C42.7928 9.37419 42.9791 9.37419 43.1664 9.37419C43.5935 9.37419 43.7381 9.48628 43.6915 9.91613C43.5615 11.1209 44.0875 12.1424 44.5417 13.1882C44.5495 13.2058 44.5738 13.2165 44.6242 13.2574Z" fill="#2DD4BF"/>
<path d="M36.7511 13.2885C36.7511 12.6062 36.7511 11.96 36.7462 11.3089C36.7302 11.2306 36.6905 11.1591 36.6327 11.1042C36.5414 10.9989 36.4386 10.9093 36.3415 10.8059C35.7592 10.2211 35.7708 9.97548 36.3949 9.45498C36.6482 9.24445 36.9093 9.2269 37.148 9.45498C37.3236 9.64035 37.4886 9.83561 37.6421 10.0398C38.3971 9.16257 39.2871 9.11773 40.214 9.3926C41.038 9.63823 41.5078 10.6441 41.2418 11.4668C41.2336 11.5014 41.2194 11.5344 41.2001 11.5643C40.8886 11.9464 40.4654 11.7592 40.0927 11.7524C39.7841 11.7524 39.786 11.46 39.7782 11.2221C39.7588 10.5769 39.2784 10.2474 38.73 10.5223C38.5874 10.5954 38.4185 10.7884 38.4127 10.9326C38.3816 11.7124 38.3981 12.4922 38.3981 13.3148C38.6893 13.3148 38.9533 13.3217 39.2163 13.3148C39.4793 13.308 39.6191 13.4123 39.6307 13.7047C39.6637 14.4845 39.6511 14.505 38.8649 14.505C38.016 14.505 37.1662 14.505 36.3153 14.505C35.898 14.505 35.8659 14.467 35.8611 14.0391V14.004C35.8611 13.3373 35.8611 13.3373 36.522 13.3217C36.5754 13.3041 36.6327 13.2973 36.7511 13.2885Z" fill="#2DD4BF"/>
<path d="M31.6129 8.7495C31.1277 8.7495 30.6725 8.73975 30.2221 8.7495C29.8931 8.76022 29.7621 8.61401 29.7504 8.29431C29.7223 7.49602 29.7504 7.45508 30.5317 7.45508C31.8828 7.45508 33.2338 7.45508 34.5848 7.45508C35.0516 7.45508 35.1069 7.51454 35.1118 7.9785C35.1118 8.08377 35.1118 8.18904 35.1118 8.29333C35.1264 8.61986 34.9759 8.75827 34.6479 8.74852C34.1975 8.73488 33.7472 8.74852 33.2522 8.74852V9.20371C33.2522 10.7555 33.2522 12.3069 33.2522 13.858C33.2522 14.4028 33.1639 14.4876 32.6252 14.4896C31.6129 14.4896 31.6129 14.4896 31.6129 13.47V8.7495V8.7495Z" fill="#2DD4BF"/>
<path d="M7.39468 13.3063V10.5644C7.0511 10.5644 6.71529 10.5546 6.38627 10.5644C6.10287 10.5741 5.99805 10.4572 5.98931 10.1745C5.97573 9.37231 5.96699 9.37231 6.78129 9.37231C7.31704 9.37231 7.8489 9.37231 8.38756 9.37231C8.92622 9.37231 9.0223 9.46199 9.0223 9.99516C9.0223 10.9517 9.0223 11.9082 9.0223 12.8647V13.3043C9.40373 13.3043 9.75993 13.3141 10.1142 13.3043C10.4121 13.2936 10.5509 13.4193 10.5315 13.7176C10.5301 13.741 10.5301 13.7644 10.5315 13.7878C10.5393 14.4905 10.5393 14.4905 9.85213 14.4915H6.3921C5.95923 14.4915 5.93108 14.4603 5.92623 14.0392C5.91943 13.3082 5.91943 13.3082 6.64056 13.3082L7.39468 13.3063Z" fill="white"/>
<path d="M8.05754 8.86244H8.0226C7.11998 8.90825 7.10737 8.6675 7.20636 7.74249C7.21801 7.62943 7.43638 7.47055 7.5742 7.45008C7.90918 7.41888 8.24617 7.41594 8.58164 7.44131C8.82525 7.45105 8.95822 7.60993 8.98636 7.84484C9.00093 7.98372 9.00483 8.12351 8.99801 8.26299C8.98636 8.69966 8.84078 8.84782 8.40597 8.85952C8.29047 8.86244 8.17401 8.86244 8.05754 8.86244Z" fill="white"/>
<path d="M4.53302 3.91762L3.4871 4.96425L2.26651 3.74283L1.04592 4.96425L0 3.91762L1.22059 2.6962L0 1.47479L1.04592 0.428162L2.26651 1.64957L3.4871 0.428162L4.53302 1.47479L3.31243 2.6962L4.53302 3.91762Z" fill="#2DD4BF"/>
<path d="M3.48713 0.428162L2.26654 1.64957L1.04595 0.428162L3.05176e-05 1.47479L1.22062 2.6962L3.05176e-05 3.91762L1.04595 4.96425L2.26654 3.74283L3.48713 4.96425L4.53305 3.91762L3.31247 2.6962L4.53305 1.47479L3.48713 0.428162Z" fill="white"/>
<path d="M26.8359 3.87483L25.79 4.92146L24.5694 3.70005L23.3488 4.92146L22.3029 3.87483L23.5234 2.65342L22.3029 1.43201L23.3488 0.385376L24.5694 1.60679L25.79 0.385376L26.8359 1.43201L25.6153 2.65342L26.8359 3.87483Z" fill="#2DD4BF"/>
<path d="M25.79 0.385376L24.5694 1.60679L23.3488 0.385376L22.3029 1.43201L23.5234 2.65342L22.3029 3.87483L23.3488 4.92146L24.5694 3.70005L25.79 4.92146L26.8359 3.87483L25.6153 2.65342L26.8359 1.43201L25.79 0.385376Z" fill="white"/>
<path d="M12.1965 3.87483L11.1506 4.92146L9.92996 3.70005L8.70938 4.92146L7.66345 3.87483L8.88404 2.65342L7.66345 1.43201L8.70938 0.385376L9.92996 1.60679L11.1506 0.385376L12.1965 1.43201L10.9759 2.65342L12.1965 3.87483Z" fill="#2DD4BF"/>
<path d="M11.1506 0.385376L9.92996 1.60679L8.70938 0.385376L7.66345 1.43201L8.88404 2.65342L7.66345 3.87483L8.70938 4.92146L9.92996 3.70005L11.1506 4.92146L12.1965 3.87483L10.9759 2.65342L12.1965 1.43201L11.1506 0.385376Z" fill="white"/>
<path d="M19.9014 3.87483L18.8555 4.92146L17.6349 3.70005L16.4143 4.92146L15.3684 3.87483L16.589 2.65342L15.3684 1.43201L16.4143 0.385376L17.6349 1.60679L18.8555 0.385376L19.9014 1.43201L18.6808 2.65342L19.9014 3.87483Z" fill="#2DD4BF"/>
<path d="M18.8555 0.385376L17.6349 1.60679L16.4143 0.385376L15.3684 1.43201L16.589 2.65342L15.3684 3.87483L16.4143 4.92146L17.6349 3.70005L18.8555 4.92146L19.9014 3.87483L18.6808 2.65342L19.9014 1.43201L18.8555 0.385376Z" fill="white"/>
</svg>
