<svg xmlns="http://www.w3.org/2000/svg" viewBox="0 0 144 144"><title>excited</title><g id="Layer_1" data-name="Layer 1"><path d="M83,24.4s1.4-.5.9,1.4-1.3,4.5-2.5,3.4" fill="#edcba8" stroke="#000" stroke-miterlimit="10" stroke-width="0.25"/><path d="M63.8,24.9s-1.8.2-.7,2.3,1.5,2.9,2,1.9" fill="#edcba8" stroke="#000" stroke-miterlimit="10" stroke-width="0.25"/><path d="M83,24.4c0-5.5-4.8-11.3-9.5-11.3s-10,4.2-9.7,11.3c0,0,.4,3.6,1.4,5h0a14,14,0,0,0,1.2,3.4c.6.7.8,3.3,3.8,3.6a3.1,3.1,0,0,0,1.6,1.1c1.5.4,3.2.5,4.1-.2L77,36.2c.4.1,1.9.2,2.3-.9s2.3-3.7,1.8-5.7h0C81.8,29,82.7,27.6,83,24.4Z" fill="#edcba8"/><path d="M71,29.2a3.1,3.1,0,0,1-3.1,1.1,2.3,2.3,0,0,0,1.6-.3,3,3,0,0,0,1.3-.9Z"/><path d="M65.2,29.4A10.5,10.5,0,0,0,66.7,33c.3.6.6,1.3.9,1.8A3.6,3.6,0,0,0,69,35.9a4.2,4.2,0,0,0,1.9.3h2l3.9-.2h.1a2.1,2.1,0,0,0,1.9-.4l.3-.4a1.7,1.7,0,0,1,.2-.5c.2-.3.3-.7.5-1a8.7,8.7,0,0,0,1-1.9,4.2,4.2,0,0,0,.3-2.2,4.1,4.1,0,0,1-.1,2.2,18.9,18.9,0,0,1-.9,2.1l-.5,1c-.1.1-.1.3-.2.5a.5.5,0,0,1-.3.5,1.6,1.6,0,0,1-1.1.5,2.4,2.4,0,0,1-1.2,0h.1a26.9,26.9,0,0,1-4,.3h-2a4.5,4.5,0,0,1-2-.4A2.9,2.9,0,0,1,67.3,35a9.1,9.1,0,0,1-.8-1.8c-.1-.3-.4-.6-.5-.9l-.3-1A10.5,10.5,0,0,1,65.2,29.4Z"/><path d="M80.4,30a2.5,2.5,0,0,0,1.2-1.1,5.9,5.9,0,0,0,.6-1.4,15.5,15.5,0,0,0,.6-3.1h0a14.7,14.7,0,0,0-1.1-4.6,14.5,14.5,0,0,0-2.6-4A9.5,9.5,0,0,0,75,13.4a7.6,7.6,0,0,0-4.7.6,10.5,10.5,0,0,0-5.9,6.9,5,5,0,0,1-.2,1.2,4.9,4.9,0,0,0-.1,1.2v1.2c.1.4.1.7.2,1.1a20.5,20.5,0,0,0,.5,2.4,3.6,3.6,0,0,0,.4,1.1c.2.3.4.7.8.8h0a1.8,1.8,0,0,1-.9-.8l-.5-1.1a10.5,10.5,0,0,1-.6-2.4,5,5,0,0,1-.2-1.2,4.9,4.9,0,0,1-.1-1.2,19,19,0,0,1,.3-2.5,10.6,10.6,0,0,1,6.3-7.2,7.9,7.9,0,0,1,4.8-.4,10,10,0,0,1,4.2,2.5,12.5,12.5,0,0,1,4,8.7h0a11.4,11.4,0,0,1-.7,3.2,6.4,6.4,0,0,1-.8,1.4,1.9,1.9,0,0,1-1.3,1Z"/><path d="M71.1,28.8s1,2,2.1,2,1.6-.4,2.3-2.3" fill="#edcba8"/><path d="M71.1,28.8a4.5,4.5,0,0,0,1,1.3,1.6,1.6,0,0,0,1.4.6,1.4,1.4,0,0,0,1.3-.8l.7-1.4a4.7,4.7,0,0,1-.6,1.5,1.8,1.8,0,0,1-.5.7l-.9.3a2,2,0,0,1-1.5-.7A4.6,4.6,0,0,1,71.1,28.8Z"/><path d="M75.2,29.2s.9.6,1.3-.9" fill="#edcba8"/><path d="M75.3,29.1a.5.5,0,0,0,.7,0,1.4,1.4,0,0,0,.5-.8,3.6,3.6,0,0,1-.4.9.7.7,0,0,1-.9.1Z"/><path d="M70.4,27.8a4.1,4.1,0,0,1-.2.7.7.7,0,0,0,1.2.6" fill="#edcba8"/><path d="M70.4,27.8v.6c-.1.2,0,.4,0,.5a.5.5,0,0,0,.4.3.7.7,0,0,0,.6-.1.9.9,0,0,1-.6.3.7.7,0,0,1-.6-.4.6.6,0,0,1,0-.6C70.3,28.2,70.3,28,70.4,27.8Z"/><path d="M69.6,35.6a4.2,4.2,0,0,0,2.2,1.9c1.5.4,3.2.5,4.1-.2a15.7,15.7,0,0,0,1.6-1.7" fill="#edcba8"/><path d="M69.6,35.6a5.9,5.9,0,0,0,1.7,1.5,5.9,5.9,0,0,0,2.3.4,3.1,3.1,0,0,0,2.1-.4,11.9,11.9,0,0,0,1.8-1.5,9.5,9.5,0,0,1-1.6,1.9,4,4,0,0,1-2.4.5,6,6,0,0,1-2.3-.6A3.1,3.1,0,0,1,69.6,35.6Z"/><path d="M78.5,30.8a2.7,2.7,0,0,1-1.5-.3,3.2,3.2,0,0,1-1.2-1.1H76A3.2,3.2,0,0,0,78.5,30.8Z"/><path d="M80.5,22.4l-1.1-.9a5.2,5.2,0,0,0-1.3-.6l-1.3-.2-1.5.3h0l1.4-.5a3.8,3.8,0,0,1,1.5,0,3.4,3.4,0,0,1,1.5.6,3.5,3.5,0,0,1,.8,1.3Z"/><path d="M66,22.5a3.1,3.1,0,0,1,.9-1.1l1.2-.5a3.4,3.4,0,0,1,1.4-.2l1.3.2h0a4,4,0,0,0-3.6.9l-1.1.6Z"/><path d="M70.2,19.6a7.3,7.3,0,0,1,2.5-.4h2.5a21.1,21.1,0,0,1-2.5.2H70.2Z"/><path d="M69.1,20.1a6.3,6.3,0,0,1,1.9-.3h5.6a22.9,22.9,0,0,1-3.7.1H71Z"/><path d="M67.7,11.1s-3-5.5,5.8-5.9c0,0,6.1.6,4.5,5" fill="#bdbdaf" stroke="#000" stroke-miterlimit="10" stroke-width="0.25"/><path d="M62.9,25.4a7.4,7.4,0,0,0,3.7-4.5,23.2,23.2,0,0,1,3.6-6.2,6.5,6.5,0,0,1,0,3,8.3,8.3,0,0,0,1.2-3s2.1,1.7,1,3.5c0,0,1.1-.9.8-3.5a3.4,3.4,0,0,1,1.1,2,2.7,2.7,0,0,0,.7-2s1.6,1,1.8,2.1,4.4,7.6,7,7.7a2.8,2.8,0,0,0,1.2-2c0-1.2-5.8-17.2-12.1-12.8C66.9,5.9,57.9,24.9,62.9,25.4Z" fill="#bdbdaf"/><path d="M62.9,25.4a6.4,6.4,0,0,0,2.4-2.2,7.8,7.8,0,0,0,1.4-2.9,22.6,22.6,0,0,1,3.4-5.8l.2-.3v.4a6.9,6.9,0,0,1,0,3.2l-.4-.2a9.9,9.9,0,0,0,1.2-3v-.4l.3.3a5.5,5.5,0,0,1,1.3,1.7,2,2,0,0,1,.1,1.1,1.9,1.9,0,0,1-.3,1l-.3-.3a1.5,1.5,0,0,0,.5-.6,2.9,2.9,0,0,0,.2-.9,10.9,10.9,0,0,0,.1-1.8v-.4l.3.3a3.4,3.4,0,0,1,.8.9,2.7,2.7,0,0,1,.3,1.2h-.2a3.2,3.2,0,0,0,.7-1.9v-.3l.2.2a6.3,6.3,0,0,1,1.2,1.1,2.2,2.2,0,0,1,.5.8,2.6,2.6,0,0,0,.3.8,16.1,16.1,0,0,0,1.7,2.8A27.5,27.5,0,0,0,81,22.7a5.3,5.3,0,0,0,2.8,1.6h-.1a2.3,2.3,0,0,0,1.1-2.2,19.9,19.9,0,0,0-.9-2.6,38.9,38.9,0,0,0-2.5-5,16,16,0,0,0-3.5-4.2,4.4,4.4,0,0,0-2.4-1.1,3.7,3.7,0,0,0-2.5.6v.2h-.1a3.4,3.4,0,0,0-2.6-.4A7.9,7.9,0,0,0,67.9,11a16.9,16.9,0,0,0-3.6,4.4A19.5,19.5,0,0,0,62,20.5a9.2,9.2,0,0,0-.5,2.8,3.2,3.2,0,0,0,.3,1.4A1.2,1.2,0,0,0,62.9,25.4Zm0,.1a2,2,0,0,1-1.2-.8,3.2,3.2,0,0,1-.3-1.4,8.6,8.6,0,0,1,.3-2.8A23,23,0,0,1,64,15.2a20,20,0,0,1,3.5-4.6,8.4,8.4,0,0,1,2.6-1.5,3.3,3.3,0,0,1,2.9.4h-.3a4.9,4.9,0,0,1,2.9-.8,5.7,5.7,0,0,1,2.6,1.2,18.8,18.8,0,0,1,3.6,4.4,39.1,39.1,0,0,1,2.4,5.1,14.3,14.3,0,0,1,.9,2.7,2,2,0,0,1-.2,1.5,3.6,3.6,0,0,1-1.1,1h0a4.7,4.7,0,0,1-2.9-1.8,27.5,27.5,0,0,1-2.2-2.6,17.5,17.5,0,0,1-1.8-2.9l-.3-.8a2.1,2.1,0,0,0-.4-.6,4.5,4.5,0,0,0-1.3-1.1h.2a2.6,2.6,0,0,1-.8,2.1l-.2.3v-.4a3,3,0,0,0-1-1.9l.3-.2a13.4,13.4,0,0,1,0,2l-.3.9a4.1,4.1,0,0,1-.5.9l-.9.7.6-1a2.9,2.9,0,0,0,.2-.9,2.8,2.8,0,0,0-.1-.9,5.7,5.7,0,0,0-1.2-1.5h.4a10.5,10.5,0,0,1-1.2,3.1l-.7,1.4.3-1.5a6.1,6.1,0,0,0,0-3h.4A21.5,21.5,0,0,0,67,20.4a12,12,0,0,1-1.5,3A8.9,8.9,0,0,1,62.9,25.5Z"/><polygon points="73 9.7 72.9 13.9 72.8 9.7 73 9.7"/><path d="M66.9,25.2l.4-.5.5-.3a2.2,2.2,0,0,1,1.1-.5h1.2l.6.2.5.5-.6-.2-.5-.2a2,2,0,0,0-1.1,0l-1.1.5-.5.3Z"/><path d="M71.2,25.8l-.4.3-.4.2a1.9,1.9,0,0,1-1,.3l-1,.2h-.5l-.4-.3h1.9l.9-.3.4-.2Z"/><path d="M70.4,24.1a2.3,2.3,0,0,1,.3,2,5.6,5.6,0,0,1-2.3.5,2.1,2.1,0,0,1-.9-1.9A3.4,3.4,0,0,1,70.4,24.1Z"/><path d="M75.3,24.4l.4-.4.6-.2,1.2-.2a3.5,3.5,0,0,1,1.1.3l.6.2.4.4-.5-.2-.6-.2-1-.2H76.4l-.6.2Z"/><path d="M75.5,25.9h1l1,.2h1l.5-.2h.5l-.4.3-.5.2H77.5l-1-.2-.6-.2Z"/><path d="M76.2,23.9a4.5,4.5,0,0,0,.1,2.3,4.5,4.5,0,0,0,2.5.1,2.8,2.8,0,0,0,.1-2.2A4.6,4.6,0,0,0,76.2,23.9Z"/><path d="M73.4,35.4c-3.1,0-4.1-1.5-4.2-2.1s.1-.3.1-.4,2.3,0,4,0,2.9-.5,3.9.2a.1.1,0,0,1,.1.1C77.5,33.9,76.1,35.3,73.4,35.4Z" stroke="#000" stroke-miterlimit="10" stroke-width="0.25"/><path d="M66.5,25.3h0Z"/><path d="M66.5,25.7l-.7.3h-.7l.7-.2Z"/><path d="M80.3,24.4h0Z"/><path d="M80.4,24.8h.7l.7.2h-.7Z"/><path d="M77.3,33.1h-.1a20.4,20.4,0,0,1-8,0,.3.3,0,0,1,.1-.2c.7-.4,2.3,0,4,0s2.9-.4,3.9.1A.1.1,0,0,1,77.3,33.1Z" fill="#fff"/><path d="M68.5,25.6a.5.5,0,0,0,0-1,.5.5,0,1,0,0,1Z" fill="#fff"/><path d="M68.9,25.5c.4,0,.4-.5,0-.5a.3.3,0,0,0,0,.5Z" fill="#fff"/><path d="M76.9,25.2a.5.5,0,0,0,0-1,.5.5,0,1,0,0,1Z" fill="#fff"/><path d="M77.5,25.2a.3.3,0,0,0,0-.5c-.4,0-.4.5,0,.5Z" fill="#fff"/></g></svg>