<svg xmlns="http://www.w3.org/2000/svg" viewBox="0 0 500 600"><path d="M235.8,127.4c-.1,0-.2.1-.2.3l.5-.2h-.3Z"/><path d="M282.3,109c-.6.7-1.5,1.6-2,2.3s1.3-1.1,1.9-1.6h0c-.6,3.1-.6,6.6-1.6,9.5h0c-1.5,1.2,1.2,1.1,1.1-.3h0c.2-3,1.7-7.2.6-9.9Z"/><path d="M232.1,110.1c-2.9-.7-1.6,13.2,1,11.5-2.2-1.7-1.5-5.9-2.1-8.8.1-.8.1-2.3,1.2-2.3s.4-.6-.1-.4Z"/><path d="M276.2,107.8a.5.5,0,0,0,.7,0Z"/><path d="M238,107.7h-.2c-.3,1.3.8.6,1.4.2s-2,.9-1.1-.2Z"/><path d="M261,125.2c-1.9.7-2.6,3-5,1.3-.8-.3-1.2-1.6-2.3-1s.6,1,1.2.9a3.2,3.2,0,0,0,1.8,1,3.4,3.4,0,0,0,3.6-1.3c.4-.1,2.5-.6.7-.9Zm.4.2h0Z"/><path d="M261.9,121c-.3,1.7,2.1,3.6.3,5,0,1.5,2.3-1,.6-3.3-.4-.4-.2-2.1-.9-1.7Z"/><path d="M253,121.3c-1.3,1.1-2.3,3.4-.8,4.7s.6.1.4-.2c-2.1-1.8,1.5-4.6.4-4.5Z"/><path d="M256.7,132.9a5.1,5.1,0,0,0-3.7,1.5c3-2.3,3.7.8,8.1-1.3a22,22,0,0,1-4.4-.2Z" fill="#f3d4ca"/><path d="M264.2,134.8a.7.7,0,0,0,.6.2l-.7-.3Z" fill="#f3d4ca"/><path d="M283.2,107.2a5,5,0,0,0-2.8,1.4c.7,1.2-.7,2.4-.7.7-1.4,4.3-.3,9.9-1,14.6,4.4,1.3,6.7-14.5,4.5-16.7Zm-2.9,4.1c4.4-6.8,1.5,5.2,1.4,7.6h0c0,1.5-2.7,1.4-1,.2.8-3.1,1-6.3,1.5-9.4-.6.5-1.1,1.6-1.9,1.6Z" fill="#f3d4ca"/><path d="M268.2,85.7c-14.4,6.6-28.2-7.3-28.6,10.5,0,4.6-6.8,9.3-2.7,13.5.1-1-.6-2.9,1-2.6,1.5-4.7,5.3-3.3,9-2.2,1.1.5,5.2.8,5.1,2,3.3-.6,2,2.9,2.2,5a5.3,5.3,0,0,1,6.2,0c.4-1.7-1.2-5.4,1.8-4.6h0c-.9-1.8,3.3-1.9,4.7-2.8,3.5-1.5,9.2-2.4,10,2.7,1.8-.3.7,2.6.9,3.7s-.1-2.5,1.2-1.5l.5-.5h0c-5.9-8.2,3.8-23.2-11.3-23.1Z" fill="#f3d4ca"/><path d="M231,107.3c-3.7,2.5-1.8,18.8,4.5,18.6.1-1.1-.2-11.1.7-5.7,1.9,1.3,1.7,4.8,3.3,6.6s4.5,4.5,5.3,7.7c2-6.5,6.3-7.1,12.1-5.9,5.2-2.4,10.6-1.8,13.2,3.9,5.2-11.7,9.3-2.8,8.3-21.6-1.9,1,1.1,7.6-1.6,7.7H265.6c-5-.1-5.7,1.3-5.2-4.6-1-.1-1.8-.7-3.2-.6h0c-5.5-.9-.9,4.9-4.1,5.2-22.2-.8-12.8,3.9-17.6-9.8.2,5.2-1.6-2.2-4.5-1.4Zm1.5,14.4c-2-.3-3.4-13.3.1-11.4-2.8.8-1.4,9.6.2,10.8s.2.8-.3.6Zm29.7,4.6a.2.2,0,0,1,0-.3h0c1.7-1.4-.3-3.2-.3-4.8s2.9,5.6.3,5.1Zm-10-.2c-2-.8.8-6.1,1-4.4-2.7,2.2.2,4.7-1,4.4Zm5.7,1c1.4.2,2.5-2.9,3.8-1.6-1.9,1.1-4.6,3.4-6.8.9-1.4.5-2.7-.6-.7-1S256.2,127.3,257.9,127.1Z" fill="#f3d4ca"/><path d="M252.8,133.3a13.4,13.4,0,0,0-7.1,2.6l.9,1.3h0c7.8,12.8,11.7-2.4,13.9,5.7,3.9-.6,5-4.6,7.3-7.1h-.1c3-2.4-2.2-1.6-3.8-2l2.6,1.1h0c3.1.9-1.8,1-2.8.9s-.3.6-.8.9h.1c-.7,2.3-10,2.7-9.8-.3-1.5-.2-3.7.2-4.7-1,1.3-.8,3.8-.5,5-2.1Z" fill="#f3d4ca"/><path d="M273.7,107.6a18.4,18.4,0,0,0-6.6.7h0c-4.2,1.5-3.6-.8-6.3-.7,0,3.4.1,7,0,10.4h16.4c0-3.3-.1-6.7,0-10.1-1.1.3-2.3-.4-3.5-.2ZM263,115c.4-4.5,9-6.4,12.2-2.8s-3.7-1.8-4.9-1.2c1.6,2.7-3.8,4.3-3.7.9a17.6,17.6,0,0,0-3,2.4c2.4-1.3,4.9.3,7.4.1,4.1-4.1,3,1.8-1.8.6h0a10.1,10.1,0,0,0-6.2,0Zm2.4-2.3Z" fill="#f3d4ca"/><path d="M242.3,107.6a13.7,13.7,0,0,0-2.9.2c-.6.4-1.9,1.3-1.6-.1h-.4c-.1,3.4,0,7-.1,10.4h16.4c0-3.4.1-6.8,0-10.1-3.9,1-7.4.1-11.4-.3Zm2.8,2.8c1.6-.8,7.7,4,5.6,4.5a22.4,22.4,0,0,0-6.3.3h0c-2.9-.2-4.1-2.9-.3-.8,2,.4,4.1-1.3,5.9-.1a5.6,5.6,0,0,0-2.3-2c-.2,2.7-4.6,2.1-4.1-.5-1.6.2-2.9,1.4-4.1,1.8-.2-1.9,3-2.9,4.8-3.1h.8Z" fill="#f3d4ca"/><path d="M263.1,136.6H263c-1.6,2.7-6,1.5-8.7,1.4-.8,0-1.3-2.2-1.7-.8.3,3.2,13.4,2,10.5-.7Z"/><path d="M269.6,110.2c-1.8-.1-7.9,3-6.5,4.8a9.8,9.8,0,0,1,6.1,0h0a3.9,3.9,0,0,0,4.3-1.4c.6-1.4-3,.2-2.5.8-2.5.2-5-1.4-7.4-.1l1.8-1.6h0l1.2-.8c-.1,3.4,5.3,1.8,3.7-.9a8.7,8.7,0,0,1,4.5,2c3.2.2-4-3.7-5.2-2.8Z"/><path d="M245.1,110.4h-.8c-1.8.2-5,1.2-4.8,3.1,1.2-.4,2.5-1.6,4.1-1.8-.5,2.6,3.9,3.2,4.1.5a5.6,5.6,0,0,1,2.3,2c-1.8-1.2-3.9.5-5.9.1-3.8-2.1-2.6.6.3.8h0a22.4,22.4,0,0,1,6.3-.3c2-.6-3.9-5.2-5.6-4.5Z"/><path d="M270,110.6c.2,1.1.4,2.9-1.3,3.1h0c-1.8.4-1.8-1.5-2.2-2.4-1.7,5,7,2.4,3.5-.7Zm-3.1,2.2Zm3.1,0h-.1C269.9,112.8,269.9,112.8,270,112.8Z"/><path d="M243.7,111.4a1.8,1.8,0,0,0,.9,2.6h0c1.2.7,3.7-.6,3-2-.6.4-.8,1.8-2,1.7h0c-2.6.2-1.1-2.7-1.9-2.3Zm.1.7Zm.1.6Zm3.4.5Z"/><path d="M268.7,112.1c0,.4.7.4.7,0a.4.4,0,1,0-.7,0Z" fill="#fff"/><path d="M268.1,112.5a.3.3,0,0,0,.5,0,.3.3,0,0,0-.5,0Z" fill="#fff"/><path d="M245.7,112.3c0,.4.7.4.7,0a.4.4,0,1,0-.7,0Z" fill="#fff"/><path d="M245.1,112.7a.3.3,0,0,0,.5,0,.3.3,0,0,0-.5,0Z" fill="#fff"/><path d="M268.5,109.8c-2.2.2-9,6.2-3.5,5,1.7-.2,9.6,1.3,7.9-1.9-2.8,2.4-6.5-.3-9.3,1.5,3.4-4.7,7.1-3.7,11.3-1.8-.5-2.1-4.3-2.9-6.4-2.8ZM271,111Zm2.2.9h0Zm-7.8,2.5Zm7.6-.4h0Zm.1-.1Zm-1.9-3.9h0Zm0,0Z"/><path d="M244.4,110l-.7.2h0a8.8,8.8,0,0,0-4.2,2.6h0c-.2,1.6,1.4-.3,2.1-.6h0a5,5,0,0,1,4.1-.8c0-.1-.1-.1-.2-.1a8.8,8.8,0,0,1,3.9,2.1h-.2c3.6,4,1.4-1.7-.9-2.4h0a7.5,7.5,0,0,0-3.9-.9Zm-.5.2h0Zm-2.3,2Z"/><path d="M241.6,113.6c1.2,2.3,5,1.1,7.2,1.3h.3c4.5.9.1-1.4-1.7-1h.1a7.5,7.5,0,0,1-4.9-.5h.1c-.3-.2-.9-.5-1.1,0Zm7.5.6h0Zm0,.8h0Z"/><path d="M264.6,71.4c-.7.6,0,2-.3,2.9-6.6-3.7-18.9.2-23.1,2.7,2,1.6-6.7.9-3,2.8-2.9.6-9.9,4.1-1.9,2.8-2.2,1.2-9,8.2-2.2,4.6-4.3,5.9-1.8,13.3-1.4,19.9-6.8-2.6-3.2,12.2-2.8,15.5s3.5,3.4,5.6,3.7c-.4,8.3-1.6,10.5,5.6,15.9H241l.4.3h.1c5.9,7.1,16.3,14.4,24.3,5.9,7.2-6.6,14.2-12.6,12.9-23.7,3.1.6,4.2-2.9,4.4-5.4s4.1-12.7-.8-12.4c2.8-9.9,3.7-20.9-6.4-26.3.8-7.4-8.4-4.6-11.3-9.2ZM259,88.2c24.2-8.7,14.8,6.9,20.5,20.6h.1l-.6.5c-1.3-1-.2,1.4-1.2,1.5s.9-4-.9-3.7c.2-8.1-19-.5-13.9.2-3.6-1-2.4,2.2-2.6,4.6a5.3,5.3,0,0,0-6.2,0c-.2-2.1,1.1-5.6-2.2-5,.1-1.2-4-1.5-5.2-2-3.6-1.1-7.5-2.5-8.9,2.2-1.6-.3-.9,1.6-1,2.6-4.2-4.6,3.4-9.6,2.9-14.9C239.4,81.8,251.3,88.4,259,88.2Zm21.2,21.9c.6-.2.3-1,.2-1.5,7-7.2,2.9,17.4-1.7,15.3.7-4.7-.4-10.3,1-14.6C279.8,109.6,279.6,110.2,280.2,110.1Zm-44.7,15.8c-7.8.9-8.9-26.8-.8-16,.7,2.1.9-.4.8-1.2,4.7,13.7-4.5,9,17.6,9.8,3.3-.2-1.4-6.1,4.1-5.2h-.1c1.3,0,2.3.6,3.3.7-2.6,8.2,11.4,3.4,16.4,4.7,2.7-.1-.3-6.7,1.6-7.7.6,22-4,9.3-8.3,21.6-2.6-5.7-8-6.3-13.2-3.9-5.1-1.4-10.8-.1-12.1,5.9-1.5-4.8-6.4-7.4-7.5-12.6-.3-.6-.3-1.6-1.1-1.7-.9-5.4-.6,4.6-.7,5.7Zm31.6-17.6c3.3-1.2,6.7-.6,10.1-.5-.1,3.4,0,6.8,0,10.1H260.9c0-3.4-.1-7-.1-10.4,2.7-.1,2.1,2.2,6.3.7Zm-25.9-.7c3.4-.7,7.1,2.1,10.3.5.5-.6,1.5-.2,2.2-.2.1,3.3,0,6.7,0,10.1H237.3c.1-3.4,0-7,.1-10.4h.7C237.1,109.3,240.3,107.1,241.2,107.6Zm11.9,28.3a10.9,10.9,0,0,1-2.6-.3h.1c4.4-2.9,9.6-3.9,14.2-.6h-.4c-3.9,0-7.5.6-11.3.8Zm-6.8.9-.6-.9a14.1,14.1,0,0,1,7.9-2.6c-.8,1.6-6.2,1.5-4.8,2.4,4.7,1.5,9.7.1,14.5.1h0c1,.1,6.4.1,3.2-.9h0l-2.6-1.1a28.4,28.4,0,0,1,5,.6,5.5,5.5,0,0,1-1.2,1.4h.1c-2.3,2.4-3.4,6.5-7.3,7.1-2.1-7.9-6.5,6.9-13.9-5.7h0l-.3-.4Z"/><path d="M255.2,131.2a2.4,2.4,0,0,0-1.2.7c.1-1.4-1,.2-1.2.7s-10.3,2.6-9.2,4.2a.8.8,0,0,0,0,1c-1.9,2.7,5.8-1.9,7-2.2h0c6.7-4.2,3.3-.2,9.8-2.4,2.2-.5,3.5,1.7,5.2,2.6s5.7,2.5,4.5.2c.2,0,.3-.2.4-.4,5.3,1.4-1.1-2.6-3-2.1h.1c-.5-.2-1.1-.6-1.5-.2s-1.5-.6-1.5.4c-2.6-3-6.3-.5-9-1.3.6-.4.4-1.3-.4-1.2Z"/><path d="M283,107.2c1,4.7-.8,9.5-1.9,14.1h0a2.6,2.6,0,0,1-.3.8h.1l-.2.2h.1c-.1,1.1-3.6,1.3-2,2.1h0a3.8,3.8,0,0,0,2.4-1.1h0c1.8-2.8,4.3-13.7,1.8-15.8Zm.5.3Zm-1.1,9.3Zm-2,5.7h0Zm.7.6Z" fill="#f3d4ca" opacity="0.61"/><path d="M230.8,107c-2,.8-2.6,6.6-1.1,7.8-.1,3.5,0,11.8,5,10.2-4.7-.8-3.8-6.5-4.1-10.1h0c0-.4-.1-.7-.1-1.1v.2c-.9-3.7.5-8.7,3.9-3.7,1.5.2-1.3-2.9-2.3-2.7s-.8-.7-1.3-.6Zm2.8,2.2h0Zm.6,15.6Zm.1,0Z" fill="#f3d4ca" opacity="0.61"/><path d="M273.4,86.6c5.2,6.1-.8,16.9,6.1,22.5,1.1.4-1-2.1-1.1-2.8h.1a9.9,9.9,0,0,1-1.1-3.7h0c-1-5.1,2.3-14.5-4-16.1Zm5,19.6h0Z" fill="#f3d4ca" opacity="0.61"/><path d="M261.1,107.4c-.6.7-.1,2.2-.3,3.2h0c.6,2.3-.9,5.9.4,7.6.8-1.4.2-3.8.4-5.5h0c0-.8-.1-1.6-.1-2.4h0c-.2-.8.5-2.5-.4-2.9Zm.5,4.6h0Z" fill="#f3d4ca" opacity="0.61"/><path d="M257.5,110.2c-2.9,0-5.8,2.9-.9.8,1.5-.7,2.8,1,3.9.6a3.3,3.3,0,0,0-3-1.4Zm-.1.7Z" fill="#f3d4ca" opacity="0.61"/><path d="M237.4,107.7c-.1,2.6-.1,5.1,0,7.7h0v2.1h0c-.4.8.9,1,.8.1h0c0-.4-.1-.8-.1-1.1h.1c0-1.8-.1-3.6-.2-5.4h0v-.7h0c-.2-.6.4-3.7-.6-2.7Zm0,3h0Zm.6.9Zm-.5,5.6h0Zm.5-6.1Z" fill="#f3d4ca" opacity="0.61"/><path d="M252.8,136.3c-.4.2-.1,1.3.4.9s.1-1.2-.4-.9Z" fill="#f3d4ca" opacity="0.61"/><path d="M263.5,135.5c-.4.1-.2.5-.3.8-1.1,2.5,1.8-.4.3-.8Z" fill="#f3d4ca" opacity="0.61"/><path d="M263.2,136a4.2,4.2,0,0,1-.4,1l.2-.3h-.1a.7.7,0,0,0,.3-.8Z" fill="#f3d4ca" opacity="0.61"/><path d="M263.4,135.5c-1.1,1.5-.8,3.7.5.9h0c.2-.5.3-1.1-.5-.9Z"/><path d="M252.5,136.1c-.1.4,0,2,.6,1.4s0-2.3-.6-1.4Z"/><path d="M261,133.1c-6.6,2.3-3.5-1.6-10.4,2.5,4.6.8,9.2-.7,13.8-.5a9,9,0,0,0-3.4-2Z" fill="#f3d4ca"/><path d="M263.2,135.8l-10,.6c0,3.2,10.1,2.8,10-.6Z" fill="#f3d4ca"/></svg>