<svg width="251" height="150" viewBox="0 0 251 150" fill="none" xmlns="http://www.w3.org/2000/svg">
<rect width="250" height="150" transform="translate(0.334961)" fill="white"/>
<path d="M63.2256 62.9106V70.987H39.5911V62.9106H63.2256ZM45.0011 101.677V60.1091C45.0011 57.2992 45.5412 54.9688 46.6216 53.1179C47.7186 51.2671 49.2144 49.879 51.1092 48.9536C53.0039 48.0281 55.1563 47.5654 57.5663 47.5654C59.1951 47.5654 60.6827 47.6916 62.0289 47.944C63.3918 48.1964 64.4057 48.4236 65.0705 48.6255L63.1758 56.7019C62.7603 56.5673 62.245 56.441 61.63 56.3233C61.0317 56.2055 60.4167 56.1466 59.7851 56.1466C58.2228 56.1466 57.1341 56.5168 56.5192 57.2571C55.9042 57.9806 55.5967 58.9986 55.5967 60.311V101.677H45.0011ZM79.2625 102.409C76.8194 102.409 74.6418 101.98 72.7305 101.122C70.8191 100.247 69.3068 98.96 68.1931 97.2604C67.0961 95.5443 66.5477 93.4074 66.5477 90.85C66.5477 88.6962 66.9382 86.8874 67.7195 85.4236C68.5006 83.9596 69.5642 82.7818 70.9107 81.8902C72.2569 80.9982 73.7859 80.3254 75.4977 79.8711C77.2265 79.4169 79.0381 79.097 80.9328 78.9119C83.1601 78.6765 84.955 78.4577 86.3179 78.2557C87.6807 78.0369 88.6698 77.7173 89.2846 77.2965C89.8995 76.876 90.2073 76.2535 90.2073 75.4291V75.2775C90.2073 73.6791 89.7085 72.4424 88.7113 71.5675C87.7308 70.6925 86.3346 70.255 84.523 70.255C82.6116 70.255 81.0908 70.6841 79.9605 71.5422C78.8305 72.3835 78.0825 73.4436 77.7168 74.7223L67.8939 73.9147C68.3926 71.5591 69.3732 69.5231 70.8358 67.8069C72.2984 66.0738 74.1849 64.7446 76.4952 63.8192C78.822 62.8769 81.5146 62.4058 84.5727 62.4058C86.7002 62.4058 88.7362 62.6582 90.6809 63.163C92.6419 63.6677 94.3789 64.4502 95.8913 65.5102C97.4206 66.5702 98.6255 67.9331 99.5063 69.5988C100.387 71.2478 100.828 73.2248 100.828 75.5301V101.677H90.7558V96.3016H90.4565C89.8416 97.513 89.0187 98.5812 87.9882 99.5066C86.9579 100.415 85.7197 101.13 84.2734 101.652C82.8275 102.157 81.1572 102.409 79.2625 102.409ZM82.3042 94.9891C83.8662 94.9891 85.2458 94.6779 86.4425 94.0551C87.6392 93.4157 88.5782 92.5578 89.2598 91.4808C89.9411 90.404 90.2819 89.184 90.2819 87.8212V83.7073C89.9496 83.9261 89.4923 84.1281 88.9108 84.3131C88.3456 84.4813 87.7056 84.6413 86.991 84.7926C86.2763 84.927 85.5617 85.0535 84.8471 85.171C84.1324 85.272 83.4842 85.3647 82.9024 85.4488C81.6559 85.6339 80.5672 85.9283 79.6364 86.3322C78.7055 86.7358 77.9827 87.2828 77.4673 87.9728C76.9522 88.6456 76.6945 89.4869 76.6945 90.4964C76.6945 91.9605 77.2181 93.0793 78.2653 93.8534C79.3289 94.6103 80.6751 94.9891 82.3042 94.9891ZM140.929 73.9652L131.206 74.5709C131.04 73.7296 130.683 72.9724 130.134 72.2994C129.586 71.6095 128.862 71.0627 127.965 70.6589C127.084 70.2382 126.029 70.0279 124.799 70.0279C123.153 70.0279 121.766 70.3813 120.635 71.0879C119.505 71.7778 118.94 72.7032 118.94 73.8642C118.94 74.7896 119.306 75.5721 120.037 76.2115C120.768 76.8509 122.023 77.364 123.802 77.7511L130.733 79.1643C134.456 79.9384 137.231 81.1833 139.059 82.8997C140.888 84.6158 141.802 86.8706 141.802 89.6637C141.802 92.2042 141.062 94.4338 139.583 96.3519C138.12 98.27 136.109 99.7675 133.55 100.845C131.007 101.904 128.073 102.435 124.749 102.435C119.68 102.435 115.641 101.366 112.633 99.2291C109.641 97.0754 107.887 94.1478 107.372 90.4461L117.818 89.8908C118.134 91.4556 118.899 92.6502 120.112 93.4747C121.325 94.2822 122.879 94.6861 124.774 94.6861C126.635 94.6861 128.131 94.3243 129.261 93.6008C130.408 92.8605 130.99 91.9099 131.007 90.749C130.99 89.773 130.583 88.9737 129.785 88.3512C128.987 87.7119 127.757 87.2239 126.095 86.8874L119.464 85.5498C115.724 84.7926 112.94 83.4801 111.112 81.6124C109.3 79.7447 108.394 77.3641 108.394 74.4699C108.394 71.9797 109.059 69.8344 110.389 68.034C111.735 66.2337 113.621 64.8456 116.048 63.8696C118.491 62.8938 121.35 62.4058 124.624 62.4058C129.461 62.4058 133.267 63.4406 136.043 65.5102C138.835 67.5798 140.464 70.3981 140.929 73.9652ZM168.858 62.9106V70.987H145.797V62.9106H168.858ZM151.033 53.6227H161.653V89.7647C161.653 90.7573 161.803 91.5314 162.102 92.0867C162.401 92.625 162.817 93.0035 163.348 93.2224C163.897 93.4409 164.528 93.5505 165.243 93.5505C165.742 93.5505 166.24 93.5084 166.739 93.4243C167.238 93.3233 167.62 93.2475 167.886 93.1972L169.556 101.198C169.024 101.366 168.276 101.559 167.312 101.778C166.348 102.014 165.177 102.157 163.797 102.207C161.237 102.308 158.994 101.963 157.066 101.172C155.154 100.382 153.667 99.1533 152.603 97.4876C151.539 95.8218 151.016 93.7187 151.033 91.1778V53.6227ZM186.397 79.2652V101.677H175.776V62.9106H185.898V69.7503H186.347C187.195 67.4956 188.616 65.7121 190.61 64.3997C192.605 63.0704 195.023 62.4058 197.865 62.4058C200.525 62.4058 202.843 62.9947 204.821 64.1725C206.799 65.3503 208.336 67.0329 209.433 69.2203C210.53 71.3908 211.079 73.982 211.079 76.9939V101.677H200.458V78.9119C200.475 76.5396 199.876 74.6887 198.663 73.3594C197.45 72.0133 195.779 71.3403 193.652 71.3403C192.222 71.3403 190.959 71.6516 189.862 72.2742C188.782 72.8967 187.934 73.8053 187.319 74.9999C186.721 76.1777 186.414 77.5995 186.397 79.2652Z" fill="#EF8435"/>
</svg>
