<svg xmlns="http://www.w3.org/2000/svg" width="251" height="150" fill="none"><path fill="#fff" d="M.335 0h250v150h-250z"/><path fill="#EF8435" d="M63.226 62.91v8.077H39.59v-8.076zM45 101.678V60.109q0-4.215 1.62-6.991 1.646-2.776 4.488-4.164 2.842-1.389 6.457-1.389 2.444 0 4.463.379 2.045.379 3.041.681l-1.894 8.077q-.624-.202-1.546-.379a9.5 9.5 0 0 0-1.845-.176q-2.342 0-3.266 1.11-.922 1.086-.922 3.054v41.366zm34.262.732q-3.666 0-6.532-1.287-2.868-1.312-4.538-3.862-1.645-2.574-1.645-6.41 0-3.231 1.171-5.426t3.192-3.534 4.587-2.019a34.6 34.6 0 0 1 5.435-.96 136 136 0 0 0 5.385-.655q2.044-.33 2.967-.96.922-.63.922-1.867v-.151q0-2.399-1.496-3.71-1.47-1.314-4.188-1.313-2.867 0-4.562 1.287-1.696 1.262-2.244 3.18l-9.823-.807q.749-3.534 2.942-6.108 2.193-2.6 5.66-3.988 3.49-1.413 8.077-1.413 3.19 0 6.108.757 2.941.757 5.21 2.347a11.36 11.36 0 0 1 3.615 4.089q1.322 2.474 1.322 5.931v26.147H90.756v-5.375h-.3a10.9 10.9 0 0 1-2.468 3.205q-1.545 1.362-3.715 2.145-2.168.757-5.01.757m3.041-7.42q2.343 0 4.138-.934 1.795-.96 2.818-2.574 1.022-1.615 1.022-3.66v-4.114q-.499.33-1.371.606-.847.252-1.92.48-1.073.201-2.144.378-1.072.152-1.945.278-1.87.278-3.266.883-1.395.606-2.169 1.64-.772 1.01-.772 2.524 0 2.197 1.57 3.357 1.595 1.136 4.04 1.136m58.625-21.024-9.723.606a5.1 5.1 0 0 0-1.072-2.272q-.823-1.034-2.169-1.64-1.321-.63-3.166-.631-2.468 0-4.164 1.06-1.695 1.035-1.695 2.776 0 1.389 1.097 2.347 1.096.96 3.765 1.54l6.931 1.413q5.584 1.161 8.326 3.736 2.743 2.573 2.743 6.764 0 3.81-2.219 6.688-2.194 2.877-6.033 4.493-3.815 1.59-8.801 1.59-7.604 0-12.116-3.206-4.488-3.23-5.261-8.783l10.446-.555q.474 2.348 2.294 3.584 1.82 1.21 4.662 1.211 2.792 0 4.487-1.085 1.72-1.11 1.746-2.852-.025-1.464-1.222-2.398-1.197-.96-3.69-1.464l-6.631-1.337q-5.61-1.136-8.352-3.938-2.718-2.8-2.718-7.142 0-3.735 1.995-6.436 2.019-2.7 5.659-4.164 3.665-1.464 8.576-1.464 7.255 0 11.419 3.104 4.188 3.105 4.886 8.455m27.929-11.054v8.076h-23.061v-8.076zm-17.825-9.288h10.62v36.142q0 1.488.449 2.322.449.807 1.246 1.135.823.329 1.895.329a9 9 0 0 0 1.496-.127q.748-.151 1.147-.227l1.67 8.001q-.798.252-2.244.58-1.445.354-3.515.429-3.84.151-6.731-1.035-2.868-1.186-4.463-3.684-1.596-2.5-1.57-6.31zm35.364 25.642v22.412h-10.621V62.911h10.122v6.84h.449q1.272-3.383 4.263-5.351 2.992-1.995 7.255-1.994 3.99 0 6.956 1.767t4.612 5.047q1.646 3.255 1.646 7.774v24.683h-10.621V78.912q.025-3.558-1.795-5.553-1.82-2.019-5.011-2.019-2.145 0-3.79.934-1.62.934-2.543 2.726-.897 1.767-.922 4.265"/></svg>