<svg width="404" height="216" viewBox="0 0 404 216" fill="none" xmlns="http://www.w3.org/2000/svg">
<g clip-path="url(#clip0_7_371)">
<rect width="403.012" height="214.484" transform="translate(0.501465 0.708374)" fill="black"/>
<path d="M101.632 214.992V1.16376" stroke="#737477" stroke-width="0.13206" stroke-miterlimit="10"/>
<path d="M1.02057 214.992V1.16376M26.1713 214.974V1.20474M38.7216 214.992V1.16376M51.3857 214.965V1.16376M89.0275 214.965V1.16376M76.4772 215.011V1.16376M114.124 215.002V1.16376M126.706 214.965V1.20474M139.274 214.983V1.16376M151.879 215.011V1.16376M176.971 214.983V1.16376M164.384 214.992V1.16376M189.576 215.02V1.16376M202.126 214.965V1.16376M214.672 214.983V1.16376M227.281 215.002V1.16376M239.886 214.965V1.16376M252.432 215.011V1.16376M264.973 215.011V1.21385M277.578 215.002V1.16376M290.188 215.011V1.16376M302.733 215.011V1.16376M315.284 215.011V1.16376M327.829 214.992V1.16376M340.439 214.965V1.16376M352.966 215.02V1.16376M365.512 214.974V1.16376M378.117 214.983V1.16376M403.177 215.011V1.16376" stroke="#737477" stroke-width="0.13206" stroke-miterlimit="10"/>
<path d="M0.956604 214.97H403.199M0.956604 202.269H403.181M1.04768 189.837H403.181M1.02946 177.273H403.167M1.04768 164.7H403.167M1.0158 139.513H403.167M1.0659 152.523H403.167M1.07956 126.949H403.181M1.07956 114.403H403.167M1.09777 101.83H403.131" stroke="#737477" stroke-width="0.13206" stroke-miterlimit="10"/>
<path d="M1.0659 76.6614H403.188M1.04768 51.5153H403.225M1.04768 63.8561H403.207M1.0659 89.5077H403.207M1.02946 38.9604H403.207M1.07956 26.4693H403.188M0.956604 1.22754L403.163 1.22754M1.07956 13.9691H403.225" stroke="#737477" stroke-width="0.13206" stroke-miterlimit="10"/>
<path d="M63.9267 215.002V1.23206M13.598 215.002V1.16376" stroke="#737477" stroke-width="0.423504" stroke-miterlimit="10"/>
<path d="M390.342 1.21843V215.011M340.373 1.20477V214.983" stroke="#737477" stroke-width="0.423504" stroke-miterlimit="10"/>
<path opacity="0.1" d="M13.598 13.8005V202.383H390.62V13.8005H13.598ZM63.954 152.141V63.8651H340.605V152.141H63.954Z" fill="white"/>
<path d="M102.027 88.5717V101.591H63.9268V88.5717H102.027ZM72.648 151.065V84.0555C72.648 79.5258 73.5188 75.7691 75.2604 72.7855C77.0287 69.8018 79.4401 67.5641 82.4946 66.0723C85.549 64.5804 89.0187 63.8345 92.9038 63.8345C95.5295 63.8345 97.9275 64.038 100.098 64.4448C102.295 64.8517 103.929 65.2179 105.001 65.5434L101.946 78.5629C101.277 78.3459 100.446 78.1425 99.4547 77.9526C98.4902 77.7628 97.4988 77.6678 96.4807 77.6678C93.9621 77.6678 92.2071 78.2645 91.2158 79.458C90.2244 80.6243 89.7287 82.2653 89.7287 84.381V151.065H72.648ZM127.879 152.246C123.941 152.246 120.43 151.554 117.349 150.17C114.268 148.76 111.83 146.685 110.035 143.945C108.266 141.179 107.382 137.734 107.382 133.611C107.382 130.139 108.012 127.224 109.271 124.864C110.53 122.504 112.245 120.605 114.416 119.168C116.586 117.73 119.051 116.645 121.81 115.913C124.597 115.181 127.517 114.665 130.572 114.367C134.162 113.987 137.056 113.634 139.253 113.309C141.45 112.956 143.044 112.441 144.035 111.763C145.027 111.085 145.523 110.081 145.523 108.752V108.508C145.523 105.931 144.719 103.937 143.111 102.527C141.53 101.117 139.28 100.411 136.359 100.411C133.278 100.411 130.826 101.103 129.004 102.486C127.183 103.842 125.977 105.551 125.387 107.613L109.552 106.311C110.356 102.513 111.937 99.2315 114.295 96.4648C116.653 93.671 119.694 91.5282 123.418 90.0364C127.169 88.5174 131.51 87.758 136.439 87.758C139.869 87.758 143.151 88.1648 146.286 88.9785C149.447 89.7922 152.248 91.0535 154.686 92.7623C157.151 94.4712 159.093 96.6682 160.513 99.3535C161.933 102.012 162.643 105.199 162.643 108.915V151.065H146.407V142.4H145.924C144.933 144.353 143.607 146.074 141.945 147.566C140.284 149.031 138.288 150.184 135.957 151.025C133.626 151.838 130.933 152.246 127.879 152.246ZM132.782 140.284C135.301 140.284 137.524 139.782 139.454 138.778C141.383 137.747 142.896 136.364 143.995 134.628C145.093 132.892 145.643 130.926 145.643 128.729V122.097C145.107 122.45 144.37 122.775 143.433 123.074C142.522 123.345 141.49 123.603 140.338 123.847C139.186 124.063 138.034 124.267 136.882 124.457C135.73 124.619 134.685 124.769 133.747 124.904C131.737 125.203 129.982 125.677 128.482 126.328C126.981 126.979 125.816 127.861 124.985 128.973C124.155 130.058 123.739 131.414 123.739 133.041C123.739 135.402 124.583 137.205 126.272 138.453C127.986 139.673 130.156 140.284 132.782 140.284ZM227.289 106.392L211.615 107.369C211.347 106.012 210.771 104.792 209.887 103.707C209.002 102.595 207.837 101.713 206.39 101.062C204.97 100.384 203.269 100.045 201.286 100.045C198.633 100.045 196.396 100.615 194.574 101.754C192.752 102.866 191.841 104.358 191.841 106.229C191.841 107.721 192.431 108.983 193.61 110.013C194.789 111.044 196.812 111.871 199.678 112.495L210.851 114.773C216.853 116.021 221.327 118.028 224.274 120.795C227.222 123.562 228.695 127.196 228.695 131.699C228.695 135.794 227.503 139.389 225.118 142.481C222.761 145.573 219.519 147.987 215.392 149.723C211.293 151.432 206.564 152.286 201.206 152.286C193.033 152.286 186.523 150.564 181.673 147.119C176.85 143.647 174.024 138.928 173.193 132.96L190.033 132.065C190.542 134.588 191.774 136.513 193.73 137.842C195.686 139.144 198.191 139.795 201.246 139.795C204.247 139.795 206.658 139.212 208.48 138.046C210.329 136.852 211.266 135.32 211.293 133.449C211.266 131.875 210.61 130.587 209.324 129.583C208.038 128.553 206.055 127.766 203.376 127.224L192.685 125.067C186.657 123.847 182.169 121.731 179.222 118.72C176.301 115.709 174.841 111.871 174.841 107.206C174.841 103.192 175.913 99.7332 178.056 96.8309C180.226 93.9287 183.267 91.6909 187.179 90.1177C191.118 88.5446 195.726 87.758 201.005 87.758C208.801 87.758 214.937 89.4261 219.412 92.7623C223.913 96.0986 226.539 100.642 227.289 106.392ZM272.311 88.5717V101.591H235.136V88.5717H272.311ZM243.576 73.5992H260.697V131.862C260.697 133.462 260.938 134.71 261.42 135.605C261.902 136.473 262.572 137.083 263.43 137.436C264.314 137.788 265.332 137.965 266.484 137.965C267.288 137.965 268.091 137.897 268.895 137.761C269.699 137.599 270.315 137.476 270.744 137.395L273.437 150.293C272.58 150.564 271.374 150.875 269.82 151.228C268.266 151.608 266.377 151.838 264.153 151.92C260.027 152.083 256.41 151.527 253.302 150.252C250.221 148.977 247.823 146.997 246.108 144.311C244.393 141.626 243.549 138.236 243.576 134.14V73.5992ZM300.585 114.936V151.065H283.464V88.5717H299.781V99.5976H300.505C301.871 95.963 304.162 93.0878 307.377 90.9721C310.592 88.8294 314.491 87.758 319.072 87.758C323.359 87.758 327.097 88.7073 330.286 90.606C333.474 92.5046 335.952 95.2171 337.721 98.7432C339.489 102.242 340.373 106.419 340.373 111.275V151.065H323.252V114.367C323.279 110.542 322.314 107.558 320.359 105.416C318.403 103.246 315.71 102.161 312.28 102.161C309.976 102.161 307.94 102.663 306.171 103.666C304.43 104.67 303.063 106.135 302.072 108.06C301.108 109.959 300.612 112.251 300.585 114.936Z" fill="#EF8435"/>
</g>
<defs>
<clipPath id="clip0_7_371">
<rect width="403.012" height="214.484" fill="white" transform="translate(0.501465 0.708374)"/>
</clipPath>
</defs>
</svg>
