<svg xmlns="http://www.w3.org/2000/svg" width="404" height="215" fill="none"><g clip-path="url(#a)"><path fill="#fff" d="M0 .505h403.012V214.99H0z"/><path stroke="#737477" stroke-miterlimit="10" stroke-width=".132" d="M101.131 214.79V.96M.519 214.79V.96m25.15 213.811V1.001M38.22 214.79V.96m12.664 213.802V.961m37.642 213.801V.961m-12.55 213.847V.961m37.646 213.838V.961m12.582 213.801V1.002m12.569 213.778V.96m12.605 213.848V.961m25.091 213.819V.96m-12.587 213.83V.96m25.192 213.857V.961m12.55 213.801V.961M214.17 214.78V.96M226.78 214.8V.961m12.605 213.801V.961m12.545 213.847V.961m12.542 213.847V1.011m12.604 213.788V.961m12.61 213.847V.961m12.546 213.847V.961m12.55 213.847V.961m12.546 213.829V.96m12.609 213.802V.961m12.528 213.856V.961m12.546 213.81V.961m12.604 213.819V.96m25.06 213.848V.961M.455 214.767h402.243M.455 202.066H402.68M.546 189.634H402.68M.528 177.07h402.138M.546 164.497h402.12M.514 139.31h402.152M.564 152.32h402.102M.578 126.746H402.68M.578 114.2h402.088M.596 101.627H402.63M.564 76.459h402.123M.547 51.312h402.176M.546 63.653h402.159M.565 89.305h402.14M.528 38.757h402.177M.578 26.268h402.109M.455 1.024h402.206M.578 13.766h402.145"/><path stroke="#737477" stroke-miterlimit="10" stroke-width=".424" d="M63.425 214.799V1.029M13.096 214.8V.961M389.841 1.015v213.793M339.872 1.002V214.78"/><path fill="#515254" d="M13.096 13.598V202.18h377.022V13.598zm50.357 138.34V63.662h276.651v88.276z" opacity=".1"/><path fill="#EF8435" d="M101.525 88.369v13.019h-38.1v-13.02zm-29.378 62.494v-67.01q0-6.795 2.612-11.27 2.652-4.476 7.234-6.714 4.582-2.237 10.41-2.237 3.938 0 7.193.61 3.296.61 4.904 1.099l-3.055 13.02q-1.004-.327-2.492-.611a15.4 15.4 0 0 0-2.974-.285q-3.777 0-5.265 1.79-1.487 1.75-1.487 4.923v66.685zm55.231 1.18q-5.908 0-10.53-2.075-4.621-2.117-7.315-6.225-2.652-4.15-2.652-10.334 0-5.208 1.889-8.748t5.144-5.696 7.395-3.255a56 56 0 0 1 8.761-1.546q5.386-.57 8.681-1.058 3.296-.53 4.783-1.546t1.487-3.011v-.244q0-3.865-2.411-5.981-2.372-2.115-6.752-2.116-4.622 0-7.355 2.075-2.733 2.035-3.617 5.127l-15.835-1.302q1.206-5.696 4.742-9.846 3.537-4.191 9.124-6.428 5.626-2.28 13.021-2.279 5.145 0 9.847 1.22 4.742 1.221 8.399 3.784 3.698 2.564 5.828 6.592 2.13 3.987 2.13 9.561v42.151h-16.237v-8.666h-.482a17.6 17.6 0 0 1-3.979 5.166q-2.492 2.198-5.988 3.459-3.497 1.221-8.078 1.221m4.903-11.962q3.777 0 6.671-1.506 2.894-1.545 4.542-4.15 1.647-2.603 1.647-5.899v-6.632q-.803.529-2.21.977-1.367.407-3.095.773-1.728.324-3.456.61-1.728.244-3.135.448-3.013.447-5.265 1.424-2.25.975-3.496 2.644-1.246 1.627-1.246 4.069 0 3.54 2.532 5.411 2.572 1.83 6.511 1.831m94.506-33.892-15.674.977a8.24 8.24 0 0 0-1.728-3.662q-1.327-1.668-3.496-2.645-2.13-1.017-5.105-1.017-3.978 0-6.711 1.709-2.733 1.668-2.733 4.476 0 2.237 1.768 3.784t6.069 2.481l11.173 2.279q9.003 1.87 13.423 6.021t4.421 10.904q0 6.144-3.577 10.782-3.537 4.638-9.726 7.242-6.148 2.563-14.187 2.563-12.257 0-19.532-5.167-7.235-5.208-8.48-14.159l16.839-.895q.764 3.785 3.698 5.778 2.934 1.952 7.515 1.953 4.501 0 7.234-1.75 2.774-1.79 2.814-4.597-.04-2.36-1.969-3.866-1.929-1.546-5.949-2.359l-10.69-2.157q-9.042-1.83-13.464-6.347-4.38-4.516-4.38-11.514 0-6.021 3.215-10.375 3.255-4.353 9.123-6.713 5.907-2.36 13.825-2.36 11.696 0 18.407 5.004 6.752 5.005 7.877 13.63m45.023-17.82v13.019h-37.176v-13.02zm-28.736-14.973h17.121v58.263q0 2.4.724 3.743.723 1.302 2.009 1.831 1.326.529 3.054.529 1.206 0 2.412-.204 1.206-.244 1.849-.366l2.693 12.898q-1.286.407-3.618.935-2.331.57-5.666.692-6.19.245-10.852-1.668-4.622-1.912-7.194-5.94t-2.532-10.172zm57.01 41.337v36.13h-17.121V88.369h16.317v11.026h.723q2.05-5.452 6.873-8.626 4.822-3.214 11.695-3.214 6.43 0 11.213 2.848t7.435 8.137q2.653 5.248 2.653 12.532v39.791h-17.121v-36.699q.04-5.736-2.894-8.951-2.934-3.255-8.078-3.255-3.457 0-6.109 1.505-2.612 1.506-4.099 4.395-1.447 2.847-1.487 6.875"/></g><defs><clipPath id="a"><path fill="#fff" d="M0 .505h403.012V214.99H0z"/></clipPath></defs></svg>