<svg width="404" height="215" viewBox="0 0 404 215" fill="none" xmlns="http://www.w3.org/2000/svg">
<g clip-path="url(#clip0_7_325)">
<rect width="403.012" height="214.484" transform="translate(0 0.505493)" fill="white"/>
<path d="M101.131 214.79V0.960876" stroke="#737477" stroke-width="0.13206" stroke-miterlimit="10"/>
<path d="M0.519043 214.79V0.960876M25.6697 214.771V1.00186M38.22 214.79V0.960876M50.8842 214.762V0.960876M88.526 214.762V0.960876M75.9757 214.808V0.960876M113.622 214.799V0.960876M126.204 214.762V1.00186M138.773 214.78V0.960876M151.378 214.808V0.960876M176.469 214.78V0.960876M163.882 214.79V0.960876M189.074 214.817V0.960876M201.624 214.762V0.960876M214.17 214.78V0.960876M226.78 214.799V0.960876M239.385 214.762V0.960876M251.93 214.808V0.960876M264.472 214.808V1.01097M277.076 214.799V0.960876M289.686 214.808V0.960876M302.232 214.808V0.960876M314.782 214.808V0.960876M327.328 214.79V0.960876M339.937 214.762V0.960876M352.465 214.817V0.960876M365.011 214.771V0.960876M377.615 214.78V0.960876M402.675 214.808V0.960876" stroke="#737477" stroke-width="0.13206" stroke-miterlimit="10"/>
<path d="M0.455078 214.767H402.698M0.455078 202.066H402.68M0.546154 189.634H402.68M0.527939 177.07H402.666M0.546154 164.497H402.666M0.514278 139.31H402.666M0.56437 152.32H402.666M0.578031 126.746H402.68M0.578031 114.2H402.666M0.596246 101.627H402.629" stroke="#737477" stroke-width="0.13206" stroke-miterlimit="10"/>
<path d="M0.56437 76.4585H402.687M0.546154 51.3123H402.723M0.546154 63.6531H402.705M0.56437 89.3048H402.705M0.527939 38.7575H402.705M0.578031 26.2664H402.687M0.455078 1.0246L402.661 1.0246M0.578031 13.7662H402.723" stroke="#737477" stroke-width="0.13206" stroke-miterlimit="10"/>
<path d="M63.4251 214.799V1.02918M13.0964 214.799V0.960876" stroke="#737477" stroke-width="0.423504" stroke-miterlimit="10"/>
<path d="M389.841 1.01549V214.808M339.872 1.00183V214.78" stroke="#737477" stroke-width="0.423504" stroke-miterlimit="10"/>
<path opacity="0.1" d="M13.0964 13.5977V202.18H390.118V13.5977H13.0964ZM63.4525 151.938V63.6623H340.104V151.938H63.4525Z" fill="#515254"/>
<path d="M101.525 88.3689V101.388H63.4254V88.3689H101.525ZM72.1466 150.863V83.8527C72.1466 79.323 73.0174 75.5663 74.759 72.5826C76.5273 69.599 78.9387 67.3613 81.9932 65.8694C85.0476 64.3776 88.5173 63.6317 92.4024 63.6317C95.0281 63.6317 97.4261 63.8351 99.5964 64.242C101.793 64.6489 103.428 65.0151 104.5 65.3405L101.445 78.3601C100.775 78.1431 99.9447 77.9396 98.9533 77.7498C97.9888 77.5599 96.9974 77.465 95.9792 77.465C93.4607 77.465 91.7057 78.0617 90.7144 79.2552C89.723 80.4215 89.2273 82.0625 89.2273 84.1782V150.863H72.1466ZM127.378 152.043C123.439 152.043 119.929 151.351 116.848 149.968C113.767 148.557 111.329 146.482 109.533 143.743C107.765 140.976 106.881 137.531 106.881 133.409C106.881 129.937 107.51 127.021 108.77 124.661C110.029 122.301 111.744 120.402 113.914 118.965C116.084 117.527 118.549 116.442 121.309 115.71C124.096 114.978 127.016 114.462 130.07 114.164C133.661 113.784 136.554 113.432 138.751 113.106C140.948 112.753 142.543 112.238 143.534 111.56C144.525 110.882 145.021 109.878 145.021 108.549V108.305C145.021 105.728 144.217 103.735 142.61 102.324C141.029 100.914 138.778 100.208 135.858 100.208C132.777 100.208 130.325 100.9 128.503 102.283C126.681 103.64 125.475 105.349 124.886 107.41L109.051 106.108C109.855 102.311 111.436 99.0286 113.793 96.262C116.151 93.4682 119.192 91.3254 122.917 89.8336C126.668 88.3146 131.008 87.5552 135.938 87.5552C139.368 87.5552 142.65 87.962 145.785 88.7757C148.946 89.5894 151.746 90.8507 154.184 92.5595C156.649 94.2684 158.592 96.4654 160.012 99.1507C161.432 101.809 162.142 104.996 162.142 108.712V150.863H145.905V142.197H145.423C144.432 144.15 143.105 145.872 141.444 147.363C139.783 148.829 137.787 149.981 135.456 150.822C133.125 151.636 130.432 152.043 127.378 152.043ZM132.281 140.081C134.799 140.081 137.023 139.579 138.952 138.575C140.881 137.545 142.395 136.162 143.494 134.425C144.592 132.69 145.141 130.723 145.141 128.526V121.894C144.606 122.247 143.869 122.572 142.931 122.871C142.02 123.142 140.988 123.4 139.836 123.644C138.684 123.86 137.532 124.064 136.38 124.254C135.228 124.417 134.183 124.566 133.245 124.702C131.236 125 129.481 125.474 127.98 126.126C126.48 126.776 125.315 127.658 124.484 128.77C123.653 129.855 123.238 131.211 123.238 132.839C123.238 135.199 124.082 137.002 125.77 138.25C127.485 139.47 129.655 140.081 132.281 140.081ZM226.787 106.189L211.113 107.166C210.846 105.81 210.269 104.589 209.385 103.504C208.501 102.392 207.335 101.51 205.889 100.859C204.469 100.181 202.767 99.8423 200.784 99.8423C198.132 99.8423 195.895 100.412 194.073 101.551C192.251 102.663 191.34 104.155 191.34 106.027C191.34 107.518 191.929 108.78 193.108 109.811C194.287 110.841 196.31 111.669 199.177 112.292L210.35 114.571C216.352 115.818 220.826 117.825 223.773 120.592C226.72 123.359 228.194 126.994 228.194 131.496C228.194 135.592 227.002 139.186 224.617 142.278C222.259 145.37 219.017 147.784 214.891 149.52C210.792 151.229 206.063 152.083 200.704 152.083C192.532 152.083 186.022 150.361 181.172 146.916C176.349 143.444 173.522 138.725 172.692 132.757L189.531 131.862C190.04 134.385 191.273 136.311 193.229 137.64C195.185 138.941 197.69 139.593 200.744 139.593C203.745 139.593 206.156 139.009 207.978 137.843C209.827 136.65 210.765 135.117 210.792 133.246C210.765 131.672 210.109 130.384 208.823 129.38C207.537 128.35 205.554 127.563 202.874 127.021L192.184 124.864C186.156 123.644 181.668 121.528 178.72 118.517C175.8 115.506 174.34 111.669 174.34 107.003C174.34 102.989 175.411 99.5304 177.555 96.6281C179.725 93.7259 182.766 91.4881 186.678 89.9149C190.616 88.3417 195.225 87.5552 200.503 87.5552C208.3 87.5552 214.436 89.2233 218.91 92.5595C223.411 95.8958 226.037 100.439 226.787 106.189ZM271.81 88.3689V101.388H234.634V88.3689H271.81ZM243.074 73.3964H260.195V131.659C260.195 133.259 260.436 134.507 260.919 135.402C261.401 136.27 262.071 136.88 262.928 137.233C263.812 137.585 264.83 137.762 265.982 137.762C266.786 137.762 267.59 137.694 268.394 137.558C269.198 137.396 269.814 137.273 270.243 137.192L272.936 150.09C272.078 150.361 270.873 150.673 269.318 151.025C267.764 151.405 265.875 151.636 263.652 151.717C259.525 151.88 255.908 151.324 252.8 150.049C249.719 148.774 247.321 146.794 245.606 144.109C243.892 141.423 243.048 138.033 243.074 133.937V73.3964ZM300.084 114.733V150.863H282.963V88.3689H299.28V99.3948H300.003C301.37 95.7602 303.661 92.885 306.876 90.7693C310.091 88.6265 313.989 87.5552 318.571 87.5552C322.858 87.5552 326.596 88.5045 329.784 90.4032C332.973 92.3018 335.451 95.0143 337.219 98.5404C338.988 102.039 339.872 106.216 339.872 111.072V150.863H322.751V114.164C322.778 110.34 321.813 107.356 319.857 105.213C317.901 103.043 315.209 101.958 311.779 101.958C309.475 101.958 307.438 102.46 305.67 103.463C303.929 104.467 302.562 105.932 301.571 107.858C300.606 109.756 300.111 112.048 300.084 114.733Z" fill="#EF8435"/>
</g>
<defs>
<clipPath id="clip0_7_325">
<rect width="403.012" height="214.484" fill="white" transform="translate(0 0.505493)"/>
</clipPath>
</defs>
</svg>
