<svg xmlns="http://www.w3.org/2000/svg" width="315" height="169" fill="none"><path fill="#000" d="M.338.79h314v168h-314z"/><path fill="#EF8435" d="M79.716 69.202v10.132H50.064V69.202zm-22.864 48.636v-52.15q0-5.289 2.033-8.772 2.063-3.483 5.63-5.224t8.1-1.742q3.066 0 5.6.475 2.564.475 3.815.855l-2.377 10.132a17 17 0 0 0-1.94-.474 12 12 0 0 0-2.314-.222q-2.94 0-4.097 1.393-1.157 1.362-1.157 3.831v51.898zm42.983.918q-4.598 0-8.195-1.615-3.597-1.647-5.692-4.845-2.065-3.23-2.065-8.042 0-4.053 1.47-6.808t4.004-4.433 5.755-2.533a43.4 43.4 0 0 1 6.819-1.203q4.191-.444 6.756-.824 2.564-.411 3.722-1.203 1.157-.791 1.157-2.343v-.19q0-3.008-1.877-4.654-1.845-1.647-5.254-1.647-3.597 0-5.724 1.615-2.127 1.583-2.815 3.99l-12.324-1.014q.939-4.433 3.691-7.662 2.753-3.262 7.1-5.003 4.38-1.774 10.134-1.773 4.004 0 7.663.95 3.691.95 6.537 2.944a14.25 14.25 0 0 1 4.535 5.13q1.659 3.103 1.658 7.44v32.805h-12.636v-6.745h-.375a13.7 13.7 0 0 1-3.097 4.021q-1.939 1.71-4.66 2.692-2.721.95-6.287.95m3.816-9.309q2.94 0 5.192-1.172 2.252-1.203 3.534-3.23 1.283-2.026 1.283-4.591v-5.161q-.626.412-1.72.76-1.064.316-2.409.601-1.345.255-2.69.475-1.344.19-2.439.349-2.346.348-4.098 1.108t-2.721 2.058q-.97 1.267-.97 3.166 0 2.756 1.971 4.212 2.001 1.425 5.067 1.425m73.55-26.376-12.199.76a6.4 6.4 0 0 0-1.345-2.85q-1.032-1.299-2.721-2.058-1.657-.792-3.972-.792-3.097 0-5.224 1.33-2.126 1.297-2.126 3.483 0 1.741 1.376 2.945t4.723 1.931l8.695 1.773q7.006 1.456 10.447 4.687 3.44 3.229 3.44 8.486 0 4.78-2.783 8.39-2.752 3.61-7.57 5.637-4.785 1.995-11.041 1.995-9.54 0-15.2-4.022-5.631-4.053-6.6-11.019l13.105-.696q.594 2.944 2.878 4.496 2.283 1.52 5.849 1.52 3.503 0 5.63-1.362 2.158-1.393 2.189-3.578-.032-1.836-1.532-3.008-1.501-1.203-4.63-1.836l-8.319-1.679q-7.038-1.425-10.478-4.94-3.41-3.515-3.41-8.96 0-4.686 2.502-8.074 2.534-3.389 7.101-5.225 4.597-1.837 10.759-1.837 9.102 0 14.325 3.895 5.255 3.895 6.131 10.608M212.24 69.2v10.133h-28.932V69.202zM189.876 57.55H203.2v45.343q0 1.869.563 2.913.564 1.014 1.564 1.425 1.032.412 2.377.412.938 0 1.877-.158.939-.19 1.439-.285l2.096 10.037q-1.001.317-2.816.728-1.813.444-4.41.539-4.817.189-8.445-1.299-3.597-1.488-5.599-4.623-2.001-3.135-1.97-7.916zm44.368 32.17v28.119h-13.325V69.202h12.699v8.58h.563q1.595-4.243 5.348-6.712 3.755-2.502 9.102-2.501 5.005 0 8.727 2.216t5.786 6.333q2.065 4.085 2.065 9.752v30.968h-13.325V89.277q.031-4.466-2.252-6.966-2.282-2.534-6.287-2.534-2.69 0-4.754 1.172-2.033 1.172-3.19 3.42-1.126 2.216-1.157 5.35"/></svg>