<svg xmlns="http://www.w3.org/2000/svg" width="404" height="216" fill="none"><g clip-path="url(#a)"><path fill="#000" d="M.501.708h403.012v214.484H.501z"/><path stroke="#737477" stroke-miterlimit="10" stroke-width=".132" d="M101.632 214.992V1.164M1.02 214.992V1.164m25.151 213.81V1.204m12.55 213.788V1.164m12.665 213.801V1.164m37.642 213.801V1.164M76.478 215.01V1.164m37.646 213.838V1.164m12.582 213.801V1.205m12.568 213.778V1.163m12.605 213.848V1.164m25.092 213.819V1.163m-12.587 213.829V1.164m25.192 213.856V1.164m12.55 213.801V1.164m12.546 213.819V1.163m12.609 213.839V1.164m12.605 213.801V1.164m12.546 213.847V1.164m12.541 213.847V1.214m12.605 213.788V1.164m12.61 213.847V1.164m12.545 213.847V1.164m12.551 213.847V1.164m12.545 213.828V1.164m12.61 213.801V1.164m12.527 213.856V1.164m12.546 213.81V1.164m12.605 213.819V1.163m25.06 213.848V1.164M.957 214.97h402.242M.957 202.269H403.18M1.048 189.837H403.18M1.029 177.273h402.138M1.047 164.7h402.12M1.016 139.513h402.151M1.066 152.523h402.101M1.08 126.949H403.18M1.08 114.403h402.087M1.097 101.83h402.034M1.066 76.661h402.122M1.048 51.515h402.177M1.048 63.856h402.159M1.066 89.508h402.141M1.029 38.96h402.178M1.08 26.47h402.108M.957 1.227h402.206M1.08 13.969h402.145"/><path stroke="#737477" stroke-miterlimit="10" stroke-width=".424" d="M63.927 215.002V1.232m-50.329 213.77V1.164M390.342 1.218v213.793M340.373 1.205v213.778"/><path fill="#fff" d="M13.598 13.8v188.583H390.62V13.801zm50.356 138.341V63.865h276.651v88.276z" opacity=".1"/><path fill="#EF8435" d="M102.027 88.572v13.019h-38.1v-13.02zm-29.379 62.493v-67.01q0-6.794 2.612-11.27 2.653-4.474 7.235-6.713 4.581-2.238 10.409-2.238 3.938 0 7.194.61 3.295.612 4.903 1.1l-3.055 13.019q-1.004-.325-2.491-.61a15.4 15.4 0 0 0-2.974-.285q-3.779 0-5.265 1.79-1.487 1.749-1.487 4.923v66.684zm55.231 1.181q-5.908 0-10.53-2.076-4.622-2.115-7.314-6.225-2.653-4.15-2.653-10.334 0-5.208 1.889-8.747 1.889-3.54 5.145-5.696 3.255-2.157 7.394-3.255a56 56 0 0 1 8.762-1.546q5.385-.57 8.681-1.058 3.296-.53 4.782-1.546 1.488-1.017 1.488-3.011v-.244q0-3.866-2.412-5.981-2.371-2.115-6.752-2.116-4.622 0-7.355 2.075-2.732 2.034-3.617 5.127l-15.835-1.302q1.206-5.697 4.743-9.846 3.537-4.191 9.123-6.429 5.627-2.278 13.021-2.278 5.145 0 9.847 1.22 4.742 1.221 8.4 3.784 3.697 2.564 5.827 6.591 2.13 3.988 2.13 9.562v42.15h-16.236V142.4h-.483a17.6 17.6 0 0 1-3.979 5.166q-2.492 2.198-5.988 3.459-3.497 1.22-8.078 1.221m4.903-11.962q3.778 0 6.672-1.506 2.893-1.546 4.541-4.15 1.647-2.604 1.648-5.899v-6.632q-.804.529-2.21.977-1.367.407-3.095.773-1.728.325-3.456.61-1.728.244-3.135.447-3.015.448-5.265 1.424-2.251.977-3.497 2.645-1.246 1.627-1.246 4.068 0 3.54 2.533 5.412 2.571 1.83 6.51 1.831m94.507-33.892-15.674.977a8.24 8.24 0 0 0-1.728-3.662q-1.327-1.668-3.497-2.645-2.13-1.017-5.104-1.017-3.98 0-6.712 1.709-2.733 1.668-2.733 4.475 0 2.239 1.769 3.784 1.769 1.546 6.068 2.482l11.173 2.278q9.003 1.872 13.423 6.022 4.422 4.15 4.421 10.904 0 6.143-3.577 10.782-3.535 4.638-9.726 7.242-6.149 2.563-14.186 2.563-12.259 0-19.533-5.167-7.234-5.208-8.48-14.159l16.84-.895q.763 3.784 3.697 5.777 2.934 1.953 7.516 1.953 4.501 0 7.234-1.749 2.773-1.79 2.813-4.597-.04-2.36-1.969-3.866-1.93-1.545-5.948-2.359l-10.691-2.157q-9.042-1.83-13.463-6.347-4.381-4.517-4.381-11.514 0-6.022 3.215-10.375 3.255-4.353 9.123-6.713 5.908-2.36 13.826-2.36 11.694 0 18.407 5.004 6.752 5.005 7.877 13.63m45.022-17.82v13.019h-37.175v-13.02zm-28.735-14.973h17.121v58.263q0 2.4.723 3.743.723 1.302 2.01 1.831 1.326.528 3.054.529 1.205 0 2.411-.204 1.206-.244 1.849-.366l2.693 12.898q-1.286.406-3.617.935-2.331.57-5.667.692-6.189.245-10.851-1.668-4.621-1.912-7.194-5.941-2.572-4.027-2.532-10.171zm57.009 41.337v36.129h-17.121V88.572h16.317v11.026h.724q2.05-5.452 6.872-8.626 4.823-3.214 11.695-3.214 6.43 0 11.214 2.848 4.782 2.848 7.435 8.137 2.652 5.248 2.652 12.532v39.79h-17.121v-36.698q.04-5.738-2.893-8.951-2.934-3.255-8.079-3.255-3.456 0-6.109 1.505-2.612 1.506-4.099 4.394-1.446 2.849-1.487 6.876"/></g><defs><clipPath id="a"><path fill="#fff" d="M.501.708h403.012v214.484H.501z"/></clipPath></defs></svg>