<svg width="315" height="169" viewBox="0 0 315 169" fill="none" xmlns="http://www.w3.org/2000/svg">
<rect width="314" height="168" transform="translate(0.338379 0.789185)" fill="black"/>
<path d="M79.7156 69.2018V79.3342H50.0642V69.2018H79.7156ZM56.8515 117.838V65.6871C56.8515 62.1618 57.5292 59.2382 58.8846 56.9161C60.2608 54.5941 62.1374 52.8526 64.5146 51.6916C66.8917 50.5306 69.592 49.9501 72.6155 49.9501C74.659 49.9501 76.5252 50.1084 78.2143 50.425C79.9241 50.7417 81.1961 51.0267 82.0301 51.28L79.653 61.4124C79.1317 61.2436 78.4853 61.0852 77.7138 60.9375C76.9631 60.7897 76.1916 60.7158 75.3992 60.7158C73.4392 60.7158 72.0734 61.1802 71.3018 62.109C70.5303 63.0167 70.1446 64.2939 70.1446 65.9404V117.838H56.8515ZM99.8351 118.756C96.77 118.756 94.0381 118.218 91.6401 117.141C89.2422 116.043 87.3449 114.428 85.9477 112.296C84.5715 110.143 83.8833 107.462 83.8833 104.254C83.8833 101.552 84.3734 99.2826 85.3536 97.4461C86.3334 95.6093 87.6678 94.1318 89.3571 93.0131C91.046 91.8941 92.9643 91.05 95.1119 90.4801C97.2808 89.9101 99.5536 89.5089 101.931 89.2767C104.725 88.9813 106.977 88.7068 108.687 88.4534C110.396 88.1788 111.637 87.778 112.409 87.25C113.18 86.7225 113.566 85.9415 113.566 84.9072V84.717C113.566 82.7117 112.94 81.1602 111.689 80.0625C110.459 78.9648 108.708 78.4159 106.435 78.4159C104.037 78.4159 102.129 78.9542 100.711 80.0308C99.293 81.0863 98.3546 82.4162 97.8959 84.0205L85.5723 83.0072C86.198 80.052 87.4282 77.4977 89.2631 75.3446C91.0981 73.1703 93.4648 71.5027 96.3633 70.3417C99.2824 69.1595 102.661 68.5685 106.497 68.5685C109.166 68.5685 111.721 68.8851 114.16 69.5184C116.621 70.1517 118.8 71.1333 120.697 72.4631C122.616 73.793 124.127 75.5029 125.232 77.5927C126.338 79.6614 126.89 82.1418 126.89 85.0339V117.838H114.254V111.093H113.879C113.107 112.613 112.075 113.953 110.782 115.114C109.49 116.255 107.936 117.151 106.122 117.806C104.308 118.439 102.212 118.756 99.8351 118.756ZM103.651 109.447C105.611 109.447 107.342 109.056 108.843 108.275C110.344 107.473 111.522 106.397 112.377 105.045C113.232 103.694 113.66 102.164 113.66 100.454V95.2928C113.243 95.5673 112.669 95.8207 111.94 96.0529C111.231 96.2639 110.428 96.4646 109.531 96.6544C108.634 96.8231 107.738 96.9817 106.841 97.1292C105.945 97.2559 105.132 97.3722 104.402 97.4777C102.838 97.7099 101.472 98.0792 100.304 98.586C99.1363 99.0924 98.2295 99.7786 97.5829 100.644C96.9366 101.488 96.6133 102.544 96.6133 103.81C96.6133 105.647 97.2702 107.051 98.584 108.022C99.9184 108.972 101.607 109.447 103.651 109.447ZM177.201 83.0706L165.002 83.8305C164.794 82.775 164.345 81.8251 163.657 80.9808C162.969 80.1153 162.062 79.4292 160.936 78.9226C159.831 78.3948 158.507 78.131 156.964 78.131C154.899 78.131 153.158 78.5743 151.74 79.4609C150.323 80.3264 149.614 81.4874 149.614 82.9439C149.614 84.1049 150.072 85.0867 150.99 85.8888C151.907 86.6909 153.482 87.3347 155.713 87.8203L164.408 89.5932C169.079 90.5644 172.561 92.1263 174.855 94.2796C177.148 96.4326 178.295 99.2614 178.295 102.766C178.295 105.953 177.367 108.75 175.512 111.156C173.677 113.563 171.154 115.442 167.942 116.793C164.752 118.123 161.072 118.788 156.901 118.788C150.541 118.788 145.475 117.447 141.701 114.766C137.947 112.064 135.747 108.391 135.101 103.747L148.206 103.051C148.602 105.014 149.562 106.512 151.084 107.547C152.606 108.56 154.556 109.067 156.933 109.067C159.268 109.067 161.145 108.613 162.563 107.705C164.002 106.776 164.731 105.584 164.752 104.127C164.731 102.903 164.22 101.9 163.22 101.119C162.219 100.317 160.676 99.7046 158.59 99.2826L150.271 97.6044C145.579 96.6544 142.086 95.0078 139.793 92.6646C137.519 90.3214 136.383 87.3347 136.383 83.7038C136.383 80.5797 137.217 77.8882 138.885 75.6295C140.574 73.3708 142.941 71.6293 145.986 70.405C149.051 69.1807 152.637 68.5685 156.745 68.5685C162.813 68.5685 167.588 69.8667 171.07 72.4631C174.573 75.0596 176.617 78.5954 177.201 83.0706ZM212.24 69.2018V79.3342H183.308V69.2018H212.24ZM189.876 57.5494H203.2V102.892C203.2 104.138 203.388 105.109 203.763 105.805C204.139 106.481 204.66 106.956 205.327 107.23C206.015 107.504 206.808 107.642 207.704 107.642C208.33 107.642 208.955 107.589 209.581 107.484C210.207 107.357 210.686 107.262 211.02 107.199L213.116 117.236C212.448 117.447 211.51 117.69 210.3 117.964C209.091 118.26 207.621 118.439 205.89 118.503C202.679 118.629 199.864 118.196 197.445 117.204C195.047 116.212 193.181 114.671 191.846 112.581C190.512 110.491 189.855 107.853 189.876 104.665V57.5494ZM234.244 89.7199V117.838H220.919V69.2018H233.618V77.7827H234.181C235.244 74.9541 237.027 72.7164 239.529 71.0699C242.032 69.4023 245.066 68.5685 248.631 68.5685C251.968 68.5685 254.876 69.3073 257.358 70.785C259.839 72.2626 261.768 74.3735 263.144 77.1177C264.521 79.8409 265.209 83.0917 265.209 86.8703V117.838H251.884V89.2767C251.905 86.3004 251.154 83.9782 249.632 82.3106C248.11 80.6219 246.015 79.7775 243.345 79.7775C241.552 79.7775 239.967 80.1681 238.591 80.9491C237.236 81.7301 236.172 82.87 235.401 84.3688C234.65 85.8464 234.265 87.6301 234.244 89.7199Z" fill="#EF8435"/>
</svg>
