<svg xmlns="http://www.w3.org/2000/svg" width="315" height="169" fill="none"><path fill="#fff" d="M.008.038h314v168h-314z"/><path fill="#EF8435" d="M79.385 68.45v10.133H49.733V68.45zM56.52 117.086v-52.15q0-5.29 2.033-8.771 2.064-3.483 5.63-5.225 3.566-1.74 8.1-1.741 3.065 0 5.6.475 2.564.474 3.815.855L79.322 60.66a17 17 0 0 0-1.939-.475 12 12 0 0 0-2.315-.221q-2.94 0-4.097 1.393-1.158 1.361-1.157 3.831v51.897zm42.983.919q-4.598 0-8.195-1.615-3.597-1.647-5.692-4.845-2.064-3.23-2.065-8.042 0-4.054 1.47-6.808 1.47-2.756 4.004-4.433 2.534-1.679 5.755-2.533a43.4 43.4 0 0 1 6.819-1.204q4.191-.443 6.756-.823 2.565-.412 3.722-1.203t1.157-2.343v-.19q0-3.008-1.876-4.655-1.846-1.647-5.255-1.646-3.597 0-5.724 1.614-2.127 1.584-2.815 3.99l-12.323-1.013q.938-4.433 3.69-7.663 2.753-3.261 7.1-5.003 4.38-1.773 10.134-1.773 4.004 0 7.663.95 3.692.95 6.537 2.945a14.25 14.25 0 0 1 4.536 5.13q1.657 3.102 1.657 7.44v32.804h-12.636v-6.744h-.375a13.7 13.7 0 0 1-3.097 4.021q-1.939 1.71-4.66 2.692-2.721.95-6.287.95m3.816-9.31q2.94 0 5.192-1.171 2.252-1.204 3.535-3.23 1.281-2.027 1.282-4.591V94.54q-.626.412-1.72.76-1.063.318-2.409.602-1.344.253-2.689.475l-2.44.348q-2.346.349-4.098 1.109-1.751.759-2.721 2.058-.97 1.266-.97 3.166 0 2.755 1.971 4.212 2.002 1.424 5.067 1.424m73.55-26.376-12.198.76a6.4 6.4 0 0 0-1.345-2.85q-1.033-1.297-2.722-2.058-1.657-.792-3.972-.791-3.096 0-5.223 1.33-2.127 1.297-2.127 3.483 0 1.74 1.376 2.944 1.377 1.204 4.723 1.932l8.695 1.773q7.006 1.456 10.447 4.686t3.44 8.486q0 4.782-2.783 8.391-2.753 3.609-7.569 5.637-4.786 1.994-11.041 1.994-9.54 0-15.201-4.021-5.631-4.053-6.6-11.019l13.105-.697q.594 2.945 2.878 4.496 2.283 1.52 5.849 1.52 3.503 0 5.63-1.361 2.158-1.394 2.189-3.578-.031-1.837-1.532-3.008-1.501-1.204-4.63-1.837l-8.319-1.678q-7.038-1.424-10.478-4.94-3.41-3.515-3.41-8.96 0-4.687 2.503-8.075 2.532-3.387 7.1-5.224 4.597-1.837 10.759-1.837 9.102 0 14.325 3.895 5.255 3.894 6.131 10.607m35.039-13.869v10.133h-28.932V68.45zm-22.364-11.652h13.325v45.343q0 1.867.563 2.913.563 1.013 1.563 1.425 1.033.412 2.377.412.94 0 1.877-.159.939-.19 1.439-.285l2.096 10.038q-1.001.316-2.815.728-1.815.443-4.411.538-4.817.19-8.444-1.298-3.597-1.488-5.599-4.623-2.002-3.134-1.971-7.916zm44.368 32.17v28.118h-13.325V68.45h12.699v8.581h.563q1.596-4.243 5.349-6.712 3.753-2.502 9.101-2.502 5.006 0 8.727 2.217t5.787 6.332q2.064 4.085 2.064 9.753v30.967h-13.324v-28.56q.03-4.466-2.252-6.967-2.284-2.532-6.287-2.533-2.69 0-4.755 1.172-2.033 1.17-3.19 3.42-1.125 2.215-1.157 5.35"/></svg>