<svg width="48" height="48" viewBox="0 0 48 48" fill="none" xmlns="http://www.w3.org/2000/svg">
<path d="M24 0C10.7667 0 0 10.7667 0 24C0 37.2333 10.7667 48 24 48C37.2333 48 48 37.2333 48 24C48 10.7667 37.2333 0 24 0ZM39.2095 36.821V33.603C39.2095 29.828 36.1492 26.7796 32.3926 26.7796C32.39 26.7796 32.3885 26.7811 32.3855 26.7811V26.7796H28.4622C31.3123 25.203 33.246 22.1691 33.246 18.6836C33.246 13.5813 29.1035 9.43771 24.0001 9.43771C18.8966 9.43771 14.7538 13.5813 14.7538 18.6836C14.7538 22.1691 16.6872 25.203 19.5384 26.7796H15.6083C11.8397 26.7796 8.79131 29.828 8.79131 33.603V36.821C5.86426 33.3548 4.09522 28.8809 4.09522 24C4.09522 13.0238 13.0242 4.09524 24 4.09524C34.9758 4.09524 43.9047 13.0246 43.9047 24C43.9047 28.881 42.1362 33.3552 39.209 36.821H39.2095Z" fill="#656565"/>
</svg>
