<svg width="93" height="32" viewBox="0 0 93 32" fill="none" xmlns="http://www.w3.org/2000/svg">
<path d="M69.7581 1.71182C69.6584 1.53974 69.2754 1.1997 68.609 0.69178C67.8848 0.133442 67.4441 -0.0868753 67.2866 0.0306707C66.9245 0.303521 66.5363 0.614128 66.1217 0.962539C65.6705 1.34457 65.3163 1.66363 65.0592 1.91968C64.5816 2.36884 64.1514 2.77599 63.7684 3.14124C63.0495 3.83381 62.4565 4.42782 61.9895 4.92317C61.9581 4.89796 61.5462 4.64188 60.7538 4.15497C59.9824 3.6806 59.5915 3.43508 59.581 3.4183C59.4026 3.53997 59.03 3.88212 58.4634 4.44459C57.8967 5.01137 57.6133 5.322 57.6133 5.37653L60.1634 7.56781C60.1687 7.57194 60.8745 8.19748 62.2807 9.44418C62.3384 9.47783 62.3883 9.4946 62.4303 9.4946C62.6716 9.17134 63.0416 8.71174 63.54 8.11562C64.2694 7.25509 65.025 6.41338 65.8068 5.59064C66.3421 5.02817 67.2183 4.18443 68.4357 3.05937C69.3488 2.21141 69.7896 1.76225 69.758 1.71183L69.7581 1.71182Z" fill="#2DD4BF"/>
<path d="M50.3797 18.297C51.4909 17.5614 52.5523 17.3366 53.7152 17.5422C55.4364 17.836 56.6777 19.0403 56.7561 20.7805C56.8479 22.8472 56.8077 24.9196 56.8192 26.9902C56.8192 27.5261 56.5457 27.793 56.0102 27.7911C55.5282 27.7911 55.0539 27.7911 54.5624 27.7911C53.8357 27.7777 53.6291 27.5741 53.6253 26.8308C53.6157 25.0599 53.6253 23.2889 53.6138 21.518C53.6023 20.4559 53.0114 19.9181 51.9575 19.9392C50.942 19.9603 50.4161 20.4655 50.395 21.5488C50.3644 23.2275 50.3835 24.9062 50.3797 26.5868C50.3797 27.6528 50.2401 27.793 49.2035 27.795C47.0997 27.795 47.1628 27.9755 47.1686 25.7878C47.1781 22.3151 47.1686 18.8406 47.1686 15.366C47.1686 14.8147 47.0959 14.1021 47.7251 13.9446C48.4235 13.7864 49.149 13.7937 49.8442 13.9658C50.0986 14.0272 50.3223 14.7052 50.351 15.1182C50.4275 16.1285 50.3797 17.1311 50.3797 18.297Z" fill="white"/>
<path d="M28.8716 20.3537V25.4628C29.4779 25.4628 30.044 25.4763 30.6101 25.4628C31.1361 25.4456 31.3426 25.6914 31.3751 26.2042C31.4535 27.7408 31.4172 27.7984 29.8834 27.7984C28.1621 27.7984 26.4408 27.7831 24.7195 27.7984C24.1037 27.7984 23.8092 27.5756 23.8608 26.9495C23.8608 26.8803 23.8608 26.8112 23.8608 26.742C23.8608 25.4897 23.8608 25.4897 25.1116 25.4571C25.2665 25.4571 25.4214 25.4321 25.6184 25.4148V20.3537C25.0121 20.3537 24.4231 20.3345 23.8359 20.3537C23.2966 20.3749 23.113 20.1271 23.0939 19.6123C23.0346 18.0085 23.0327 17.9989 24.6392 17.9989H25.6911C25.6911 17.4419 25.6681 16.9637 25.6911 16.4892C25.7657 15.1793 26.5001 14.3649 27.7107 13.9923C29.1258 13.5554 30.639 13.5554 32.0541 13.9923C33.2226 14.3419 33.8346 15.3042 33.7753 16.5142C33.7543 16.8984 33.609 17.0559 33.2322 17.0424C32.8191 17.0309 32.4041 17.0194 31.9929 17.0424C31.4191 17.0789 31.0137 17.0424 30.9658 16.2568C30.9295 15.646 30.2792 15.6691 29.8049 15.6902C29.3306 15.7113 28.8487 15.8035 28.8123 16.4201C28.7836 16.9003 28.8123 17.3805 28.8123 17.997H31.6199C33.1806 17.997 33.1672 17.997 33.1251 19.5816C33.1098 20.1348 32.909 20.3672 32.341 20.3499C31.2068 20.3249 30.0823 20.3537 28.8716 20.3537Z" fill="white"/>
<path d="M40.0618 20.3537C40.0618 21.9364 40.037 23.4269 40.0752 24.9154C40.0905 25.5166 40.5457 25.774 41.3413 25.7721C41.9514 25.7721 42.4448 25.6011 42.5347 24.9058C42.5595 24.5863 42.5671 24.2658 42.5577 23.9455C42.5365 23.7627 42.5501 23.5776 42.5978 23.4C42.9976 22.5453 43.7855 22.9294 44.4224 22.8775C44.8948 22.8411 45.306 23.0427 45.3232 23.6017C45.3631 24.2418 45.3516 24.8841 45.2888 25.5224C45.2395 26.0199 45.0442 26.4915 44.7275 26.8773C44.4108 27.263 43.987 27.5456 43.5101 27.6889C42.1768 28.1481 40.7377 28.1995 39.3752 27.8368C37.6061 27.3951 36.8507 26.4001 36.8182 24.5716C36.7971 23.4461 36.8182 22.3186 36.8182 21.1931V20.3537C36.21 20.3537 35.6707 20.3403 35.1256 20.3537C34.6666 20.3672 34.4409 20.1616 34.4371 19.7064C34.4237 17.901 34.3262 17.9778 36.0149 18.0008H36.8182C36.8182 17.4419 36.8182 16.9252 36.8182 16.4086C36.8354 15.356 37.1376 15.0506 38.1684 15.0295C38.3979 15.0295 38.6274 15.0295 38.8569 15.0295C39.6831 15.0641 40.0044 15.3791 40.0389 16.2203C40.0656 16.7697 40.0695 17.3209 40.0867 17.8721C40.0867 17.8875 40.1135 17.9048 40.1938 17.997C41.2438 17.997 42.3626 17.997 43.4814 17.997C44.277 17.997 44.3975 18.1238 44.4109 18.917C44.4109 19.1091 44.3975 19.2858 44.4109 19.4683C44.4606 20.1155 44.1891 20.3768 43.5235 20.3537C42.4028 20.3153 41.2801 20.3537 40.0618 20.3537Z" fill="white"/>
<path d="M3.24939 16.4818V19.8065H5.44497C6.08758 19.8065 6.7321 19.7777 7.37089 19.8238C8.18945 19.8834 8.6542 20.4192 8.62168 21.1683C8.58917 21.9174 8.11486 22.3918 7.26379 22.3995C5.95753 22.413 4.65127 22.3995 3.26469 22.3995C3.24365 22.678 3.20922 22.9181 3.20731 23.1678C3.20731 24.3855 3.20731 25.6052 3.20731 26.8172C3.19584 27.5586 2.97972 27.7583 2.25105 27.7775C1.90871 27.7775 1.56254 27.7775 1.21828 27.7775C0.200816 27.7775 0.00191253 27.5855 0 26.5809C0 24.3964 0 22.2119 0 20.0274C0 18.464 0 16.9005 0 15.337C0 14.2653 0.33278 13.9291 1.39423 13.9253C3.71222 13.9253 6.03084 13.9253 8.3501 13.9253C9.1438 13.9253 9.30637 14.0982 9.32167 14.9029C9.32167 15.1104 9.32167 15.3178 9.32167 15.5253C9.29681 16.2667 9.10938 16.4606 8.3654 16.4626C6.69194 16.4875 5.01848 16.4818 3.24939 16.4818Z" fill="white"/>
<path d="M87.9346 25.3651C88.625 23.4443 89.7744 21.683 89.6176 19.5299C89.5943 19.162 89.5988 18.7928 89.631 18.4255C89.6865 17.7167 90.2047 17.6399 90.7364 17.7244C91.3848 17.8301 92.4577 17.2615 92.5572 18.3467C92.6643 19.6029 92.6643 20.9973 92.2225 22.144C91.0424 25.2037 89.6138 28.1693 88.2559 31.158C87.8944 31.9531 87.0472 32.2009 86.2726 31.834C85.5305 31.4845 85.2685 30.7296 85.651 29.9133C85.9685 29.2315 86.3357 28.5688 86.7067 27.8562C85.8863 27.7237 85.5477 27.1705 85.2704 26.5348C84.8573 25.5879 84.4576 24.6313 83.9795 23.7171C83.1929 22.1738 82.8461 20.4423 82.9773 18.7136C83.0213 17.9261 83.1934 17.7283 83.9584 17.7129C84.3256 17.7129 84.6928 17.7129 85.062 17.7129C85.9035 17.7129 86.1884 17.9338 86.0966 18.7808C85.8404 21.1548 86.8769 23.1678 87.772 25.2287C87.7873 25.2633 87.8351 25.2844 87.9346 25.3651Z" fill="#2DD4BF"/>
<path d="M72.4198 25.4263C72.4198 24.0818 72.4198 22.8084 72.4102 21.5253C72.3786 21.371 72.3005 21.2302 72.1865 21.122C72.0067 20.9145 71.804 20.7378 71.6127 20.5342C70.4652 19.3818 70.4882 18.8978 71.7179 17.8721C72.2171 17.4572 72.7315 17.4227 73.202 17.8721C73.548 18.2374 73.8731 18.6222 74.1755 19.0245C75.6634 17.2959 77.4172 17.2075 79.2437 17.7492C80.8674 18.2332 81.7931 20.2154 81.2691 21.8365C81.2527 21.9047 81.2249 21.9697 81.1868 22.0286C80.5729 22.7815 79.739 22.4127 79.0046 22.3993C78.3964 22.3993 78.4003 21.823 78.385 21.3544C78.3467 20.0829 77.4 19.4337 76.3194 19.9753C76.0383 20.1194 75.7055 20.4997 75.694 20.7839C75.6328 22.3205 75.6654 23.8571 75.6654 25.4782C76.2391 25.4782 76.7593 25.4916 77.2776 25.4782C77.7959 25.4647 78.0713 25.6702 78.0943 26.2465C78.1593 27.783 78.1344 27.8234 76.5853 27.8234C74.9125 27.8234 73.2377 27.8234 71.5611 27.8234C70.7387 27.8234 70.6756 27.7485 70.666 26.9053V26.8361C70.666 25.5223 70.666 25.5223 71.9684 25.4916C72.0736 25.457 72.1865 25.4436 72.4198 25.4263Z" fill="#2DD4BF"/>
<path d="M62.2945 16.4819C61.3382 16.4819 60.4412 16.4627 59.5538 16.4819C58.9055 16.5031 58.6473 16.2149 58.6243 15.585C58.5689 14.0119 58.6243 13.9312 60.1639 13.9312C62.8262 13.9312 65.4884 13.9312 68.1507 13.9312C69.0706 13.9312 69.1796 14.0484 69.1892 14.9626C69.1892 15.1701 69.1892 15.3775 69.1892 15.583C69.2179 16.2265 68.9214 16.4992 68.275 16.48C67.3876 16.4531 66.5001 16.48 65.5248 16.48V17.377C65.5248 20.4348 65.5248 23.4919 65.5248 26.5484C65.5248 27.6221 65.3507 27.7892 64.2893 27.7931C62.2945 27.7931 62.2945 27.7931 62.2945 25.784V16.4819Z" fill="#2DD4BF"/>
<path d="M14.5717 25.4612V20.0582C13.8947 20.0582 13.2329 20.039 12.5846 20.0582C12.0261 20.0774 11.8196 19.8469 11.8024 19.2899C11.7756 17.7092 11.7584 17.7092 13.363 17.7092C14.4187 17.7092 15.4668 17.7092 16.5282 17.7092C17.5897 17.7092 17.779 17.8859 17.779 18.9365C17.779 20.8214 17.779 22.7062 17.779 24.5911V25.4574C18.5306 25.4574 19.2325 25.4766 19.9306 25.4574C20.5178 25.4362 20.7912 25.684 20.753 26.2717C20.7501 26.3178 20.7501 26.364 20.753 26.41C20.7683 27.7949 20.7683 27.7949 19.4142 27.7968H12.5961C11.7431 27.7968 11.6876 27.7353 11.678 26.9056C11.6647 25.465 11.6647 25.465 13.0857 25.465L14.5717 25.4612Z" fill="white"/>
<path d="M15.8777 16.7044H15.8088C14.0302 16.7947 14.0053 16.3203 14.2004 14.4975C14.2233 14.2747 14.6537 13.9616 14.9252 13.9213C15.5853 13.8598 16.2494 13.854 16.9104 13.904C17.3905 13.9232 17.6525 14.2363 17.708 14.6992C17.7367 14.9729 17.7444 15.2483 17.7309 15.5232C17.708 16.3837 17.4211 16.6756 16.5643 16.6987C16.3367 16.7044 16.1072 16.7044 15.8777 16.7044Z" fill="white"/>
<path d="M8.93254 6.96043L6.8715 9.02287L4.46627 6.61601L2.06104 9.02287L0 6.96043L2.40523 4.55358L0 2.14673L2.06104 0.0842896L4.46627 2.49114L6.8715 0.0842896L8.93254 2.14673L6.52731 4.55358L8.93254 6.96043Z" fill="#CCFBF1" fill-opacity="0.4"/>
<path d="M6.8715 0.0842896L4.46627 2.49114L2.06104 0.0842896L0 2.14673L2.40523 4.55358L0 6.96043L2.06104 9.02287L4.46627 6.61601L6.8715 9.02287L8.93254 6.96043L6.52731 4.55358L8.93254 2.14673L6.8715 0.0842896Z" fill="white"/>
<path d="M52.8818 6.87614L50.8207 8.93858L48.4155 6.53173L46.0103 8.93858L43.9492 6.87614L46.3544 4.46929L43.9492 2.06244L46.0103 0L48.4155 2.40685L50.8207 0L52.8818 2.06244L50.4765 4.46929L52.8818 6.87614Z" fill="#CCFBF1" fill-opacity="0.4"/>
<path d="M50.8207 0L48.4155 2.40685L46.0103 0L43.9492 2.06244L46.3544 4.46929L43.9492 6.87614L46.0103 8.93858L48.4155 6.53172L50.8207 8.93858L52.8818 6.87614L50.4765 4.46929L52.8818 2.06244L50.8207 0Z" fill="white"/>
<path d="M24.0341 6.87614L21.9731 8.93858L19.5678 6.53173L17.1626 8.93858L15.1016 6.87614L17.5068 4.46929L15.1016 2.06244L17.1626 0L19.5678 2.40685L21.9731 0L24.0341 2.06244L21.6289 4.46929L24.0341 6.87614Z" fill="#CCFBF1" fill-opacity="0.4"/>
<path d="M21.9731 0L19.5678 2.40685L17.1626 0L15.1016 2.06244L17.5068 4.46929L15.1016 6.87614L17.1626 8.93858L19.5678 6.53173L21.9731 8.93858L24.0341 6.87614L21.6289 4.46929L24.0341 2.06244L21.9731 0Z" fill="white"/>
<path d="M39.2167 6.87614L37.1557 8.93858L34.7505 6.53173L32.3452 8.93858L30.2842 6.87614L32.6894 4.46929L30.2842 2.06244L32.3452 0L34.7505 2.40685L37.1557 0L39.2167 2.06244L36.8115 4.46929L39.2167 6.87614Z" fill="#CCFBF1" fill-opacity="0.4"/>
<path d="M37.1557 0L34.7505 2.40685L32.3452 0L30.2842 2.06244L32.6894 4.46929L30.2842 6.87614L32.3452 8.93858L34.7505 6.53173L37.1557 8.93858L39.2167 6.87614L36.8115 4.46929L39.2167 2.06244L37.1557 0Z" fill="white"/>
</svg>
