<svg xmlns="http://www.w3.org/2000/svg" width="24" height="24" fill="none"><path fill="#EF8435" d="M3.75 4.5v15c0 .414.336.75.75.75h15a.75.75 0 0 0 .75-.75v-15a.75.75 0 0 0-.75-.75h-15a.75.75 0 0 0-.75.75" opacity=".2"/><path stroke="#EF8435" stroke-linecap="round" stroke-linejoin="round" stroke-width="1.5" d="M3.75 4.5v15c0 .414.336.75.75.75h15a.75.75 0 0 0 .75-.75v-15a.75.75 0 0 0-.75-.75h-15a.75.75 0 0 0-.75.75"/><path stroke="#EF8435" stroke-linecap="round" stroke-linejoin="round" stroke-width="1.5" d="M10.125 9.375h4.5v4.5M9.375 14.625l5.25-5.25"/></svg>