<svg xmlns="http://www.w3.org/2000/svg" width="226" height="37" fill="none"><clipPath id="a"><path d="M.5 0h225v36.397H.5z"/></clipPath><g fill="#ef8435" clip-path="url(#a)"><path d="M2.075 6.482a662 662 0 0 1 82.74-4.346c7.752.077 15.494.319 23.246.666l.49-2.008c-23.58 6.634-47.15 13.269-70.73 19.903-6.656 1.873-13.321 3.737-19.977 5.61-.548.155-1.674.58-1.635 1.304.04.725 1.126.696 1.635.667a1725 1725 0 0 1 68.135-2.801 1739 1739 0 0 1 67.705-.135c12.832.222 25.654.628 38.487 1.072.792.029 2.055-.28 2.486-1.014.43-.734-.382-1.062-1.018-1.091-22.787-1.005-45.603-1.381-68.409-1.391-22.817 0-45.633.444-68.43 1.352a1823 1823 0 0 0-38.428 1.941v1.97c23.57-6.634 47.15-13.259 70.73-19.884l19.977-5.61c.529-.145 1.537-.522 1.654-1.179.118-.656-.685-.81-1.165-.83C81.78-.587 53.913-.046 26.213 2.175c-7.89.627-15.779 1.41-23.639 2.317C1.948 4.56.607 4.937.5 5.71c-.107.773 1.048.83 1.576.773"/><path d="M172.692 17.924a366.5 366.5 0 0 1 49.734 7.919l-.735-.783c-.46 1.217-1.575 1.661-2.77 1.96-1.771.445-3.631.657-5.432.957l-12.529 2.115c-8.359 1.41-16.718 2.81-25.067 4.258-.636.106-1.997.435-2.095 1.236-.098.802 1.057.87 1.596.783 9.318-1.526 18.626-3.11 27.945-4.684 4.659-.782 9.328-1.545 13.977-2.356 3.113-.55 6.93-1.478 8.163-4.732.167-.454-.401-.705-.734-.782a374.5 374.5 0 0 0-50.595-7.987c-.773-.067-2.055.3-2.476 1.005-.45.772.392 1.033 1.018 1.081z"/></g></svg>