<svg width="24" height="24" viewBox="0 0 24 24" fill="none" xmlns="http://www.w3.org/2000/svg">
<path opacity="0.2" d="M3.75 4.5L3.75 19.5C3.75 19.9142 4.08579 20.25 4.5 20.25H19.5C19.9142 20.25 20.25 19.9142 20.25 19.5V4.5C20.25 4.08579 19.9142 3.75 19.5 3.75H4.5C4.08579 3.75 3.75 4.08579 3.75 4.5Z" fill="#EF8435"/>
<path d="M3.75 4.5L3.75 19.5C3.75 19.9142 4.08579 20.25 4.5 20.25H19.5C19.9142 20.25 20.25 19.9142 20.25 19.5V4.5C20.25 4.08579 19.9142 3.75 19.5 3.75H4.5C4.08579 3.75 3.75 4.08579 3.75 4.5Z" stroke="#EF8435" stroke-width="1.5" stroke-linecap="round" stroke-linejoin="round"/>
<path d="M10.125 9.375H14.625V13.875" stroke="#EF8435" stroke-width="1.5" stroke-linecap="round" stroke-linejoin="round"/>
<path d="M9.375 14.625L14.625 9.375" stroke="#EF8435" stroke-width="1.5" stroke-linecap="round" stroke-linejoin="round"/>
</svg>
