<svg width="24" height="24" viewBox="0 0 24 24" fill="none" xmlns="http://www.w3.org/2000/svg">
<path d="M4 11.25C3.58579 11.25 3.25 11.5858 3.25 12C3.25 12.4142 3.58579 12.75 4 12.75L4 11.25ZM19.5303 12.5303C19.8232 12.2374 19.8232 11.7626 19.5303 11.4697L14.7574 6.6967C14.4645 6.4038 13.9896 6.4038 13.6967 6.6967C13.4038 6.98959 13.4038 7.46447 13.6967 7.75736L17.9393 12L13.6967 16.2426C13.4038 16.5355 13.4038 17.0104 13.6967 17.3033C13.9896 17.5962 14.4645 17.5962 14.7574 17.3033L19.5303 12.5303ZM4 12.75L19 12.75L19 11.25L4 11.25L4 12.75Z" fill="white"/>
</svg>
