<svg width="1512" height="826" viewBox="0 0 1512 826" fill="none" xmlns="http://www.w3.org/2000/svg">
<path d="M259.929 125.608C259.929 132.641 258.584 139.606 255.971 146.104C253.357 152.602 249.527 158.506 244.698 163.479C239.869 168.453 234.136 172.398 227.826 175.089C221.517 177.781 214.755 179.166 207.925 179.166C201.096 179.166 194.334 177.781 188.025 175.089C181.715 172.398 175.982 168.453 171.153 163.479C166.324 158.506 162.494 152.602 159.88 146.104C157.267 139.606 155.922 132.641 155.922 125.608H207.925H259.929Z" fill="#EF8435"/>
<mask id="mask0_2245_25559" style="mask-type:luminance" maskUnits="userSpaceOnUse" x="157" y="121" width="100" height="53">
<path d="M255.893 122.489C255.893 129.112 254.627 135.671 252.165 141.791C249.705 147.91 246.097 153.47 241.55 158.154C237.002 162.838 231.603 166.553 225.661 169.088C219.719 171.623 213.351 172.927 206.92 172.927C200.488 172.927 194.12 171.623 188.178 169.088C182.236 166.553 176.837 162.838 172.29 158.154C167.742 153.47 164.134 147.91 161.673 141.791C159.212 135.671 157.945 129.112 157.945 122.489H206.92H255.893Z" stroke="white" stroke-width="1.66606"/>
</mask>
<g mask="url(#mask0_2245_25559)">
<path d="M255.893 122.489C255.893 129.112 254.627 135.671 252.165 141.791C249.705 147.91 246.097 153.47 241.55 158.154C237.002 162.838 231.603 166.553 225.661 169.088C219.719 171.623 213.351 172.927 206.92 172.927C200.488 172.927 194.12 171.623 188.178 169.088C182.236 166.553 176.837 162.838 172.29 158.154C167.742 153.47 164.134 147.91 161.673 141.791C159.212 135.671 157.945 129.112 157.945 122.489H206.92H255.893Z" stroke="white" stroke-width="1.66606"/>
</g>
<path d="M207.924 160.447C192.03 160.447 179.146 147.177 179.146 130.808C179.146 114.439 192.03 101.169 207.924 101.169C223.818 101.169 236.703 114.439 236.703 130.808C236.703 147.177 223.818 160.447 207.924 160.447Z" fill="#5C2860"/>
<path d="M1325.44 83.4971H1297.09V182.262H1325.44V83.4971Z" fill="#EBBE52"/>
<path d="M1319.92 82.0669H1292.28V180.102H1319.92V82.0669Z" stroke="white" stroke-width="0.708575"/>
<path d="M1369.24 83.4976C1363.49 83.4976 1357.79 84.682 1352.47 86.9832C1347.16 89.2844 1342.33 92.6573 1338.26 96.9093C1334.2 101.161 1330.97 106.21 1328.77 111.765C1326.56 117.32 1325.43 123.275 1325.43 129.288C1325.43 135.301 1326.56 141.256 1328.77 146.812C1330.97 152.367 1334.2 157.415 1338.26 161.668C1342.33 165.919 1347.16 169.293 1352.47 171.594C1357.79 173.895 1363.49 175.079 1369.24 175.079V129.288V83.4976Z" fill="#EF8435"/>
<mask id="mask1_2245_25559" style="mask-type:luminance" maskUnits="userSpaceOnUse" x="1330" y="79" width="46" height="94">
<path d="M1375.25 79.9062C1369.49 79.9062 1363.8 81.0907 1358.48 83.3919C1353.17 85.6931 1348.34 89.066 1344.27 93.318C1340.21 97.5701 1336.98 102.618 1334.77 108.174C1332.57 113.729 1331.44 119.683 1331.44 125.697C1331.44 131.71 1332.57 137.665 1334.77 143.221C1336.98 148.776 1340.21 153.824 1344.27 158.076C1348.34 162.328 1353.17 165.7 1358.48 168.003C1363.8 170.304 1369.49 171.488 1375.25 171.488V125.697V79.9062Z" stroke="white" stroke-width="1.41715"/>
</mask>
<g mask="url(#mask1_2245_25559)">
<path d="M1375.25 79.9062C1369.49 79.9062 1363.8 81.0907 1358.48 83.3919C1353.17 85.6931 1348.34 89.066 1344.27 93.318C1340.21 97.5701 1336.98 102.618 1334.77 108.174C1332.57 113.729 1331.44 119.683 1331.44 125.697C1331.44 131.71 1332.57 137.665 1334.77 143.221C1336.98 148.776 1340.21 153.824 1344.27 158.076C1348.34 162.328 1353.17 165.7 1358.48 168.003C1363.8 170.304 1369.49 171.488 1375.25 171.488V125.697V79.9062Z" stroke="white" stroke-width="1.41715"/>
</g>
<path d="M205.747 564.848L253.213 642.156H158.281L205.747 564.848Z" fill="#5C2860"/>
<path d="M173.75 646.34L226.316 560.675L278.883 646.34H173.75Z" stroke="white" stroke-width="0.877532"/>
<path d="M1355.61 701.209C1381.5 701.209 1402.49 679.76 1402.49 653.302C1402.49 626.844 1381.5 605.396 1355.61 605.396C1329.72 605.396 1308.73 626.844 1308.73 653.302C1308.73 679.76 1329.72 701.209 1355.61 701.209Z" fill="#EF8435"/>
<path d="M1409.63 650.758C1409.63 677.021 1388.79 698.315 1363.08 698.315C1337.38 698.315 1316.55 677.021 1316.55 650.758C1316.55 624.495 1337.38 603.2 1363.08 603.2C1388.79 603.2 1409.63 624.495 1409.63 650.758Z" stroke="white" stroke-width="0.678349"/>
<path d="M1331.14 662.205L1364.91 716.785H1297.37L1331.14 662.205Z" fill="#5C2860"/>
<path d="M1286.38 722.37L1319.53 668.79L1352.68 722.37H1286.38Z" stroke="white" stroke-width="0.678349"/>
<path d="M1381.65 390.772C1388.6 390.772 1394.23 384.91 1394.23 377.68C1394.23 370.449 1388.6 364.588 1381.65 364.588C1374.7 364.588 1369.06 370.449 1369.06 377.68C1369.06 384.91 1374.7 390.772 1381.65 390.772Z" fill="#EBBE52"/>
<path d="M1400.95 377.68C1400.95 384.644 1395.53 390.281 1388.85 390.281C1382.17 390.281 1376.74 384.644 1376.74 377.68C1376.74 370.716 1382.17 365.079 1388.85 365.079C1395.53 365.079 1400.95 370.716 1400.95 377.68Z" stroke="white" stroke-width="0.953356"/>
<path d="M113.728 389.108C120.429 389.108 125.862 383.513 125.862 376.611C125.862 369.709 120.429 364.114 113.728 364.114C107.026 364.114 101.594 369.709 101.594 376.611C101.594 383.513 107.026 389.108 113.728 389.108Z" fill="#4AA35C"/>
<path d="M119.509 386.237C125.947 386.237 131.167 380.862 131.167 374.231C131.167 367.6 125.947 362.225 119.509 362.225C113.071 362.225 107.852 367.6 107.852 374.231C107.852 380.862 113.071 386.237 119.509 386.237Z" stroke="white" stroke-width="0.953356"/>
<path d="M610.877 702.697L637.034 745.828H584.719L610.877 702.697Z" fill="#4AA35C"/>
<path d="M594.172 741.147L619.804 698.881L645.438 741.147H594.172Z" stroke="white" stroke-width="0.582137"/>
</svg>
