<svg xmlns="http://www.w3.org/2000/svg" width="1512" height="826" fill="none"><path fill="#EF8435" d="M259.929 125.608a55 55 0 0 1-3.958 20.496 53.7 53.7 0 0 1-11.273 17.375 51.9 51.9 0 0 1-16.872 11.61 50.7 50.7 0 0 1-19.901 4.077 50.7 50.7 0 0 1-19.9-4.077 51.9 51.9 0 0 1-16.872-11.61 53.7 53.7 0 0 1-11.273-17.375 55 55 0 0 1-3.958-20.496h104.007"/><mask id="a" width="100" height="53" x="157" y="121" maskUnits="userSpaceOnUse" style="mask-type:luminance"><path stroke="#fff" stroke-width="1.666" d="M255.893 122.489a51.7 51.7 0 0 1-3.728 19.302 50.6 50.6 0 0 1-10.615 16.363 48.9 48.9 0 0 1-15.889 10.934 47.7 47.7 0 0 1-18.741 3.839c-6.432 0-12.8-1.304-18.742-3.839a48.9 48.9 0 0 1-15.888-10.934 50.6 50.6 0 0 1-10.617-16.363 51.8 51.8 0 0 1-3.728-19.302h97.948Z"/></mask><g mask="url(#a)"><path stroke="#fff" stroke-width="1.666" d="M255.893 122.489a51.7 51.7 0 0 1-3.728 19.302 50.6 50.6 0 0 1-10.615 16.363 48.9 48.9 0 0 1-15.889 10.934 47.7 47.7 0 0 1-18.741 3.839c-6.432 0-12.8-1.304-18.742-3.839a48.9 48.9 0 0 1-15.888-10.934 50.6 50.6 0 0 1-10.617-16.363 51.8 51.8 0 0 1-3.728-19.302h97.948Z"/></g><path fill="#5C2860" d="M207.924 160.447c-15.894 0-28.778-13.27-28.778-29.639s12.884-29.639 28.778-29.639 28.779 13.27 28.779 29.639-12.885 29.639-28.779 29.639"/><path fill="#EBBE52" d="M1325.44 83.497h-28.35v98.765h28.35z"/><path stroke="#fff" stroke-width=".709" d="M1319.92 82.067h-27.64v98.035h27.64z"/><path fill="#EF8435" d="M1369.24 83.498c-5.75 0-11.45 1.184-16.77 3.485-5.31 2.301-10.14 5.674-14.21 9.926a46.1 46.1 0 0 0-9.49 14.856 47.4 47.4 0 0 0-3.34 17.523c0 6.013 1.13 11.968 3.34 17.524a46.1 46.1 0 0 0 9.49 14.856c4.07 4.251 8.9 7.625 14.21 9.926a42.2 42.2 0 0 0 16.77 3.485V83.498"/><mask id="b" width="46" height="94" x="1330" y="79" maskUnits="userSpaceOnUse" style="mask-type:luminance"><path stroke="#fff" stroke-width="1.417" d="M1375.25 79.906c-5.76 0-11.45 1.185-16.77 3.486-5.31 2.301-10.14 5.674-14.21 9.926-4.06 4.252-7.29 9.3-9.5 14.856a47.6 47.6 0 0 0-3.33 17.523 47.6 47.6 0 0 0 3.33 17.524c2.21 5.555 5.44 10.603 9.5 14.855 4.07 4.252 8.9 7.624 14.21 9.927a42.2 42.2 0 0 0 16.77 3.485V79.907Z"/></mask><g mask="url(#b)"><path stroke="#fff" stroke-width="1.417" d="M1375.25 79.906c-5.76 0-11.45 1.185-16.77 3.486-5.31 2.301-10.14 5.674-14.21 9.926-4.06 4.252-7.29 9.3-9.5 14.856a47.6 47.6 0 0 0-3.33 17.523 47.6 47.6 0 0 0 3.33 17.524c2.21 5.555 5.44 10.603 9.5 14.855 4.07 4.252 8.9 7.624 14.21 9.927a42.2 42.2 0 0 0 16.77 3.485V79.907Z"/></g><path fill="#5C2860" d="m205.747 564.848 47.466 77.308h-94.932z"/><path stroke="#fff" stroke-width=".878" d="m173.75 646.34 52.566-85.665 52.567 85.665z"/><path fill="#EF8435" d="M1355.61 701.209c25.89 0 46.88-21.449 46.88-47.907s-20.99-47.906-46.88-47.906-46.88 21.448-46.88 47.906 20.99 47.907 46.88 47.907"/><path stroke="#fff" stroke-width=".678" d="M1409.63 650.758c0 26.263-20.84 47.557-46.55 47.557-25.7 0-46.53-21.294-46.53-47.557s20.83-47.558 46.53-47.558c25.71 0 46.55 21.295 46.55 47.558Z"/><path fill="#5C2860" d="m1331.14 662.205 33.77 54.58h-67.54z"/><path stroke="#fff" stroke-width=".678" d="m1286.38 722.37 33.15-53.58 33.15 53.58z"/><path fill="#EBBE52" d="M1381.65 390.772c6.95 0 12.58-5.862 12.58-13.092s-5.63-13.092-12.58-13.092-12.59 5.861-12.59 13.092c0 7.23 5.64 13.092 12.59 13.092"/><path stroke="#fff" stroke-width=".953" d="M1400.95 377.68c0 6.964-5.42 12.601-12.1 12.601s-12.11-5.637-12.11-12.601 5.43-12.601 12.11-12.601 12.1 5.637 12.1 12.601Z"/><path fill="#4AA35C" d="M113.728 389.108c6.701 0 12.134-5.595 12.134-12.497s-5.433-12.497-12.134-12.497-12.134 5.595-12.134 12.497 5.432 12.497 12.134 12.497"/><path stroke="#fff" stroke-width=".953" d="M119.509 386.237c6.438 0 11.658-5.375 11.658-12.006s-5.22-12.006-11.658-12.006-11.657 5.375-11.657 12.006 5.219 12.006 11.657 12.006Z"/><path fill="#4AA35C" d="m610.877 702.697 26.157 43.131h-52.315z"/><path stroke="#fff" stroke-width=".582" d="m594.172 741.147 25.632-42.266 25.634 42.266z"/></svg>