<svg width="24" height="24" viewBox="0 0 24 24" fill="none" xmlns="http://www.w3.org/2000/svg">
<path opacity="0.2" d="M3.10386 6.99536C3.03584 7.11073 2.99998 7.24222 3 7.37615V16.6239C3 16.757 3.03541 16.8876 3.10259 17.0025C3.16978 17.1174 3.26632 17.2123 3.3823 17.2776L11.6323 21.9182C11.7446 21.9813 11.8712 22.0145 12 22.0145L12.001 22.0145L12.089 12L3.10388 6.99537L3.10386 6.99536Z" fill="#EF8435"/>
<path d="M21 16.6238V7.3761C21 7.24302 20.9646 7.11234 20.8974 6.99746C20.8302 6.88259 20.7337 6.78766 20.6177 6.72242L12.3677 2.08179C12.2554 2.01864 12.1288 1.98547 12 1.98547C11.8712 1.98547 11.7446 2.01864 11.6323 2.08179L3.3823 6.72242C3.26632 6.78766 3.16978 6.88259 3.10259 6.99746C3.03541 7.11234 3 7.24302 3 7.3761V16.6238C3 16.7569 3.03541 16.8876 3.10259 17.0025C3.16978 17.1173 3.26632 17.2123 3.3823 17.2775L11.6323 21.9181C11.7446 21.9813 11.8712 22.0145 12 22.0145C12.1288 22.0145 12.2554 21.9813 12.3677 21.9181L20.6177 17.2775C20.7337 17.2123 20.8302 17.1173 20.8974 17.0025C20.9646 16.8876 21 16.7569 21 16.6238Z" stroke="#EF8435" stroke-width="1.5" stroke-linecap="round" stroke-linejoin="round"/>
<path d="M20.8943 6.99621L12.0867 12L3.10156 6.99536" stroke="#EF8435" stroke-width="1.5" stroke-linecap="round" stroke-linejoin="round"/>
<path d="M12.088 12L12 22.0145" stroke="#EF8435" stroke-width="1.5" stroke-linecap="round" stroke-linejoin="round"/>
</svg>
