<svg xmlns="http://www.w3.org/2000/svg" width="24" height="24" fill="none"><path fill="#EF8435" d="M3.104 6.995A.75.75 0 0 0 3 7.376v9.248a.75.75 0 0 0 .382.654l8.25 4.64a.75.75 0 0 0 .368.097h.001L12.089 12z" opacity=".2"/><path stroke="#EF8435" stroke-linecap="round" stroke-linejoin="round" stroke-width="1.5" d="M21 16.624V7.376a.75.75 0 0 0-.382-.654l-8.25-4.64a.75.75 0 0 0-.736 0l-8.25 4.64A.75.75 0 0 0 3 7.376v9.248a.75.75 0 0 0 .382.654l8.25 4.64a.75.75 0 0 0 .736 0l8.25-4.64a.75.75 0 0 0 .382-.654"/><path stroke="#EF8435" stroke-linecap="round" stroke-linejoin="round" stroke-width="1.5" d="M20.894 6.996 12.087 12 3.102 6.995M12.088 12 12 22.015"/></svg>