<svg width="48" height="38" viewBox="0 0 48 38" fill="none" xmlns="http://www.w3.org/2000/svg">
<path d="M40.6606 3.18244C37.5069 1.6743 34.1777 0.604379 30.7578 0C30.2898 0.873843 29.8664 1.77291 29.4893 2.69344C25.8465 2.12006 22.142 2.12006 18.4992 2.69344C18.1219 1.77301 17.6985 0.873949 17.2307 0C13.8087 0.609483 10.4772 1.68195 7.32038 3.19033C1.05329 12.8757 -0.645622 22.3205 0.203833 31.6312C3.874 34.4637 7.98197 36.6178 12.3492 38C13.3325 36.6185 14.2027 35.1529 14.9504 33.6187C13.5302 33.0647 12.1595 32.3811 10.8541 31.576C11.1977 31.3157 11.5337 31.0475 11.8584 30.7873C15.6567 32.6531 19.8025 33.6205 23.9999 33.6205C28.1974 33.6205 32.3431 32.6531 36.1415 30.7873C36.4699 31.0672 36.8059 31.3354 37.1457 31.576C35.8378 32.3824 34.4646 33.0673 33.0419 33.6227C33.7887 35.1561 34.6589 36.6205 35.6431 38C40.014 36.6234 44.1252 34.4702 47.796 31.6351C48.7927 20.8377 46.0933 11.4797 40.6606 3.18244ZM16.0264 25.9051C13.6592 25.9051 11.7036 23.6613 11.7036 20.9008C11.7036 18.1403 13.5913 15.8767 16.0188 15.8767C18.4464 15.8767 20.3869 18.1403 20.3454 20.9008C20.3038 23.6613 18.4388 25.9051 16.0264 25.9051ZM31.9735 25.9051C29.6025 25.9051 27.6545 23.6613 27.6545 20.9008C27.6545 18.1403 29.5421 15.8767 31.9735 15.8767C34.4048 15.8767 36.3302 18.1403 36.2887 20.9008C36.2472 23.6613 34.3859 25.9051 31.9735 25.9051Z" fill="#5865F2"/>
</svg>
