<svg xmlns="http://www.w3.org/2000/svg" width="48" height="38" fill="none"><path fill="#5865F2" d="M40.66 3.182A38.5 38.5 0 0 0 30.759 0a29 29 0 0 0-1.269 2.693 35.3 35.3 0 0 0-10.99 0Q17.933 1.311 17.231 0a38.7 38.7 0 0 0-9.91 3.19C1.052 12.876-.647 22.32.203 31.631A39.3 39.3 0 0 0 12.349 38a31 31 0 0 0 2.601-4.381 25.4 25.4 0 0 1-4.096-2.043c.344-.26.68-.529 1.004-.789A27.5 27.5 0 0 0 24 33.621c4.197 0 8.343-.968 12.142-2.834.328.28.664.548 1.004.789a25.5 25.5 0 0 1-4.104 2.047A30.6 30.6 0 0 0 35.643 38a39.1 39.1 0 0 0 12.153-6.365c.997-10.797-1.703-20.155-7.135-28.453M16.027 25.905c-2.367 0-4.322-2.244-4.322-5.004s1.887-5.024 4.315-5.024c2.427 0 4.368 2.263 4.326 5.024-.041 2.76-1.906 5.004-4.319 5.004m15.948 0c-2.372 0-4.32-2.244-4.32-5.004s1.888-5.024 4.32-5.024c2.43 0 4.356 2.263 4.315 5.024-.042 2.76-1.903 5.004-4.315 5.004"/></svg>