<svg width="51" height="51" viewBox="0 0 51 51" fill="none" xmlns="http://www.w3.org/2000/svg">
<rect x="0.875" y="0.40625" width="49.6125" height="49.6125" rx="11.8125" fill="#EF8435"/>
<g clip-path="url(#clip0_2245_25624)">
<path d="M28.0135 28.3499C27.8185 28.3975 27.6223 28.4396 27.425 28.4764C26.3542 28.6779 25.2548 28.6738 24.1856 28.4642C23.9983 28.4277 23.7332 28.3633 23.3915 28.2721L22.2716 29.7276C19.5077 29.6389 18.457 27.7869 18.457 27.7869C18.457 23.6756 20.2579 20.3426 20.2579 20.3426C22.0588 18.9649 23.7721 19.0026 23.7721 19.0026L24.2622 19.641C24.3074 19.6347 24.3528 19.6306 24.3984 19.6288C25.3325 19.505 26.2792 19.5091 27.2122 19.641L27.7497 19.0026C27.7497 19.0026 29.4642 18.9649 31.2639 20.3438C31.2639 20.3438 33.066 23.6756 33.066 27.7869C33.066 27.7869 32.002 29.6377 29.238 29.7276L28.0135 28.3487V28.3499ZM23.3465 23.9967C22.6157 23.9967 22.0381 24.5439 22.0381 25.2127C22.0381 25.8815 22.6279 26.4287 23.3465 26.4287C24.0761 26.4287 24.6537 25.8815 24.6537 25.2127C24.6659 24.5439 24.0774 23.9967 23.3465 23.9967ZM28.0257 23.9967C27.2961 23.9967 26.7185 24.5439 26.7185 25.2127C26.7185 25.8815 27.3083 26.4287 28.0257 26.4287C28.7565 26.4287 29.3341 25.8815 29.3341 25.2127C29.3341 24.5439 28.7565 23.9967 28.0257 23.9967ZM36.6301 38.5886L30.5622 32.5086H34.1981V15.4847H17.1742V32.5086H30.5537L31.2469 34.9406H17.1742C16.5292 34.9406 15.9106 34.6844 15.4545 34.2283C14.9984 33.7722 14.7422 33.1536 14.7422 32.5086V15.4847C14.7422 14.8397 14.9984 14.2211 15.4545 13.765C15.9106 13.309 16.5292 13.0527 17.1742 13.0527H34.1981C34.8431 13.0527 35.4617 13.309 35.9177 13.765C36.3738 14.2211 36.6301 14.8397 36.6301 15.4847V38.5886Z" fill="white"/>
</g>
<defs>
<clipPath id="clip0_2245_25624">
<rect width="29.1838" height="29.1838" fill="white" transform="translate(11.0938 10.6206)"/>
</clipPath>
</defs>
</svg>
