<svg xmlns="http://www.w3.org/2000/svg" width="51" height="51" fill="none"><rect width="49.612" height="49.612" x=".875" y=".406" fill="#EF8435" rx="11.813"/><g clip-path="url(#a)"><path fill="#fff" d="M28.014 28.35q-.293.071-.589.126a8.6 8.6 0 0 1-3.24-.012q-.281-.054-.793-.192l-1.12 1.456c-2.764-.09-3.815-1.941-3.815-1.941 0-4.111 1.8-7.444 1.8-7.444 1.802-1.378 3.515-1.34 3.515-1.34l.49.638q.067-.009.136-.012a10.4 10.4 0 0 1 2.814.012l.538-.638s1.714-.038 3.514 1.34c0 0 1.802 3.333 1.802 7.444 0 0-1.064 1.85-3.828 1.94l-1.224-1.378m-4.667-4.353c-.731 0-1.309.547-1.309 1.216s.59 1.216 1.308 1.216c.73 0 1.308-.547 1.308-1.216.012-.67-.577-1.216-1.308-1.216m4.679 0c-.73 0-1.308.547-1.308 1.216s.59 1.216 1.308 1.216c.73 0 1.308-.547 1.308-1.216 0-.67-.578-1.216-1.308-1.216m8.604 14.592-6.068-6.08h3.636V15.485H17.174v17.024h13.38l.693 2.432H17.174a2.43 2.43 0 0 1-2.432-2.432V15.485a2.43 2.43 0 0 1 2.432-2.432h17.024a2.43 2.43 0 0 1 2.432 2.432z"/></g><defs><clipPath id="a"><path fill="#fff" d="M11.094 10.62h29.184v29.185H11.094z"/></clipPath></defs></svg>