<svg width="25" height="24" viewBox="0 0 25 24" fill="none" xmlns="http://www.w3.org/2000/svg">
<path d="M13.6094 6.75V2H9.35938C8.76264 2 8.19034 2.23705 7.76838 2.65901C7.34643 3.08097 7.10938 3.65326 7.10938 4.25V17.25C7.10938 17.8467 7.34643 18.419 7.76838 18.841C8.19034 19.2629 8.76264 19.5 9.35938 19.5H18.3594C18.6548 19.5 18.9474 19.4418 19.2204 19.3287C19.4934 19.2157 19.7414 19.0499 19.9504 18.841C20.1593 18.6321 20.325 18.384 20.4381 18.111C20.5512 17.8381 20.6094 17.5455 20.6094 17.25V9H15.8594C15.2626 9 14.6903 8.76295 14.2684 8.34099C13.8464 7.91903 13.6094 7.34674 13.6094 6.75ZM15.1094 6.75V2.5L20.1094 7.5H15.8594C15.6605 7.5 15.4697 7.42098 15.329 7.28033C15.1884 7.13968 15.1094 6.94891 15.1094 6.75ZM6.11237 4.627C5.67295 4.78182 5.29239 5.06917 5.02318 5.44943C4.75398 5.82968 4.60939 6.2841 4.60938 6.75V17.254C4.60938 18.5138 5.10982 19.722 6.00062 20.6128C6.89142 21.5036 8.0996 22.004 9.35938 22.004H15.8534C16.3188 22.0041 16.7728 21.86 17.1528 21.5913C17.5329 21.3227 17.8202 20.9428 17.9754 20.504H9.35938C8.49742 20.504 7.67077 20.1616 7.06128 19.5521C6.45178 18.9426 6.10938 18.116 6.10938 17.254L6.11237 4.627Z" fill="white"/>
</svg>
