<svg xmlns="http://www.w3.org/2000/svg" width="70" height="70" fill="none"><ellipse cx="17.862" cy="16.79" fill="#EF8435" rx="7.862" ry="7.79"/><path stroke="#fff" d="M27.998 16.79c0 4.022-3.292 7.29-7.362 7.29s-7.363-3.268-7.363-7.29 3.292-7.29 7.363-7.29c4.07 0 7.362 3.268 7.362 7.29Z"/><ellipse cx="17.862" cy="47.95" fill="#EF8435" rx="7.862" ry="7.79"/><path fill="#4AA35C" d="M55.79 9a26.02 26.02 0 0 0-18.313 7.516A25.54 25.54 0 0 0 29.89 34.66a25.54 25.54 0 0 0 7.586 18.145 26.02 26.02 0 0 0 18.313 7.516z"/><path stroke="#fff" d="M44.089 18.491a23.2 23.2 0 0 1 15.826-6.695v45.73A23.2 23.2 0 0 1 44.09 50.83a22.76 22.76 0 0 1-6.76-16.17c0-6.064 2.43-11.88 6.76-16.17ZM27.076 47.95c0 4.021-3.291 7.29-7.362 7.29s-7.362-3.269-7.362-7.29c0-4.022 3.291-7.29 7.362-7.29s7.362 3.268 7.362 7.29Z"/></svg>