<svg width="70" height="70" viewBox="0 0 70 70" fill="none" xmlns="http://www.w3.org/2000/svg">
<ellipse cx="17.8624" cy="16.79" rx="7.86243" ry="7.78996" fill="#EF8435"/>
<path d="M27.9983 16.79C27.9983 20.8117 24.7064 24.0799 20.6359 24.0799C16.5653 24.0799 13.2734 20.8117 13.2734 16.79C13.2734 12.7682 16.5653 9.5 20.6359 9.5C24.7064 9.5 27.9983 12.7682 27.9983 16.79Z" stroke="white"/>
<ellipse cx="17.8624" cy="47.9496" rx="7.86243" ry="7.78996" fill="#EF8435"/>
<path d="M55.7904 9C48.9213 9 42.3336 11.7036 37.4765 16.5159C32.6193 21.3283 29.8906 27.8553 29.8906 34.661C29.8906 41.4668 32.6193 47.9938 37.4765 52.8061C42.3336 57.6185 48.9213 60.3221 55.7904 60.3221V9Z" fill="#4AA35C"/>
<path d="M44.0886 18.4911C48.3 14.3185 53.9719 11.9238 59.9154 11.7964V57.5254C53.9719 57.398 48.3 55.0033 44.0886 50.8307C39.7594 46.5414 37.3281 40.7249 37.3281 34.6609C37.3281 28.5969 39.7594 22.7804 44.0886 18.4911Z" stroke="white"/>
<path d="M27.0764 47.9496C27.0764 51.9714 23.7845 55.2396 19.714 55.2396C15.6435 55.2396 12.3516 51.9714 12.3516 47.9496C12.3516 43.9278 15.6435 40.6597 19.714 40.6597C23.7845 40.6597 27.0764 43.9278 27.0764 47.9496Z" stroke="white"/>
</svg>
