<svg width="129" height="63" viewBox="0 0 129 63" fill="none" xmlns="http://www.w3.org/2000/svg">
<rect x="0.761719" width="127.478" height="62.4016" rx="26.7436" fill="white"/>
<path d="M28.6101 41.9377V21.3987H40.7767V24.3797H31.5911V30.1706H39.0651V33.1659H31.5911V41.9377H28.6101ZM47.1401 42.3656C45.999 42.3656 45.0434 42.1564 44.2732 41.7381C43.503 41.3102 42.9182 40.7491 42.5188 40.055C42.1289 39.3513 41.934 38.5811 41.934 37.7444C41.934 36.9646 42.0719 36.28 42.3476 35.6904C42.6234 35.1009 43.0323 34.6017 43.5743 34.1928C44.1163 33.7744 44.7819 33.4369 45.5711 33.1801C46.2558 32.9804 47.0307 32.8045 47.896 32.6524C48.7613 32.5002 49.6694 32.3576 50.6203 32.2245C51.5807 32.0914 52.5316 31.9582 53.4729 31.8251L52.3889 32.4242C52.408 31.2165 52.1512 30.3227 51.6187 29.7427C51.0957 29.1531 50.1924 28.8584 48.9087 28.8584C48.1005 28.8584 47.3588 29.0485 46.6837 29.4289C46.0085 29.7997 45.5378 30.4178 45.2716 31.2831L42.4903 30.4273C42.8706 29.1056 43.5933 28.0549 44.6583 27.2751C45.7328 26.4954 47.1591 26.1056 48.9372 26.1056C50.316 26.1056 51.5141 26.3433 52.5316 26.8187C53.5585 27.2847 54.3097 28.0263 54.7852 29.0438C55.0324 29.5478 55.1845 30.0802 55.2416 30.6413C55.2986 31.2023 55.3272 31.8061 55.3272 32.4527V41.9377H52.6885V38.4147L53.2019 38.8711C52.5649 40.0502 51.7519 40.9298 50.7629 41.5098C49.7835 42.0804 48.5759 42.3656 47.1401 42.3656ZM47.6678 39.9266C48.5141 39.9266 49.2415 39.7792 49.8501 39.4845C50.4587 39.1802 50.9484 38.7951 51.3192 38.3291C51.69 37.8632 51.9325 37.3783 52.0466 36.8743C52.2083 36.4179 52.2986 35.9044 52.3176 35.3339C52.3462 34.7633 52.3604 34.3069 52.3604 33.9646L53.3303 34.3212C52.3889 34.4638 51.5331 34.5922 50.7629 34.7063C49.9927 34.8204 49.2938 34.9345 48.6662 35.0486C48.0482 35.1532 47.4967 35.2816 47.0117 35.4337C46.6028 35.5763 46.2367 35.7475 45.9134 35.9472C45.5996 36.1469 45.3477 36.3893 45.1575 36.6746C44.9768 36.9599 44.8865 37.3069 44.8865 37.7158C44.8865 38.1152 44.9863 38.486 45.186 38.8284C45.3857 39.1612 45.69 39.4274 46.0989 39.6271C46.5077 39.8268 47.0307 39.9266 47.6678 39.9266ZM64.9216 42.3514C63.0484 42.3514 61.5222 41.9377 60.3431 41.1105C59.1641 40.2832 58.4414 39.1184 58.1751 37.616L61.2275 37.1453C61.4176 37.944 61.855 38.5764 62.5397 39.0423C63.2338 39.4987 64.0944 39.7269 65.1213 39.7269C66.0532 39.7269 66.7806 39.5368 67.3036 39.1564C67.8361 38.7761 68.1023 38.2531 68.1023 37.5875C68.1023 37.1976 68.0073 36.8838 67.8171 36.6461C67.6364 36.3989 67.2513 36.1659 66.6618 35.9472C66.0722 35.7285 65.1736 35.4575 63.966 35.1342C62.6443 34.7919 61.5936 34.4258 60.8138 34.0359C60.0436 33.6365 59.4921 33.1754 59.1593 32.6524C58.836 32.1199 58.6743 31.478 58.6743 30.7268C58.6743 29.795 58.9216 28.982 59.416 28.2878C59.9105 27.5937 60.6046 27.0564 61.4985 26.6761C62.4018 26.2957 63.4573 26.1056 64.6649 26.1056C65.844 26.1056 66.8947 26.291 67.8171 26.6618C68.7394 27.0327 69.4859 27.5604 70.0564 28.245C70.6269 28.9202 70.9693 29.7142 71.0834 30.627L68.031 31.1833C67.9264 30.4416 67.5794 29.8568 66.9898 29.4289C66.4003 29.001 65.6348 28.768 64.6934 28.73C63.7901 28.692 63.0579 28.8441 62.4969 29.1864C61.9359 29.5192 61.6554 29.9804 61.6554 30.5699C61.6554 30.9123 61.76 31.2023 61.9692 31.44C62.1879 31.6777 62.6062 31.9059 63.2243 32.1246C63.8424 32.3433 64.7552 32.6048 65.9629 32.9091C67.2561 33.2419 68.283 33.6128 69.0437 34.0217C69.8044 34.421 70.3464 34.9012 70.6697 35.4622C71.0025 36.0137 71.1689 36.6841 71.1689 37.4734C71.1689 38.9948 70.6127 40.1881 69.5001 41.0534C68.3971 41.9187 66.871 42.3514 64.9216 42.3514ZM83.1396 41.9377C82.1697 42.1279 81.2188 42.2087 80.2869 42.1802C79.3551 42.1517 78.523 41.971 77.7909 41.6382C77.0587 41.3054 76.5072 40.7824 76.1363 40.0693C75.8035 39.4322 75.6229 38.7856 75.5943 38.1295C75.5753 37.4638 75.5658 36.7126 75.5658 35.8759V22.2545H78.5611V35.7332C78.5611 36.3513 78.5658 36.8886 78.5753 37.345C78.5944 37.8014 78.6942 38.1865 78.8749 38.5003C79.2172 39.0899 79.7592 39.4274 80.5009 39.513C81.2521 39.5891 82.1316 39.5558 83.1396 39.4132V41.9377ZM72.6133 28.9297V26.5335H83.1396V28.9297H72.6133ZM97.1989 41.9377V34.364C97.1989 33.7649 97.1466 33.1516 97.042 32.524C96.9469 31.8869 96.7567 31.2974 96.4715 30.7554C96.1957 30.2134 95.8011 29.776 95.2876 29.4432C94.7836 29.1103 94.1228 28.9439 93.305 28.9439C92.7725 28.9439 92.2686 29.0343 91.7931 29.2149C91.3177 29.3861 90.8993 29.6666 90.538 30.0565C90.1861 30.4463 89.9056 30.9598 89.6964 31.5969C89.4967 32.234 89.3969 33.009 89.3969 33.9218L87.5427 33.2229C87.5427 31.8251 87.8042 30.5937 88.3272 29.5287C88.8501 28.4542 89.6013 27.6175 90.5807 27.0184C91.5602 26.4193 92.744 26.1198 94.1323 26.1198C95.1973 26.1198 96.0911 26.291 96.8138 26.6333C97.5364 26.9756 98.1212 27.4273 98.5682 27.9883C99.0246 28.5398 99.3716 29.1436 99.6094 29.7997C99.8471 30.4558 100.009 31.0977 100.094 31.7253C100.18 32.3529 100.223 32.9044 100.223 33.3798V41.9377H97.1989ZM86.3731 41.9377V26.5335H89.0403V30.9836H89.3969V41.9377H86.3731Z" fill="#EF8435"/>
</svg>
