<svg xmlns="http://www.w3.org/2000/svg" width="129" height="63" fill="none"><rect width="127.478" height="62.402" x=".762" fill="#fff" rx="26.744"/><path fill="#EF8435" d="M28.61 41.938v-20.54h12.167v2.982H31.59v5.79h7.474v2.996h-7.474v8.772zm18.53.428q-1.712 0-2.867-.628-1.155-.642-1.754-1.683a4.7 4.7 0 0 1-.585-2.31q0-1.17.414-2.055a3.96 3.96 0 0 1 1.226-1.497q.813-.628 1.997-1.013 1.028-.3 2.325-.528a79 79 0 0 1 2.724-.428q1.44-.2 2.853-.399l-1.084.6q.028-1.812-.77-2.682-.785-.885-2.71-.885-1.213 0-2.225.57-1.013.558-1.412 1.855l-2.782-.856q.57-1.982 2.168-3.152 1.612-1.17 4.28-1.17 2.067 0 3.594.714a4.43 4.43 0 0 1 2.253 2.225q.371.756.457 1.597.085.841.085 1.812v9.485h-2.639v-3.523l.514.456q-.955 1.77-2.44 2.639-1.468.855-3.622.856m.528-2.44q1.27 0 2.182-.442.913-.456 1.47-1.155.555-.698.727-1.455.242-.685.27-1.54.044-.855.043-1.37l.97.357q-1.412.214-2.567.385-1.156.17-2.097.343-.928.157-1.654.385a5.6 5.6 0 0 0-1.099.513q-.47.3-.755.728-.272.428-.272 1.04 0 .6.3 1.113.3.5.913.8.614.299 1.569.299m17.254 2.425q-2.81 0-4.579-1.24-1.769-1.242-2.168-3.495l3.053-.47q.285 1.197 1.312 1.896 1.04.685 2.581.685 1.398 0 2.183-.57.798-.57.798-1.57 0-.585-.285-.94-.27-.372-1.155-.7t-2.696-.813q-1.983-.513-3.152-1.098-1.155-.599-1.655-1.384-.485-.798-.485-1.925 0-1.398.742-2.44.742-1.04 2.083-1.61 1.354-.571 3.166-.571 1.769 0 3.152.556 1.383.555 2.24 1.583.855 1.013 1.026 2.382l-3.052.556q-.157-1.112-1.041-1.754-.885-.642-2.297-.699-1.355-.057-2.196.456-.842.5-.842 1.384 0 .513.314.87.328.357 1.255.685t2.739.784q1.94.5 3.08 1.113 1.141.6 1.627 1.44.498.828.499 2.011 0 2.283-1.669 3.58-1.655 1.298-4.578 1.298m18.218-.413q-1.455.285-2.853.242t-2.496-.542a3.4 3.4 0 0 1-1.655-1.569 4.6 4.6 0 0 1-.542-1.94 80 80 0 0 1-.028-2.253V22.255h2.995v13.478q0 .927.014 1.612.03.685.3 1.155.513.884 1.626 1.013 1.126.114 2.639-.1zM72.613 28.93v-2.396H83.14v2.396zM97.2 41.938v-7.574q0-.899-.157-1.84a5.5 5.5 0 0 0-.57-1.769 3.35 3.35 0 0 0-1.184-1.312q-.756-.5-1.983-.5-.799 0-1.512.272a3.15 3.15 0 0 0-1.255.841q-.528.586-.842 1.54-.3.957-.3 2.326l-1.853-.7q0-2.095.784-3.693.784-1.613 2.254-2.51 1.47-.9 3.551-.9 1.598 0 2.682.514t1.754 1.355A6.1 6.1 0 0 1 99.61 29.8q.357.984.485 1.925.129.942.129 1.655v8.558zm-10.826 0V26.533h2.667v4.45h.357v10.955z"/></svg>