<svg width="123" height="36" viewBox="0 0 123 36" fill="none" xmlns="http://www.w3.org/2000/svg">
<path d="M0.1825 34.8752V0.855243H20.9725V7.28124H6.6085V14.6522H18.1375V21.0782H6.6085V34.8752H0.1825ZM31.4026 35.584C29.5756 35.584 28.0242 35.2375 26.7484 34.5445C25.4884 33.8357 24.5277 32.8986 23.8662 31.7331C23.2204 30.5519 22.8976 29.2525 22.8976 27.835C22.8976 26.6537 23.0787 25.5749 23.4409 24.5984C23.8032 23.6219 24.3859 22.7635 25.1892 22.0232C26.0082 21.2672 27.1028 20.6372 28.4731 20.1332C29.4181 19.7867 30.5442 19.4796 31.8514 19.2119C33.1587 18.9441 34.6392 18.6921 36.2929 18.4559C37.9467 18.2039 39.7658 17.9282 41.7503 17.629L39.4351 18.9047C39.4351 17.3927 39.0728 16.2824 38.3483 15.5736C37.6238 14.8649 36.4111 14.5105 34.7101 14.5105C33.7651 14.5105 32.7807 14.7389 31.7569 15.1956C30.7332 15.6524 30.0166 16.4635 29.6071 17.629L23.7953 15.7862C24.4411 13.6757 25.6538 11.959 27.4336 10.636C29.2133 9.31299 31.6388 8.65149 34.7101 8.65149C36.9623 8.65149 38.9626 8.99799 40.7108 9.69099C42.4591 10.384 43.7821 11.581 44.6798 13.282C45.1838 14.227 45.4831 15.172 45.5776 16.117C45.6721 17.062 45.7193 18.1172 45.7193 19.2827V34.8752H40.0966V29.6305L40.8998 30.7172C39.6556 32.434 38.3089 33.6782 36.8599 34.45C35.4267 35.206 33.6076 35.584 31.4026 35.584ZM32.7728 30.5282C33.9541 30.5282 34.9463 30.3235 35.7496 29.914C36.5686 29.4887 37.2143 29.0084 37.6868 28.4729C38.1751 27.9374 38.5058 27.4885 38.6791 27.1262C39.0098 26.4332 39.1988 25.63 39.2461 24.7165C39.3091 23.7872 39.3406 23.0155 39.3406 22.4012L41.2306 22.8737C39.3248 23.1887 37.7813 23.4565 36.6001 23.677C35.4188 23.8817 34.4659 24.0707 33.7414 24.244C33.0169 24.4172 32.3791 24.6062 31.8278 24.811C31.1978 25.063 30.6859 25.3386 30.2922 25.6379C29.9142 25.9214 29.6307 26.2364 29.4417 26.5829C29.2684 26.9294 29.1818 27.3152 29.1818 27.7405C29.1818 28.3232 29.3236 28.8272 29.6071 29.2525C29.9063 29.662 30.3237 29.977 30.8592 30.1975C31.3947 30.418 32.0326 30.5282 32.7728 30.5282ZM61.8319 35.584C58.6189 35.584 56.0202 34.8595 54.0357 33.4105C52.0669 31.9457 50.8699 29.8825 50.4447 27.2207L57.0124 26.2285C57.2802 27.4255 57.8708 28.3626 58.7843 29.0399C59.7136 29.7171 60.8869 30.0557 62.3044 30.0557C63.4699 30.0557 64.3677 29.8352 64.9977 29.3942C65.6277 28.9375 65.9427 28.3075 65.9427 27.5042C65.9427 27.0002 65.8167 26.5986 65.5647 26.2994C65.3127 25.9844 64.7457 25.6772 63.8637 25.378C62.9974 25.0787 61.6429 24.685 59.8002 24.1967C57.7212 23.6612 56.0596 23.0627 54.8153 22.4012C53.5711 21.7397 52.6733 20.9522 52.1221 20.0387C51.5708 19.1095 51.2952 17.9912 51.2952 16.684C51.2952 15.046 51.7126 13.6285 52.5473 12.4315C53.3821 11.2187 54.5554 10.2895 56.0674 9.64374C57.5952 8.98224 59.3907 8.65149 61.4539 8.65149C63.4542 8.65149 65.2261 8.95862 66.7696 9.57287C68.3131 10.1871 69.5573 11.0612 70.5023 12.1952C71.4631 13.3292 72.0537 14.668 72.2742 16.2115L65.7064 17.3927C65.5962 16.4477 65.1867 15.6996 64.4779 15.1484C63.7692 14.5971 62.8084 14.2742 61.5957 14.1797C60.4144 14.101 59.4616 14.2585 58.7371 14.6522C58.0283 15.046 57.6739 15.613 57.6739 16.3532C57.6739 16.7942 57.8236 17.1644 58.1228 17.4636C58.4378 17.7629 59.0757 18.07 60.0364 18.385C61.0129 18.7 62.4934 19.1095 64.4779 19.6135C66.4152 20.1175 67.9666 20.7081 69.1321 21.3854C70.3133 22.0469 71.1717 22.8501 71.7072 23.7951C72.2427 24.7244 72.5104 25.8505 72.5104 27.1735C72.5104 29.788 71.5654 31.8434 69.6754 33.3396C67.7854 34.8359 65.1709 35.584 61.8319 35.584ZM93.011 34.8752C91.247 35.206 89.5145 35.3477 87.8135 35.3005C86.1283 35.269 84.6163 34.9776 83.2775 34.4264C81.9545 33.8594 80.9465 32.9537 80.2535 31.7095C79.6235 30.544 79.2928 29.3627 79.2613 28.1657C79.2298 26.953 79.214 25.5827 79.214 24.055V2.27274H85.64V23.677C85.64 24.6692 85.6479 25.567 85.6637 26.3702C85.6952 27.1577 85.8605 27.7877 86.1598 28.2602C86.7268 29.158 87.6324 29.6462 88.8767 29.725C90.1209 29.8037 91.499 29.7407 93.011 29.536V34.8752ZM74.867 14.3215V9.36024H93.011V14.3215H74.867ZM116.085 34.8752V22.8265C116.085 22.2437 116.053 21.5035 115.99 20.6057C115.927 19.6922 115.731 18.7787 115.4 17.8652C115.069 16.9517 114.526 16.1879 113.77 15.5736C113.029 14.9594 111.974 14.6522 110.604 14.6522C110.053 14.6522 109.462 14.7389 108.832 14.9121C108.202 15.0854 107.611 15.424 107.06 15.928C106.509 16.4162 106.052 17.1407 105.69 18.1015C105.343 19.0622 105.17 20.338 105.17 21.9287L101.485 20.1805C101.485 18.1645 101.894 16.2745 102.713 14.5105C103.532 12.7465 104.761 11.3211 106.399 10.2344C108.052 9.14762 110.131 8.60424 112.636 8.60424C114.636 8.60424 116.266 8.94287 117.526 9.62012C118.786 10.2974 119.763 11.1557 120.456 12.1952C121.164 13.2347 121.668 14.3215 121.968 15.4555C122.267 16.5737 122.448 17.5975 122.511 18.5267C122.574 19.456 122.605 20.1332 122.605 20.5585V34.8752H116.085ZM98.6497 34.8752V9.36024H104.367V17.818H105.17V34.8752H98.6497Z" fill="white"/>
</svg>
