<svg width="189" height="182" viewBox="0 0 189 182" fill="none" xmlns="http://www.w3.org/2000/svg">
<g opacity="0.5">
<path opacity="0.4" d="M12.8864 135.272C5.77134 135.272 -0.161029 141.126 1.58201 148.025C1.98865 149.634 2.47272 151.219 3.03294 152.774C5.03303 158.322 7.96461 163.364 11.6603 167.611C15.356 171.858 19.7434 175.227 24.572 177.525C29.4007 179.823 34.576 181.006 39.8025 181.006C45.029 181.006 50.2043 179.823 55.0329 177.525C59.8616 175.227 64.249 171.858 67.9447 167.611C71.6404 163.364 74.5719 158.322 76.572 152.774C77.1323 151.219 77.6163 149.634 78.023 148.025C79.766 141.126 73.8336 135.272 66.7185 135.272L39.8025 135.272L12.8864 135.272Z" fill="white"/>
<path opacity="0.4" d="M12.8864 82.4514C5.77134 82.4514 -0.161029 88.306 1.58201 95.2043C1.98865 96.8136 2.47272 98.399 3.03294 99.9533C5.03303 105.502 7.96461 110.544 11.6603 114.791C15.356 119.038 19.7434 122.406 24.572 124.705C29.4007 127.003 34.576 128.186 39.8025 128.186C45.029 128.186 50.2043 127.003 55.0329 124.705C59.8616 122.406 64.249 119.038 67.9447 114.791C71.6404 110.544 74.5719 105.502 76.572 99.9533C77.1323 98.399 77.6163 96.8136 78.023 95.2043C79.766 88.306 73.8336 82.4513 66.7185 82.4513L39.8025 82.4514L12.8864 82.4514Z" fill="white"/>
<circle opacity="0.4" cx="113.117" cy="158.139" r="22.8673" fill="white"/>
<circle opacity="0.4" cx="113.117" cy="107.251" r="22.8673" fill="white"/>
<circle opacity="0.4" cx="113.117" cy="55.0749" r="22.8673" fill="white"/>
<circle opacity="0.4" cx="165.297" cy="158.139" r="22.8673" fill="white"/>
<circle opacity="0.4" cx="165.297" cy="107.251" r="22.8673" fill="white"/>
<circle opacity="0.4" cx="165.297" cy="55.0749" r="22.8673" fill="white"/>
<rect opacity="0.4" x="7.85156" width="63.9027" height="73.4332" rx="5.1532" fill="white"/>
</g>
</svg>
