<svg width="189" height="135" viewBox="0 0 189 135" fill="none" xmlns="http://www.w3.org/2000/svg">
<path opacity="0.4" d="M12.8825 82.4514C5.76743 82.4514 -0.164935 88.306 1.57811 95.2043C1.98474 96.8136 2.46881 98.399 3.02904 99.9533C5.02913 105.502 7.96071 110.544 11.6564 114.791C15.3521 119.038 19.7395 122.406 24.5681 124.705C29.3968 127.003 34.5721 128.186 39.7986 128.186C45.0251 128.186 50.2004 127.003 55.029 124.705C59.8577 122.406 64.2451 119.038 67.9408 114.791C71.6365 110.544 74.568 105.502 76.5681 99.9533C77.1284 98.399 77.6124 96.8136 78.0191 95.2043C79.7621 88.306 73.8297 82.4513 66.7146 82.4513L39.7986 82.4514L12.8825 82.4514Z" fill="white"/>
<circle opacity="0.4" cx="113.117" cy="107.251" r="22.8673" fill="white"/>
<circle opacity="0.4" cx="113.117" cy="55.0749" r="22.8673" fill="white"/>
<circle opacity="0.4" cx="165.293" cy="107.251" r="22.8673" fill="white"/>
<circle opacity="0.4" cx="165.293" cy="55.0749" r="22.8673" fill="white"/>
<rect opacity="0.4" x="7.84766" width="63.9027" height="73.4332" rx="5.1532" fill="white"/>
</svg>
