<svg xmlns="http://www.w3.org/2000/svg" width="189" height="182" fill="none"><g fill="#fff" opacity=".5"><path d="M12.886 135.272c-7.115 0-13.047 5.854-11.304 12.753q.61 2.415 1.45 4.749c2.001 5.548 4.933 10.59 8.628 14.837s8.083 7.616 12.912 9.914 10.004 3.481 15.23 3.481 10.402-1.183 15.23-3.481c4.83-2.298 9.217-5.667 12.913-9.914s6.627-9.289 8.627-14.837a51 51 0 0 0 1.451-4.749c1.743-6.899-4.19-12.753-11.304-12.753H12.886M12.886 82.451c-7.115 0-13.047 5.855-11.304 12.753q.61 2.416 1.45 4.75c2.001 5.548 4.933 10.59 8.628 14.837s8.083 7.615 12.912 9.914 10.004 3.481 15.23 3.481 10.402-1.183 15.23-3.481c4.83-2.299 9.217-5.667 12.913-9.914s6.627-9.289 8.627-14.838a51 51 0 0 0 1.451-4.749c1.743-6.898-4.19-12.753-11.304-12.753H12.886" opacity=".4"/><circle cx="113.117" cy="158.139" r="22.867" opacity=".4"/><circle cx="113.117" cy="107.251" r="22.867" opacity=".4"/><circle cx="113.117" cy="55.075" r="22.867" opacity=".4"/><circle cx="165.297" cy="158.139" r="22.867" opacity=".4"/><circle cx="165.297" cy="107.251" r="22.867" opacity=".4"/><circle cx="165.297" cy="55.075" r="22.867" opacity=".4"/><rect width="63.903" height="73.433" x="7.852" opacity=".4" rx="5.153"/></g></svg>