<svg xmlns="http://www.w3.org/2000/svg" width="50" height="51" fill="none"><rect width="49.612" height="49.612" y=".406" fill="#EF8435" rx="11.813"/><path fill="#fff" d="M25 15.16c3.206 0 3.586.015 4.847.071 1.172.052 1.805.249 2.226.413a3.7 3.7 0 0 1 1.379.895c.421.422.68.82.895 1.378.164.422.36 1.06.412 2.227.057 1.265.07 1.645.07 4.847 0 3.206-.013 3.586-.07 4.846-.051 1.172-.248 1.805-.412 2.227-.216.558-.478.961-.895 1.378a3.7 3.7 0 0 1-1.379.895c-.421.165-1.059.361-2.226.413-1.266.056-1.645.07-4.847.07-3.206 0-3.586-.014-4.847-.07-1.172-.052-1.805-.248-2.226-.413a3.7 3.7 0 0 1-1.379-.895 3.7 3.7 0 0 1-.895-1.378c-.164-.422-.36-1.06-.412-2.227-.057-1.265-.07-1.645-.07-4.846 0-3.207.013-3.586.07-4.847.051-1.172.248-1.805.412-2.227.216-.558.478-.96.895-1.378a3.7 3.7 0 0 1 1.379-.895c.421-.164 1.059-.361 2.226-.413 1.261-.056 1.64-.07 4.847-.07M25 13c-3.258 0-3.666.014-4.945.07-1.275.057-2.152.263-2.911.558a5.86 5.86 0 0 0-2.128 1.388 5.9 5.9 0 0 0-1.388 2.123c-.295.764-.501 1.636-.558 2.911-.056 1.284-.07 1.692-.07 4.95s.014 3.666.07 4.945c.057 1.275.263 2.152.558 2.911.31.792.717 1.463 1.388 2.128a5.9 5.9 0 0 0 2.123 1.383c.764.296 1.636.502 2.911.558 1.28.056 1.688.07 4.945.07s3.666-.014 4.946-.07c1.275-.056 2.151-.262 2.91-.558a5.9 5.9 0 0 0 2.124-1.383 5.9 5.9 0 0 0 1.383-2.123c.295-.764.501-1.636.558-2.911.056-1.28.07-1.687.07-4.945s-.014-3.666-.07-4.946c-.057-1.275-.263-2.151-.558-2.91a5.6 5.6 0 0 0-1.374-2.133 5.9 5.9 0 0 0-2.123-1.383c-.764-.295-1.636-.502-2.911-.558C28.666 13.015 28.258 13 25 13"/><path fill="#fff" d="M25 18.836A6.166 6.166 0 0 0 18.836 25 6.166 6.166 0 0 0 25 31.164 6.166 6.166 0 0 0 31.164 25 6.166 6.166 0 0 0 25 18.836m0 10.162A3.999 3.999 0 1 1 25.001 21 3.999 3.999 0 0 1 25 28.998M32.847 18.592a1.44 1.44 0 1 1-2.879 0 1.44 1.44 0 0 1 2.879 0"/></svg>