<svg width="51" height="51" viewBox="0 0 51 51" fill="none" xmlns="http://www.w3.org/2000/svg">
<rect x="0.75" y="0.40625" width="49.6125" height="49.6125" rx="11.8125" fill="#EF8435"/>
<g clip-path="url(#clip0_2245_25626)">
<path d="M20.4898 18.7888C20.4895 19.2941 20.2886 19.7785 19.9311 20.1356C19.5737 20.4927 19.089 20.6932 18.5838 20.6929C18.0785 20.6927 17.5941 20.4917 17.237 20.1343C16.8799 19.7768 16.6794 19.2922 16.6797 18.7869C16.6799 18.2817 16.8809 17.7972 17.2383 17.4401C17.5958 17.083 18.0804 16.8826 18.5857 16.8828C19.0909 16.8831 19.5754 17.084 19.9325 17.4415C20.2896 17.7989 20.4901 18.2836 20.4898 18.7888ZM20.5469 22.1036H16.7368V34.0293H20.5469V22.1036ZM26.5669 22.1036H22.7759V34.0293H26.5288V27.7712C26.5288 24.2849 31.0724 23.961 31.0724 27.7712V34.0293H34.8349V26.4757C34.8349 20.5986 28.11 20.8177 26.5288 23.7039L26.5669 22.1036Z" fill="white"/>
</g>
<defs>
<clipPath id="clip0_2245_25626">
<rect width="22.8607" height="22.8607" fill="white" transform="translate(13.8828 14.0254)"/>
</clipPath>
</defs>
</svg>
