<svg width="40" height="41" viewBox="0 0 40 41" fill="none" xmlns="http://www.w3.org/2000/svg">
<path d="M39 2.38665V11.6689C39 14.4879 38.5882 17.4789 37.7646 20.6417C36.9126 23.8389 35.6913 26.9158 34.1009 29.8724C32.4821 32.8634 30.5366 35.4589 28.2646 37.6592L22.8117 32.2961C24.6009 29.202 26.1629 25.9704 27.4978 22.6013C28.8042 19.2666 29.4574 15.6912 29.4574 11.8752V2.38665H39ZM17.1883 2.38665V11.6689C17.1883 14.4879 16.7765 17.4789 15.9529 20.6417C15.1009 23.8389 13.8797 26.9158 12.2892 29.8724C10.6704 32.8634 8.72496 35.4589 6.45292 37.6592L1 32.2961C2.78924 29.202 4.35127 25.9704 5.6861 22.6013C6.99253 19.2666 7.64574 15.6912 7.64574 11.8752V2.38665H17.1883Z" fill="white"/>
</svg>
