<svg width="40" height="41" viewBox="0 0 40 41" fill="none" xmlns="http://www.w3.org/2000/svg">
<path d="M1 34.7982V27.13C1 24.8012 1.41181 22.3303 2.23543 19.7175C3.08744 17.0762 4.30867 14.5344 5.8991 12.0919C7.51794 9.62106 9.46338 7.47682 11.7354 5.65918L17.1883 10.0897C15.3991 12.6457 13.8371 15.3154 12.5022 18.0986C11.1958 20.8535 10.5426 23.8072 10.5426 26.9596V34.7982H1ZM22.8117 34.7982V27.13C22.8117 24.8012 23.2235 22.3303 24.0471 19.7175C24.8991 17.0762 26.1203 14.5344 27.7108 12.0919C29.3296 9.62106 31.275 7.47682 33.5471 5.65918L39 10.0897C37.2108 12.6457 35.6487 15.3154 34.3139 18.0986C33.0075 20.8535 32.3543 23.8072 32.3543 26.9596V34.7982H22.8117Z" fill="white"/>
</svg>
