<svg width="24" height="25" viewBox="0 0 24 25" fill="none" xmlns="http://www.w3.org/2000/svg">
<path d="M4 11.6704C3.58579 11.6704 3.25 12.0062 3.25 12.4204C3.25 12.8346 3.58579 13.1704 4 13.1704L4 11.6704ZM19.5303 12.9507C19.8232 12.6578 19.8232 12.183 19.5303 11.8901L14.7574 7.11711C14.4645 6.82421 13.9896 6.82422 13.6967 7.11711C13.4038 7.41 13.4038 7.88488 13.6967 8.17777L17.9393 12.4204L13.6967 16.663C13.4038 16.9559 13.4038 17.4308 13.6967 17.7237C13.9896 18.0166 14.4645 18.0166 14.7574 17.7237L19.5303 12.9507ZM4 13.1704L19 13.1704L19 11.6704L4 11.6704L4 13.1704Z" fill="#333333"/>
</svg>
