<svg xmlns="http://www.w3.org/2000/svg" width="70" height="70" fill="none"><path fill="#EBBE52" d="M57.362 34.68A24.68 24.68 0 1 1 8 34.68h10.496a14.184 14.184 0 1 0 28.37 0z"/><mask id="a" fill="#fff"><path d="M62.3 34.68a24.68 24.68 0 1 1-49.362 0h10.496a14.184 14.184 0 1 0 28.369 0z"/></mask><path stroke="#fff" stroke-width="1.508" d="M62.3 34.68a24.68 24.68 0 1 1-49.362 0h10.496a14.184 14.184 0 1 0 28.369 0z" mask="url(#a)"/><circle cx="22.14" cy="24.584" r="6.507" fill="#4AA35C"/><circle cx="23.483" cy="24.584" r="6.13" stroke="#fff" stroke-width=".754"/><circle cx="44.124" cy="24.584" r="6.507" fill="#4AA35C"/><circle cx="46.366" cy="24.584" r="6.13" stroke="#fff" stroke-width=".754"/></svg>