<svg width="70" height="70" viewBox="0 0 70 70" fill="none" xmlns="http://www.w3.org/2000/svg">
<path d="M57.3618 34.6809C57.3618 41.2267 54.7615 47.5043 50.1329 52.1329C45.5043 56.7615 39.2267 59.3618 32.6809 59.3618C26.1351 59.3618 19.8574 56.7615 15.2289 52.1329C10.6003 47.5043 8 41.2267 8 34.6809L18.4963 34.6809C18.4963 38.4429 19.9907 42.0508 22.6509 44.7109C25.311 47.371 28.9189 48.8655 32.6809 48.8655C36.4429 48.8655 40.0508 47.371 42.7109 44.7109C45.371 42.0508 46.8655 38.4429 46.8655 34.6809H57.3618Z" fill="#EBBE52"/>
<mask id="path-2-inside-1_2497_38259" fill="white">
<path d="M62.2993 34.6809C62.2993 41.2267 59.699 47.5043 55.0704 52.1329C50.4418 56.7615 44.1642 59.3618 37.6184 59.3618C31.0726 59.3618 24.7949 56.7615 20.1664 52.1329C15.5378 47.5043 12.9375 41.2267 12.9375 34.6809L23.4338 34.6809C23.4338 38.4429 24.9282 42.0508 27.5884 44.7109C30.2485 47.371 33.8564 48.8655 37.6184 48.8655C41.3804 48.8655 44.9883 47.371 47.6484 44.7109C50.3085 42.0508 51.803 38.4429 51.803 34.6809H62.2993Z"/>
</mask>
<path d="M62.2993 34.6809C62.2993 41.2267 59.699 47.5043 55.0704 52.1329C50.4418 56.7615 44.1642 59.3618 37.6184 59.3618C31.0726 59.3618 24.7949 56.7615 20.1664 52.1329C15.5378 47.5043 12.9375 41.2267 12.9375 34.6809L23.4338 34.6809C23.4338 38.4429 24.9282 42.0508 27.5884 44.7109C30.2485 47.371 33.8564 48.8655 37.6184 48.8655C41.3804 48.8655 44.9883 47.371 47.6484 44.7109C50.3085 42.0508 51.803 38.4429 51.803 34.6809H62.2993Z" stroke="white" stroke-width="1.50827" mask="url(#path-2-inside-1_2497_38259)"/>
<circle cx="22.1396" cy="24.5839" r="6.50678" fill="#4AA35C"/>
<circle cx="23.4833" cy="24.5842" r="6.12971" stroke="white" stroke-width="0.754136"/>
<circle cx="44.124" cy="24.5839" r="6.50678" fill="#4AA35C"/>
<circle cx="46.3662" cy="24.5839" r="6.12971" stroke="white" stroke-width="0.754136"/>
</svg>
