<svg xmlns="http://www.w3.org/2000/svg" width="51" height="51" fill="none"><rect width="49.612" height="49.612" x=".625" y=".406" fill="#EF8435" rx="11.813"/><g clip-path="url(#a)"><path fill="#fff" d="M29.447 17.37a3.526 3.526 0 0 0-3.526 3.461l-.034 1.915a.73.73 0 0 1-.827.71l-1.898-.259c-2.498-.34-4.89-1.49-7.186-3.403-.728 4.025.693 6.813 4.113 8.964l2.125 1.335a.73.73 0 0 1 .04 1.208l-1.935 1.414c1.152.072 2.245.02 3.152-.16 5.737-1.145 9.552-5.462 9.552-12.582 0-.582-1.231-2.604-3.576-2.604m-5.958 3.416a5.958 5.958 0 0 1 10.196-4.08c.865-.006 1.6.213 3.246-.784-.408 1.994-.608 2.86-1.477 4.05 0 9.293-5.711 13.812-11.506 14.968-3.974.793-9.753-.51-11.409-2.238.844-.066 4.273-.435 6.255-1.885-1.677-1.106-8.351-5.033-3.965-15.593q3.088 3.606 6.262 4.909c1.408.578 1.754.566 2.4.654z"/></g><defs><clipPath id="a"><path fill="#fff" d="M10.844 10.62h29.184v29.185H10.844z"/></clipPath></defs></svg>