<svg width="51" height="51" viewBox="0 0 51 51" fill="none" xmlns="http://www.w3.org/2000/svg">
<rect x="0.625" y="0.40625" width="49.6125" height="49.6125" rx="11.8125" fill="#EF8435"/>
<g clip-path="url(#clip0_2245_25625)">
<path d="M29.4474 17.3691C28.5232 17.3689 27.6359 17.7316 26.9764 18.3791C26.3169 19.0265 25.938 19.907 25.9211 20.831L25.887 22.7462C25.885 22.849 25.8613 22.9503 25.8174 23.0433C25.7736 23.1363 25.7105 23.219 25.6324 23.286C25.5544 23.3529 25.463 23.4026 25.3644 23.4317C25.2657 23.4609 25.1621 23.4689 25.0601 23.4551L23.162 23.1973C20.6643 22.8569 18.2713 21.7065 15.9755 19.7938C15.2483 23.8187 16.6686 26.607 20.0892 28.7581L22.2135 30.0932C22.3144 30.1567 22.3983 30.2439 22.4577 30.3472C22.5172 30.4505 22.5504 30.5669 22.5545 30.686C22.5585 30.8052 22.5334 30.9235 22.4811 31.0306C22.4289 31.1378 22.3512 31.2305 22.2548 31.3007L20.319 32.7149C21.4705 32.7867 22.5637 32.7356 23.4708 32.5556C29.2079 31.4102 33.0225 27.0934 33.0225 19.9725C33.0225 19.3913 31.7919 17.3691 29.4474 17.3691ZM23.4891 20.786C23.5103 19.6139 23.8768 18.474 24.5428 17.5092C25.2088 16.5444 26.1446 15.7974 27.233 15.3619C28.3215 14.9264 29.5142 14.8217 30.6619 15.0608C31.8096 15.3 32.8612 15.8724 33.6852 16.7064C34.5497 16.7003 35.2854 16.9192 36.9307 15.9221C36.5233 17.9163 36.3227 18.7821 35.4544 19.9725C35.4544 29.2652 29.7429 33.7838 23.9475 34.9402C19.9736 35.733 14.1952 34.4307 12.5391 32.7015C13.383 32.6359 16.8121 32.2674 18.7941 30.8168C17.1173 29.7114 10.4427 25.7838 14.8288 15.2241C16.8875 17.6281 18.9753 19.2648 21.0911 20.133C22.4993 20.7106 22.8446 20.6985 23.4903 20.7873L23.4891 20.786Z" fill="white"/>
</g>
<defs>
<clipPath id="clip0_2245_25625">
<rect width="29.1838" height="29.1838" fill="white" transform="translate(10.8438 10.6206)"/>
</clipPath>
</defs>
</svg>
