<svg width="9" height="10" viewBox="0 0 9 10" fill="none" xmlns="http://www.w3.org/2000/svg">
<path d="M4.40874 9.38828C6.74735 9.38828 8.64316 7.49246 8.64316 5.15386C8.64316 2.81525 6.74735 0.919434 4.40874 0.919434C2.07013 0.919434 0.174316 2.81525 0.174316 5.15386C0.174316 7.49246 2.07013 9.38828 4.40874 9.38828Z" fill="#EA4C89"/>
<path fill-rule="evenodd" clip-rule="evenodd" d="M4.40861 0.782715C1.99555 0.782715 0.0375977 2.74067 0.0375977 5.15373C0.0375977 7.56681 1.99555 9.52475 4.40861 9.52475C6.81694 9.52475 8.77963 7.56681 8.77963 5.15373C8.77963 2.74067 6.81694 0.782715 4.40861 0.782715ZM7.29575 2.79755C7.81724 3.43282 8.13015 4.24349 8.13963 5.12054C8.01637 5.09685 6.78374 4.84557 5.54166 5.00203C5.51322 4.9404 5.48951 4.87401 5.46107 4.80766C5.38521 4.62752 5.29989 4.44262 5.21455 4.26721C6.58937 3.7078 7.21516 2.90185 7.29575 2.79755ZM4.40861 1.42746C5.35677 1.42746 6.22433 1.78302 6.88332 2.36614C6.81694 2.46096 6.25277 3.21475 4.92535 3.71253C4.31379 2.58896 3.63587 1.66924 3.53157 1.52702C3.81126 1.46065 4.10521 1.42746 4.40861 1.42746ZM2.82046 1.77828C2.92001 1.91102 3.58372 2.83548 4.20476 3.93534C2.46015 4.39995 0.919387 4.39047 0.753458 4.39047C0.995238 3.23371 1.77747 2.27132 2.82046 1.77828ZM0.672865 5.15848C0.672865 5.12054 0.672865 5.08262 0.672865 5.0447C0.834052 5.04943 2.64504 5.07314 4.50816 4.51373C4.61722 4.72231 4.71677 4.93565 4.81159 5.14898C4.76417 5.16321 4.71202 5.17744 4.66462 5.19165C2.73985 5.81269 1.71584 7.5099 1.63051 7.65212C1.0379 6.99316 0.672865 6.11612 0.672865 5.15848ZM4.40861 8.88948C3.54578 8.88948 2.74934 8.59555 2.11881 8.1025C2.18518 7.96503 2.9437 6.50487 5.04861 5.77004C5.05809 5.76529 5.06285 5.76529 5.07233 5.76057C5.59854 7.12115 5.8119 8.26368 5.86878 8.5908C5.4184 8.78517 4.92535 8.88948 4.40861 8.88948ZM6.48982 8.24948C6.4519 8.02191 6.25277 6.93153 5.76448 5.58988C6.93547 5.40498 7.95946 5.70841 8.08748 5.75109C7.9263 6.78931 7.32895 7.68531 6.48982 8.24948Z" fill="#C32361"/>
</svg>
