<svg width="52" height="52" viewBox="0 0 52 52" fill="none" xmlns="http://www.w3.org/2000/svg">
<circle cx="26" cy="26" r="25.5" fill="#111111" stroke="#333333"/>
<path d="M34.3121 28.3109C32.8398 28.7201 31.2853 28.7308 29.8076 28.3422C28.3298 27.9535 26.9817 27.1793 25.9012 26.0989C24.8207 25.0184 24.0466 23.6703 23.6579 22.1925C23.2692 20.7147 23.28 19.1602 23.6891 17.688L23.6893 17.6881C22.2372 18.092 20.9163 18.8694 19.8581 19.9428C18.8 21.0162 18.0415 22.3481 17.6584 23.8059C17.2752 25.2636 17.2807 26.7963 17.6743 28.2513C18.0679 29.7063 18.8358 31.0327 19.9016 32.0985C20.9674 33.1643 22.2939 33.9322 23.7488 34.3258C25.2038 34.7194 26.7365 34.7248 28.1943 34.3416C29.652 33.9585 30.9839 33.2 32.0573 32.1419C33.1307 31.0837 33.9081 29.7628 34.312 28.3106L34.3121 28.3109Z" stroke="#FEFCD7" stroke-width="1.5" stroke-linecap="round" stroke-linejoin="round"/>
</svg>
