<svg width="33" height="33" viewBox="0 0 33 33" fill="none" xmlns="http://www.w3.org/2000/svg">
<path fill-rule="evenodd" clip-rule="evenodd" d="M16.4998 14.6665C15.4873 14.6665 14.6664 15.4873 14.6664 16.4998C14.6664 17.5124 15.4873 18.3332 16.4998 18.3332C17.5123 18.3332 18.3331 17.5124 18.3331 16.4998C18.3331 15.4873 17.5123 14.6665 16.4998 14.6665ZM10.0833 14.6666C9.07081 14.6666 8.25 15.4874 8.25 16.4999C8.25 17.5124 9.07081 18.3332 10.0833 18.3332C11.0959 18.3332 11.9167 17.5124 11.9167 16.4999C11.9167 15.4874 11.0959 14.6666 10.0833 14.6666ZM21.0836 16.4998C21.0836 15.4873 21.9044 14.6665 22.9169 14.6665C23.9294 14.6665 24.7502 15.4873 24.7502 16.4998C24.7502 17.5124 23.9294 18.3332 22.9169 18.3332C21.9044 18.3332 21.0836 17.5124 21.0836 16.4998Z" fill="#212738"/>
</svg>
