<svg width="10" height="10" viewBox="0 0 10 10" fill="none" xmlns="http://www.w3.org/2000/svg">
<g clip-path="url(#clip0_154_29303)">
<path d="M3.49951 9.52487C4.30378 9.52487 4.95654 8.87212 4.95654 8.06786V6.61084H3.49951C2.69524 6.61084 2.04248 7.26359 2.04248 8.06786C2.04248 8.87212 2.69524 9.52487 3.49951 9.52487Z" fill="#0ACF83"/>
<path d="M2.04248 5.15379C2.04248 4.34953 2.69524 3.69678 3.49951 3.69678H4.95654V6.61078H3.49951C2.69524 6.61081 2.04248 5.95806 2.04248 5.15379Z" fill="#A259FF"/>
<path d="M2.04248 2.23973C2.04248 1.43546 2.69524 0.782715 3.49951 0.782715H4.95654V3.69671H3.49951C2.69524 3.69671 2.04248 3.044 2.04248 2.23973Z" fill="#F24E1E"/>
<path d="M4.95654 0.782715H6.41357C7.21784 0.782715 7.8706 1.43546 7.8706 2.23973C7.8706 3.044 7.21784 3.69671 6.41357 3.69671H4.95654V0.782715Z" fill="#FF7262"/>
<path d="M7.8706 5.15379C7.8706 5.95806 7.21784 6.61081 6.41357 6.61081C5.6093 6.61081 4.95654 5.95806 4.95654 5.15379C4.95654 4.34953 5.6093 3.69678 6.41357 3.69678C7.21784 3.69678 7.8706 4.34953 7.8706 5.15379Z" fill="#1ABCFE"/>
</g>
<defs>
<clipPath id="clip0_154_29303">
<rect width="8.74203" height="8.74203" fill="white" transform="translate(0.585449 0.782715)"/>
</clipPath>
</defs>
</svg>
