<svg width="9" height="10" viewBox="0 0 9 10" fill="none" xmlns="http://www.w3.org/2000/svg">
<g clip-path="url(#clip0_154_29304)">
<path d="M8.72669 5.25439C8.72669 4.95726 8.7026 4.65852 8.6512 4.36621H4.52832V6.04941H6.8893C6.79133 6.59227 6.47653 7.0725 6.01558 7.37766V8.46981H7.42413C8.25128 7.70852 8.72669 6.58424 8.72669 5.25439Z" fill="#4285F4"/>
<path d="M4.52812 9.52513C5.707 9.52513 6.70118 9.13806 7.42554 8.46992L6.01698 7.37777C5.62509 7.64438 5.11917 7.79536 4.52973 7.79536C3.38939 7.79536 2.42252 7.02603 2.0756 5.9917H0.62207V7.11758C1.36409 8.59359 2.87544 9.52513 4.52812 9.52513Z" fill="#34A853"/>
<path d="M2.07411 5.99182C1.89102 5.44896 1.89102 4.86113 2.07411 4.31826V3.19238H0.622194C0.00223738 4.42748 0.00223738 5.88261 0.622194 7.1177L2.07411 5.99182Z" fill="#FBBC04"/>
<path d="M4.52812 2.51279C5.15129 2.50315 5.75358 2.73764 6.20489 3.16808L7.45284 1.92013C6.66263 1.17811 5.61385 0.770161 4.52812 0.783009C2.87544 0.783009 1.36409 1.71455 0.62207 3.19217L2.07399 4.31805C2.4193 3.28211 3.38778 2.51279 4.52812 2.51279Z" fill="#EA4335"/>
</g>
<defs>
<clipPath id="clip0_154_29304">
<rect width="8.74203" height="8.74203" fill="white" transform="translate(0.0698242 0.782715)"/>
</clipPath>
</defs>
</svg>
