<svg width="17" height="18" viewBox="0 0 17 18" fill="none" xmlns="http://www.w3.org/2000/svg">
<path d="M9.0903 9.02775L11.8407 11.7781L11.263 12.3558L8.14807 9.24089V5.3757H8.96994V8.73717V8.90739L9.0903 9.02775ZM9.79182 15.9459C10.1834 15.8772 10.5619 15.7756 10.9271 15.6433L11.3411 16.3638C10.8473 16.5552 10.3274 16.6973 9.79182 16.7837V15.9459ZM1.26917 11.8564C1.07738 11.3629 0.935282 10.8452 0.848983 10.307H1.68723C1.75598 10.6985 1.85753 11.077 1.9898 11.4422L1.26917 11.8564ZM9.79182 1.36412C10.33 1.45042 10.8478 1.59251 11.3412 1.78431L10.9271 2.50493C10.5619 2.37266 10.1834 2.27112 9.79182 2.20236V1.36412ZM15.8488 6.2919C16.0406 6.78534 16.1827 7.30312 16.269 7.84133H15.4308C15.362 7.44975 15.2605 7.07124 15.1282 6.70605L15.8488 6.2919ZM7.32619 16.7837C6.79062 16.6973 6.27076 16.5552 5.77689 16.3638L6.19091 15.6433C6.55611 15.7756 6.93461 15.8772 7.32619 15.9459V16.7837ZM5.77676 1.78431C6.27021 1.59251 6.78798 1.45042 7.32619 1.36412V2.20236C6.93461 2.27112 6.55611 2.37266 6.19091 2.50493L5.77676 1.78431ZM13.4711 3.01967C13.8859 3.35824 14.2667 3.73904 14.6053 4.15386L13.8857 4.57151C13.6328 4.27183 13.3558 3.99514 13.0532 3.73958L13.4711 3.01967ZM1.68723 7.84133H0.848983C0.935282 7.30312 1.07738 6.78534 1.26917 6.2919L1.9898 6.70605C1.85753 7.07124 1.75598 7.44975 1.68723 7.84133ZM15.8486 11.8563L15.1282 11.4422C15.2605 11.077 15.362 10.6985 15.4308 10.307H16.2685C16.1821 10.8425 16.0401 11.3624 15.8486 11.8563ZM14.6135 13.9862C14.2749 14.401 13.8941 14.7818 13.4793 15.1204L13.0616 14.4009C13.3613 14.1479 13.638 13.871 13.8936 13.5683L14.6135 13.9862ZM2.51063 4.16085C2.84809 3.74329 3.22665 3.36376 3.64468 3.02212L4.05825 3.74587C3.75901 3.99843 3.48285 4.27533 3.23007 4.57846L2.51063 4.16085ZM3.64695 15.1204C3.23265 14.7823 2.85229 14.402 2.51405 13.9878L3.2313 13.5756C3.48371 13.8745 3.76042 14.1505 4.06332 14.4031L3.64695 15.1204Z" fill="#A0A0A0" stroke="#A0A0A0" stroke-width="0.821875"/>
</svg>
