<svg width="11" height="17" viewBox="0 0 11 17" fill="none" xmlns="http://www.w3.org/2000/svg">
<path d="M10.08 0.423145V4.53252H9.49065L9.90941 4.9513L6.91321 7.94002L6.6219 8.23059L6.91284 8.52153L9.90976 11.5185L9.49061 11.9376H10.08V16.0388H1.03936V11.9376H1.62874L1.20957 11.5185L4.20649 8.52153L4.49744 8.23059L4.20613 7.94002L1.20993 4.95131L1.6287 4.53252H1.03936V0.423145H10.08ZM9.25811 11.9294V11.7592L9.13774 11.6388L5.85024 8.35132L5.72988 8.23096L5.85024 8.1106L9.13774 4.8231L9.25811 4.70274V4.53252V1.65596V1.24502H8.84717H2.27217H1.86123V1.65596V4.53252V4.70274L1.98159 4.8231L5.26909 8.1106L5.38945 8.23096L5.26909 8.35132L1.98159 11.6388L1.86123 11.7592V11.9294V14.806V15.2169H2.27217H8.84717H9.25811V14.806V11.9294Z" fill="#A0A0A0" stroke="#A0A0A0" stroke-width="0.821875"/>
</svg>
