<svg width="12" height="12" viewBox="0 0 12 12" fill="none" xmlns="http://www.w3.org/2000/svg">
<path d="M4.58172 11.497H9.31922C9.75612 11.497 10.1299 11.2338 10.2878 10.8548L11.8775 7.14378C11.9248 7.02271 11.9512 6.89638 11.9512 6.75952V5.70674C11.9512 5.12771 11.4774 4.65396 10.8984 4.65396H7.57687L8.07694 2.24836L8.09273 2.07992C8.09273 1.8641 8.00324 1.66407 7.86112 1.52195L7.30315 0.969238L3.83424 4.43814C3.64474 4.62764 3.52894 4.89084 3.52894 5.18035V10.4442C3.52894 11.0233 4.00269 11.497 4.58172 11.497ZM4.58172 5.18035L6.86624 2.89582L6.16088 5.70674H10.8984V6.75952L9.31922 10.4442H4.58172V5.18035ZM0.370605 5.18035H2.47616V11.497H0.370605V5.18035Z" fill="#F0A202"/>
</svg>
