<svg width="10" height="10" viewBox="0 0 10 10" fill="none" xmlns="http://www.w3.org/2000/svg">
<path d="M3.87536 0.91032L3.97347 1.30771C3.5868 1.40328 3.21672 1.5565 2.87567 1.76223L2.66579 1.41079C3.0412 1.18345 3.44907 1.01468 3.87536 0.91032ZM5.97409 0.91032L5.87599 1.30771C6.26265 1.40328 6.63273 1.5565 6.97379 1.76223L7.18614 1.41079C6.80975 1.18365 6.40109 1.01491 5.97409 0.91032ZM1.18178 2.89356C0.95465 3.26952 0.785905 3.67777 0.681311 4.10437L1.0787 4.20248C1.17427 3.81581 1.32749 3.44573 1.53322 3.10468L1.18178 2.89356ZM0.963212 5.15374C0.963182 4.95503 0.978126 4.7566 1.00792 4.56013L0.603074 4.49804C0.537257 4.93228 0.537257 5.37395 0.603074 5.80819L1.00792 5.74734C0.978173 5.55087 0.963229 5.35245 0.963212 5.15374ZM7.18366 8.89544L6.97379 8.54524C6.63327 8.75116 6.26357 8.9044 5.87723 8.99976L5.97534 9.39715C6.4011 9.29179 6.80848 9.12264 7.18366 8.89544ZM8.88624 5.15374C8.88623 5.35245 8.87128 5.55087 8.84154 5.74734L9.24638 5.80819C9.3122 5.37395 9.3122 4.93228 9.24638 4.49804L8.84154 4.56013C8.87133 4.7566 8.88627 4.95503 8.88624 5.15374ZM9.16815 6.20186L8.77075 6.10375C8.67541 6.49089 8.52218 6.86141 8.31623 7.2028L8.66768 7.41391C8.89503 7.03762 9.06378 6.62893 9.16815 6.20186ZM5.51833 9.07055C5.12484 9.13016 4.72461 9.13016 4.33112 9.07055L4.27027 9.47539C4.70409 9.54121 5.14536 9.54121 5.57919 9.47539L5.51833 9.07055ZM8.11381 7.50332C7.87777 7.82341 7.59475 8.10601 7.27432 8.34158L7.51772 8.67191C7.87066 8.41209 8.1829 8.1011 8.44414 7.74921L8.11381 7.50332ZM7.27432 1.96465C7.59478 2.20067 7.87779 2.48369 8.11381 2.80415L8.44414 2.55826C8.18382 2.20605 7.87242 1.89464 7.5202 1.63432L7.27432 1.96465ZM1.73565 2.80415C1.97166 2.48369 2.25468 2.20067 2.57514 1.96465L2.32925 1.63432C1.97704 1.89464 1.66563 2.20605 1.40531 2.55826L1.73565 2.80415ZM8.66768 2.89356L8.31623 3.10468C8.52216 3.44519 8.6754 3.81489 8.77075 4.20123L9.16815 4.10313C9.06354 3.67692 8.89479 3.26908 8.66768 2.89356ZM4.33112 1.23693C4.72461 1.17731 5.12484 1.17731 5.51833 1.23693L5.57919 0.832083C5.14536 0.766259 4.70409 0.766259 4.27027 0.832083L4.33112 1.23693ZM1.94552 8.78119L1.09982 8.97741L1.29727 8.1317L0.898635 8.03856L0.70118 8.88427C0.688826 8.9367 0.68693 8.99105 0.695601 9.04422C0.704272 9.09739 0.72334 9.14832 0.751714 9.19411C0.780088 9.2399 0.817211 9.27965 0.86096 9.31108C0.904709 9.34251 0.954225 9.36501 1.00668 9.37728C1.06802 9.39094 1.13161 9.39094 1.19295 9.37728L2.03866 9.18231L1.94552 8.78119ZM0.983082 7.67346L1.38296 7.76536L1.51956 7.1792C1.32008 6.84457 1.1715 6.48212 1.0787 6.10375L0.681311 6.20186C0.770697 6.56404 0.905908 6.91333 1.08367 7.24129L0.983082 7.67346ZM2.89554 8.56014L2.30938 8.69675L2.40252 9.09662L2.83344 8.99603C3.16116 9.17433 3.51053 9.30957 3.87288 9.39839L3.97098 9.001C3.5938 8.907 3.23263 8.75759 2.89926 8.55766L2.89554 8.56014ZM4.92473 1.60203C2.9626 1.60327 1.37427 3.19409 1.37427 5.15498C1.37535 5.82286 1.56427 6.47698 1.91944 7.0426L1.57793 8.50053L3.03462 8.15902C4.69498 9.20342 6.8881 8.70544 7.9325 7.04632C8.9769 5.38721 8.48016 3.19409 6.82104 2.14845C6.25305 1.79127 5.59569 1.60185 4.92473 1.60203Z" fill="#3A76F0"/>
</svg>
