<svg width="17" height="17" viewBox="0 0 17 17" fill="none" xmlns="http://www.w3.org/2000/svg">
<path d="M2.42838 14.7921L2.02971 14.6924L1.8629 15.3597L2.52954 15.1904L2.42838 14.7921ZM2.42838 14.7921L2.02973 14.6923L2.02975 14.6922L2.02983 14.6919L2.03008 14.6909L2.03101 14.6873L2.03447 14.6736L2.04756 14.6225C2.05888 14.5786 2.07524 14.516 2.09561 14.4402C2.13627 14.289 2.19324 14.0839 2.25811 13.8703C2.32257 13.6581 2.39676 13.431 2.47213 13.2382C2.50971 13.1421 2.55002 13.0481 2.5921 12.9661C2.62821 12.8957 2.68097 12.8029 2.75312 12.7275C2.97563 12.483 3.29243 12.3511 3.62832 12.3511C4.30731 12.3511 4.86113 12.9049 4.86113 13.5839C4.86113 13.9243 4.72655 14.2339 4.50243 14.458C4.42554 14.5349 4.32725 14.5901 4.25547 14.6266C4.17427 14.6679 4.08097 14.7077 3.98528 14.745C3.79333 14.8198 3.56639 14.8942 3.35385 14.9591C3.13998 15.0244 2.93429 15.0821 2.78252 15.1234C2.70649 15.144 2.64365 15.1607 2.59965 15.1722L2.54841 15.1855L2.53466 15.1891L2.53099 15.19L2.52998 15.1902L2.52969 15.1903L2.52959 15.1903L2.42838 14.7921ZM15.1264 2.08588C15.2048 1.68249 15.2044 1.68243 15.2041 1.68237L15.2034 1.68224L15.2018 1.68193L15.1978 1.68119L15.1865 1.67921C15.1776 1.6777 15.1658 1.67581 15.1513 1.67372C15.1221 1.66952 15.0819 1.66446 15.0309 1.6598C14.9291 1.65048 14.7848 1.64272 14.6018 1.64652C14.2357 1.65413 13.7163 1.70802 13.0759 1.88743C11.7922 2.24703 10.0406 3.10572 8.07174 5.07459C6.92677 6.21956 6.01438 7.96686 5.74992 8.50403L5.61995 8.76804L5.82802 8.97612L8.23612 11.3842L8.44555 11.5936L8.71047 11.4612C9.25286 11.19 11.0009 10.2773 12.1376 9.14049C14.1065 7.17163 14.9652 5.42002 15.3248 4.13636C15.5042 3.49592 15.5581 2.9765 15.5657 2.6104C15.5695 2.42748 15.5618 2.28311 15.5524 2.18129C15.5478 2.13038 15.5427 2.09011 15.5385 2.06098C15.5364 2.04641 15.5345 2.03463 15.533 2.0257L15.531 2.01443L15.5303 2.01041L15.53 2.00881L15.5299 2.00811C15.5298 2.00779 15.5297 2.00748 15.1264 2.08588ZM15.1264 2.08588L15.2048 1.68249L15.4769 1.73538L15.5297 2.00748L15.1264 2.08588ZM12.7236 9.71818L12.5686 9.87311L12.6109 10.0881L13.0136 12.1346L13.0137 12.1346C13.0939 12.5422 12.964 12.9625 12.6742 13.2522L9.77507 16.1514L8.2552 12.6003L8.22402 12.5275L8.16799 12.4715L4.74077 9.04424L4.68474 8.98821L4.61189 8.95703L1.06007 7.43685L3.95853 4.53123C4.2592 4.23786 4.68066 4.11097 5.07642 4.19012L7.12257 4.601L7.3384 4.64433L7.49405 4.48868C10.0501 1.93262 12.2927 1.10797 13.8645 0.903042C14.6538 0.80013 15.2835 0.852213 15.7102 0.927469C15.9127 0.963185 16.0695 1.00414 16.176 1.03626C16.2081 1.14272 16.2491 1.29957 16.2848 1.50207C16.36 1.92876 16.4121 2.55844 16.3092 3.34775C16.1043 4.91951 15.2796 7.16212 12.7236 9.71818ZM4.62505 8.06868L4.97432 8.21863L5.15101 7.88209C5.48994 7.23651 5.90087 6.53572 6.35873 5.86902L6.71082 5.35632L6.10111 5.23353L4.91761 4.99519L4.70166 4.9517L4.5459 5.10746L2.92681 6.72655L2.49791 7.15545L3.05527 7.39474L4.62505 8.06868ZM9.81749 14.157L10.0574 14.7159L10.4864 14.2847L12.0973 12.6656L12.2522 12.5099L12.2088 12.2946L11.9705 11.1111L11.8469 10.4976L11.3331 10.8548C10.6758 11.3117 9.97584 11.7222 9.33015 12.0612L8.99361 12.2379L9.14356 12.5872L9.81749 14.157ZM0.836241 16.376C0.840878 16.349 0.845692 16.3211 0.850682 16.2925C0.918899 15.9018 1.01964 15.3719 1.1499 14.8135C1.28053 14.2535 1.43891 13.6733 1.62102 13.1786C1.80902 12.6678 2.002 12.3066 2.17652 12.1321C2.54719 11.7614 3.06057 11.5292 3.62832 11.5292C4.76568 11.5292 5.68301 12.4466 5.68301 13.5839C5.68301 14.1517 5.45079 14.665 5.08012 15.0357C4.9056 15.2102 4.54439 15.4032 4.03368 15.5912C3.53897 15.7733 2.95873 15.9317 2.39872 16.0623C1.84032 16.1926 1.31048 16.2933 0.919693 16.3616C0.891105 16.3665 0.863273 16.3714 0.836241 16.376ZM12.258 6.18704C12.258 6.86415 11.7023 7.41985 11.0252 7.41985C10.3481 7.41985 9.79238 6.86415 9.79238 6.18704C9.79238 5.50993 10.3481 4.95423 11.0252 4.95423C11.7023 4.95423 12.258 5.50993 12.258 6.18704Z" fill="#A0A0A0" stroke="#A0A0A0" stroke-width="0.821875"/>
</svg>
