<svg width="16" height="16" viewBox="0 0 16 16" fill="none" xmlns="http://www.w3.org/2000/svg">
<path d="M9.58246 9.12642L9.37254 9.41074L9.62225 9.66085L14.4853 14.5316L13.9071 15.1098L9.03634 10.2468L8.78623 9.99705L8.50191 10.207C7.68782 10.808 6.69563 11.1704 5.61465 11.1704C2.89107 11.1704 0.683398 8.96274 0.683398 6.23916C0.683398 3.51558 2.89107 1.30791 5.61465 1.30791C8.33823 1.30791 10.5459 3.51558 10.5459 6.23916C10.5459 7.32015 10.1835 8.31233 9.58246 9.12642ZM5.87297 5.49455L5.96504 5.77891H6.26393H7.10388L6.37883 6.35246L6.15745 6.52758L6.24146 6.79706L6.49117 7.59807L5.86355 7.12033L5.61465 6.93087L5.36575 7.12033L4.73813 7.59807L4.98784 6.79706L5.07185 6.52758L4.85047 6.35246L4.12541 5.77891H4.96537H5.26426L5.35632 5.49455L5.61465 4.69669L5.87297 5.49455ZM7.9774 9.60404C9.03453 8.86128 9.72402 7.63237 9.72402 6.23916C9.72402 3.97669 7.90572 2.14749 5.64748 2.12991L5.61465 2.02851L5.58182 2.12991C3.32358 2.14749 1.50527 3.97669 1.50527 6.23916C1.50527 7.63237 2.19477 8.86128 3.2519 9.60404L3.18723 9.8115L3.36179 9.67863C4.0083 10.1023 4.78214 10.3485 5.61465 10.3485C6.44716 10.3485 7.221 10.1023 7.86751 9.67863L8.04207 9.8115L7.9774 9.60404Z" fill="#A0A0A0" stroke="#A0A0A0" stroke-width="0.821875"/>
</svg>
