<svg width="18" height="12" viewBox="0 0 18 12" fill="none" xmlns="http://www.w3.org/2000/svg">
<path d="M10.4538 3.08214C13.3479 3.68169 15.5849 6.05982 15.9688 9.01641H2.08098C2.46494 6.05982 4.70189 3.68169 7.59601 3.08214L8.08343 2.98117L7.89198 2.5217C7.82907 2.37072 7.79209 2.20236 7.79209 2.03047C7.79209 1.35336 8.34779 0.797656 9.0249 0.797656C9.70201 0.797656 10.2577 1.35336 10.2577 2.03047C10.2577 2.20236 10.2207 2.37072 10.1578 2.5217L9.96638 2.98117L10.4538 3.08214ZM14.3671 8.18631H14.9736L14.7487 7.62301C13.8423 5.35244 11.624 3.73997 9.0249 3.73997C6.42585 3.73997 4.20754 5.35244 3.30107 7.62301L3.07618 8.18631H3.68271H14.3671ZM16.8327 11.482H1.21709V10.6602H16.8327V11.482Z" fill="#A0A0A0" stroke="#A0A0A0" stroke-width="0.821875"/>
</svg>
