<svg width="20" height="20" viewBox="0 0 20 20" fill="none" xmlns="http://www.w3.org/2000/svg">
<path d="M11 17.8501V6.6801C11.85 6.3801 12.53 5.7001 12.83 4.8501H16L13.22 11.3401C13.05 11.7301 12.99 12.1801 13.11 12.5901C13.5 13.8901 14.87 14.8501 16.5 14.8501C18.13 14.8501 19.51 13.8901 19.89 12.5901C20.01 12.1801 19.95 11.7301 19.78 11.3401L17 4.8501H18C18.55 4.8501 19 4.4001 19 3.8501C19 3.3001 18.55 2.8501 18 2.8501H12.83C12.42 1.6801 11.31 0.850098 10 0.850098C8.69 0.850098 7.58 1.6801 7.17 2.8501H2C1.45 2.8501 1 3.3001 1 3.8501C1 4.4001 1.45 4.8501 2 4.8501H3L0.22 11.3401C0.05 11.7301 -0.0100001 12.1801 0.11 12.5901C0.49 13.8901 1.87 14.8501 3.5 14.8501C5.13 14.8501 6.51 13.8901 6.89 12.5901C7.01 12.1801 6.95 11.7301 6.78 11.3401L4 4.8501H7.17C7.47 5.7001 8.15 6.3801 9 6.6801V17.8501H11ZM9 17.8501H1C0.45 17.8501 0 18.3001 0 18.8501C0 19.4001 0.45 19.8501 1 19.8501H19C19.55 19.8501 20 19.4001 20 18.8501C20 18.3001 19.55 17.8501 19 17.8501H11H9ZM18.37 11.8501H14.63L16.5 7.4901L18.37 11.8501ZM5.37 11.8501H1.63L3.5 7.4901L5.37 11.8501ZM10 4.8501C9.45 4.8501 9 4.4001 9 3.8501C9 3.3001 9.45 2.8501 10 2.8501C10.55 2.8501 11 3.3001 11 3.8501C11 4.4001 10.55 4.8501 10 4.8501Z" fill="#006EB3"/>
</svg>
