<svg width="20" height="12" viewBox="0 0 20 12" fill="none" xmlns="http://www.w3.org/2000/svg">
<path d="M6.65912 10.2503L2.77751 6.35031L6.65912 2.45031C7.04728 2.06031 7.04728 1.44031 6.65912 1.05031C6.27096 0.660313 5.65388 0.660313 5.26572 1.05031L0.69737 5.64031C0.30921 6.03031 0.30921 6.66031 0.69737 7.05031L5.26572 11.6503C5.65388 12.0403 6.27096 12.0403 6.65912 11.6503C7.04728 11.2603 7.04728 10.6403 6.65912 10.2503ZM13.228 10.2503L17.1096 6.35031L13.228 2.45031C12.8398 2.06031 12.8398 1.44031 13.228 1.05031C13.6161 0.660313 14.2332 0.660313 14.6214 1.05031L19.1897 5.64031C19.5779 6.03031 19.5779 6.66031 19.1897 7.05031L14.6214 11.6503C14.2332 12.0403 13.6161 12.0403 13.228 11.6503C12.8398 11.2603 12.8398 10.6403 13.228 10.2503Z" fill="#006EB3"/>
</svg>
