<svg width="19" height="20" viewBox="0 0 19 20" fill="none" xmlns="http://www.w3.org/2000/svg">
<path d="M9.07996 6.15162L10.5494 4.68216C10.8526 4.37869 11.2126 4.13793 11.6089 3.97363C12.0051 3.80933 12.4299 3.72471 12.8589 3.72461C13.2879 3.72451 13.7126 3.80893 14.109 3.97304C14.5053 4.13716 14.8655 4.37776 15.1688 4.68109C15.4721 4.98442 15.7127 5.34454 15.8768 5.74089C16.0409 6.13723 16.1254 6.56202 16.1253 6.99099C16.1252 7.41997 16.0405 7.84472 15.8762 8.24099C15.7119 8.63725 15.4712 8.99726 15.1677 9.30045L13.0685 11.3997C12.7652 11.7029 12.4052 11.9435 12.009 12.1076C11.6128 12.2717 11.1882 12.3562 10.7593 12.3562C10.3305 12.3562 9.90584 12.2717 9.50964 12.1076C9.11344 11.9435 8.75344 11.7029 8.4502 11.3997" stroke="#006EB3" stroke-width="2" stroke-linecap="round" stroke-linejoin="round"/>
<path d="M9.91981 14.5488L8.45036 16.0182C8.14717 16.3217 7.78716 16.5625 7.39089 16.7268C6.99463 16.8911 6.56987 16.9757 6.1409 16.9758C5.71192 16.9759 5.28713 16.8915 4.89079 16.7274C4.49445 16.5632 4.13432 16.3226 3.83099 16.0193C3.52766 15.716 3.28706 15.3559 3.12295 14.9595C2.95883 14.5632 2.87441 14.1384 2.87451 13.7094C2.87461 13.2804 2.95923 12.8557 3.12353 12.4594C3.28783 12.0631 3.52859 11.7031 3.83207 11.3999L5.93129 9.30072C6.23453 8.99748 6.59453 8.75693 6.99074 8.59282C7.38694 8.42871 7.81159 8.34424 8.24044 8.34424C8.66928 8.34424 9.09393 8.42871 9.49014 8.59282C9.88634 8.75693 10.2463 8.99748 10.5496 9.30072" stroke="#006EB3" stroke-width="2" stroke-linecap="round" stroke-linejoin="round"/>
</svg>
