<svg xmlns="http://www.w3.org/2000/svg" width="683" height="683" fill="none"><path fill="#fff" d="M118.667 144.8c-28.667 7.6-52 31.067-59.334 59.867-3.066 11.866-3.066 346.8 0 358.666 7.467 29.2 30.8 52.534 60 60 11.867 3.067 346.8 3.067 358.667 0 29.333-7.466 52.667-30.933 60-60.133 1.733-6.933 2-20.933 1.733-98.8l-.4-90.533-3.333-4.934c-1.867-2.8-5.733-6.666-8.533-8.666-4.667-3.2-6.534-3.6-15.6-3.6-9.334 0-10.8.4-16 4-3.067 2.133-7.067 6.666-8.8 9.866L484 376.4v83.867c0 59.2-.4 85.733-1.6 90-2 8.133-9.333 15.466-17.467 17.466-8.8 2.267-323.733 2.267-332.533 0-8.133-2-15.467-9.333-17.467-17.466-2.133-8.4-2.266-324.534-.133-332.267 2-7.2 6.667-13.067 12.8-16.133 4.8-2.4 10.267-2.534 99.867-3.2l94.666-.667 4.934-3.333c2.8-1.867 6.666-5.734 8.666-8.534 3.2-4.666 3.6-6.533 3.6-15.466s-.4-10.8-3.6-15.467c-2-2.8-5.866-6.667-8.666-8.533l-4.934-3.334-98-.266c-82.266-.267-99.333 0-105.466 1.733"/><path stroke="#fff" stroke-width="55" d="M322 170.205c114.532-5.503 157.5 9.171 164.668 17.195L511 214.913V384"/></svg>