<svg width="683" height="683" viewBox="0 0 683 683" fill="none" xmlns="http://www.w3.org/2000/svg">
    <path d="M118.667 144.8C90 152.4 66.6667 175.867 59.3333 204.667C56.2667 216.533 56.2667 551.467 59.3333 563.333C66.8 592.533 90.1333 615.867 119.333 623.333C131.2 626.4 466.133 626.4 478 623.333C507.333 615.867 530.667 592.4 538 563.2C539.733 556.267 540 542.267 539.733 464.4L539.333 373.867L536 368.933C534.133 366.133 530.267 362.267 527.467 360.267C522.8 357.067 520.933 356.667 511.867 356.667C502.533 356.667 501.067 357.067 495.867 360.667C492.8 362.8 488.8 367.333 487.067 370.533L484 376.4V460.267C484 519.467 483.6 546 482.4 550.267C480.4 558.4 473.067 565.733 464.933 567.733C456.133 570 141.2 570 132.4 567.733C124.267 565.733 116.933 558.4 114.933 550.267C112.8 541.867 112.667 225.733 114.8 218C116.8 210.8 121.467 204.933 127.6 201.867C132.4 199.467 137.867 199.333 227.467 198.667L322.133 198L327.067 194.667C329.867 192.8 333.733 188.933 335.733 186.133C338.933 181.467 339.333 179.6 339.333 170.667C339.333 161.733 338.933 159.867 335.733 155.2C333.733 152.4 329.867 148.533 327.067 146.667L322.133 143.333L224.133 143.067C141.867 142.8 124.8 143.067 118.667 144.8Z" fill="white"/>
    <path d="M322 170.205C436.532 164.702 479.5 179.376 486.668 187.4L511 214.913V384" stroke="white" stroke-width="55"/>
</svg>
