<svg width="42" height="42" viewBox="0 0 42 42" fill="none" xmlns="http://www.w3.org/2000/svg">
<rect width="42" height="42" rx="10" fill="#EF8435"/>
<g clip-path="url(#clip0_22_1980)">
<path d="M22.9701 23.6561C22.805 23.6963 22.6389 23.732 22.4719 23.7631C21.5654 23.9337 20.6347 23.9302 19.7295 23.7528C19.571 23.7219 19.3466 23.6674 19.0573 23.5902L18.1092 24.8224C15.7694 24.7472 14.88 23.1794 14.88 23.1794C14.88 19.699 16.4045 16.8774 16.4045 16.8774C17.9291 15.7111 19.3795 15.743 19.3795 15.743L19.7944 16.2834C19.8326 16.278 19.8711 16.2746 19.9097 16.2731C20.7005 16.1683 21.5019 16.1718 22.2917 16.2834L22.7467 15.743C22.7467 15.743 24.1982 15.7111 25.7217 16.8784C25.7217 16.8784 27.2473 19.699 27.2473 23.1794C27.2473 23.1794 26.3466 24.7462 24.0067 24.8224L22.9701 23.655V23.6561ZM19.0192 19.9708C18.4005 19.9708 17.9116 20.434 17.9116 21.0002C17.9116 21.5663 18.4108 22.0296 19.0192 22.0296C19.6369 22.0296 20.1258 21.5663 20.1258 21.0002C20.1361 20.434 19.6379 19.9708 19.0192 19.9708ZM22.9804 19.9708C22.3628 19.9708 21.8738 20.434 21.8738 21.0002C21.8738 21.5663 22.373 22.0296 22.9804 22.0296C23.5991 22.0296 24.088 21.5663 24.088 21.0002C24.088 20.434 23.5991 19.9708 22.9804 19.9708ZM30.2645 32.3237L25.1278 27.1766H28.2057V12.7649H13.7939V27.1766H25.1205L25.7073 29.2355H13.7939C13.2479 29.2355 12.7242 29.0186 12.3381 28.6325C11.952 28.2463 11.7351 27.7227 11.7351 27.1766V12.7649C11.7351 12.2188 11.952 11.6952 12.3381 11.3091C12.7242 10.923 13.2479 10.7061 13.7939 10.7061H28.2057C28.7517 10.7061 29.2754 10.923 29.6615 11.3091C30.0476 11.6952 30.2645 12.2188 30.2645 12.7649V32.3237Z" fill="white"/>
</g>
<defs>
<clipPath id="clip0_22_1980">
<rect width="24.7059" height="24.7059" fill="white" transform="translate(8.64697 8.64746)"/>
</clipPath>
</defs>
</svg>
