<svg xmlns="http://www.w3.org/2000/svg" width="42" height="42" fill="none"><rect width="42" height="42" fill="#EF8435" rx="10"/><g clip-path="url(#a)"><path fill="#fff" d="M22.97 23.656q-.247.06-.498.107a7.3 7.3 0 0 1-2.742-.01 11 11 0 0 1-.673-.163l-.948 1.232c-2.34-.075-3.229-1.643-3.229-1.643 0-3.48 1.524-6.302 1.524-6.302 1.525-1.166 2.976-1.134 2.976-1.134l.414.54a1 1 0 0 1 .116-.01 8.8 8.8 0 0 1 2.382.01l.455-.54s1.451-.032 2.975 1.135c0 0 1.525 2.821 1.525 6.301 0 0-.9 1.567-3.24 1.643zm-3.95-3.685c-.62 0-1.108.463-1.108 1.03 0 .565.499 1.029 1.107 1.029.618 0 1.107-.464 1.107-1.03.01-.566-.488-1.03-1.107-1.03m3.96 0c-.617 0-1.106.463-1.106 1.03 0 .565.499 1.029 1.106 1.029.62 0 1.108-.464 1.108-1.03s-.489-1.03-1.108-1.03m7.285 12.353-5.137-5.147h3.078V12.765H13.794v14.412H25.12l.586 2.058H13.794a2.06 2.06 0 0 1-2.059-2.058V12.765a2.06 2.06 0 0 1 2.059-2.059h14.412a2.06 2.06 0 0 1 2.059 2.059z"/></g><defs><clipPath id="a"><path fill="#fff" d="M8.647 8.647h24.706v24.706H8.647z"/></clipPath></defs></svg>