<?xml version="1.0" encoding="utf-8"?>
<!-- Uploaded to: SVG Repo, www.svgrepo.com, Generator: SVG Repo Mixer Tools -->
<svg width="800px" height="800px" viewBox="0 0 1024 1024" class="icon"  version="1.1" 
     xmlns="http://www.w3.org/2000/svg"><path d="M719.8 651.8m-10 0a10 10 0 1 0 20 0 10 10 0 1 0-20 0Z" fill="#FF7900" 
/><path d="M512.1 64H172v896h680V385.6L512.1 64z m278.8 324.3h-280v-265l280 265zM808 916H216V108h278.6l0.2 0.2v296.2h312.9l0.2 0.2V916z" fill="#FF7900" /><path d="M280.5 530h325.9v16H280.5z" fill="#FF7900" /><path d="M639.5 530h90.2v16h-90.2z" fill="#FF7900" /><path d="M403.5 641.8h277v16h-277z" fill="#FF7900" /><path d="M280.6 641.8h91.2v16h-91.2z" fill="#FF7900" /><path d="M279.9 753.7h326.5v16H279.9z" fill="#FF7900" /><path d="M655.8 753.7h73.9v16h-73.9z" fill="#FF7900" /></svg>
