<svg xmlns="http://www.w3.org/2000/svg" width="108" height="35" fill="none"><path fill="#EF8435" d="M15.131 9.758v4.997H.328V9.758zM3.717 33.743V8.025q0-2.607 1.015-4.325a6.5 6.5 0 0 1 2.81-2.577q1.78-.858 4.045-.858 1.53 0 2.795.234 1.281.235 1.905.421L15.1 5.917a8 8 0 0 0-.968-.234 6 6 0 0 0-1.155-.11q-1.469 0-2.046.688-.578.67-.578 1.89v25.592zm21.459.453q-2.295 0-4.091-.797-1.797-.811-2.842-2.389-1.03-1.593-1.03-3.966 0-1.998.733-3.357a5.94 5.94 0 0 1 1.999-2.186q1.264-.828 2.873-1.25a22 22 0 0 1 3.404-.593 86 86 0 0 0 3.373-.406q1.28-.203 1.858-.593t.578-1.155v-.094q0-1.484-.937-2.296-.921-.811-2.623-.812-1.796 0-2.858.797-1.062.78-1.405 1.967l-6.153-.5q.47-2.185 1.843-3.778 1.374-1.608 3.545-2.467 2.186-.875 5.059-.875 1.999 0 3.826.469 1.842.468 3.263 1.452a7.06 7.06 0 0 1 2.264 2.53q.828 1.53.828 3.669v16.177h-6.308v-3.326h-.188q-.577 1.124-1.546 1.983-.967.844-2.326 1.327-1.359.47-3.139.469m1.905-4.591q1.468 0 2.592-.578 1.125-.593 1.765-1.593.64-.999.64-2.264v-2.545q-.312.203-.859.375-.531.156-1.202.297-.672.125-1.343.234-.672.094-1.218.172-1.17.171-2.046.546t-1.358 1.015q-.485.624-.485 1.562 0 1.358.984 2.076 1 .703 2.53.703m36.72-13.007-6.09.375a3.15 3.15 0 0 0-.672-1.406q-.516-.64-1.359-1.015-.827-.39-1.983-.39-1.546 0-2.608.656-1.06.64-1.061 1.717 0 .86.687 1.453t2.357.952l4.342.874q3.498.72 5.215 2.311 1.718 1.593 1.718 4.185 0 2.358-1.39 4.138-1.374 1.78-3.779 2.78-2.39.983-5.512.983-4.763 0-7.589-1.983-2.81-1.998-3.295-5.434l6.543-.343q.297 1.452 1.437 2.217 1.14.75 2.92.75 1.748 0 2.81-.672 1.078-.687 1.093-1.764-.015-.906-.765-1.484-.75-.593-2.31-.905l-4.154-.828q-3.514-.702-5.232-2.436-1.702-1.733-1.702-4.419 0-2.31 1.25-3.982 1.264-1.67 3.544-2.576 2.295-.906 5.372-.906 4.544 0 7.152 1.92 2.624 1.922 3.06 5.232m17.492-6.84v4.997H66.85V9.758zM70.128 4.012h6.653v22.36q0 .923.28 1.437.282.5.781.703.516.203 1.187.203.468 0 .937-.078.469-.095.718-.14l1.047 4.95q-.5.155-1.406.358-.906.218-2.202.266-2.404.093-4.216-.64-1.796-.735-2.795-2.28-.999-1.546-.984-3.904zm22.15 15.865v13.866h-6.651V9.758h6.34v4.232h.28a6.7 6.7 0 0 1 2.67-3.31q1.874-1.234 4.545-1.234 2.498 0 4.356 1.093 1.859 1.093 2.889 3.123 1.03 2.014 1.031 4.81v15.27h-6.652V19.659q.015-2.201-1.125-3.435-1.14-1.25-3.138-1.25-1.344 0-2.374.579-1.015.578-1.593 1.686-.561 1.093-.577 2.639"/></svg>