<svg width="108" height="35" viewBox="0 0 108 35" fill="none" xmlns="http://www.w3.org/2000/svg">
<path d="M15.1314 9.75848V14.7552H0.328125V9.75848H15.1314ZM3.71663 33.7429V8.02524C3.71663 6.28677 4.05497 4.845 4.73163 3.69991C5.4187 2.55482 6.35561 1.69601 7.54238 1.12346C8.72914 0.550921 10.0773 0.264648 11.5867 0.264648C12.6069 0.264648 13.5386 0.342723 14.3819 0.498873C15.2355 0.655021 15.8705 0.795563 16.2869 0.920479L15.1002 5.91723C14.8399 5.83396 14.5172 5.75587 14.132 5.68301C13.7573 5.61014 13.3721 5.5737 12.9765 5.5737C11.9979 5.5737 11.3161 5.80272 10.9309 6.26075C10.5457 6.70838 10.3531 7.33818 10.3531 8.15015V33.7429H3.71663ZM25.176 34.1958C23.6457 34.1958 22.2818 33.9303 21.0847 33.3994C19.8875 32.858 18.9403 32.0617 18.2428 31.0103C17.5557 29.9485 17.2121 28.6265 17.2121 27.0442C17.2121 25.7117 17.4568 24.5926 17.9461 23.687C18.4353 22.7812 19.1015 22.0525 19.9449 21.5009C20.788 20.949 21.7457 20.5328 22.8179 20.2517C23.9008 19.9707 25.0354 19.7728 26.2221 19.6583C27.6172 19.5126 28.7414 19.3772 29.595 19.2523C30.4486 19.1169 31.0681 18.9192 31.4532 18.6589C31.8384 18.3987 32.0311 18.0136 32.0311 17.5035V17.4097C32.0311 16.4208 31.7187 15.6557 31.0941 15.1144C30.48 14.5731 29.6055 14.3024 28.4708 14.3024C27.2736 14.3024 26.3211 14.5679 25.6131 15.0988C24.9053 15.6192 24.4369 16.2751 24.2078 17.0662L18.0553 16.5666C18.3677 15.1092 18.9819 13.8496 19.898 12.7878C20.8141 11.7155 21.9956 10.8932 23.4427 10.3206C24.9 9.73767 26.5866 9.44619 28.5019 9.44619C29.8345 9.44619 31.1097 9.60233 32.3277 9.91463C33.556 10.2269 34.644 10.711 35.5912 11.3668C36.5491 12.0226 37.3038 12.8658 37.8555 13.8964C38.4073 14.9166 38.6831 16.1398 38.6831 17.566V33.7429H32.3746V30.417H32.1872C31.8021 31.1665 31.2867 31.8274 30.6412 32.3999C29.9959 32.9622 29.2203 33.4045 28.3145 33.7273C27.4088 34.0395 26.3627 34.1958 25.176 34.1958ZM27.0811 29.605C28.0595 29.605 28.9235 29.4124 29.6731 29.0271C30.4226 28.6316 31.0108 28.1008 31.4377 27.4345C31.8644 26.7683 32.0778 26.0135 32.0778 25.1703V22.6251C31.8697 22.7605 31.5833 22.8854 31.2191 22.9999C30.8651 23.104 30.4642 23.2029 30.0166 23.2966C29.569 23.3797 29.1214 23.458 28.6738 23.5307C28.2262 23.5932 27.8202 23.6505 27.4558 23.7026C26.6751 23.8171 25.9931 23.9992 25.4101 24.2491C24.8271 24.4988 24.3744 24.8372 24.0515 25.2641C23.7289 25.6804 23.5675 26.2009 23.5675 26.8255C23.5675 27.7313 23.8954 28.4235 24.5514 28.9024C25.2175 29.3707 26.0607 29.605 27.0811 29.605ZM63.8002 16.5978L57.7104 16.9725C57.6063 16.452 57.3824 15.9836 57.0389 15.5672C56.6953 15.1404 56.2424 14.8021 55.6803 14.5522C55.1286 14.292 54.4676 14.1619 53.6971 14.1619C52.6665 14.1619 51.7973 14.3805 51.0894 14.8177C50.3816 15.2445 50.0276 15.817 50.0276 16.5353C50.0276 17.1079 50.2566 17.592 50.7147 17.9876C51.1727 18.3831 51.9588 18.7006 53.0725 18.9401L57.4137 19.8144C59.7456 20.2933 61.4839 21.0636 62.6291 22.1255C63.7742 23.1872 64.3467 24.5822 64.3467 26.3103C64.3467 27.8821 63.8836 29.2615 62.957 30.4482C62.0409 31.6348 60.7813 32.5613 59.1781 33.2277C57.5854 33.8834 55.7481 34.2114 53.666 34.2114C50.4908 34.2114 47.9613 33.5503 46.077 32.2283C44.2031 30.8957 43.1049 29.0845 42.7822 26.7943L49.325 26.4508C49.5227 27.4189 50.0016 28.158 50.7616 28.668C51.5214 29.1677 52.4949 29.4176 53.6816 29.4176C54.8476 29.4176 55.7844 29.1937 56.4923 28.7461C57.2107 28.2881 57.575 27.6999 57.5854 26.9817C57.575 26.3779 57.3199 25.8834 56.8203 25.4983C56.3207 25.1027 55.5502 24.8008 54.5092 24.5926L50.3556 23.765C48.0133 23.2966 46.2696 22.4846 45.1245 21.329C43.9896 20.1735 43.4224 18.7006 43.4224 16.9101C43.4224 15.3694 43.8388 14.0422 44.6716 12.9283C45.5147 11.8144 46.6963 10.9556 48.2163 10.3518C49.7466 9.74807 51.5372 9.44619 53.5879 9.44619C56.6173 9.44619 59.0011 10.0864 60.7397 11.3668C62.4885 12.6472 63.5089 14.3909 63.8002 16.5978ZM81.2932 9.75848V14.7552H66.8492V9.75848H81.2932ZM70.1284 4.01222H76.7805V26.3727C76.7805 26.9869 76.8742 27.4658 77.0616 27.8093C77.2489 28.1424 77.5092 28.3765 77.8423 28.5119C78.1858 28.6472 78.5814 28.7149 79.029 28.7149C79.3414 28.7149 79.6536 28.6889 79.966 28.6369C80.2784 28.5744 80.5177 28.5275 80.6842 28.4964L81.7306 33.4463C81.3975 33.5503 80.929 33.67 80.3251 33.8054C79.7214 33.951 78.9874 34.0395 78.1234 34.0709C76.5202 34.1333 75.1149 33.9199 73.9073 33.4305C72.7102 32.9413 71.7785 32.1814 71.1121 31.1508C70.4459 30.1202 70.118 28.819 70.1284 27.247V4.01222ZM92.2787 19.8769V33.7429H85.6266V9.75848H91.9663V13.9901H92.2474C92.7783 12.5952 93.6684 11.4917 94.9176 10.6798C96.1668 9.85738 97.6814 9.44619 99.4616 9.44619C101.127 9.44619 102.579 9.81053 103.818 10.5392C105.057 11.2679 106.02 12.3089 106.707 13.6622C107.394 15.0051 107.738 16.6082 107.738 18.4716V33.7429H101.086V19.6583C101.096 18.1906 100.721 17.0454 99.9614 16.223C99.2014 15.3902 98.1553 14.9738 96.8227 14.9738C95.9273 14.9738 95.1362 15.1664 94.4491 15.5516C93.7725 15.9368 93.2415 16.4989 92.8564 17.238C92.4817 17.9667 92.2891 18.8463 92.2787 19.8769Z" fill="#EF8435"/>
</svg>
