<svg width="60" height="20" viewBox="0 0 60 20" fill="none" xmlns="http://www.w3.org/2000/svg">
    <path d="M8.48864 5.90909V8.63636H0.409091V5.90909H8.48864ZM2.25852 19V4.96307C2.25852 4.0142 2.44318 3.22727 2.8125 2.60227C3.1875 1.97727 3.69886 1.50852 4.34659 1.19602C4.99432 0.883522 5.73011 0.727272 6.55398 0.727272C7.1108 0.727272 7.61932 0.769886 8.07955 0.855114C8.54545 0.940341 8.89205 1.01705 9.11932 1.08523L8.47159 3.8125C8.32955 3.76705 8.15341 3.72443 7.94318 3.68466C7.73864 3.64489 7.52841 3.625 7.3125 3.625C6.77841 3.625 6.40625 3.75 6.19602 4C5.9858 4.24432 5.88068 4.58807 5.88068 5.03125V19H2.25852ZM13.9709 19.2472C13.1357 19.2472 12.3913 19.1023 11.7379 18.8125C11.0845 18.517 10.5675 18.0824 10.1868 17.5085C9.81179 16.929 9.62429 16.2074 9.62429 15.3438C9.62429 14.6165 9.75781 14.0057 10.0249 13.5114C10.2919 13.017 10.6555 12.6193 11.1158 12.3182C11.576 12.017 12.0987 11.7898 12.6839 11.6364C13.2749 11.483 13.8942 11.375 14.5419 11.3125C15.3033 11.233 15.9169 11.1591 16.3828 11.0909C16.8487 11.017 17.1868 10.9091 17.397 10.767C17.6072 10.625 17.7124 10.4148 17.7124 10.1364V10.0852C17.7124 9.54545 17.5419 9.12784 17.201 8.83239C16.8658 8.53693 16.3885 8.3892 15.7692 8.3892C15.1158 8.3892 14.5959 8.53409 14.2095 8.82386C13.8232 9.10795 13.5675 9.46591 13.4425 9.89773L10.0845 9.625C10.255 8.82955 10.5902 8.14205 11.0902 7.5625C11.5902 6.97727 12.2351 6.52841 13.0249 6.21591C13.8203 5.89773 14.7408 5.73864 15.7862 5.73864C16.5135 5.73864 17.2095 5.82386 17.8743 5.99432C18.5447 6.16477 19.1385 6.42898 19.6555 6.78693C20.1783 7.14489 20.5902 7.60511 20.8913 8.16761C21.1925 8.72443 21.343 9.39205 21.343 10.1705V19H17.8999V17.1847H17.7976C17.5874 17.5938 17.3061 17.9545 16.9538 18.267C16.6016 18.5739 16.1783 18.8153 15.6839 18.9915C15.1896 19.1619 14.6186 19.2472 13.9709 19.2472ZM15.0107 16.7415C15.5447 16.7415 16.0163 16.6364 16.4254 16.4261C16.8345 16.2102 17.1555 15.9205 17.3885 15.5568C17.6214 15.1932 17.7379 14.7812 17.7379 14.321V12.9318C17.6243 13.0057 17.468 13.0739 17.2692 13.1364C17.076 13.1932 16.8572 13.2472 16.6129 13.2983C16.3686 13.3437 16.1243 13.3864 15.88 13.4261C15.6357 13.4602 15.4141 13.4915 15.2152 13.5199C14.7891 13.5824 14.4169 13.6818 14.0987 13.8182C13.7805 13.9545 13.5334 14.1392 13.3572 14.3722C13.1811 14.5994 13.093 14.8835 13.093 15.2244C13.093 15.7188 13.272 16.0966 13.63 16.358C13.9936 16.6136 14.4538 16.7415 15.0107 16.7415ZM35.0518 9.64205L31.728 9.84659C31.6712 9.5625 31.549 9.30682 31.3615 9.07955C31.174 8.84659 30.9268 8.66193 30.62 8.52557C30.3189 8.38352 29.9581 8.3125 29.5376 8.3125C28.9751 8.3125 28.5007 8.43182 28.1143 8.67045C27.728 8.90341 27.5348 9.21591 27.5348 9.60795C27.5348 9.92045 27.6598 10.1847 27.9098 10.4006C28.1598 10.6165 28.5888 10.7898 29.1967 10.9205L31.5661 11.3977C32.8388 11.6591 33.7876 12.0795 34.4126 12.6591C35.0376 13.2386 35.3501 14 35.3501 14.9432C35.3501 15.8011 35.0973 16.554 34.5916 17.2017C34.0916 17.8494 33.4041 18.3551 32.5291 18.7188C31.6598 19.0767 30.657 19.2557 29.5206 19.2557C27.7876 19.2557 26.407 18.8949 25.3786 18.1733C24.3558 17.446 23.7564 16.4574 23.5803 15.2074L27.1513 15.0199C27.2592 15.5483 27.5206 15.9517 27.9354 16.2301C28.3501 16.5028 28.8814 16.6392 29.5291 16.6392C30.1655 16.6392 30.6768 16.517 31.0632 16.2727C31.4553 16.0227 31.6541 15.7017 31.6598 15.3097C31.6541 14.9801 31.5149 14.7102 31.2422 14.5C30.9695 14.2841 30.549 14.1193 29.9808 14.0057L27.7138 13.554C26.4354 13.2983 25.4837 12.8551 24.8587 12.2244C24.2393 11.5937 23.9297 10.7898 23.9297 9.8125C23.9297 8.97159 24.157 8.24716 24.6115 7.6392C25.0717 7.03125 25.7166 6.5625 26.5462 6.23295C27.3814 5.90341 28.3587 5.73864 29.478 5.73864C31.1314 5.73864 32.4325 6.08807 33.3814 6.78693C34.3359 7.4858 34.8928 8.4375 35.0518 9.64205ZM44.5994 5.90909V8.63636H36.7159V5.90909H44.5994ZM38.5057 2.77273H42.1364V14.9773C42.1364 15.3125 42.1875 15.5739 42.2898 15.7614C42.392 15.9432 42.5341 16.071 42.7159 16.1449C42.9034 16.2187 43.1193 16.2557 43.3636 16.2557C43.5341 16.2557 43.7045 16.2415 43.875 16.2131C44.0455 16.179 44.1761 16.1534 44.267 16.1364L44.8381 18.8381C44.6563 18.8949 44.4006 18.9602 44.071 19.0341C43.7415 19.1136 43.3409 19.1619 42.8693 19.179C41.9943 19.2131 41.2273 19.0966 40.5682 18.8295C39.9148 18.5625 39.4063 18.1477 39.0426 17.5852C38.679 17.0227 38.5 16.3125 38.5057 15.4545V2.77273ZM50.5952 11.4318V19H46.9645V5.90909H50.4247V8.21875H50.5781C50.8679 7.45739 51.3537 6.85511 52.0355 6.41193C52.7173 5.96307 53.544 5.73864 54.5156 5.73864C55.4247 5.73864 56.2173 5.9375 56.8935 6.33523C57.5696 6.73295 58.0952 7.30114 58.4702 8.03977C58.8452 8.77273 59.0327 9.64773 59.0327 10.6648V19H55.402V11.3125C55.4077 10.5114 55.2031 9.88636 54.7884 9.4375C54.3736 8.98295 53.8026 8.75568 53.0753 8.75568C52.5866 8.75568 52.1548 8.8608 51.7798 9.07102C51.4105 9.28125 51.1207 9.58807 50.9105 9.99148C50.706 10.3892 50.6009 10.8693 50.5952 11.4318Z" fill="#ff7200"/>
</svg>
