<svg width="123" height="40" viewBox="0 0 123 40" fill="none" xmlns="http://www.w3.org/2000/svg">
<path d="M22.1314 12.7585V17.7552H7.32812V12.7585H22.1314ZM10.7166 36.7429V11.0252C10.7166 9.28677 11.055 7.845 11.7316 6.69991C12.4187 5.55482 13.3556 4.69601 14.5424 4.12346C15.7291 3.55092 17.0773 3.26465 18.5867 3.26465C19.6069 3.26465 20.5386 3.34272 21.3819 3.49887C22.2355 3.65502 22.8705 3.79556 23.2869 3.92048L22.1002 8.91723C21.8399 8.83396 21.5172 8.75587 21.132 8.68301C20.7573 8.61014 20.3721 8.5737 19.9765 8.5737C18.9979 8.5737 18.3161 8.80272 17.9309 9.26075C17.5457 9.70838 17.3531 10.3382 17.3531 11.1502V36.7429H10.7166ZM32.176 37.1958C30.6457 37.1958 29.2818 36.9303 28.0847 36.3994C26.8875 35.858 25.9403 35.0617 25.2428 34.0103C24.5557 32.9485 24.2121 31.6265 24.2121 30.0442C24.2121 28.7117 24.4568 27.5926 24.9461 26.687C25.4353 25.7812 26.1015 25.0525 26.9449 24.5009C27.788 23.949 28.7457 23.5328 29.8179 23.2517C30.9008 22.9707 32.0354 22.7728 33.2221 22.6583C34.6172 22.5126 35.7414 22.3772 36.595 22.2523C37.4486 22.1169 38.0681 21.9192 38.4532 21.6589C38.8384 21.3987 39.0311 21.0136 39.0311 20.5035V20.4097C39.0311 19.4208 38.7187 18.6557 38.0941 18.1144C37.48 17.5731 36.6055 17.3024 35.4708 17.3024C34.2736 17.3024 33.3211 17.5679 32.6131 18.0988C31.9053 18.6192 31.4369 19.2751 31.2078 20.0662L25.0553 19.5666C25.3677 18.1092 25.9819 16.8496 26.898 15.7878C27.8141 14.7155 28.9956 13.8932 30.4427 13.3206C31.9 12.7377 33.5866 12.4462 35.5019 12.4462C36.8345 12.4462 38.1097 12.6023 39.3277 12.9146C40.556 13.2269 41.644 13.711 42.5912 14.3668C43.5491 15.0226 44.3038 15.8658 44.8555 16.8964C45.4073 17.9166 45.6831 19.1398 45.6831 20.566V36.7429H39.3746V33.417H39.1872C38.8021 34.1665 38.2867 34.8274 37.6412 35.3999C36.9959 35.9622 36.2203 36.4045 35.3145 36.7273C34.4088 37.0395 33.3627 37.1958 32.176 37.1958ZM34.0811 32.605C35.0595 32.605 35.9235 32.4124 36.6731 32.0271C37.4226 31.6316 38.0108 31.1008 38.4377 30.4345C38.8644 29.7683 39.0778 29.0135 39.0778 28.1703V25.6251C38.8697 25.7605 38.5833 25.8854 38.2191 25.9999C37.8651 26.104 37.4642 26.2029 37.0166 26.2966C36.569 26.3797 36.1214 26.458 35.6738 26.5307C35.2262 26.5932 34.8202 26.6505 34.4558 26.7026C33.6751 26.8171 32.9931 26.9992 32.4101 27.2491C31.8271 27.4988 31.3744 27.8372 31.0515 28.2641C30.7289 28.6804 30.5675 29.2009 30.5675 29.8255C30.5675 30.7313 30.8954 31.4235 31.5514 31.9024C32.2175 32.3707 33.0607 32.605 34.0811 32.605ZM70.8002 19.5978L64.7104 19.9725C64.6063 19.452 64.3824 18.9836 64.0389 18.5672C63.6953 18.1404 63.2424 17.8021 62.6803 17.5522C62.1286 17.292 61.4676 17.1619 60.6971 17.1619C59.6665 17.1619 58.7973 17.3805 58.0894 17.8177C57.3816 18.2445 57.0276 18.817 57.0276 19.5353C57.0276 20.1079 57.2566 20.592 57.7147 20.9876C58.1727 21.3831 58.9588 21.7006 60.0725 21.9401L64.4137 22.8144C66.7456 23.2933 68.4839 24.0636 69.6291 25.1255C70.7742 26.1872 71.3467 27.5822 71.3467 29.3103C71.3467 30.8821 70.8836 32.2615 69.957 33.4482C69.0409 34.6348 67.7813 35.5613 66.1781 36.2277C64.5854 36.8834 62.7481 37.2114 60.666 37.2114C57.4908 37.2114 54.9613 36.5503 53.077 35.2283C51.2031 33.8957 50.1049 32.0845 49.7822 29.7943L56.325 29.4508C56.5227 30.4189 57.0016 31.158 57.7616 31.668C58.5214 32.1677 59.4949 32.4176 60.6816 32.4176C61.8476 32.4176 62.7844 32.1937 63.4923 31.7461C64.2107 31.2881 64.575 30.6999 64.5854 29.9817C64.575 29.3779 64.3199 28.8834 63.8203 28.4983C63.3207 28.1027 62.5502 27.8008 61.5092 27.5926L57.3556 26.765C55.0133 26.2966 53.2696 25.4846 52.1245 24.329C50.9896 23.1735 50.4224 21.7006 50.4224 19.9101C50.4224 18.3694 50.8388 17.0422 51.6716 15.9283C52.5147 14.8144 53.6963 13.9556 55.2163 13.3518C56.7466 12.7481 58.5372 12.4462 60.5879 12.4462C63.6173 12.4462 66.0011 13.0864 67.7397 14.3668C69.4885 15.6472 70.5089 17.3909 70.8002 19.5978ZM88.2932 12.7585V17.7552H73.8492V12.7585H88.2932ZM77.1284 7.01222H83.7805V29.3727C83.7805 29.9869 83.8742 30.4658 84.0616 30.8093C84.2489 31.1424 84.5092 31.3765 84.8423 31.5119C85.1858 31.6472 85.5814 31.7149 86.029 31.7149C86.3414 31.7149 86.6536 31.6889 86.966 31.6369C87.2784 31.5744 87.5177 31.5275 87.6842 31.4964L88.7306 36.4463C88.3975 36.5503 87.929 36.67 87.3251 36.8054C86.7214 36.951 85.9874 37.0395 85.1234 37.0709C83.5202 37.1333 82.1149 36.9199 80.9073 36.4305C79.7102 35.9413 78.7785 35.1814 78.1121 34.1508C77.4459 33.1202 77.118 31.819 77.1284 30.247V7.01222ZM99.2787 22.8769V36.7429H92.6266V12.7585H98.9663V16.9901H99.2474C99.7783 15.5952 100.668 14.4917 101.918 13.6798C103.167 12.8574 104.681 12.4462 106.462 12.4462C108.127 12.4462 109.579 12.8105 110.818 13.5392C112.057 14.2679 113.02 15.3089 113.707 16.6622C114.394 18.0051 114.738 19.6082 114.738 21.4716V36.7429H108.086V22.6583C108.096 21.1906 107.721 20.0454 106.961 19.223C106.201 18.3902 105.155 17.9738 103.823 17.9738C102.927 17.9738 102.136 18.1664 101.449 18.5516C100.772 18.9368 100.242 19.4989 99.8564 20.238C99.4817 20.9667 99.2891 21.8463 99.2787 22.8769Z" fill="#EF8435"/>
</svg>
