<svg xmlns="http://www.w3.org/2000/svg" width="60" height="20" fill="none"><path fill="#ff7200" d="M8.489 5.91v2.726H.409V5.91zM2.259 19V4.963q0-1.424.554-2.36a3.56 3.56 0 0 1 1.534-1.407q.97-.468 2.207-.469.835 0 1.526.128.698.128 1.04.23l-.648 2.728a5 5 0 0 0-.529-.128 3.3 3.3 0 0 0-.63-.06q-.802 0-1.117.375-.315.366-.315 1.031V19zm11.712.247q-1.253 0-2.233-.434a3.6 3.6 0 0 1-1.551-1.304q-.563-.87-.563-2.165 0-1.09.4-1.833.402-.741 1.092-1.193.69-.451 1.568-.682.885-.23 1.858-.323 1.142-.12 1.84-.222.7-.111 1.015-.324t.315-.63v-.052q0-.81-.511-1.253-.502-.443-1.432-.443-.98 0-1.56.435a2 2 0 0 0-.766 1.074l-3.358-.273a4.56 4.56 0 0 1 1.005-2.062q.75-.879 1.935-1.347 1.193-.477 2.761-.477 1.091 0 2.088.255 1.006.255 1.782.793.783.537 1.235 1.38.453.835.452 2.004V19H17.9v-1.815h-.102q-.316.614-.844 1.082a3.9 3.9 0 0 1-1.27.724q-.741.255-1.713.256m1.04-2.506q.8 0 1.414-.315.614-.323.963-.87.35-.545.35-1.235v-1.39q-.17.112-.469.205-.29.086-.656.162-.366.069-.733.128l-.665.094a4.5 4.5 0 0 0-1.116.298 1.8 1.8 0 0 0-.742.554q-.264.34-.264.852 0 .742.537 1.134.546.383 1.38.383m20.04-7.099-3.323.205a1.7 1.7 0 0 0-.367-.767 1.95 1.95 0 0 0-.741-.554q-.452-.213-1.082-.213-.844 0-1.424.357-.58.35-.58.938 0 .468.376.793.375.324 1.287.52l2.37.477q1.907.391 2.846 1.261.937.87.937 2.284 0 1.287-.758 2.259-.75.97-2.063 1.517-1.305.537-3.008.537-2.6 0-4.142-1.083-1.535-1.09-1.799-2.966l3.571-.187q.163.793.784 1.21.622.41 1.594.41.955 0 1.534-.367.588-.375.597-.963-.009-.495-.418-.81-.41-.323-1.261-.494l-2.267-.452q-1.918-.384-2.855-1.33-.93-.945-.93-2.411 0-1.262.683-2.174.69-.912 1.934-1.406 1.253-.494 2.932-.494 2.48 0 3.903 1.048 1.433 1.048 1.67 2.855M44.6 5.909v2.727h-7.883V5.91zm-6.093-3.136h3.63v12.204q0 .503.154.784.153.273.426.384.28.11.648.11.255 0 .511-.042l.392-.077.571 2.702q-.272.085-.767.196-.494.12-1.202.145-1.313.052-2.3-.35a3.2 3.2 0 0 1-1.526-1.244q-.546-.844-.537-2.13zm12.09 8.659V19h-3.631V5.91h3.46v2.309h.153a3.65 3.65 0 0 1 1.457-1.807q1.023-.673 2.48-.673 1.364 0 2.379.596 1.014.597 1.576 1.705.563 1.1.563 2.625V19h-3.631v-7.687q.009-1.203-.614-1.876-.621-.681-1.713-.681-.732 0-1.295.315-.555.315-.87.92-.307.597-.315 1.44"/></svg>