<svg xmlns="http://www.w3.org/2000/svg" width="43" height="36" fill="none"><path fill="#F37B0C" d="M22.539 16.238q-.11-.19-.847-.751-.801-.618-.975-.488-.4.301-.858.687-.5.423-.784.706-.527.495-.95.9-.796.765-1.312 1.313a42 42 0 0 0-.91-.566q-.854-.524-.865-.543-.197.135-.824.757-.627.626-.627.686l1.88 1.616 1.56 1.383q.065.037.11.037.268-.358.819-1.017a44 44 0 0 1 1.67-1.86q.592-.622 1.938-1.866 1.01-.937.975-.994"/><path fill="#CCFBF1" fill-opacity=".4" d="m10.1 9.841-1.52 1.52-1.772-1.773-1.773 1.774-1.52-1.52 1.773-1.775-1.772-1.774 1.519-1.52 1.773 1.774L8.58 4.773l1.52 1.52-1.773 1.774z"/><path fill="#F37B0C" d="M8.58 4.773 6.808 6.547 5.035 4.773l-1.52 1.52 1.773 1.774-1.772 1.774 1.519 1.52 1.773-1.773 1.772 1.774 1.52-1.52-1.773-1.775L10.1 6.293z"/><path fill="#CCFBF1" fill-opacity=".4" d="m10.1 20.045-1.52 1.52-1.772-1.774-1.773 1.774-1.52-1.52 1.773-1.774-1.772-1.774 1.519-1.52 1.773 1.774 1.772-1.774 1.52 1.52-1.773 1.774z"/><path fill="#F37B0C" d="M8.58 14.977 6.808 16.75l-1.773-1.774-1.52 1.52 1.773 1.774-1.772 1.774 1.519 1.52 1.773-1.774 1.772 1.774 1.52-1.52-1.773-1.774 1.773-1.774z"/><path fill="#CCFBF1" fill-opacity=".4" d="m21.23 9.78-1.519 1.52-1.773-1.775-1.773 1.774-1.519-1.52 1.773-1.774-1.773-1.774 1.52-1.52 1.772 1.774 1.773-1.774 1.52 1.52-1.774 1.774z"/><path fill="#F37B0C" d="m19.711 4.71-1.773 1.775-1.773-1.774-1.519 1.52 1.773 1.774-1.773 1.774 1.52 1.52 1.772-1.774 1.773 1.774 1.52-1.52-1.774-1.774 1.773-1.774z"/><path fill="#CCFBF1" fill-opacity=".4" d="m32.421 9.78-1.52 1.52-1.772-1.775-1.773 1.774-1.519-1.52 1.773-1.774-1.773-1.774 1.52-1.52 1.772 1.774 1.773-1.774 1.52 1.52-1.774 1.774z"/><path fill="#F37B0C" d="m30.902 4.71-1.773 1.775-1.773-1.774-1.519 1.52 1.773 1.774-1.773 1.774 1.52 1.52 1.772-1.774 1.773 1.774 1.519-1.52-1.773-1.774 1.773-1.774zM4.632 33v-7.273h4.815v1.268H6.17v1.733h2.958v1.268H6.17V33zM11.886 33h-1.648l2.51-7.273h1.982L17.237 33H15.59l-1.822-5.61h-.057zm-.103-2.859h3.892v1.2h-3.892zM22.577 27.819a.9.9 0 0 0-.365-.668q-.323-.238-.878-.238-.375 0-.635.107a.9.9 0 0 0-.398.288.7.7 0 0 0-.135.419.6.6 0 0 0 .082.34.85.85 0 0 0 .252.253q.16.103.37.18.208.075.447.129l.653.156q.476.106.874.284.397.177.689.437.291.259.45.61.164.353.168.807-.004.667-.341 1.157-.335.487-.966.757-.63.266-1.517.266-.88 0-1.534-.27a2.25 2.25 0 0 1-1.015-.799q-.363-.532-.38-1.317h1.488q.024.366.21.61.187.242.5.366.315.12.714.12.39 0 .678-.113a1.04 1.04 0 0 0 .45-.316.73.73 0 0 0 .16-.465q0-.244-.145-.412a1.1 1.1 0 0 0-.419-.284 4 4 0 0 0-.671-.213l-.792-.199q-.92-.224-1.452-.7-.533-.475-.53-1.282-.003-.66.352-1.154.36-.493.984-.77.625-.277 1.42-.277.81 0 1.414.277.607.276.944.77.338.494.348 1.144zM25.355 26.995v-1.268h5.973v1.268h-2.226V33h-1.52v-6.005zM38.715 25.727V33h-1.328l-3.164-4.577h-.053V33h-1.538v-7.273h1.35l3.139 4.574h.064v-4.574z"/></svg>