<svg xmlns="http://www.w3.org/2000/svg" width="629" height="540" fill="none"><ellipse cx="314.5" cy="270" fill="url(#a)" rx="314.5" ry="270"/><ellipse cx="382.5" cy="320.5" fill="#000" rx="37.5" ry="33.5"/><path fill="#E6CAB9" d="M284 287h61v86h-61z"/><ellipse cx="319.5" cy="177" fill="#000" rx="160.5" ry="143"/><path fill="#F1D3C0" fill-rule="evenodd" d="M316 329.5c38.5 0 128-83.897 128-151-14.735 16.027-55.129-12.182-92.578-38.335C316.436 115.732 284.02 93.095 277.5 110c-10.8 28-64.167 57.333-89.5 68.5 0 67.103 89.5 151 128 151" clip-rule="evenodd"/><path fill="#000" d="M316 57c-70.692 0-128 54.397-128 121.5 25.333-11.167 78.7-40.5 89.5-68.5 6.52-16.905 38.936 5.732 73.922 30.165 37.449 26.153 77.843 54.362 92.578 38.335C444 111.397 386.692 57 316 57"/><path fill="#E5CAB9" d="M520 449.5c0 52.743-91.558 49-204.5 49s-204.5 3.743-204.5-49S202.558 354 315.5 354 520 396.757 520 449.5"/><path fill="#E4498A" d="M429.5 373c-55 59-160.5 62-224.5 0-26.5 0-26.5 0-44 18 30 26.4 44 101 44 101l116.5 13 108-13c0-37.5 13.153-66.446 39.5-101-28.5-18-9-7-39.5-18"/><ellipse cx="382.5" cy="369.5" fill="#000" rx="37.5" ry="33.5"/><path fill="#000" d="M415 414.5c0 18.502-37.5 22.5-37.5 51 0 20.711-37.5-32.498-37.5-51s16.789-33.5 37.5-33.5 37.5 14.998 37.5 33.5"/><defs><radialGradient id="a" cx="0" cy="0" r="1" gradientTransform="rotate(91.112 163 159.866)scale(566.607 659.992)" gradientUnits="userSpaceOnUse"><stop stop-color="#CACACA"/><stop offset=".568" stop-color="#CACACA" stop-opacity="0"/><stop offset="1" stop-color="#F5F5F5"/></radialGradient></defs></svg>