<svg xmlns="http://www.w3.org/2000/svg" viewBox="0 0 500 600"><path d="M244.5,144.7c-4.5,8.2,1.1,14.3,6.2,20.5,8.7,13.7.9,9.6,12.6-2.5,3.1-4.3,10.2-7.6,10-13.5-.3-.8-.7-5.2-2-3.9,1.5,2.7,2.3,6.8-.7,9-5.5,5.6-11.7,11-15,18.4l-.6-1.3h0c-4.6-11.1-14.8-14.2-10.5-26.7Z"/><path d="M271.7,146.6c11.2,10.4,5.4,16.2.2,28.4-3.1-4.1-5.7-9-9-12.8-.6-.9-1.2,0-.6.6l.5.6h0c2.7,1.8,7.4,14.4,10,11.7,4.8-10.1,11-20.6-1.1-28.5Zm.2,28.6Z"/><path d="M243.9,144.9c-2.7,4.7-7.4,8.9-9.6,13.5a3,3,0,0,1,.4.8h0c2.9,4.8,5.3,10.9,8.9,14.7,1.6-2.2,2.3-4.7,4.6-6.5.3-.5,4-2.9,2-2.9-2.7,2.4-5.3,4.9-6.8,8.5h0c-9-13.8-10-14.7.8-27.6h.1a.3.3,0,1,0-.4-.3Z"/><path d="M234.9,157.6c-30.5,7.5-45.1,22.6-43.1,55.5.6-32.2,12-46.3,43-55a5.1,5.1,0,0,0-.2,1.3c.2-.3.1-.6.2-.9h0c-.1-.2.4-1.1.1-.9Zm-.1.1Z"/><path d="M209.5,185.5c-.2,1.7,0,2.9-.1,4.3h.5c-.2-.6.5-4.6-.4-4.3Z"/><path d="M304.5,181.4c.5,5.7-2.1,11.3-2.5,16.4,1.9-4.3,4.3-13.3,2.5-16.4Z"/><path d="M308.9,198.5l-.6.3a3,3,0,0,1,1.2,1.5c.4-.7.6-2.1-.6-1.8Z"/><path d="M296.4,266.5c-1.7,8.9,0,18.1-.5,27,.2.8-.5,2.4.5,2.6.2-10.3-.1-20.6.3-30.9l-.3,1.3Z"/><path d="M280.3,157.6c6,12,29.5,11,36.4,24.9-2.6-13-31-15.5-36.4-24.9Z"/><path d="M191.8,304c0,.1.1.2.1.3l.3-.6-.4.3Z"/><path d="M215,290.7h0l.7.2c.2-.7-.2-.9-.7-.3Z"/><polygon points="215 290.8 215 290.8 215 290.8 215 290.8 215 290.8"/><polygon points="215 290.8 215 290.8 215 290.8 215 290.8 215 290.8 215 290.8"/><path d="M295.9,293.5h-.7c-.3,1.8,2.2.6.7,0Z"/><path d="M292.2,294.3c-.3.2.2.4.4.3a.4.4,0,0,1-.1-.3Z"/><polygon points="215 290.8 215 290.8 215 290.8 215 290.8 215 290.8 215 290.8"/><path d="M214.5,291.3c-1.4,2.3-.5,5.7-.4,8.4v-.2a1.3,1.3,0,0,0,.1.6c1.9,5.6-.4-7.8.8-9.3-.2.2-.4.3-.5.5Z"/><path d="M295.7,294.3c-.6,1.5.5,3.8.4,5.6s.3-5.2-.4-5.6Z"/><path d="M214.7,300.8c-.1.1.1.3.2.2s-.1-.4-.2-.2Z"/><path d="M295.6,299.9c-14.1,6.2-29.9,5.5-44.6,6.9,14.9-.6,31.1.4,44.9-6.1.6-.2.3-1.2-.3-.8Z"/><path d="M214.8,300.5c-.8.5.4.9.8,1h0c9.6,2.4,19.6,3.6,29.3,5-8.7-3.5-20.7-2.7-30.1-6Z"/><path d="M287.2,358.9h0c-.4,2.1,1,2.9,0-.1Z"/><path d="M287.5,360.7c.3.5,1.2,1.5,1.8,1.1a3.4,3.4,0,0,1-1.8-1.5c0,.1-.1.3,0,.4Z"/><path d="M288.1,371.1h0c-1.6.4-1.2,1.6-.4,2.6a4.5,4.5,0,0,1,.5-2.6Zm-.5,1Z"/><path d="M203.9,357.2c8,58.4-3.3,119.8,9.9,177.1h0c5.4,7.6,27.7,1.4,27.9-5.8-36.5,29.8-31.7-25.4-32.5-48-1.8-41.8,1.3-83.8-5.3-125.4v2.1Z"/><path d="M251.2,361.4c-5.2,54-8,112.1-8.1,166.8h.4c.5-52.2,4.8-105.1,7.2-157.4v.2c9.7-38.5,17.2,145.1,10.4,156.5.6,2.9,3.2,4.8,5.8,6.1,4.5,2.5,9.1,3.5,14.2,4.2H281c4.4.8,6.8-.4,8.9-4.2,1.6-50.8,6.5-102.4,10.5-153.4-6.1,42.3-8,88.2-10.7,131.8,3.1,23.7-2.1,31.9-24.7,19.3h0c-1.6-1.3-3.5-3.5-2.1-5.6,5.4-31.8.6-64.6-.4-96.8-3-17.3,3-57.7-11.3-67.4Zm-.5,12.8h0Zm-7.7,143h0Z"/><path d="M295.6,299.6c-.3.3.3.7.5,1,3.3,7.1,6.8,15.1,6.8,23.1,2.2-8.1-2.3-18.4-7.3-24.1Zm5.9,13.5c-.1-.4-.3-.8-.4-1.2l.6,1.7c-.1-.2-.1-.4-.2-.5Z"/><path d="M253.9,306.7c-.3.1-.8-.1-1,.1h0c.7,12,.4,24.5.9,36.7,0,1.4.8,2.3.9.2.6-3.9.5-5.9-.2-.4h0c-.1-12-.2-24.1-.4-36.1h0c0-.2,0-.5-.2-.5Z"/><path d="M236.7,532.8c-.5.2,0,.8.1,1.1,1,6.1,2.3,12.1,3,18,.9-1,.6,0,.1.5h0l.3,1c1.4-2.8-1.2-7.1-1.1-10.5-.5-1.8-.8-9.8-2.4-10.1Z"/><path d="M223.3,540c-2,12.8.6,14.9.4-.1Z"/><path d="M239.7,591.7h0Z"/><path d="M266.2,533.1c.2,5.5-.9,10.7-1.4,16.1,1.8-2.8,1.5-8.2,1.9-12h0c-.3-1.5.7-3.9-.4-5a2.8,2.8,0,0,0-.1.9Z"/><path d="M265.5,549.3a8.5,8.5,0,0,1-.4,1.7h0c0,.2-.1.4-.1.6a4.6,4.6,0,0,0,.5-2.3Z"/><path d="M264.5,550.7c-.4.9-1.6,1.9-.2,2.6,4,2.2,15,2.7,15.8-2.6-.1.1-.1.1-.1.2-2.5,2.9-7.8,3.4-11.5,3.1h.1c-.9-.4-4.7-.9-4.2-2h0c.1-.6.1-1.1.2-1.6s-.1.2-.1.3Zm15.4.2Z"/><path d="M280,536.4c-.6.1-.7,1,0,.8.7,3.2,1.5,6.6,1.1,9.9h.9c-.1-3.2.2-8.8-2-10.8Z"/><path d="M279.2,549.6c-1.6,14.7,15.9,30.2,4.8,43.4,5-3.6,5.6-10.3,3.5-15.7h0c-3.8-8.7-5.9-19.4-8.3-27.7Z"/><path d="M279.1,596.2a14.2,14.2,0,0,1-7.9.7,12.9,12.9,0,0,0,8-.8Z"/><path d="M280.5,558.7Z"/><path d="M263.1,592.7a5.7,5.7,0,0,0,1.5,1.6,17.9,17.9,0,0,1-2-2.6,3.1,3.1,0,0,0,.5,1Z"/><path d="M262.9,552.7c.1,7.6-2.4,15.1-2.1,22.7.1-7.8,3.9-15.6,2.3-23.4a6.4,6.4,0,0,1-.2.7Z"/><path d="M280.5,558.8h0Z"/><polygon points="287.5 577.3 287.5 577.3 287.5 577.3 287.5 577.3"/><path d="M224.4,550.1h0c2.1,4.1,12.1,6.3,15.3,1.9-1.7.6-3.7,2.2-5.9,1.8h.1a14.1,14.1,0,0,1-4.1-.7h0c-2-.5-3.6-2.2-5.4-3Z"/><path d="M239.7,552.4l-.3.4h-.1c.1-.2.5-.3.6-.6Z"/><path d="M255.2,171.3c-1.3,8.7-.6,17.8-1.9,26.6,4-5.9,1.4-18.3,2.7-26.3h0c-.1-.4-.5-.6-.8-.3Z"/><path d="M251.6,274.8h-.1c.3,1.5-.6,18.3,1.5,15.4a109.6,109.6,0,0,1-.5-12.8h0c0-1-.1-1.9-.1-2.8Z"/><path d="M304.6,277.2Z"/><path d="M214.8,298.7c-1.4.3-1.5,1.4-1.7,2.5.2-.9,3.1-1.6,1.7-2.5Zm-.7.4h0Z"/><path d="M211.5,300.9v.4l.2-.5Z"/><path d="M205.2,333.5c2.5,8.2,11.1,13.3.1-.5,0,.2-.1.3-.1.5Z"/><path d="M272.1,147.3c-.3.7.9,1.3,1.2,2h0c2.6,3.1,4.3,6.8,6.2,10.3h0c1.2,1.5,2.9,3.3,5,3.3s-.6-1.1-1-1.5c-5.1-3.3-6.5-10.8-11.4-14Z" fill="#171717"/><path d="M242.4,524.6c-.2,1,.2,2.2-.2,3.2h0c-.2.4-1.4,1.9-.2,1.3-.7,1.5.6,1,.9,0h-.1c.8-1.4.3-2.7,0-4.1h0c.1-.3-.1-.8-.4-.5Z" fill="#171717"/><path d="M247.3,306.6h0Z" fill="#40627c"/><path d="M287,359.2c-.8.8-.1,1.7.9,2h0a2,2,0,0,1-.8-2.1Z" fill="#40627c"/><path d="M249.5,362.3c-6,39.6-10.6,79.1-11.8,119.1-.5,16.3-4.9,33.6,2.2,49a8.2,8.2,0,0,0,2.3-2.6h-.1c3-54.9,2.8-112.6,9.2-166.4a1.2,1.2,0,0,0-1.8.9Z" fill="#40627c"/><path d="M247.5,306.6h0Z" fill="#171717"/><path d="M239,129.4c-.5.2.1.2.3,0H239Z" fill="#171717"/><path d="M245,143.7a2.6,2.6,0,0,0-.7,1.6c.3.7,1.4-1.6.7-1.6Z" fill="#171717"/><path d="M244.7,143.9c-1,2.6.1,2.7.3.1,0-.2-.3-.3-.3-.1Zm.2.7Z" fill="#171717"/><path d="M271.1,144.6c-.2.6,1.1,1.5,1,2.4h0a.9.9,0,0,1,.1.5h0a3.9,3.9,0,0,1,.4,1.8h0v.7h0l-.3,1.5h0v.4h0c-.2,1-1.2,1.7-1.6,2.6,3-1.5,3.5-7.8.5-9.7Z" fill="#171717"/><path d="M244.3,145.3a3,3,0,0,0-.5,1.6,9.8,9.8,0,0,0,.5-1.6Z"/><path d="M245.1,143.5c-.5.7-2,3.2-.8,3.8.2-.9,1.6-3.4.8-3.8Z" fill="#171717"/><path d="M271.2,144.3c0,2,1.7,4.7.9,7.1s-.1,2.2.4.4.3-5.8-1.3-7.5Z" fill="#171717"/><path d="M244.8,144.2c-.1.2.2.3.3.4,3,2.5,5.6,5.7,9.1,7.4h0a5.2,5.2,0,0,0,3.8.7c-2.2-.8-5.7-1.5-7.7-3.8h0l-1.1-.9h0c-1.4-1-2.6-3.4-4.4-3.7Zm5,4.2Z" fill="#171717"/><path d="M271.2,144.6c-1.7.6-2.8,1.9-4,3.2h0a3.9,3.9,0,0,1-.8,1h0a13.4,13.4,0,0,1-2.1,2h0c-.5,1.1-9.7,1.7-7.3,2.1h0a35.7,35.7,0,0,0,5.7-1h0c3.2-1.1,6.7-5.6,8.5-7.1Zm-13.6,7.7Z" fill="#171717"/><path d="M245.1,144.6c-6.3,11.3,6.5,17.2,9.9,26.8a.5.5,0,0,1,1,.2c1.9-3,5.2-8.6,6.9-9.4,4.3-4.8,12-9.7,8.5-16.6-2.7-1.3-5.2,5.9-8.7,6.1h0c-2.8.5-5.8,1.8-8.5.2h0c-3.5-1.7-6.1-4.9-9.1-7.4Z" fill="#f3d4ca"/><path d="M263.1,160.6c-1,1.1-2.9,1.8-2.7,3.3s4.8-3.5,2.7-3.3Z" fill="#f3d4ca"/><path d="M271.1,145.1c-.6.2-.1.9-.1,1.3h0a12.5,12.5,0,0,1,.3,1.9h0c1.1,2.5-2.8,6.7-1.3,6.6a5.3,5.3,0,0,0,2.2-3.2v.2c.3-2.1.2-5.1-1.1-6.6Z" fill="#f3d4ca"/><path d="M245,145.2c-1.1,1-.9,7.6-.3,3.9h0c-.4-.7,1.4-4.7.3-4Zm0,1.5Z" fill="#f3d4ca"/><path d="M255,169.8a3.2,3.2,0,0,0,.3,2.3c.7.8,1.8-3.4.6-1.4-.2-.1-.4,0-.4.1s-.1-.9-.5-1Z" fill="#f3d4ca"/><path d="M287.2,359c-.9,1-.5,1.8.7,2.2h0l.5.2a2.8,2.8,0,0,1-1.2-2.5Z" fill="#171717"/><path d="M287.8,360.9c-.1.2.2.3.4.3l-.4-.5v.2Z" fill="#171717"/><path d="M223.4,537.2c-.7.1-.3,1-.5,1.5s1.5-1.2.5-1.5Z" fill="#171717"/><path d="M223.8,539.9c-2.8,2-.1,9-1.4,12.7,2.2-3.7,1.1-8.1,1.5-12.7Z" fill="#171717"/><path d="M223.3,553.3c-.1,0-.1.1-.2.2s.3-.4.4-.7-.2.3-.2.5Z" fill="#171717"/><path d="M223.6,549.7c.1,2.1,5.9,3.9.8.4-.2-.2-.5-.6-.8-.4Zm1.3.8Z" fill="#171717"/><path d="M266.4,533a.5.5,0,0,0-.4.2c-.5,2.1-.5,4.5-.9,6.6h0c-.1.9-.3,1.8-.4,2.8h0c-.9,7.4-2.9,14.7-3.7,22.1a.3.3,0,0,1,.1-.2c-3.6,12.8-3.9,40.7,16.2,32.3a18.2,18.2,0,0,1-5.2.3h.1c-20-1.3-8.7-33-7.8-45.1.5-3.4,1.3-6.6,1.5-10h0c.5-2.8.7-5.6,1-8.4a.5.5,0,0,0-.5-.6Zm-2,19.6h0Z" fill="#171717"/><path d="M280.2,537.5H280a108.9,108.9,0,0,0-1.7,15.8h.1c1.8,16.5,21.3,43.7-8.1,44.7a14.2,14.2,0,0,0,10.8-1.6h0c18.1-12-4.9-32.4-1-49.8-.5-1.7,2.3-9.7.1-9.2Zm.2,59.4h.1a.1.1,0,0,1-.1.1Zm0,0Z" fill="#171717"/><polygon points="281.2 596.5 281.2 596.5 281.2 596.5 281.2 596.5 281.2 596.5" fill="#171717"/><path d="M281.1,596.5Z" fill="#171717"/><polygon points="281.1 596.5 281.1 596.5 281.1 596.5 281.1 596.5 281.1 596.5" fill="#171717"/><polygon points="281.1 596.5 281.1 596.5 281.1 596.5 281.1 596.5 281.1 596.5 281.1 596.5" fill="#171717"/><path d="M279.3,597.5h0Z" fill="#171717"/><path d="M266.3,542.7c-3.5,8.9,6.4,6,12.2,7.8,2.5-8.1-7.2-5.3-12.1-8.4a1.3,1.3,0,0,0-.1.6Z" fill="#f3d4ca"/><path d="M238.3,543a44.2,44.2,0,0,1-14.5.8c-1.2,5.1,3.5,4.5,7.3,4.8h0a28,28,0,0,0,5-.3h0c3.9,0,2.5-2.5,2.2-5.3Z" fill="#f3d4ca"/><path d="M239.7,551.5l-.3.5c.1-.1.3,0,.4,0s-1.2.8-1.2,1.3,2.6-2.1,1.5-1.7l-.3.3v-.5a.1.1,0,0,0-.1.1Z" fill="#f3d4ca"/><path d="M243.7,527.3a.5.5,0,0,0-.2.9c13.1,17-25.6,21.9-29.7,9.7h0c-.9-1.4.9-7.3-1.3-3-.6,19.1,48.3,10.9,31.2-7.6Zm-30.5,11.8Z" fill="#171717"/><path d="M261.5,526.2c-13,12.2,4.8,18.3,15.3,20h0c4,.8,9,1.8,12.2-1.5h-.1c1.9-3.1,2.3-7.1,2.3-10.7v-1.5h0c-3.3-6.4,2.9,18-12.4,12.6h0a57,57,0,0,1-14-3.8h0c-7.4-2-9-8.6-3.6-14,.5-.3,1.5-1.6.3-1.3Zm29.7,5.7Zm-15,14.2Z" fill="#171717"/><path d="M289.8,533.5c-2,3.8-4.4,5-8.8,4.2.2,15.2,10.4,5.9,8.8-4.2Z" fill="#40627c"/><path d="M266.9,533.6a21.7,21.7,0,0,0-.2,3.6h0c-.1,15.8,30,3.5.2-3.6Z" fill="#40627c"/><path d="M261.1,527.5c-6.8,4.3-.4,17.1,4,12.3H265c2.6-6-1.7-7.5-3.9-12.3Z" fill="#40627c"/><path d="M261.9,531.7c-2.1.3-.3,2,.6,2.6s-.8.6-.8,1.2c-8,4,12.9,8.8,16,9.9s12.8-1,7.9-5.1c-.6-3.4-7.1-2.6-10.1-3.4h0c-4.7-.3-9.1-5.4-13.6-5.2Z" fill="#40627c"/><path d="M243.5,528.2c-.5,0-.5.5-.7.9h.1c-5.5,3.8-5.4,7.3-3.8,13.9,7.5-.7,8.5-9.6,4.4-14.7Z" fill="#40627c"/><path d="M236.8,533.9c-4.2,2.9-10.4,2.8-13.9,4.8,0-.3.1-.6.1-1-3.4.1-7.2-.3-9.2-3.4-.7,1.2-.3,2.4,0,3.6h0c1,4.9,4.5,5.4,8.9,5.9.3-1.4-.8-4.1,1.2-3.9-.2,8.9,20.2,4.6,12.9-6Z" fill="#40627c"/><path d="M238.3,532.9c-2.3,1.1-4,2.8-6.7,3.2h.3c-2.5,1.8-12.7.7-11.9,2.7a.8.8,0,0,0-.6,1.1,1.1,1.1,0,0,0-.5,2.1c-1.6,3.4,9.3,2.1,11.3,2.1h-.3a87.8,87.8,0,0,0,8.8-1h-.1c2.6.2,3.3-2.8,3.2-4.8a1.1,1.1,0,0,0-.8-2.1c-.5-1.2-1-3.2-2.7-3.2Zm-4.3,4.3h.4c-.1,3.2-3.5,1.9-5.9,1.7Zm-9.9,3.1h0Zm5.8,1.1a1.4,1.4,0,0,0-.1-.9l3.2.2c0,1.5-2.4.8-3.5,1.2l.4-.5Z" fill="#40627c"/><path d="M240,551.2c-.4.8-1.7,1.3-2.1,2s3.8-1.9,2.1-2Z" fill="#171717"/><path d="M264.3,553.3c-1.5,12-11.5,42.8,7.9,43.8l-1.2-.2c28.4,1.5,9-28.6,7.4-43.5-4.6,1.4-9.7,2.4-14.1-.1Z" fill="#565656"/><path d="M275.6,565.9a17.2,17.2,0,0,1-8.1.8h0c-2.6,1.5,7.9.8,8.6-.3h0c.4-.3-.2-.7-.5-.5Zm-.2.1Z" fill="#171717"/><path d="M276.7,567.8c-2.8,1.7-6.7,1.1-9.7,1.3.4,1.3,12.1.1,9.7-1.3Zm-.7.4Z" fill="#171717"/><path d="M278.6,570a13.1,13.1,0,0,1-5.1,1.5h.1a35.6,35.6,0,0,1-7.3-.1c-.1,1.9,14.4.6,12.3-1.4Z" fill="#171717"/><path d="M239.1,547.6a26.4,26.4,0,0,1-3,.7h0a28,28,0,0,1-5,.3h0c-9.7-1.8-9.9.6-1.3,4.5h0a14.1,14.1,0,0,0,4.1.7h-.1c3.6.6,8.1-2.8,5.3-6.2Z" fill="#40627c"/><path d="M265.7,548.6c-1.5-.1-1,2.3-1.3,3.4h0c-.5,1.1,3.3,1.6,4.2,2h-.1c18.2-.9,8.5-4.8-2.8-5.4Zm-.3,1.1c.4-.8-.1,1.5-.4,1.9s.1-.4.1-.6h0a3.1,3.1,0,0,0,.3-1.3Z" fill="#40627c"/><path d="M277.2,552c-1.5.6-3.1.9-4.6,1.4h0c-.7.6-4.6-.8-3.4.7s10.5-1.1,8-2.1Zm-1.4.5Zm-3.2.9Z" fill="#40627c"/><path d="M278.3,550.6c-.4,0-.4,2.4.2,1.9s.4-1.8-.2-1.9Z" fill="#40627c"/><path d="M249.5,362.3c-8.3,59.1-16.8,120.4-10,178.9,12.1,6.3-.2-29.9,3.6-37.1v-.8c1.6-46,3.4-92.7,8.7-138.6.8-1.8-.9-5.3-2.3-2.4Z" opacity="0.68"/><path d="M315.5,327.5c-.2,1.7-.4,3.5-.7,5.2.2-2.6,1.5-6.1,1.2-8.3-.1,1-.3,2.1-.5,3.1Z" fill="#f3d4ca"/><path d="M303.4,339a5.6,5.6,0,0,0-.5.8,1.8,1.8,0,0,1,1,.7l.3-3.3a14.2,14.2,0,0,0-.8,1.8Z" fill="#f3d4ca"/><path d="M287.9,371.9c-.5.1-.2.6-.1.9l.3-1Z" fill="#f3d4ca"/><path d="M214.2,300.1c-3.9,10.1-8.8,23.7-8.1,34.5-1-11.8,10.5-25.9,8.1-34.5Z" fill="#40627c"/><path d="M296,300.6c-.3.2.1.3.3.3s-.2-.3-.3-.3Z" fill="#40627c"/><path d="M262.1,306.6c-2.5.4-6.5-.6-8,.6h2.6a54.4,54.4,0,0,0,5.8-.5Z" fill="#40627c"/><path d="M248.6,306.8l4.3.3v-.3h-5.7Z" fill="#40627c"/><path d="M302.9,321.8a16.2,16.2,0,0,1-.1,2.2,7.6,7.6,0,0,0,.1-2.6v.4Z" fill="#40627c"/><path d="M204.9,336.2c-1.8,13.2-.8,26.4,1.6,39.4-1.2-12.2-2.5-26.5-.5-39.4l-1-1.4c0,.5-.1,1-.1,1.4Z" fill="#40627c"/><path d="M208.6,306.5l-.3,1.4c.2-.7.3-1.4.5-2.1a1.4,1.4,0,0,0-.2.7Z" fill="#40627c"/><path d="M217,202.7v.3c.4-.1,1.1,0,.9-.7h0c-.3-.6-.7,0-.9.4Zm.9-.4Z" fill="#ea9a00"/><path d="M192.6,205.5a61.6,61.6,0,0,0-.6,7.6,2.5,2.5,0,0,1,1.2-.1c-.1-2.7.8-5.5-.5-8h-.1v.5Z" fill="#ea9a00"/><path d="M314.6,179.9c4,6.7,1.3,16.3,2.3,24h0v.2h0a10.3,10.3,0,0,1,1,3.1c.3-8.2,1.4-20.7-3.3-27.5a.1.1,0,0,0,0,.2Z" fill="#ea9a00"/><path d="M293.7,190.3c-.1,1.7-.8,6.6,1.5,6.1-1.2-1.3.3-7.4-1.5-6.1Z" fill="#ea9a00"/><path d="M254.6,196.8v.4h0c.3.2,0-.4,0-.6v.3Z" fill="#ea9a00"/><path d="M302,197.8a3,3,0,0,1,.2,1l4.1-.5a12.4,12.4,0,0,0-4.3-.5Z" fill="#ea9a00"/><path d="M309.5,200.3a3,3,0,0,1,.2,1.3c.5-.8,1.7-.1,2.4.3a11.5,11.5,0,0,1-1.7.6c5.1.5,1.8-1.9-.6-2.6h0v-.2a1.4,1.4,0,0,1-.2.6Z" fill="#ea9a00"/><path d="M250.7,274.9c.2,1.4.6,2.7.9,4.1,0-1.4,0-2.8-.1-4.2Z" fill="#ea9a00"/><path d="M215,290.8a17.9,17.9,0,0,0,.5,9.8c-.9-3.2-.5-6.6-.5-9.8Z" fill="#ea9a00"/><path d="M268.5,305c-9,.4-18,1-26.9.2,2.6.1,4,1.9,6.9,1.5h0c7.5.7,13.8-1.1,21-1.6Z" fill="#ea9a00"/><path d="M273.3,149.2h0c-4.7,14.7-16.1,8.5-1.4,25.8,3.7-9.2,10.7-17.6,1.4-25.8Z" fill="#ea9a00"/><path d="M244.2,145.4c-10.8,12.9-9.8,13.9-.8,27.6,14.2-15.1-5.8-11.5.8-27.6Z" fill="#ea9a00"/><path d="M268.5,305c-9.3.8-42.5-.1-14.4,2.2h2.6c1.4-.1,16.4-1.4,11.8-2.1Zm-6.4,1.4h0Z" fill="#171717"/><path d="M222.9,550.3c-.3,1.4-.7,2.8-2.2,3.4,1.7-.2,2.1-2.2,2.8-3.3h0c-.1-.3-.4-.4-.6-.1Z" fill="#171717"/><path d="M231.4,572.6c.2.1.5,0,.8,0Z" fill="#171717"/><path d="M238.7,544.2c-.4,1.1.6,3,.9,4.4h0a28.8,28.8,0,0,1,1.1,4.2.6.6,0,0,1,.9.1,43.2,43.2,0,0,0-1.6-5.1h0c-.5-1.1-.2-3.1-1.3-3.7Z" fill="#171717"/><path d="M223.8,550.4c-6.1,8.5-26.4-2.2-36.9,3.1-12.2,2.3-18.7,16.7-6.2,23.5,14.8,6.1,31.1,1.2,46.3-.4,1.3,4.2,5.8,1.6,9.2,2,5.3,1.1,7.7-5.1,5.9-9.2,0-1.7,1.3-20.1-1.9-16a3,3,0,0,1-.2-1c-.3.1-.5.4-.7.5h.1c-4.4,3.4-12,.8-15.6-2.4Zm-.5,3.2h-.2a1.6,1.6,0,0,0,.4-.7c-.1.3.1.7-.2.8Zm-22.5,2h0Zm30.6,17.1h0Z" fill="#565656"/><path d="M198.7,551.9c-.7.6.6,10.2,1.1,6.7-.9-1.6.2-6.2-1.1-6.7Zm.5.4h0Zm0-.1Z" fill="#171717"/><path d="M200.8,552.3c-.9-.1.8,9.1,1.2,6s.1-4.7-1.2-6Z" fill="#171717"/><path d="M203.4,552.8c-.3,1,.3,8.2,1.6,6.1-1.1-.8-.3-7.8-1.6-6.1Zm.7,1.5h0Z" fill="#171717"/><path d="M222.9,549.7c.6,2.5,5.5,4.3,8,5.1h-.1a8.4,8.4,0,0,0,4.7-.4h0c2.4-.1,7.8-5.8,3.2-2.7h0c-5.2,4.5-11.3.9-15.8-2Zm.6,0Zm12.1,4.6h0Zm3-2.5h0Z" fill="#171717"/><path d="M222.5,550.7c-5.1,7.9-33.3-4.1-43.3,5.4H179c-2.2.4-6.8,10.6-3.9,6.7,8.3-15.9,29.2-7.1,43.4-8.5h0c1.9.7,6.1-2.9,4-3.7Zm.5.6h0ZM179.3,556c-.1.1-.2.1-.2.2s.1-.1.2-.2Zm-.2.1h0Zm-2.2,3.8Zm-1.9,3.7Zm4-7.4Zm39.9-1.8h0Zm.1,0Z" fill="#171717"/><path d="M240.3,550.1c-.6,4.7,1.1,10.5,1.2,15.6h0v.2h0c0,3.6.7,7.6-.6,11.1-.8.1-.4,1.3.3,1,4-6.5.9-16,.3-23.3h0c-.1-.8-.1-1.5-.2-2.3h0c-.2-.7-.1-2.3-1-2.4Zm2.2,11.7h0Zm-1,4.2h0Zm0-.2h0Z" fill="#171717"/><path d="M227,574.9c-1,.3-.3,1.6-.4,2.4v-.2c-.1,5.3,13,1.2,15.4-.3-5.4-1.2-13.1,5.5-15-1.9Zm-.4,1.7h0Z" fill="#171717"/><path d="M175.1,560.9c-1.9,3.9-2.3,8.5.3,12.2,0-.1,0-.1-.1-.2,5.7,7.8,16.8,7.2,25.4,6.9h.6l4.1-.4h1.9c23.4-.9,26-4.6.8-1.3h-.8c-15.1,1.4-35.7,2.3-32.2-17.1Zm31.3,17.2h0Zm-.1,0h0Zm13.9.3h0Zm-11.8.8h0Zm-7.4.6h0Zm4.4-.4Zm1.9-.1Zm.4-1.3Z" fill="#171717"/><path d="M293.7,190.3c-.1,1.7-.8,6.6,1.5,6.1-1.2-1.3.3-7.4-1.5-6.1Z" fill="#171717"/><path d="M302.1,197.8H302a15.3,15.3,0,0,0-3,.3h0c-5.9,1.5-14.7,9.4-16.1,14.8,5.7-5.4,11.3-15,20.7-13.8h0c-1.5,0-10.3,4.4-8.7,5.8,4.1-2.7,9.8-6.3,14.3-4.5-2.2,1.5-5.1,1.1-7.6,2.4s-4.9,4-1.6,2.6,8.4-5,12.1-3.5h0c-2.7,1.2-11.9,2.5-10.5,6.4,2.6-1.5,5.3-4.3,8.7-3.6h0c-1.9.3-12.8,10.1-7.6,8.4h0c.1-3.5,12.5-8,7.2-9.6h0c4.6-.7,3.4-2.7-.1-3.7h0a14.6,14.6,0,0,0-7.7-2.1Zm10,4.1Zm0,0Zm.1.1Zm-1.8,2.5Z" fill="#171717"/><path d="M231.4,211.2a57.5,57.5,0,0,1-14.6,4.5c-2.4-.3-1.1,2.3-1.3,3.7s-1.4,3.6.7,3.9c3.8-.3,8.2,2.9,11.7,1.4h0c2.2-3.5,2.9-7.8,4.6-11.6a1.3,1.3,0,0,0-1.1-1.9Zm-.1,1c.1-.1.2,0,.3.2h-.9Zm-2.8,1.6a5,5,0,0,1,2.9-.7c-6.3,13.9-.1,11.2-15.2,9.1a17,17,0,0,0,.2-5.5c3.8-.3,7.4-2.1,11.1-3.1h0C228,213.3,228,214.1,228.5,213.8Zm-12.3,2.9Zm-.1,0Zm-.1,5.4h0Z" fill="#171717"/><path d="M192,204.8c-.7,1.2.7,3.1.2,4.7v-.2c-.1,8.3-1.6,16.5-1.5,24.9V234c-.1,5.5.2,12.8,5.1,16.2h0c4.7,2.8,12.3,5.3,17.3,2.9h0c-31.4,1.5-17.4-28.6-20.4-48.1h0a.6.6,0,0,0-.7-.2Z" fill="#171717"/><path d="M195.8,250.2Z" fill="#171717"/><path d="M212,253c2,6.5,2.5,72.7,3,37.7h0c-.3-11.7,1.6-27.1-3-37.7Zm2,27.5h0Z" fill="#171717"/><path d="M311.1,240.6l-1.5.5h0c-5.1,2.2-11.4-.9-16,.2,5.1,2.2,12.5,1.4,17.8-.8Z" fill="#171717"/><path d="M304.1,242.3h0Z" fill="#171717"/><path d="M227.6,224.9h0c10.2,2.8,19.9,7.8,30.4,9.6h0c5.7,1.9,11.7,2.6,17.6,3.8s12,1.9,18,2.9c1-.2,4.7,1.5,4.3,0-24-2.9-47.7-9.1-70.3-16.4Z" fill="#171717"/><path d="M231.5,213c.1.4.7.2.9.4,23.1,5,48.9,1.2,70.9-.2a178.3,178.3,0,0,0-21.9.9h0a154.8,154.8,0,0,1-49.9-1.1Z" fill="#171717"/><path d="M283,211.5c-4.1,4-1.6,3.5.2,0Z" fill="#171717"/><path d="M283.6,211.4c-1.3,1.8-3.3,2.5-5.2,3.4h0c-.3,1.5,3.8-1.2,4.4-1.7h-.1c.4-.3,2.2-1.9.9-1.7Zm-1.2,1.2h0Z" fill="#171717"/><path d="M275.2,237.8l-1.5.3h0c-13.4,4.3-27.3,7.9-41.2,11.3h0c-5.6,1.8-15.4,1.9-19.7,4.3h0a389.3,389.3,0,0,0,59.4-14.3h0c.6-.5,4.7-.6,3-1.6Z" fill="#171717"/><path d="M208.7,229.2c-.2.2.2.5.3.3a.2.2,0,0,0-.3-.3Z" fill="#171717"/><path d="M217.4,202c-.5,0-.4.6-.4,1,.6,4.1,0,8.2-.2,12.2h0a19.9,19.9,0,0,1-1.1,5.9h0c-.3,1.3-1,2.7-.5,4s2.4-7.7,2.6-9.5c.2-4.3.6-8.8.1-13.2h0a.9.9,0,0,0-.5-.3Zm.5.3Z" fill="#171717"/><path d="M225.1,229.9c-3.5,1.7,15.9-.3,18.4,1.2s5,.6,1.8,0h0c-4.8-1.2-9.7-1.1-14.7-.9h-3.9c-.1-.6-1.1-.1-1.6-.2Z" fill="#171717"/><path d="M254.1,195.4a18.2,18.2,0,0,0-.7,2.5h0a52.6,52.6,0,0,0-.4,17.7h0c2,1.5-.8-16.4,1.3-20.1l.3,1.5h0c.3.1,0-2.2-.5-1.7Zm-.2,20.5Z" fill="#171717"/><path d="M252.1,245.9c-3.8,8.6-.9,19.6-1.4,29,.9,6,2.2,6,.8-.1-.2-4-.2-8-.2-12h0c.2-4.8-.3-9.8.4-14.6.2-.7,2.3-2.9.4-2.3Z" fill="#171717"/><path d="M314.7,179.4c-.4,1.2,1.6,2.2,2,3.4,0-1.3-.8-3.2-2-3.4Z" fill="#171717"/><path d="M314.1,178.6c-.1.9,1.5,1.2,1.6,2.2h-.1c1.9,7.3.8,15.5,1.3,23.1h0v.2h0c-.5,8.4-.5,16.8-1.7,25.1h0c-.7,4.2-1.1,9.2-5.6,11,3.3,2.9,6.9-7.1,6.8-10.8v.2c.6-6.6,4.7-51.1-2.3-51.1Z" fill="#171717"/><polygon points="315.2 229.2 315.2 229.2 315.2 229.2 315.2 229.2" fill="#171717"/><polygon points="315.7 180.8 315.6 180.8 315.7 180.8 315.7 180.8" fill="#171717"/><polygon points="315.2 229.2 315.2 229.2 315.2 229.2 315.2 229.2" fill="#171717"/><path d="M301.5,242.4v.2c2.1.5.9-1.8,0-.2Z" fill="#171717"/><path d="M275.6,238.4c-1.2.6-2.3.4-3.4,1h.1a390.5,390.5,0,0,1-59.5,14.3c3.4,11.6,1.3,27.9,2.9,37.3l-.7-.2c-6.3,22.6,68.8,14.9,81,9.1a22.1,22.1,0,0,0-.7-5.4c0-.4-.1-.7-.1-1,1.6-14.5.2-33.5,3.6-49.4h0c.1,0,.1-.1.1-.2v.2c-.1-1.1,1-1.6,1.9-1.5-8.4-1-16.6-3.3-25.2-4.2Zm-23.5,52c.6-13.4-6-34.1.8-44.3-3,4.8-1,11.3-1.6,16.7h0c0,4,0,8,.2,12h.9c0,.9.1,1.8.1,2.8h0c-.8,2.4,1.6,13.7-.4,13Zm45.3-36.3v0Zm-5.3,40.4c0-.2.3-.2.4-.2a.4.4,0,0,0,.1.3c-.2,0-.4.1-.5-.1Z" fill="#ea9a00"/><path d="M279.5,159.5c-10.4,21.6-3.9,20.7-16.7,3.9-11.6,12.9-8.1,35.9-8.9,52.2,35.8,2,21.9-4.9,45.1-17.5a14.5,14.5,0,0,1,3-.3c.4-5.1,3-10.7,2.5-16.4,1.8,3.1-.6,12.1-2.5,16.4,2.3.5,7.7-.3,7.8,2.1h0c3.5,1,4.7,3,.1,3.7,5.3,1.6-7.1,6.1-7.2,9.6,1.6,0,.3.8-.6.6-7.4-.2-17.5.6-23.7,1-30.4,6.9-45.7-11.5-50.5,9.9,26.2,8.3,54,17.6,81.7,16.4,4-4.7,4.6-3.8,5.6-11.8h0c1.2-8.3,1.2-16.7,1.7-25.1h0v-.2h0c4.6-34-15.8-29.9-37.4-44.3Zm14.7,37.1c-1.5-8.2.3-8.6,1-.2l-1,.2Z" fill="#ea9a00"/><path d="M234.3,158.4c-24,6.2-42,19.8-41.6,46.6h0c3,19.6-11,49.6,20.4,48.1,6.5-1.1,13-2.4,19.4-3.7h-.1c13.9-3.3,27.8-7,41.3-11.3-5.2-1.2-10.6-1.7-15.7-3.5h0a97.9,97.9,0,0,0-33.6-4.1c-2.1-.5,2.4-1.1,2.3-.4h3.9c5-.2,9.9-.3,14.7.9-8.7-2.9-23.9-9.9-30.1-6.1,0-1.4-.5-10.5,1.6-9.3v-.5h0c.2-4,.8-8.1.2-12.2a1,1,0,0,1,.6-1.2l-.2.2.4.2h.1c.5,4.4.1,8.9-.1,13.2,3.2.7,15.2-6.9,14.7-2.4,6.8.7,13.6,2.4,20.5,2.5-.7-5.8-1-11.9.4-17.7-.2-10.8,4.8-23.6-2.7-32.7-8,5.8-5.8,12.5-9.2,6-2.3-4-4.7-7.9-6.8-12,0,0,0,.2-.1.2s-.2-.7-.3-1Zm-24.4,31.4h-.5c-.1-5.6.7-5.5.5,0Zm-1,39.8c-.3,0-.3-.4,0-.5s.3.4,0,.5Z" fill="#ea9a00"/><path d="M216.5,197.7c-1,3.9.3,9.5-.5,13.9h0c-.3,4.8-1.4,9.8-1.6,14.6,1.7,1,.9-2.6,1.5-3.5s.6-2.4.8-3.5h0c.5-4.8.9-9.7,1-14.5h0c-.1-2.1.4-5.7-1.2-7.1Z" fill="#171717"/><path d="M294.4,188.1c-1.1,1.4-.9,3.6-1.6,5.3.1-1.3-.6-7.2-.7-3.3s-1.1,6-.3,8.3,8.2-6.6,4.5-6.3c.5-1,1-3.7-.9-3.1a.8.8,0,0,0-1-.9Zm-.7,9.9h0Z" fill="#ea9a00"/><path d="M210,181.1c-1,2.5-4.6,17.8-2.1,18.9s.2-3.2,1-4.6c3,0,4.1-13.9,1.1-14.3Zm-1.5,17.4h0Z" fill="#ea9a00"/><path d="M195.1,200.5a5.7,5.7,0,0,0-.4,1.4c-.2-.2-.5-.1-.6.2h0c-1.8,6.5-2.4,13.9-.8,20.4,1.5,4.5,1.1-4.5,1.3-5.5s3.9-20.9.5-16.5Z" fill="#ea9a00"/><path d="M193.3,196.6c-1.2,2.7-3.1,42.4-1.5,24.2,2.2,3.8.7-21.2,1.5-24.2Z" fill="#171717"/><path d="M298.5,241.6c-3.4,18.9-3.8,39.9-2.6,59.1,1.5-13.2-.3-31.5,1.5-46.4h0v-.2h0c.1-1.1.4-2.2.5-3.3v.2a53.6,53.6,0,0,1,.9-7h0v-.1c.1-.9,1.3-2.3-.4-2.5Zm-.7,1.5Z" fill="#171717"/><path d="M231.4,213c-6.1,1.5-14.7,1.2-15,9.2,15.1,2.1,8.7,4.6,15-9.1Z" fill="#f3d4ca"/><path d="M302.2,199.1c-8.9-.2-13.9,8.9-19.5,14h.1l-1.4,1c12.7-.5,19.8,0,28.9-9.3-3.4-.8-6.1,2-8.7,3.5-1.4-3.9,7.8-5.2,10.5-6.4-3.6-1.5-8.2,2.3-12.1,3.5s.3-2.5,1.6-2.6,5.4-.9,7.6-2.4c-4.5-1.8-10.2,1.8-14.3,4.5-1.5-1.5,7-5.8,8.7-5.8Z" fill="#f3d4ca"/><path d="M227.4,210.5c-.8.5-4.1-.1-2.8,1.6-1.6,1.4,10.1.8,10.5.4,4.6-1.5-5.9-2.4-7.7-2Zm7.3,2Z" fill="#ea9a00"/><path d="M214.7,298.8c-10.2,23-15,51.7-8.2,76.6-1.3-12.2-2.5-26.3-.5-39.2-1.7-11.7,11.6-29.7,8.7-37.4Zm-1.7,5.1v0Z" fill="#171717"/><path d="M302.5,315.3c-.7.4-.2,1.1,0,1.7h0c1.7,22.5-4,46.8-2.1,68.8-.2-21.9,8.3-50,2.1-70.4Zm-2.3,68.9h0Z" fill="#171717"/><path d="M295.9,300.7h0c-12.1,6.1-26.1,4.8-39.2,6.4h-2.6c.2,12,.3,24.1.4,36.1.8-5.6.8-3.4.2.4-.1,2-.9,1.3-.9-.2-.5-12.1-.1-24.5-.9-36.4-34.5-3.4-41.3-14.3-46.8,27.5,1.3,1.9,8.4,10.4,2.5,5-6.8-11.2-2.5,32-2.1,35.8,3.4,37.2,1.1,74.5,2.8,111.7,1.3,15.7-1.1,32.9,6,47.3,6.4,4.9,17.4.9,23.4-3,2.5-3.4-3.3-9.8-2.7-14.5,10.5-246.4,30-164.8,29,14.3h0c22.8,12.5,27.7,5,24.7-19.2-.2-15.3,2.3-30.7,2.6-46,2.9-28.3,3.9-57.6,7.4-85.3-.4-26.2,9.6-56-3.8-79.9Zm-8.7,58.2h0a2.9,2.9,0,0,0,2.1,3c-.4.4-1.1-.4-1.4-.6s-1.5-1.2-.7-2.3Zm.9,12.2h.1a23.8,23.8,0,0,0-.5,2.6c-.8-1-1.2-2.2.4-2.6Z" fill="#40627c"/><path d="M289.3,346.4c-1.6.9-.7,3.5-1.1,5-3.1-18-3.8,35.9,2,31.6.5,1.4-.3,7.3,2.1,5.6,1.9,11.6,2.9-9.1.6-9.9-1.4-8.7,1.7-19.2-.5-27-2.1,1.6-.8,8.7-1.7,11.8-.9-3.8,1.5-15.6-1.4-17.1Zm4.9,45Zm.1.1Z" fill="#40627c"/><path d="M209.8,327c-1.2.6-.8,2.6-1.1,3.8-1.7-8.3-4.5,12.6-1.8,11.8.2.8.2,1.9,1.1,2.2s-.1,4.5,1.9,3.7c1.5,3.2,2.7-2.6,3.5-3.9h0c.8-2-.5-.6-.6.5-.2-4.3,1.1-8.5,1.1-12.7-2.8-1.6-1.9,7.6-2.8,9.6,0-1.1,0-2.2.1-3.2h0c.5-2,1.1-12.3-1.4-11.9Zm1.4,11.7v0Zm-.2,2.5v0Zm1.1,5.4h.1v.3h0v-.3Zm.1,0Zm-.1.3Zm1.3-2.3Zm-2.2-5.7h0Z" fill="#40627c"/><path d="M214.9,196.5c1.2,11.7-1.2,24-1.8,35.3,2.7-8.5,3.3-19,3.4-28.2h0c-.1-1.1.5-9.2-1.6-7.2Z" fill="#ea9a00"/><path d="M216,223.6c-.4,0-1.3,4.7-.5,3.5-.2.7.2,1.5.2.2h0c-.1-1.1,1-2.8.3-3.7Zm.3.5Zm-.5,1.8Z" fill="#ea9a00"/><path d="M209.7,222.2c-1.5,1.1-2.2,11.6-.3,12.8,1.5-1.6-.2-5.1.4-7.4s1.9-5.6-.1-5.4Z" fill="#ea9a00"/><path d="M194.4,246.3c-.8,6.2,22.9,9,19.6,5.1-.6-1.1-1.5.9-2.7.2h0c-2-.6-4.5.3-6.7-.7h.2c-5.3-.1-7.9-4.9-10.4-4.6Z" fill="#ea9a00"/><path d="M193.7,199.1a6.6,6.6,0,0,0-.6,3.1h0c-.1,1.2,0,2.4-.1,3.7v-.2c.8,12.5-5.8,35.3,4.1,44.1,1.8.1-2-2.8-2-3.8h0v-.2h0c-5.9-13.9,1.6-33.4-1.4-46.9Zm-.1,20.3Zm-.8,13.4h0Zm2.3,13.2Zm-2-43.8Z" fill="#ea9a00"/><path d="M196.8,186.3c-4.2,10.5-11.6,59.5,1.9,62.7-6.4-3.7-6.4-12.3-6.1-19.2h0c.2-2-.2-3.9.1-5.9h0l.9-17.5h0a63.2,63.2,0,0,1,.6-7.5h0a94,94,0,0,1,2.1-10.3h0l.3-1h0c0-.4,1.1-2,.2-1.6Zm-.4,2.2Zm-3.9,17.3h0Zm1.1.5h0Zm-.3,5.8h0Zm-.6,11.8h0Z" fill="#ea9a00"/><path d="M292.8,241.5c.9.6,2.5.5,3.6,1h0a3.5,3.5,0,0,1,1.1.3h0c2-.2-1-1-1.7-1h-.4c-.7,0-2-.6-2.6-.1Z" fill="#ea9a00"/><path d="M314.2,233.8a13,13,0,0,1-2.2,4.4h0c-1.8,1.8-4.6,2.1-7.1,2.4h.1c-9.8.1,11.2,4.5,9.2-6.8Zm-1.3,3.1Zm-.7,1.1h0Zm-1.5,1.2h-.1c0-.1,0-.1.1-.1Zm-5.1,1.4h0Zm-.6,0Z" fill="#ea9a00"/><path d="M314.9,220c-.6,5.3-.8,11.2-1.7,16.1,3-.6,2.2-8.8,2.6-11.5-.2-.8.9-6.4-.9-4.6Zm-1.4,14.6h0Z" fill="#ea9a00"/><path d="M315,233.5a22.9,22.9,0,0,1-1,2.3h0c-1.1,4.8-6.5,5.3-10.5,6.1h.2c-15.2.9,7,2.1,9.8-3.1h0c.4-.6,2.3-5.5,1.5-5.3Zm-.3,2.1Zm-5.9,5.1Z" fill="#171717"/><polygon points="314 235.8 314 235.8 314 235.8 314 235.8 314 235.8" fill="#171717"/><path d="M229.1,213.3c-.7,0-1.8.1-2.2.8s4.9-.6,2.2-.8Zm.4.7Z" fill="#f3d4ca"/><path d="M307.1,197.9c-1.9.6,1.4,1.4,2,1.6h.2c3.5,1-.4-2.3-2.2-1.7Zm-.2.7Zm2.1.9Z" fill="#ea9a00"/></svg>