<svg id="Layer_2" data-name="Layer 2" xmlns="http://www.w3.org/2000/svg" viewBox="0 0 144 143.33"><title>holdingumbrella</title><path d="M90.24,130a4.73,4.73,0,0,1,.9,5.7c-1.8,3.2-14.7,1.12-14.85-6.88" fill="#202020" stroke="#000" stroke-miterlimit="10"/><path d="M58.07,130.26a4.74,4.74,0,0,0-.9,5.7c1.8,3.19,14.7,1.12,14.85-6.88" fill="#202020" stroke="#000" stroke-miterlimit="10"/><path d="M56.59,74.82c-6.5.48-9.55-4.33-10.83-7.22s1.12-6.41.64-8.18.66-6.08.66-6.08l.33.73c-2.14-3.31,3-14.44,6.31-13.58,2.89-4.17,11.92-5.64,11.92-5.64l15.14.29s9.2,4.15,11.92,4.71c0,0-3.25,16-3.68,16.16s-1.13,13.32-1.13,13.32l-22.77,2" fill="#50789b" stroke="#000" stroke-miterlimit="10" stroke-width="0.5"/><path d="M80.76,35.14c-1,3.13-5.88,4.15-5.88,4.15a12.37,12.37,0,0,0-1.31-2.68l-.83,2.52c-3.59.34-7.12-1.85-7.12-4.28,0-2.62,4.69-3.12,7.95-3.14C78.77,31.49,80.79,32.82,80.76,35.14Z" fill="#50789b" stroke="#000" stroke-miterlimit="10" stroke-width="0.5"/><circle cx="73.57" cy="39.05" r="1.39" fill="#c2c1c0" stroke="#000" stroke-miterlimit="10" stroke-width="0.25"/><path d="M47.06,53.34s-1.14,4.32-.66,6.08-1.93,5.3-.64,8.18,4.33,7.7,10.83,7.22" fill="#50789b"/><path d="M47.09,53.34c-.2,1.18-.4,2.35-.51,3.52a9.25,9.25,0,0,0-.07,1.74,6,6,0,0,0,.11.84,2.82,2.82,0,0,1,0,1c-.2,1.22-.71,2.29-1,3.45a5.56,5.56,0,0,0,.1,3.45A14.34,14.34,0,0,0,50,72.78a10.73,10.73,0,0,0,6.57,2v0a9.41,9.41,0,0,1-6.88-1.65,12.57,12.57,0,0,1-4.18-5.81c-.73-2.41.46-4.77.7-7a2.72,2.72,0,0,0,0-.81,4.08,4.08,0,0,1-.13-.92,10.8,10.8,0,0,1,.12-1.81A21.55,21.55,0,0,1,47,53.33Z"/><path d="M47.39,54.07c-2.14-3.31,3-14.44,6.31-13.58,2.89-4.17,11.92-5.64,11.92-5.64" fill="#50789b"/><path d="M47.37,54.09a3.77,3.77,0,0,1-.62-2A8.62,8.62,0,0,1,46.89,50a14.5,14.5,0,0,1,1.28-3.95,21.7,21.7,0,0,1,2.15-3.54A8.86,8.86,0,0,1,51.73,41a2.46,2.46,0,0,1,2-.68l-.19.08A8.88,8.88,0,0,1,56,38a15.83,15.83,0,0,1,3-1.55,23.84,23.84,0,0,1,3.23-1,28.52,28.52,0,0,1,3.32-.61v0c-1.09.27-2.17.58-3.23.92a31,31,0,0,0-3.14,1.15,18.58,18.58,0,0,0-2.95,1.5,9.6,9.6,0,0,0-2.46,2.15l-.08.11-.12,0a2.17,2.17,0,0,0-1.78.51,7,7,0,0,0-1.43,1.44,14.33,14.33,0,0,0-1.94,3.59,24.24,24.24,0,0,0-1.22,3.88,6.34,6.34,0,0,0,.13,4Z"/><path d="M53.7,40.49s4.09,7.3,4.09,10.51" fill="#50789b" stroke="#000" stroke-miterlimit="10" stroke-width="0.5"/><path d="M80.76,35.14s9.2,4.15,11.92,4.71" fill="#50789b" stroke="#000" stroke-miterlimit="10" stroke-width="0.25"/><path d="M56.59,60.78s.72,13.26,0,15.82S53,86,53.06,92.59s-6.42,29.15-5.22,31.55,4,7.26,17,6.32,29.28,1.71,32.41-.42,3.61-3.08,3.45-5.31-6.42-25.64-7-32.4a109.09,109.09,0,0,0-3.45-17.78c-.61-1.89-1.73-16.08-1.73-16.08" fill="#50789b" stroke="#000" stroke-miterlimit="10" stroke-width="0.5"/><path d="M58.3,47.23S52.09,59.47,59.35,64.1" fill="#50789b"/><path d="M58.3,47.23a37.75,37.75,0,0,0-1.45,4.36,21.39,21.39,0,0,0-.75,4.49,11,11,0,0,0,.55,4.45,7.72,7.72,0,0,0,2.7,3.57,7.86,7.86,0,0,1-1.82-1.44,7.69,7.69,0,0,1-1.23-2,10.74,10.74,0,0,1-.7-4.62,20.19,20.19,0,0,1,.88-4.57A22.48,22.48,0,0,1,58.3,47.23Z"/><line x1="73.57" y1="40.44" x2="73.57" y2="50.6" fill="#c2c1c0" stroke="#000" stroke-miterlimit="10" stroke-width="0.25"/><circle cx="71.86" cy="42.47" r="0.88" fill="#c2c1c0" stroke="#000" stroke-miterlimit="10" stroke-width="0.25"/><circle cx="71.86" cy="45.22" r="0.88" fill="#c2c1c0" stroke="#000" stroke-miterlimit="10" stroke-width="0.25"/><circle cx="71.86" cy="47.97" r="0.88" fill="#c2c1c0" stroke="#000" stroke-miterlimit="10" stroke-width="0.25"/><path d="M56.83,73.88s22,6.68,33.22-1.42l.58,2.4S76.52,84.21,56.3,76.48A4.11,4.11,0,0,1,56.83,73.88Z" fill="#366284"/><path d="M56.82,73.86a81.25,81.25,0,0,0,8.39,1.65,69,69,0,0,0,8.49.74,39.59,39.59,0,0,0,8.49-.63,23.24,23.24,0,0,0,4.08-1.19A18.75,18.75,0,0,0,90,72.37l.13-.1,0,.16.6,2.4,0,.09-.08,0a31.33,31.33,0,0,1-8.2,3.46,37.48,37.48,0,0,1-8.81,1.33c-.74.06-1.49,0-2.23,0a18.4,18.4,0,0,1-2.23-.11L67,79.44l-2.2-.39c-1.47-.21-2.89-.69-4.33-1s-2.81-1-4.21-1.45l-.05,0v-.05A3.88,3.88,0,0,1,56.82,73.86Zm0,0a3.24,3.24,0,0,0-.44,1.23,4.86,4.86,0,0,0,0,1.32l0-.06c1.42.41,2.8.94,4.22,1.31s2.86.75,4.32.93l2.19.33,2.2.18a17.91,17.91,0,0,0,2.2.1c.73,0,1.47,0,2.2,0A40.14,40.14,0,0,0,82.39,78a31.53,31.53,0,0,0,8.17-3.24l-.06.14-.56-2.41.17.07a22.41,22.41,0,0,1-7.88,3.28A32.23,32.23,0,0,1,78,76.5a36.2,36.2,0,0,1-4.29.17,55.71,55.71,0,0,1-8.55-.79A61.75,61.75,0,0,1,56.83,73.91Z"/><path d="M92,39.68c4.41.83,13.54,24.19,12.87,26.09-2,6.58-14.81,6.89-19.8,4.4,0,0-1.68-3.57.07-6.08,0,0,6,.73,7.87-1.13,0,0-1.91-5.23-4-7" fill="#50789b" stroke="#000" stroke-miterlimit="10" stroke-width="0.5"/><path d="M87.57,63.23c4-6.74-.29-15.15-.29-15.15" fill="#50789b"/><path d="M87.36,63.1a12.87,12.87,0,0,0,1.42-3.57,15.62,15.62,0,0,0,.33-3.87,21.91,21.91,0,0,0-.56-3.86,21.48,21.48,0,0,0-1.27-3.72,21.86,21.86,0,0,1,1.39,3.69,21,21,0,0,1,.69,3.88,15.48,15.48,0,0,1-.21,4,13.72,13.72,0,0,1-1.36,3.75Z"/><path d="M68.15,4.51s14.26,6,23.84,18.94c0,0,11,4.62,24.27,19.29,0,0,13.35,3.2,19,15.13C149.24,30.35,93.43-8.46,68.15,4.51Z" fill="#891b24" stroke="#000" stroke-miterlimit="10" stroke-width="0.5"/><path d="M92,23.45s12.84-9.72,25.11-7.92c0,0,7.75,11.27-.84,27.21" fill="none" stroke="#000" stroke-miterlimit="10" stroke-width="0.5"/><path d="M89.45,52.16,74.7,70.72c-2.48,3.12-6-.86-4.07-3.23l-.9-.72c-3,3.82,2.65,8.89,5.9,4.8l40.94-51.52L115,18.79Z" fill="#a71e22" stroke="#000" stroke-miterlimit="10" stroke-width="0.5"/><path d="M85.42,64.67c-.34,0-3.07-2.09-3.28-.83-1.94-.53-2.79-1-3.38-1.12a1,1,0,0,0-.7,1.51s-1.54.53-.65,1.65a1.21,1.21,0,0,0-.49,1.59s-.43,1,.26,1.27a11.09,11.09,0,0,0,6.61,1.55C87.33,69.86,85.42,64.67,85.42,64.67Z" fill="#edcba8" stroke="#000" stroke-miterlimit="10" stroke-width="0.25"/><path d="M104.91,65.77c-2,6.58-14.81,6.89-19.8,4.4,0,0-1.68-3.57.06-6.08,0,0,6,.73,7.88-1.13" fill="#50789b" stroke="#000" stroke-miterlimit="10" stroke-width="0.5"/><path d="M68.15,4.51s28.72-.71,31.94,9.74c0,0,20.09,3.22,22,16.07,0,0,16.59,8.27,13.67,26,5.51-10.41,0-34.29-13.67-45.81C107.21,0,76.66-1.88,68.15,4.51Z" fill="#a71e22" stroke="#000" stroke-miterlimit="10" stroke-width="0.5"/><path d="M100.09,14.25s8.62-5.23,22-3.71a23.73,23.73,0,0,1,0,19.78" fill="none" stroke="#411211" stroke-miterlimit="10" stroke-width="0.5"/></svg>