<svg width="42" height="42" viewBox="0 0 42 42" fill="none" xmlns="http://www.w3.org/2000/svg">
<rect width="42" height="42" rx="10" fill="#EF8435"/>
<g clip-path="url(#clip0_22_1990)">
<path d="M16.714 15.5618C16.7138 15.9895 16.5437 16.3996 16.2411 16.7019C15.9385 17.0042 15.5282 17.1739 15.1005 17.1737C14.6727 17.1735 14.2626 17.0034 13.9603 16.7008C13.658 16.3982 13.4883 15.9879 13.4885 15.5602C13.4887 15.1325 13.6589 14.7223 13.9615 14.42C14.2641 14.1177 14.6744 13.948 15.1021 13.9482C15.5298 13.9485 15.9399 14.1186 16.2422 14.4212C16.5445 14.7238 16.7142 15.1341 16.714 15.5618ZM16.7624 18.368H13.5369V28.4638H16.7624V18.368ZM21.8587 18.368H18.6493V28.4638H21.8264V23.1659C21.8264 20.2146 25.6728 19.9404 25.6728 23.1659V28.4638H28.858V22.0692C28.858 17.0939 23.165 17.2794 21.8264 19.7227L21.8587 18.368Z" fill="white"/>
</g>
<defs>
<clipPath id="clip0_22_1990">
<rect width="19.3529" height="19.3529" fill="white" transform="translate(11.1177 11.5293)"/>
</clipPath>
</defs>
</svg>
