<svg xmlns="http://www.w3.org/2000/svg" width="103" height="42" style="background-color:#fff;padding:5px"><path fill="#2DD4BF" d="M69.758 1.712q-.15-.258-1.149-1.02-1.086-.838-1.322-.661-.543.409-1.165.932-.676.572-1.063.957-.716.674-1.29 1.221a54 54 0 0 0-1.78 1.782 58 58 0 0 0-1.235-.768q-1.157-.711-1.173-.737-.267.183-1.117 1.027-.85.85-.85.932l2.55 2.19 2.117 1.877a.3.3 0 0 0 .15.05q.36-.484 1.11-1.378a60 60 0 0 1 2.266-2.525q.803-.844 2.629-2.532 1.37-1.272 1.322-1.347"/><path d="M50.38 18.297c1.11-.736 2.172-.96 3.335-.755 1.721.294 2.963 1.498 3.041 3.238.092 2.067.052 4.14.063 6.21 0 .536-.273.803-.809.801h-1.448c-.726-.013-.933-.217-.937-.96-.01-1.771 0-3.542-.011-5.313-.012-1.062-.603-1.6-1.656-1.579-1.016.021-1.542.526-1.563 1.61-.03 1.678-.012 3.357-.015 5.038 0 1.066-.14 1.206-1.177 1.208-2.103 0-2.04.18-2.034-2.007.01-3.473 0-6.948 0-10.422 0-.551-.073-1.264.556-1.421a4.6 4.6 0 0 1 2.12.02c.254.062.477.74.506 1.153.077 1.01.029 2.013.029 3.179M28.872 20.354v5.109c.606 0 1.172.013 1.738 0 .526-.018.733.228.765.741.078 1.537.042 1.594-1.492 1.594-1.72 0-3.442-.015-5.163 0-.616 0-.91-.222-.86-.849v-.207c0-1.252 0-1.252 1.252-1.285.155 0 .31-.025.506-.042v-5.061c-.606 0-1.195-.02-1.782 0-.54.02-.723-.227-.742-.742-.06-1.603-.061-1.613 1.545-1.613h1.052c0-.557-.023-1.035 0-1.51.075-1.31.81-2.124 2.02-2.497a7.36 7.36 0 0 1 4.343 0c1.169.35 1.78 1.312 1.721 2.522-.02.384-.166.542-.543.528a15 15 0 0 0-1.24 0c-.573.037-.978 0-1.026-.785-.037-.611-.687-.588-1.161-.567s-.956.114-.993.73c-.028.48 0 .96 0 1.577h2.808c1.56 0 1.547 0 1.505 1.584-.015.554-.216.786-.784.769-1.134-.025-2.259.004-3.47.004M40.062 20.354c0 1.582-.025 3.073.013 4.561.015.601.47.859 1.266.857.61 0 1.104-.171 1.194-.866q.037-.48.023-.96a1.5 1.5 0 0 1 .04-.546c.4-.855 1.188-.47 1.824-.523.473-.036.884.166.901.725q.06.962-.034 1.92c-.05.498-.245.97-.562 1.355a2.5 2.5 0 0 1-1.217.812 7.1 7.1 0 0 1-4.135.148c-1.769-.442-2.524-1.437-2.557-3.266-.02-1.125 0-2.253 0-3.378v-.84c-.608 0-1.147-.013-1.692 0-.46.014-.685-.192-.689-.647-.013-1.805-.11-1.728 1.578-1.705h.803v-1.593c.017-1.052.32-1.358 1.35-1.379h.689c.826.035 1.147.35 1.182 1.191.027.55.03 1.1.048 1.652 0 .015.026.033.107.125h3.287c.796 0 .916.127.93.92 0 .192-.014.369 0 .551.05.647-.222.909-.888.886-1.12-.039-2.243 0-3.461 0M3.25 16.482v3.325h2.195c.643 0 1.287-.03 1.926.017.818.06 1.283.595 1.25 1.344s-.506 1.224-1.357 1.232c-1.306.013-2.613 0-4 0-.02.278-.055.518-.057.768v3.65c-.011.74-.227.94-.956.96H1.218C.201 27.778.002 27.586 0 26.58V15.337c0-1.072.333-1.408 1.394-1.412H8.35c.794 0 .956.173.972.978v.622c-.025.742-.213.936-.957.938-1.673.024-3.347.019-5.116.019"/><path fill="#2DD4BF" d="M87.934 25.365c.69-1.92 1.84-3.682 1.683-5.835a7.4 7.4 0 0 1 .014-1.105c.055-.708.573-.785 1.105-.7.648.105 1.721-.463 1.82.622.108 1.256.108 2.65-.334 3.797-1.18 3.06-2.608 6.025-3.966 9.014-.362.795-1.21 1.043-1.984.676-.742-.35-1.004-1.104-.621-1.92.317-.683.684-1.345 1.056-2.058-.821-.132-1.16-.686-1.437-1.321-.413-.947-.813-1.904-1.29-2.818a9.45 9.45 0 0 1-1.003-5.003c.044-.788.216-.986.981-1.001h1.104c.841 0 1.126.22 1.034 1.068-.256 2.374.78 4.387 1.676 6.448.015.034.063.055.162.136M72.42 25.426c0-1.344 0-2.618-.01-3.9a.77.77 0 0 0-.224-.404c-.18-.207-.382-.384-.573-.588-1.148-1.152-1.125-1.636.105-2.662.5-.415 1.013-.45 1.484 0q.52.548.974 1.152c1.487-1.728 3.241-1.817 5.068-1.275 1.623.484 2.55 2.466 2.025 4.087a.6.6 0 0 1-.082.193c-.614.752-1.448.384-2.182.37-.609 0-.605-.576-.62-1.045-.038-1.271-.985-1.92-2.066-1.379-.28.144-.614.525-.625.809-.061 1.536-.029 3.073-.029 4.694.574 0 1.094.014 1.613 0 .518-.013.793.192.816.768.065 1.537.04 1.577-1.509 1.577h-5.024c-.822 0-.885-.075-.895-.918v-.069c0-1.314 0-1.314 1.302-1.344.106-.035.218-.049.452-.066M62.295 16.482c-.956 0-1.853-.02-2.74 0-.649.021-.907-.267-.93-.897-.056-1.573 0-1.654 1.54-1.654h7.986c.92 0 1.03.117 1.039 1.032v.62c.028.643-.268.916-.915.897-.887-.027-1.774 0-2.75 0v10.068c0 1.074-.174 1.241-1.235 1.245-1.995 0-1.995 0-1.995-2.01z"/><path d="M14.572 25.461v-5.403c-.678 0-1.34-.019-1.988 0-.558.02-.765-.211-.782-.768-.027-1.58-.044-1.58 1.56-1.58h3.166c1.061 0 1.25.176 1.25 1.227v6.52c.752 0 1.454.02 2.152 0 .587-.02.861.227.823.815a1 1 0 0 0 0 .138c.015 1.385.015 1.385-1.339 1.387h-6.818c-.853 0-.909-.062-.918-.891-.014-1.44-.014-1.44 1.407-1.44zM15.878 16.704h-.07c-1.778.09-1.803-.384-1.608-2.206.023-.223.454-.536.725-.577q.992-.092 1.985-.017c.48.02.742.332.798.795q.043.412.023.824c-.023.86-.31 1.153-1.167 1.176q-.341.006-.686.005M6.872.084 4.466 2.491 2.061.084 0 2.147l2.405 2.407L0 6.96l2.061 2.063 2.405-2.407 2.406 2.407 2.06-2.063-2.405-2.406 2.406-2.407zM50.82 0l-2.405 2.407L46.01 0l-2.061 2.062 2.405 2.407-2.405 2.407 2.06 2.063 2.406-2.407 2.405 2.407 2.061-2.063-2.405-2.407 2.405-2.407zM21.973 0l-2.405 2.407L17.162 0l-2.06 2.062 2.404 2.407-2.405 2.407 2.061 2.063 2.406-2.407 2.405 2.407 2.06-2.063L21.63 4.47l2.405-2.407zM37.156 0 34.75 2.407 32.345 0l-2.06 2.062 2.404 2.407-2.405 2.407 2.061 2.063 2.406-2.407 2.405 2.407 2.06-2.063-2.404-2.407 2.405-2.407z"/></svg>