<svg width="25" height="24" viewBox="0 0 25 24" fill="none" xmlns="http://www.w3.org/2000/svg">
<path d="M1.64844 10.7899C0.980122 10.7899 0.438345 11.3317 0.438345 12C0.438345 12.6683 0.980122 13.2101 1.64844 13.2101L1.64844 10.7899ZM22.5041 12.8557C22.9767 12.3831 22.9767 11.6169 22.5041 11.1443L14.8031 3.44336C14.3306 2.97079 13.5644 2.97079 13.0918 3.44336C12.6192 3.91593 12.6192 4.68212 13.0918 5.15469L19.9371 12L13.0918 18.8453C12.6192 19.3179 12.6192 20.0841 13.0918 20.5566C13.5644 21.0292 14.3306 21.0292 14.8031 20.5566L22.5041 12.8557ZM1.64844 13.2101L21.6484 13.2101L21.6484 10.7899L1.64844 10.7899L1.64844 13.2101Z" fill="white"/>
</svg>
