<svg width="16" height="16" viewBox="0 0 16 16" fill="none" xmlns="http://www.w3.org/2000/svg">
<path d="M11.7429 10.3431C12.7112 9.02181 13.1449 7.38361 12.9572 5.75627C12.7695 4.12893 11.9743 2.63246 10.7307 1.56625C9.48701 0.500045 7.88665 -0.0572725 6.24973 0.00580065C4.61282 0.0688738 3.06008 0.747686 1.90217 1.90643C0.744249 3.06518 0.0665484 4.6184 0.00464653 6.25536C-0.0572553 7.89231 0.501207 9.49228 1.56831 10.7352C2.6354 11.9781 4.13244 12.7722 5.75992 12.9587C7.38739 13.1452 9.02528 12.7104 10.3459 11.7411H10.3449C10.3749 11.7811 10.4069 11.8191 10.4429 11.8561L14.2929 15.7061C14.4804 15.8938 14.7348 15.9992 15 15.9993C15.2653 15.9994 15.5198 15.8941 15.7074 15.7066C15.895 15.5191 16.0005 15.2647 16.0006 14.9995C16.0007 14.7342 15.8954 14.4798 15.7079 14.2921L11.8579 10.4421C11.8221 10.4059 11.7837 10.3735 11.7429 10.3431ZM12.0009 6.49912C12.0009 7.22139 11.8586 7.93659 11.5822 8.60388C11.3058 9.27117 10.9007 9.87749 10.39 10.3882C9.87926 10.8989 9.27295 11.3041 8.60566 11.5805C7.93837 11.8569 7.22317 11.9991 6.5009 11.9991C5.77863 11.9991 5.06343 11.8569 4.39614 11.5805C3.72885 11.3041 3.12253 10.8989 2.61181 10.3882C2.10109 9.87749 1.69596 9.27117 1.41956 8.60388C1.14316 7.93659 1.0009 7.22139 1.0009 6.49912C1.0009 5.04043 1.58036 3.64149 2.61181 2.61004C3.64326 1.57859 5.04221 0.999124 6.5009 0.999124C7.95959 0.999124 9.35853 1.57859 10.39 2.61004C11.4214 3.64149 12.0009 5.04043 12.0009 6.49912Z" fill="white"/>
</svg>
