<?xml version="1.0" standalone="no"?>
<!DOCTYPE svg PUBLIC "-//W3C//DTD SVG 20010904//EN"
 "http://www.w3.org/TR/2001/REC-SVG-20010904/DTD/svg10.dtd">
<svg version="1.0" xmlns="http://www.w3.org/2000/svg"
 width="512.000000pt" height="512.000000pt" viewBox="0 0 512.000000 512.000000"
 preserveAspectRatio="xMidYMid meet">

<g transform="translate(0.000000,512.000000) scale(0.100000,-0.100000)"
fill="#43A047" stroke="none">
<path d="M4174 4455 c-46 -23 -116 -107 -838 -1010 -433 -542 -791 -985 -794
-985 -4 0 -169 162 -367 359 -303 302 -366 361 -400 370 -63 17 -107 13 -164
-15 -90 -45 -133 -139 -110 -239 11 -48 28 -66 473 -513 253 -255 473 -470
488 -478 66 -34 167 -26 223 18 41 32 1746 2165 1772 2217 41 79 24 170 -43
238 -67 67 -154 81 -240 38z"/>
<path d="M890 4034 c-215 -57 -390 -233 -445 -449 -23 -89 -23 -2601 0 -2690
56 -219 231 -394 450 -450 89 -23 2601 -23 2690 0 220 56 395 232 450 451 13
52 15 157 13 741 l-3 679 -25 37 c-14 21 -43 50 -64 65 -35 24 -49 27 -117 27
-70 0 -81 -3 -120 -30 -23 -16 -53 -50 -66 -74 l-23 -44 0 -629 c0 -444 -3
-643 -12 -675 -15 -61 -70 -116 -131 -131 -66 -17 -2428 -17 -2494 0 -61 15
-116 70 -131 131 -16 63 -17 2434 -1 2492 15 54 50 98 96 121 36 18 77 19 749
24 l710 5 37 25 c21 14 50 43 65 64 24 35 27 49 27 116 0 67 -3 81 -27 116
-15 21 -44 50 -65 64 l-37 25 -735 2 c-617 2 -745 0 -791 -13z"/>
</g>
</svg>
