<svg xmlns="http://www.w3.org/2000/svg" width="682.667" height="682.667" version="1.0" viewBox="0 0 512 512"><g fill="#43A047"><path d="M417.4 66.5c-4.6 2.3-11.6 10.7-83.8 101-43.3 54.2-79.1 98.5-79.4 98.5-.4 0-16.9-16.2-36.7-35.9-30.3-30.2-36.6-36.1-40-37-6.3-1.7-10.7-1.3-16.4 1.5-9 4.5-13.3 13.9-11 23.9 1.1 4.8 2.8 6.6 47.3 51.3 25.3 25.5 47.3 47 48.8 47.8 6.6 3.4 16.7 2.6 22.3-1.8 4.1-3.2 174.6-216.5 177.2-221.7 4.1-7.9 2.4-17-4.3-23.8-6.7-6.7-15.4-8.1-24-3.8"/><path d="M89 108.6c-21.5 5.7-39 23.3-44.5 44.9-2.3 8.9-2.3 260.1 0 269 5.6 21.9 23.1 39.4 45 45 8.9 2.3 260.1 2.3 269 0 22-5.6 39.5-23.2 45-45.1 1.3-5.2 1.5-15.7 1.3-74.1l-.3-67.9-2.5-3.7c-1.4-2.1-4.3-5-6.4-6.5-3.5-2.4-4.9-2.7-11.7-2.7-7 0-8.1.3-12 3-2.3 1.6-5.3 5-6.6 7.4l-2.3 4.4v62.9c0 44.4-.3 64.3-1.2 67.5-1.5 6.1-7 11.6-13.1 13.1-6.6 1.7-242.8 1.7-249.4 0-6.1-1.5-11.6-7-13.1-13.1-1.6-6.3-1.7-243.4-.1-249.2 1.5-5.4 5-9.8 9.6-12.1 3.6-1.8 7.7-1.9 74.9-2.4l71-.5 3.7-2.5c2.1-1.4 5-4.3 6.5-6.4 2.4-3.5 2.7-4.9 2.7-11.6s-.3-8.1-2.7-11.6c-1.5-2.1-4.4-5-6.5-6.4l-3.7-2.5-73.5-.2c-61.7-.2-74.5 0-79.1 1.3"/></g></svg>