<svg width="42" height="42" viewBox="0 0 42 42" fill="none" xmlns="http://www.w3.org/2000/svg">
<rect width="42" height="42" rx="10" fill="#EF8435"/>
<g clip-path="url(#clip0_22_1985)">
<path d="M24.3958 14.36C23.6134 14.3598 22.8622 14.6668 22.3039 15.2149C21.7456 15.7631 21.4248 16.5084 21.4105 17.2907L21.3816 18.912C21.38 18.9991 21.3599 19.0848 21.3227 19.1635C21.2856 19.2423 21.2322 19.3123 21.1661 19.3689C21.1 19.4256 21.0227 19.4677 20.9392 19.4924C20.8557 19.517 20.7679 19.5238 20.6816 19.5122L19.0747 19.2939C16.9603 19.0057 14.9344 18.0319 12.9909 16.4126C12.3753 19.82 13.5777 22.1804 16.4734 24.0014L18.2718 25.1317C18.3572 25.1854 18.4282 25.2592 18.4785 25.3467C18.5289 25.4342 18.557 25.5327 18.5604 25.6335C18.5639 25.7344 18.5426 25.8346 18.4984 25.9253C18.4541 26.016 18.3884 26.0945 18.3068 26.1539L16.668 27.3511C17.6428 27.4119 18.5683 27.3686 19.3362 27.2163C24.193 26.2466 27.4222 22.5922 27.4222 16.5639C27.4222 16.0719 26.3805 14.36 24.3958 14.36ZM19.3516 17.2526C19.3696 16.2603 19.6799 15.2953 20.2437 14.4786C20.8075 13.6618 21.5997 13.0295 22.5211 12.6608C23.4426 12.2921 24.4523 12.2034 25.4239 12.4059C26.3955 12.6083 27.2858 13.0929 27.9833 13.7989C28.7152 13.7938 29.338 13.9791 30.7308 13.135C30.3859 14.8232 30.216 15.5561 29.481 16.5639C29.481 24.4307 24.6459 28.256 19.7397 29.2349C16.3756 29.9061 11.4838 28.8036 10.0818 27.3398C10.7962 27.2842 13.6991 26.9723 15.3771 25.7442C13.9575 24.8085 8.30708 21.4835 12.0202 12.5441C13.763 14.5792 15.5305 15.9648 17.3216 16.6998C18.5137 17.1888 18.8061 17.1785 19.3527 17.2536L19.3516 17.2526Z" fill="white"/>
</g>
<defs>
<clipPath id="clip0_22_1985">
<rect width="24.7059" height="24.7059" fill="white" transform="translate(8.64697 8.64746)"/>
</clipPath>
</defs>
</svg>
