<svg xmlns="http://www.w3.org/2000/svg" width="42" height="42" fill="none"><rect width="42" height="42" fill="#EF8435" rx="10"/><g clip-path="url(#a)"><path fill="#fff" d="M24.396 14.36a2.985 2.985 0 0 0-2.986 2.93l-.028 1.622a.615.615 0 0 1-.443.58.6.6 0 0 1-.257.02l-1.607-.218c-2.115-.288-4.14-1.262-6.084-2.881-.616 3.407.587 5.767 3.482 7.588l1.799 1.13a.618.618 0 0 1 .035 1.023l-1.639 1.197c.975.06 1.9.018 2.668-.135 4.857-.97 8.086-4.624 8.086-10.652 0-.492-1.041-2.204-3.026-2.204m-5.044 2.893a5.044 5.044 0 0 1 8.631-3.454c.732-.005 1.355.18 2.748-.664-.345 1.688-.515 2.421-1.25 3.429 0 7.867-4.835 11.692-9.741 12.67-3.364.672-8.256-.43-9.658-1.894.714-.056 3.617-.368 5.295-1.596-1.42-.936-7.07-4.26-3.357-13.2q2.614 3.052 5.302 4.156c1.192.489 1.484.479 2.03.554z"/></g><defs><clipPath id="a"><path fill="#fff" d="M8.647 8.647h24.706v24.706H8.647z"/></clipPath></defs></svg>