<svg width="396" height="421" viewBox="0 0 396 421" fill="none" xmlns="http://www.w3.org/2000/svg">
    <ellipse cx="198" cy="379.5" rx="198" ry="41.5" fill="#D9D9D9"/>
    <path d="M204 338.75V275.75L160 320.75L171 352.75L178 368.75H193L204 352.75V338.75Z" fill="black" stroke="black"/>
    <path d="M25 333.75V253.75L75 309.75L67.8571 348.75L55.9524 361.75H39.2857L25 333.75Z" fill="black" stroke="black"/>
    <circle cx="119" cy="242.75" r="92.5" fill="white" stroke="black" stroke-width="5"/>
    <path d="M185 216.75L55 177.75L30 139.75L17 101.75L46 87.7501L79 139.75L211 183.75L236 237.75L242 295.75L216 302.75L185 216.75Z" fill="black" stroke="black"/>
    <ellipse cx="113.222" cy="32.7204" rx="27" ry="25.5" transform="rotate(15.0912 113.222 32.7204)" fill="black"/>
    <ellipse cx="252.441" cy="73.3686" rx="27" ry="25.5" transform="rotate(15.0912 252.441 73.3686)" fill="black"/>
    <path d="M261.574 139.371C256.478 158.272 241.227 172.702 220.35 180.624C199.477 188.546 173.127 189.886 146.278 182.647C119.429 175.408 97.3236 161.003 83.2615 143.662C69.1975 126.319 63.2667 106.179 68.3628 87.2776C73.459 68.3765 88.7104 53.9471 109.587 46.0245C130.46 38.1029 156.81 36.763 183.659 44.002C210.508 51.2409 232.613 65.6455 246.676 82.9863C260.74 100.329 266.67 120.47 261.574 139.371Z" fill="white" stroke="black" stroke-width="4"/>
    <ellipse cx="165.219" cy="120.278" rx="8" ry="4.5" transform="rotate(15.0912 165.219 120.278)" fill="black"/>
    <path d="M139.05 128.987C149.717 149.631 160.16 134.679 164.048 124.623" stroke="black" stroke-width="3"/>
    <path d="M183.463 140.963C163.863 153.446 162.353 135.271 164.048 124.623" stroke="black" stroke-width="3"/>
    <ellipse cx="109.48" cy="104.212" rx="20" ry="19.5" transform="rotate(15.0912 109.48 104.212)" fill="#FFD2D2"/>
    <ellipse cx="222.445" cy="134.673" rx="20" ry="19.5" transform="rotate(15.0912 222.445 134.673)" fill="#FFD2D2"/>
    <ellipse cx="134.708" cy="91.2262" rx="15.7498" ry="19.5" transform="rotate(32.9742 134.708 91.2262)" fill="black"/>
    <ellipse cx="141.407" cy="89.5173" rx="3" ry="5" transform="rotate(15.0912 141.407 89.5173)" fill="#D9D9D9"/>
    <ellipse cx="204.93" cy="111.198" rx="15.7498" ry="19.5" transform="rotate(9.62099 204.93 111.198)" fill="black"/>
    <ellipse cx="199.783" cy="107.33" rx="3" ry="5" transform="rotate(15.0912 199.783 107.33)" fill="#D9D9D9"/>
    <circle cx="26.5" cy="85.2501" r="19" fill="white" stroke="black" stroke-width="3"/>
    <ellipse cx="29.5" cy="89.7501" rx="7.5" ry="8" fill="#FFD2D2"/>
    <line x1="11.554" y1="74.6948" x2="20.2247" y2="86.7703" stroke="black" stroke-width="3"/>
    <line x1="23.2122" y1="67.98" x2="31.8829" y2="80.0556" stroke="black" stroke-width="3"/>
    <path d="M256.5 307.25C256.5 309.944 254.61 312.663 250.949 314.792C247.325 316.899 242.22 318.25 236.5 318.25C230.78 318.25 225.675 316.899 222.051 314.792C218.39 312.663 216.5 309.944 216.5 307.25C216.5 304.556 218.39 301.837 222.051 299.708C225.675 297.601 230.78 296.25 236.5 296.25C242.22 296.25 247.325 297.601 250.949 299.708C254.61 301.837 256.5 304.556 256.5 307.25Z" fill="white" stroke="black" stroke-width="3"/>
</svg>
