<svg width="535" height="421" viewBox="0 0 535 421" fill="none" xmlns="http://www.w3.org/2000/svg">
    <ellipse cx="198" cy="379.5" rx="198" ry="41.5" fill="#D9D9D9"/>
    <path d="M204 338.75V275.75L160 320.75L171 352.75L178 368.75H193L204 352.75V338.75Z" fill="black" stroke="black"/>
    <path d="M25 333.75V253.75L75 309.75L67.8571 348.75L55.9524 361.75H39.2857L25 333.75Z" fill="black" stroke="black"/>
    <circle cx="119" cy="242.75" r="92.5" fill="white" stroke="black" stroke-width="5"/>
    <path d="M185 216.75L55 177.75L30 139.75L17 101.75L46 87.7501L79 139.75L211 183.75L236 237.75L242 295.75L216 302.75L185 216.75Z" fill="black" stroke="black"/>
    <ellipse cx="113.222" cy="32.7204" rx="27" ry="25.5" transform="rotate(15.0912 113.222 32.7204)" fill="black"/>
    <ellipse cx="252.441" cy="73.3686" rx="27" ry="25.5" transform="rotate(15.0912 252.441 73.3686)" fill="black"/>
    <path d="M261.574 139.371C256.478 158.272 241.227 172.702 220.35 180.624C199.477 188.546 173.127 189.886 146.278 182.647C119.429 175.408 97.3236 161.003 83.2615 143.662C69.1975 126.319 63.2667 106.179 68.3628 87.2776C73.459 68.3765 88.7104 53.9471 109.587 46.0245C130.46 38.1029 156.81 36.763 183.659 44.002C210.508 51.2409 232.613 65.6455 246.676 82.9863C260.74 100.329 266.67 120.47 261.574 139.371Z" fill="white" stroke="black" stroke-width="4"/>
    <ellipse cx="165.219" cy="120.278" rx="8" ry="4.5" transform="rotate(15.0912 165.219 120.278)" fill="black"/>
    <path d="M139.05 128.987C149.717 149.631 160.16 134.679 164.048 124.623" stroke="black" stroke-width="3"/>
    <path d="M183.463 140.963C163.863 153.446 162.353 135.271 164.048 124.623" stroke="black" stroke-width="3"/>
    <ellipse cx="109.48" cy="104.212" rx="20" ry="19.5" transform="rotate(15.0912 109.48 104.212)" fill="#FFD2D2"/>
    <ellipse cx="222.445" cy="134.673" rx="20" ry="19.5" transform="rotate(15.0912 222.445 134.673)" fill="#FFD2D2"/>
    <ellipse cx="134.708" cy="91.2262" rx="15.7498" ry="19.5" transform="rotate(32.9742 134.708 91.2262)" fill="black"/>
    <ellipse cx="141.407" cy="89.5173" rx="3" ry="5" transform="rotate(15.0912 141.407 89.5173)" fill="#D9D9D9"/>
    <ellipse cx="204.93" cy="111.198" rx="15.7498" ry="19.5" transform="rotate(9.62099 204.93 111.198)" fill="black"/>
    <ellipse cx="199.783" cy="107.33" rx="3" ry="5" transform="rotate(15.0912 199.783 107.33)" fill="#D9D9D9"/>
    <circle cx="26.5" cy="85.2501" r="19" fill="white" stroke="black" stroke-width="3"/>
    <ellipse cx="29.5" cy="89.7501" rx="7.5" ry="8" fill="#FFD2D2"/>
    <line x1="11.554" y1="74.6948" x2="20.2247" y2="86.7703" stroke="black" stroke-width="3"/>
    <line x1="23.2122" y1="67.98" x2="31.8829" y2="80.0556" stroke="black" stroke-width="3"/>
    <path d="M256.5 307.25C256.5 309.944 254.61 312.663 250.949 314.792C247.325 316.899 242.22 318.25 236.5 318.25C230.78 318.25 225.675 316.899 222.051 314.792C218.39 312.663 216.5 309.944 216.5 307.25C216.5 304.556 218.39 301.837 222.051 299.708C225.675 297.601 230.78 296.25 236.5 296.25C242.22 296.25 247.325 297.601 250.949 299.708C254.61 301.837 256.5 304.556 256.5 307.25Z" fill="white" stroke="black" stroke-width="3"/>
    <rect x="331.5" y="20.5" width="199" height="123" fill="white" stroke="black" stroke-width="9"/>
    <path d="M354.52 42.8281C355.41 43.0391 356.207 43.2031 356.91 43.3203C357.637 43.4141 358.246 43.4844 358.738 43.5312C359.324 43.6016 359.84 43.625 360.285 43.6016C360.848 43.5781 361.551 43.4961 362.395 43.3555C363.238 43.2148 364.129 43.0742 365.066 42.9336C366.004 42.793 366.93 42.6758 367.844 42.582C368.758 42.4883 369.555 42.4766 370.234 42.5469C370.914 42.6172 371.629 42.7812 372.379 43.0391C373.129 43.2734 373.832 43.6016 374.488 44.0234C375.145 44.4219 375.707 44.9141 376.176 45.5C376.668 46.0859 376.973 46.7656 377.09 47.5391C377.207 48.2891 377.137 49.0977 376.879 49.9648C376.621 50.8086 376.211 51.6406 375.648 52.4609C375.086 53.2578 374.383 53.9961 373.539 54.6758C372.695 55.3555 371.758 55.9062 370.727 56.3281C369.906 56.6328 369.016 56.8672 368.055 57.0312C367.234 57.1719 366.273 57.2656 365.172 57.3125C364.094 57.3359 362.945 57.2188 361.727 56.9609C361.562 57.6406 361.469 58.2734 361.445 58.8594C361.445 59.4219 361.469 59.9258 361.516 60.3711C361.586 60.8867 361.68 61.3555 361.797 61.7773C361.938 62.1992 362.113 62.6914 362.324 63.2539C362.512 63.7227 362.723 64.2969 362.957 64.9766C363.215 65.6328 363.52 66.3711 363.871 67.1914C363.449 67.1914 363.039 67.2031 362.641 67.2266C362.242 67.2266 361.879 67.2383 361.551 67.2617C361.176 67.2852 360.824 67.3086 360.496 67.332C360.121 67.3555 359.699 67.4023 359.23 67.4727C358.832 67.5195 358.328 67.5898 357.719 67.6836C357.133 67.7773 356.465 67.8945 355.715 68.0352C356.207 67.332 356.594 66.6875 356.875 66.1016C357.18 65.4922 357.402 64.9648 357.543 64.5195C357.707 64.0039 357.812 63.5352 357.859 63.1133C357.883 62.7617 357.883 62.1406 357.859 61.25C357.859 60.3594 357.848 59.3281 357.824 58.1562C357.801 56.9844 357.766 55.7539 357.719 54.4648C357.672 53.1758 357.613 51.9688 357.543 50.8438C357.473 49.6953 357.391 48.7109 357.297 47.8906C357.227 47.0703 357.156 46.5312 357.086 46.2734C356.992 45.9688 356.828 45.6406 356.594 45.2891C356.406 44.9844 356.137 44.6328 355.785 44.2344C355.457 43.8125 355.035 43.3438 354.52 42.8281ZM361.797 49.7539C361.773 49.9883 361.762 50.2344 361.762 50.4922C361.762 50.9844 361.797 51.6172 361.867 52.3906C362.031 52.7891 362.23 53.1172 362.465 53.375C362.723 53.6328 362.992 53.832 363.273 53.9727C363.578 54.1133 363.883 54.207 364.188 54.2539C364.492 54.3008 364.797 54.3242 365.102 54.3242C365.805 54.3008 366.543 54.1367 367.316 53.832C368.348 53.3867 369.074 52.7539 369.496 51.9336C369.918 51.1133 370.141 50.2695 370.164 49.4023C370.188 48.5352 370.035 47.7383 369.707 47.0117C369.402 46.2852 369.027 45.793 368.582 45.5352C368.207 45.3711 367.727 45.3008 367.141 45.3242C366.625 45.3477 365.98 45.4766 365.207 45.7109C364.434 45.9453 363.484 46.3672 362.359 46.9766C362.242 47.3984 362.148 47.7734 362.078 48.1016C362.008 48.4297 361.949 48.7227 361.902 48.9805C361.855 49.2617 361.82 49.5195 361.797 49.7539ZM379.234 53.7617C379.352 53.6211 379.422 53.3633 379.445 52.9883C379.492 52.5898 379.586 52.1445 379.727 51.6523C379.891 51.1602 380.16 50.6445 380.535 50.1055C380.91 49.5664 381.52 49.0625 382.363 48.5938C383.184 48.125 383.98 47.8438 384.754 47.75C385.527 47.6562 386.266 47.6914 386.969 47.8555C387.672 48.0195 388.328 48.2773 388.938 48.6289C389.57 48.9805 390.145 49.3672 390.66 49.7891C391.012 50.0703 391.293 50.4805 391.504 51.0195C391.715 51.5352 391.879 52.1211 391.996 52.7773C392.113 53.4336 392.195 54.125 392.242 54.8516C392.312 55.5547 392.359 56.2461 392.383 56.9258C392.406 57.582 392.418 58.1914 392.418 58.7539C392.441 59.293 392.488 59.7383 392.559 60.0898C392.652 60.6055 392.816 61.0508 393.051 61.4258C393.285 61.7773 393.543 62.082 393.824 62.3398C394.105 62.5742 394.387 62.7617 394.668 62.9023C394.949 63.043 395.195 63.1484 395.406 63.2188C395.547 63.2891 395.676 63.3359 395.793 63.3594C396.027 63.4531 396.191 63.4531 396.285 63.3594C396.145 63.6875 396.016 63.9688 395.898 64.2031C395.781 64.4375 395.688 64.6367 395.617 64.8008C395.523 64.9883 395.441 65.1406 395.371 65.2578C395.301 65.3984 395.219 65.5273 395.125 65.6445C395.055 65.7617 394.961 65.8906 394.844 66.0312C394.727 66.1719 394.609 66.3242 394.492 66.4883C394.188 66.3711 393.895 66.2305 393.613 66.0664C393.355 65.9023 393.121 65.75 392.91 65.6094C392.652 65.4453 392.418 65.2812 392.207 65.1172C391.996 64.9531 391.797 64.7656 391.609 64.5547C391.445 64.3672 391.27 64.168 391.082 63.957C390.918 63.7461 390.777 63.5117 390.66 63.2539C390.52 63.5586 390.18 63.9922 389.641 64.5547C389.125 65.1172 388.445 65.6328 387.602 66.1016C386.758 66.5469 385.773 66.8633 384.648 67.0508C383.547 67.2383 382.328 67.1094 380.992 66.6641C380.406 66.4766 379.855 66.207 379.34 65.8555C378.824 65.4805 378.379 65.0352 378.004 64.5195C377.652 64.0039 377.395 63.418 377.23 62.7617C377.09 62.082 377.102 61.332 377.266 60.5117C377.43 59.6914 377.723 59 378.145 58.4375C378.566 57.875 379.07 57.418 379.656 57.0664C380.242 56.7148 380.898 56.4453 381.625 56.2578C382.352 56.0703 383.102 55.9414 383.875 55.8711C384.484 55.8477 385.094 55.8828 385.703 55.9766C386.219 56.0703 386.758 56.2461 387.32 56.5039C387.883 56.7383 388.363 57.1016 388.762 57.5938C388.738 56.3516 388.691 55.3672 388.621 54.6406C388.574 53.8906 388.527 53.3164 388.48 52.918C388.387 52.4492 388.305 52.1211 388.234 51.9336C388.117 51.7695 387.988 51.582 387.848 51.3711C387.73 51.1602 387.578 50.9727 387.391 50.8086C387.203 50.6211 386.969 50.4688 386.688 50.3516C386.406 50.2344 386.078 50.1875 385.703 50.2109C385.305 50.2344 384.988 50.3398 384.754 50.5273C384.52 50.7148 384.332 50.9375 384.191 51.1953C384.074 51.4297 384.004 51.6875 383.98 51.9688C383.957 52.25 383.969 52.4961 384.016 52.707C384.062 52.8477 384.133 53 384.227 53.1641C384.32 53.3047 384.449 53.457 384.613 53.6211C384.777 53.7852 385 53.9258 385.281 54.043C384.742 54.1133 384.262 54.1719 383.84 54.2188C383.418 54.2422 383.055 54.2773 382.75 54.3242C382.398 54.3711 382.094 54.4062 381.836 54.4297C381.578 54.4531 381.273 54.5 380.922 54.5703C380.617 54.6172 380.242 54.6758 379.797 54.7461C379.352 54.8164 378.836 54.9102 378.25 55.0273C378.391 54.8633 378.52 54.7109 378.637 54.5703C378.754 54.4062 378.859 54.2656 378.953 54.1484C379.047 54.0078 379.141 53.8789 379.234 53.7617ZM384.508 57.9453C384.086 57.9688 383.664 58.0742 383.242 58.2617C382.82 58.4258 382.445 58.6719 382.117 59C381.789 59.3047 381.508 59.668 381.273 60.0898C381.062 60.4883 380.957 60.9336 380.957 61.4258C380.957 61.918 381.074 62.3516 381.309 62.7266C381.566 63.0781 381.895 63.3711 382.293 63.6055C382.715 63.8398 383.16 63.9805 383.629 64.0273C384.121 64.0742 384.602 64.0273 385.07 63.8867C385.516 63.7227 385.938 63.4648 386.336 63.1133C386.734 62.7383 387.074 62.3398 387.355 61.918C387.637 61.4727 387.836 61.0391 387.953 60.6172C388.07 60.1719 388.082 59.8086 387.988 59.5273C387.801 58.918 387.379 58.4961 386.723 58.2617C386.066 58.0039 385.328 57.8984 384.508 57.9453ZM412.527 53.0938C412.457 52.625 412.398 52.2383 412.352 51.9336C412.305 51.6055 412.258 51.3477 412.211 51.1602C412.164 50.9258 412.129 50.75 412.105 50.6328C412.059 50.5156 412 50.3867 411.93 50.2461C411.883 50.1289 411.801 49.9883 411.684 49.8242C411.59 49.6602 411.473 49.4727 411.332 49.2617C411.637 49.3555 411.941 49.4141 412.246 49.4375C412.574 49.4609 412.879 49.4844 413.16 49.5078C413.465 49.5312 413.781 49.5312 414.109 49.5078C414.438 49.5078 414.812 49.4961 415.234 49.4727C415.609 49.4492 416.055 49.4375 416.57 49.4375C417.109 49.4141 417.719 49.3789 418.398 49.332C418 49.4258 417.66 49.5898 417.379 49.8242C417.121 50.0352 416.898 50.2695 416.711 50.5273C416.5 50.8086 416.324 51.1133 416.184 51.4414C416.066 51.7461 415.996 52.332 415.973 53.1992C415.949 54.043 415.949 55.0508 415.973 56.2227C415.996 57.3711 416.02 58.6133 416.043 59.9492C416.09 61.2852 416.113 62.5625 416.113 63.7812C416.137 65 416.137 66.1133 416.113 67.1211C416.09 68.1055 416.031 68.832 415.938 69.3008C415.609 70.7773 415 71.9727 414.109 72.8867C413.219 73.8242 412.047 74.3281 410.594 74.3984C408.836 74.4688 407.441 74.3047 406.41 73.9062C405.402 73.5078 404.617 73.0156 404.055 72.4297C403.492 71.8672 403.07 71.293 402.789 70.707C402.508 70.1211 402.215 69.6758 401.91 69.3711C401.629 69.1133 401.348 68.8672 401.066 68.6328C400.809 68.4453 400.539 68.2578 400.258 68.0703C400 67.8828 399.742 67.7656 399.484 67.7188C400.164 67.7422 400.773 67.7539 401.312 67.7539C401.852 67.7539 402.309 67.7539 402.684 67.7539C403.105 67.7539 403.48 67.7422 403.809 67.7188H404.934H408.133C407.664 67.8594 407.312 68.0117 407.078 68.1758C406.844 68.3633 406.68 68.5508 406.586 68.7383C406.492 68.9492 406.445 69.1602 406.445 69.3711C406.539 69.9336 406.844 70.3438 407.359 70.6016C407.875 70.8594 408.578 71.0117 409.469 71.0586C410.336 71.1055 410.934 71.082 411.262 70.9883C411.59 70.918 411.848 70.7773 412.035 70.5664C412.41 70.0039 412.727 69.2773 412.984 68.3867C413.172 67.6367 413.301 66.6641 413.371 65.4688C413.465 64.25 413.359 62.7617 413.055 61.0039C412.305 62.0352 411.438 62.8086 410.453 63.3242C409.469 63.8398 408.531 64.2148 407.641 64.4492C406.586 64.707 405.52 64.8359 404.441 64.8359C401.605 64.7188 399.484 64.0625 398.078 62.8672C396.672 61.6719 396.027 60.0664 396.145 58.0508C396.215 57.043 396.52 56.0352 397.059 55.0273C397.621 54.0195 398.348 53.1172 399.238 52.3203C400.152 51.5234 401.195 50.8906 402.367 50.4219C403.539 49.9531 404.758 49.7539 406.023 49.8242C406.984 49.918 407.887 50.0938 408.73 50.3516C409.457 50.5859 410.172 50.9141 410.875 51.3359C411.602 51.7578 412.152 52.3438 412.527 53.0938ZM401.348 56.6094C401.207 57.5234 401.266 58.3789 401.523 59.1758C401.805 59.9727 402.191 60.6641 402.684 61.25C403.176 61.8125 403.727 62.2578 404.336 62.5859C404.945 62.8906 405.52 63.0312 406.059 63.0078C407.184 62.9844 408.156 62.4805 408.977 61.4961C409.797 60.4883 410.289 58.9883 410.453 56.9961C410.523 56.0117 410.395 55.168 410.066 54.4648C409.762 53.7383 409.375 53.1523 408.906 52.707C408.438 52.2617 407.945 51.9453 407.43 51.7578C406.914 51.5703 406.504 51.4883 406.199 51.5117C405.777 51.5586 405.309 51.6875 404.793 51.8984C404.301 52.0859 403.82 52.3789 403.352 52.7773C402.883 53.1523 402.461 53.6562 402.086 54.2891C401.734 54.9219 401.488 55.6953 401.348 56.6094ZM427.855 62.3398C428.512 62.3398 429.121 62.2695 429.684 62.1289C430.152 62.0117 430.598 61.8242 431.02 61.5664C431.465 61.2852 431.758 60.875 431.898 60.3359C432.367 60.4297 432.766 60.5117 433.094 60.582C433.422 60.6289 433.703 60.6758 433.938 60.7227C434.195 60.793 434.418 60.8398 434.605 60.8633C434.793 60.9102 435.016 60.957 435.273 61.0039C435.508 61.0508 435.789 61.1094 436.117 61.1797C436.469 61.2266 436.879 61.2969 437.348 61.3906C436.996 61.3438 436.633 61.3789 436.258 61.4961C435.906 61.6133 435.566 61.7422 435.238 61.8828C434.863 62.0469 434.512 62.2461 434.184 62.4805C433.973 62.6211 433.727 62.832 433.445 63.1133C433.188 63.3945 432.812 63.6641 432.32 63.9219C431.828 64.1797 431.172 64.4023 430.352 64.5898C429.555 64.7539 428.523 64.8125 427.258 64.7656C425.734 64.7188 424.457 64.4492 423.426 63.957C422.395 63.4414 421.562 62.8203 420.93 62.0938C420.297 61.3438 419.84 60.5352 419.559 59.668C419.277 58.8008 419.125 57.9922 419.102 57.2422C419.078 56.4922 419.301 55.707 419.77 54.8867C420.238 54.0664 420.895 53.3164 421.738 52.6367C422.605 51.957 423.648 51.4062 424.867 50.9844C426.086 50.5391 427.422 50.3164 428.875 50.3164C429.719 50.3164 430.492 50.4219 431.195 50.6328C431.922 50.8203 432.578 51.0781 433.164 51.4062C433.773 51.7344 434.301 52.1094 434.746 52.5312C435.191 52.9297 435.566 53.3398 435.871 53.7617C436.176 54.207 436.434 54.6758 436.645 55.168C436.832 55.5898 436.984 56.0703 437.102 56.6094C437.219 57.1484 437.254 57.6992 437.207 58.2617C435.426 58.3086 433.984 58.3438 432.883 58.3672C431.805 58.3906 430.961 58.4023 430.352 58.4023H428.77H427.574C427.152 58.4023 426.602 58.4141 425.922 58.4375C425.242 58.4609 424.41 58.4961 423.426 58.543C423.543 59.4805 423.836 60.207 424.305 60.7227C424.797 61.2148 425.312 61.5898 425.852 61.8477C426.461 62.1289 427.129 62.293 427.855 62.3398ZM424.691 56.0117C425.441 56.0586 426.062 56.0938 426.555 56.1172C427.07 56.1406 427.492 56.1641 427.82 56.1875C428.172 56.2109 428.453 56.2227 428.664 56.2227H429.543C430.129 56.2227 431.219 56.1875 432.812 56.1172C432.742 55.0859 432.52 54.3008 432.145 53.7617C431.793 53.2227 431.418 52.8242 431.02 52.5664C430.551 52.2852 430.035 52.1211 429.473 52.0742C427.949 52.0977 426.812 52.4141 426.062 53.0234C425.336 53.6328 424.879 54.6289 424.691 56.0117ZM449.441 43.0742C450.496 43.2617 451.363 43.3906 452.043 43.4609C452.723 43.5312 453.273 43.5898 453.695 43.6367C454.188 43.6836 454.574 43.6953 454.855 43.6719H455.91C456.285 43.6719 456.754 43.6719 457.316 43.6719C457.902 43.6484 458.629 43.6367 459.496 43.6367C459.988 44.7852 460.434 45.8398 460.832 46.8008C461.254 47.7617 461.605 48.582 461.887 49.2617C462.215 50.082 462.52 50.8203 462.801 51.4766C463.129 52.2969 463.48 53.1992 463.855 54.1836C464.23 55.168 464.57 56.0938 464.875 56.9609C465.203 57.8281 465.473 58.543 465.684 59.1055C465.895 59.668 466 59.9258 466 59.8789C466 59.8555 466.012 59.6211 466.035 59.1758C466.059 58.707 466.082 58.1328 466.105 57.4531C466.129 56.75 466.152 55.9883 466.176 55.168C466.223 54.3242 466.246 53.5156 466.246 52.7422C466.27 51.9453 466.281 51.2188 466.281 50.5625C466.281 49.9062 466.258 49.4141 466.211 49.0859C466.141 48.6875 466 48.2305 465.789 47.7148C465.602 47.2695 465.344 46.7422 465.016 46.1328C464.688 45.5 464.23 44.7852 463.645 43.9883C464.605 44.0117 465.391 44.0234 466 44.0234C466.609 44.0234 467.102 44.0234 467.477 44.0234C467.898 44.0234 468.227 44.0117 468.461 43.9883C468.766 43.9883 469.141 43.9648 469.586 43.918C469.984 43.8711 470.477 43.8359 471.062 43.8125C471.672 43.7656 472.422 43.707 473.312 43.6367C472.797 44.1055 472.387 44.5508 472.082 44.9727C471.777 45.3945 471.531 45.7695 471.344 46.0977C471.133 46.4727 470.992 46.8242 470.922 47.1523C470.828 47.5742 470.746 48.2656 470.676 49.2266C470.629 50.1641 470.57 51.2188 470.5 52.3906C470.453 53.5625 470.406 54.7812 470.359 56.0469C470.312 57.3125 470.266 58.4727 470.219 59.5273C470.219 60.3242 470.195 61.1797 470.148 62.0938C470.102 62.8672 470.055 63.7461 470.008 64.7305C469.961 65.6914 469.902 66.6641 469.832 67.6484L466.703 67.7188C465.789 66.1016 465.016 64.7188 464.383 63.5703C463.773 62.3984 463.27 61.4375 462.871 60.6875C462.426 59.8203 462.051 59.0938 461.746 58.5078C461.488 57.9453 461.148 57.3008 460.727 56.5742C460.375 55.9648 459.93 55.2148 459.391 54.3242C458.875 53.4336 458.254 52.4141 457.527 51.2656C457.457 52.8828 457.422 54.2656 457.422 55.4141C457.445 56.5391 457.48 57.4766 457.527 58.2266C457.598 59.0938 457.68 59.8203 457.773 60.4062C457.891 60.9688 458.055 61.6016 458.266 62.3047C458.453 62.9141 458.676 63.6289 458.934 64.4492C459.215 65.2695 459.555 66.1953 459.953 67.2266C458.57 67.1562 457.539 67.1211 456.859 67.1211H455.805C455.477 67.1211 455.031 67.1562 454.469 67.2266C454 67.2734 453.355 67.3438 452.535 67.4375C451.738 67.5312 450.742 67.6602 449.547 67.8242C450.109 67.1445 450.555 66.5234 450.883 65.9609C451.234 65.375 451.504 64.8828 451.691 64.4844C451.926 64.0156 452.09 63.6055 452.184 63.2539C452.254 62.8789 452.301 62.2344 452.324 61.3203C452.348 60.3828 452.348 59.3281 452.324 58.1562C452.324 56.9609 452.301 55.707 452.254 54.3945C452.23 53.082 452.195 51.8633 452.148 50.7383C452.102 49.6133 452.043 48.6523 451.973 47.8555C451.926 47.0586 451.891 46.5664 451.867 46.3789C451.797 46.0742 451.656 45.7461 451.445 45.3945C451.258 45.0898 451.012 44.75 450.707 44.375C450.402 43.9766 449.98 43.543 449.441 43.0742ZM482.734 52.25C483.344 52.25 483.977 52.3672 484.633 52.6016C485.289 52.8125 485.922 53.0938 486.531 53.4453C487.141 53.7734 487.691 54.1367 488.184 54.5352C488.699 54.9102 489.121 55.2734 489.449 55.625C490.035 56.2578 490.434 57.1133 490.645 58.1914C490.879 59.2461 490.926 60.3359 490.785 61.4609C490.645 62.5625 490.316 63.6055 489.801 64.5898C489.285 65.5742 488.57 66.3008 487.656 66.7695C487 67.0977 486.355 67.3555 485.723 67.543C485.09 67.7305 484.48 67.8711 483.895 67.9648C483.309 68.0586 482.758 68.1055 482.242 68.1055C481.727 68.1055 481.281 68.0938 480.906 68.0703C480.203 68.0234 479.465 67.7773 478.691 67.332C477.941 66.8867 477.227 66.3359 476.547 65.6797C475.891 65.0234 475.328 64.3086 474.859 63.5352C474.391 62.7383 474.109 61.9883 474.016 61.2852C473.875 60.3242 473.852 59.3164 473.945 58.2617C474.039 57.207 474.379 56.2344 474.965 55.3438C475.574 54.4531 476.488 53.7148 477.707 53.1289C478.949 52.543 480.625 52.25 482.734 52.25ZM481.574 65.8906C481.832 65.9375 482.184 65.8789 482.629 65.7148C483.074 65.5273 483.508 65.2344 483.93 64.8359C484.375 64.4375 484.762 63.9336 485.09 63.3242C485.441 62.6914 485.652 61.9297 485.723 61.0391C485.793 60.1719 485.793 59.375 485.723 58.6484C485.676 57.9219 485.57 57.2891 485.406 56.75C485.242 56.1875 485.055 55.7305 484.844 55.3789C484.633 55.0273 484.41 54.7812 484.176 54.6406C483.777 54.4297 483.297 54.2656 482.734 54.1484C482.172 54.0078 481.691 54.0312 481.293 54.2188C481.105 54.3125 480.871 54.5117 480.59 54.8164C480.309 55.1211 480.027 55.5078 479.746 55.9766C479.465 56.4219 479.207 56.9375 478.973 57.5234C478.762 58.1094 478.609 58.7188 478.516 59.3516C478.422 59.9844 478.398 60.6641 478.445 61.3906C478.516 62.1172 478.668 62.8086 478.902 63.4648C479.137 64.0977 479.465 64.6484 479.887 65.1172C480.332 65.5625 480.895 65.8203 481.574 65.8906ZM492.051 45.8516C492.754 45.9219 493.34 45.9805 493.809 46.0273C494.301 46.0742 494.699 46.1094 495.004 46.1328C495.355 46.1562 495.637 46.168 495.848 46.168C496.059 46.1914 496.34 46.1914 496.691 46.168C496.996 46.1445 497.395 46.1211 497.887 46.0977C498.379 46.0508 499 45.9805 499.75 45.8867C499.586 46.1211 499.457 46.332 499.363 46.5195C499.27 46.6836 499.188 46.8359 499.117 46.9766L498.906 47.3984C498.859 47.5391 498.812 47.6797 498.766 47.8203C498.719 47.9375 498.672 48.0781 498.625 48.2422C498.602 48.4062 498.578 48.582 498.555 48.7695H503.969L503.477 51.6172L498.52 51.3359C498.402 52.5312 498.32 53.457 498.273 54.1133C498.227 54.7695 498.18 55.25 498.133 55.5547L498.062 56.1875C497.992 57.0781 497.922 58.0508 497.852 59.1055C497.781 60.1367 497.758 61.0977 497.781 61.9883C497.805 62.8789 497.887 63.6289 498.027 64.2383C498.168 64.8242 498.414 65.1172 498.766 65.1172C499.117 65.1172 499.445 65.0234 499.75 64.8359C500.055 64.6484 500.312 64.4258 500.523 64.168C500.758 63.9102 500.934 63.6523 501.051 63.3945C501.168 63.1133 501.227 62.9023 501.227 62.7617C501.227 62.6211 501.191 62.457 501.121 62.2695C501.004 61.918 500.793 61.4727 500.488 60.9336C501.168 61.0977 501.766 61.2617 502.281 61.4258C502.539 61.5195 502.773 61.6133 502.984 61.707C503.219 61.8008 503.488 61.9062 503.793 62.0234C504.051 62.1406 504.379 62.2812 504.777 62.4453C505.176 62.6094 505.645 62.8086 506.184 63.043C505.668 63.1367 505.293 63.2891 505.059 63.5C504.918 63.5938 504.812 63.6992 504.742 63.8164C504.578 64.0742 504.391 64.4258 504.18 64.8711C503.969 65.293 503.652 65.7148 503.23 66.1367C502.809 66.5586 502.234 66.9336 501.508 67.2617C500.805 67.5898 499.855 67.7773 498.66 67.8242C497.418 67.8711 496.469 67.6602 495.812 67.1914C495.18 66.7227 494.711 66.1836 494.406 65.5742C494.125 64.9414 493.961 64.3203 493.914 63.7109C493.867 63.1016 493.832 62.6914 493.809 62.4805C493.785 62.2695 493.785 61.7422 493.809 60.8984C493.832 60.0547 493.867 59.1289 493.914 58.1211C493.961 57.0898 494.008 56.1055 494.055 55.168C494.102 54.207 494.125 53.5039 494.125 53.0586C494.125 52.8242 494.137 52.5781 494.16 52.3203C494.16 52.1094 494.16 51.8867 494.16 51.6523C494.184 51.3945 494.195 51.1484 494.195 50.9141L489.098 50.8789L488.887 48.875L494.02 49.0156C493.973 48.7578 493.914 48.5234 493.844 48.3125C493.797 48.0781 493.75 47.8906 493.703 47.75C493.633 47.5859 493.562 47.4453 493.492 47.3281C493.398 47.2109 493.293 47.082 493.176 46.9414C493.059 46.8242 492.906 46.6719 492.719 46.4844C492.531 46.2969 492.309 46.0859 492.051 45.8516ZM366.016 87.7422C367.422 87.8594 368.652 87.9297 369.707 87.9531C370.785 87.9766 371.699 87.9883 372.449 87.9883C373.316 87.9883 374.066 87.9648 374.699 87.918C375.355 87.8477 376.211 87.7539 377.266 87.6367C378.156 87.5195 379.305 87.3672 380.711 87.1797C382.117 86.9688 383.828 86.6992 385.844 86.3711C385.586 86.7695 385.363 87.1914 385.176 87.6367C385.012 88.0586 384.871 88.4453 384.754 88.7969C384.637 89.2188 384.531 89.6289 384.438 90.0273C384.367 90.4727 384.285 91.0234 384.191 91.6797C384.098 92.2422 383.98 92.957 383.84 93.8242C383.723 94.668 383.57 95.6758 383.383 96.8477C382.68 95.0195 381.965 93.6133 381.238 92.6289C380.535 91.6445 379.879 90.918 379.27 90.4492C378.566 89.9102 377.898 89.6055 377.266 89.5352C376.352 89.5352 375.602 89.7109 375.016 90.0625C374.43 90.4141 373.949 90.8711 373.574 91.4336C373.223 91.9727 372.953 92.5703 372.766 93.2266C372.578 93.8594 372.449 94.4805 372.379 95.0898C372.309 95.6758 372.262 96.2031 372.238 96.6719C372.215 97.1172 372.191 97.4219 372.168 97.5859C372.988 97.5391 373.68 97.4805 374.242 97.4102C374.805 97.3398 375.25 97.2695 375.578 97.1992C375.977 97.1055 376.293 97.0117 376.527 96.918C376.879 96.7305 377.23 96.5078 377.582 96.25C377.887 96.0156 378.203 95.7344 378.531 95.4062C378.883 95.0781 379.188 94.6797 379.445 94.2109C379.305 95.0547 379.176 95.7578 379.059 96.3203C378.965 96.8828 378.883 97.3281 378.812 97.6562C378.719 98.0547 378.66 98.3594 378.637 98.5703C378.59 98.7812 378.531 99.0742 378.461 99.4492C378.391 99.7773 378.309 100.199 378.215 100.715C378.121 101.23 378.016 101.875 377.898 102.648C377.617 102.156 377.324 101.758 377.02 101.453C376.715 101.125 376.434 100.867 376.176 100.68C375.871 100.469 375.578 100.305 375.297 100.188C374.992 100.094 374.664 100 374.312 99.9062C374.008 99.8359 373.645 99.7656 373.223 99.6953C372.824 99.6016 372.391 99.5195 371.922 99.4492C371.969 100.715 372.039 101.805 372.133 102.719C372.227 103.609 372.309 104.359 372.379 104.969C372.473 105.672 372.566 106.258 372.66 106.727C372.777 107.195 372.965 107.699 373.223 108.238C373.434 108.707 373.727 109.246 374.102 109.855C374.5 110.441 375.004 111.074 375.613 111.754C375.145 111.637 374.652 111.555 374.137 111.508C373.621 111.461 373.164 111.426 372.766 111.402C372.273 111.379 371.805 111.379 371.359 111.402C370.891 111.426 370.375 111.473 369.812 111.543C369.344 111.59 368.805 111.66 368.195 111.754C367.586 111.848 366.941 111.953 366.262 112.07C366.66 111.672 366.988 111.273 367.246 110.875C367.504 110.477 367.691 110.125 367.809 109.82C367.949 109.469 368.043 109.129 368.09 108.801C368.113 108.52 368.125 107.91 368.125 106.973C368.125 106.012 368.113 104.898 368.09 103.633C368.066 102.344 368.031 100.984 367.984 99.5547C367.938 98.125 367.891 96.7891 367.844 95.5469C367.797 94.2812 367.738 93.2031 367.668 92.3125C367.621 91.4219 367.562 90.8828 367.492 90.6953C367.398 90.4609 367.293 90.1914 367.176 89.8867C366.988 89.3945 366.602 88.6797 366.016 87.7422ZM391.68 96.25C392.289 96.25 392.922 96.3672 393.578 96.6016C394.234 96.8125 394.867 97.0938 395.477 97.4453C396.086 97.7734 396.637 98.1367 397.129 98.5352C397.645 98.9102 398.066 99.2734 398.395 99.625C398.98 100.258 399.379 101.113 399.59 102.191C399.824 103.246 399.871 104.336 399.73 105.461C399.59 106.562 399.262 107.605 398.746 108.59C398.23 109.574 397.516 110.301 396.602 110.77C395.945 111.098 395.301 111.355 394.668 111.543C394.035 111.73 393.426 111.871 392.84 111.965C392.254 112.059 391.703 112.105 391.188 112.105C390.672 112.105 390.227 112.094 389.852 112.07C389.148 112.023 388.41 111.777 387.637 111.332C386.887 110.887 386.172 110.336 385.492 109.68C384.836 109.023 384.273 108.309 383.805 107.535C383.336 106.738 383.055 105.988 382.961 105.285C382.82 104.324 382.797 103.316 382.891 102.262C382.984 101.207 383.324 100.234 383.91 99.3438C384.52 98.4531 385.434 97.7148 386.652 97.1289C387.895 96.543 389.57 96.25 391.68 96.25ZM390.52 109.891C390.777 109.938 391.129 109.879 391.574 109.715C392.02 109.527 392.453 109.234 392.875 108.836C393.32 108.438 393.707 107.934 394.035 107.324C394.387 106.691 394.598 105.93 394.668 105.039C394.738 104.172 394.738 103.375 394.668 102.648C394.621 101.922 394.516 101.289 394.352 100.75C394.188 100.188 394 99.7305 393.789 99.3789C393.578 99.0273 393.355 98.7812 393.121 98.6406C392.723 98.4297 392.242 98.2656 391.68 98.1484C391.117 98.0078 390.637 98.0312 390.238 98.2188C390.051 98.3125 389.816 98.5117 389.535 98.8164C389.254 99.1211 388.973 99.5078 388.691 99.9766C388.41 100.422 388.152 100.938 387.918 101.523C387.707 102.109 387.555 102.719 387.461 103.352C387.367 103.984 387.344 104.664 387.391 105.391C387.461 106.117 387.613 106.809 387.848 107.465C388.082 108.098 388.41 108.648 388.832 109.117C389.277 109.562 389.84 109.82 390.52 109.891ZM401.594 95.8281C402.203 95.9453 402.73 96.0391 403.176 96.1094C403.645 96.1562 404.043 96.2031 404.371 96.25C404.746 96.2969 405.074 96.332 405.355 96.3555C405.637 96.3789 405.965 96.4023 406.34 96.4258C406.973 96.4492 407.863 96.4492 409.012 96.4258C408.332 96.3789 407.793 96.5547 407.395 96.9531C407.02 97.3281 406.738 97.7617 406.551 98.2539C406.316 98.8398 406.188 99.5195 406.164 100.293C406.117 101.324 406.141 102.262 406.234 103.105C406.352 103.926 406.551 104.629 406.832 105.215C407.137 105.777 407.535 106.199 408.027 106.48C408.52 106.738 409.152 106.809 409.926 106.691C410.699 106.574 411.285 106.305 411.684 105.883C412.105 105.438 412.41 104.898 412.598 104.266C412.785 103.609 412.891 102.871 412.914 102.051C412.961 101.23 412.996 100.375 413.02 99.4844C413.02 98.5938 413.008 97.9609 412.984 97.5859C412.984 97.1875 412.973 96.9297 412.949 96.8125C412.926 96.6953 412.891 96.6484 412.844 96.6719C412.797 96.6719 412.738 96.6133 412.668 96.4961C412.621 96.4023 412.551 96.3086 412.457 96.2148C412.387 96.1211 412.293 96.0156 412.176 95.8984C412.059 95.7578 411.93 95.6172 411.789 95.4766C412.398 95.5 412.938 95.5234 413.406 95.5469C413.898 95.5469 414.309 95.5586 414.637 95.582C415.012 95.6055 415.34 95.6289 415.621 95.6523C415.879 95.6758 416.219 95.7109 416.641 95.7578C416.992 95.8047 417.449 95.8516 418.012 95.8984C418.574 95.9453 419.242 96.0156 420.016 96.1094C419.477 96.2266 419.043 96.4023 418.715 96.6367C418.387 96.8711 418.129 97.1055 417.941 97.3398C417.73 97.5977 417.578 97.8789 417.484 98.1836C417.414 98.582 417.414 99.1914 417.484 100.012C417.531 100.738 417.648 101.734 417.836 103C418.023 104.266 418.316 105.93 418.715 107.992L415.938 109.645L415.375 104.969C414.695 106.117 413.969 107.008 413.195 107.641C412.445 108.25 411.742 108.695 411.086 108.977C410.312 109.305 409.562 109.492 408.836 109.539C407.875 109.539 407.043 109.48 406.34 109.363C405.66 109.223 405.074 109.047 404.582 108.836C404.09 108.625 403.691 108.391 403.387 108.133C403.105 107.852 402.895 107.57 402.754 107.289C402.426 106.703 402.25 105.953 402.227 105.039C402.203 104.102 402.238 103.176 402.332 102.262C402.426 101.324 402.531 100.469 402.648 99.6953C402.766 98.9219 402.801 98.3945 402.754 98.1133C402.707 97.9023 402.637 97.668 402.543 97.4102C402.449 97.1992 402.332 96.9648 402.191 96.707C402.051 96.4258 401.852 96.1328 401.594 95.8281ZM421.633 108.133C421.797 107.359 421.914 106.68 421.984 106.094C422.078 105.484 422.148 104.98 422.195 104.582C422.242 104.113 422.266 103.715 422.266 103.387C422.242 102.988 422.219 102.52 422.195 101.98C422.195 101.418 422.172 100.867 422.125 100.328C422.102 99.7656 422.066 99.2734 422.02 98.8516C421.973 98.4062 421.914 98.0898 421.844 97.9023C421.75 97.7148 421.621 97.5156 421.457 97.3047C421.129 96.9062 420.648 96.5195 420.016 96.1445C420.555 96.0273 421.012 95.9336 421.387 95.8633C421.785 95.7695 422.113 95.6875 422.371 95.6172C422.652 95.5234 422.898 95.4414 423.109 95.3711C423.297 95.3008 423.52 95.2305 423.777 95.1602C423.988 95.1133 424.246 95.0547 424.551 94.9844C424.855 94.9141 425.207 94.832 425.605 94.7383L425.5 97.9375C426.25 97.0469 427.012 96.3789 427.785 95.9336C428.559 95.4883 429.285 95.1719 429.965 94.9844C430.738 94.75 431.5 94.6328 432.25 94.6328C433.188 94.6797 434.055 94.832 434.852 95.0898C435.672 95.3477 436.375 95.6523 436.961 96.0039C437.57 96.332 438.062 96.6836 438.438 97.0586C438.812 97.4336 439.035 97.7617 439.105 98.043C439.387 98.957 439.457 99.8008 439.316 100.574C439.176 101.324 438.988 102.062 438.754 102.789C438.543 103.492 438.355 104.195 438.191 104.898C438.051 105.602 438.109 106.363 438.367 107.184C438.461 107.395 438.555 107.605 438.648 107.816C438.742 108.004 438.859 108.191 439 108.379C439.141 108.566 439.305 108.719 439.492 108.836C439.234 108.812 438.977 108.801 438.719 108.801C438.461 108.777 438.227 108.754 438.016 108.73C437.758 108.707 437.523 108.684 437.312 108.66C437.078 108.637 436.762 108.625 436.363 108.625C435.684 108.625 434.629 108.66 433.199 108.73C433.41 108.238 433.574 107.828 433.691 107.5C433.832 107.148 433.949 106.867 434.043 106.656C434.137 106.398 434.207 106.199 434.254 106.059C434.535 105.379 434.699 104.605 434.746 103.738C434.816 102.871 434.758 101.992 434.57 101.102C434.5 100.797 434.383 100.434 434.219 100.012C434.055 99.5898 433.832 99.1797 433.551 98.7812C433.293 98.3828 432.977 98.043 432.602 97.7617C432.25 97.4805 431.84 97.3164 431.371 97.2695C430.902 97.2227 430.375 97.3398 429.789 97.6211C429.227 97.9023 428.617 98.418 427.961 99.168C427.469 99.8008 427.082 100.574 426.801 101.488C426.543 102.262 426.367 103.234 426.273 104.406C426.18 105.555 426.32 106.902 426.695 108.449C426.367 108.402 426.062 108.379 425.781 108.379C425.5 108.355 425.266 108.332 425.078 108.309C424.844 108.285 424.633 108.262 424.445 108.238C424.234 108.238 424 108.227 423.742 108.203C423.508 108.203 423.215 108.203 422.863 108.203C422.512 108.18 422.102 108.156 421.633 108.133ZM458.547 85.0703C458.992 85.0938 459.473 85.1055 459.988 85.1055C460.434 85.1055 460.938 85.1172 461.5 85.1406C462.086 85.1406 462.695 85.1172 463.328 85.0703C462.766 85.3281 462.273 85.7031 461.852 86.1953C461.43 86.6875 461.09 87.1797 460.832 87.6719C460.504 88.2578 460.234 88.8672 460.023 89.5C459.906 89.875 459.812 90.543 459.742 91.5039C459.672 92.4414 459.613 93.543 459.566 94.8086C459.543 96.0742 459.531 97.4102 459.531 98.8164C459.531 100.223 459.543 101.57 459.566 102.859C459.59 104.125 459.625 105.25 459.672 106.234C459.719 107.219 459.777 107.91 459.848 108.309C459.941 108.777 460.059 109.223 460.199 109.645C460.316 110.02 460.469 110.406 460.656 110.805C460.844 111.18 461.078 111.484 461.359 111.719L457.773 113.336C457.586 113.078 457.434 112.809 457.316 112.527C457.199 112.27 457.105 112.035 457.035 111.824C456.941 111.566 456.883 111.332 456.859 111.121C456.812 110.84 456.766 110.535 456.719 110.207C456.672 109.855 456.613 109.527 456.543 109.223C456.496 108.895 456.461 108.625 456.438 108.414C456.414 108.203 456.414 108.074 456.438 108.027C456.461 107.98 456.32 108.191 456.016 108.66C455.711 109.105 455.254 109.633 454.645 110.242C454.059 110.828 453.332 111.402 452.465 111.965C451.598 112.504 450.625 112.844 449.547 112.984C448.445 113.125 447.426 112.914 446.488 112.352C445.574 111.789 444.789 111.004 444.133 109.996C443.477 108.965 442.973 107.781 442.621 106.445C442.293 105.086 442.164 103.703 442.234 102.297C442.281 101.359 442.492 100.527 442.867 99.8008C443.242 99.0508 443.711 98.4062 444.273 97.8672C444.859 97.3047 445.492 96.8359 446.172 96.4609C446.875 96.0625 447.555 95.7344 448.211 95.4766C448.891 95.2188 449.523 95.0312 450.109 94.9141C450.695 94.7969 451.164 94.7148 451.516 94.668C451.938 94.6445 452.418 94.7148 452.957 94.8789C453.426 95.0195 453.965 95.2539 454.574 95.582C455.207 95.9102 455.91 96.4023 456.684 97.0586C456.543 94.7148 456.414 92.8398 456.297 91.4336C456.18 90.0039 456.062 88.9141 455.945 88.1641C455.828 87.2734 455.723 86.6641 455.629 86.3359C455.512 86.1016 455.359 85.8672 455.172 85.6328C455.008 85.4453 454.797 85.2578 454.539 85.0703C454.305 84.8594 454.023 84.6953 453.695 84.5781C454.305 84.6953 454.891 84.7773 455.453 84.8242C456.016 84.8711 456.531 84.918 457 84.9648C457.539 85.0117 458.055 85.0469 458.547 85.0703ZM449.723 98.1836C449.277 98.3477 448.914 98.6289 448.633 99.0273C448.375 99.4258 448.164 99.9062 448 100.469C447.836 101.008 447.719 101.594 447.648 102.227C447.602 102.836 447.566 103.434 447.543 104.02C447.543 104.582 447.543 105.098 447.543 105.566C447.543 106.035 447.543 106.387 447.543 106.621C447.543 106.762 447.566 107.02 447.613 107.395C447.684 107.746 447.824 108.121 448.035 108.52C448.246 108.895 448.539 109.234 448.914 109.539C449.312 109.844 449.84 109.996 450.496 109.996C451.035 109.949 451.609 109.762 452.219 109.434C452.758 109.152 453.367 108.707 454.047 108.098C454.75 107.465 455.5 106.562 456.297 105.391C456.25 104.641 456.215 104.02 456.191 103.527C456.191 103.035 456.18 102.637 456.156 102.332C456.133 101.98 456.121 101.699 456.121 101.488V100.961C456.121 100.82 456.121 100.668 456.121 100.504C456.121 100.34 456.133 100.188 456.156 100.047C455.5 99.5781 454.914 99.1797 454.398 98.8516C453.906 98.5 453.414 98.2422 452.922 98.0781C452.453 97.8906 451.961 97.8086 451.445 97.832C450.953 97.832 450.379 97.9492 449.723 98.1836ZM476.23 86.6523C476.676 86.7695 477.098 86.8633 477.496 86.9336C477.895 86.9805 478.246 87.0273 478.551 87.0742C478.902 87.1211 479.23 87.1562 479.535 87.1797C479.863 87.2031 480.25 87.2266 480.695 87.25C481.094 87.2734 481.574 87.2852 482.137 87.2852C482.699 87.2852 483.367 87.2852 484.141 87.2852C483.461 88.9023 482.91 90.2734 482.488 91.3984C482.066 92.5 481.738 93.4141 481.504 94.1406C481.246 94.9844 481.059 95.6758 480.941 96.2148C480.848 96.7539 480.73 97.4102 480.59 98.1836C480.473 98.8633 480.309 99.6953 480.098 100.68C479.887 101.664 479.652 102.836 479.395 104.195L476.301 104.055C476.488 102.812 476.617 101.758 476.688 100.891C476.758 100 476.816 99.2617 476.863 98.6758C476.91 97.9961 476.934 97.4336 476.934 96.9883C476.934 96.5195 476.898 95.8164 476.828 94.8789C476.781 94.1055 476.711 93.0625 476.617 91.75C476.523 90.4141 476.395 88.7148 476.23 86.6523ZM480.098 106.867C480.262 107.125 480.355 107.418 480.379 107.746C480.426 108.051 480.402 108.367 480.309 108.695C480.238 109 480.086 109.293 479.852 109.574C479.641 109.855 479.348 110.078 478.973 110.242C478.223 110.594 477.555 110.688 476.969 110.523C476.383 110.336 475.949 110.031 475.668 109.609C475.504 109.375 475.41 109.117 475.387 108.836C475.387 108.531 475.445 108.238 475.562 107.957C475.68 107.652 475.867 107.371 476.125 107.113C476.383 106.855 476.711 106.645 477.109 106.48C477.883 106.152 478.516 106.035 479.008 106.129C479.523 106.223 479.887 106.469 480.098 106.867ZM486.777 86.6523C487.223 86.7695 487.645 86.8633 488.043 86.9336C488.441 86.9805 488.793 87.0273 489.098 87.0742C489.449 87.1211 489.777 87.1562 490.082 87.1797C490.41 87.2031 490.797 87.2266 491.242 87.25C491.641 87.2734 492.121 87.2852 492.684 87.2852C493.246 87.2852 493.914 87.2852 494.688 87.2852C494.008 88.9023 493.457 90.2734 493.035 91.3984C492.613 92.5 492.285 93.4141 492.051 94.1406C491.793 94.9844 491.605 95.6758 491.488 96.2148C491.395 96.7539 491.277 97.4102 491.137 98.1836C491.02 98.8633 490.855 99.6953 490.645 100.68C490.434 101.664 490.199 102.836 489.941 104.195L486.848 104.055C487.035 102.812 487.164 101.758 487.234 100.891C487.305 100 487.363 99.2617 487.41 98.6758C487.457 97.9961 487.48 97.4336 487.48 96.9883C487.48 96.5195 487.445 95.8164 487.375 94.8789C487.328 94.1055 487.258 93.0625 487.164 91.75C487.07 90.4141 486.941 88.7148 486.777 86.6523ZM490.645 106.867C490.809 107.125 490.902 107.418 490.926 107.746C490.973 108.051 490.949 108.367 490.855 108.695C490.785 109 490.633 109.293 490.398 109.574C490.188 109.855 489.895 110.078 489.52 110.242C488.77 110.594 488.102 110.688 487.516 110.523C486.93 110.336 486.496 110.031 486.215 109.609C486.051 109.375 485.957 109.117 485.934 108.836C485.934 108.531 485.992 108.238 486.109 107.957C486.227 107.652 486.414 107.371 486.672 107.113C486.93 106.855 487.258 106.645 487.656 106.48C488.43 106.152 489.062 106.035 489.555 106.129C490.07 106.223 490.434 106.469 490.645 106.867Z" fill="black"/>
    <rect x="407.5" y="161.5" width="44" height="12" fill="black" stroke="black" stroke-width="5"/>
    <line x1="430" y1="148" x2="430" y2="159" stroke="black" stroke-width="10"/>
    <rect x="328.446" y="186.541" width="181.024" height="45.5516" transform="rotate(11.5652 328.446 186.541)" fill="#DEDEDE" stroke="black" stroke-width="6"/>
    <rect x="333.56" y="193.662" width="13" height="12" transform="rotate(13.3437 333.56 193.662)" fill="white"/>
    <rect x="351.56" y="197.662" width="13" height="12" transform="rotate(13.3437 351.56 197.662)" fill="white"/>
    <rect x="369.56" y="201.662" width="13" height="12" transform="rotate(13.3437 369.56 201.662)" fill="white"/>
    <rect x="388.56" y="204.662" width="13" height="12" transform="rotate(13.3437 388.56 204.662)" fill="white"/>
    <rect x="408.56" y="208.662" width="13" height="12" transform="rotate(13.3437 408.56 208.662)" fill="white"/>
    <rect x="427.56" y="212.662" width="13" height="12" transform="rotate(13.3437 427.56 212.662)" fill="white"/>
    <rect x="445.56" y="216.662" width="13" height="12" transform="rotate(13.3437 445.56 216.662)" fill="white"/>
    <rect x="463.56" y="220.662" width="13" height="12" transform="rotate(13.3437 463.56 220.662)" fill="white"/>
    <rect x="481.56" y="224.662" width="13" height="12" transform="rotate(13.3437 481.56 224.662)" fill="white"/>
    <rect x="333.56" y="193.662" width="13" height="12" transform="rotate(13.3437 333.56 193.662)" fill="white"/>
    <rect x="349.56" y="215.662" width="13" height="12" transform="rotate(13.3437 349.56 215.662)" fill="white"/>
    <rect x="367.56" y="219.662" width="13" height="12" transform="rotate(13.3437 367.56 219.662)" fill="white"/>
    <rect x="386.56" y="222.662" width="13" height="12" transform="rotate(13.3437 386.56 222.662)" fill="white"/>
    <rect x="406.56" y="226.662" width="13" height="12" transform="rotate(13.3437 406.56 226.662)" fill="white"/>
    <rect x="425.56" y="230.662" width="13" height="12" transform="rotate(13.3437 425.56 230.662)" fill="white"/>
    <rect x="443.56" y="234.662" width="13" height="12" transform="rotate(13.3437 443.56 234.662)" fill="white"/>
    <rect x="461.56" y="238.662" width="13" height="12" transform="rotate(13.3437 461.56 238.662)" fill="white"/>
    <rect x="479.56" y="242.662" width="13" height="12" transform="rotate(13.3437 479.56 242.662)" fill="white"/>
    <rect x="331.56" y="211.662" width="13" height="12" transform="rotate(13.3437 331.56 211.662)" fill="white"/>
</svg>
