<svg width="24" height="25" viewBox="0 0 24 25" fill="none" xmlns="http://www.w3.org/2000/svg">
<path d="M12 24.5C18.4203 24.5 23.625 19.2953 23.625 12.875C23.625 6.45469 18.4203 1.25 12 1.25C5.57969 1.25 0.375 6.45469 0.375 12.875C0.375 19.2953 5.57969 24.5 12 24.5Z" fill="#EA4C89"/>
<path fill-rule="evenodd" clip-rule="evenodd" d="M12 0.875C5.37527 0.875 0 6.25027 0 12.875C0 19.4998 5.37527 24.875 12 24.875C18.6117 24.875 24 19.4998 24 12.875C24 6.25027 18.6117 0.875 12 0.875ZM19.9262 6.40645C21.3579 8.15049 22.217 10.3761 22.243 12.7839C21.9046 12.7189 18.5206 12.029 15.1106 12.4585C15.0325 12.2893 14.9675 12.1071 14.8894 11.9249C14.6811 11.4304 14.4469 10.9227 14.2126 10.4412C17.9869 8.9054 19.705 6.69279 19.9262 6.40645ZM12 2.64507C14.603 2.64507 16.9848 3.62121 18.7939 5.22207C18.6117 5.48238 17.0629 7.55179 13.4186 8.91838C11.7397 5.83378 9.87855 3.30884 9.5922 2.91838C10.3601 2.73617 11.1671 2.64507 12 2.64507ZM7.63995 3.60819C7.91325 3.97261 9.73538 6.51058 11.4404 9.53008C6.65076 10.8056 2.42083 10.7796 1.96529 10.7796C2.62907 7.60385 4.77657 4.96176 7.63995 3.60819ZM1.74404 12.8881C1.74404 12.7839 1.74404 12.6798 1.74404 12.5757C2.18655 12.5886 7.15835 12.6537 12.2733 11.118C12.5727 11.6906 12.846 12.2763 13.1063 12.8619C12.9761 12.901 12.8329 12.9401 12.7028 12.9791C7.41865 14.6841 4.60738 19.3435 4.3731 19.734C2.7462 17.9249 1.74404 15.5171 1.74404 12.8881ZM12 23.131C9.6312 23.131 7.44469 22.324 5.71367 20.9704C5.89588 20.593 7.97827 16.5844 13.757 14.567C13.783 14.554 13.7961 14.554 13.8221 14.541C15.2668 18.2763 15.8525 21.4129 16.0087 22.311C14.7722 22.8446 13.4186 23.131 12 23.131ZM17.7136 21.3739C17.6096 20.7492 17.0629 17.7557 15.7223 14.0724C18.9371 13.5648 21.7484 14.3978 22.0998 14.5149C21.6573 17.3652 20.0173 19.8251 17.7136 21.3739Z" fill="#C32361"/>
</svg>
