<svg width="38" height="29" viewBox="0 0 38 29" fill="none" xmlns="http://www.w3.org/2000/svg">
<g clip-path="url(#clip0_1570_29403)">
<path d="M28.4229 13.3309L30.824 10.1383L34.4977 7.72324L35.5335 7.31453V0.373047L31.3033 1.56294L26.9376 4.13964L23.5203 8.38088L21.2789 14.4706V20.498L23.2295 25.1201L26.9339 27.982L29.9992 28.3842L32.7784 27.982L35.1275 26.2543L36.7911 23.7064L37.1571 19.1549L35.1275 15.602L31.3006 13.8547H28.1294L28.4229 13.3309Z" fill="black"/>
<path d="M8.1641 13.3309L10.5653 10.1383L14.2389 7.72324L15.2747 7.31453V0.373047L11.0446 1.56294L6.67883 4.13964L3.26148 8.38088L1.02014 14.4706V20.498L2.97076 25.1201L6.67509 27.982L9.74042 28.3842L12.5196 27.982L14.8687 26.2543L16.5323 23.7064L16.8983 19.1549L14.8687 15.602L11.0418 13.8547H7.87059L8.1641 13.3309Z" fill="black"/>
<path d="M9.3475 13.7235C8.89776 13.7235 8.4487 13.7582 8.00434 13.8276C8.59238 12.3038 9.52406 10.9363 10.7269 9.83146C11.9297 8.72659 13.3712 7.91415 14.9393 7.45735L15.2811 7.36446V0.558594L14.734 0.651481C10.8237 1.32344 7.28592 3.3807 4.76787 6.44695C2.24981 9.5132 0.919785 13.3835 1.02106 17.3499C0.894687 20.1951 1.69203 23.0048 3.29402 25.3595C3.99923 26.3212 4.92469 27.0998 5.99281 27.63C7.06094 28.1603 8.24061 28.4268 9.43295 28.4072C10.4117 28.435 11.3862 28.2688 12.3004 27.918C13.2145 27.5673 14.0502 27.039 14.7591 26.3637C15.4362 25.6699 15.9674 24.8474 16.3212 23.9449C16.6751 23.0424 16.8445 22.0781 16.8194 21.109C16.8483 20.1274 16.6798 19.1499 16.324 18.2345C15.9682 17.3191 15.4323 16.4845 14.748 15.7801C14.0284 15.0974 13.1806 14.5642 12.2536 14.2112C11.3266 13.8582 10.3389 13.6925 9.3475 13.7235ZM29.597 13.7235C29.1472 13.7235 28.6982 13.7582 28.2538 13.8276C28.8418 12.3038 29.7735 10.9363 30.9763 9.83146C32.1792 8.72659 33.6207 7.91415 35.1888 7.45735L35.5306 7.36446V0.558594L34.9872 0.651481C31.0762 1.32265 27.5375 3.37956 25.0187 6.44589C22.4999 9.51222 21.1694 13.3829 21.2705 17.3499C21.1452 20.1955 21.9439 23.0053 23.5472 25.3595C24.2524 26.3212 25.1779 27.0998 26.246 27.63C27.3141 28.1603 28.4938 28.4268 29.6861 28.4072C30.6649 28.435 31.6394 28.2688 32.5536 27.918C33.4677 27.5673 34.3034 27.039 35.0123 26.3637C35.6894 25.6699 36.2205 24.8474 36.5744 23.9449C36.9283 23.0424 37.0976 22.0781 37.0725 21.109C37.1014 20.1274 36.933 19.1499 36.5772 18.2345C36.2214 17.3191 35.6855 16.4845 35.0012 15.7801C34.2815 15.0974 33.4337 14.5642 32.5068 14.2112C31.5798 13.8582 30.5921 13.6925 29.6007 13.7235H29.597Z" fill="#EB48A0" stroke="#EB48A0" stroke-width="0.928875"/>
</g>
<defs>
<clipPath id="clip0_1570_29403">
<rect width="36.9804" height="28.875" fill="white" transform="translate(0.556641)"/>
</clipPath>
</defs>
</svg>
