<svg width="20" height="21" viewBox="0 0 20 21" fill="none" xmlns="http://www.w3.org/2000/svg">
<path d="M10 2.875C14.41 2.875 18 6.465 18 10.875C18 15.285 14.41 18.875 10 18.875C5.59 18.875 2 15.285 2 10.875C2 6.465 5.59 2.875 10 2.875ZM10 0.875001C4.48 0.875001 -1.3568e-06 5.355 -8.74228e-07 10.875C-3.91654e-07 16.395 4.48 20.875 10 20.875C15.52 20.875 20 16.395 20 10.875C20 5.355 15.52 0.875 10 0.875001ZM11 10.875L11 6.875L9 6.875L9 10.875L6 10.875L10 14.875L14 10.875L11 10.875Z" fill="#0096EB"/>
</svg>
