<svg width="24" height="25" viewBox="0 0 24 25" fill="none" xmlns="http://www.w3.org/2000/svg">
<g clip-path="url(#clip0_1541_28718)">
<path d="M8.00006 24.8751C10.2081 24.8751 12.0001 23.083 12.0001 20.875V16.875H8.00006C5.79205 16.875 4 18.667 4 20.875C4 23.083 5.79205 24.8751 8.00006 24.8751Z" fill="#0ACF83"/>
<path d="M4 12.875C4 10.667 5.79205 8.875 8.00006 8.875H12.0001V16.875H8.00006C5.79205 16.8751 4 15.083 4 12.875Z" fill="#A259FF"/>
<path d="M4 4.87503C4 2.66703 5.79205 0.875 8.00006 0.875H12.0001V8.87497H8.00006C5.79205 8.87497 4 7.08303 4 4.87503Z" fill="#F24E1E"/>
<path d="M12 0.875H16.0001C18.2081 0.875 20.0001 2.66703 20.0001 4.87503C20.0001 7.08303 18.2081 8.87497 16.0001 8.87497H12V0.875Z" fill="#FF7262"/>
<path d="M20.0001 12.875C20.0001 15.083 18.2081 16.8751 16.0001 16.8751C13.792 16.8751 12 15.083 12 12.875C12 10.667 13.792 8.875 16.0001 8.875C18.2081 8.875 20.0001 10.667 20.0001 12.875Z" fill="#1ABCFE"/>
</g>
<defs>
<clipPath id="clip0_1541_28718">
<rect width="24" height="24" fill="white" transform="translate(0 0.875)"/>
</clipPath>
</defs>
</svg>
