<svg width="24" height="25" viewBox="0 0 24 25" fill="none" xmlns="http://www.w3.org/2000/svg">
<g clip-path="url(#clip0_1541_28724)">
<path d="M23.7663 13.1513C23.7663 12.3355 23.7001 11.5154 23.559 10.7129H12.2402V15.3339H18.722C18.453 16.8242 17.5888 18.1426 16.3233 18.9804V21.9787H20.1903C22.4611 19.8887 23.7663 16.8022 23.7663 13.1513Z" fill="#4285F4"/>
<path d="M12.2401 24.8763C15.4766 24.8763 18.2059 23.8137 20.1945 21.9794L16.3276 18.981C15.2517 19.713 13.8627 20.1275 12.2445 20.1275C9.11388 20.1275 6.45946 18.0154 5.50705 15.1758H1.5166V18.2667C3.55371 22.3189 7.7029 24.8763 12.2401 24.8763Z" fill="#34A853"/>
<path d="M5.50277 15.1757C5.00011 13.6853 5.00011 12.0715 5.50277 10.5812V7.49023H1.51674C-0.185266 10.881 -0.185266 14.8759 1.51674 18.2666L5.50277 15.1757Z" fill="#FBBC04"/>
<path d="M12.2401 5.62466C13.9509 5.5982 15.6044 6.24197 16.8434 7.42367L20.2695 3.99762C18.1001 1.9605 15.2208 0.840534 12.2401 0.875809C7.7029 0.875809 3.55371 3.43322 1.5166 7.48981L5.50264 10.5808C6.45064 7.73673 9.10947 5.62466 12.2401 5.62466Z" fill="#EA4335"/>
</g>
<defs>
<clipPath id="clip0_1541_28724">
<rect width="24" height="24" fill="white" transform="translate(0 0.875)"/>
</clipPath>
</defs>
</svg>
