<svg width="20" height="20" viewBox="0 0 20 20" fill="none" xmlns="http://www.w3.org/2000/svg">
<path d="M14.5 0.824219C12.76 0.824219 11.09 1.63422 10 2.91422C8.91 1.63422 7.24 0.824219 5.5 0.824219C2.42 0.824219 0 3.24422 0 6.32422C0 10.1042 3.4 13.1842 8.55 17.8642L10 19.1742L11.45 17.8542C16.6 13.1842 20 10.1042 20 6.32422C20 3.24422 17.58 0.824219 14.5 0.824219ZM10.1 16.3742L10 16.4742L9.9 16.3742C5.14 12.0642 2 9.21422 2 6.32422C2 4.32422 3.5 2.82422 5.5 2.82422C7.04 2.82422 8.54 3.81422 9.07 5.18422H10.94C11.46 3.81422 12.96 2.82422 14.5 2.82422C16.5 2.82422 18 4.32422 18 6.32422C18 9.21422 14.86 12.0642 10.1 16.3742Z" fill="white"/>
</svg>
