<svg width="185" height="48" viewBox="0 0 185 48" fill="none" xmlns="http://www.w3.org/2000/svg">
<path d="M75.8277 29.1703C75.8277 31.451 75.2924 33.1267 74.2219 34.1972C73.1513 35.2678 71.499 35.803 69.2648 35.803C67.0539 35.803 64.7033 35.6867 62.2131 35.4539V30.7412C64.0284 30.8576 65.8902 30.9158 67.7986 30.9158C68.3339 30.9158 68.7528 30.7645 69.0553 30.4619C69.3811 30.1361 69.544 29.7056 69.544 29.1703V15.9049H65.0059V11.0176H75.8277V29.1703Z" fill="white"/>
<path d="M91.5354 35.4539H78.9681V30.5667H82.11V15.9049H78.9681V11.0176H91.5354V15.9049H88.3936V30.5667H91.5354V35.4539Z" fill="white"/>
<path d="M115.62 34.9303C110.174 35.5121 105.171 35.803 100.609 35.803C98.3283 35.803 96.6527 35.2678 95.5821 34.1972C94.5116 33.1267 93.9763 31.451 93.9763 29.1703V17.9994C93.9763 15.5558 94.5232 13.787 95.617 12.6932C96.7341 11.5761 98.5145 11.0176 100.958 11.0176H113.525V15.9049H102.354C100.958 15.9049 100.26 16.603 100.26 17.9994V29.1703C100.26 29.7056 100.411 30.1361 100.714 30.4619C101.04 30.7645 101.47 30.9158 102.005 30.9158C104.682 30.9158 107.125 30.8576 109.336 30.7412V25.6794H104.798V21.4903H115.62V34.9303Z" fill="white"/>
<path d="M140.063 34.9303C134.617 35.5121 129.614 35.803 125.052 35.803C122.772 35.803 121.096 35.2678 120.025 34.1972C118.955 33.1267 118.419 31.451 118.419 29.1703V17.9994C118.419 15.5558 118.966 13.787 120.06 12.6932C121.177 11.5761 122.958 11.0176 125.401 11.0176H137.969V15.9049H126.798C125.401 15.9049 124.703 16.603 124.703 17.9994V29.1703C124.703 29.7056 124.854 30.1361 125.157 30.4619C125.483 30.7645 125.913 30.9158 126.449 30.9158C129.125 30.9158 131.569 30.8576 133.78 30.7412V25.6794H129.241V21.4903H140.063V34.9303Z" fill="white"/>
<path d="M149.845 30.5667H162.586V35.4539H143.561V11.0176H149.845V30.5667Z" fill="white"/>
<path d="M184.413 35.4539H165.038V11.0176H184.413V15.9049H171.322V20.6176H181.62V25.5049H171.322V30.5667H184.413V35.4539Z" fill="white"/>
<g clip-path="url(#clip0_1647_29312)">
<path fill-rule="evenodd" clip-rule="evenodd" d="M3.42888 8.33013C4.13753 8.3332 4.81624 8.61609 5.31733 9.11719C5.81843 9.61828 6.10134 10.297 6.10441 11.0057C6.12318 11.7005 6.41242 12.3605 6.91049 12.8453C7.40856 13.3301 8.07615 13.6014 8.7712 13.6014C9.46626 13.6014 10.1338 13.3301 10.6319 12.8453C11.13 12.3605 11.4192 11.7005 11.438 11.0057V2.67553C11.4411 1.96688 11.7239 1.28812 12.225 0.78703C12.7261 0.285935 13.4049 0.00307222 14.1135 0V0C14.8194 0.00665222 15.4943 0.291222 15.9918 0.792042C16.4894 1.29286 16.7695 1.96958 16.7715 2.67553V20.1647C16.7619 20.521 16.8237 20.8756 16.9534 21.2076C17.0831 21.5395 17.278 21.8421 17.5266 22.0975C17.7752 22.3529 18.0724 22.5559 18.4007 22.6945C18.7291 22.8331 19.0819 22.9045 19.4383 22.9045C19.7947 22.9045 20.1475 22.8331 20.4758 22.6945C20.8041 22.5559 21.1014 22.3529 21.35 22.0975C21.5986 21.8421 21.7934 21.5395 21.9231 21.2076C22.0528 20.8756 22.1147 20.521 22.1051 20.1647V11.0057C22.1081 10.297 22.391 9.61828 22.8921 9.11719C23.3932 8.61609 24.0719 8.3332 24.7806 8.33013V8.33013C25.4865 8.33678 26.1613 8.62138 26.6589 9.1222C27.1564 9.62302 27.4366 10.2997 27.4386 11.0057V20.1647C27.4386 20.8718 27.7195 21.5498 28.2194 22.0498C28.7194 22.5497 29.3974 22.8305 30.1044 22.8305C30.8114 22.8305 31.4895 22.5497 31.9894 22.0498C32.4894 21.5498 32.7702 20.8718 32.7702 20.1647V2.67553C32.7733 1.96655 33.0565 1.28749 33.558 0.786341C34.0595 0.285191 34.7387 0.00256028 35.4477 0V0C36.1544 0.00360393 36.8308 0.287251 37.3287 0.788788C37.8266 1.29032 38.1054 1.96883 38.1038 2.67553V11.0057C38.1226 11.7005 38.4117 12.3605 38.9098 12.8453C39.4079 13.3301 40.0754 13.6014 40.7705 13.6014C41.4656 13.6014 42.1332 13.3301 42.6313 12.8453C43.1294 12.3605 43.4185 11.7005 43.4373 11.0057C43.4404 10.2967 43.7235 9.61765 44.225 9.1165C44.7265 8.61535 45.4058 8.33269 46.1148 8.33013V8.33013C46.8215 8.33374 47.498 8.61741 47.9959 9.11894C48.4937 9.62048 48.7724 10.299 48.7709 11.0057V37.0138C48.7683 37.7174 48.4876 38.3915 47.9901 38.8891C47.4925 39.3866 46.8185 39.6673 46.1148 39.6699V39.6699C45.4089 39.6684 44.7319 39.3887 44.2307 38.8915C43.7295 38.3944 43.4445 37.7197 43.4373 37.0138C43.4469 36.6575 43.3851 36.3029 43.2554 35.971C43.1257 35.639 42.9308 35.3364 42.6822 35.081C42.4336 34.8256 42.1364 34.6226 41.808 34.484C41.4797 34.3454 41.1269 34.274 40.7705 34.274C40.4141 34.274 40.0614 34.3454 39.7331 34.484C39.4047 34.6226 39.1074 34.8256 38.8589 35.081C38.6103 35.3364 38.4153 35.639 38.2857 35.971C38.156 36.3029 38.0942 36.6575 38.1038 37.0138V45.3342C38.1043 45.6832 38.0359 46.0289 37.9027 46.3515C37.7694 46.6741 37.5738 46.9673 37.3271 47.2141C37.0804 47.461 36.7873 47.6569 36.4649 47.7904C36.1424 47.9239 35.7967 47.9925 35.4477 47.9922C34.7408 47.9933 34.0623 47.7141 33.5608 47.2159C33.0593 46.7177 32.7757 46.0411 32.7721 45.3342V27.8216C32.7721 27.1146 32.4913 26.4366 31.9914 25.9366C31.4915 25.4367 30.8134 25.1558 30.1064 25.1558C29.3994 25.1558 28.7213 25.4367 28.2213 25.9366C27.7214 26.4366 27.4405 27.1146 27.4405 27.8216V37.0002C27.4344 37.7031 27.1524 38.3754 26.6552 38.8722C26.158 39.3691 25.4855 39.6506 24.7826 39.6562V39.6562C24.077 39.6542 23.4005 39.3743 22.8997 38.8772C22.399 38.3801 22.1142 37.7058 22.1071 37.0002V27.8216C22.0883 27.1268 21.799 26.4668 21.301 25.982C20.8029 25.4972 20.1353 25.2259 19.4403 25.2259C18.7452 25.2259 18.0775 25.4972 17.5795 25.982C17.0814 26.4668 16.7922 27.1268 16.7735 27.8216V45.3342C16.7714 46.0385 16.4907 46.7134 15.9927 47.2114C15.4946 47.7095 14.8197 47.9902 14.1154 47.9922V47.9922C13.4084 47.9938 12.7296 47.7148 12.228 47.2165C11.7264 46.7182 11.443 46.0412 11.4399 45.3342V37.006C11.4495 36.6497 11.3876 36.2951 11.2579 35.9632C11.1283 35.6312 10.9334 35.3286 10.6848 35.0732C10.4362 34.8178 10.139 34.6148 9.81063 34.4762C9.48229 34.3376 9.1295 34.2662 8.7731 34.2662C8.41671 34.2662 8.06391 34.3376 7.73557 34.4762C7.40723 34.6148 7.11005 34.8178 6.86147 35.0732C6.61288 35.3286 6.41795 35.6312 6.28826 35.9632C6.15857 36.2951 6.09669 36.6497 6.10631 37.006C6.09915 37.7116 5.81439 38.3859 5.31363 38.8831C4.81286 39.3802 4.1364 39.6601 3.43078 39.6621C2.7279 39.6565 2.05541 39.3749 1.55819 38.8781C1.06098 38.3812 0.77893 37.7089 0.772827 37.006V11.0057C0.774844 10.2997 1.05495 9.62302 1.55249 9.1222C2.05004 8.62138 2.72486 8.33678 3.43078 8.33013H3.42888ZM11.438 18.6762C11.4476 18.3199 11.3857 17.9653 11.256 17.6334C11.1264 17.3014 10.9314 16.9988 10.6828 16.7434C10.4343 16.488 10.1371 16.285 9.80873 16.1464C9.48039 16.0078 9.1276 15.9364 8.7712 15.9364C8.41481 15.9364 8.06201 16.0078 7.73367 16.1464C7.40533 16.285 7.10806 16.488 6.85947 16.7434C6.61089 16.9988 6.41605 17.3014 6.28636 17.6334C6.15667 17.9653 6.09479 18.3199 6.10441 18.6762V29.3433C6.12318 30.0381 6.41242 30.6981 6.91049 31.1829C7.40856 31.6677 8.07615 31.939 8.7712 31.939C9.46626 31.939 10.1338 31.6677 10.6319 31.1829C11.13 30.6981 11.4192 30.0381 11.438 29.3433V18.6762ZM38.096 29.3433V18.6762C38.0864 18.3199 38.1482 17.9653 38.2779 17.6334C38.4076 17.3014 38.6025 16.9988 38.8511 16.7434C39.0997 16.488 39.3969 16.285 39.7253 16.1464C40.0536 16.0078 40.4064 15.9364 40.7628 15.9364C41.1192 15.9364 41.4719 16.0078 41.8002 16.1464C42.1286 16.285 42.4259 16.488 42.6744 16.7434C42.923 16.9988 43.118 17.3014 43.2476 17.6334C43.3773 17.9653 43.4391 18.3199 43.4295 18.6762V29.3433C43.4107 30.0381 43.1216 30.6981 42.6235 31.1829C42.1254 31.6677 41.4579 31.939 40.7628 31.939C40.0677 31.939 39.4001 31.6677 38.902 31.1829C38.4039 30.6981 38.1148 30.0381 38.096 29.3433Z" fill="#E15539"/>
</g>
<defs>
<clipPath id="clip0_1647_29312">
<rect width="48" height="48" fill="white" transform="translate(0.772705)"/>
</clipPath>
</defs>
</svg>
