<svg width="24" height="25" viewBox="0 0 24 25" fill="none" xmlns="http://www.w3.org/2000/svg">
<g clip-path="url(#clip0_1541_28715)">
<path d="M24 12.875C24 6.24758 18.6274 0.875 12 0.875C5.37258 0.875 0 6.24758 0 12.875C0 18.8645 4.3882 23.829 10.125 24.7292V16.3438H7.07812V12.875H10.125V10.2313C10.125 7.22375 11.9166 5.5625 14.6576 5.5625C15.9701 5.5625 17.3438 5.79688 17.3438 5.79688V8.75H15.8306C14.34 8.75 13.875 9.67508 13.875 10.625V12.875H17.2031L16.6711 16.3438H13.875V24.7292C19.6118 23.829 24 18.8645 24 12.875Z" fill="#1877F2"/>
<path d="M16.6711 16.3438L17.2031 12.875H13.875V10.625C13.875 9.67602 14.34 8.75 15.8306 8.75H17.3438V5.79688C17.3438 5.79688 15.9705 5.5625 14.6576 5.5625C11.9166 5.5625 10.125 7.22375 10.125 10.2313V12.875H7.07812V16.3438H10.125V24.7292C11.3674 24.9236 12.6326 24.9236 13.875 24.7292V16.3438H16.6711Z" fill="white"/>
</g>
<defs>
<clipPath id="clip0_1541_28715">
<rect width="24" height="24" fill="white" transform="translate(0 0.875)"/>
</clipPath>
</defs>
</svg>
