<svg width="177" height="44" viewBox="0 0 177 44" fill="none" xmlns="http://www.w3.org/2000/svg">
<g clip-path="url(#clip0_1647_29326)">
<path d="M40.2314 2.51614C40.4859 2.60574 40.7075 2.76962 40.8678 2.98659C41.0281 3.20355 41.1196 3.46361 41.1305 3.73314C41.2687 5.17248 41.3276 6.61834 41.3069 8.06415C41.2917 8.72741 41.2765 9.39067 41.2324 10.0539C40.9829 9.95049 40.7471 9.84704 40.4961 9.74968C39.8633 9.5002 39.2441 9.26442 38.6098 9.04232C38.625 8.7046 38.6402 8.38056 38.6402 8.04132C38.6539 6.9658 38.625 5.87506 38.5368 4.77064C37.5053 4.44661 36.4298 4.15149 35.3421 3.88679C33.973 3.56276 32.6039 3.29655 31.2165 3.10488C30.4361 3.00295 29.6846 2.91319 28.9635 2.84017C28.2424 2.76715 27.4742 2.72303 26.6938 2.68805C26.0853 2.67283 25.5148 2.65914 24.8972 2.65914L23.9982 2.67284C23.732 2.67284 23.4231 2.68805 23.0991 2.68805C22.3187 2.71847 21.5672 2.77628 20.8294 2.84017C20.0916 2.90406 19.3568 3.00295 18.5764 3.10488C17.2073 3.29655 15.8214 3.56124 14.4508 3.88679C13.3601 4.15149 12.2997 4.44661 11.2562 4.77064C11.0767 7.19227 11.1409 9.62581 11.4479 12.0346C11.6108 13.3821 11.8469 14.7197 12.1552 16.0416C12.3317 16.7931 12.5386 17.5446 12.7637 18.2656L12.779 18.325L12.7926 18.3843L12.8079 18.4436L12.8368 18.5014L12.852 18.5608L12.8671 18.6201L12.8824 18.6794L12.9402 18.8407V18.8559L12.9554 18.9137L13.0589 19.1936L13.0725 19.2529L13.1623 19.4887L13.176 19.5329C13.631 20.8521 14.1577 22.1456 14.7536 23.4075L14.7824 23.4516L14.7977 23.4972L14.8113 23.5261L14.8417 23.5703L14.8555 23.6144L14.8707 23.6585L14.8996 23.6874C15.1217 24.1437 15.356 24.6001 15.5933 25.0565C15.7698 25.3516 15.9309 25.665 16.0937 25.9404C16.2854 26.2801 16.4624 26.5747 16.6247 26.8242C17.1252 27.635 17.6545 28.4306 18.2159 29.1974C18.7772 29.9641 19.3492 30.7003 19.9836 31.4366C20.2199 31.7165 20.4851 32.0111 20.7792 32.3205C21.0591 32.6247 21.3238 32.929 21.5748 33.1891C22.2229 33.8524 22.8998 34.4867 23.5783 35.1044L23.8582 35.3402C23.6665 35.4923 23.4749 35.6444 23.2695 35.7965C22.7386 36.1936 22.194 36.5769 21.6478 36.9603C18.7042 34.3214 16.1717 31.2572 14.1344 27.8693V27.8541L14.1191 27.8404L14.104 27.8252C13.9868 27.6335 13.8833 27.4418 13.7799 27.2806C13.6034 26.9565 13.4118 26.631 13.2505 26.3222C12.7637 25.4383 12.3211 24.5256 11.8951 23.5672C11.4692 22.6088 11.0995 21.6672 10.7603 20.724C10.2864 19.3907 9.88314 18.0334 9.55233 16.6577C8.55147 12.425 8.25294 8.05659 8.66855 3.72706C8.68102 3.45713 8.77483 3.19729 8.93774 2.9817C9.10066 2.76612 9.32503 2.60488 9.5813 2.51919C10.9809 2.0476 12.4108 1.63534 13.8545 1.28089C15.2692 0.956863 16.7266 0.672392 18.2159 0.456375C18.9765 0.35293 19.7767 0.264699 20.6165 0.191679C21.4273 0.117138 22.2229 0.0593291 23.0033 0.0289041C23.2984 0.0289041 23.6117 0.0136953 23.9464 0.0136953L24.9049 0L25.8617 0.0136953C26.201 0.0136953 26.5249 0.0289041 26.8049 0.0289041C27.6005 0.0593291 28.3961 0.117138 29.2069 0.191679C30.0466 0.264699 30.8422 0.35293 31.5937 0.456375C33.0952 0.676956 34.5541 0.956863 35.9689 1.28089C37.3989 1.63534 38.8273 2.04152 40.2421 2.51919L40.2314 2.51614ZM31.5968 29.1989C32.1277 28.4474 32.6617 27.6776 33.1439 26.885C33.3103 26.5862 33.5834 26.361 33.9085 26.2544C34.2335 26.1478 34.5868 26.1677 34.8979 26.31C37.4581 27.5337 39.7822 29.1997 41.7633 31.2313C41.9951 31.4449 42.1442 31.7334 42.1846 32.0461C42.2249 32.3587 42.1539 32.6756 41.9839 32.9411C41.5717 33.5892 41.1153 34.2661 40.6589 34.9294C40.2025 35.5927 39.7005 36.2407 39.2152 36.8599C38.8608 37.3163 38.4774 37.7878 38.0651 38.2594C37.7122 38.6717 37.3137 39.1281 36.8725 39.6149C36.2534 40.2933 35.6555 40.911 35.047 41.5149H35.0318C34.4431 42.1052 33.8148 42.6802 33.1607 43.2537C32.9677 43.4417 32.7228 43.5675 32.4576 43.615C32.1924 43.6624 31.919 43.6293 31.6729 43.5199C29.7336 42.6297 27.8665 41.5901 26.0884 40.4105C26.3241 40.234 26.5599 40.0576 26.7957 39.8659C27.2962 39.4673 27.7982 39.0703 28.2683 38.6489C29.4699 39.4126 30.7149 40.106 31.9969 40.7254C32.3939 40.3572 32.7773 39.9891 33.1758 39.6057C33.7935 38.9972 34.3685 38.4131 34.8994 37.8228C35.2523 37.4547 35.6205 37.0135 36.0343 36.5419C36.3872 36.1145 36.7554 35.6718 37.1098 35.2017C37.5951 34.6115 38.0377 34.0075 38.4652 33.3884C38.701 33.0841 38.9216 32.7403 39.1422 32.4163C38.4791 31.7805 37.7697 31.1948 37.02 30.6638C36.3099 30.1489 35.5671 29.6809 34.796 29.2628C34.4568 29.7785 34.1038 30.2805 33.7493 30.7658C33.1317 31.6207 32.4974 32.4163 31.8493 33.183C31.5542 33.5207 31.2743 33.8311 31.0096 34.1262C30.891 34.2783 30.7586 34.4061 30.6263 34.5521L30.611 34.5674L30.5974 34.5826L30.5821 34.5963L30.5669 34.6115L30.5532 34.6267L30.538 34.6419L30.5228 34.6556L30.4939 34.686V34.6997C29.0871 36.1815 27.5756 37.5602 25.9712 38.8253C23.5467 40.687 20.9165 42.2642 18.1322 43.526C17.8792 43.6395 17.5972 43.6721 17.3249 43.6193C17.0526 43.5664 16.8033 43.4308 16.611 43.2309C15.9614 42.6711 15.3575 42.096 14.7536 41.521C14.1451 40.9323 13.5457 40.304 12.9281 39.6209C12.4717 39.1341 12.0746 38.6778 11.7201 38.2655C11.3231 37.7939 10.9397 37.3223 10.5716 36.866C10.0848 36.2331 9.61323 35.5988 9.14164 34.9355C8.67005 34.2722 8.2289 33.5953 7.81664 32.9472C7.49109 32.4315 7.15332 31.8823 6.81409 31.3119C6.50984 30.7521 6.19494 30.1922 5.90134 29.6385C5.5195 28.9311 5.16508 28.2085 4.82584 27.4875C4.4866 26.7664 4.19301 26.0423 3.88419 25.2908C3.32437 23.9217 2.83758 22.5221 2.41011 21.0921C1.98264 19.6622 1.62971 18.22 1.34524 16.7611C1.28986 16.4924 1.31974 16.2131 1.43073 15.9622C1.54173 15.7113 1.72828 15.5013 1.96436 15.3616C3.67967 14.1423 5.48732 13.0585 7.37089 12.1198C7.44391 12.8272 7.53364 13.5194 7.65077 14.2115C7.67968 14.4473 7.7238 14.6831 7.76791 14.9189C6.51748 15.5729 5.30745 16.3014 4.14432 17.1004C4.38012 18.2048 4.66001 19.2803 4.96883 20.3269C5.36739 21.6824 5.83904 23.0074 6.35474 24.2822C6.63465 24.9744 6.92824 25.6665 7.25226 26.3587C7.57629 27.0509 7.90181 27.7278 8.25474 28.3774C8.53465 28.9235 8.82981 29.4423 9.12493 29.9686C9.41853 30.4554 9.73342 30.9711 10.0666 31.5157C10.4804 32.1638 10.8926 32.7981 11.32 33.3869C11.7475 33.9756 12.2039 34.6039 12.6755 35.2002C13.0436 35.6703 13.3966 36.1129 13.7647 36.5404C14.1633 37.012 14.5466 37.4532 14.8844 37.8213C15.4305 38.4116 16.004 39.0003 16.6232 39.6042C17.0065 39.9876 17.4051 40.3557 17.7869 40.7102C20.0038 39.6438 22.1067 38.3553 24.0636 36.8644C26.9315 34.6896 29.4677 32.1089 31.5923 29.2034L31.5968 29.1989ZM47.8194 15.3555C48.0547 15.4968 48.2413 15.7064 48.3544 15.9564C48.4675 16.2065 48.5016 16.4851 48.4523 16.755C48.1572 18.2139 47.8042 19.6576 47.3767 21.086C46.9492 22.5145 46.464 23.9156 45.9179 25.2847C45.8625 25.4213 45.7825 25.5466 45.682 25.6544C45.4509 25.9223 45.1236 26.0886 44.7708 26.117C44.4181 26.1455 44.0684 26.0339 43.7972 25.8065C42.8017 24.9399 41.7481 24.1424 40.6437 23.4196C39.5585 22.7098 38.4261 22.075 37.2543 21.5196C36.947 21.381 36.7026 21.1324 36.5692 20.8228C36.4357 20.5132 36.423 20.1648 36.5333 19.8462C36.974 18.6064 37.3427 17.3422 37.6377 16.0598C37.77 15.5593 37.8735 15.0573 37.9769 14.5386C38.3161 14.6709 38.6402 14.8048 38.9795 14.9508C39.4799 15.1729 39.9804 15.4072 40.4809 15.6445C40.4079 15.9975 40.3288 16.3367 40.2451 16.6759C40.0108 17.6632 39.7446 18.6536 39.4358 19.6226C40.3486 20.0942 41.2476 20.6236 42.1162 21.1834C42.7795 21.6261 43.4428 22.0961 44.0771 22.5829C44.3418 21.8467 44.5928 21.0952 44.8134 20.33C45.1374 19.2834 45.4021 18.2002 45.6531 17.1034C43.7197 15.7814 41.6619 14.6513 39.5089 13.7293C38.1827 13.1562 36.8251 12.6589 35.4426 12.24C34.1792 11.8584 32.8952 11.5486 31.5968 11.312C30.684 11.1508 29.7409 11.0184 28.7825 10.915C27.8241 10.8115 26.8824 10.7522 25.9393 10.7233L25.4099 10.7081H24.3785L23.8628 10.7233C22.9196 10.7522 21.9612 10.8115 21.018 10.915C20.0748 11.0184 19.118 11.1508 18.19 11.312C16.9076 11.5478 15.6267 11.8718 14.3443 12.24C13.8575 12.3921 13.3722 12.5442 12.8854 12.7116C12.8413 12.4317 12.7972 12.167 12.7683 11.887C12.68 11.2542 12.6162 10.6351 12.5766 10.0007C16.5517 8.68644 20.712 8.01874 24.8988 8.02307C30.0775 8.03017 35.2058 9.04066 40.0002 10.9986C42.7652 12.1508 45.39 13.614 47.824 15.3601L47.8194 15.3555ZM23.2726 27.0098C23.052 26.7299 22.8603 26.4789 22.6838 26.2583C21.2819 24.339 20.0915 22.2738 19.1332 20.0988C19.0009 19.8051 18.867 19.51 18.7499 19.2149C18.6327 18.9198 18.543 18.6703 18.4456 18.3904C18.4035 18.2931 18.3738 18.1909 18.3574 18.0861C18.326 17.9129 18.3294 17.7351 18.3674 17.5632C18.4054 17.3912 18.4773 17.2286 18.5788 17.0848C18.6803 16.9409 18.8095 16.8187 18.9588 16.7252C19.108 16.6318 19.2743 16.569 19.4481 16.5405C19.728 16.4812 20.0566 16.4371 20.3912 16.3884L21.3481 16.2545C21.9384 16.1967 22.5271 16.1526 23.1311 16.1024C23.735 16.0522 24.348 16.0583 24.9002 16.0583C25.4525 16.0583 26.0488 16.072 26.6816 16.1024C27.2901 16.1465 27.8759 16.1907 28.4509 16.2545L29.4077 16.3884C29.7621 16.4325 30.071 16.4767 30.3661 16.5405C30.4413 16.5527 30.5152 16.572 30.5867 16.5984C30.9201 16.7187 31.1924 16.966 31.3443 17.2863C31.4962 17.6066 31.5153 17.9739 31.3975 18.3082C31.2788 18.6125 31.1617 18.9259 31.043 19.221C30.9244 19.5161 30.8073 19.8112 30.6749 20.1048C30.1963 21.189 29.66 22.2467 29.0685 23.2736C28.4741 24.3078 27.8199 25.3065 27.1091 26.2644C26.888 26.5575 26.6968 26.808 26.5356 27.0159C26.2846 27.3201 26.0929 27.5757 25.9271 27.7522C25.8752 27.818 25.8154 27.8773 25.7491 27.9286C25.6153 28.0414 25.4604 28.1263 25.2934 28.1785C25.1264 28.2308 24.9508 28.2492 24.7766 28.2328C24.6024 28.2163 24.4332 28.1654 24.2789 28.0829C24.1246 28.0003 23.9884 27.8879 23.878 27.7522C23.6574 27.5012 23.4657 27.2654 23.2695 27.0159L23.2726 27.0098Z" fill="#38CEC9"/>
</g>
<path d="M62.7624 19.1521C63.7049 17.6859 65.3631 16.9528 67.7369 16.9528V20.0684C67.4576 20.0161 67.2045 19.9899 66.9776 19.9899C65.7035 19.9899 64.7085 20.3652 63.9929 21.1157C63.2773 21.8488 62.9195 22.9135 62.9195 24.3099V31.091H59.6467V17.1099H62.7624V19.1521Z" fill="#094367"/>
<path d="M83.5286 24.179C83.5286 24.4059 83.5112 24.7288 83.4763 25.1477H72.5061C72.6981 26.1775 73.1955 26.9979 73.9985 27.6088C74.8188 28.2022 75.8312 28.499 77.0355 28.499C78.5715 28.499 79.837 27.9928 80.8319 26.9804L82.5861 28.9964C81.9577 29.747 81.1635 30.3142 80.2035 30.6982C79.2435 31.0822 78.1614 31.2742 76.957 31.2742C75.421 31.2742 74.0683 30.9688 72.8988 30.3579C71.7294 29.747 70.8217 28.9004 70.1759 27.8182C69.5475 26.7186 69.2334 25.4793 69.2334 24.1004C69.2334 22.739 69.5388 21.5172 70.1497 20.435C70.7781 19.3353 71.6421 18.4801 72.7417 17.8692C73.8414 17.2582 75.0806 16.9528 76.4595 16.9528C77.821 16.9528 79.0341 17.2582 80.0988 17.8692C81.181 18.4626 82.0188 19.3092 82.6123 20.4088C83.2232 21.491 83.5286 22.7477 83.5286 24.179ZM76.4595 19.571C75.4123 19.571 74.5221 19.8852 73.789 20.5135C73.0734 21.1244 72.637 21.9448 72.4799 22.9746H80.413C80.2734 21.9622 79.8457 21.1419 79.1301 20.5135C78.4145 19.8852 77.5243 19.571 76.4595 19.571Z" fill="#094367"/>
<path d="M90.9923 31.2742C89.8578 31.2742 88.7494 31.1259 87.6672 30.8292C86.585 30.5324 85.721 30.1572 85.0752 29.7033L86.3319 27.2161C86.9603 27.635 87.7108 27.9753 88.5836 28.2372C89.4738 28.4815 90.3465 28.6037 91.2018 28.6037C93.1567 28.6037 94.1341 28.0888 94.1341 27.059C94.1341 26.5702 93.881 26.2299 93.3748 26.0379C92.8861 25.8459 92.0919 25.6626 90.9923 25.4881C89.8403 25.3135 88.8978 25.1128 88.1647 24.8859C87.449 24.659 86.8207 24.2662 86.2796 23.7077C85.7559 23.1317 85.4941 22.3375 85.4941 21.3252C85.4941 19.9986 86.0439 18.9426 87.1436 18.1572C88.2607 17.3542 89.7618 16.9528 91.6468 16.9528C92.6068 16.9528 93.5668 17.0662 94.5268 17.2932C95.4868 17.5026 96.2723 17.7906 96.8832 18.1572L95.6265 20.6444C94.4396 19.9462 93.1043 19.5972 91.6207 19.5972C90.6607 19.5972 89.9276 19.7455 89.4214 20.0422C88.9327 20.3215 88.6883 20.6968 88.6883 21.1681C88.6883 21.6917 88.9501 22.067 89.4738 22.2939C90.0148 22.5033 90.8439 22.7041 91.961 22.8961C93.0781 23.0706 93.9945 23.2713 94.7101 23.4982C95.4258 23.7252 96.0367 24.1092 96.5428 24.6502C97.0665 25.1913 97.3283 25.9593 97.3283 26.9542C97.3283 28.2633 96.761 29.3106 95.6265 30.0961C94.4919 30.8815 92.9472 31.2742 90.9923 31.2742Z" fill="#094367"/>
<path d="M113.29 24.179C113.29 24.4059 113.273 24.7288 113.238 25.1477H102.267C102.459 26.1775 102.957 26.9979 103.76 27.6088C104.58 28.2022 105.593 28.499 106.797 28.499C108.333 28.499 109.598 27.9928 110.593 26.9804L112.347 28.9964C111.719 29.747 110.925 30.3142 109.965 30.6982C109.005 31.0822 107.923 31.2742 106.718 31.2742C105.182 31.2742 103.83 30.9688 102.66 30.3579C101.491 29.747 100.583 28.9004 99.9373 27.8182C99.3089 26.7186 98.9947 25.4793 98.9947 24.1004C98.9947 22.739 99.3002 21.5172 99.9111 20.435C100.539 19.3353 101.403 18.4801 102.503 17.8692C103.603 17.2582 104.842 16.9528 106.221 16.9528C107.582 16.9528 108.795 17.2582 109.86 17.8692C110.942 18.4626 111.78 19.3092 112.374 20.4088C112.985 21.491 113.29 22.7477 113.29 24.179ZM106.221 19.571C105.174 19.571 104.283 19.8852 103.55 20.5135C102.835 21.1244 102.398 21.9448 102.241 22.9746H110.174C110.035 21.9622 109.607 21.1419 108.891 20.5135C108.176 19.8852 107.286 19.571 106.221 19.571Z" fill="#094367"/>
<path d="M122.848 31.2742C121.399 31.2742 120.099 30.9688 118.947 30.3579C117.795 29.747 116.896 28.9004 116.25 27.8182C115.605 26.7186 115.282 25.4793 115.282 24.1004C115.282 22.7215 115.605 21.491 116.25 20.4088C116.896 19.3266 117.786 18.4801 118.921 17.8692C120.073 17.2582 121.382 16.9528 122.848 16.9528C124.227 16.9528 125.431 17.2321 126.461 17.7906C127.509 18.3492 128.294 19.1521 128.818 20.1993L126.304 21.6655C125.903 21.0197 125.397 20.5397 124.786 20.2255C124.192 19.8939 123.538 19.7281 122.822 19.7281C121.6 19.7281 120.588 20.1295 119.785 20.9324C118.982 21.7179 118.581 22.7739 118.581 24.1004C118.581 25.427 118.973 26.4917 119.759 27.2946C120.562 28.0801 121.583 28.4728 122.822 28.4728C123.538 28.4728 124.192 28.3157 124.786 28.0015C125.397 27.6699 125.903 27.1812 126.304 26.5353L128.818 28.0015C128.277 29.0488 127.482 29.8604 126.435 30.4364C125.405 30.995 124.21 31.2742 122.848 31.2742Z" fill="#094367"/>
<path d="M145.183 17.1099V31.091H142.067V29.3106C141.543 29.939 140.889 30.4277 140.103 30.7768C139.318 31.1084 138.471 31.2742 137.564 31.2742C135.696 31.2742 134.221 30.7593 133.139 29.7295C132.074 28.6822 131.542 27.1375 131.542 25.0953V17.1099H134.815V24.6502C134.815 25.907 135.094 26.8495 135.653 27.4779C136.229 28.0888 137.04 28.3942 138.087 28.3942C139.257 28.3942 140.182 28.0364 140.863 27.3208C141.561 26.5877 141.91 25.5404 141.91 24.179V17.1099H145.183Z" fill="#094367"/>
<path d="M152.583 19.1521C153.526 17.6859 155.184 16.9528 157.558 16.9528V20.0684C157.279 20.0161 157.026 19.9899 156.799 19.9899C155.524 19.9899 154.53 20.3652 153.814 21.1157C153.098 21.8488 152.74 22.9135 152.74 24.3099V31.091H149.468V17.1099H152.583V19.1521Z" fill="#094367"/>
<path d="M168.084 16.9528C169.446 16.9528 170.659 17.2495 171.723 17.843C172.806 18.4364 173.652 19.2742 174.263 20.3564C174.874 21.4386 175.179 22.6866 175.179 24.1004C175.179 25.5142 174.874 26.771 174.263 27.8706C173.652 28.9528 172.806 29.7906 171.723 30.3841C170.659 30.9775 169.446 31.2742 168.084 31.2742C167.124 31.2742 166.243 31.1084 165.44 30.7768C164.654 30.4452 163.991 29.9477 163.45 29.2844V31.091H160.334V11.6641H163.607V18.8117C164.166 18.2008 164.82 17.7382 165.571 17.4241C166.339 17.1099 167.176 16.9528 168.084 16.9528ZM167.717 28.4728C168.922 28.4728 169.908 28.0713 170.676 27.2684C171.462 26.4655 171.854 25.4095 171.854 24.1004C171.854 22.7913 171.462 21.7353 170.676 20.9324C169.908 20.1295 168.922 19.7281 167.717 19.7281C166.932 19.7281 166.225 19.9113 165.597 20.2779C164.968 20.627 164.471 21.1332 164.104 21.7964C163.738 22.4597 163.555 23.2277 163.555 24.1004C163.555 24.9732 163.738 25.7412 164.104 26.4044C164.471 27.0677 164.968 27.5826 165.597 27.9492C166.225 28.2982 166.932 28.4728 167.717 28.4728Z" fill="#094367"/>
<defs>
<clipPath id="clip0_1647_29326">
<rect width="48" height="43.6364" fill="white" transform="translate(0.772705)"/>
</clipPath>
</defs>
</svg>
