<svg width="24" height="24" viewBox="0 0 24 24" fill="none" xmlns="http://www.w3.org/2000/svg">
<path d="M15.7559 14.2559H14.9659L14.6859 13.9859C15.6659 12.8459 16.2559 11.3659 16.2559 9.75586C16.2559 6.16586 13.3459 3.25586 9.75586 3.25586C6.16586 3.25586 3.25586 6.16586 3.25586 9.75586C3.25586 13.3459 6.16586 16.2559 9.75586 16.2559C11.3659 16.2559 12.8459 15.6659 13.9859 14.6859L14.2559 14.9659V15.7559L19.2559 20.7459L20.7459 19.2559L15.7559 14.2559ZM9.75586 14.2559C7.26586 14.2559 5.25586 12.2459 5.25586 9.75586C5.25586 7.26586 7.26586 5.25586 9.75586 5.25586C12.2459 5.25586 14.2559 7.26586 14.2559 9.75586C14.2559 12.2459 12.2459 14.2559 9.75586 14.2559Z" fill="white"/>
</svg>
