<svg width="155" height="44" viewBox="0 0 155 44" fill="none" xmlns="http://www.w3.org/2000/svg">
<path d="M53.254 14.5487C53.254 22.4033 61.6977 23.4636 61.6977 29.1189C61.6977 31.0825 60.8337 31.7894 59.4591 31.7894C58.0846 31.7894 57.2206 31.0825 57.2206 29.1189V27.1553H53.1362V28.844C53.1362 33.2425 55.3355 35.756 59.577 35.756C63.8184 35.756 66.0177 33.2425 66.0177 28.844C66.0177 20.9894 57.574 19.9291 57.574 14.2738C57.574 12.3102 58.3595 11.564 59.734 11.564C61.1086 11.564 61.894 12.3102 61.894 14.2738V15.4127H65.9784V14.5487C65.9784 10.1502 63.8184 7.63672 59.6162 7.63672C55.414 7.63672 53.254 10.1502 53.254 14.5487Z" fill="#094367"/>
<path d="M72.2694 35.4418H76.5894V26.3305L82.0483 7.9509H77.9247L74.6258 20.4789L71.3269 7.9509H66.8105L72.2694 26.3305V35.4418Z" fill="#094367"/>
<path d="M89.7648 7.9509H83.7561V35.4418H87.5263V16.0018L90.7466 35.4418H94.831L97.8157 15.7269V35.4418H101.9V7.9509H95.8913L92.9459 27.4694L89.7648 7.9509Z" fill="#094367"/>
<path d="M103.786 11.8782H108.302V35.4418H112.622V11.8782H117.139V7.9509H103.786V11.8782Z" fill="#094367"/>
<path d="M132.472 35.4418C132.04 34.4207 132.001 33.4389 132.001 32.1036V27.8622C132.001 24.9953 131.294 22.9138 129.134 22.0105C131.059 21.1073 131.962 19.2614 131.962 16.4338V14.2738C131.962 10.0324 130.037 7.9509 125.56 7.9509H119.041V35.4418H123.361V24.2491H124.853C126.817 24.2491 127.681 25.1916 127.681 27.7444V32.0644C127.681 34.3029 127.838 34.7349 128.074 35.4418H132.472ZM125.443 11.8782C126.974 11.8782 127.642 12.7422 127.642 14.7058V17.4156C127.642 19.6149 126.66 20.3218 125.05 20.3218H123.361V11.8782H125.443Z" fill="#094367"/>
<path d="M134.842 35.4418H139.162V7.9509H134.842V35.4418Z" fill="#094367"/>
<path d="M150.765 25.1916V29.1189C150.765 31.0825 149.901 31.7894 148.526 31.7894C147.151 31.7894 146.287 31.0825 146.287 29.1189V14.2738C146.287 12.3102 147.151 11.564 148.526 11.564C149.901 11.564 150.765 12.3102 150.765 14.2738V17.2193H154.849V14.5487C154.849 10.1502 152.65 7.63672 148.408 7.63672C144.167 7.63672 141.967 10.1502 141.967 14.5487V28.844C141.967 33.2425 144.167 35.756 148.408 35.756C152.65 35.756 154.849 33.2425 154.849 28.844V25.1916H150.765Z" fill="#094367"/>
<g clip-path="url(#clip0_1647_29316)">
<path fill-rule="evenodd" clip-rule="evenodd" d="M15.6162 13.8359L13.2556 17.9171L11.0094 14.0209L13.3583 9.93971H29.7653L33.249 3.89722H9.87169L5.26496 11.8878C8.72075 17.8579 12.1712 23.828 15.6162 29.798H22.5836C20.8337 26.769 19.0847 23.7404 17.3367 20.7123L16.8523 19.874H32.8203L39.6878 31.7652L32.8203 43.6374H7.6256L0.828546 31.6507L4.24177 25.7227L6.50255 29.6175L5.27965 31.7506L9.88638 39.7412H30.561L35.1824 31.7506L30.5757 23.76H23.6083C25.0861 26.3339 26.5649 28.9074 28.0447 31.4804L28.2121 31.7461L27.089 33.6943H13.3701C9.21744 26.5135 5.07019 19.3382 0.928327 12.1682L0.772705 11.8834L7.6256 -0.0078125H40.0138L32.029 13.8359H15.6162Z" fill="#7F46F0"/>
</g>
<defs>
<clipPath id="clip0_1647_29316">
<rect width="39.2425" height="43.6364" fill="white" transform="translate(0.772705)"/>
</clipPath>
</defs>
</svg>
