<svg width="24" height="25" viewBox="0 0 24 25" fill="none" xmlns="http://www.w3.org/2000/svg">
<path d="M9.11911 1.22532L9.38845 2.31631C8.32691 2.57867 7.31091 2.99932 6.3746 3.56412L5.79842 2.59928C6.82904 1.97515 7.94881 1.51184 9.11911 1.22532ZM14.8809 1.22532L14.6115 2.31631C15.6731 2.57867 16.6891 2.99932 17.6254 3.56412L18.2084 2.59928C17.1751 1.9757 16.0531 1.51245 14.8809 1.22532ZM1.72427 6.67003C1.10072 7.70216 0.637457 8.82295 0.350307 9.99413L1.44129 10.2635C1.70365 9.20193 2.1243 8.18593 2.68911 7.24961L1.72427 6.67003ZM1.12423 12.875C1.12414 12.3295 1.16517 11.7847 1.24696 11.2454L0.135519 11.0749C-0.0451731 12.267 -0.0451731 13.4796 0.135519 14.6717L1.24696 14.5047C1.1653 13.9653 1.12427 13.4205 1.12423 12.875ZM18.2016 23.1473L17.6254 22.1859C16.6906 22.7512 15.6756 23.1719 14.615 23.4337L14.8843 24.5247C16.0532 24.2354 17.1716 23.7711 18.2016 23.1473ZM22.8758 12.875C22.8757 13.4205 22.8347 13.9653 22.753 14.5047L23.8645 14.6717C24.0452 13.4796 24.0452 12.267 23.8645 11.0749L22.753 11.2454C22.8348 11.7847 22.8759 12.3295 22.8758 12.875ZM23.6497 15.7525L22.5587 15.4832C22.297 16.546 21.8763 17.5632 21.3109 18.5004L22.2757 19.08C22.8999 18.047 23.3632 16.9249 23.6497 15.7525ZM13.6297 23.6281C12.5494 23.7917 11.4506 23.7917 10.3703 23.6281L10.2033 24.7395C11.3943 24.9202 12.6057 24.9202 13.7967 24.7395L13.6297 23.6281ZM20.7552 19.3255C20.1072 20.2042 19.3302 20.9801 18.4505 21.6268L19.1187 22.5337C20.0876 21.8204 20.9449 20.9666 21.6621 20.0005L20.7552 19.3255ZM18.4505 4.11985C19.3302 4.76779 20.1072 5.54477 20.7552 6.42455L21.6621 5.74951C20.9474 4.78256 20.0925 3.92763 19.1255 3.21296L18.4505 4.11985ZM3.24483 6.42455C3.89278 5.54477 4.66976 4.76779 5.54954 4.11985L4.87449 3.21296C3.90754 3.92763 3.05262 4.78256 2.33795 5.74951L3.24483 6.42455ZM22.2757 6.67003L21.3109 7.24961C21.8762 8.18445 22.2969 9.1994 22.5587 10.2601L23.6497 9.99072C23.3625 8.82063 22.8992 7.70095 22.2757 6.67003ZM10.3703 2.12198C11.4506 1.95831 12.5494 1.95831 13.6297 2.12198L13.7967 1.01053C12.6057 0.829822 11.3943 0.829822 10.2033 1.01053L10.3703 2.12198ZM3.82101 22.8337L1.49925 23.3724L2.04134 21.0506L0.946941 20.7949L0.404856 23.1167C0.370939 23.2606 0.365734 23.4098 0.389539 23.5558C0.413344 23.7017 0.465692 23.8416 0.543588 23.9673C0.621485 24.093 0.723402 24.2021 0.843508 24.2884C0.963615 24.3747 1.09956 24.4365 1.24355 24.4702C1.41196 24.5077 1.58655 24.5077 1.75495 24.4702L4.07671 23.9349L3.82101 22.8337ZM1.17878 19.7926L2.27658 20.0448L2.65161 18.4356C2.10394 17.517 1.69604 16.5219 1.44129 15.4832L0.350307 15.7525C0.595705 16.7468 0.966907 17.7057 1.45493 18.6061L1.17878 19.7926ZM6.42915 22.2268L4.81994 22.6018L5.07564 23.6996L6.25868 23.4235C7.15838 23.913 8.11751 24.2843 9.11229 24.5281L9.38163 23.4371C8.34612 23.1791 7.35459 22.7689 6.43938 22.22L6.42915 22.2268ZM12 3.12432C6.61325 3.12773 2.25272 7.49509 2.25272 12.8784C2.25568 14.712 2.77433 16.5078 3.74941 18.0606L2.81185 22.0632L6.81099 21.1256C11.3693 23.9928 17.3902 22.6257 20.2574 18.0708C23.1247 13.516 21.7609 7.49509 17.2061 4.62443C15.6467 3.64384 13.842 3.12382 12 3.12432Z" fill="#3A76F0"/>
</svg>
