<svg width="187" height="44" viewBox="0 0 187 44" fill="none" xmlns="http://www.w3.org/2000/svg">
<g clip-path="url(#clip0_1647_29330)">
<path fill-rule="evenodd" clip-rule="evenodd" d="M5.26136 40.8476L9.08782 38.6537L10.6241 37.7722L12.1324 36.9026L14.499 35.5463L18.2575 33.4003L22.0199 35.5463L24.3825 36.9026L25.8906 37.7722L27.431 38.6537L31.1774 40.8157L32.3165 41.4619L33.4276 42.0962L35.6819 43.3886V22.6222L31.1774 20.0334V35.674L28.1289 33.9188L23.6363 31.35L21.9235 30.3528L20.5118 29.555V3.76652H16.0071V30.1692L12.8784 31.9683L8.38998 34.5571L5.26136 36.3401V20.0653L0.772705 22.6381V43.4205L3.01096 42.1281L4.1342 41.4938L5.26136 40.8476ZM28.1249 30.3368V-0.892578H23.6324V27.7679L28.1249 30.3368ZM12.8826 28.3663V8.42162H8.3939V30.9551L12.8826 28.3663Z" fill="#28CE8C"/>
</g>
<path d="M54.7137 31.0907H58.6373L62.254 18.6413H62.4028L66.0288 31.0907H69.9524L75.4007 12.0494H71.003L67.8511 25.3077H67.6838L64.2158 12.0494H60.4503L56.973 25.2798H56.815L53.6631 12.0494H49.2654L54.7137 31.0907Z" fill="white"/>
<path d="M77.5554 31.0907H90.4232V27.7715H81.5812V23.225H89.7259V19.9058H81.5812V15.3686H90.386V12.0494H77.5554V31.0907Z" fill="white"/>
<path d="M93.5867 31.0907H105.776V27.7715H97.6125V12.0494H93.5867V31.0907Z" fill="white"/>
<path d="M104.897 12.0494L111.842 24.3593V31.0907H115.84V24.3593L122.786 12.0494H118.276L113.934 20.2498H113.748L109.406 12.0494H104.897Z" fill="white"/>
<path d="M125.461 15.3686H131.29V31.0907H135.27V15.3686H141.099V12.0494H125.461V15.3686Z" fill="white"/>
<path d="M147.701 12.0494H143.675V31.0907H147.701V12.0494Z" fill="white"/>
<path d="M167.813 18.7157C167.283 14.318 163.955 11.7891 159.548 11.7891C154.518 11.7891 150.678 15.3407 150.678 21.5701C150.678 27.7808 154.453 31.351 159.548 31.351C164.429 31.351 167.376 28.1062 167.813 24.601L163.741 24.5825C163.36 26.6186 161.761 27.7901 159.613 27.7901C156.721 27.7901 154.76 25.6424 154.76 21.5701C154.76 17.6093 156.694 15.35 159.641 15.35C161.844 15.35 163.434 16.6238 163.741 18.7157H167.813Z" fill="white"/>
<path d="M181.03 17.5256H184.888C184.833 14.132 182.043 11.7891 177.804 11.7891C173.629 11.7891 170.57 14.0948 170.589 17.5535C170.579 20.3614 172.56 21.9698 175.777 22.7415L177.85 23.2622C179.923 23.7643 181.076 24.3593 181.086 25.6424C181.076 27.037 179.756 27.9853 177.711 27.9853C175.619 27.9853 174.112 27.0184 173.982 25.1124H170.087C170.189 29.2312 173.136 31.3603 177.757 31.3603C182.406 31.3603 185.139 29.1382 185.149 25.6517C185.139 22.4812 182.75 20.7984 179.44 20.0546L177.729 19.6455C176.074 19.2643 174.689 18.6506 174.717 17.2839C174.717 16.0566 175.805 15.1548 177.776 15.1548C179.7 15.1548 180.881 16.0287 181.03 17.5256Z" fill="white"/>
<defs>
<clipPath id="clip0_1647_29330">
<rect width="34.9091" height="43.6364" fill="white" transform="translate(0.772705)"/>
</clipPath>
</defs>
</svg>
