<svg width="184" height="48" viewBox="0 0 184 48" fill="none" xmlns="http://www.w3.org/2000/svg">
<g clip-path="url(#clip0_1647_29320)">
<path fill-rule="evenodd" clip-rule="evenodd" d="M27.4819 47.085C32.6768 46.4785 37.515 44.1366 41.2133 40.4383C44.9116 36.7401 47.2534 31.9019 47.8599 26.707H39.1292C38.5785 29.5901 37.1732 32.2408 35.096 34.3146C33.0189 36.3884 30.3659 37.7894 27.4819 38.3354V47.085Z" fill="#F7936F"/>
<path fill-rule="evenodd" clip-rule="evenodd" d="M35.2373 3.24706L35.2922 3.21108C40.9416 -0.0350014 45.5096 -0.989545 47.6364 1.13916C53.6532 7.15407 36.686 25.8636 31.6597 30.8899C28.637 33.9215 25.4337 36.7675 22.0673 39.4123V47.0805C19.3608 46.7733 16.7311 45.9844 14.3025 44.7511L14.2475 44.7871C8.59814 48.0331 4.03209 48.9876 1.90339 46.8703C-1.01316 43.9538 2.39952 37.24 4.01309 34.4693C2.78746 32.0376 1.999 29.4093 1.68367 26.7044H10.4333C10.8159 28.7352 11.6252 30.6617 12.8077 32.3564C13.9902 34.0511 15.519 35.4755 17.2929 36.5355C16.2835 37.2684 15.257 37.9654 14.1926 38.6188C12.634 39.6093 11.0204 40.5448 9.35003 41.3876C8.04275 40.2299 6.87346 38.9252 5.86534 37.4995C4.10405 40.8933 3.51696 43.3875 4.45252 44.3174C8.46941 48.2945 26.5368 31.6986 29.5083 28.7271C32.6719 25.5677 35.631 22.21 38.3678 18.6745C37.466 16.3698 35.9929 14.3323 34.0869 12.7536C32.1809 11.175 29.9047 10.1071 27.4724 9.65022V0.900531C30.1794 1.20509 32.8096 1.99415 35.2373 3.22999V3.24706ZM43.6744 10.493C45.4357 7.09918 46.0228 4.60496 45.0872 3.67507C44.1516 2.74518 41.6783 3.34555 38.2826 5.10684C40.3701 6.58832 42.1929 8.41114 43.6744 10.4987V10.493Z" fill="#F16063"/>
<path fill-rule="evenodd" clip-rule="evenodd" d="M22.0711 0.916016C16.8761 1.52292 12.0379 3.86523 8.33967 7.56382C4.64143 11.2624 2.29953 16.1008 1.69312 21.2959H10.4428C10.9861 18.4125 12.3864 15.76 14.461 13.6851C16.5356 11.6102 19.1878 10.2094 22.0711 9.66566V0.916016Z" fill="#F7936F"/>
</g>
<path d="M88.3863 29.5561C88.3863 30.5675 88.1932 31.522 87.8068 32.4197C87.4318 33.3061 86.9091 34.0845 86.2386 34.755C85.5795 35.4141 84.8011 35.9368 83.9034 36.3232C83.017 36.6982 82.0682 36.8857 81.0568 36.8857C80.1477 36.8857 79.2727 36.7266 78.4318 36.4084C77.6023 36.0902 76.8523 35.6243 76.1818 35.0107C75.5113 35.6243 74.7557 36.0902 73.9148 36.4084C73.0738 36.7266 72.1988 36.8857 71.2898 36.8857C70.2784 36.8857 69.3238 36.6982 68.4261 36.3232C67.5398 35.9368 66.7613 35.4141 66.0909 34.755C65.4318 34.0845 64.9091 33.3061 64.5227 32.4197C64.1477 31.522 63.9602 30.5675 63.9602 29.5561V12.1016H68.8523V29.5561C68.8523 29.897 68.9148 30.2209 69.0398 30.5277C69.1648 30.8232 69.3352 31.0845 69.5511 31.3118C69.7784 31.5277 70.0398 31.6982 70.3352 31.8232C70.6307 31.9482 70.9488 32.0107 71.2898 32.0107C71.6307 32.0107 71.9488 31.9482 72.2443 31.8232C72.5398 31.6982 72.7954 31.5277 73.0113 31.3118C73.2386 31.0845 73.4148 30.8232 73.5398 30.5277C73.6648 30.2209 73.7273 29.897 73.7273 29.5561V12.1016H78.6193V29.5561C78.6193 29.897 78.6818 30.2209 78.8068 30.5277C78.9318 30.8232 79.1023 31.0845 79.3182 31.3118C79.5454 31.5277 79.8068 31.6982 80.1023 31.8232C80.3977 31.9482 80.7159 32.0107 81.0568 32.0107C81.3977 32.0107 81.7159 31.9482 82.0113 31.8232C82.3068 31.6982 82.5625 31.5277 82.7784 31.3118C83.0057 31.0845 83.1818 30.8232 83.3068 30.5277C83.4432 30.2209 83.5113 29.897 83.5113 29.5561V12.1016H88.3863V29.5561Z" fill="#094367"/>
<path d="M97.7613 13.3288C97.7613 13.7607 97.6761 14.1641 97.5057 14.5391C97.3466 14.9141 97.125 15.2436 96.8409 15.5277C96.5568 15.8004 96.2216 16.022 95.8352 16.1925C95.4602 16.3516 95.0568 16.4311 94.625 16.4311C94.1932 16.4311 93.7841 16.3516 93.3977 16.1925C93.0227 16.022 92.6932 15.8004 92.4091 15.5277C92.1363 15.2436 91.9148 14.9141 91.7443 14.5391C91.5852 14.1641 91.5057 13.7607 91.5057 13.3288C91.5057 12.9084 91.5852 12.5107 91.7443 12.1357C91.9148 11.7493 92.1363 11.4197 92.4091 11.147C92.6932 10.8629 93.0227 10.6413 93.3977 10.4822C93.7841 10.3118 94.1932 10.2266 94.625 10.2266C95.0568 10.2266 95.4602 10.3118 95.8352 10.4822C96.2216 10.6413 96.5568 10.8629 96.8409 11.147C97.125 11.4197 97.3466 11.7493 97.5057 12.1357C97.6761 12.5107 97.7613 12.9084 97.7613 13.3288ZM96.9602 36.5447H92.2727V18.2891H96.9602V36.5447Z" fill="#094367"/>
<path d="M110.545 36.5447H99.9091V31.9084H110.545C110.864 31.9084 111.136 31.7947 111.364 31.5675C111.591 31.3402 111.705 31.0675 111.705 30.7493C111.705 30.4197 111.591 30.2038 111.364 30.1016C111.136 29.9993 110.864 29.9482 110.545 29.9482H105.705C104.898 29.9482 104.142 29.7947 103.437 29.4879C102.733 29.1811 102.119 28.7663 101.597 28.2436C101.074 27.7095 100.659 27.0902 100.352 26.3857C100.057 25.6811 99.9091 24.9254 99.9091 24.1186C99.9091 23.3118 100.057 22.5561 100.352 21.8516C100.659 21.147 101.074 20.5334 101.597 20.0107C102.119 19.4879 102.733 19.0788 103.437 18.7834C104.142 18.4766 104.898 18.3232 105.705 18.3232H115.131V22.9595H105.705C105.386 22.9595 105.114 23.0732 104.886 23.3004C104.659 23.5277 104.545 23.8004 104.545 24.1186C104.545 24.4482 104.659 24.7322 104.886 24.9709C105.114 25.1982 105.386 25.3118 105.705 25.3118H110.545C111.341 25.3118 112.091 25.4482 112.795 25.7209C113.5 25.9822 114.114 26.3516 114.636 26.8288C115.159 27.3061 115.574 27.88 115.881 28.5504C116.187 29.2209 116.341 29.9538 116.341 30.7493C116.341 31.5561 116.187 32.3118 115.881 33.0163C115.574 33.7095 115.159 34.3232 114.636 34.8572C114.114 35.38 113.5 35.7947 112.795 36.1016C112.091 36.397 111.341 36.5447 110.545 36.5447Z" fill="#094367"/>
<path d="M123.483 36.5447H118.83V11.0277H123.483V19.0902C124.04 18.6697 124.614 18.3743 125.205 18.2038C125.795 18.022 126.398 17.9311 127.011 17.9311C128.136 17.9311 129.193 18.147 130.182 18.5788C131.17 18.9993 132.028 19.5845 132.756 20.3345C133.494 21.0732 134.074 21.9425 134.494 22.9425C134.926 23.9311 135.142 24.9879 135.142 26.1129V36.5447H130.455V26.1129H130.489C130.489 25.6357 130.398 25.1868 130.216 24.7663C130.034 24.3345 129.784 23.9595 129.466 23.6413C129.148 23.3232 128.778 23.0732 128.358 22.8913C127.937 22.7095 127.489 22.6186 127.011 22.6186C126.523 22.6186 126.062 22.7095 125.631 22.8913C125.199 23.0732 124.824 23.3232 124.506 23.6413C124.187 23.9595 123.937 24.3345 123.756 24.7663C123.574 25.1868 123.483 25.6357 123.483 26.1129V36.5447Z" fill="#094367"/>
<path d="M145.727 32.0788C145.909 32.1357 146.091 32.1754 146.273 32.1982C146.455 32.2095 146.636 32.2152 146.818 32.2152C147.273 32.2152 147.71 32.1527 148.131 32.0277C148.551 31.9027 148.943 31.7266 149.307 31.4993C149.682 31.2607 150.011 30.9766 150.295 30.647C150.591 30.3061 150.83 29.9311 151.011 29.522L154.42 32.9482C153.989 33.5618 153.489 34.1129 152.92 34.6016C152.364 35.0902 151.756 35.505 151.097 35.8459C150.449 36.1868 149.761 36.4425 149.034 36.6129C148.318 36.7947 147.58 36.8857 146.818 36.8857C145.534 36.8857 144.324 36.647 143.187 36.1697C142.062 35.6925 141.074 35.0277 140.222 34.1754C139.381 33.3232 138.716 32.3118 138.227 31.1413C137.739 29.9595 137.494 28.6641 137.494 27.255C137.494 25.8118 137.739 24.4936 138.227 23.3004C138.716 22.1072 139.381 21.0902 140.222 20.2493C141.074 19.4084 142.062 18.755 143.187 18.2891C144.324 17.8232 145.534 17.5902 146.818 17.5902C147.58 17.5902 148.324 17.6811 149.051 17.8629C149.778 18.0447 150.466 18.3061 151.114 18.647C151.773 18.9879 152.386 19.4084 152.955 19.9084C153.523 20.397 154.023 20.9482 154.455 21.5618L145.727 32.0788ZM148.114 22.4822C147.898 22.4027 147.682 22.3516 147.466 22.3288C147.261 22.3061 147.045 22.2947 146.818 22.2947C146.182 22.2947 145.58 22.4141 145.011 22.6527C144.455 22.88 143.966 23.2095 143.545 23.6413C143.136 24.0732 142.812 24.5959 142.574 25.2095C142.335 25.8118 142.216 26.4936 142.216 27.255C142.216 27.4254 142.222 27.6186 142.233 27.8345C142.256 28.0504 142.284 28.272 142.318 28.4993C142.364 28.7152 142.415 28.9254 142.472 29.13C142.528 29.3345 142.602 29.5163 142.693 29.6754L148.114 22.4822Z" fill="#094367"/>
<path d="M161.494 36.5447H156.807V11.0277H161.494V36.5447Z" fill="#094367"/>
<path d="M169.744 43.4993H165.057V18.2891H166.182L168.04 20.4879C168.46 20.0902 168.92 19.7152 169.42 19.3629C169.92 19.0107 170.437 18.7095 170.972 18.4595C171.517 18.1982 172.08 17.9936 172.659 17.8459C173.239 17.6982 173.824 17.6243 174.415 17.6243C175.699 17.6243 176.903 17.8572 178.028 18.3232C179.165 18.7777 180.153 19.4254 180.994 20.2663C181.847 21.1072 182.517 22.1243 183.006 23.3175C183.494 24.4993 183.739 25.8118 183.739 27.255C183.739 28.755 183.494 30.1072 183.006 31.3118C182.517 32.505 181.847 33.522 180.994 34.3629C180.153 35.1925 179.165 35.8288 178.028 36.272C176.903 36.7152 175.699 36.9368 174.415 36.9368C174.006 36.9368 173.597 36.8913 173.187 36.8004C172.79 36.7095 172.392 36.5902 171.994 36.4425C171.608 36.2834 171.222 36.1072 170.835 35.9141C170.46 35.7209 170.097 35.522 169.744 35.3175V43.4993ZM179.068 27.255C179.068 26.4822 178.943 25.7891 178.693 25.1754C178.455 24.5618 178.125 24.0447 177.705 23.6243C177.284 23.1925 176.79 22.8629 176.222 22.6357C175.653 22.4084 175.051 22.2947 174.415 22.2947C173.778 22.2947 173.176 22.4084 172.608 22.6357C172.051 22.8629 171.562 23.1925 171.142 23.6243C170.722 24.0447 170.386 24.5618 170.136 25.1754C169.898 25.7891 169.778 26.4822 169.778 27.255C169.778 27.9936 169.898 28.6697 170.136 29.2834C170.386 29.897 170.722 30.4197 171.142 30.8516C171.562 31.2834 172.051 31.6186 172.608 31.8572C173.176 32.0959 173.778 32.2152 174.415 32.2152C175.051 32.2152 175.653 32.0959 176.222 31.8572C176.79 31.6186 177.284 31.2834 177.705 30.8516C178.125 30.4197 178.455 29.897 178.693 29.2834C178.943 28.6697 179.068 27.9936 179.068 27.255Z" fill="#094367"/>
<defs>
<clipPath id="clip0_1647_29320">
<rect width="48.142" height="48" fill="white" transform="translate(0.772705)"/>
</clipPath>
</defs>
</svg>
