<svg width="23" height="23" viewBox="0 0 23 23" fill="none" xmlns="http://www.w3.org/2000/svg">
<path d="M1.38477 8.3251C1.38477 6.01488 1.38477 4.85977 1.83754 3.97739C2.23581 3.20122 2.87131 2.57017 3.65295 2.1747C4.54157 1.7251 5.70483 1.7251 8.03135 1.7251H14.1241C16.4506 1.7251 17.6138 1.7251 18.5025 2.1747C19.2841 2.57017 19.9196 3.20122 20.3179 3.97739C20.7706 4.85977 20.7706 6.01488 20.7706 8.3251V14.3751C20.7706 16.6853 20.7706 17.8404 20.3179 18.7228C19.9196 19.499 19.2841 20.13 18.5025 20.5255C17.6138 20.9751 16.4506 20.9751 14.1241 20.9751H8.03135C5.70483 20.9751 4.54157 20.9751 3.65295 20.5255C2.87131 20.13 2.23581 19.499 1.83754 18.7228C1.38477 17.8404 1.38477 16.6853 1.38477 14.3751V8.3251Z" fill="url(#paint0_linear_135_1057)"/>
<path d="M16.8072 7.24343C15.7591 6.36343 14.5014 5.92343 13.1739 5.8501L12.9643 6.0701C14.1521 6.36343 15.2002 6.9501 16.1783 7.75676C14.9905 7.09676 13.663 6.65676 12.2656 6.5101C11.8464 6.43676 11.497 6.43676 11.0778 6.43676C10.6586 6.43676 10.3092 6.43676 9.89 6.5101C8.49259 6.65676 7.16505 7.09676 5.97725 7.75676C6.95544 6.9501 8.00349 6.36343 9.19129 6.0701L8.98168 5.8501C7.65414 5.92343 6.39647 6.36343 5.34842 7.24343C4.16062 9.5901 3.53178 12.2301 3.46191 14.9434C4.50997 16.1168 5.97725 16.8501 7.5144 16.8501C7.5144 16.8501 8.0035 16.2634 8.35285 15.7501C7.44453 15.5301 6.60609 15.0168 6.04712 14.2101C6.53622 14.5034 7.02531 14.7968 7.5144 15.0168C8.14324 15.3101 8.77207 15.4568 9.4009 15.6034C9.95987 15.6768 10.5188 15.7501 11.0778 15.7501C11.6368 15.7501 12.1957 15.6768 12.7547 15.6034C13.3835 15.4568 14.0124 15.3101 14.6412 15.0168C15.1303 14.7968 15.6194 14.5034 16.1085 14.2101C15.5495 15.0168 14.7111 15.5301 13.8027 15.7501C14.1521 16.2634 14.6412 16.8501 14.6412 16.8501C16.1783 16.8501 17.6456 16.1168 18.6937 14.9434C18.6238 12.2301 17.995 9.5901 16.8072 7.24343ZM8.77207 13.6234C8.07337 13.6234 7.44453 12.9634 7.44453 12.1568C7.44453 11.3501 8.07337 10.6901 8.77207 10.6901C9.47078 10.6901 10.0996 11.3501 10.0996 12.1568C10.0996 12.9634 9.47078 13.6234 8.77207 13.6234ZM13.3835 13.6234C12.6848 13.6234 12.056 12.9634 12.056 12.1568C12.056 11.3501 12.6848 10.6901 13.3835 10.6901C14.0822 10.6901 14.7111 11.3501 14.7111 12.1568C14.7111 12.9634 14.0822 13.6234 13.3835 13.6234Z" fill="white"/>
<defs>
<linearGradient id="paint0_linear_135_1057" x1="11.0777" y1="1.7251" x2="11.0777" y2="20.9751" gradientUnits="userSpaceOnUse">
<stop stop-color="#687EC9"/>
<stop offset="1" stop-color="#5971C3"/>
</linearGradient>
</defs>
</svg>
