<svg width="1051" height="601" viewBox="0 0 1051 601" fill="none" xmlns="http://www.w3.org/2000/svg">
<g opacity="0.8">
<path d="M1116.32 589.896C1201.1 897.128 887.03 928.4 660.373 835.632C528.129 787.923 441.283 936.295 277.459 877.082C113.634 817.868 310.026 631.345 59.3549 535.616C-191.316 439.888 -68.9407 11.5764 150.15 6.642C369.24 1.70758 309.039 -70.3358 528.13 -235.147C747.22 -399.958 1116.32 -170.999 1024.54 70.7902C932.756 312.579 1024.54 257.313 1116.32 589.896Z" stroke="#E36B12" stroke-width="5.34923"/>
<path d="M644.783 350.795C654.565 380.057 608.745 427.264 571.901 407.117C538.162 388.669 503.806 401.111 481.107 392.886C421.35 371.234 443.331 359.773 416.618 334.057C384.112 302.764 368.601 220.822 443.331 220.822C504.793 220.822 486.403 190.971 532.426 177.744C578.449 164.517 630.642 187.032 630.642 246.308C630.642 268.568 628.489 302.058 644.783 350.795Z" stroke="#E36B12" stroke-width="5.34923"/>
<path d="M1073.46 569.654C1151.43 851.616 861.739 884.337 652.338 798.171C529.049 753.121 446.975 889.136 295.98 834.558C141.616 778.759 322.152 608.151 91.8412 518.787C-138.997 428.916 -29.1563 32.0932 176.81 27.6073C381.571 23.1215 325.171 -45.0862 528.528 -196.117C731.885 -347.148 1072.17 -136.956 988.736 88.2407C905.299 310.072 988.541 262.875 1073.46 569.654Z" stroke="#E36B12" stroke-width="5.34923"/>
<path d="M1030.6 549.408C1101.74 806.1 836.444 840.269 644.299 760.705C529.965 718.316 452.662 841.974 314.497 792.031C169.594 739.647 334.274 584.953 124.323 501.954C-86.6814 417.941 10.6236 52.6062 203.467 48.5689C393.897 44.5316 341.299 -19.8405 528.922 -157.091C716.546 -294.341 1028.02 -102.917 952.931 105.687C877.837 307.562 952.54 268.433 1030.6 549.408Z" stroke="#E36B12" stroke-width="5.34923"/>
<path d="M987.736 529.161C1052.07 760.583 811.153 796.201 636.263 723.239C530.884 683.51 458.353 794.81 333.018 749.503C197.576 700.533 346.4 561.754 156.809 485.12C-34.3624 406.965 50.4076 73.118 230.127 69.5293C406.227 65.9406 357.43 5.40418 529.32 -118.066C701.21 -241.536 983.879 -68.8795 917.13 123.133C850.38 305.05 916.543 273.991 987.736 529.161Z" stroke="#E36B12" stroke-width="5.34923"/>
<path d="M944.872 508.914C1002.38 715.065 785.857 752.132 628.223 685.772C531.799 648.703 464.04 747.646 351.534 706.974C225.553 661.419 358.522 538.555 189.291 468.285C17.9524 395.988 90.1872 93.6293 256.783 90.4892C418.554 87.3491 373.557 30.6483 529.714 -79.0413C685.87 -188.731 939.73 -34.8422 881.324 140.578C822.918 302.538 880.542 279.547 944.872 508.914Z" stroke="#E36B12" stroke-width="5.34923"/>
<path d="M902.02 487.639C952.712 668.521 760.573 707.037 620.195 647.278C532.726 612.869 469.738 699.455 370.062 663.419C253.541 621.278 370.655 514.329 221.783 450.424C70.2783 383.985 129.978 113.114 283.45 110.422C430.891 107.731 389.695 54.8657 530.118 -41.0434C670.542 -136.953 895.592 -1.83173 845.53 156.997C795.467 299 844.552 284.077 902.02 487.639Z" stroke="#E36B12" stroke-width="5.34923"/>
<path d="M859.159 465.152C903.033 620.764 735.28 660.728 612.157 607.572C533.644 575.823 475.428 650.052 388.581 618.65C281.521 579.924 382.779 488.89 254.267 431.35C122.596 370.768 169.76 131.386 310.108 129.143C443.219 126.9 405.825 77.8702 530.515 -4.25857C655.205 -86.3873 851.445 29.9659 809.727 172.202C768.008 294.248 808.553 287.394 859.159 465.152Z" stroke="#E36B12" stroke-width="5.34923"/>
<path d="M816.296 442.602C853.352 572.944 709.986 614.357 604.119 567.802C534.56 538.713 481.116 600.585 407.099 573.819C309.5 538.508 394.903 463.388 286.751 412.213C174.912 357.489 209.542 149.594 336.766 147.8C455.547 146.005 421.953 100.812 530.91 32.4631C639.866 -35.8853 807.298 61.7003 773.923 187.345C740.548 289.433 772.553 290.648 816.296 442.602Z" stroke="#E36B12" stroke-width="5.34923"/>
<path d="M773.429 419.95C803.666 525.022 684.686 567.883 596.075 527.931C535.472 501.502 486.799 551.016 425.612 528.885C337.473 496.989 407.02 437.783 319.228 392.973C227.223 344.107 249.317 167.701 363.418 166.355C467.869 165.009 438.076 123.651 531.299 69.083C624.523 14.515 763.144 93.3328 738.113 202.385C713.082 284.516 736.548 293.8 773.429 419.95Z" stroke="#E36B12" stroke-width="5.34923"/>
<path d="M730.554 397.154C753.973 476.956 659.38 521.266 588.024 487.916C536.376 464.147 492.475 501.304 444.118 483.809C365.44 455.327 419.131 412.036 351.699 373.591C279.527 330.582 289.086 185.664 390.063 184.767C480.184 183.87 454.192 146.347 531.682 105.56C609.172 64.7721 718.984 124.822 702.297 217.282C685.609 279.457 700.536 296.809 730.554 397.154Z" stroke="#E36B12" stroke-width="5.34923"/>
<path d="M687.684 374.142C704.285 428.674 634.079 474.432 579.979 447.684C537.285 426.575 498.157 451.375 462.629 438.515C393.411 413.448 431.247 386.072 384.175 353.991C331.836 316.84 328.86 203.41 416.713 202.962C492.505 202.513 470.314 168.826 532.07 141.819C593.826 114.812 674.829 156.094 666.486 231.962C658.142 274.179 664.529 299.601 687.684 374.142Z" stroke="#E36B12" stroke-width="5.34923"/>
</g>
</svg>
