<svg width="22" height="24" viewBox="0 0 22 24" fill="none" xmlns="http://www.w3.org/2000/svg">
<path fill-rule="evenodd" clip-rule="evenodd" d="M14.432 11.4C14.432 12.132 13.892 12.732 13.208 12.732C12.536 12.732 11.984 12.132 11.984 11.4C11.984 10.668 12.524 10.068 13.208 10.068C13.892 10.068 14.432 10.668 14.432 11.4ZM8.828 10.068C8.144 10.068 7.604 10.668 7.604 11.4C7.604 12.132 8.156 12.732 8.828 12.732C9.512 12.732 10.052 12.132 10.052 11.4C10.064 10.668 9.512 10.068 8.828 10.068ZM21.5 2.472V24C18.4768 21.3284 19.4437 22.2127 15.932 18.948L16.568 21.168H2.96C1.604 21.168 0.5 20.064 0.5 18.696V2.472C0.5 1.104 1.604 0 2.96 0H19.04C20.396 0 21.5 1.104 21.5 2.472ZM18.08 13.848C18.08 9.984 16.352 6.852 16.352 6.852C14.624 5.556 12.98 5.592 12.98 5.592L12.812 5.784C14.852 6.408 15.8 7.308 15.8 7.308C12.9495 5.7457 9.60106 5.74542 6.836 6.96C6.392 7.164 6.128 7.308 6.128 7.308C6.128 7.308 7.124 6.36 9.284 5.736L9.164 5.592C9.164 5.592 7.52 5.556 5.792 6.852C5.792 6.852 4.064 9.984 4.064 13.848C4.064 13.848 5.072 15.588 7.724 15.672C7.724 15.672 8.168 15.132 8.528 14.676C7.004 14.22 6.428 13.26 6.428 13.26C6.60453 13.3836 6.89562 13.5437 6.92 13.56C8.94547 14.6943 11.8226 15.0659 14.408 13.98C14.828 13.824 15.296 13.596 15.788 13.272C15.788 13.272 15.188 14.256 13.616 14.7C13.976 15.156 14.408 15.672 14.408 15.672C17.06 15.588 18.08 13.848 18.08 13.848Z" fill="#a8a29e"/>
</svg>
