<svg width="21" height="21" viewBox="0 0 21 21" fill="none" xmlns="http://www.w3.org/2000/svg">
<path fill-rule="evenodd" clip-rule="evenodd" d="M6.36957 0.127682C4.74169 0.201132 3.33072 0.599152 2.1914 1.73366C1.0481 2.87413 0.65506 4.29053 0.58143 5.90148C0.535658 6.90696 0.267993 14.5031 1.04412 16.4953C1.56751 17.8392 2.59837 18.8725 3.95461 19.3976C4.58746 19.6437 5.30985 19.8105 6.36957 19.8591C15.2304 20.2601 18.515 20.0417 19.9001 16.4953C20.1458 15.864 20.315 15.1424 20.3618 14.0853C20.7668 5.20177 20.2961 3.27621 18.7518 1.73371C17.5269 0.511852 16.0861 -0.319918 6.3695 0.127732M6.45295 18.0725C5.48278 18.0288 4.95641 17.867 4.60516 17.731C3.72156 17.3876 3.05788 16.7265 2.71658 15.8481C2.12552 14.3344 2.32155 7.14522 2.37428 5.98191C2.42603 4.84243 2.65687 3.80122 3.46086 2.99724C4.4559 2.00466 5.74149 1.5183 14.4949 1.91335C15.6372 1.96496 16.681 2.19525 17.4869 2.99724C18.482 3.98981 18.9755 5.28512 18.5735 14.0049C18.5297 14.9727 18.3675 15.4978 18.2312 15.8482C17.3307 18.1559 15.2591 18.4765 6.45293 18.0725M14.5895 4.69458C14.5895 5.35167 15.1238 5.88567 15.7835 5.88567C16.4433 5.88567 16.9786 5.35167 16.9786 4.69458C16.9786 4.0375 16.4433 3.50349 15.7835 3.50349C15.1238 3.50349 14.5895 4.0375 14.5895 4.69458ZM5.36251 9.99294C5.36251 12.8079 7.6501 15.0898 10.472 15.0898C13.294 15.0898 15.5815 12.8079 15.5815 9.99294C15.5815 7.178 13.294 4.89707 10.472 4.89707C7.6501 4.89707 5.36251 7.178 5.36251 9.99294ZM7.15557 9.99294C7.15557 8.16661 8.64017 6.68469 10.472 6.68469C12.3039 6.68469 13.7885 8.16661 13.7885 9.99294C13.7885 11.8203 12.3039 13.3022 10.472 13.3022C8.64017 13.3022 7.15557 11.8203 7.15557 9.99294Z" fill="#2DD4BF"/>
</svg>
