<svg width="21" height="21" viewBox="0 0 21 21" fill="none" xmlns="http://www.w3.org/2000/svg">
<path fill-rule="evenodd" clip-rule="evenodd" d="M2.7293 15.7211C3.96051 15.7211 4.9586 16.7192 4.9586 17.9504C4.9586 19.1816 3.96051 20.1797 2.7293 20.1797C1.49809 20.1797 0.5 19.1816 0.5 17.9504C0.5 16.7192 1.49809 15.7211 2.7293 15.7211ZM10.5 15.7211C11.7312 15.7211 12.7293 16.7192 12.7293 17.9504C12.7293 19.1816 11.7312 20.1797 10.5 20.1797C9.26879 20.1797 8.2707 19.1816 8.2707 17.9504C8.2707 16.7192 9.26879 15.7211 10.5 15.7211ZM18.2707 15.7211C19.5019 15.7211 20.5 16.7192 20.5 17.9504C20.5 19.1816 19.5019 20.1797 18.2707 20.1797C17.0395 20.1797 16.0414 19.1816 16.0414 17.9504C16.0414 16.7192 17.0395 15.7211 18.2707 15.7211ZM18.2707 7.95039C19.5019 7.95039 20.5 8.94848 20.5 10.1797C20.5 11.4109 19.5019 12.409 18.2707 12.409C17.0395 12.409 16.0414 11.4109 16.0414 10.1797C16.0414 8.94848 17.0395 7.95039 18.2707 7.95039ZM10.5 7.95039C11.7312 7.95039 12.7293 8.94848 12.7293 10.1797C12.7293 11.4109 11.7312 12.409 10.5 12.409C9.26879 12.409 8.2707 11.4109 8.2707 10.1797C8.2707 8.94848 9.26879 7.95039 10.5 7.95039ZM2.7293 7.95039C3.96051 7.95039 4.9586 8.94848 4.9586 10.1797C4.9586 11.4109 3.96051 12.409 2.7293 12.409C1.49809 12.409 0.5 11.4109 0.5 10.1797C0.5 8.94848 1.49809 7.95039 2.7293 7.95039ZM2.7293 0.179688C3.96051 0.179688 4.9586 1.17778 4.9586 2.40899C4.9586 3.64019 3.96051 4.63829 2.7293 4.63829C1.49809 4.63829 0.5 3.64019 0.5 2.40899C0.5 1.17778 1.49809 0.179688 2.7293 0.179688ZM10.5 0.179688C11.7312 0.179688 12.7293 1.17778 12.7293 2.40899C12.7293 3.64019 11.7312 4.63829 10.5 4.63829C9.26879 4.63829 8.2707 3.64019 8.2707 2.40899C8.2707 1.17778 9.26879 0.179688 10.5 0.179688ZM18.2707 0.179688C19.5019 0.179688 20.5 1.17778 20.5 2.40899C20.5 3.64019 19.5019 4.63829 18.2707 4.63829C17.0395 4.63829 16.0414 3.64019 16.0414 2.40899C16.0414 1.17778 17.0395 0.179688 18.2707 0.179688Z" fill="white"/>
</svg>
