<svg width="21" height="17" viewBox="0 0 21 17" fill="none" xmlns="http://www.w3.org/2000/svg">
<path fill-rule="evenodd" clip-rule="evenodd" d="M6.79 16.002C14.337 16.002 18.465 9.84569 18.465 4.50753C18.465 4.33228 18.465 4.15802 18.453 3.98474C19.256 3.4137 19.949 2.70483 20.5 1.89357C19.752 2.22044 18.957 2.43507 18.144 2.52958C19 2.02451 19.641 1.23097 19.948 0.294675C19.142 0.765285 18.261 1.09707 17.342 1.27528C15.788 -0.351185 13.189 -0.429945 11.536 1.10003C10.471 2.08654 10.018 3.55745 10.349 4.96042C7.05 4.79699 3.976 3.26307 1.892 0.739695C0.803 2.5857 1.36 4.94664 3.163 6.13203C2.51 6.11332 1.871 5.94004 1.3 5.62696V5.67815C1.301 7.60097 2.678 9.25698 4.592 9.63799C3.988 9.80044 3.354 9.82406 2.74 9.7069C3.277 11.3531 4.818 12.4804 6.573 12.5129C5.12 13.6372 3.325 14.2476 1.477 14.2457C1.151 14.2447 0.825 14.226 0.5 14.1876C2.377 15.373 4.56 16.0021 6.79 15.9991" fill="white"/>
</svg>
