<svg width="22" height="14" viewBox="0 0 22 14" fill="none" xmlns="http://www.w3.org/2000/svg">
<path fill-rule="evenodd" clip-rule="evenodd" d="M17.107 5.68251L14.0537 2.63529V2.62198C13.5203 2.08972 13.5203 1.2514 14.0537 0.732449C14.5737 0.200186 15.4137 0.200186 15.947 0.732449L21.2803 6.05507C21.5948 6.36085 21.7191 6.79316 21.6532 7.20191C21.6021 7.55731 21.4088 7.86855 21.1333 8.07595L15.9327 13.2661C15.6794 13.5056 15.3327 13.6519 14.9861 13.6519L14.9994 13.6666C14.6394 13.6666 14.2927 13.5202 14.0527 13.2807C13.5194 12.7617 13.5194 11.9101 14.0394 11.3912V11.3779L17.0795 8.34382H1.66668C0.92001 8.34382 0.333344 7.74503 0.333344 7.01317C0.333344 6.268 0.92001 5.68251 1.66668 5.68251H17.107Z" fill="white"/>
</svg>
