<svg width="25" height="24" viewBox="0 0 25 24" fill="none" xmlns="http://www.w3.org/2000/svg">
<path fill-rule="evenodd" clip-rule="evenodd" d="M12.5 0C5.87097 0 0.5 5.37097 0.5 12C0.5 18.629 5.87097 24 12.5 24C19.129 24 24.5 18.629 24.5 12C24.5 5.37097 19.129 0 12.5 0ZM18.3935 8.22097L16.4242 17.5016C16.279 18.1597 15.8871 18.3194 15.3403 18.0097L12.3403 15.7984L10.8935 17.1919C10.7339 17.3516 10.5984 17.4871 10.2887 17.4871L10.5016 14.4339L16.0613 9.41129C16.3032 9.19839 16.0081 9.07742 15.6887 9.29032L8.81774 13.6161L5.85645 12.6919C5.2129 12.4887 5.19839 12.0484 5.99194 11.7387L17.5613 7.27742C18.0984 7.08387 18.5677 7.40806 18.3935 8.22097Z" fill="#2DD4BF"/>
</svg>
