<svg width="25" height="24" viewBox="0 0 25 24" fill="none" xmlns="http://www.w3.org/2000/svg">
<path fill-rule="evenodd" clip-rule="evenodd" d="M8.79 20.002C16.337 20.002 20.465 13.8457 20.465 8.50753C20.465 8.33228 20.465 8.15802 20.453 7.98474C21.256 7.4137 21.949 6.70483 22.5 5.89357C21.752 6.22044 20.957 6.43507 20.144 6.52958C21 6.02451 21.641 5.23097 21.948 4.29467C21.142 4.76528 20.261 5.09707 19.342 5.27528C17.788 3.64881 15.189 3.57005 13.536 5.10003C12.471 6.08654 12.018 7.55746 12.349 8.96042C9.05 8.79699 5.976 7.26307 3.892 4.73969C2.803 6.5857 3.36 8.94664 5.163 10.132C4.51 10.1133 3.871 9.94004 3.3 9.62696V9.67815C3.301 11.601 4.678 13.257 6.592 13.638C5.988 13.8004 5.354 13.8241 4.74 13.7069C5.277 15.3531 6.818 16.4804 8.573 16.5129C7.12 17.6372 5.325 18.2476 3.477 18.2457C3.151 18.2447 2.825 18.226 2.5 18.1876C4.377 19.373 6.56 20.0021 8.79 19.9991" fill="#2DD4BF"/>
</svg>
