<?xml version="1.0" encoding="utf-8"?><!-- Uploaded to: SVG Repo, www.svgrepo.com, Generator: SVG Repo Mixer Tools -->
<svg version="1.1" id="designs" xmlns="http://www.w3.org/2000/svg" xmlns:xlink="http://www.w3.org/1999/xlink" 
	 width="800px" height="800px" viewBox="0 0 32 32" xml:space="preserve">
<style type="text/css">
	.sketchy_een{fill:#ef8435;}
</style>
<path class="sketchy_een" d="M29.975,23.997c0-0.204-0.004-0.408-0.002-0.611c0.004-0.419,0.029-0.838,0.027-1.256
	c-0.002-0.891-0.021-1.78-0.041-2.669c-0.014-0.615,0.008-1.228-0.01-1.844c-0.008-0.33-0.027-0.66-0.037-0.99
	c-0.008-0.301-0.002-0.604-0.004-0.906c-0.006-1.359-0.115-2.713-0.116-4.072c0-0.604,0-1.209-0.004-1.813
	c-0.004-0.631,0.039-1.265,0.078-1.894c0.027-0.431-0.38-0.792-0.794-0.792c-0.028,0-0.05,0.013-0.077,0.016
	c-0.122-0.074-0.256-0.129-0.407-0.133c-0.014,0-0.027-0.001-0.041-0.001c-0.173,0-0.346,0.032-0.52,0.034
	c-0.185,0.002-0.37,0.004-0.555,0.006c-0.001-0.168,0.002-0.335-0.002-0.503c-0.01-0.38-0.282-0.691-0.645-0.765
	c-0.014-0.036-0.017-0.075-0.037-0.108c-0.085-0.146-0.264-0.314-0.443-0.34c-0.601-0.081-1.205-0.109-1.81-0.109
	c-0.693,0-1.387,0.036-2.079,0.068c-0.677,0.031-1.357,0.07-2.034,0.111c-0.629,0.037-1.252,0.08-1.867,0.213
	c-0.256,0.056-0.518,0.109-0.769,0.192c-0.32,0.109-0.629,0.241-0.932,0.388c-0.344,0.168-0.639,0.424-0.917,0.694
	c-0.185-0.159-0.379-0.311-0.584-0.446c-0.384-0.248-0.817-0.421-1.254-0.551c-0.637-0.186-1.304-0.26-1.966-0.291
	c-0.668-0.033-1.333-0.087-2.003-0.099C9.377,5.513,8.624,5.511,7.869,5.505C7.197,5.499,6.526,5.478,5.854,5.478
	c-0.152,0-0.304,0.001-0.457,0.004C5.053,5.488,4.767,5.72,4.669,6.035c-0.171,0.144-0.287,0.348-0.277,0.58
	c0.006,0.127,0.006,0.253,0.012,0.38C4.372,6.995,4.342,6.982,4.309,6.984c0.016-0.002,0.033-0.005,0.05-0.007
	C4.196,6.993,4.027,6.976,3.862,6.976C3.731,6.974,3.6,6.973,3.469,6.973c-0.131,0-0.262,0.001-0.393,0.003
	C2.731,6.979,2.433,7.195,2.31,7.5C2.134,7.644,2.013,7.852,2.014,8.092c0.006,0.78,0.023,1.56,0.016,2.341
	c-0.006,0.693-0.012,1.386-0.019,2.079C2.002,13.309,2.002,14.108,2,14.908c-0.004,0.774,0.025,1.549,0.039,2.323
	c0.01,0.658,0.012,1.314,0.023,1.972c0.012,0.67,0.049,1.337,0.062,2.005c0.021,1.081,0.01,2.164,0.021,3.247
	c0.003,0.39,0.293,0.708,0.667,0.777c0.042,0.019,0.09,0.018,0.136,0.028c0.001,0,0.001,0,0.002,0l0,0
	c0.058,0.013,0.114,0.035,0.176,0.031c0.371-0.023,0.737-0.06,1.108-0.089c0.398-0.029,0.796-0.043,1.195-0.05
	c0.489-0.01,0.98-0.008,1.469-0.006c0.26,0.002,0.52,0.004,0.78,0.002c1.432-0.008,2.866-0.021,4.301,0.029
	c0.155,0.005,0.312,0.007,0.469,0.011c0.02,0.235,0.065,0.464,0.107,0.694c0.027,0.149,0.056,0.25,0.124,0.398
	c0.148,0.324,0.522,0.472,0.856,0.472c0.186,0,0.373-0.002,0.557-0.006c1.128-0.019,2.251-0.033,3.379-0.025
	c0.245,0,0.489-0.002,0.734-0.002c0.124,0.002,0.25,0.002,0.375,0.008c0.049,0.002,0.097,0.006,0.146,0.01
	c0.19,0.01,0.361-0.045,0.532-0.124c0.452-0.21,0.54-0.724,0.582-1.163c0.007-0.081,0.012-0.163,0.017-0.244
	c0.473-0.04,0.95-0.05,1.425-0.062c0.712-0.017,1.426-0.021,2.139-0.027c1.432-0.012,2.863,0.019,4.295,0.025
	c0.066,0.002,0.134,0.002,0.202,0.002c0.252,0,0.506,0.005,0.758,0.022c0.04,0.036,0.074,0.079,0.121,0.107
	c0.179,0.105,0.396,0.132,0.596,0.078c0.278-0.076,0.441-0.279,0.538-0.54c0.058-0.153,0.048-0.33,0.045-0.495
	C29.973,24.209,29.975,24.104,29.975,23.997z M9.36,6.953c0.299,0.002,0.6,0.008,0.899,0.017c0.272,0.01,0.543,0.045,0.815,0.07
	c0.301,0.029,0.602,0.047,0.902,0.058c0.258,0.008,0.515,0.011,0.772,0.036c0.479,0.074,0.951,0.185,1.402,0.363
	c0.191,0.086,0.371,0.194,0.541,0.318c0.142,0.116,0.279,0.234,0.398,0.373c0.015,0.021,0.031,0.042,0.046,0.063
	c0.031,0.043,0.068,0.075,0.101,0.112c0.01,0.282,0.021,0.563,0.029,0.845c0.01,0.39,0.033,0.784,0.021,1.172
	c-0.01,0.367-0.035,0.734-0.062,1.098c-0.027,0.355-0.027,0.708-0.029,1.064c-0.008,0.722-0.012,1.444-0.006,2.168
	c0.008,0.739,0.031,1.477,0.041,2.216c0.002,0.233-0.017,0.464-0.016,0.697c0.002,0.384,0.012,0.767,0.014,1.151
	c0.002,0.542-0.025,1.079,0.008,1.621c0.025,0.388,0.309,0.716,0.716,0.716c0.19,0,0.373-0.078,0.507-0.21
	c0.12-0.12,0.235-0.332,0.21-0.507c-0.025-0.196-0.016-0.396-0.021-0.594c-0.006-0.303-0.012-0.606-0.004-0.91
	c0.016-0.576,0.039-1.155,0.008-1.731c-0.039-0.72-0.045-1.446-0.037-2.166c0.006-0.734,0.035-1.469,0.025-2.203
	c-0.01-0.759,0.052-1.52,0.103-2.278c0.049-0.753,0.049-1.511,0.039-2.267c0.185-0.198,0.37-0.399,0.574-0.573
	c0.183-0.125,0.377-0.222,0.579-0.318c0.418-0.162,0.855-0.274,1.298-0.343c0.51-0.065,1.02-0.111,1.536-0.13
	c0.607-0.021,1.215-0.097,1.822-0.132c1.099-0.064,2.2-0.086,3.295,0.03c0.032,0.676,0.083,1.355,0.069,2.03
	c-0.012,0.66-0.002,1.316,0.033,1.974c0.039,0.728,0.052,1.456,0.07,2.181c0.017,0.741,0.039,1.483,0.045,2.224
	c0.004,0.664-0.002,1.329,0.006,1.993c0.006,0.532,0.047,1.062,0.06,1.593c0.01,0.417,0.008,0.836-0.012,1.254
	c-0.013,0.319,0.008,0.644-0.01,0.964c-0.173-0.001-0.346-0.007-0.52-0.01c-0.309-0.004-0.619-0.016-0.928-0.023
	c-0.307-0.008-0.611-0.008-0.916-0.021c-0.365-0.016-0.728-0.045-1.093-0.058c-0.5-0.019-1.001-0.034-1.503-0.034
	c-0.228,0-0.456,0.003-0.685,0.01c-0.349,0.012-0.703,0.018-1.05,0.06c-0.373,0.045-0.741,0.103-1.108,0.18
	c-0.476,0.097-0.945,0.256-1.403,0.413c-0.163,0.054-0.328,0.113-0.479,0.196c-0.103,0.058-0.196,0.128-0.291,0.198
	c-0.09,0.065-0.169,0.145-0.256,0.214c-0.112-0.084-0.226-0.165-0.335-0.248c-0.161-0.124-0.33-0.227-0.512-0.316
	c-0.215-0.107-0.442-0.19-0.671-0.268c-0.303-0.105-0.611-0.151-0.93-0.192c-0.437-0.058-0.876-0.078-1.316-0.078
	c-0.762,0-1.527,0.06-2.286,0.086c-0.736,0.025-1.471,0.043-2.207,0.076c-0.373,0.017-0.743,0.043-1.116,0.052
	c-0.134,0.004-0.269,0.006-0.404,0.008c0.06-0.109,0.103-0.226,0.089-0.337c-0.035-0.268-0.027-0.547-0.031-0.815
	c-0.004-0.237-0.006-0.475-0.014-0.712c-0.021-0.666-0.058-1.331-0.089-1.997c-0.035-0.741-0.047-1.485-0.068-2.226
	c-0.021-0.736-0.066-1.471-0.093-2.207c-0.039-1.073-0.023-2.146,0-3.22c0.012-0.483,0-0.968,0.006-1.452
	C5.944,7.853,5.948,7.432,5.947,7.01C7.085,6.972,8.222,6.941,9.36,6.953z M27.169,23.673c-0.633,0-1.263-0.002-1.894,0
	c-1.401,0.004-2.804,0.006-4.208-0.008c-0.276-0.004-0.549,0.002-0.825,0.004c-0.078,0.002-0.153,0-0.231,0
	c-0.32-0.004-0.65-0.006-0.955,0.068c-0.165,0.041-0.34,0.144-0.454,0.268c-0.177,0.194-0.246,0.408-0.268,0.664
	c-0.01,0.101-0.016,0.204-0.016,0.305c-0.001,0.086-0.001,0.172-0.003,0.257c-0.037,0.001-0.073,0.002-0.11,0.003
	c-0.182,0.006-0.363,0.017-0.543,0.019c-0.423,0.006-0.844,0.004-1.265,0.004c-0.454,0-0.908-0.002-1.362-0.014
	c-0.322-0.009-0.646-0.005-0.968-0.025c-0.012-0.05-0.022-0.1-0.032-0.15c-0.02-0.205-0.031-0.41-0.06-0.615
	c-0.035-0.268-0.215-0.514-0.441-0.656c-0.206-0.132-0.444-0.148-0.681-0.146c-0.536,0.002-1.069-0.017-1.605-0.021
	c-0.377,0-0.753,0-1.13,0c-0.377,0.002-0.751,0.002-1.128,0c-0.603-0.001-1.205-0.008-1.807-0.008c-0.175,0-0.351,0.001-0.526,0.002
	c-0.982,0.01-1.963,0.022-2.944,0.057c-0.001-0.035-0.002-0.07-0.003-0.104c-0.01-0.357-0.008-0.714-0.008-1.071
	c0-0.704-0.021-1.409-0.041-2.113c-0.021-0.802-0.019-1.601-0.016-2.403c0.006-0.759-0.033-1.518-0.045-2.275
	c-0.023-1.32-0.008-2.641-0.01-3.961c-0.002-0.549-0.012-1.098-0.025-1.646c-0.012-0.498-0.004-0.995,0-1.492
	c0.098-0.004,0.196-0.006,0.294-0.01c0.165-0.008,0.332-0.031,0.497-0.019C4.345,8.585,4.332,8.583,4.318,8.581
	c0.046,0.003,0.09-0.004,0.135-0.007C4.454,8.658,4.46,8.743,4.461,8.828c0.004,0.72-0.023,1.442-0.027,2.162
	c-0.004,0.737,0.006,1.475,0.033,2.212c0.027,0.747,0.064,1.494,0.089,2.242c0.035,1.031,0.066,2.059,0.109,3.09
	c0.016,0.396,0.049,0.792,0.05,1.19c0.002,0.219,0.019,0.437,0.023,0.656c0.002,0.175-0.004,0.349,0.004,0.524
	c0.008,0.17,0.076,0.322,0.172,0.448c-0.26,0.128-0.445,0.379-0.445,0.693c0,0.409,0.357,0.809,0.786,0.784
	c0.741-0.041,1.483-0.109,2.226-0.147c0.708-0.037,1.417-0.058,2.127-0.07c0.607-0.01,1.211-0.066,1.817-0.081
	c0.279-0.008,0.557-0.008,0.836,0c0.306,0.008,0.61,0.01,0.915,0.047c0.046,0.006,0.093,0.013,0.139,0.019
	c0.287,0.044,0.555,0.129,0.823,0.233c0.177,0.084,0.345,0.188,0.5,0.306c-0.054-0.041-0.107-0.081-0.161-0.124
	c0.184,0.142,0.386,0.285,0.545,0.454c0.094,0.099,0.214,0.155,0.339,0.191c0.008,0.009,0.011,0.022,0.02,0.031
	c0.305,0.305,0.813,0.305,1.118,0c0.229-0.229,0.468-0.452,0.716-0.659c0.03-0.02,0.061-0.039,0.093-0.056
	c0.646-0.245,1.309-0.435,1.993-0.541c0.268-0.033,0.538-0.054,0.809-0.071c0.342-0.021,0.683-0.05,1.025-0.054
	c0.685-0.008,1.37-0.012,2.053,0.043c0.332,0.027,0.666,0.037,0.998,0.054c0.291,0.014,0.576,0.027,0.866,0.023
	c0.206-0.004,0.413,0,0.621,0.004c0.363,0.008,0.724,0.014,1.085-0.023c0.202-0.021,0.371-0.066,0.518-0.215
	c0.134-0.132,0.208-0.314,0.212-0.503c0.085-0.09,0.156-0.192,0.189-0.318c0.062-0.239,0.029-0.51,0.029-0.755
	c0-0.204,0.006-0.406,0.01-0.607c0.012-0.45-0.004-0.9-0.027-1.351c-0.031-0.594-0.082-1.184-0.095-1.778
	c-0.016-0.706,0.004-1.413,0-2.119c-0.006-0.697-0.017-1.395-0.031-2.092c-0.012-0.685-0.01-1.368-0.043-2.053
	c-0.029-0.619-0.045-1.238-0.048-1.857c0-0.028,0-0.055,0-0.083c0.266-0.012,0.533-0.021,0.799-0.029
	c-0.002,0.5,0.005,1-0.001,1.501c-0.008,0.763-0.019,1.525-0.008,2.286c0.008,0.681,0.043,1.359,0.074,2.038
	c0.029,0.642,0.019,1.289,0.052,1.931c0.033,0.664,0.066,1.328,0.07,1.991c0.004,0.501-0.008,1.003,0.004,1.506
	c0.021,0.895,0.05,1.795,0.029,2.69c-0.008,0.324-0.027,0.648-0.031,0.972c0,0.037-0.001,0.076-0.001,0.114
	C28.029,23.673,27.599,23.674,27.169,23.673z M19.682,11.7c-0.146-0.146-0.227-0.344-0.227-0.549c0-0.204,0.081-0.404,0.227-0.547
	c0.155-0.155,0.334-0.208,0.547-0.227c0.398-0.039,0.796-0.068,1.195-0.085c0.326-0.014,0.652-0.019,0.978-0.043
	c0.219-0.014,0.439-0.023,0.658-0.039c0.16-0.011,0.317-0.027,0.477-0.027c0.009,0,0.017,0,0.026,0
	c0.411,0.008,0.755,0.338,0.755,0.755c0,0.2-0.08,0.394-0.219,0.534c-0.151,0.151-0.33,0.206-0.536,0.221
	c-0.175,0.014-0.351,0.029-0.528,0.031c-0.097,0.002-0.192,0.002-0.287,0c-0.132-0.002-0.264-0.002-0.394,0.002
	c-0.334,0.012-0.666,0.052-1,0.083c-0.375,0.037-0.751,0.078-1.126,0.118C20.035,11.947,19.813,11.832,19.682,11.7z M24.497,13.36
	c0,0.408-0.357,0.809-0.784,0.784c-0.505-0.031-1.019-0.021-1.525-0.006c-0.627,0.021-1.254,0.068-1.881,0.105
	c-0.443,0.027-0.813-0.39-0.813-0.813c0-0.458,0.371-0.792,0.813-0.811c0.627-0.031,1.254-0.037,1.881-0.031
	c0.507,0.004,1.021,0.019,1.525-0.014c0.014-0.001,0.027-0.001,0.041-0.001C24.163,12.573,24.497,12.965,24.497,13.36z
	 M24.424,15.856c0,0.425-0.361,0.8-0.794,0.792c-0.184-0.004-0.367-0.021-0.551-0.031c-0.264-0.016-0.532-0.008-0.796-0.006
	c-0.559,0.006-1.116,0.041-1.675,0.066c-0.433,0.019-0.796-0.376-0.796-0.796c0-0.443,0.363-0.782,0.796-0.796
	c0.559-0.016,1.116,0.012,1.675,0.014c0.264,0.002,0.532,0.01,0.796-0.006c0.184-0.01,0.367-0.027,0.551-0.031
	c0.004,0,0.009,0,0.013,0C24.07,15.063,24.424,15.434,24.424,15.856z M7.471,10.805c0-0.437,0.363-0.796,0.796-0.798
	c0.053,0,0.105,0,0.158,0c0.795,0,1.591,0.026,2.384,0.031c0.239,0.002,0.477-0.004,0.714-0.021c0.268-0.019,0.518,0.039,0.78,0.083
	c0.186,0.033,0.365,0.194,0.456,0.349c0.103,0.177,0.13,0.39,0.076,0.586c-0.083,0.303-0.402,0.592-0.734,0.559
	c-0.202-0.019-0.406-0.047-0.607-0.054c-0.239-0.008-0.479-0.004-0.718,0c-0.836,0.012-1.673,0.043-2.509,0.06
	C7.834,11.61,7.471,11.232,7.471,10.805z M12.97,13.436c0,0.398-0.357,0.817-0.78,0.78c-0.246-0.021-0.493-0.004-0.737-0.025
	c-0.291-0.023-0.584-0.025-0.875-0.029c-0.765-0.014-1.535,0.056-2.298,0.113c-0.431,0.033-0.794-0.386-0.794-0.794
	c0-0.452,0.363-0.769,0.794-0.794c0.767-0.045,1.531-0.039,2.298-0.037c0.301,0,0.602-0.012,0.902-0.023
	c0.035-0.001,0.069-0.002,0.104-0.002c0.202,0,0.404,0.017,0.606,0.031C12.613,12.681,12.97,12.99,12.97,13.436z M12.189,15.428
	c-0.128-0.035-0.257-0.038-0.385-0.011c-0.432,0.038-0.868,0.005-1.299-0.012c-0.635-0.023-1.267-0.043-1.9-0.052
	c-0.005,0-0.011,0-0.016,0c-0.454,0-0.828,0.396-0.828,0.844c0,0.46,0.384,0.844,0.844,0.844c0.633,0.002,1.265-0.01,1.9-0.029
	c0.491-0.014,0.978-0.039,1.469,0.006c0.204,0.019,0.433-0.097,0.573-0.237c0.151-0.151,0.239-0.359,0.239-0.573
	s-0.087-0.421-0.239-0.573C12.445,15.535,12.327,15.465,12.189,15.428z M11.758,15.428c-0.016,0.002-0.031,0.004-0.047,0.006
	c0.017-0.002,0.034-0.005,0.051-0.007C11.761,15.428,11.759,15.428,11.758,15.428z"/>
</svg>
