<svg width="222" height="41" viewBox="0 0 222 41" fill="none" xmlns="http://www.w3.org/2000/svg">
<g clip-path="url(#clip0_1_18)" filter="url(#filter0_d_1_18)">
<g filter="url(#filter1_d_1_18)">
<path d="M124.355 29.5238H129.018V11.9352H124.355V29.5238ZM124.355 9.19238H129.018V5.00952H124.355V9.19238Z" fill="white"/>
</g>
<g filter="url(#filter2_d_1_18)">
<path d="M132.023 35.2838H136.686V27.5352H136.754C137.748 29.0438 139.36 30.0381 141.828 30.0381C146.354 30.0381 149.44 26.4381 149.44 20.7467C149.44 15.2609 146.457 11.4552 141.794 11.4552C139.394 11.4552 137.748 12.5867 136.617 14.1295H136.514V11.9352H132.023V35.2838ZM140.834 26.1638C138.057 26.1638 136.583 24.0724 136.583 20.8838C136.583 17.7295 137.748 15.2267 140.663 15.2267C143.543 15.2267 144.708 17.5581 144.708 20.8838C144.708 24.2095 143.2 26.1638 140.834 26.1638Z" fill="white"/>
</g>
<g filter="url(#filter3_d_1_18)">
<path d="M158.741 30.0381C163.13 30.0381 166.147 27.9124 166.147 24.3809C166.147 20.2667 162.89 19.4438 159.941 18.8267C157.438 18.3124 155.107 18.1752 155.107 16.6667C155.107 15.3981 156.307 14.7124 158.124 14.7124C160.113 14.7124 161.313 15.3981 161.518 17.2838H165.735C165.393 13.7524 162.821 11.4552 158.193 11.4552C154.181 11.4552 151.027 13.2724 151.027 17.0781C151.027 20.9181 154.113 21.7752 157.267 22.3924C159.667 22.8724 161.895 23.0438 161.895 24.7238C161.895 25.9581 160.73 26.7467 158.673 26.7467C156.581 26.7467 155.141 25.8552 154.833 23.8324H150.513C150.787 27.5695 153.633 30.0381 158.741 30.0381Z" fill="white"/>
</g>
<g filter="url(#filter4_d_1_18)">
<path d="M183.85 29.5238V11.9352H179.187V22.0838C179.187 24.4152 177.85 26.0609 175.656 26.0609C173.667 26.0609 172.742 24.9295 172.742 22.8724V11.9352H168.113V23.6609C168.113 27.5009 170.307 30.0038 174.216 30.0038C176.685 30.0038 178.056 29.0781 179.256 27.4667H179.359V29.5238H183.85Z" fill="white"/>
</g>
<g filter="url(#filter5_d_1_18)">
<path d="M186.866 29.5238H191.529V19.3067C191.529 16.9752 192.798 15.4667 194.684 15.4667C196.398 15.4667 197.392 16.4952 197.392 18.4838V29.5238H202.055V19.3067C202.055 16.9752 203.255 15.4667 205.209 15.4667C206.924 15.4667 207.918 16.4952 207.918 18.4838V29.5238H212.581V17.6952C212.581 13.8552 210.489 11.4552 206.786 11.4552C204.558 11.4552 202.706 12.6209 201.506 14.5409H201.438C200.581 12.6895 198.798 11.4552 196.569 11.4552C194.135 11.4552 192.421 12.6895 191.461 14.3009H191.358V11.9352H186.866V29.5238Z" fill="white"/>
</g>
<g filter="url(#filter6_d_1_18)">
<path d="M2.82416 29.5238H7.48701V5.00952H2.82416V29.5238Z" fill="white"/>
</g>
<g filter="url(#filter7_d_1_18)">
<path d="M18.8884 30.0381C24.3398 30.0381 28.0769 25.9924 28.0769 20.7467C28.0769 15.5009 24.3398 11.4552 18.8884 11.4552C13.4369 11.4552 9.69978 15.5009 9.69978 20.7467C9.69978 25.9924 13.4369 30.0381 18.8884 30.0381ZM18.8884 26.4724C16.0084 26.4724 14.4312 24.1752 14.4312 20.7467C14.4312 17.3181 16.0084 14.9867 18.8884 14.9867C21.7341 14.9867 23.3455 17.3181 23.3455 20.7467C23.3455 24.1752 21.7341 26.4724 18.8884 26.4724Z" fill="white"/>
</g>
<g filter="url(#filter8_d_1_18)">
<path d="M37.993 35.5238C40.5987 35.5238 42.8616 34.9067 44.3358 33.5352C45.6387 32.3352 46.4273 30.6552 46.4273 28.1867V11.9352H41.9359V13.7867H41.8673C40.8044 12.3124 39.193 11.4552 36.9987 11.4552C32.5416 11.4552 29.3873 14.8152 29.3873 20.0609C29.3873 25.3752 33.2273 28.4609 37.1359 28.4609C39.3644 28.4609 40.7016 27.5695 41.7301 26.4038H41.833V28.3238C41.833 30.7238 40.5644 31.9924 37.9244 31.9924C35.7644 31.9924 34.7701 31.1352 34.393 30.0381H29.7644C30.2444 33.4667 33.193 35.5238 37.993 35.5238ZM37.9244 24.7238C35.5244 24.7238 33.9473 22.9752 33.9473 19.9924C33.9473 17.0438 35.5244 15.1924 37.8901 15.1924C40.7016 15.1924 42.073 17.3867 42.073 19.9581C42.073 22.5638 40.873 24.7238 37.9244 24.7238Z" fill="white"/>
</g>
<g filter="url(#filter9_d_1_18)">
<path d="M57.7611 30.0381C63.2125 30.0381 66.9497 25.9924 66.9497 20.7467C66.9497 15.5009 63.2125 11.4552 57.7611 11.4552C52.3097 11.4552 48.5725 15.5009 48.5725 20.7467C48.5725 25.9924 52.3097 30.0381 57.7611 30.0381ZM57.7611 26.4724C54.8811 26.4724 53.304 24.1752 53.304 20.7467C53.304 17.3181 54.8811 14.9867 57.7611 14.9867C60.6068 14.9867 62.2183 17.3181 62.2183 20.7467C62.2183 24.1752 60.6068 26.4724 57.7611 26.4724Z" fill="white"/>
</g>
<g filter="url(#filter10_d_1_18)">
<path d="M214.275 9.04762C214.275 8.25864 214.915 7.61905 215.704 7.61905H218.561C219.35 7.61905 219.99 8.25864 219.99 9.04762C219.99 9.8366 219.35 10.4762 218.561 10.4762H215.704C214.915 10.4762 214.275 9.8366 214.275 9.04762Z" fill="white"/>
</g>
<g filter="url(#filter11_d_1_18)">
<path fill-rule="evenodd" clip-rule="evenodd" d="M95.9999 3C105.388 3 113 10.6112 113 20C113 29.3888 105.388 37 95.9999 37C86.6111 37 79 29.3888 79 20C79 10.6112 86.6111 3 95.9999 3ZM95.3854 4.2721C93.446 4.54504 91.5993 6.10342 90.1658 8.70979C89.75 9.46581 89.3748 10.301 89.0479 11.2029C90.9971 10.713 93.1383 10.4243 95.3854 10.3796V4.2721ZM87.611 11.6112C88.0177 10.3351 88.515 9.16114 89.089 8.11755C89.7996 6.8255 90.643 5.70976 91.5932 4.8528C86.4261 6.35345 82.3534 10.4263 80.8527 15.5933C81.7097 14.6431 82.8254 13.7998 84.1175 13.0892C85.1611 12.5152 86.335 12.0177 87.611 11.6112ZM87.2028 13.0479C86.7129 14.9972 86.4242 17.1384 86.3795 19.3855H80.272C80.5449 17.4461 82.1033 15.5994 84.7097 14.1659C85.4657 13.7501 86.3009 13.3749 87.2028 13.0479ZM87.6087 19.3855C87.6594 16.9332 88.0125 14.6309 88.5966 12.5967C90.6308 12.0126 92.9331 11.6595 95.3854 11.6087V14.2632C94.4706 16.6053 92.6047 18.471 90.2625 19.3855H87.6087ZM86.3795 20.6145H80.272C80.5449 22.5539 82.1033 24.4005 84.7097 25.8341C85.4657 26.2499 86.3009 26.6251 87.2028 26.9521C86.7129 25.0028 86.4242 22.8616 86.3795 20.6145ZM88.5966 27.4033C88.0125 25.3691 87.6594 23.0668 87.6087 20.6145H90.2625C92.6047 21.529 94.4706 23.3947 95.3854 25.7368V28.3913C92.9331 28.3405 90.6308 27.9875 88.5966 27.4033ZM87.611 28.3888C86.335 27.9823 85.1611 27.4848 84.1175 26.9108C82.8254 26.2002 81.7097 25.3569 80.8527 24.4067C82.3534 29.5737 86.4261 33.6466 91.5932 35.1472C90.643 34.2902 89.7996 33.1745 89.089 31.8824C88.515 30.8389 88.0177 29.6648 87.611 28.3888ZM95.3854 35.7279C93.446 35.455 91.5993 33.8966 90.1658 31.2902C89.75 30.5342 89.3748 29.6989 89.0479 28.7972C90.9971 29.2869 93.1383 29.5758 95.3854 29.6204V35.7279ZM100.406 35.1472C101.357 34.2902 102.2 33.1745 102.911 31.8824C103.484 30.8389 103.982 29.6648 104.389 28.3888C105.665 27.9823 106.838 27.4848 107.882 26.9108C109.174 26.2002 110.29 25.3569 111.147 24.4067C109.646 29.5737 105.574 33.6466 100.406 35.1472ZM102.952 28.7972C102.625 29.6989 102.249 30.5342 101.834 31.2902C100.4 33.8966 98.5537 35.455 96.6143 35.7279V29.6204C98.8614 29.5758 101.003 29.2869 102.952 28.7972ZM104.797 26.9521C105.699 26.6251 106.534 26.2499 107.29 25.8341C109.897 24.4006 111.455 22.5539 111.728 20.6145H105.62C105.575 22.8616 105.286 25.0028 104.797 26.9521ZM104.391 20.6145C104.34 23.0668 103.988 25.3691 103.403 27.4033C101.369 27.9875 99.0666 28.3405 96.6143 28.3913V25.7388C97.5288 23.3958 99.3952 21.5292 101.738 20.6145H104.391ZM105.62 19.3855H111.728C111.455 17.4461 109.897 15.5994 107.29 14.1659C106.534 13.7501 105.699 13.3749 104.797 13.0479C105.286 14.9972 105.575 17.1384 105.62 19.3855ZM103.403 12.5967C103.988 14.6309 104.34 16.9332 104.391 19.3855H101.738C99.3952 18.4708 97.5288 16.6042 96.6143 14.2612V11.6087C99.0666 11.6595 101.369 12.0126 103.403 12.5967ZM104.389 11.6112C105.665 12.0177 106.838 12.5152 107.882 13.0892C109.174 13.7998 110.29 14.6431 111.147 15.5933C109.646 10.4263 105.574 6.35345 100.406 4.8528C101.357 5.70976 102.2 6.8255 102.911 8.11755C103.484 9.16114 103.982 10.3351 104.389 11.6112ZM96.6143 4.2721C98.5537 4.54504 100.4 6.10342 101.834 8.70979C102.249 9.46581 102.625 10.301 102.952 11.2029C101.003 10.713 98.8614 10.4243 96.6143 10.3796V4.2721Z" fill="white"/>
</g>
</g>
<defs>
<filter id="filter0_d_1_18" x="0" y="0" width="222" height="44" filterUnits="userSpaceOnUse" color-interpolation-filters="sRGB">
<feFlood flood-opacity="0" result="BackgroundImageFix"/>
<feColorMatrix in="SourceAlpha" type="matrix" values="0 0 0 0 0 0 0 0 0 0 0 0 0 0 0 0 0 0 127 0" result="hardAlpha"/>
<feOffset dy="2"/>
<feGaussianBlur stdDeviation="1"/>
<feComposite in2="hardAlpha" operator="out"/>
<feColorMatrix type="matrix" values="0 0 0 0 0 0 0 0 0 0 0 0 0 0 0 0 0 0 0.25 0"/>
<feBlend mode="normal" in2="BackgroundImageFix" result="effect1_dropShadow_1_18"/>
<feBlend mode="normal" in="SourceGraphic" in2="effect1_dropShadow_1_18" result="shape"/>
</filter>
<filter id="filter1_d_1_18" x="122.355" y="5.00952" width="8.66299" height="28.5143" filterUnits="userSpaceOnUse" color-interpolation-filters="sRGB">
<feFlood flood-opacity="0" result="BackgroundImageFix"/>
<feColorMatrix in="SourceAlpha" type="matrix" values="0 0 0 0 0 0 0 0 0 0 0 0 0 0 0 0 0 0 127 0" result="hardAlpha"/>
<feOffset dy="2"/>
<feGaussianBlur stdDeviation="1"/>
<feComposite in2="hardAlpha" operator="out"/>
<feColorMatrix type="matrix" values="0 0 0 0 0 0 0 0 0 0 0 0 0 0 0 0 0 0 0.8 0"/>
<feBlend mode="normal" in2="BackgroundImageFix" result="effect1_dropShadow_1_18"/>
<feBlend mode="normal" in="SourceGraphic" in2="effect1_dropShadow_1_18" result="shape"/>
</filter>
<filter id="filter2_d_1_18" x="130.023" y="11.4552" width="21.417" height="27.8286" filterUnits="userSpaceOnUse" color-interpolation-filters="sRGB">
<feFlood flood-opacity="0" result="BackgroundImageFix"/>
<feColorMatrix in="SourceAlpha" type="matrix" values="0 0 0 0 0 0 0 0 0 0 0 0 0 0 0 0 0 0 127 0" result="hardAlpha"/>
<feOffset dy="2"/>
<feGaussianBlur stdDeviation="1"/>
<feComposite in2="hardAlpha" operator="out"/>
<feColorMatrix type="matrix" values="0 0 0 0 0 0 0 0 0 0 0 0 0 0 0 0 0 0 0.8 0"/>
<feBlend mode="normal" in2="BackgroundImageFix" result="effect1_dropShadow_1_18"/>
<feBlend mode="normal" in="SourceGraphic" in2="effect1_dropShadow_1_18" result="shape"/>
</filter>
<filter id="filter3_d_1_18" x="148.513" y="11.4552" width="19.634" height="22.5829" filterUnits="userSpaceOnUse" color-interpolation-filters="sRGB">
<feFlood flood-opacity="0" result="BackgroundImageFix"/>
<feColorMatrix in="SourceAlpha" type="matrix" values="0 0 0 0 0 0 0 0 0 0 0 0 0 0 0 0 0 0 127 0" result="hardAlpha"/>
<feOffset dy="2"/>
<feGaussianBlur stdDeviation="1"/>
<feComposite in2="hardAlpha" operator="out"/>
<feColorMatrix type="matrix" values="0 0 0 0 0 0 0 0 0 0 0 0 0 0 0 0 0 0 0.8 0"/>
<feBlend mode="normal" in2="BackgroundImageFix" result="effect1_dropShadow_1_18"/>
<feBlend mode="normal" in="SourceGraphic" in2="effect1_dropShadow_1_18" result="shape"/>
</filter>
<filter id="filter4_d_1_18" x="166.113" y="11.9352" width="19.737" height="22.0686" filterUnits="userSpaceOnUse" color-interpolation-filters="sRGB">
<feFlood flood-opacity="0" result="BackgroundImageFix"/>
<feColorMatrix in="SourceAlpha" type="matrix" values="0 0 0 0 0 0 0 0 0 0 0 0 0 0 0 0 0 0 127 0" result="hardAlpha"/>
<feOffset dy="2"/>
<feGaussianBlur stdDeviation="1"/>
<feComposite in2="hardAlpha" operator="out"/>
<feColorMatrix type="matrix" values="0 0 0 0 0 0 0 0 0 0 0 0 0 0 0 0 0 0 0.8 0"/>
<feBlend mode="normal" in2="BackgroundImageFix" result="effect1_dropShadow_1_18"/>
<feBlend mode="normal" in="SourceGraphic" in2="effect1_dropShadow_1_18" result="shape"/>
</filter>
<filter id="filter5_d_1_18" x="184.866" y="11.4552" width="29.715" height="22.0686" filterUnits="userSpaceOnUse" color-interpolation-filters="sRGB">
<feFlood flood-opacity="0" result="BackgroundImageFix"/>
<feColorMatrix in="SourceAlpha" type="matrix" values="0 0 0 0 0 0 0 0 0 0 0 0 0 0 0 0 0 0 127 0" result="hardAlpha"/>
<feOffset dy="2"/>
<feGaussianBlur stdDeviation="1"/>
<feComposite in2="hardAlpha" operator="out"/>
<feColorMatrix type="matrix" values="0 0 0 0 0 0 0 0 0 0 0 0 0 0 0 0 0 0 0.8 0"/>
<feBlend mode="normal" in2="BackgroundImageFix" result="effect1_dropShadow_1_18"/>
<feBlend mode="normal" in="SourceGraphic" in2="effect1_dropShadow_1_18" result="shape"/>
</filter>
<filter id="filter6_d_1_18" x="0.824158" y="5.00952" width="8.66286" height="28.5143" filterUnits="userSpaceOnUse" color-interpolation-filters="sRGB">
<feFlood flood-opacity="0" result="BackgroundImageFix"/>
<feColorMatrix in="SourceAlpha" type="matrix" values="0 0 0 0 0 0 0 0 0 0 0 0 0 0 0 0 0 0 127 0" result="hardAlpha"/>
<feOffset dy="2"/>
<feGaussianBlur stdDeviation="1"/>
<feComposite in2="hardAlpha" operator="out"/>
<feColorMatrix type="matrix" values="0 0 0 0 0 0 0 0 0 0 0 0 0 0 0 0 0 0 0.8 0"/>
<feBlend mode="normal" in2="BackgroundImageFix" result="effect1_dropShadow_1_18"/>
<feBlend mode="normal" in="SourceGraphic" in2="effect1_dropShadow_1_18" result="shape"/>
</filter>
<filter id="filter7_d_1_18" x="7.69978" y="11.4552" width="22.3771" height="22.5829" filterUnits="userSpaceOnUse" color-interpolation-filters="sRGB">
<feFlood flood-opacity="0" result="BackgroundImageFix"/>
<feColorMatrix in="SourceAlpha" type="matrix" values="0 0 0 0 0 0 0 0 0 0 0 0 0 0 0 0 0 0 127 0" result="hardAlpha"/>
<feOffset dy="2"/>
<feGaussianBlur stdDeviation="1"/>
<feComposite in2="hardAlpha" operator="out"/>
<feColorMatrix type="matrix" values="0 0 0 0 0 0 0 0 0 0 0 0 0 0 0 0 0 0 0.8 0"/>
<feBlend mode="normal" in2="BackgroundImageFix" result="effect1_dropShadow_1_18"/>
<feBlend mode="normal" in="SourceGraphic" in2="effect1_dropShadow_1_18" result="shape"/>
</filter>
<filter id="filter8_d_1_18" x="27.3873" y="11.4552" width="21.04" height="28.0686" filterUnits="userSpaceOnUse" color-interpolation-filters="sRGB">
<feFlood flood-opacity="0" result="BackgroundImageFix"/>
<feColorMatrix in="SourceAlpha" type="matrix" values="0 0 0 0 0 0 0 0 0 0 0 0 0 0 0 0 0 0 127 0" result="hardAlpha"/>
<feOffset dy="2"/>
<feGaussianBlur stdDeviation="1"/>
<feComposite in2="hardAlpha" operator="out"/>
<feColorMatrix type="matrix" values="0 0 0 0 0 0 0 0 0 0 0 0 0 0 0 0 0 0 0.8 0"/>
<feBlend mode="normal" in2="BackgroundImageFix" result="effect1_dropShadow_1_18"/>
<feBlend mode="normal" in="SourceGraphic" in2="effect1_dropShadow_1_18" result="shape"/>
</filter>
<filter id="filter9_d_1_18" x="46.5725" y="11.4552" width="22.3772" height="22.5829" filterUnits="userSpaceOnUse" color-interpolation-filters="sRGB">
<feFlood flood-opacity="0" result="BackgroundImageFix"/>
<feColorMatrix in="SourceAlpha" type="matrix" values="0 0 0 0 0 0 0 0 0 0 0 0 0 0 0 0 0 0 127 0" result="hardAlpha"/>
<feOffset dy="2"/>
<feGaussianBlur stdDeviation="1"/>
<feComposite in2="hardAlpha" operator="out"/>
<feColorMatrix type="matrix" values="0 0 0 0 0 0 0 0 0 0 0 0 0 0 0 0 0 0 0.8 0"/>
<feBlend mode="normal" in2="BackgroundImageFix" result="effect1_dropShadow_1_18"/>
<feBlend mode="normal" in="SourceGraphic" in2="effect1_dropShadow_1_18" result="shape"/>
</filter>
<filter id="filter10_d_1_18" x="212.275" y="7.61905" width="9.715" height="6.85715" filterUnits="userSpaceOnUse" color-interpolation-filters="sRGB">
<feFlood flood-opacity="0" result="BackgroundImageFix"/>
<feColorMatrix in="SourceAlpha" type="matrix" values="0 0 0 0 0 0 0 0 0 0 0 0 0 0 0 0 0 0 127 0" result="hardAlpha"/>
<feOffset dy="2"/>
<feGaussianBlur stdDeviation="1"/>
<feComposite in2="hardAlpha" operator="out"/>
<feColorMatrix type="matrix" values="0 0 0 0 0 0 0 0 0 0 0 0 0 0 0 0 0 0 0.8 0"/>
<feBlend mode="normal" in2="BackgroundImageFix" result="effect1_dropShadow_1_18"/>
<feBlend mode="normal" in="SourceGraphic" in2="effect1_dropShadow_1_18" result="shape"/>
</filter>
<filter id="filter11_d_1_18" x="77" y="3" width="38" height="38" filterUnits="userSpaceOnUse" color-interpolation-filters="sRGB">
<feFlood flood-opacity="0" result="BackgroundImageFix"/>
<feColorMatrix in="SourceAlpha" type="matrix" values="0 0 0 0 0 0 0 0 0 0 0 0 0 0 0 0 0 0 127 0" result="hardAlpha"/>
<feOffset dy="2"/>
<feGaussianBlur stdDeviation="1"/>
<feComposite in2="hardAlpha" operator="out"/>
<feColorMatrix type="matrix" values="0 0 0 0 0 0 0 0 0 0 0 0 0 0 0 0 0 0 0.8 0"/>
<feBlend mode="normal" in2="BackgroundImageFix" result="effect1_dropShadow_1_18"/>
<feBlend mode="normal" in="SourceGraphic" in2="effect1_dropShadow_1_18" result="shape"/>
</filter>
<clipPath id="clip0_1_18">
<rect width="218" height="40" fill="white" transform="translate(2)"/>
</clipPath>
</defs>
</svg>
