<svg width="1000" height="650" viewBox="0 0 1000 650" fill="none" xmlns="http://www.w3.org/2000/svg">
    <rect width="1000" height="650" fill="white"/>
    <path d="M171.911 98.8441C171.911 104.378 171.021 109.859 169.293 114.973C167.564 120.086 165.031 124.732 161.837 128.646C158.644 132.56 154.852 135.664 150.679 137.782C146.506 139.9 142.034 140.99 137.517 140.99C133 140.99 128.528 139.9 124.355 137.782C120.182 135.664 116.39 132.56 113.196 128.646C110.003 124.732 107.47 120.086 105.741 114.973C104.013 109.859 103.123 104.378 103.123 98.8441H137.517H171.911Z" fill="#EF8435"/>
    <mask id="mask0_1_3" style="mask-type:luminance" maskUnits="userSpaceOnUse" x="103" y="95" width="68" height="42">
        <path d="M169.241 96.3896C169.241 101.601 168.404 106.763 166.776 111.579C165.149 116.394 162.763 120.769 159.755 124.455C156.747 128.141 153.177 131.065 149.247 133.06C145.317 135.054 141.105 136.081 136.852 136.081C132.598 136.081 128.386 135.054 124.456 133.06C120.526 131.065 116.956 128.141 113.948 124.455C110.94 120.769 108.554 116.394 106.927 111.579C105.299 106.763 104.461 101.601 104.461 96.3896H136.852H169.241Z" stroke="white" stroke-width="1.66606"/>
    </mask>
    <g mask="url(#mask0_1_3)">
        <path d="M169.241 96.3896C169.241 101.601 168.404 106.763 166.776 111.579C165.149 116.394 162.763 120.769 159.755 124.455C156.747 128.141 153.177 131.065 149.247 133.06C145.317 135.054 141.105 136.081 136.852 136.081C132.598 136.081 128.386 135.054 124.456 133.06C120.526 131.065 116.956 128.141 113.948 124.455C110.94 120.769 108.554 116.394 106.927 111.579C105.299 106.763 104.461 101.601 104.461 96.3896H136.852H169.241Z" stroke="white" stroke-width="1.66606"/>
    </g>
    <path d="M137.516 126.26C127.004 126.26 118.483 115.817 118.483 102.936C118.483 90.0549 127.004 79.6124 137.516 79.6124C148.028 79.6124 156.55 90.0549 156.55 102.936C156.55 115.817 148.028 126.26 137.516 126.26Z" fill="#5C2860"/>
    <path d="M856.931 98.8257H838.181V176.546H856.931V98.8257Z" fill="#EBBE52"/>
    <path d="M853.28 97.7003H835V174.847H853.28V97.7003Z" stroke="white" stroke-width="0.708575"/>
    <path d="M885.899 98.8262C882.097 98.8262 878.327 99.7582 874.808 101.569C871.296 103.38 868.102 106.034 865.41 109.38C862.725 112.726 860.589 116.699 859.134 121.07C857.672 125.442 856.925 130.128 856.925 134.86C856.925 139.592 857.672 144.278 859.134 148.65C860.589 153.021 862.725 156.994 865.41 160.34C868.102 163.686 871.296 166.341 874.808 168.151C878.327 169.962 882.097 170.894 885.899 170.894V134.86V98.8262Z" fill="#EF8435"/>
    <mask id="mask1_1_3" style="mask-type:luminance" maskUnits="userSpaceOnUse" x="860" y="95" width="31" height="74">
        <path d="M889.874 96C886.065 96 882.302 96.9321 878.783 98.743C875.271 100.554 872.077 103.208 869.385 106.554C866.7 109.9 864.563 113.872 863.102 118.245C861.647 122.616 860.899 127.301 860.899 132.034C860.899 136.766 861.647 141.452 863.102 145.824C864.563 150.195 866.7 154.168 869.385 157.514C872.077 160.86 875.271 163.513 878.783 165.326C882.302 167.136 886.065 168.068 889.874 168.068V132.034V96Z" stroke="white" stroke-width="1.41715"/>
    </mask>
    <g mask="url(#mask1_1_3)">
        <path d="M889.874 96C886.065 96 882.302 96.9321 878.783 98.743C875.271 100.554 872.077 103.208 869.385 106.554C866.7 109.9 864.563 113.872 863.102 118.245C861.647 122.616 860.899 127.301 860.899 132.034C860.899 136.766 861.647 141.452 863.102 145.824C864.563 150.195 866.7 154.168 869.385 157.514C872.077 160.86 875.271 163.513 878.783 165.326C882.302 167.136 886.065 168.068 889.874 168.068V132.034V96Z" stroke="white" stroke-width="1.41715"/>
    </g>
    <path d="M111.605 486.987L142.998 547.823H80.2123L111.605 486.987Z" fill="#5C2860"/>
    <path d="M62.8307 547.436L97.5966 480.024L132.363 547.436H62.8307Z" stroke="white" stroke-width="0.877532"/>
    <path d="M920.787 544.126C937.91 544.126 951.792 527.247 951.792 506.427C951.792 485.606 937.91 468.728 920.787 468.728C903.664 468.728 889.782 485.606 889.782 506.427C889.782 527.247 903.664 544.126 920.787 544.126Z" fill="#EF8435"/>
    <path d="M956.515 504.425C956.515 525.092 942.731 541.848 925.727 541.848C908.73 541.848 894.954 525.092 894.954 504.425C894.954 483.758 908.73 467 925.727 467C942.731 467 956.515 483.758 956.515 504.425Z" stroke="white" stroke-width="0.678349"/>
    <path d="M904.603 513.432L926.938 556.383H882.268L904.603 513.432Z" fill="#5C2860"/>
    <path d="M875 560.778L896.925 518.614L918.849 560.778H875Z" stroke="white" stroke-width="0.678349"/>
    <path d="M924.327 345.605C928.923 345.605 932.647 340.992 932.647 335.302C932.647 329.612 928.923 325 924.327 325C919.73 325 916 329.612 916 335.302C916 340.992 919.73 345.605 924.327 345.605Z" fill="#EBBE52"/>
    <path d="M937.091 335.302C937.091 340.783 933.507 345.218 929.089 345.218C924.671 345.218 921.079 340.783 921.079 335.302C921.079 329.822 924.671 325.386 929.089 325.386C933.507 325.386 937.091 329.822 937.091 335.302Z" stroke="white" stroke-width="0.953356"/>
    <path d="M75.2169 306.199C79.6488 306.199 83.242 301.796 83.242 296.365C83.242 290.933 79.6488 286.53 75.2169 286.53C70.7844 286.53 67.1918 290.933 67.1918 296.365C67.1918 301.796 70.7844 306.199 75.2169 306.199Z" fill="#4AA35C"/>
    <path d="M79.0403 303.94C83.2983 303.94 86.7507 299.71 86.7507 294.492C86.7507 289.274 83.2983 285.044 79.0403 285.044C74.7824 285.044 71.3307 289.274 71.3307 294.492C71.3307 299.71 74.7824 303.94 79.0403 303.94Z" stroke="white" stroke-width="0.953356"/>
    <path d="M438.3 553.003L455.6 586.944H421L438.3 553.003Z" fill="#4AA35C"/>
    <path d="M427.252 583.26L444.204 550L461.158 583.26H427.252Z" stroke="white" stroke-width="0.582137"/>
</svg>
