<svg width="24" height="24" viewBox="0 0 24 24" fill="none" xmlns="http://www.w3.org/2000/svg">
<path d="M12.94 19.3347C12.9405 19.2469 12.9237 19.1599 12.8905 19.0787C12.8573 18.9975 12.8085 18.9236 12.7467 18.8613L5.88667 12.0013L12.7467 5.14132C12.8559 5.01379 12.913 4.84973 12.9065 4.68195C12.9 4.51417 12.8304 4.35501 12.7117 4.23628C12.593 4.11755 12.4338 4.04799 12.266 4.04151C12.0983 4.03503 11.9342 4.0921 11.8067 4.20132L4 12.0013L11.8067 19.808C11.9003 19.8997 12.0188 19.9618 12.1475 19.9866C12.2762 20.0113 12.4093 19.9976 12.5303 19.9471C12.6512 19.8966 12.7546 19.8115 12.8274 19.7026C12.9003 19.5937 12.9395 19.4657 12.94 19.3347Z" fill="#333333"/>
<path d="M20.273 19.3347C20.2735 19.2469 20.2567 19.1599 20.2235 19.0787C20.1903 18.9975 20.1415 18.9236 20.0797 18.8613L13.2197 12.0013L20.0797 5.14132C20.1889 5.01379 20.246 4.84973 20.2395 4.68195C20.233 4.51417 20.1634 4.35501 20.0447 4.23628C19.926 4.11755 19.7668 4.04799 19.599 4.04151C19.4313 4.03503 19.2672 4.0921 19.1397 4.20132L11.333 12.0013L19.1397 19.808C19.2333 19.8997 19.3518 19.9618 19.4805 19.9866C19.6092 20.0113 19.7423 19.9976 19.8633 19.9471C19.9842 19.8966 20.0876 19.8115 20.1604 19.7026C20.2333 19.5937 20.2725 19.4657 20.273 19.3347Z" fill="#333333"/>
</svg>
