<svg width="24" height="24" viewBox="0 0 24 24" fill="none" xmlns="http://www.w3.org/2000/svg">
<path d="M6 11.002C6 8.17395 6 6.75895 6.879 5.88095C7.757 5.00195 9.172 5.00195 12 5.00195H15C17.828 5.00195 19.243 5.00195 20.121 5.88095C21 6.75895 21 8.17395 21 11.002V16.002C21 18.83 21 20.245 20.121 21.123C19.243 22.002 17.828 22.002 15 22.002H12C9.172 22.002 7.757 22.002 6.879 21.123C6 20.245 6 18.83 6 16.002V11.002Z" stroke="#333333" stroke-width="1.5"/>
<path d="M6 19.002C5.20435 19.002 4.44129 18.6859 3.87868 18.1233C3.31607 17.5607 3 16.7976 3 16.002V10.002C3 6.23095 3 4.34495 4.172 3.17395C5.343 2.00195 7.229 2.00195 11 2.00195H15C15.7956 2.00195 16.5587 2.31802 17.1213 2.88063C17.6839 3.44324 18 4.2063 18 5.00195" stroke="#333333" stroke-width="1.5"/>
</svg>
