<svg width="32" height="32" viewBox="0 0 32 32" fill="none" xmlns="http://www.w3.org/2000/svg">
<path d="M5.66699 4C4.87134 4 4.10828 4.31607 3.54567 4.87868C2.98306 5.44129 2.66699 6.20435 2.66699 7V21C2.66699 21.7957 2.98306 22.5587 3.54567 23.1213C4.10828 23.6839 4.87134 24 5.66699 24H12.667V25.6667C12.667 26.5867 11.9203 27.3333 11.0003 27.3333H10.3337C10.0684 27.3333 9.81409 27.4387 9.62655 27.6262C9.43902 27.8138 9.33366 28.0681 9.33366 28.3333C9.33366 28.5986 9.43902 28.8529 9.62655 29.0404C9.81409 29.228 10.0684 29.3333 10.3337 29.3333H21.667C21.9322 29.3333 22.1866 29.228 22.3741 29.0404C22.5616 28.8529 22.667 28.5986 22.667 28.3333C22.667 28.0681 22.5616 27.8138 22.3741 27.6262C22.1866 27.4387 21.9322 27.3333 21.667 27.3333H21.0003C20.0803 27.3333 19.3337 26.5867 19.3337 25.6667V24H26.3337C27.1293 24 27.8924 23.6839 28.455 23.1213C29.0176 22.5587 29.3337 21.7957 29.3337 21V7C29.3337 6.20435 29.0176 5.44129 28.455 4.87868C27.8924 4.31607 27.1293 4 26.3337 4H5.66699ZM17.3337 24V25.6667C17.3337 26.2667 17.4777 26.8333 17.7337 27.3333H14.267C14.523 26.8333 14.667 26.2667 14.667 25.6667V24H17.3337ZM4.66699 7C4.66699 6.73478 4.77235 6.48043 4.95989 6.29289C5.14742 6.10536 5.40178 6 5.66699 6H26.3337C26.5989 6 26.8532 6.10536 27.0408 6.29289C27.2283 6.48043 27.3337 6.73478 27.3337 7V17.3333H4.66699V7ZM4.66699 19.3333H27.3337V21C27.3337 21.2652 27.2283 21.5196 27.0408 21.7071C26.8532 21.8946 26.5989 22 26.3337 22H5.66699C5.40178 22 5.14742 21.8946 4.95989 21.7071C4.77235 21.5196 4.66699 21.2652 4.66699 21V19.3333Z" fill="#727272"/>
</svg>
