<svg width="32" height="32" viewBox="0 0 32 32" fill="none" xmlns="http://www.w3.org/2000/svg">
<g clip-path="url(#clip0_869_44132)">
<path d="M22.2222 3.55469H9.77778C9.30628 3.55469 8.8541 3.74199 8.5207 4.07539C8.1873 4.40878 8 4.86097 8 5.33247V26.6658C8 27.1373 8.1873 27.5895 8.5207 27.9229C8.8541 28.2563 9.30628 28.4436 9.77778 28.4436H22.2222C22.6937 28.4436 23.1459 28.2563 23.4793 27.9229C23.8127 27.5895 24 27.1373 24 26.6658V5.33247C24 4.86097 23.8127 4.40878 23.4793 4.07539C23.1459 3.74199 22.6937 3.55469 22.2222 3.55469ZM9.77778 5.33247H22.2222V21.3325H9.77778V5.33247ZM9.77778 26.6658V23.1102H22.2222V26.6658H9.77778Z" fill="#333333"/>
<path d="M15.1113 24H16.8891V25.7778H15.1113V24Z" fill="#333333"/>
</g>
<defs>
<clipPath id="clip0_869_44132">
<rect width="32" height="32" fill="white"/>
</clipPath>
</defs>
</svg>
