<svg width="24" height="24" viewBox="0 0 24 24" fill="none" xmlns="http://www.w3.org/2000/svg">
<path d="M11.3334 19.3347C11.3329 19.2469 11.3497 19.1599 11.3829 19.0787C11.4161 18.9975 11.465 18.9236 11.5268 18.8613L18.3868 12.0013L11.5268 5.14132C11.4176 5.01379 11.3605 4.84973 11.367 4.68195C11.3734 4.51417 11.443 4.35501 11.5617 4.23628C11.6805 4.11755 11.8396 4.04799 12.0074 4.04151C12.1752 4.03503 12.3392 4.0921 12.4668 4.20132L20.2734 12.0013L12.4668 19.808C12.3732 19.8997 12.2546 19.9618 12.1259 19.9866C11.9972 20.0113 11.8641 19.9976 11.7432 19.9471C11.6222 19.8966 11.5189 19.8115 11.446 19.7026C11.3731 19.5937 11.334 19.4657 11.3334 19.3347Z" fill="#333333"/>
<path d="M4.00043 19.3347C3.99992 19.2469 4.01674 19.1599 4.04991 19.0787C4.08309 18.9975 4.13197 18.9236 4.19376 18.8613L11.0538 12.0013L4.19376 5.14132C4.08454 5.01379 4.02747 4.84973 4.03396 4.68195C4.04044 4.51417 4.10999 4.35501 4.22872 4.23628C4.34745 4.11755 4.50661 4.04799 4.67439 4.04151C4.84218 4.03503 5.00623 4.0921 5.13376 4.20132L12.9404 12.0013L5.13376 19.808C5.04017 19.8997 4.92162 19.9618 4.79292 19.9866C4.66423 20.0113 4.53109 19.9976 4.41017 19.9471C4.28924 19.8966 4.18588 19.8115 4.113 19.7026C4.04013 19.5937 4.00097 19.4657 4.00043 19.3347Z" fill="#333333"/>
</svg>
