<svg width="24" height="24" viewBox="0 0 24 24" fill="none" xmlns="http://www.w3.org/2000/svg">
<path d="M20.8144 5.53392C21.1632 5.53392 21.4459 5.25116 21.4459 4.90234C21.4459 4.55353 21.1632 4.27076 20.8144 4.27076V5.53392ZM11.3625 18.5891H11.994V17.3259H11.3625V18.5891ZM3.05273 17.3259H2.42116V18.5891H3.05273V17.3259ZM20.8144 4.27076H6.44743V5.53392H20.8144V4.27076ZM5.4369 5.28129V17.9575H6.70006V5.28129H5.4369ZM6.06848 18.5891H11.3625V17.3259H6.06848V18.5891ZM6.06848 17.3259H3.05273V18.5891H6.06848V17.3259ZM6.44743 4.27076C5.88933 4.27076 5.4369 4.72319 5.4369 5.28129H6.70006C6.70006 5.42082 6.58695 5.53392 6.44743 5.53392V4.27076Z" fill="#333333"/>
<path d="M21.1949 7.50977H16.4654C16.2561 7.50977 16.0865 7.67941 16.0865 7.88869L16.086 17.5461C16.0859 17.7554 16.2556 17.9251 16.4649 17.9251H21.1949C21.4042 17.9251 21.5739 17.7554 21.5739 17.5461V7.88871C21.5739 7.67943 21.4042 7.50977 21.1949 7.50977Z" stroke="#333333" stroke-width="1.26316" stroke-linejoin="round"/>
<rect x="2.42773" y="16.7637" width="12.0247" height="2.33635" rx="0.378947" fill="#333333"/>
</svg>
