<svg width="25" height="24" viewBox="0 0 25 24" fill="none" xmlns="http://www.w3.org/2000/svg">
<path d="M4.875 11.25C4.46079 11.25 4.125 11.5858 4.125 12C4.125 12.4142 4.46079 12.75 4.875 12.75L4.875 11.25ZM20.4053 12.5303C20.6982 12.2374 20.6982 11.7626 20.4053 11.4697L15.6324 6.6967C15.3395 6.4038 14.8646 6.4038 14.5717 6.6967C14.2788 6.98959 14.2788 7.46447 14.5717 7.75736L18.8143 12L14.5717 16.2426C14.2788 16.5355 14.2788 17.0104 14.5717 17.3033C14.8646 17.5962 15.3395 17.5962 15.6324 17.3033L20.4053 12.5303ZM4.875 12.75L19.875 12.75L19.875 11.25L4.875 11.25L4.875 12.75Z" fill="white"/>
</svg>
